<svg width="59" height="59" viewBox="0 0 59 59" fill="none" xmlns="http://www.w3.org/2000/svg">
<path d="M53.9298 1.49805C53.9298 3.17125 53.9298 4.84445 53.9298 6.56836C55.603 6.56836 57.2762 6.56836 59.0001 6.56836C58.4557 7.65713 57.4641 8.53746 56.6306 9.41321C56.5775 9.46918 56.5244 9.52515 56.4696 9.58281C54.3174 11.837 54.3174 11.837 53.2669 11.9481C52.871 11.9508 52.4912 11.9167 52.1005 11.8547C50.9938 11.6783 50.9938 11.6783 49.9703 12.0356C48.5431 13.1145 47.3529 14.536 46.2091 15.9023C46.2549 15.9551 46.3006 16.008 46.3477 16.0624C47.5571 17.4645 48.5904 18.98 49.4357 20.627C49.5007 20.7518 49.5007 20.7518 49.567 20.8792C52.3001 26.1816 52.6707 32.4204 50.8694 38.0789C50.8193 38.2316 50.8193 38.2316 50.7681 38.3875C50.7377 38.4801 50.7073 38.5727 50.6759 38.6681C50.3932 39.4889 50.0352 40.2239 49.6661 41.0234C51.4154 41.0615 53.1647 41.0995 54.9669 41.1387C54.7768 41.3288 54.5867 41.5189 54.3908 41.7148C53.2756 43.0812 52.915 44.2266 53.0295 46.0001C53.1903 47.2674 53.8032 48.2378 54.7815 49.0304C54.8427 49.0881 54.9039 49.1457 54.9669 49.2051C54.9669 49.2811 54.9669 49.3572 54.9669 49.4355C54.8169 49.4372 54.6669 49.4388 54.5123 49.4405C54.3133 49.4459 54.1144 49.4515 53.9154 49.4572C53.8168 49.4578 53.7181 49.4585 53.6165 49.4592C52.9031 49.4839 52.5804 49.6071 52.0861 50.127C51.8778 50.3661 51.8778 50.3661 51.7188 50.6167C51.6648 50.6957 51.6109 50.7748 51.5554 50.8562C51.1233 51.6839 50.9848 52.4612 50.9913 53.3895C50.9921 53.5485 50.9921 53.5485 50.9928 53.7108C51.0143 54.5702 51.18 55.2592 51.6251 56.0039C51.6721 56.0837 51.719 56.1634 51.7674 56.2456C52.0769 56.719 52.455 57.0407 52.8927 57.3867C52.8927 57.4247 52.8927 57.4628 52.8927 57.502C47.099 57.5125 41.3052 57.5206 35.5115 57.5255C34.8275 57.5261 34.1435 57.5267 33.4596 57.5273C33.3234 57.5274 33.1872 57.5275 33.0469 57.5276C30.842 57.5296 28.6371 57.5333 26.4322 57.5375C24.1698 57.5418 21.9074 57.5444 19.645 57.5453C18.249 57.546 16.853 57.548 15.4569 57.5517C14.4996 57.5541 13.5424 57.5549 12.5851 57.5543C12.0327 57.554 11.4804 57.5544 10.9281 57.5569C10.4221 57.5591 9.91616 57.5593 9.41015 57.5577C9.22743 57.5575 9.04471 57.5581 8.86199 57.5595C7.4693 57.5699 6.24714 57.3983 5.21133 56.3784C4.2533 55.3414 3.97195 54.394 4.00272 52.9952C4.08687 51.7626 4.63168 50.9495 5.53138 50.127C6.51068 49.3572 7.54635 49.2743 8.75794 49.2051C8.6472 49.1567 8.6472 49.1567 8.53422 49.1074C7.35427 48.5605 6.70393 47.8831 6.22278 46.6699C5.84318 45.5972 5.94138 44.4125 6.40644 43.3794C7.00974 42.3304 7.85057 41.659 8.98841 41.2539C9.14052 41.2539 9.29263 41.2539 9.44935 41.2539C9.39082 41.1282 9.33229 41.0026 9.27199 40.8731C6.70041 35.2727 6.29323 29.0638 8.37071 23.2223C9.0713 21.3498 9.99853 19.5902 11.1779 17.9766C11.224 17.9127 11.2701 17.8488 11.3177 17.7829C14.9549 12.7805 20.322 9.73325 26.3888 8.75781C27.0213 8.6674 27.6351 8.62306 28.2735 8.61917C28.3629 8.61836 28.4522 8.61754 28.5443 8.61671C32.3483 8.58995 32.3483 8.58995 34.1095 8.98828C34.2108 9.01118 34.3122 9.03407 34.4166 9.05766C37.8992 9.8752 40.9987 11.4338 43.7856 13.6647C44.0527 13.8778 44.3219 14.085 44.5958 14.2891C47.1696 12.3689 47.1696 12.3689 48.7497 9.78463C48.7441 9.3353 48.698 8.91961 48.6218 8.47693C48.485 7.62547 48.4668 6.97956 48.9581 6.25149C49.6624 5.36966 50.4631 4.58001 51.2794 3.80273C51.3703 3.71612 51.3703 3.71612 51.463 3.62776C53.7047 1.49805 53.7047 1.49805 53.9298 1.49805Z" fill="#FED322"/>
<path d="M28.2732 8.61916C28.3625 8.61834 28.4519 8.61753 28.544 8.61669C32.348 8.58994 32.348 8.58994 34.1092 8.98827C34.2105 9.01116 34.3118 9.03405 34.4162 9.05764C37.7078 9.83034 40.7113 11.2655 43.3855 13.3312C43.4533 13.3832 43.5211 13.4353 43.5909 13.4889C43.6871 13.5648 43.6871 13.5648 43.7853 13.6422C43.8416 13.6864 43.898 13.7306 43.9561 13.7762C44.1974 14.0022 44.3908 14.2604 44.5955 14.5195C43.8689 15.2594 43.1409 15.9977 42.4108 16.7341C42.0718 17.0761 41.7334 17.4186 41.3962 17.7623C41.071 18.0938 40.7443 18.4238 40.4167 18.753C40.2918 18.879 40.1674 19.0055 40.0435 19.1325C39.8702 19.3099 39.6952 19.4855 39.5197 19.6608C39.3707 19.8116 39.3707 19.8116 39.2188 19.9655C38.949 20.166 38.949 20.166 38.7005 20.1528C38.3913 20.0043 38.1489 19.7991 37.8831 19.5826C36.194 18.2667 34.0132 17.4381 31.9197 17.0547C31.805 17.0336 31.6904 17.0125 31.5722 16.9908C27.858 16.4864 24.0386 17.3471 21.04 19.6191C20.5823 19.9792 20.1406 20.3559 19.7049 20.7422C19.6141 20.8212 19.5234 20.9002 19.4298 20.9816C17.1837 23.0775 15.5736 26.4725 15.4226 29.5303C15.3688 33.8238 16.1528 37.4735 19.1899 40.7034C19.3592 40.9082 19.3592 40.9082 19.3592 41.1387C16.0888 41.1767 12.8185 41.2147 9.44901 41.2539C6.80495 35.3048 6.17805 29.0815 8.49293 22.8947C9.18261 21.1427 10.0669 19.4961 11.1775 17.9765C11.2467 17.8807 11.2467 17.8807 11.3174 17.7829C14.9545 12.7805 20.3217 9.73323 26.3885 8.7578C27.0209 8.66739 27.6347 8.62304 28.2732 8.61916Z" fill="#00CCB2"/>
<path d="M12.215 41.2539C13.2037 41.2539 14.1924 41.2539 15.2111 41.2539C15.2111 43.9158 15.2111 46.5777 15.2111 49.3203C27.646 49.3203 40.0809 49.3203 52.8927 49.3203C52.7026 49.5104 52.5124 49.7006 52.3165 49.8965C52.1531 50.0941 51.9945 50.2959 51.8412 50.5015C51.7648 50.6019 51.6885 50.7023 51.6098 50.8058C51.1128 51.6334 50.9846 52.4343 50.9913 53.3895C50.9921 53.5485 50.9921 53.5485 50.9928 53.7108C51.0143 54.5702 51.18 55.2592 51.6251 56.0039C51.6955 56.1236 51.6955 56.1236 51.7674 56.2456C52.0769 56.719 52.455 57.0407 52.8927 57.3867C52.8927 57.4247 52.8927 57.4628 52.8927 57.502C47.099 57.5125 41.3052 57.5206 35.5115 57.5255C34.8275 57.5261 34.1435 57.5267 33.4596 57.5273C33.3234 57.5274 33.1872 57.5275 33.0469 57.5276C30.842 57.5296 28.6371 57.5333 26.4322 57.5375C24.1698 57.5418 21.9074 57.5444 19.645 57.5453C18.249 57.546 16.853 57.548 15.4569 57.5517C14.4996 57.5541 13.5424 57.5549 12.5851 57.5543C12.0327 57.554 11.4804 57.5544 10.9281 57.5569C10.4221 57.5591 9.91616 57.5593 9.41015 57.5577C9.22743 57.5575 9.04471 57.5581 8.86199 57.5595C7.4693 57.5699 6.24714 57.3983 5.21133 56.3784C4.2533 55.3414 3.97195 54.394 4.00272 52.9952C4.08687 51.7626 4.63168 50.9494 5.53138 50.127C6.43195 49.4191 7.30519 49.285 8.42259 49.2978C8.51919 49.298 8.61578 49.2983 8.7153 49.2985C9.07283 49.2997 9.43034 49.3029 9.78785 49.3059C10.9893 49.313 10.9893 49.313 12.215 49.3203C12.215 46.6584 12.215 43.9965 12.215 41.2539Z" fill="#59A9E6"/>
<path d="M28.1973 41.0083C28.9496 41.0089 29.7019 41.0092 30.4542 41.0093C38.6254 41.011 46.796 41.0584 54.9668 41.1386C54.8318 41.2719 54.8318 41.2719 54.6941 41.4079C53.4943 42.6214 53.0424 43.7192 53.0079 45.4023C53.019 46.5034 53.352 47.5322 54.045 48.3984C54.285 48.6167 54.5293 48.8261 54.7814 49.0304C54.8426 49.088 54.9038 49.1456 54.9668 49.205C54.9668 49.2811 54.9668 49.3571 54.9668 49.4355C41.8474 49.3975 28.728 49.3594 15.211 49.3203C15.211 46.6583 15.211 43.9964 15.211 41.2539C14.2223 41.2539 13.2336 41.2539 12.2149 41.2539C12.2149 43.9158 12.2149 46.5777 12.2149 49.3203C8.31676 49.3203 8.31676 49.3203 7.0523 48.1094C6.26347 47.2155 5.94659 46.1239 6.00664 44.9486C6.15012 43.6907 6.63988 42.7764 7.60552 41.9453C8.5531 41.3456 9.37638 41.129 10.4915 41.1152C10.5705 41.1141 10.6495 41.113 10.7309 41.1118C10.9941 41.1082 11.2574 41.1054 11.5206 41.1027C11.7096 41.1003 11.8985 41.0979 12.0875 41.0955C12.6009 41.0891 13.1144 41.0835 13.6278 41.0781C13.9529 41.0747 14.278 41.0711 14.6031 41.0674C19.1345 41.0167 23.6657 41.005 28.1973 41.0083Z" fill="#FD6343"/>
<path d="M53.9297 1.49805C53.9297 3.17125 53.9297 4.84445 53.9297 6.56836C55.6029 6.56836 57.2761 6.56836 59 6.56836C58.4556 7.65713 57.464 8.53746 56.6305 9.41321C56.5774 9.46918 56.5242 9.52515 56.4695 9.58281C54.3173 11.837 54.3173 11.837 53.2667 11.9481C52.8709 11.9508 52.4911 11.9162 52.1003 11.8547C50.9985 11.6816 50.9985 11.6816 49.9767 12.0299C48.7916 12.9215 47.7903 14.0745 46.8313 15.199C46.7627 15.2793 46.6942 15.3596 46.6235 15.4424C46.5654 15.5119 46.5073 15.5814 46.4474 15.653C46.2365 15.8736 46.0212 16.0684 45.7902 16.2672C45.2342 16.7481 44.7171 17.2636 44.1987 17.7843C44.0417 17.9413 44.0417 17.9413 43.8815 18.1014C43.5973 18.3856 43.3134 18.6702 43.0296 18.9548C42.7319 19.2532 42.4339 19.5513 42.1359 19.8494C41.5729 20.4128 41.0102 20.9764 40.4476 21.5402C39.8066 22.1825 39.1653 22.8245 38.5239 23.4664C37.2057 24.7858 35.8878 26.1057 34.5703 27.4258C34.6266 27.5444 34.6829 27.663 34.7409 27.7852C34.8151 27.9423 34.8892 28.0995 34.9633 28.2567C35.0004 28.3347 35.0374 28.4127 35.0757 28.493C35.7211 29.8658 35.8215 31.3779 35.377 32.8418C34.7651 34.5386 33.6992 35.8198 32.0784 36.6319C30.6821 37.2656 29.0646 37.363 27.5914 36.9254C26.9052 36.6517 26.2971 36.2655 25.6973 35.8379C25.5761 35.7523 25.4548 35.6668 25.33 35.5786C24.0902 34.3665 23.3857 32.8409 23.3638 31.1061C23.3668 29.3413 23.9759 27.9283 25.1895 26.652C26.4755 25.4307 28.0303 24.8465 29.7921 24.8663C30.725 24.9231 31.5249 25.1995 32.3665 25.5955C32.4993 25.6578 32.6321 25.72 32.7689 25.7841C32.9191 25.8552 32.9191 25.8552 33.0723 25.9277C33.1425 25.857 33.2127 25.7863 33.2851 25.7134C33.9458 25.048 34.6071 24.3833 35.269 23.7191C35.6093 23.3776 35.9493 23.0359 36.2889 22.6937C36.6164 22.3637 36.9445 22.0342 37.2729 21.7052C37.3984 21.5793 37.5236 21.4532 37.6487 21.327C37.8233 21.1506 37.9987 20.975 38.1743 20.7996C38.2741 20.6993 38.3739 20.599 38.4767 20.4956C38.7188 20.2812 38.7188 20.2812 38.9492 20.2812C38.9769 20.216 39.0047 20.1508 39.0332 20.0835C39.2099 19.766 39.4214 19.5518 39.6796 19.296C39.7832 19.1929 39.8867 19.0898 39.9933 18.9835C40.1067 18.8718 40.22 18.76 40.3334 18.6482C40.45 18.5322 40.5666 18.4163 40.6831 18.3002C40.9902 17.9947 41.2979 17.6898 41.6057 17.3852C42.0965 16.8993 42.5865 16.4128 43.0761 15.9258C43.2461 15.757 43.4164 15.5887 43.5868 15.4203C44.0435 14.9669 44.4926 14.5147 44.9103 14.0247C45.2706 13.6041 45.6668 13.2581 46.0928 12.9062C47.7513 11.5984 47.7513 11.5984 48.7133 9.82142C48.6945 9.38032 48.6452 8.95652 48.5785 8.52014C48.4598 7.66647 48.4622 6.98488 48.9602 6.24925C49.6641 5.36841 50.4636 4.57929 51.2793 3.80273C51.3398 3.74504 51.4003 3.68734 51.4627 3.6279C53.7046 1.49805 53.7046 1.49805 53.9297 1.49805Z" fill="#EC1D24"/>
<path d="M45.9785 15.9023C46.8426 16.6218 46.8426 16.6218 47.13 17.0038C47.1844 17.0758 47.2389 17.1478 47.295 17.2219C47.3777 17.3352 47.3777 17.3352 47.4622 17.4508C47.5217 17.5318 47.5813 17.6127 47.6426 17.6961C51.1553 22.5389 52.5945 28.5435 51.7402 34.4551C51.5181 35.7893 51.1932 37.0943 50.7751 38.3802C50.7457 38.4719 50.7163 38.5636 50.6859 38.658C50.3839 39.5416 49.9794 40.2815 49.5508 41.1387C46.2804 41.1387 43.0101 41.1387 39.6406 41.1387C39.8407 40.7384 39.9819 40.5424 40.2816 40.2312C42.5361 37.728 43.5785 34.4166 43.5802 31.0989C43.5823 30.8863 43.5823 30.8863 43.5845 30.6694C43.5867 29.2603 43.4364 27.9185 42.9752 26.5831C42.9403 26.4808 42.9054 26.3785 42.8694 26.273C42.3489 24.8051 41.6303 23.4963 40.6489 22.2884C40.3496 21.8749 40.3496 21.8749 40.332 21.5488C40.5325 21.279 40.5325 21.279 40.8373 20.9782C40.8923 20.923 40.9474 20.8679 41.0041 20.8111C41.1867 20.6289 41.3713 20.4488 41.5559 20.2686C41.6828 20.1428 41.8096 20.0169 41.9362 19.8908C42.2701 19.5592 42.6057 19.2293 42.9416 18.8997C43.284 18.5632 43.6248 18.225 43.9657 17.887C44.6351 17.2238 45.3062 16.5625 45.9785 15.9023Z" fill="#00CBB2"/>
<path d="M32.957 25.9277C32.8002 26.2787 32.6236 26.5198 32.3513 26.79C32.2371 26.9042 32.2371 26.9042 32.1207 27.0206C32.0387 27.1014 31.9567 27.1822 31.8722 27.2655C31.7461 27.3911 31.7461 27.3911 31.6174 27.5193C31.3491 27.7863 31.0799 28.0526 30.8108 28.3188C30.6286 28.4999 30.4464 28.681 30.2643 28.8621C29.8181 29.3058 29.3712 29.7488 28.9238 30.1914C29.1088 30.5844 29.3162 30.8387 29.6296 31.142C29.7131 31.2235 29.7966 31.3049 29.8826 31.3887C29.9465 31.4499 30.0104 31.5111 30.0762 31.5742C30.4271 31.4175 30.6662 31.242 30.9349 30.9685C31.0102 30.8923 31.0856 30.8162 31.1632 30.7378C31.2433 30.6558 31.3234 30.5738 31.4059 30.4894C31.4891 30.4053 31.5723 30.3212 31.658 30.2346C31.9235 29.9662 32.1883 29.6972 32.4529 29.4279C32.8018 29.0729 33.1515 28.7186 33.5017 28.3647C33.5822 28.2823 33.6628 28.1998 33.7458 28.1148C33.8577 28.0018 33.8577 28.0018 33.9719 27.8864C34.0376 27.8195 34.1032 27.7527 34.1709 27.6838C34.3398 27.541 34.3398 27.541 34.5703 27.541C35.4889 29.2676 35.9731 30.8785 35.377 32.8418C34.7651 34.5385 33.6992 35.8197 32.0784 36.6319C30.6821 37.2655 29.0646 37.3629 27.5914 36.9254C26.9052 36.6517 26.2971 36.2655 25.6973 35.8378C25.5761 35.7523 25.4548 35.6667 25.33 35.5786C24.0902 34.3664 23.3857 32.8408 23.3638 31.106C23.3668 29.3413 23.9759 27.9282 25.1895 26.652C27.4668 24.4893 30.3114 24.4782 32.957 25.9277Z" fill="#FE5022"/>
<path d="M12.215 41.2539C13.2037 41.2539 14.1924 41.2539 15.2111 41.2539C15.2111 43.9158 15.2111 46.5777 15.2111 49.3203C14.5646 49.3203 13.9181 49.3203 13.2521 49.3203C13.2521 52.0203 13.2521 54.7202 13.2521 57.502C12.2871 57.5115 11.3222 57.521 10.328 57.5308C10.0257 57.535 9.72332 57.5392 9.41182 57.5435C9.16895 57.5448 8.92609 57.546 8.68322 57.547C8.55973 57.5493 8.43624 57.5517 8.30902 57.5541C7.1314 57.5547 6.06799 57.2219 5.21133 56.3784C4.2533 55.3414 3.97195 54.394 4.00272 52.9952C4.08687 51.7626 4.63168 50.9494 5.53138 50.127C6.43195 49.4191 7.30519 49.285 8.42259 49.2978C8.51919 49.298 8.61578 49.2983 8.7153 49.2985C9.07283 49.2997 9.43034 49.3029 9.78785 49.3059C10.9893 49.313 10.9893 49.313 12.215 49.3203C12.215 46.6584 12.215 43.9965 12.215 41.2539Z" fill="#E3E5E7"/>
<path d="M15.2109 44.25C26.6572 44.25 38.1034 44.25 49.8965 44.25C49.8965 44.9345 49.8965 45.619 49.8965 46.3242C38.4503 46.3242 27.004 46.3242 15.2109 46.3242C15.2109 45.6397 15.2109 44.9552 15.2109 44.25Z" fill="#ED1D24"/>
<path d="M13.252 52.4316C24.6602 52.4316 36.0684 52.4316 47.8223 52.4316C47.8223 53.0781 47.8223 53.7246 47.8223 54.3906C36.4141 54.3906 25.0059 54.3906 13.252 54.3906C13.252 53.7442 13.252 53.0977 13.252 52.4316Z" fill="#1E81CE"/>
<path d="M53.9295 1.49805C53.9295 3.17125 53.9295 4.84445 53.9295 6.56836C55.6027 6.56836 57.2759 6.56836 58.9998 6.56836C58.4546 7.65863 57.4649 8.54333 56.6303 9.42041C56.5775 9.47587 56.5248 9.53133 56.4704 9.58846C54.1782 11.9821 54.1782 11.9821 52.6739 12.0882C51.9835 12.095 51.3088 11.9913 50.6365 11.8395C50.0487 11.712 49.4584 11.6746 48.8592 11.6387C48.8546 11.5576 48.85 11.4765 48.8453 11.3929C48.8005 10.7364 48.7172 10.1304 48.5544 9.49243C48.3606 8.46976 48.2759 7.52771 48.7439 6.56836C49.4652 5.51995 52.6468 1.49805 53.9295 1.49805Z" fill="#FE5023"/>
<path d="M12.2149 41.2539C12.2149 43.9158 12.2149 46.5777 12.2149 49.3203C8.31676 49.3203 8.31676 49.3203 7.0523 48.1095C6.26347 47.2155 5.94659 46.124 6.00664 44.9486C6.14722 43.7162 6.62709 42.7352 7.60552 41.9453C8.98833 41.2539 8.98833 41.2539 12.2149 41.2539Z" fill="#FE5023"/>
<path d="M10.1408 49.3203C10.1408 52.0202 10.1408 54.7201 10.1408 57.5019C6.35242 57.5019 6.35242 57.5019 5.21133 56.3784C4.2533 55.3413 3.97195 54.3939 4.00272 52.9952C4.08687 51.7626 4.63168 50.9494 5.53138 50.1269C6.9275 49.0296 8.29629 49.3203 10.1408 49.3203Z" fill="#3C9AE2"/>
<path d="M11.1777 7.7207C11.6483 7.89985 11.8786 8.21055 12.186 8.59937C12.2781 8.71493 12.3702 8.8305 12.4651 8.94957C12.5346 9.0384 12.6042 9.12723 12.6758 9.21875C12.4962 9.68105 12.197 9.92328 11.8187 10.2343C11.7072 10.3277 11.5956 10.4211 11.4807 10.5174C11.3807 10.5832 11.2807 10.649 11.1777 10.7168C10.732 10.5682 10.5888 10.3504 10.2919 9.98938C10.1987 9.87812 10.1056 9.76686 10.0096 9.65223C9.79492 9.33398 9.79492 9.33398 9.79492 8.87305C10.0213 8.65075 10.2373 8.46099 10.4863 8.26807C10.5523 8.21518 10.6182 8.1623 10.6862 8.10782C10.849 7.97753 11.0133 7.84895 11.1777 7.7207Z" fill="#FFA732"/>
<path d="M4.37891 15.3262C4.8157 15.4907 5.2168 15.6906 5.62488 15.9167C5.73733 15.9788 5.84977 16.0409 5.96563 16.1049C6.05045 16.1521 6.13527 16.1994 6.22266 16.248C6.15551 16.7578 5.96134 17.1141 5.6969 17.5516C5.62307 17.6748 5.54925 17.7979 5.47318 17.9248C5.41629 18.0179 5.3594 18.1111 5.30078 18.207C4.82825 18.0622 4.41562 17.8892 3.98999 17.6381C3.88928 17.58 3.78856 17.5219 3.6848 17.4621C3.60964 17.4037 3.53447 17.3453 3.45703 17.2852C3.45703 16.8133 3.68396 16.5053 3.91797 16.1112C3.96194 16.0358 4.00591 15.9604 4.05121 15.8828C4.15978 15.6968 4.26925 15.5115 4.37891 15.3262Z" fill="#FFA732"/>
<path d="M7.49023 11.1777C8.08854 11.616 8.66057 12.0721 9.21875 12.5605C8.81127 13.1123 8.39542 13.6512 7.95117 14.1738C7.46922 14.1107 7.19078 13.8398 6.82764 13.5328C6.71415 13.4376 6.60066 13.3424 6.48373 13.2443C6.39758 13.1708 6.31142 13.0972 6.22266 13.0215C6.27971 12.5213 6.60421 12.2049 6.92126 11.8403C6.97571 11.7765 7.03015 11.7126 7.08624 11.6468C7.22019 11.4898 7.35512 11.3337 7.49023 11.1777Z" fill="#FFA732"/>
<path d="M54.7363 15.4414C54.9108 15.73 55.0675 16.0127 55.2189 16.3129C55.2613 16.3948 55.3037 16.4767 55.3474 16.5611C55.452 16.7635 55.5552 16.9667 55.6582 17.1699C54.4611 17.9919 54.4611 17.9919 53.9297 18.207C53.4653 18.0522 53.4007 17.8409 53.1591 17.422C53.0514 17.2391 53.0514 17.2391 52.9416 17.0524C52.7773 16.709 52.7773 16.709 52.7773 16.248C53.0382 16.0905 53.2999 15.9348 53.5624 15.7799C53.6364 15.735 53.7105 15.69 53.7868 15.6437C54.3515 15.3131 54.3515 15.3131 54.7363 15.4414Z" fill="#FFA732"/>
<path d="M43.2129 4.95508C43.7226 5.02222 44.0789 5.21639 44.5165 5.48083C44.6396 5.55466 44.7628 5.62849 44.8896 5.70455C44.9828 5.76144 45.0759 5.81834 45.1719 5.87695C45.0932 6.32188 44.8874 6.66374 44.6605 7.0509C44.5894 7.17375 44.5182 7.2966 44.4449 7.42316C44.25 7.7207 44.25 7.7207 44.0195 7.83594C43.7179 7.67358 43.4306 7.50609 43.1409 7.32458C43.0188 7.24961 43.0188 7.24961 42.8942 7.17311C42.6926 7.04918 42.4918 6.92411 42.291 6.79883C42.4555 6.36203 42.6554 5.96093 42.8816 5.55286C42.9437 5.44041 43.0058 5.32796 43.0697 5.2121C43.117 5.12729 43.1642 5.04247 43.2129 4.95508Z" fill="#FFA732"/>
<path d="M15.7871 4.95508C15.9446 5.21597 16.1004 5.47767 16.2552 5.74011C16.3227 5.85119 16.3227 5.85119 16.3914 5.9645C16.5063 6.16076 16.6085 6.36433 16.709 6.56836C16.5476 7.05241 16.2056 7.16649 15.7799 7.39661C15.7035 7.43902 15.6271 7.48143 15.5483 7.52512C15.3596 7.62968 15.1701 7.73294 14.9805 7.83594C14.6132 7.49905 14.3793 7.16572 14.145 6.72681C14.085 6.61599 14.025 6.50518 13.9632 6.39101C13.8281 6.10742 13.8281 6.10742 13.8281 5.87695C14.0893 5.72239 14.351 5.56891 14.6132 5.41602C14.6872 5.37205 14.7613 5.32808 14.8376 5.28278C15.4022 4.95508 15.4022 4.95508 15.7871 4.95508Z" fill="#FFA732"/>
<path d="M57.041 20.0508C57.1719 20.3202 57.2682 20.5604 57.3579 20.8431C57.3833 20.9166 57.4087 20.9901 57.4349 21.0659C57.5453 21.3944 57.6172 21.6612 57.6172 22.0098C57.3582 22.1068 57.0989 22.2026 56.8394 22.2979C56.7663 22.3254 56.6932 22.3529 56.6179 22.3812C56.2306 22.5224 55.9614 22.586 55.543 22.586C55.3148 21.9395 55.0866 21.2931 54.8516 20.627C55.1273 20.5105 55.403 20.3941 55.687 20.2741C55.7731 20.237 55.8591 20.1998 55.9478 20.1615C56.6295 19.8815 56.6295 19.8815 57.041 20.0508Z" fill="#FFA732"/>
<path d="M2.07422 19.9355C2.80371 20.0551 3.4634 20.3571 4.14844 20.627C3.92027 21.2734 3.69211 21.9199 3.45703 22.5859C2.88095 22.5036 2.48847 22.4329 1.96619 22.233C1.85582 22.1913 1.74545 22.1496 1.63174 22.1065C1.54959 22.0746 1.46745 22.0427 1.38281 22.0098C1.4504 21.4924 1.58613 21.0619 1.79333 20.5837C1.84577 20.4616 1.89821 20.3395 1.95223 20.2137C1.99249 20.1219 2.03274 20.0301 2.07422 19.9355Z" fill="#FFA732"/>
<path d="M38.6035 2.88086C39.2784 3.07232 39.924 3.28077 40.5625 3.57227C40.4286 4.3175 40.2024 4.96617 39.8711 5.64648C39.5877 5.55307 39.3045 5.45941 39.0212 5.3656C38.9407 5.33909 38.8602 5.31257 38.7773 5.28525C38.1687 5.08337 38.1687 5.08337 37.9121 4.95508C38.046 4.20984 38.2722 3.56118 38.6035 2.88086Z" fill="#FFA632"/>
<path d="M20.5117 2.99609C20.6324 3.26184 20.7304 3.51273 20.8214 3.78833C20.8473 3.86185 20.8733 3.93538 20.9 4.01114C21.013 4.34041 21.0879 4.6046 21.0879 4.95507C20.7858 5.07378 20.4833 5.19123 20.1804 5.30798C20.0944 5.34192 20.0084 5.37586 19.9198 5.41083C19.697 5.49612 19.4707 5.57199 19.2441 5.64648C18.8813 5.46506 18.8362 5.10312 18.7112 4.73901C18.6847 4.66548 18.6583 4.59195 18.6311 4.51619C18.5153 4.18614 18.4375 3.92459 18.4375 3.57226C18.7179 3.45328 18.9988 3.33589 19.2802 3.21936C19.3995 3.16844 19.3995 3.16844 19.5212 3.1165C20.1269 2.8678 20.1269 2.8678 20.5117 2.99609Z" fill="#FFA732"/>
<path d="M25.4668 1.72852C25.5248 2.02854 25.5824 2.32863 25.6396 2.62878C25.6561 2.71383 25.6726 2.79887 25.6896 2.88649C25.756 3.23554 25.8125 3.5618 25.8125 3.91797C24.7287 4.08909 24.7287 4.08909 23.623 4.26367C23.509 3.54115 23.3949 2.81863 23.2773 2.07422C23.5744 2.01718 23.8715 1.96014 24.1776 1.90137C24.2707 1.88332 24.3638 1.86527 24.4598 1.84668C24.8008 1.78199 25.1189 1.72852 25.4668 1.72852Z" fill="#FFA732"/>
<path d="M33.533 1.72852C33.8115 1.7642 34.09 1.80026 34.3684 1.83655C34.4863 1.85159 34.4863 1.85159 34.6066 1.86693C34.9878 1.91691 35.3486 1.98076 35.7224 2.07422C35.6084 2.79674 35.4943 3.51926 35.3767 4.26367C34.6922 4.14959 34.0077 4.03551 33.3025 3.91797C33.1493 3.45831 33.2583 3.09005 33.3529 2.62878C33.3699 2.54241 33.3869 2.45603 33.4045 2.36703C33.4465 2.15404 33.4897 1.94125 33.533 1.72852Z" fill="#FFA732"/>
<path d="M56.6953 34.6855C57.7221 34.8567 57.7221 34.8567 58.7695 35.0312C58.7126 35.7905 58.6311 36.4885 58.4238 37.2207C58.1645 37.185 57.9052 37.1489 57.646 37.1127C57.4294 37.0826 57.4294 37.0826 57.2085 37.0519C56.9143 37.0063 56.6355 36.9551 56.3496 36.875C56.363 36.6829 56.3777 36.4908 56.3928 36.2988C56.4008 36.1919 56.4089 36.0849 56.4171 35.9747C56.4738 35.5388 56.5887 35.112 56.6953 34.6855Z" fill="#FFA632"/>
<path d="M2.18941 34.6855C2.4726 34.9687 2.48234 35.1307 2.54952 35.521C2.56883 35.6285 2.58814 35.7361 2.60804 35.8469C2.65156 36.1932 2.65757 36.5263 2.65035 36.875C2.36955 36.933 2.08866 36.9906 1.8077 37.0479C1.72815 37.0643 1.64861 37.0808 1.56665 37.0978C1.23006 37.1661 0.920559 37.2207 0.576133 37.2207C0.517774 36.964 0.460334 36.7071 0.403281 36.4501C0.371196 36.307 0.33911 36.164 0.306052 36.0166C0.242697 35.6738 0.214532 35.3777 0.23043 35.0312C0.551883 34.9672 0.873507 34.9051 1.19552 34.844C1.28702 34.8256 1.37852 34.8072 1.4728 34.7882C1.71002 34.7439 1.94976 34.7138 2.18941 34.6855Z" fill="#FFA732"/>
<path d="M0.576172 24.8906C2.03616 24.9804 2.03616 24.9804 2.65039 25.2363C2.60089 25.9567 2.53354 26.624 2.30469 27.3105C1.59697 27.2431 0.921092 27.133 0.230469 26.9648C0.286151 26.2498 0.384097 25.5821 0.576172 24.8906Z" fill="#FFA732"/>
<path d="M58.4238 24.8906C58.4822 25.1281 58.5396 25.3658 58.5966 25.6036C58.6287 25.7359 58.6608 25.8683 58.6939 26.0047C58.7597 26.3389 58.7848 26.6261 58.7695 26.9648C58.5103 27.023 58.251 27.0805 57.9917 27.1376C57.8473 27.1697 57.7029 27.2018 57.5541 27.2349C57.1562 27.3105 57.1562 27.3105 56.6953 27.3105C56.6369 27.073 56.5794 26.8353 56.5224 26.5975C56.4903 26.4651 56.4582 26.3328 56.4252 26.1964C56.3594 25.8622 56.3343 25.575 56.3496 25.2363C57.0669 25.0253 57.6763 24.8844 58.4238 24.8906Z" fill="#FFA732"/>
<path d="M56.9258 29.9609C57.6103 29.9609 58.2948 29.9609 59 29.9609C59 30.6835 59 31.406 59 32.1504C58.3155 32.1504 57.631 32.1504 56.9258 32.1504C56.9258 31.4279 56.9258 30.7054 56.9258 29.9609Z" fill="#FFA733"/>
<path d="M0 29.9609C0.684492 29.9609 1.36898 29.9609 2.07422 29.9609C2.07422 30.6835 2.07422 31.406 2.07422 32.1504C1.38973 32.1504 0.705234 32.1504 0 32.1504C0 31.4279 0 30.7054 0 29.9609Z" fill="#FFA733"/>
<path d="M28.4629 1.49805C29.1474 1.49805 29.8319 1.49805 30.5371 1.49805C30.5371 2.18254 30.5371 2.86703 30.5371 3.57227C29.8526 3.57227 29.1681 3.57227 28.4629 3.57227C28.4629 2.88777 28.4629 2.20328 28.4629 1.49805Z" fill="#FFA633"/>
<path d="M15.2109 46.3242C15.249 46.3242 15.287 46.3242 15.3262 46.3242C15.3211 46.4549 15.3161 46.5857 15.3109 46.7203C15.2794 47.7344 15.2794 47.7344 15.7056 48.6145C15.9927 48.8348 16.2813 49.0236 16.5938 49.2051C16.5938 49.2431 16.5938 49.2811 16.5938 49.3203C16.1374 49.3203 15.6811 49.3203 15.2109 49.3203C15.2109 48.3316 15.2109 47.3429 15.2109 46.3242Z" fill="#EC7154"/>
</svg>
