<svg width="59" height="59" viewBox="0 0 59 59" fill="none" xmlns="http://www.w3.org/2000/svg">
<g clip-path="url(#clip0_753_1980)">
<path d="M13.8282 0.230445C14.2188 0.303234 14.5937 0.409119 14.9733 0.525733C15.0775 0.556797 15.1816 0.587862 15.2889 0.619867C17.0291 1.14878 18.6795 1.7876 20.2813 2.65037C20.3512 2.68734 20.4211 2.7243 20.4932 2.76239C22.0059 3.56611 23.3031 4.58521 24.5449 5.76169C24.7103 5.91588 24.7103 5.91588 24.8789 6.07319C26.7009 7.80647 28.0046 9.92655 28.8734 12.2796C28.912 12.3838 28.9506 12.4879 28.9903 12.5952C29.2172 13.2415 29.3342 13.8363 29.3848 14.5195C29.4608 14.5195 29.5369 14.5195 29.6153 14.5195C29.62 14.3888 29.6248 14.2581 29.6297 14.1234C30.0388 10.5474 32.847 6.93922 35.5221 4.74113C36.6021 3.90102 37.7405 3.17437 38.9492 2.53513C39.067 2.46962 39.1848 2.40412 39.3062 2.33662C41.1119 1.37343 44.2316 -0.186419 46.3242 0.230445C46.7099 0.493801 46.8118 0.707456 46.9004 1.15232C46.91 1.47086 46.9138 1.78636 46.9117 2.1048C46.9114 2.24194 46.9114 2.24194 46.9112 2.38185C46.9105 2.67302 46.9091 2.96418 46.9076 3.25535C46.907 3.45311 46.9065 3.65086 46.906 3.84862C46.9048 4.33267 46.9028 4.81671 46.9004 5.30076C46.9889 5.27191 47.0774 5.24307 47.1686 5.21335C48.1334 4.9067 49.1004 4.66537 50.091 4.45811C50.3054 4.41031 50.3054 4.41031 50.5242 4.36155C52.3194 3.98427 52.3194 3.98427 53.1215 4.37522C53.6014 4.69188 53.9506 5.10693 54.2898 5.56724C54.3975 5.70918 54.5054 5.85096 54.6135 5.99261C54.6981 6.10405 54.6981 6.10405 54.7845 6.21774C55.1758 6.72281 55.5872 7.21232 55.9966 7.70281C56.0577 7.77704 56.1188 7.85127 56.1817 7.92774C56.2364 7.99351 56.2911 8.05928 56.3475 8.12704C56.4649 8.29685 56.4649 8.29685 56.4649 8.52732C56.547 8.49271 56.6292 8.4581 56.7138 8.42244C57.8703 7.96325 57.8703 7.96325 58.5391 8.18162C58.8497 8.42582 58.9845 8.55971 59.0581 8.95258C59.0583 9.07216 59.0585 9.19174 59.0587 9.31494C59.06 9.45319 59.0614 9.59143 59.0627 9.73387C59.0619 9.88592 59.061 10.038 59.0601 10.1946C59.0608 10.3577 59.0617 10.5207 59.0628 10.6837C59.0652 11.1322 59.0646 11.5807 59.0637 12.0292C59.0631 12.5127 59.0652 12.9962 59.0669 13.4797C59.0698 14.4271 59.0702 15.3745 59.0697 16.3219C59.0693 17.0917 59.0697 17.8616 59.0707 18.6314C59.0708 18.7409 59.071 18.8504 59.0711 18.9632C59.0714 19.1855 59.0717 19.4079 59.0719 19.6303C59.0744 21.7167 59.0739 23.8032 59.0725 25.8897C59.0713 27.7995 59.0739 29.7093 59.0783 31.6191C59.0828 33.579 59.0847 35.5389 59.0838 37.4988C59.0834 38.5996 59.084 39.7004 59.0872 40.8012C59.09 41.7382 59.0903 42.6753 59.0875 43.6124C59.0861 44.0907 59.0859 44.5689 59.0887 45.0472C59.0911 45.4849 59.0904 45.9224 59.0872 46.3601C59.0863 46.5938 59.0888 46.8275 59.0914 47.0612C59.0796 48.0507 59.0796 48.0507 58.8524 48.3856C58.4891 48.699 58.0392 48.8938 57.6006 49.0804C57.4609 49.1406 57.3212 49.2007 57.1773 49.2628C57.1027 49.2943 57.0281 49.3257 56.9512 49.3582C56.7096 49.4602 56.4685 49.5637 56.2276 49.6675C55.8765 49.8186 55.5253 49.9693 55.1739 50.1197C54.3246 50.484 53.479 50.8566 52.6331 51.2287C52.3348 51.3599 52.0365 51.4909 51.7381 51.6219C50.1934 52.3001 48.6503 52.9818 47.1075 53.6641C45.1118 54.5466 43.114 55.4246 41.1156 56.301C40.3738 56.6263 39.6322 56.9522 38.8907 57.2782C38.5644 57.4216 38.2381 57.5651 37.9118 57.7085C37.7026 57.8004 37.4934 57.8924 37.2843 57.9845C36.9948 58.1118 36.7054 58.239 36.4159 58.3662C36.3305 58.4038 36.2452 58.4414 36.1572 58.4801C34.8099 59.0716 34.8099 59.0716 34.2246 59C33.8357 58.7695 33.8357 58.7695 33.5332 58.539C33.4716 58.6139 33.41 58.6887 33.3464 58.7658C32.9992 59.0625 32.8253 59.0583 32.3733 59.0596C32.1615 59.0618 32.1615 59.0618 31.9456 59.064C31.7174 59.0626 31.7174 59.0626 31.4847 59.0612C31.3265 59.0615 31.1684 59.062 31.0102 59.0625C30.679 59.0632 30.3479 59.0622 30.0167 59.0601C29.593 59.0574 29.1695 59.059 28.7458 59.0617C28.4193 59.0634 28.0927 59.0628 27.7662 59.0617C27.5343 59.0612 27.3024 59.0626 27.0705 59.064C26.8583 59.0618 26.8583 59.0618 26.6417 59.0596C26.5174 59.0593 26.3932 59.0589 26.2652 59.0585C25.8516 58.9868 25.655 58.8216 25.3516 58.539C25.2779 58.6175 25.2042 58.6959 25.1283 58.7767C24.6357 59.0883 24.2939 59.0016 23.7383 58.8847C23.3964 58.7718 23.0755 58.6264 22.7503 58.4724C22.6589 58.4306 22.5675 58.3889 22.4734 58.3458C22.2781 58.2563 22.083 58.1662 21.8883 58.0755C21.4744 57.8826 21.0591 57.693 20.6438 57.5032C20.434 57.4072 20.2242 57.3111 20.0145 57.2148C19.1553 56.8207 18.2908 56.4412 17.422 56.0687C16.0355 55.4721 14.6539 54.8648 13.2736 54.2538C11.7317 53.5713 10.1892 52.8904 8.64506 52.2133C6.96088 51.4748 5.27727 50.735 3.5948 49.9926C3.37537 49.8958 3.15591 49.7991 2.93642 49.7024C2.6317 49.5681 2.32708 49.4337 2.02248 49.2991C1.93267 49.2596 1.84287 49.2201 1.75034 49.1794C0.27631 48.5274 0.27631 48.5274 2.56374e-05 48.1679C-0.0434406 47.8721 -0.0434407 47.8721 -0.0438 47.5094C-0.0447726 47.3713 -0.045745 47.2332 -0.046747 47.091C-0.0460791 46.937 -0.0453785 46.783 -0.0446484 46.6289C-0.045129 46.4659 -0.04576 46.3029 -0.046529 46.1399C-0.0482013 45.6909 -0.0477031 45.242 -0.0468551 44.793C-0.0463118 44.3092 -0.0477501 43.8254 -0.0489317 43.3416C-0.0509168 42.3934 -0.0510083 41.4451 -0.0504052 40.4969C-0.0499401 39.7264 -0.0501048 38.956 -0.0507217 38.1855C-0.050808 38.076 -0.0508949 37.9665 -0.0509837 37.8536C-0.0511602 37.6312 -0.0513367 37.4087 -0.0515147 37.1863C-0.0530979 35.0985 -0.052469 33.0107 -0.0511481 30.9229C-0.0500034 29.0115 -0.0514945 27.1001 -0.0542516 25.1887C-0.0570591 23.2276 -0.0581707 21.2666 -0.0574034 19.3055C-0.0570003 18.2039 -0.0572628 17.1023 -0.059276 16.0007C-0.0609685 15.0629 -0.0610505 14.1251 -0.0590369 13.1873C-0.0580527 12.7086 -0.0578175 12.2299 -0.0595732 11.7511C-0.0611595 11.3132 -0.0606323 10.8753 -0.0583934 10.4374C-0.0579571 10.2787 -0.0583053 10.1199 -0.0595011 9.96118C-0.0610074 9.74599 -0.0594161 9.53078 -0.0576575 9.31559C-0.0576451 9.19588 -0.0576324 9.07618 -0.0576197 8.95284C0.0154437 8.55956 0.150062 8.42593 0.460963 8.18162C1.22484 7.93219 1.83011 8.23025 2.53518 8.52732C2.56691 8.45934 2.59863 8.39136 2.63131 8.32133C2.75969 8.0777 2.89609 7.88625 3.07129 7.67477C3.13168 7.60126 3.19206 7.52776 3.25427 7.45203C3.35109 7.33546 3.35109 7.33546 3.44985 7.21653C3.84771 6.73405 4.24448 6.25185 4.62426 5.75494C4.68019 5.68199 4.73613 5.60904 4.79376 5.53387C4.89858 5.39646 5.00266 5.25848 5.10587 5.11986C5.54264 4.54968 5.9071 4.27326 6.61655 4.16507C7.40388 4.10751 8.14445 4.2877 8.90908 4.45811C9.05072 4.48774 9.19236 4.51738 9.33829 4.54791C10.276 4.74931 11.1879 5.0036 12.0996 5.30076C12.0984 5.17811 12.0972 5.05545 12.096 4.92909C12.0918 4.47273 12.0892 4.01637 12.087 3.56C12.0858 3.36273 12.0842 3.16546 12.0822 2.96819C12.0794 2.68414 12.0781 2.40012 12.0771 2.11606C12.0759 2.02829 12.0747 1.94052 12.0735 1.85009C12.0734 1.26402 12.1308 0.84251 12.4845 0.369789C12.8738 0.086219 13.3696 0.18653 13.8282 0.230445Z" fill="#C03A2B"/>
<path d="M58.5391 8.18168C58.8536 8.42375 58.9843 8.55853 59.0581 8.95264C59.0583 9.07222 59.0585 9.19181 59.0587 9.31501C59.06 9.45326 59.0614 9.5915 59.0627 9.73393C59.0619 9.88599 59.061 10.038 59.0601 10.1947C59.0608 10.3577 59.0617 10.5208 59.0628 10.6838C59.0651 11.1323 59.0646 11.5808 59.0636 12.0293C59.0631 12.5128 59.0652 12.9962 59.0669 13.4797C59.0698 14.4271 59.0702 15.3745 59.0697 16.3219C59.0693 17.0918 59.0697 17.8616 59.0707 18.6315C59.0708 18.741 59.0709 18.8504 59.0711 18.9632C59.0714 19.1856 59.0716 19.408 59.0719 19.6303C59.0744 21.7168 59.0739 23.8033 59.0725 25.8898C59.0713 27.7996 59.0739 29.7094 59.0783 31.6192C59.0828 33.5791 59.0847 35.539 59.0838 37.4989C59.0834 38.5997 59.084 39.7005 59.0872 40.8012C59.0899 41.7383 59.0903 42.6754 59.0875 43.6124C59.0861 44.0907 59.0859 44.5689 59.0886 45.0472C59.0911 45.4849 59.0904 45.9225 59.0872 46.3601C59.0863 46.5939 59.0888 46.8276 59.0914 47.0613C59.0795 48.0507 59.0795 48.0507 58.8524 48.3857C58.489 48.699 58.0392 48.8939 57.6005 49.0804C57.4609 49.1406 57.3212 49.2008 57.1773 49.2628C57.1027 49.2943 57.0281 49.3258 56.9512 49.3583C56.7095 49.4603 56.4685 49.5638 56.2276 49.6675C55.8765 49.8187 55.5252 49.9694 55.1739 50.1198C54.3246 50.4841 53.479 50.8567 52.6331 51.2288C52.3348 51.36 52.0364 51.491 51.7381 51.622C50.1934 52.3002 48.6503 52.9818 47.1075 53.6642C45.1117 54.5467 43.114 55.4247 41.1156 56.301C40.3738 56.6264 39.6322 56.9523 38.8907 57.2783C38.5644 57.4217 38.2381 57.5651 37.9118 57.7085C37.7026 57.8005 37.4934 57.8925 37.2843 57.9845C36.9948 58.1118 36.7054 58.2391 36.4159 58.3663C36.3305 58.4038 36.2452 58.4414 36.1572 58.4802C34.8072 59.0729 34.8072 59.0729 34.2246 59C33.9135 58.7926 33.7012 58.6447 33.5332 58.3086C33.5221 58.0972 33.5185 57.8853 33.5184 57.6736C33.518 57.5378 33.5176 57.402 33.5173 57.2621C33.5174 57.1117 33.5176 56.9612 33.5178 56.8061C33.5176 56.6457 33.5173 56.4852 33.517 56.3248C33.5163 55.8823 33.5163 55.4399 33.5165 54.9974C33.5165 54.5209 33.5159 54.0443 33.5153 53.5677C33.5143 52.6334 33.514 51.699 33.514 50.7647C33.5139 50.0054 33.5137 49.2462 33.5133 48.4869C33.5123 46.3358 33.5118 44.1848 33.5118 42.0337C33.5119 41.9176 33.5119 41.8016 33.5119 41.682C33.5119 41.5658 33.5119 41.4496 33.5119 41.3299C33.5119 39.4465 33.5108 37.5631 33.5092 35.6797C33.5075 33.7475 33.5067 31.8152 33.5068 29.8829C33.5069 28.7974 33.5066 27.712 33.5053 26.6265C33.5043 25.7023 33.504 24.7781 33.5048 23.8539C33.5052 23.3822 33.5052 22.9104 33.5042 22.4387C33.5033 22.007 33.5034 21.5754 33.5045 21.1437C33.5047 20.9132 33.5038 20.6827 33.5029 20.4521C33.5035 20.3155 33.504 20.1788 33.5045 20.038C33.5045 19.92 33.5045 19.802 33.5045 19.6805C33.5354 19.3354 33.6065 19.0913 33.7637 18.7832C34.1996 18.4435 34.6572 18.215 35.1632 17.9973C35.231 17.9679 35.2989 17.9384 35.3689 17.908C35.5166 17.844 35.6645 17.7803 35.8125 17.7169C36.054 17.6134 36.2951 17.5091 36.5361 17.4046C36.8873 17.2523 37.2385 17.1004 37.5898 16.9486C38.4382 16.5814 39.2844 16.2094 40.1306 15.8376C40.4289 15.7065 40.7273 15.5755 41.0256 15.4445C42.57 14.7664 44.1129 14.0849 45.6554 13.4027C47.1857 12.7259 48.7171 12.0517 50.2494 11.3794C50.4447 11.2937 50.64 11.2081 50.8352 11.1224C50.9308 11.0804 51.0264 11.0384 51.1249 10.9952C51.5046 10.8286 51.8843 10.6619 52.264 10.4953C52.4537 10.4121 52.6433 10.3288 52.8329 10.2456C53.3845 10.0036 53.9361 9.76129 54.4875 9.51865C54.6555 9.44477 54.8235 9.37098 54.9916 9.29727C55.7995 8.94287 56.5996 8.58047 57.3867 8.18168C57.8253 8.0355 58.0903 8.07933 58.5391 8.18168Z" fill="#C03A2B"/>
<path d="M13.8281 0.230445C14.2187 0.303234 14.5937 0.409119 14.9733 0.525733C15.0774 0.556797 15.1816 0.587862 15.2889 0.619867C17.029 1.14878 18.6795 1.7876 20.2812 2.65037C20.3512 2.68734 20.4211 2.7243 20.4932 2.76239C22.0059 3.56611 23.3031 4.58521 24.5449 5.76169C24.7103 5.91588 24.7103 5.91588 24.8789 6.07319C26.7009 7.80647 28.0045 9.92655 28.8734 12.2796C28.912 12.3838 28.9506 12.4879 28.9903 12.5952C29.2172 13.2415 29.3341 13.8363 29.3848 14.5195C29.4608 14.5195 29.5369 14.5195 29.6152 14.5195C29.62 14.3888 29.6247 14.2581 29.6296 14.1234C30.0388 10.5474 32.847 6.93922 35.5221 4.74113C36.6021 3.90102 37.7405 3.17437 38.9492 2.53513C39.067 2.46962 39.1848 2.40412 39.3062 2.33662C41.1119 1.37343 44.2316 -0.186419 46.3242 0.230445C46.7098 0.493801 46.8118 0.707456 46.9004 1.15232C46.91 1.47086 46.9138 1.78635 46.9116 2.1048C46.9114 2.24194 46.9114 2.24194 46.9111 2.38185C46.9105 2.67302 46.9091 2.96418 46.9076 3.25535C46.907 3.45311 46.9065 3.65086 46.906 3.84862C46.9047 4.33267 46.9028 4.81671 46.9004 5.30076C46.9889 5.27191 47.0774 5.24307 47.1686 5.21335C48.1334 4.9067 49.1004 4.66537 50.0909 4.45811C50.3054 4.41031 50.3054 4.41031 50.5242 4.36155C52.3194 3.98427 52.3194 3.98427 53.1215 4.37522C53.6014 4.69188 53.9506 5.10693 54.2898 5.56724C54.3976 5.70933 54.5057 5.85126 54.6139 5.99306C54.6703 6.06737 54.7268 6.14168 54.7849 6.21824C55.1731 6.71951 55.5808 7.20552 55.9864 7.69269C56.0471 7.76654 56.1079 7.84039 56.1705 7.91649C56.2245 7.98165 56.2786 8.04682 56.3344 8.11396C56.4648 8.29685 56.4648 8.29685 56.5801 8.64255C55.5793 9.15453 54.5724 9.63521 53.5399 10.0807C53.3066 10.1813 53.0737 10.2825 52.8407 10.3838C52.5871 10.4941 52.3335 10.6044 52.0798 10.7145C51.0507 11.1613 50.0234 11.6124 48.9962 12.0636C48.8976 12.1069 48.799 12.1502 48.6973 12.1948C47.0529 12.9167 45.41 13.6419 43.7675 14.3684C42.3161 15.0102 40.8638 15.6502 39.4106 16.2879C39.1119 16.419 38.8133 16.5503 38.5148 16.6816C37.735 17.0243 36.9552 17.367 36.1723 17.7026C35.9633 17.7922 35.7546 17.8822 35.5458 17.9723C35.3037 18.0766 35.0612 18.18 34.8183 18.2824C34.0983 18.5926 34.0983 18.5926 33.5332 19.1289C33.4809 19.0362 33.4286 18.9435 33.3748 18.848C33.2166 18.5425 33.2166 18.5425 32.957 18.4375C32.7395 18.4246 32.5214 18.4191 32.3035 18.4171C32.1666 18.4156 32.0297 18.4141 31.8886 18.4126C31.74 18.4117 31.5914 18.4109 31.4383 18.41C31.2102 18.4086 31.2102 18.4086 30.9775 18.4072C30.6553 18.4055 30.3332 18.4043 30.011 18.4035C29.5984 18.4022 29.1859 18.3982 28.7733 18.3936C28.456 18.3906 28.1387 18.3897 27.8213 18.3893C27.5954 18.3884 27.3694 18.3854 27.1434 18.3823C26.937 18.3828 26.937 18.3828 26.7263 18.3833C26.6052 18.3826 26.4841 18.382 26.3593 18.3813C25.9626 18.4518 25.8368 18.5941 25.582 18.8984C25.506 18.9745 25.4299 19.0505 25.3516 19.1289C25.2373 18.9997 25.2373 18.9997 25.1207 18.8679C24.7499 18.4987 24.3375 18.3197 23.8598 18.1197C23.7693 18.0804 23.6788 18.0412 23.5856 18.0008C23.2865 17.8714 22.9866 17.744 22.6868 17.6164C22.4746 17.525 22.2625 17.4334 22.0505 17.3416C21.6069 17.1497 21.1631 16.9584 20.7191 16.7674C19.7702 16.3582 18.8256 15.9391 17.8809 15.5202C17.3632 15.2906 16.8452 15.0617 16.3273 14.8328C16.2248 14.7875 16.1224 14.7423 16.0169 14.6956C14.9232 14.2125 13.8284 13.7321 12.7334 13.2519C10.871 12.4352 9.01008 11.6152 7.15066 10.7917C6.25764 10.3964 5.36437 10.0018 4.46803 9.61394C4.33115 9.55452 4.19427 9.49509 4.05323 9.43386C3.80819 9.32768 3.56288 9.22209 3.31726 9.11725C3.21336 9.07216 3.10945 9.02706 3.0024 8.9806C2.91384 8.94264 2.82529 8.90468 2.73406 8.86557C2.53516 8.75779 2.53516 8.75779 2.41992 8.52732C3.09984 7.65528 3.78488 6.78754 4.47974 5.92734C4.57214 5.81226 4.57214 5.81226 4.6664 5.69485C5.7911 4.30768 5.7911 4.30768 6.56836 4.14841C7.5649 4.14358 8.5317 4.37048 9.49451 4.60431C9.7248 4.66023 9.9554 4.71469 10.1861 4.76892C10.8342 4.92329 11.4696 5.08236 12.0996 5.30076C12.0984 5.17811 12.0972 5.05545 12.096 4.92909C12.0918 4.47273 12.0891 4.01637 12.0869 3.56C12.0858 3.36273 12.0842 3.16546 12.0822 2.96819C12.0794 2.68414 12.0781 2.40012 12.0771 2.11606C12.0759 2.02829 12.0747 1.94052 12.0735 1.85009C12.0734 1.26402 12.1308 0.84251 12.4844 0.369789C12.8738 0.086219 13.3696 0.18653 13.8281 0.230445Z" fill="#E3BF5B"/>
<path d="M26.6947 18.3C26.8995 18.2973 26.8995 18.2973 27.1085 18.2944C27.7332 18.2893 28.358 18.2845 28.9827 18.2819C29.3126 18.2804 29.6424 18.2772 29.9723 18.2725C30.447 18.2657 30.9217 18.2636 31.3965 18.2619C31.544 18.2593 31.6915 18.2567 31.8435 18.254C32.8624 18.2565 32.8624 18.2565 33.3355 18.5853C33.6418 19.0703 33.6628 19.4584 33.6621 20.0267C33.6623 20.2324 33.6623 20.2324 33.6625 20.4422C33.662 20.593 33.6615 20.7438 33.6611 20.8991C33.661 21.0608 33.6609 21.2225 33.6609 21.3841C33.6608 21.8289 33.6599 22.2737 33.6589 22.7185C33.6579 23.198 33.6576 23.6774 33.6572 24.1569C33.656 25.3148 33.6538 26.4727 33.6514 27.6306C33.6503 28.1756 33.6493 28.7206 33.6483 29.2656C33.6449 31.0766 33.6413 32.8875 33.6367 34.6985C33.6356 35.1684 33.6344 35.6383 33.6333 36.1082C33.6328 36.2834 33.6328 36.2834 33.6324 36.4621C33.6277 38.356 33.6251 40.2498 33.6232 42.1437C33.6213 44.0871 33.6177 46.0304 33.6123 47.9738C33.6093 49.0654 33.6071 50.1569 33.6068 51.2485C33.6066 52.1776 33.6048 53.1068 33.6009 54.0359C33.599 54.5102 33.5978 54.9845 33.5987 55.4588C33.5994 55.8927 33.598 56.3265 33.5949 56.7604C33.5939 56.9923 33.595 57.2243 33.5963 57.4563C33.5949 57.5934 33.5935 57.7305 33.5921 57.8717C33.5918 57.9903 33.5916 58.1089 33.5914 58.2311C33.5177 58.6216 33.3822 58.7586 33.0723 59C32.7487 59.0585 32.7487 59.0585 32.3714 59.0596C32.2299 59.0611 32.0884 59.0625 31.9426 59.064C31.7886 59.0632 31.6346 59.0623 31.4806 59.0612C31.3222 59.0615 31.1638 59.062 31.0054 59.0626C30.6737 59.0632 30.3421 59.0622 30.0104 59.0601C29.5857 59.0575 29.1611 59.059 28.7363 59.0617C28.4093 59.0634 28.0823 59.0629 27.7553 59.0617C27.5987 59.0614 27.4421 59.0617 27.2856 59.0628C27.0666 59.064 26.8476 59.0619 26.6286 59.0596C26.5041 59.0593 26.3796 59.0589 26.2513 59.0585C25.8399 58.9841 25.7252 58.8635 25.4668 58.5391C25.4083 58.2299 25.4083 58.2299 25.407 57.8688C25.4054 57.731 25.4038 57.5932 25.4022 57.4513C25.4028 57.2998 25.4033 57.1482 25.4039 56.9921C25.4029 56.8297 25.4017 56.6672 25.4003 56.5047C25.3971 56.0578 25.3967 55.6108 25.3968 55.1638C25.3965 54.682 25.3934 54.2002 25.3908 53.7183C25.3859 52.7741 25.3836 51.8299 25.3822 50.8857C25.381 50.1184 25.3788 49.3511 25.3761 48.5837C25.3757 48.4746 25.3753 48.3655 25.3749 48.2531C25.3741 48.0314 25.3733 47.8098 25.3725 47.5881C25.3651 45.5083 25.3605 43.4285 25.3569 41.3486C25.3537 39.5636 25.3481 37.7786 25.3407 35.9936C25.3322 33.9217 25.3251 31.8498 25.3205 29.7778C25.32 29.5569 25.3195 29.336 25.319 29.1151C25.3187 29.0064 25.3185 28.8977 25.3182 28.7857C25.3164 28.0193 25.3135 27.2529 25.3101 26.4865C25.3061 25.5525 25.3037 24.6185 25.3034 23.6845C25.3032 23.2078 25.3023 22.7312 25.2994 22.2545C25.2967 21.8182 25.2962 21.3819 25.2974 20.9456C25.2974 20.7129 25.2952 20.4802 25.293 20.2475C25.3003 18.9771 25.3003 18.9771 25.8125 18.4375C26.1179 18.2848 26.3528 18.3042 26.6947 18.3Z" fill="#E64C3B"/>
<path d="M54.2755 17.8613C54.5996 18.1422 54.5996 18.1422 54.8517 18.4375C54.8897 18.4755 54.9278 18.5135 54.9669 18.5527C54.9796 18.8147 54.9841 19.0771 54.9855 19.3394C54.9861 19.4217 54.9866 19.504 54.9872 19.5887C54.9889 19.8622 54.9897 20.1356 54.9903 20.4091C54.991 20.5987 54.9917 20.7883 54.9923 20.978C54.9935 21.3763 54.9942 21.7747 54.9946 22.173C54.9953 22.6831 54.998 23.1932 55.0013 23.7032C55.0034 24.0953 55.004 24.4874 55.0042 24.8794C55.0046 25.0674 55.0055 25.2554 55.007 25.4434C55.009 25.7069 55.0088 25.9702 55.008 26.2337C55.0086 26.4585 55.0086 26.4585 55.0093 26.6878C54.9639 27.108 54.8751 27.3224 54.6212 27.6562C54.3476 27.8354 54.3476 27.8354 54.0203 27.9875C53.8365 28.0745 53.8365 28.0745 53.649 28.1632C53.4493 28.2545 53.4493 28.2545 53.2456 28.3476C53.1047 28.4136 52.9639 28.4796 52.8231 28.5458C52.4572 28.7174 52.0904 28.887 51.7233 29.0559C51.3952 29.2071 51.0677 29.3597 50.7402 29.5121C50.3534 29.692 49.9665 29.8716 49.5794 30.0506C48.4287 30.5828 47.2825 31.1243 46.1371 31.6678C45.7654 31.8441 45.3938 32.0204 45.0221 32.1967C44.9299 32.2405 44.8377 32.2842 44.7427 32.3293C43.8263 32.7638 42.9092 33.1969 41.9917 33.6291C41.824 33.7081 41.6563 33.7871 41.4887 33.8662C40.0742 34.5333 40.0742 34.5333 39.3819 34.848C39.3058 34.8826 39.2297 34.9173 39.1513 34.9529C38.8266 35.0788 38.5986 35.1009 38.258 35.0312C37.8641 34.7224 37.6994 34.5511 37.6078 34.0528C37.6041 33.8967 37.6035 33.7404 37.6054 33.5843C37.6042 33.4986 37.603 33.4129 37.6018 33.3246C37.5987 33.0423 37.5998 32.7603 37.6012 32.4781C37.6005 32.2813 37.5997 32.0846 37.5987 31.8879C37.5973 31.476 37.5981 31.0642 37.6003 30.6523C37.603 30.1248 37.5999 29.5976 37.5951 29.0702C37.5922 28.6641 37.5925 28.258 37.5937 27.8519C37.5939 27.6574 37.593 27.463 37.5911 27.2686C37.5888 26.9965 37.5909 26.7248 37.5941 26.4528C37.5926 26.3728 37.591 26.2928 37.5894 26.2104C37.5969 25.8947 37.6228 25.6516 37.8308 25.4062C38.1865 25.1029 38.568 24.8854 38.9926 24.6948C39.1133 24.6398 39.234 24.5848 39.3584 24.5281C39.4896 24.4695 39.6208 24.4108 39.756 24.3504C40.0476 24.218 40.3389 24.0847 40.6302 23.9516C40.7074 23.9164 40.7847 23.8813 40.8642 23.845C41.7365 23.4472 42.6023 23.036 43.4681 22.6244C43.9357 22.4021 44.4035 22.1803 44.8713 21.9584C45.0105 21.8924 45.0105 21.8924 45.1524 21.8251C46.2537 21.3028 47.3561 20.7828 48.4597 20.2656C48.6185 20.1911 48.7773 20.1167 48.936 20.0422C49.0142 20.0055 49.0924 19.9689 49.173 19.9311C49.675 19.6952 50.1756 19.4565 50.6754 19.2161C51.0158 19.0525 51.3566 18.8899 51.6974 18.7274C51.8587 18.6502 52.0197 18.5726 52.1805 18.4944C52.4023 18.3866 52.6249 18.2804 52.8477 18.1746C52.9736 18.1139 53.0996 18.0532 53.2293 17.9907C53.6105 17.8517 53.8733 17.8146 54.2755 17.8613Z" fill="#FA7A75"/>
<path d="M5.03806 17.8369C5.44761 17.8633 5.68593 17.9534 6.05092 18.1363C6.17233 18.1962 6.29373 18.256 6.41882 18.3176C6.54905 18.3833 6.67927 18.449 6.81345 18.5167C7.0239 18.6208 7.23461 18.7244 7.44535 18.828C7.59065 18.8994 7.73588 18.9709 7.88104 19.0426C8.60221 19.3983 9.33117 19.7363 10.0616 20.0724C11.5313 20.7511 12.9945 21.443 14.4569 22.137C15.3877 22.5787 16.3188 23.0196 17.2512 23.4578C17.3409 23.5 17.4306 23.5421 17.523 23.5856C17.9484 23.7855 18.3739 23.9852 18.7995 24.1847C19.2171 24.3806 19.6342 24.5777 20.051 24.7754C20.1501 24.8219 20.2492 24.8684 20.3513 24.9164C21.0993 25.2759 21.0993 25.2759 21.3186 25.582C21.3545 25.8728 21.3694 26.1356 21.3688 26.4266C21.37 26.5123 21.3711 26.598 21.3723 26.6862C21.3756 26.9697 21.3763 27.253 21.3766 27.5365C21.3778 27.7336 21.3789 27.9306 21.3801 28.1277C21.3822 28.5409 21.3828 28.9542 21.3826 29.3674C21.3826 29.8967 21.3873 30.4257 21.3933 30.9549C21.3971 31.362 21.3978 31.7691 21.3976 32.1762C21.398 32.3713 21.3996 32.5664 21.4022 32.7615C21.4056 33.0346 21.4046 33.3074 21.4026 33.5806C21.4045 33.661 21.4064 33.7413 21.4084 33.8241C21.4023 34.1407 21.374 34.3858 21.173 34.6371C20.845 34.929 20.675 35.0312 20.2305 35.0315C19.8014 34.9106 19.4242 34.7594 19.0224 34.5662C18.9473 34.5305 18.8722 34.4948 18.7948 34.458C18.5481 34.3404 18.3021 34.2213 18.056 34.1022C17.8812 34.0185 17.7063 33.935 17.5314 33.8517C17.1682 33.6784 16.8052 33.5047 16.4424 33.3306C15.692 32.9709 14.9386 32.6174 14.1852 32.2638C13.7784 32.0728 13.3717 31.8813 12.965 31.6899C12.8018 31.6131 12.6386 31.5363 12.4753 31.4595C12.0649 31.2663 11.6545 31.0731 11.2441 30.8799C11.0793 30.8023 10.9145 30.7247 10.7497 30.6471C10.3422 30.4553 9.93472 30.2633 9.5275 30.0708C8.77932 29.7175 8.03021 29.3668 7.2768 29.0248C6.93295 28.8686 6.58965 28.7112 6.24637 28.5538C6.08346 28.4795 5.92026 28.4058 5.75678 28.3328C5.53105 28.232 5.30636 28.1291 5.08178 28.0258C4.89017 27.9393 4.89017 27.9393 4.69469 27.8511C4.32455 27.6225 4.21927 27.4709 4.03342 27.0801C3.98797 26.6909 3.98797 26.6909 3.98503 26.241C3.98405 26.1587 3.98308 26.0763 3.98207 25.9915C3.97938 25.7206 3.97926 25.4497 3.9794 25.1787C3.97858 24.9897 3.97769 24.8007 3.97674 24.6117C3.97519 24.2161 3.97501 23.8206 3.97569 23.425C3.97637 22.9185 3.97284 22.4121 3.96818 21.9057C3.9652 21.5156 3.96487 21.1255 3.96529 20.7354C3.9651 20.5487 3.96398 20.362 3.96193 20.1752C3.95938 19.914 3.96049 19.653 3.96252 19.3918C3.96228 19.2433 3.96205 19.0948 3.9618 18.9419C4.05138 18.4551 4.23579 18.2886 4.60959 17.9765C4.72482 17.8613 4.72482 17.8613 5.03806 17.8369Z" fill="#FA7A75"/>
<path d="M13.8279 0.230445C14.2185 0.303234 14.5934 0.409119 14.973 0.525733C15.0772 0.556797 15.1814 0.587862 15.2887 0.619867C17.0288 1.14878 18.6793 1.7876 20.281 2.65037C20.3509 2.68734 20.4209 2.7243 20.4929 2.76239C22.0057 3.56611 23.3029 4.58521 24.5447 5.76169C24.71 5.91588 24.71 5.91588 24.8787 6.07319C26.7006 7.80647 28.0043 9.92655 28.8732 12.2796C28.9118 12.3838 28.9503 12.4879 28.9901 12.5952C29.217 13.2415 29.3339 13.8363 29.3845 14.5195C29.4606 14.5195 29.5366 14.5195 29.615 14.5195C29.6198 14.3888 29.6245 14.2581 29.6294 14.1234C30.0386 10.5474 32.8468 6.93922 35.5218 4.74113C36.6019 3.90102 37.7403 3.17437 38.949 2.53513C39.0668 2.46962 39.1846 2.40412 39.3059 2.33662C41.1117 1.37343 44.2313 -0.186419 46.324 0.230445C46.6141 0.428535 46.7349 0.55083 46.8517 0.879032C46.9235 1.28365 46.9189 1.68709 46.9195 2.0967C46.9199 2.18758 46.9203 2.27846 46.9207 2.3721C46.9213 2.56368 46.9215 2.75526 46.9215 2.94684C46.9218 3.2407 46.9239 3.53451 46.926 3.82837C46.9264 4.01457 46.9266 4.20078 46.9267 4.38698C46.9276 4.47509 46.9284 4.5632 46.9292 4.65397C46.9265 5.27439 46.9265 5.27439 46.6697 5.53123C46.4653 5.6044 46.4653 5.6044 46.2151 5.66852C46.1209 5.69358 46.0267 5.71865 45.9297 5.74448C45.8269 5.77155 45.7241 5.79862 45.6182 5.82651C40.5552 7.22158 32.5215 10.0986 29.615 14.8652C29.2247 14.7351 29.1826 14.666 28.9596 14.3395C27.057 11.7349 23.6681 10.1638 20.8572 8.75779C20.7661 8.7115 20.6751 8.66521 20.5813 8.61752C18.885 7.75802 17.1097 7.10451 15.3259 6.4531C15.1664 6.39481 15.1664 6.39481 15.0036 6.33533C14.1464 6.0239 13.2882 5.72357 12.4091 5.47856C12.2146 5.41599 12.2146 5.41599 12.0994 5.30076C12.0863 5.00025 12.0805 4.7029 12.08 4.40229C12.0796 4.31174 12.0793 4.22119 12.0789 4.1279C12.0783 3.9357 12.078 3.74351 12.078 3.55131C12.0778 3.25818 12.0757 2.9651 12.0735 2.67197C12.0732 2.48532 12.0729 2.29866 12.0728 2.11201C12.072 2.0246 12.0712 1.93719 12.0703 1.84714C12.0728 1.2633 12.1319 0.840775 12.4842 0.369789C12.8736 0.086219 13.3694 0.18653 13.8279 0.230445Z" fill="#B19046"/>
<path d="M25.467 52.3164C25.5478 52.3912 25.6286 52.4661 25.7119 52.5431C26.0943 52.8135 26.272 52.8356 26.7341 52.837C26.9389 52.8392 26.9389 52.8392 27.1478 52.8414C27.3675 52.84 27.3675 52.84 27.5916 52.8386C27.7429 52.839 27.8942 52.8394 28.05 52.8399C28.3697 52.8406 28.6893 52.8396 29.009 52.8374C29.4178 52.8348 29.8265 52.8363 30.2353 52.8391C30.6265 52.8412 31.0176 52.8397 31.4087 52.8386C31.5552 52.8395 31.7017 52.8404 31.8526 52.8414C31.9891 52.8399 32.1256 52.8385 32.2663 52.837C32.3861 52.8366 32.5059 52.8363 32.6293 52.8359C33.0362 52.7632 33.2338 52.5938 33.5334 52.3164C33.5451 53.1942 33.5531 54.0719 33.5587 54.9497C33.561 55.2484 33.5642 55.547 33.5682 55.8457C33.5737 56.2748 33.5764 56.7037 33.5784 57.1328C33.5808 57.2666 33.5832 57.4003 33.5856 57.5381C33.5857 57.7249 33.5857 57.7249 33.5857 57.9155C33.5867 58.025 33.5878 58.1346 33.5888 58.2474C33.5146 58.6378 33.3932 58.7689 33.0724 59C32.7489 59.0585 32.7489 59.0585 32.3716 59.0596C32.2301 59.0611 32.0886 59.0625 31.9427 59.064C31.7888 59.0632 31.6348 59.0623 31.4808 59.0612C31.3223 59.0615 31.1639 59.062 31.0055 59.0626C30.6738 59.0632 30.3422 59.0622 30.0105 59.0601C29.5858 59.0575 29.1612 59.059 28.7365 59.0617C28.4095 59.0634 28.0825 59.0629 27.7554 59.0617C27.5988 59.0614 27.4423 59.0617 27.2857 59.0628C27.0667 59.064 26.8477 59.0619 26.6288 59.0596C26.5043 59.0593 26.3798 59.0589 26.2515 59.0585C25.8426 58.9846 25.7073 58.8753 25.467 58.5391C25.4115 58.2474 25.4115 58.2474 25.4146 57.9155C25.4147 57.791 25.4147 57.6664 25.4148 57.5381C25.4171 57.4044 25.4195 57.2706 25.422 57.1328C25.4226 56.9954 25.4233 56.8579 25.4239 56.7163C25.4265 56.2771 25.4323 55.8381 25.4382 55.3989C25.4405 55.1012 25.4426 54.8035 25.4445 54.5059C25.4496 53.776 25.4573 53.0462 25.467 52.3164Z" fill="#E54C3B"/>
<path d="M26.6944 18.3C26.8993 18.2973 26.8993 18.2973 27.1082 18.2944C27.733 18.2893 28.3577 18.2845 28.9825 18.2819C29.3123 18.2804 29.6421 18.2772 29.972 18.2725C30.4467 18.2657 30.9214 18.2636 31.3962 18.2619C31.5437 18.2593 31.6913 18.2567 31.8433 18.254C32.8621 18.2565 32.8621 18.2565 33.3352 18.5853C33.6237 19.0422 33.6631 19.3956 33.6507 19.93C33.6484 20.043 33.6461 20.1561 33.6437 20.2725C33.6406 20.3936 33.6375 20.5148 33.6342 20.6396C33.6302 20.8266 33.6302 20.8266 33.626 21.0174C33.6172 21.4154 33.6075 21.8134 33.5978 22.2114C33.5917 22.4814 33.5856 22.7513 33.5796 23.0212C33.5647 23.6828 33.5491 24.3443 33.533 25.0059C33.4521 24.931 33.3713 24.8562 33.2881 24.7791C32.9056 24.5087 32.7279 24.4867 32.2658 24.4853C32.0611 24.4831 32.0611 24.4831 31.8521 24.4809C31.6325 24.4823 31.6325 24.4823 31.4083 24.4837C31.257 24.4833 31.1058 24.4828 30.9499 24.4824C30.6302 24.4817 30.3106 24.4827 29.991 24.4848C29.5821 24.4875 29.1735 24.4859 28.7646 24.4832C28.3735 24.4811 27.9824 24.4826 27.5912 24.4837C27.4447 24.4828 27.2983 24.4818 27.1474 24.4809C27.0109 24.4823 26.8743 24.4838 26.7337 24.4853C26.554 24.4858 26.554 24.4858 26.3706 24.4864C25.9637 24.559 25.7661 24.7285 25.4666 25.0059C25.4384 24.1816 25.4139 23.3574 25.392 22.5329C25.3841 22.2526 25.3754 21.9723 25.3658 21.692C25.3521 21.2887 25.3415 20.8854 25.3315 20.482C25.3266 20.357 25.3217 20.232 25.3167 20.1033C25.3026 19.3941 25.3268 18.9722 25.8123 18.4375C26.1176 18.2848 26.3525 18.3042 26.6944 18.3Z" fill="#E54C3B"/>
<path d="M4.4939 31.5742C4.81434 31.6721 5.10516 31.8128 5.40407 31.9631C5.48927 32.0041 5.57447 32.0451 5.66225 32.0874C5.94102 32.222 6.21852 32.359 6.4961 32.4961C6.69222 32.5912 6.88845 32.6862 7.08476 32.7809C7.4867 32.9751 7.88825 33.1701 8.28954 33.3656C9.0633 33.7418 9.84185 34.1076 10.621 34.4724C11.0234 34.6609 11.4254 34.8502 11.8275 35.0393C11.9878 35.1147 12.1481 35.19 12.3085 35.2654C12.7952 35.4942 13.2818 35.7232 13.7685 35.9522C13.8495 35.9903 13.9305 36.0285 14.014 36.0678C14.4207 36.2591 14.8274 36.4506 15.234 36.642C15.9919 36.9988 16.7499 37.3553 17.5083 37.7111C17.8625 37.8773 18.2166 38.0436 18.5707 38.2099C18.7379 38.2884 18.9051 38.3668 19.0723 38.4451C19.8534 38.811 20.6336 39.179 21.409 39.5569C21.5712 39.6356 21.5712 39.6356 21.7366 39.7159C21.9957 39.8632 22.1724 39.9824 22.3552 40.2168C22.4183 40.7036 22.4098 40.9398 22.1392 41.3547C21.8509 41.643 21.7514 41.7076 21.3465 41.7408C20.923 41.7114 20.6659 41.6043 20.2873 41.4146C20.1555 41.3496 20.0237 41.2845 19.8879 41.2176C19.7836 41.1649 19.7836 41.1649 19.6772 41.1113C19.3787 40.9608 19.0787 40.8134 18.7787 40.6658C18.6232 40.5894 18.4679 40.5127 18.3125 40.4359C17.5796 40.0742 16.8392 39.7299 16.0966 39.3885C14.7741 38.7784 13.4576 38.1563 12.1426 37.5304C10.7453 36.8653 9.34729 36.202 7.94672 35.5439C7.70226 35.4289 7.45788 35.3138 7.21353 35.1986C6.51282 34.8685 5.81164 34.5397 5.10788 34.216C4.99398 34.1631 4.88007 34.1103 4.76271 34.0558C4.55824 33.9609 4.35333 33.867 4.14789 33.7742C3.32853 33.3919 3.32853 33.3919 3.11109 32.957C3.01321 32.5055 3.04632 32.1431 3.28394 31.747C3.68244 31.5079 4.04464 31.5209 4.4939 31.5742Z" fill="#F19A1F"/>
<path d="M55.3126 31.5742C55.6511 31.7471 55.6511 31.7471 55.8888 32.0351C55.9863 32.6492 55.9863 32.6492 55.8888 32.957C55.4956 33.4006 55.1217 33.6617 54.5884 33.9149C54.5187 33.9483 54.4491 33.9818 54.3774 34.0162C54.1495 34.1253 53.9209 34.2326 53.6921 34.3398C53.5304 34.4167 53.3688 34.4937 53.2071 34.5708C52.0709 35.1114 50.9298 35.6419 49.7874 36.1692C48.6342 36.7018 47.4862 37.2449 46.3387 37.7897C44.5872 38.6209 42.8334 39.4467 41.0745 40.2623C40.6735 40.4493 40.2736 40.6387 39.8739 40.8285C39.6234 40.9463 39.3728 41.0641 39.1222 41.1819C39.0093 41.2362 38.8964 41.2904 38.7801 41.3464C37.778 41.814 37.778 41.814 37.2208 41.7148C36.8042 41.3435 36.6712 41.1608 36.5654 40.6129C36.6676 40.1021 36.9266 39.9241 37.3361 39.6406C37.6145 39.4892 37.8859 39.3515 38.1733 39.2206C38.2537 39.183 38.3341 39.1454 38.4169 39.1066C38.6804 38.9836 38.9445 38.862 39.2086 38.7403C39.395 38.6536 39.5813 38.5667 39.7676 38.4797C40.1516 38.3006 40.5358 38.122 40.9201 37.9438C41.6874 37.5878 42.4524 37.2268 43.2174 36.8659C43.6218 36.6753 44.0265 36.485 44.4311 36.2948C45.3265 35.8737 46.2218 35.4524 47.1171 35.031C47.3599 34.9168 47.6026 34.8025 47.8454 34.6883C48.6047 34.3311 49.3639 33.9737 50.1229 33.616C50.4782 33.4485 50.8335 33.2812 51.1887 33.1138C51.3567 33.0347 51.5247 32.9555 51.6927 32.8763C52.2075 32.6334 52.7228 32.3916 53.2384 32.1504C53.3629 32.0916 53.4874 32.0329 53.6157 31.9723C53.7843 31.8938 53.7843 31.8938 53.9564 31.8137C54.0527 31.7686 54.1489 31.7234 54.2481 31.677C54.6269 31.526 54.9126 31.5022 55.3126 31.5742Z" fill="#F19A1F"/>
<path d="M6.45316 37.5664C6.78722 37.6907 6.78722 37.6907 7.13827 37.8666C7.27011 37.9316 7.40195 37.9967 7.53779 38.0637C7.60734 38.0988 7.67688 38.1338 7.74854 38.17C8.04652 38.3202 8.34598 38.4673 8.64541 38.6146C8.80066 38.691 8.95584 38.7675 9.11096 38.8442C9.85417 39.211 10.6049 39.5606 11.3578 39.9071C13.0521 40.6895 14.7401 41.4848 16.4263 42.2846C16.901 42.5097 17.3762 42.7337 17.8521 42.9564C18.1868 43.1132 18.521 43.2712 18.8553 43.4289C19.0344 43.5122 19.0344 43.5122 19.2173 43.5971C19.3251 43.6482 19.4329 43.6994 19.544 43.7521C19.637 43.7958 19.7301 43.8394 19.826 43.8844C20.0508 44.0195 20.0508 44.0195 20.2813 44.3652C20.3328 44.8285 20.3254 45.0907 20.1012 45.5031C19.8198 45.7485 19.6398 45.8442 19.27 45.8859C18.6714 45.833 18.1348 45.4861 17.6093 45.215C17.3997 45.11 17.1897 45.0057 16.9797 44.9014C16.835 44.8295 16.6904 44.7573 16.5459 44.6849C15.8272 44.325 15.0987 43.9876 14.3683 43.6522C12.8713 42.9613 11.3815 42.2557 9.893 41.5467C9.07182 41.1561 8.25003 40.7687 7.41915 40.3991C7.29055 40.3417 7.16195 40.2843 7.02945 40.2251C6.79771 40.1224 6.5654 40.021 6.33241 39.9212C5.78248 39.6775 5.38782 39.4868 5.07035 38.9492C4.99426 38.4926 5.02823 38.321 5.28641 37.9337C5.67108 37.5377 5.9096 37.5286 6.45316 37.5664Z" fill="#F19A1F"/>
<path d="M53.2382 37.5664C53.5493 37.7738 53.7615 37.9217 53.9296 38.2578C53.9755 38.6714 53.9731 38.8819 53.7446 39.2356C53.4209 39.5755 53.1309 39.7252 52.7043 39.9201C52.6287 39.9552 52.5531 39.9903 52.4752 40.0264C52.226 40.1416 51.9759 40.2548 51.7257 40.368C51.5492 40.4493 51.3727 40.5307 51.1964 40.6122C50.8299 40.7815 50.4631 40.9501 50.0961 41.1182C49.3389 41.4657 48.5857 41.8215 47.8325 42.1773C47.4287 42.3679 47.0247 42.5579 46.6207 42.7479C46.0278 43.0269 45.4349 43.3059 44.8421 43.5851C44.4913 43.7502 44.1405 43.9154 43.7897 44.0805C43.6249 44.1581 43.46 44.2357 43.2952 44.3134C43.2177 44.3499 43.1402 44.3863 43.0604 44.4239C42.9462 44.4778 42.9462 44.4778 42.8296 44.5327C42.6798 44.6032 42.5298 44.6733 42.3797 44.7432C41.9986 44.921 41.6206 45.1031 41.2454 45.2933C41.1685 45.3314 41.0916 45.3696 41.0124 45.4088C40.8006 45.514 40.5898 45.621 40.379 45.7282C39.9192 45.8863 39.6476 45.8671 39.1796 45.748C38.817 45.4319 38.7302 45.2439 38.6538 44.7685C38.7334 44.2736 38.9036 44.0759 39.2948 43.789C39.7464 43.5419 40.2145 43.3352 40.6848 43.1264C40.9017 43.0283 41.1183 42.9296 41.3349 42.831C41.4888 42.761 41.6427 42.6911 41.7966 42.6214C42.6326 42.2423 43.4622 41.8499 44.2916 41.4567C44.7299 41.249 45.1685 41.0417 45.607 40.8344C45.6945 40.793 45.782 40.7516 45.8722 40.709C46.8361 40.2532 47.8008 39.7991 48.7656 39.3453C48.8439 39.3085 48.9222 39.2717 49.0029 39.2337C49.0789 39.1979 49.155 39.1621 49.2334 39.1253C49.3084 39.0899 49.3835 39.0546 49.4609 39.0182C49.6093 38.9484 49.7578 38.8789 49.9063 38.8095C50.3105 38.6204 50.7124 38.4275 51.1125 38.2299C51.2001 38.1872 51.2878 38.1445 51.3782 38.1004C51.5467 38.0182 51.7148 37.935 51.8822 37.8505C52.3508 37.6236 52.7055 37.4992 53.2382 37.5664Z" fill="#F19A1F"/>
<path d="M26.6161 48.7997C26.7549 48.7982 26.8938 48.7968 27.0368 48.7953C27.1864 48.7962 27.336 48.7972 27.4901 48.7981C27.6456 48.7978 27.8012 48.7974 27.9567 48.7968C28.2825 48.7961 28.6082 48.7971 28.934 48.7992C29.3507 48.8019 29.7673 48.8004 30.184 48.7976C30.5052 48.7959 30.8264 48.7965 31.1476 48.7977C31.3756 48.7981 31.6037 48.7967 31.8318 48.7953C32.0406 48.7975 32.0406 48.7975 32.2536 48.7997C32.4369 48.8002 32.4369 48.8002 32.6239 48.8008C33.0406 48.874 33.2351 49.0248 33.5331 49.3203C33.6077 49.6385 33.6077 49.6385 33.6096 50.0004C33.6104 50.1315 33.6111 50.2626 33.6119 50.3977C33.6085 50.6023 33.6085 50.6023 33.6051 50.8111C33.6074 50.9471 33.6096 51.0831 33.6119 51.2232C33.6111 51.3545 33.6104 51.4857 33.6096 51.6209C33.609 51.7405 33.6083 51.86 33.6077 51.9832C33.4981 52.4726 33.3804 52.6147 32.9569 52.8925C32.441 52.9787 31.9306 52.9732 31.4085 52.9691C31.1815 52.9699 31.1815 52.9699 30.95 52.9707C30.6304 52.9716 30.3108 52.9704 29.9911 52.9677C29.5823 52.9644 29.1736 52.9663 28.7648 52.9697C28.3736 52.9723 27.9825 52.9705 27.5913 52.9691C27.4449 52.9702 27.2984 52.9714 27.1475 52.9726C26.1446 52.9593 26.1446 52.9593 25.6625 52.6431C25.4381 52.2686 25.3939 52.0555 25.3942 51.6209C25.394 51.4897 25.3938 51.3584 25.3936 51.2232C25.3963 51.0872 25.3991 50.9512 25.4019 50.8111C25.4006 50.6747 25.3994 50.5382 25.3981 50.3977C25.4066 49.3978 25.4066 49.3978 25.658 49.0736C25.9999 48.8019 26.1827 48.801 26.6161 48.7997Z" fill="#EFC319"/>
<path d="M27.5916 24.3532C27.7429 24.3526 27.8942 24.3521 28.05 24.3515C28.3697 24.3507 28.6893 24.3519 29.009 24.3546C29.4178 24.3579 29.8264 24.356 30.2353 24.3525C30.6264 24.35 31.0176 24.3518 31.4087 24.3532C31.5552 24.352 31.7016 24.3509 31.8525 24.3497C32.8563 24.363 32.8563 24.363 33.3373 24.681C33.5571 25.0452 33.6075 25.2491 33.6099 25.6721C33.6106 25.7976 33.6114 25.9231 33.6121 26.0525C33.6088 26.2474 33.6088 26.2474 33.6054 26.4463C33.6076 26.5763 33.6098 26.7063 33.6121 26.8402C33.6114 26.9657 33.6107 27.0912 33.6099 27.2206C33.6092 27.3346 33.6086 27.4486 33.6079 27.566C33.4962 28.0468 33.3731 28.188 32.9572 28.4629C32.4413 28.5493 31.9308 28.5436 31.4087 28.5394C31.1818 28.5403 31.1818 28.5403 30.9503 28.5411C30.6306 28.542 30.311 28.5407 29.9914 28.538C29.5825 28.5348 29.1739 28.5366 28.765 28.5401C28.3739 28.5427 27.9828 28.5409 27.5916 28.5394C27.4451 28.5406 27.2987 28.5418 27.1478 28.543C26.144 28.5296 26.144 28.5296 25.663 28.2117C25.4432 27.8474 25.3928 27.6436 25.3904 27.2206C25.3897 27.095 25.3889 26.9695 25.3882 26.8402C25.3904 26.7102 25.3926 26.5802 25.3949 26.4463C25.3927 26.3163 25.3905 26.1864 25.3882 26.0525C25.3893 25.8642 25.3893 25.8642 25.3904 25.6721C25.3911 25.5581 25.3917 25.4441 25.3924 25.3266C25.6534 24.2038 26.6501 24.3457 27.5916 24.3532Z" fill="#EFC319"/>
</g>
<defs>
<clipPath id="clip0_753_1980">
<rect width="59" height="59" fill="white"/>
</clipPath>
</defs>
</svg>
