<svg width="48" height="48" viewBox="0 0 48 48" fill="none" xmlns="http://www.w3.org/2000/svg">
<circle cx="24" cy="24" r="24" fill="#F4F7FE"/>
<g clip-path="url(#clip0_1531_1631)">
<path d="M19.7405 10.1014C19.8039 10.128 19.8673 10.1546 19.9327 10.1821C20.8469 10.621 21.4976 11.4233 21.8596 12.3573C22.2317 13.5454 22.0867 14.6396 21.5209 15.7347C21.3666 16.0252 21.2036 16.3106 21.0393 16.5956C21.1022 16.5733 21.1651 16.551 21.2299 16.528C22.1387 16.212 23.0613 15.9725 24.0295 15.9664C24.0791 15.966 24.1288 15.9657 24.18 15.9653C24.2849 15.9646 24.3898 15.9642 24.4947 15.9639C24.651 15.9632 24.8073 15.9611 24.9635 15.959C27.3499 15.9417 29.7495 16.8648 31.4873 18.507C31.6248 18.6368 31.7669 18.7567 31.9127 18.8771C33.7279 20.4662 34.6963 22.9954 34.9162 25.3456C34.917 25.4595 34.9172 25.5734 34.9162 25.6874C34.9867 25.6867 35.0572 25.6861 35.1298 25.6855C35.7937 25.68 36.4575 25.6759 37.1214 25.6732C37.4627 25.6718 37.804 25.6698 38.1453 25.6667C38.4746 25.6638 38.8039 25.6621 39.1333 25.6614C39.259 25.6609 39.3847 25.6599 39.5104 25.6584C39.6863 25.6565 39.8622 25.6562 40.0382 25.6563C40.0903 25.6553 40.1423 25.6543 40.196 25.6533C40.4362 25.6552 40.5648 25.6676 40.757 25.8175C40.9619 26.0932 40.9418 26.3295 40.9415 26.6618C40.9418 26.7504 40.9418 26.7504 40.9421 26.8408C40.9427 27.0398 40.9428 27.2389 40.9429 27.4379C40.9432 27.5802 40.9435 27.7224 40.9439 27.8647C40.9448 28.252 40.9452 28.6392 40.9455 29.0265C40.9457 29.2683 40.946 29.5101 40.9463 29.7518C40.9473 30.5078 40.9479 31.2637 40.9482 32.0197C40.9485 32.8933 40.9497 33.7668 40.9517 34.6404C40.9532 35.315 40.9538 35.9896 40.9539 36.6642C40.954 37.0674 40.9544 37.4706 40.9556 37.8738C40.9568 38.2531 40.9569 38.6323 40.9563 39.0116C40.9563 39.1509 40.9566 39.2902 40.9572 39.4295C40.9581 39.6194 40.9577 39.8094 40.957 39.9993C40.9578 40.0823 40.9578 40.0823 40.9587 40.1669C40.9559 40.4788 40.9226 40.6843 40.7268 40.9315C40.5328 41.0285 40.3694 41.0091 40.1525 41.0099C40.107 41.0102 40.0616 41.0104 40.0148 41.0107C39.8619 41.0114 39.709 41.0117 39.556 41.012C39.4467 41.0124 39.3373 41.0128 39.228 41.0133C38.9304 41.0145 38.6328 41.0152 38.3352 41.0158C38.1494 41.0161 37.9636 41.0166 37.7778 41.017C37.1968 41.0183 36.6158 41.0193 36.0348 41.0198C35.3635 41.0205 34.6922 41.0223 34.0208 41.0251C33.5024 41.0271 32.9839 41.0281 32.4654 41.0284C32.1555 41.0285 31.8456 41.0291 31.5358 41.0309C31.2443 41.0324 30.9529 41.0327 30.6615 41.032C30.5545 41.032 30.4474 41.0324 30.3404 41.0334C30.1944 41.0346 30.0485 41.0341 29.9025 41.0332C29.8207 41.0334 29.739 41.0335 29.6548 41.0337C29.4056 40.993 29.3279 40.9221 29.1741 40.7264C29.0739 40.5261 29.0935 40.3233 29.0917 40.1035C29.091 40.0535 29.0903 40.0035 29.0896 39.9519C29.0874 39.7862 29.0858 39.6205 29.0841 39.4548C29.0827 39.3401 29.0812 39.2253 29.0798 39.1106C29.076 38.8083 29.0726 38.506 29.0693 38.2037C29.0659 37.8953 29.0621 37.5869 29.0583 37.2785C29.0509 36.6733 29.044 36.068 29.0373 35.4627C28.9574 35.495 28.8774 35.5273 28.7951 35.5605C28.2176 35.791 27.6518 36.0073 27.0421 36.1378C26.9832 36.1514 26.9243 36.1649 26.8636 36.1789C26.3641 36.2919 25.8767 36.3621 25.3636 36.3653C25.3139 36.3657 25.2642 36.3661 25.213 36.3665C25.1081 36.3671 25.0032 36.3676 24.8983 36.3678C24.742 36.3685 24.5858 36.3706 24.4295 36.3728C23.4818 36.3796 22.5711 36.2456 21.6631 35.9669C21.6069 35.9498 21.5507 35.9327 21.4928 35.9151C19.5767 35.3044 17.809 34.0595 16.5959 32.4549C16.5683 32.4191 16.5406 32.3832 16.5121 32.3463C16.044 31.737 15.6803 31.1045 15.3655 30.4042C15.3464 30.3621 15.3274 30.3201 15.3078 30.2768C14.7929 29.1202 14.5748 27.9691 14.4768 26.7127C13.7549 26.7127 13.033 26.7127 12.2893 26.7127C12.2442 26.8255 12.1991 26.9383 12.1526 27.0545C12.0866 27.171 12.018 27.286 11.9472 27.3995C11.9079 27.4629 11.8685 27.5263 11.828 27.5915C11.7666 27.6895 11.7666 27.6895 11.704 27.7894C11.6628 27.8558 11.6216 27.9221 11.5791 27.9905C11.2743 28.4797 11.2743 28.4797 11.1955 28.5585C8.68151 28.9172 8.68151 28.9172 7.82627 28.4306C7.52675 28.1205 7.38969 27.764 7.27814 27.353C7.20851 27.1157 7.11992 26.9679 6.95725 26.7811C6.7899 26.716 6.7899 26.716 6.61118 26.7085C6.28933 26.6601 6.28933 26.6601 6.12412 26.4949C6.05096 26.2416 6.06654 26.0775 6.13694 25.8241C6.24375 25.6959 6.24375 25.6959 6.41038 25.619C6.49286 25.623 6.57534 25.6269 6.66032 25.631C6.88139 25.6056 6.94641 25.5628 7.09676 25.3937C7.24025 25.1783 7.37151 24.9593 7.49986 24.7346C7.56866 24.6194 7.56866 24.6194 7.63884 24.5019C7.85383 24.1425 7.85383 24.1425 8.051 23.7733C8.48489 23.7436 8.91851 23.7234 9.35319 23.7095C9.50066 23.7036 9.64807 23.6957 9.79532 23.6856C10.9835 23.6062 10.9835 23.6062 11.3338 23.8823C11.5708 24.1531 11.7286 24.4562 11.8749 24.783C11.974 24.991 12.0975 25.1793 12.2249 25.3708C12.2893 25.4823 12.2893 25.4823 12.2893 25.619C13.0112 25.619 13.733 25.619 14.4768 25.619C14.4993 25.3032 14.5219 24.9874 14.5451 24.662C14.5786 24.4459 14.6136 24.2379 14.6605 24.0254C14.6724 23.9709 14.6842 23.9164 14.6965 23.8603C14.9208 22.8778 15.3077 21.9957 15.7756 21.1073C15.8215 21.0163 15.8672 20.9252 15.9123 20.8338C15.8588 20.8381 15.8052 20.8423 15.75 20.8467C15.6908 20.8424 15.6315 20.8382 15.5705 20.8338C15.3484 20.5006 15.4111 20.1091 15.4122 19.7192C15.4125 19.5697 15.4108 19.4204 15.4091 19.2709C15.409 19.1759 15.4089 19.081 15.409 18.986C15.4088 18.8996 15.4086 18.8132 15.4084 18.7242C15.4338 18.5096 15.4338 18.5096 15.5179 18.3781C15.6747 18.2828 15.777 18.2838 15.9593 18.2917C16.0422 18.2945 16.0422 18.2945 16.1268 18.2973C16.1688 18.2997 16.2108 18.3021 16.2541 18.3045C16.1627 18.1425 16.0712 17.9804 15.9797 17.8184C15.8999 17.6769 15.8201 17.5353 15.7404 17.3936C15.5412 17.0403 15.3405 16.6882 15.1334 16.3395C14.4478 15.1812 14.051 14.1273 14.3192 12.7645C14.5807 11.7569 15.1969 10.9183 16.0659 10.3431C17.178 9.72315 18.5604 9.59157 19.7405 10.1014Z" fill="#FDE077"/>
<path d="M29.5129 20.0382C30.1605 20.5883 30.7871 21.1956 31.2248 21.928C31.2482 21.965 31.2716 22.0019 31.2957 22.0401C32.0085 23.1713 32.3869 24.3486 32.3869 25.6877C31.5974 25.6877 30.8078 25.6877 29.9944 25.6877C29.9267 25.3494 29.859 25.011 29.7893 24.6623C29.6836 24.3767 29.5787 24.1142 29.4475 23.842C29.4188 23.7796 29.3902 23.7173 29.3607 23.653C28.7652 22.4517 27.6428 21.6043 26.4004 21.1563C24.987 20.7082 23.5456 20.7791 22.2228 21.458C20.9415 22.1545 20.0759 23.2375 19.5949 24.6089C19.4987 24.9472 19.4488 25.2684 19.3987 25.6194C20.583 25.5855 20.583 25.5855 21.7912 25.551C21.9604 25.1111 21.9604 25.1111 22.133 24.6623C22.6034 23.9612 23.2558 23.4294 24.0986 23.2487C24.9401 23.1287 25.7488 23.2927 26.4402 23.7993C27.0301 24.2805 27.508 24.9236 27.6236 25.6971C27.6341 25.8484 27.6372 25.9975 27.636 26.1492C27.6356 26.2028 27.6353 26.2564 27.6349 26.3116C27.6089 27.1876 27.1761 27.8516 26.555 28.4392C26.2648 28.6876 25.9799 28.846 25.6194 28.969C25.5531 28.992 25.5531 28.992 25.4856 29.0154C24.7264 29.2412 23.9418 29.1068 23.2508 28.7348C22.4749 28.236 22.1073 27.6506 21.7912 26.7815C21.0017 26.7589 20.2121 26.7364 19.3987 26.7131C19.6626 27.835 19.9115 28.8731 20.7488 29.702C20.9026 29.8577 20.9026 29.8577 20.9026 29.9944C20.9418 30.0118 20.981 30.0293 21.0214 30.0472C21.1922 30.1399 21.317 30.2499 21.4623 30.3789C22.609 31.3075 23.9774 31.5283 25.4143 31.4299C25.7022 31.3899 25.9613 31.3226 26.2346 31.2248C26.3072 31.2008 26.3798 31.1767 26.4546 31.1519C27.4291 30.807 28.233 30.2174 28.8833 29.4139C28.9744 29.3043 29.0728 29.2058 29.1741 29.1057C29.1932 29.5836 29.2063 30.0615 29.2154 30.5397C29.2191 30.7023 29.2243 30.8648 29.2308 31.0273C29.2836 32.3774 29.2836 32.3774 29.0183 32.7316C28.8214 32.8585 28.6455 32.9339 28.4221 33.0022C28.3074 33.0638 28.3074 33.0638 28.1903 33.1266C26.2026 34.0336 24.1291 34.2622 22.0452 33.5149C19.9279 32.6817 18.4031 31.1749 17.4675 29.1143C17.1413 28.3214 17.0094 27.5731 16.9377 26.7131C15.4037 26.7131 13.8698 26.7131 12.2893 26.7131C12.2442 26.8259 12.1991 26.9387 12.1526 27.0549C12.0866 27.1714 12.018 27.2863 11.9472 27.3999C11.9079 27.4633 11.8685 27.5266 11.828 27.5919C11.7666 27.6899 11.7666 27.6899 11.704 27.7898C11.6628 27.8561 11.6216 27.9225 11.5791 27.9909C11.2743 28.48 11.2743 28.48 11.1955 28.5588C8.68151 28.9176 8.68151 28.9176 7.82627 28.431C7.52675 28.1209 7.38969 27.7644 7.27814 27.3534C7.20851 27.116 7.11992 26.9683 6.95725 26.7815C6.7899 26.7164 6.7899 26.7164 6.61118 26.7089C6.28933 26.6604 6.28933 26.6604 6.12412 26.4952C6.05096 26.242 6.06654 26.0779 6.13694 25.8245C6.24375 25.6963 6.24375 25.6963 6.41038 25.6194C6.49286 25.6233 6.57534 25.6273 6.66032 25.6314C6.88139 25.606 6.94641 25.5632 7.09676 25.3941C7.24025 25.1787 7.37151 24.9597 7.49986 24.735C7.54572 24.6582 7.59159 24.5814 7.63884 24.5023C7.85383 24.1429 7.85383 24.1429 8.051 23.7737C8.48489 23.744 8.91851 23.7238 9.35319 23.7098C9.50066 23.704 9.64807 23.6961 9.79532 23.686C10.9835 23.6065 10.9835 23.6065 11.3338 23.8827C11.5708 24.1535 11.7286 24.4566 11.8749 24.7834C11.974 24.9914 12.0975 25.1796 12.2249 25.3711C12.2893 25.4827 12.2893 25.4827 12.2893 25.6194C13.8233 25.6194 15.3573 25.6194 16.9377 25.6194C16.9603 25.3261 16.9828 25.0329 17.0061 24.7307C17.0542 24.5109 17.1039 24.3038 17.1684 24.0898C17.1827 24.0392 17.197 23.9885 17.2117 23.9363C17.3033 23.6195 17.4174 23.3222 17.553 23.0217C17.5868 23.033 17.6206 23.0443 17.6555 23.0559C18.1056 23.1459 18.45 23.1124 18.8518 22.885C19.1576 22.5961 19.3424 22.2968 19.3586 21.8756C19.3626 21.7844 19.3626 21.7844 19.3666 21.6914C19.3687 21.6285 19.3708 21.5655 19.373 21.5007C19.377 21.4048 19.377 21.4048 19.381 21.3069C19.3875 21.1493 19.3933 20.9918 19.3987 20.8342C19.4859 20.8309 19.5731 20.8275 19.663 20.8241C19.7771 20.8189 19.8912 20.8138 20.0053 20.8086C20.0629 20.8065 20.1204 20.8044 20.1797 20.8022C20.2623 20.7982 20.2623 20.7982 20.3466 20.7942C20.3974 20.792 20.4483 20.7899 20.5007 20.7877C20.6455 20.7758 20.6455 20.7758 20.7658 20.6291C20.791 20.497 20.791 20.497 20.7942 20.3466C20.7981 20.264 20.7981 20.264 20.8022 20.1797C20.8043 20.1222 20.8064 20.0646 20.8086 20.0054C20.8125 19.9183 20.8125 19.9183 20.8166 19.8294C20.823 19.6858 20.8287 19.5423 20.8342 19.3987C23.6352 17.901 26.9679 18.0338 29.5129 20.0382Z" fill="#09CDF6"/>
<path d="M19.7401 10.1014C19.8036 10.128 19.867 10.1546 19.9324 10.1821C20.8465 10.621 21.4973 11.4233 21.8593 12.3573C22.2313 13.5454 22.0864 14.6396 21.5205 15.7347C21.3663 16.0252 21.2033 16.3106 21.039 16.5956C21.1019 16.5733 21.1648 16.551 21.2296 16.528C22.1384 16.212 23.061 15.9725 24.0291 15.9664C24.0788 15.966 24.1285 15.9657 24.1797 15.9653C24.2846 15.9646 24.3895 15.9642 24.4944 15.9639C24.6507 15.9632 24.8069 15.9611 24.9632 15.959C27.3495 15.9417 29.7491 16.8648 31.487 18.507C31.6245 18.6368 31.7666 18.7567 31.9124 18.8771C33.7275 20.4662 34.6959 22.9954 34.9159 25.3456C34.9159 25.4584 34.9159 25.5711 34.9159 25.6874C34.1038 25.6874 33.2917 25.6874 32.455 25.6874C32.4197 25.466 32.3845 25.2446 32.3482 25.0166C32.0882 23.5318 31.4998 22.1564 30.4725 21.0389C30.4405 21.0036 30.4084 20.9683 30.3754 20.9319C29.2299 19.6826 27.8071 18.9569 26.1659 18.578C26.0952 18.5612 26.0246 18.5443 25.9517 18.527C24.322 18.1978 22.5766 18.5441 21.1273 19.3206C20.9706 19.3983 20.9706 19.3983 20.8339 19.3983C20.8363 19.4847 20.8386 19.5712 20.8411 19.6602C20.843 19.7737 20.8449 19.8872 20.8467 20.0007C20.8484 20.0577 20.8501 20.1146 20.8519 20.1733C20.8526 20.2282 20.8532 20.2831 20.8539 20.3396C20.855 20.39 20.856 20.4405 20.8572 20.4925C20.8267 20.6708 20.7748 20.729 20.6288 20.8338C20.4926 20.8571 20.4926 20.8571 20.3396 20.8539C20.2847 20.8532 20.2299 20.8525 20.1734 20.8519C20.1164 20.8501 20.0594 20.8484 20.0007 20.8467C19.943 20.8457 19.8852 20.8448 19.8257 20.8439C19.6832 20.8414 19.5408 20.8378 19.3983 20.8338C19.4001 20.8724 19.4019 20.9109 19.4037 20.9507C19.4109 21.1282 19.4153 21.3057 19.4197 21.4833C19.4226 21.5439 19.4254 21.6045 19.4284 21.667C19.4366 22.1158 19.344 22.401 19.0565 22.7479C18.7099 23.105 18.4396 23.1636 17.9628 23.1738C17.8025 23.1553 17.6922 23.1002 17.5526 23.0213C17.4307 23.4139 17.3163 23.8086 17.2066 24.2048C17.1846 24.2835 17.1627 24.3622 17.1401 24.4433C17.051 24.8309 16.9979 25.2259 16.9374 25.619C16.1253 25.619 15.3132 25.619 14.4765 25.619C14.5568 24.4937 14.5568 24.4937 14.6602 24.0254C14.672 23.9709 14.6839 23.9164 14.6961 23.8603C14.9205 22.8778 15.3073 21.9957 15.7753 21.1073C15.8211 21.0163 15.8669 20.9252 15.912 20.8338C15.8584 20.8381 15.8048 20.8423 15.7496 20.8467C15.6904 20.8424 15.6312 20.8382 15.5702 20.8338C15.3481 20.5006 15.4107 20.1091 15.4119 19.7192C15.4121 19.5697 15.4105 19.4204 15.4088 19.2709C15.4086 19.1759 15.4086 19.081 15.4086 18.986C15.4084 18.8996 15.4082 18.8132 15.408 18.7242C15.4335 18.5096 15.4335 18.5096 15.5175 18.3781C15.6744 18.2828 15.7767 18.2838 15.959 18.2917C16.0419 18.2945 16.0419 18.2945 16.1264 18.2973C16.1685 18.2997 16.2105 18.3021 16.2538 18.3045C16.1624 18.1425 16.0709 17.9804 15.9794 17.8184C15.8995 17.6769 15.8197 17.5353 15.74 17.3936C15.5409 17.0403 15.3401 16.6882 15.1331 16.3395C14.4475 15.1812 14.0507 14.1273 14.3189 12.7645C14.5804 11.7569 15.1966 10.9183 16.0655 10.3431C17.1776 9.72315 18.5601 9.59157 19.7401 10.1014Z" fill="#FFC344"/>
<path d="M26.2344 21.0392C26.3085 21.0633 26.3826 21.0874 26.4589 21.1121C27.2868 21.4055 27.9344 21.8631 28.5586 22.4748C28.6056 22.5194 28.6527 22.564 28.7012 22.6099C29.3996 23.3248 29.9771 24.4683 30.0003 25.4757C29.9983 25.5456 29.9962 25.6156 29.9941 25.6877C29.9299 25.6989 29.9299 25.6989 29.8644 25.7104C29.8085 25.7212 29.7526 25.7321 29.6951 25.7432C29.6396 25.7535 29.584 25.7638 29.5268 25.7745C29.3544 25.8159 29.3544 25.8159 29.2422 26.0295C29.2231 26.17 29.2231 26.17 29.228 26.3254C29.2282 26.385 29.2284 26.4446 29.2285 26.5059C29.2293 26.5702 29.23 26.6345 29.2307 26.7008C29.2303 26.8375 29.2298 26.9742 29.2292 27.1109C29.229 27.3261 29.2294 27.5411 29.2316 27.7562C29.2335 27.9642 29.2323 28.1719 29.2307 28.3799C29.2321 28.4433 29.2335 28.5068 29.235 28.5722C29.2275 29.0834 29.0376 29.3527 28.6953 29.7209C28.6222 29.8065 28.6222 29.8065 28.5476 29.8939C27.6397 30.8335 26.3676 31.4634 25.0544 31.5212C23.4912 31.5474 22.1581 31.1099 21.0006 30.0371C20.9456 29.9778 20.8906 29.9186 20.834 29.8576C20.7934 29.8166 20.7529 29.7757 20.7112 29.7334C19.9439 28.926 19.3984 27.8408 19.3984 26.7131C20.188 26.7131 20.9775 26.7131 21.791 26.7131C21.9038 26.9838 22.0166 27.2545 22.1328 27.5334C22.2902 27.7557 22.2902 27.7557 22.4586 27.9694C22.543 28.0803 22.543 28.0803 22.6113 28.2853C22.7358 28.3581 22.7358 28.3581 22.8848 28.4221C22.9889 28.4887 23.0929 28.5557 23.1967 28.6229C23.8493 29.0143 24.5484 29.1482 25.2955 28.99C26.1216 28.7605 26.7587 28.332 27.213 27.5919C27.2815 27.4597 27.3423 27.3303 27.3965 27.1916C27.4207 27.1307 27.445 27.0698 27.4699 27.0071C27.6619 26.3226 27.6054 25.5397 27.2926 24.9045C26.8357 24.1197 26.2811 23.6529 25.4141 23.3635C24.5813 23.1585 23.8122 23.3257 23.0869 23.7576C22.3659 24.2123 22.116 24.8393 21.791 25.6193C21.0015 25.6193 20.2119 25.6193 19.3984 25.6193C19.3984 25.2347 19.4284 24.9649 19.5437 24.611C19.559 24.5633 19.5744 24.5156 19.5902 24.4664C19.8181 23.7855 20.1736 23.2309 20.6289 22.6799C20.6701 22.6252 20.7112 22.5704 20.7536 22.514C22.051 20.9791 24.3524 20.4169 26.2344 21.0392Z" fill="#FC6930"/>
<path d="M14.4766 26.7129C15.2887 26.7129 16.1008 26.7129 16.9375 26.7129C16.9756 26.9286 17.0136 27.1443 17.0529 27.3666C17.3208 28.7939 17.856 30.0332 18.7832 31.1562C18.8498 31.2408 18.8498 31.2408 18.9178 31.3271C20.1604 32.8183 22.1387 33.7089 24.0469 33.8906C25.8015 34.0096 27.3874 33.5137 28.9004 32.6602C28.9913 32.6142 29.0824 32.5685 29.1738 32.5234C29.184 32.9176 29.1914 33.3116 29.1964 33.7059C29.1984 33.84 29.2012 33.974 29.2048 34.1081C29.2097 34.3009 29.2121 34.4935 29.2139 34.6864C29.2171 34.7762 29.2171 34.7762 29.2203 34.8679C29.2204 35.0305 29.2158 35.1691 29.1738 35.3262C28.9577 35.52 28.7327 35.6272 28.4601 35.7214C28.4041 35.7407 28.3481 35.76 28.2905 35.78C27.0757 36.1764 25.956 36.3758 24.6792 36.3815C24.6293 36.3819 24.5795 36.3823 24.5281 36.3828C23.5494 36.3881 22.6009 36.255 21.6628 35.967C21.6067 35.9499 21.5505 35.9328 21.4926 35.9152C19.5765 35.3045 17.8087 34.0596 16.5957 32.4551C16.568 32.4192 16.5404 32.3834 16.5119 32.3465C16.0438 31.7371 15.68 31.1047 15.3652 30.4043C15.3462 30.3623 15.3272 30.3203 15.3076 30.277C14.7927 29.1203 14.5746 27.9692 14.4766 26.7129Z" fill="#FC6930"/>
<path d="M24.5254 15.9588C24.6781 15.959 24.8307 15.9574 24.9833 15.9557C27.3615 15.9451 29.7559 16.8712 31.4871 18.507C31.6246 18.6368 31.7667 18.7567 31.9125 18.8771C33.7276 20.4663 34.6961 22.9955 34.916 25.3456C34.916 25.4584 34.916 25.5712 34.916 25.6874C34.1039 25.6874 33.2918 25.6874 32.4551 25.6874C32.4198 25.466 32.3846 25.2447 32.3483 25.0166C32.0883 23.5318 31.4999 22.1564 30.4727 21.0389C30.4406 21.0036 30.4085 20.9683 30.3755 20.9319C29.23 19.6826 27.8072 18.9569 26.166 18.578C26.0953 18.5612 26.0247 18.5444 25.9519 18.527C24.3221 18.1979 22.5767 18.5442 21.1274 19.3206C20.9707 19.3983 20.9707 19.3983 20.834 19.3983C20.8298 19.3407 20.8257 19.2831 20.8214 19.2237C20.8157 19.1488 20.81 19.0739 20.8041 18.9967C20.7985 18.9222 20.793 18.8476 20.7873 18.7708C20.7772 18.5816 20.7772 18.5816 20.6973 18.4413C20.5205 18.4093 20.5205 18.4093 20.317 18.3986C20.2478 18.3935 20.1787 18.3883 20.1074 18.3831C20.0539 18.3797 20.0004 18.3764 19.9453 18.3729C20.0805 18.0197 20.2581 17.7011 20.4452 17.3732C20.4776 17.3145 20.51 17.2558 20.5433 17.1953C20.8762 16.6124 21.2323 16.4933 21.8594 16.3179C21.9189 16.3004 21.9783 16.2829 22.0396 16.2649C22.8652 16.0305 23.6718 15.9563 24.5254 15.9588Z" fill="#FC6930"/>
<path d="M29.5127 20.0382C30.1603 20.5883 30.7869 21.1956 31.2246 21.928C31.248 21.965 31.2714 22.0019 31.2954 22.0401C32.0082 23.1713 32.3867 24.3486 32.3867 25.6877C31.5972 25.6877 30.8076 25.6877 29.9941 25.6877C29.9265 25.3494 29.8588 25.011 29.7891 24.6623C29.6834 24.3767 29.5785 24.1142 29.4473 23.842C29.4186 23.7796 29.39 23.7173 29.3605 23.653C28.765 22.4517 27.6425 21.6043 26.4002 21.1563C24.9868 20.7082 23.5454 20.7791 22.2225 21.458C20.9413 22.1545 20.0757 23.2375 19.5947 24.6089C19.4985 24.9472 19.4486 25.2684 19.3984 25.6194C18.5863 25.6194 17.7742 25.6194 16.9375 25.6194C17.0165 24.593 17.0165 24.593 17.1682 24.0898C17.1825 24.0392 17.1968 23.9885 17.2115 23.9363C17.3031 23.6195 17.4171 23.3222 17.5527 23.0217C17.5866 23.033 17.6204 23.0443 17.6553 23.0559C18.1054 23.1459 18.4498 23.1124 18.8516 22.885C19.1574 22.5961 19.3422 22.2968 19.3584 21.8756C19.361 21.8148 19.3637 21.754 19.3664 21.6914C19.3685 21.6285 19.3706 21.5655 19.3728 21.5007C19.3754 21.4368 19.3781 21.3728 19.3808 21.3069C19.3872 21.1493 19.3931 20.9918 19.3984 20.8342C19.4857 20.8309 19.5729 20.8275 19.6628 20.8241C19.7769 20.8189 19.891 20.8138 20.0051 20.8086C20.0627 20.8065 20.1202 20.8044 20.1795 20.8022C20.2621 20.7982 20.2621 20.7982 20.3464 20.7942C20.3972 20.792 20.4481 20.7899 20.5004 20.7877C20.6453 20.7758 20.6453 20.7758 20.7656 20.6291C20.7908 20.497 20.7908 20.497 20.7939 20.3466C20.7966 20.2916 20.7992 20.2365 20.8019 20.1797C20.8051 20.0934 20.8051 20.0934 20.8083 20.0054C20.811 19.9473 20.8136 19.8892 20.8164 19.8294C20.8228 19.6858 20.8285 19.5423 20.834 19.3987C23.635 17.901 26.9676 18.0338 29.5127 20.0382Z" fill="#FEFEFD"/>
<path d="M19.877 10.1698C19.9311 10.1962 19.9852 10.2225 20.0409 10.2497C20.9874 10.7588 21.6206 11.5967 21.9384 12.6092C22.2397 13.8826 21.9704 15.0086 21.3125 16.1171C21.2494 16.2132 21.1855 16.3088 21.121 16.4039C20.8605 16.7882 20.6303 17.1892 20.3982 17.5911C20.3544 17.6666 20.3106 17.7421 20.2655 17.8198C20.1586 18.0041 20.0519 18.1885 19.9453 18.373C20.0244 18.3694 20.0244 18.3694 20.105 18.3658C20.1736 18.3639 20.2421 18.3621 20.3127 18.3602C20.4151 18.3566 20.4151 18.3566 20.5194 18.3529C20.5781 18.3596 20.6368 18.3662 20.6973 18.373C20.9154 18.7002 20.8568 19.0758 20.8556 19.4584C20.8553 19.6029 20.857 19.7473 20.8587 19.8918C20.8588 19.9837 20.8589 20.0755 20.8588 20.1674C20.859 20.2509 20.8592 20.3345 20.8594 20.4205C20.834 20.6288 20.834 20.6288 20.7465 20.7428C20.5402 20.9027 20.281 20.8615 20.0305 20.8587C19.9427 20.8588 19.9427 20.8588 19.853 20.8588C19.7293 20.8587 19.6056 20.858 19.4819 20.8569C19.2921 20.8553 19.1024 20.8555 18.9126 20.8559C18.7925 20.8556 18.6723 20.8551 18.5522 20.8545C18.4668 20.8546 18.4668 20.8546 18.3796 20.8547C17.9787 20.8497 17.9787 20.8497 17.8262 20.6972C17.8134 20.5314 17.8087 20.3735 17.8104 20.2077C17.8105 20.1354 17.8105 20.1354 17.8105 20.0617C17.8107 19.9598 17.8113 19.8579 17.8121 19.756C17.8134 19.5995 17.8135 19.4431 17.8135 19.2866C17.8138 19.1878 17.8142 19.0889 17.8147 18.9901C17.8148 18.943 17.8148 18.8959 17.8149 18.8474C17.8182 18.5176 17.8182 18.5176 17.8945 18.4413C17.1163 18.4075 17.1163 18.4075 16.3223 18.373C16.3223 18.3504 16.3223 18.3279 16.3223 18.3046C17.0893 18.3046 17.8562 18.3046 18.6465 18.3046C18.6465 17.2444 18.6465 16.1841 18.6465 15.0917C18.5788 15.1143 18.5111 15.1368 18.4414 15.1601C17.9738 15.2107 17.5958 15.1683 17.2109 14.8866C16.8582 14.5629 16.6887 14.2484 16.6411 13.7649C16.6286 12.5958 17.0087 11.7186 17.8021 10.8708C18.0409 10.642 18.2921 10.4706 18.5781 10.3066C18.6339 10.271 18.6897 10.2354 18.7472 10.1987C19.1869 9.94041 19.4289 9.93349 19.877 10.1698Z" fill="#FED05B"/>
<path d="M16.9375 26.7129C17.7496 26.7129 18.5617 26.7129 19.3984 26.7129C19.4887 27.0964 19.5789 27.4799 19.6719 27.875C19.9131 28.5519 20.2323 29.1906 20.7485 29.7017C20.9023 29.8574 20.9023 29.8574 20.9023 29.9941C20.9416 30.0116 20.9808 30.029 21.0212 30.047C21.192 30.1397 21.3168 30.2496 21.462 30.3787C22.6088 31.3072 23.9772 31.528 25.4141 31.4297C25.702 31.3897 25.9611 31.3224 26.2344 31.2246C26.307 31.2006 26.3796 31.1765 26.4544 31.1517C27.4288 30.8068 28.2328 30.2172 28.883 29.4136C28.9741 29.3041 29.0726 29.2056 29.1738 29.1055C29.1929 29.5834 29.2061 30.0613 29.2151 30.5395C29.2189 30.702 29.224 30.8646 29.2306 31.027C29.2834 32.3772 29.2834 32.3772 29.0181 32.7314C28.8212 32.8583 28.6453 32.9336 28.4219 33.002C28.3454 33.043 28.2689 33.0841 28.1901 33.1264C26.2024 34.0334 24.1289 34.2619 22.045 33.5146C19.9277 32.6815 18.4029 31.1747 17.4673 29.114C17.1411 28.3212 17.0092 27.5729 16.9375 26.7129Z" fill="#FDFAF9"/>
<path d="M30.0576 25.6689C30.1343 25.6719 30.1343 25.6719 30.2125 25.675C30.3749 25.6817 30.537 25.6909 30.6993 25.7002C30.8097 25.7052 30.9201 25.71 31.0306 25.7147C31.3005 25.7265 31.5703 25.7405 31.8401 25.7557C31.8069 25.8031 31.7738 25.8505 31.7397 25.8993C31.6189 26.128 31.6061 26.2773 31.6 26.5346C31.5976 26.6168 31.5951 26.699 31.5926 26.7836C31.5903 26.9114 31.5903 26.9114 31.588 27.0417C31.5856 27.1282 31.5833 27.2147 31.5809 27.3038C31.5753 27.5169 31.5705 27.7301 31.5666 27.9432C31.5238 27.9408 31.481 27.9385 31.4368 27.936C31.381 27.9342 31.3251 27.9323 31.2675 27.9304C31.1843 27.9268 31.1843 27.9268 31.0993 27.9232C31.0505 27.9298 31.0017 27.9364 30.9514 27.9432C30.7867 28.1902 30.7652 28.2672 30.8147 28.5585C30.9914 28.8098 31.2018 29.0283 31.4364 29.2262C31.601 29.419 31.5986 29.514 31.5933 29.7644C31.5924 29.8375 31.5916 29.9106 31.5906 29.986C31.5884 30.0619 31.5861 30.1379 31.5837 30.2162C31.5825 30.2932 31.5812 30.3702 31.58 30.4496C31.5767 30.6396 31.5722 30.8294 31.5666 31.0194C31.5238 31.017 31.481 31.0146 31.4368 31.0122C31.381 31.0103 31.3251 31.0085 31.2675 31.0066C31.1843 31.003 31.1843 31.003 31.0993 30.9994C31.0505 31.006 31.0017 31.0126 30.9514 31.0194C30.7867 31.2663 30.7652 31.3433 30.8147 31.6346C30.9914 31.886 31.2018 32.1044 31.4364 32.3024C31.601 32.4952 31.5986 32.5901 31.5933 32.8405C31.5924 32.9137 31.5916 32.9868 31.5906 33.0622C31.5884 33.1381 31.5861 33.2141 31.5837 33.2923C31.5825 33.3694 31.5812 33.4464 31.58 33.5257C31.5767 33.7157 31.5722 33.9056 31.5666 34.0956C31.5238 34.094 31.481 34.0924 31.4368 34.0908C31.381 34.0895 31.3251 34.0883 31.2675 34.087C31.212 34.0854 31.1565 34.0838 31.0993 34.0822C30.9368 34.081 30.9368 34.081 30.8147 34.2323C30.77 34.4807 30.7675 34.6414 30.9121 34.8542C31.0765 35.0425 31.2452 35.2172 31.4364 35.3784C31.6009 35.5713 31.5986 35.6663 31.5933 35.9167C31.5924 35.9898 31.5916 36.063 31.5906 36.1383C31.5884 36.2143 31.5861 36.2903 31.5837 36.3685C31.5825 36.4455 31.5812 36.5225 31.58 36.6019C31.5767 36.7919 31.5722 36.9818 31.5666 37.1717C31.5238 37.1701 31.481 37.1686 31.4368 37.1669C31.381 37.1657 31.3251 37.1645 31.2675 37.1632C31.212 37.1616 31.1565 37.16 31.0993 37.1584C30.9368 37.1571 30.9368 37.1571 30.8147 37.3085C30.77 37.5568 30.7675 37.7176 30.9121 37.9304C31.0761 38.1182 31.243 38.2928 31.4361 38.4508C31.61 38.6592 31.5997 38.7843 31.5987 39.0532C31.5996 39.1399 31.6006 39.2266 31.6016 39.316C31.6015 39.4073 31.6012 39.4986 31.6008 39.5899C31.6003 39.7685 31.6009 39.9471 31.6029 40.1256C31.6026 40.2048 31.6023 40.2839 31.602 40.3655C31.6416 40.6351 31.7444 40.7856 31.9084 40.9999C31.5629 41.0066 31.2175 41.0116 30.872 41.0149C30.7545 41.0163 30.637 41.0181 30.5195 41.0205C30.3505 41.0238 30.1816 41.0254 30.0125 41.0266C29.9339 41.0287 29.9339 41.0287 29.8537 41.0308C29.6096 41.0309 29.4757 41.0217 29.2797 40.87C29.1128 40.6432 29.0971 40.5176 29.0968 40.2385C29.0966 40.1628 29.0964 40.0871 29.0962 40.0091C29.0963 39.9242 29.0965 39.8393 29.0966 39.7518C29.0965 39.6594 29.0964 39.567 29.0963 39.4747C29.096 39.1599 29.0965 38.8451 29.0971 38.5304C29.0973 38.4199 29.0975 38.3093 29.0977 38.1988C29.0986 37.6314 29.1002 37.064 29.1021 36.4966C29.1046 35.7718 29.1062 35.047 29.107 34.3221C29.1082 33.3242 29.1107 32.3263 29.1149 31.3284C29.1171 30.7952 29.1188 30.262 29.119 29.7288C29.1192 29.2676 29.1206 28.8063 29.1235 28.3451C29.1249 28.1056 29.1258 27.8662 29.1252 27.6267C29.1246 27.3637 29.1267 27.1008 29.129 26.8379C29.1284 26.7604 29.1278 26.683 29.1272 26.6032C29.1348 26.0836 29.1348 26.0836 29.332 25.8097C29.576 25.6473 29.7756 25.6502 30.0576 25.6689Z" fill="#FED15B"/>
<path d="M26.44 23.799C27.0298 24.2801 27.5078 24.9233 27.6234 25.6967C27.6339 25.8481 27.637 25.9971 27.6357 26.1488C27.6354 26.2024 27.6351 26.256 27.6347 26.3113C27.6087 27.1873 27.1759 27.8513 26.5548 28.4389C26.2646 28.6872 25.9797 28.8457 25.6191 28.9687C25.575 28.984 25.5308 28.9993 25.4854 29.0151C24.7262 29.2409 23.9416 29.1065 23.2506 28.7345C22.5007 28.2524 22.0446 27.6298 21.791 26.7812C21.791 26.7586 21.791 26.736 21.791 26.7128C21.8807 26.7111 21.9704 26.7094 22.0628 26.7076C22.3956 26.7012 22.7283 26.6943 23.0611 26.6873C23.2051 26.6844 23.3491 26.6815 23.4931 26.6788C23.7001 26.6748 23.9072 26.6705 24.1142 26.6661C24.2107 26.6644 24.2107 26.6644 24.3093 26.6626C24.3695 26.6612 24.4297 26.6599 24.4917 26.6585C24.5709 26.6569 24.5709 26.6569 24.6518 26.6553C24.799 26.6444 24.9305 26.6163 25.0723 26.5761C25.0856 26.4779 25.0983 26.3796 25.1107 26.2813C25.1179 26.2266 25.125 26.1718 25.1323 26.1155C25.1507 25.9493 25.1507 25.9493 25.0723 25.7558C24.8814 25.6835 24.6943 25.6774 24.4917 25.6734C24.4315 25.672 24.3713 25.6706 24.3093 25.6692C24.2449 25.6681 24.1805 25.667 24.1142 25.6658C24.0478 25.6644 23.9814 25.6629 23.913 25.6615C23.7013 25.657 23.4896 25.653 23.2778 25.649C23.1342 25.646 22.9905 25.643 22.8468 25.64C22.4949 25.6327 22.143 25.6258 21.791 25.619C21.8229 25.509 21.8551 25.399 21.8874 25.2891C21.9053 25.2278 21.9232 25.1666 21.9417 25.1035C22.0863 24.6569 22.4035 24.2885 22.748 23.9784C22.8115 23.9206 22.8749 23.8628 22.9403 23.8032C23.9556 22.9775 25.4036 23.0397 26.44 23.799Z" fill="#FDFBFA"/>
<path d="M16.1671 18.2998C16.2184 18.3016 16.2697 18.3034 16.3226 18.3052C16.4863 18.3112 16.6499 18.3187 16.8136 18.3262C16.9246 18.3305 17.0357 18.3348 17.1467 18.3389C17.4188 18.3492 17.6909 18.3609 17.9629 18.3732C17.9403 18.4183 17.9178 18.4634 17.8945 18.5099C17.8878 18.6738 17.885 18.8355 17.8855 18.9994C17.8854 19.0476 17.8853 19.0958 17.8853 19.1454C17.8852 19.2473 17.8853 19.3492 17.8856 19.4511C17.886 19.6076 17.8856 19.764 17.8852 19.9205C17.8852 20.0193 17.8853 20.1182 17.8855 20.217C17.8853 20.2641 17.8852 20.3112 17.885 20.3597C17.8672 20.5819 17.8672 20.5819 17.9629 20.7658C18.0695 20.7765 18.1765 20.7829 18.2836 20.7874C18.3804 20.7917 18.3804 20.7917 18.4792 20.7961C18.5471 20.7988 18.615 20.8015 18.6849 20.8042C18.7872 20.8087 18.7872 20.8087 18.8915 20.8132C19.0605 20.8205 19.2294 20.8274 19.3984 20.8341C19.4085 21.0506 19.4145 21.267 19.4198 21.4836C19.4227 21.5442 19.4255 21.6048 19.4285 21.6673C19.4367 22.1161 19.3441 22.4013 19.0566 22.7482C18.71 23.1053 18.4398 23.1639 17.9629 23.1741C17.8026 23.1556 17.6923 23.1005 17.5527 23.0216C17.4308 23.4142 17.3164 23.8089 17.2067 24.2051C17.1847 24.2838 17.1628 24.3625 17.1402 24.4436C17.0511 24.8312 16.998 25.2262 16.9375 25.6193C16.1254 25.6193 15.3133 25.6193 14.4766 25.6193C14.5569 24.494 14.5569 24.494 14.6603 24.0257C14.6722 23.9712 14.684 23.9167 14.6963 23.8606C14.9206 22.8781 15.3075 21.996 15.7754 21.1076C15.8213 21.0166 15.867 20.9255 15.9121 20.8341C15.8317 20.8405 15.8317 20.8405 15.7498 20.847C15.6905 20.8427 15.6313 20.8385 15.5703 20.8341C15.3482 20.5009 15.4108 20.1094 15.412 19.7195C15.4122 19.57 15.4106 19.4207 15.4089 19.2712C15.4087 19.1762 15.4087 19.0813 15.4088 18.9863C15.4086 18.8999 15.4084 18.8135 15.4081 18.7245C15.4336 18.5099 15.4336 18.5099 15.5047 18.3779C15.7176 18.2618 15.932 18.2877 16.1671 18.2998Z" fill="#CDBFBA"/>
<path d="M14.4766 26.7129C14.9503 26.7129 15.424 26.7129 15.9121 26.7129C15.9502 26.9455 15.9882 27.1782 16.0275 27.4178C16.5241 30.304 17.8766 32.7996 20.3042 34.5224C21.1635 35.1089 22.1043 35.5471 23.0898 35.873C23.1507 35.8938 23.2116 35.9146 23.2744 35.9361C23.9214 36.1352 24.608 36.1962 25.2773 36.2832C25.2773 36.3058 25.2773 36.3283 25.2773 36.3516C24.2788 36.374 23.3104 36.3946 22.3379 36.1465C22.2849 36.1333 22.232 36.12 22.1774 36.1064C19.982 35.5428 17.9685 34.2709 16.5957 32.4551C16.568 32.4192 16.5404 32.3834 16.5119 32.3465C16.0438 31.7371 15.68 31.1047 15.3652 30.4043C15.3462 30.3623 15.3272 30.3203 15.3076 30.277C14.7927 29.1203 14.5746 27.9692 14.4766 26.7129Z" fill="#EF4524"/>
<path d="M15.9121 20.834C16.2279 20.834 16.5437 20.834 16.8691 20.834C16.873 20.9577 16.873 20.9577 16.8769 21.0839C16.8814 21.1943 16.8859 21.3047 16.8905 21.415C16.8928 21.4962 16.8928 21.4962 16.8952 21.579C16.9125 21.9625 16.9801 22.2619 17.1426 22.6113C17.2477 22.708 17.2477 22.708 17.3647 22.7908C17.4268 22.8443 17.4888 22.8979 17.5527 22.9531C17.5258 23.3563 17.3644 23.7387 17.235 24.1187C17.1006 24.6106 17.0261 25.117 16.9375 25.6191C16.1254 25.6191 15.3133 25.6191 14.4766 25.6191C14.5569 24.4938 14.5569 24.4938 14.6603 24.0255C14.6722 23.971 14.684 23.9165 14.6963 23.8604C14.9206 22.878 15.3075 21.9959 15.7754 21.1074C15.8205 21.0172 15.8656 20.927 15.9121 20.834Z" fill="#EF4424"/>
<path d="M6.95703 26.6445C8.73916 26.6445 10.5213 26.6445 12.3574 26.6445C12.2672 26.825 12.177 27.0055 12.084 27.1914C12.0449 27.3082 12.0077 27.4256 11.9734 27.5439C11.8036 27.988 11.6163 28.3162 11.1953 28.5586C10.2557 28.8391 8.98948 28.846 8.05078 28.5586C7.58631 28.278 7.41325 27.8615 7.27927 27.3529C7.21106 27.1272 7.09425 26.9712 6.95703 26.7812C6.95703 26.7361 6.95703 26.691 6.95703 26.6445Z" fill="#94E5FC"/>
<path d="M9.63586 23.6026C9.70618 23.6004 9.7765 23.5982 9.84894 23.596C10.9569 23.5724 10.9569 23.5724 11.3305 23.8876C11.5634 24.1599 11.7246 24.461 11.8737 24.7851C11.9737 24.9898 12.0974 25.1756 12.2248 25.3641C12.2891 25.4825 12.2891 25.4825 12.2891 25.6876C10.5295 25.6876 8.76992 25.6876 6.95703 25.6876C7.00215 25.5748 7.04727 25.462 7.09375 25.3458C7.1114 25.2854 7.12904 25.2249 7.14722 25.1627C7.56379 23.7842 8.31433 23.6116 9.63586 23.6026Z" fill="#94E5FC"/>
<path d="M18.3919 18.3522C18.4799 18.3523 18.4799 18.3523 18.5697 18.3524C18.6299 18.3521 18.6901 18.3518 18.7521 18.3515C18.8794 18.3511 19.0067 18.3511 19.1341 18.3514C19.3294 18.3516 19.5247 18.35 19.7201 18.3482C19.8436 18.3481 19.9672 18.348 20.0907 18.3481C20.1494 18.3475 20.2081 18.3468 20.2685 18.3462C20.433 18.3475 20.433 18.3475 20.6974 18.3729C20.9156 18.7002 20.8569 19.0758 20.8557 19.4584C20.8555 19.6029 20.8571 19.7473 20.8588 19.8918C20.859 19.9837 20.859 20.0755 20.859 20.1674C20.8592 20.2509 20.8594 20.3344 20.8596 20.4205C20.8341 20.6288 20.8341 20.6288 20.7466 20.7428C20.5403 20.9026 20.2812 20.8615 20.0306 20.8587C19.9428 20.8588 19.9428 20.8588 19.8532 20.8588C19.7295 20.8586 19.6057 20.858 19.482 20.8569C19.2922 20.8552 19.1025 20.8554 18.9127 20.8559C18.7926 20.8555 18.6725 20.855 18.5524 20.8544C18.4669 20.8545 18.4669 20.8545 18.3797 20.8546C17.9788 20.8497 17.9788 20.8497 17.8263 20.6972C17.8086 20.483 17.8086 20.483 17.8082 20.2101C17.808 20.1621 17.8079 20.114 17.8078 20.0645C17.8077 19.9629 17.8079 19.8613 17.8085 19.7597C17.8092 19.604 17.8085 19.4483 17.8076 19.2926C17.8077 19.194 17.8079 19.0953 17.8082 18.9967C17.8083 18.9067 17.8085 18.8166 17.8086 18.7238C17.8415 18.3261 18.0399 18.3564 18.3919 18.3522Z" fill="#E1D2CD"/>
<path d="M25.1406 20.8341C25.1406 20.8792 25.1406 20.9243 25.1406 20.9708C25.0892 20.9842 25.0377 20.9976 24.9847 21.0114C23.9332 21.3075 23.0957 21.7539 22.3379 22.5431C22.2686 22.6127 22.2686 22.6127 22.198 22.6838C21.5816 23.3397 21.2071 24.1614 21.0262 25.0339C20.9854 25.2271 20.9445 25.4203 20.9023 25.6193C20.4061 25.6193 19.9098 25.6193 19.3984 25.6193C19.3984 25.2346 19.4284 24.9648 19.5437 24.611C19.559 24.5632 19.5744 24.5155 19.5902 24.4663C19.8181 23.7855 20.1736 23.2308 20.6289 22.6798C20.6701 22.6251 20.7112 22.5704 20.7536 22.514C21.8697 21.1936 23.4901 20.7875 25.1406 20.8341Z" fill="#EF4626"/>
<path d="M19.3984 26.7129C19.8947 26.7129 20.391 26.7129 20.9023 26.7129C20.9291 26.8398 20.9559 26.9667 20.9835 27.0974C21.2553 28.2602 21.7051 29.1416 22.543 29.9941C22.5849 30.037 22.6269 30.0798 22.6701 30.1239C23.3356 30.7525 24.2439 31.1967 25.1406 31.3613C25.1406 31.4064 25.1406 31.4516 25.1406 31.498C23.6636 31.559 22.2977 31.2129 21.1758 30.1992C21.0006 30.0369 21.0006 30.0369 20.834 29.8574C20.7934 29.8164 20.7529 29.7755 20.7112 29.7333C19.9439 28.9259 19.3984 27.8406 19.3984 26.7129Z" fill="#EF4525"/>
<path d="M18.6838 12.2145C19.1934 12.4799 19.4883 12.8313 19.6721 13.3827C19.7286 13.8104 19.6104 14.1757 19.3987 14.5448C19.0861 14.9067 18.7646 15.1257 18.2836 15.1769C17.8664 15.1979 17.5511 15.1354 17.2112 14.8866C16.813 14.5212 16.6625 14.1701 16.6387 13.6305C16.6476 13.2649 16.7092 12.9893 16.9377 12.6991C17.4444 12.233 17.996 11.9683 18.6838 12.2145Z" fill="#FEFEFC"/>
<path d="M16.8693 20.834C17.7039 20.834 18.5386 20.834 19.3986 20.834C19.4091 21.1554 19.4091 21.1554 19.4199 21.4834C19.423 21.5498 19.4261 21.6162 19.4294 21.6846C19.4363 22.1257 19.3388 22.4076 19.0568 22.748C18.8595 22.9512 18.6644 23.1325 18.3732 23.1582C18.2886 23.1667 18.204 23.1751 18.1168 23.1838C17.6955 23.1783 17.4013 22.9415 17.1171 22.6498C16.7376 22.0514 16.8693 21.593 16.8693 20.834Z" fill="#796F6E"/>
<path d="M35.009 37.4795C35.0971 37.4788 35.1851 37.4782 35.2758 37.4775C35.3717 37.4783 35.4676 37.479 35.5635 37.4799C35.6621 37.4799 35.7606 37.4798 35.8592 37.4796C36.0656 37.4795 36.272 37.4803 36.4784 37.4819C36.7428 37.4838 37.0071 37.4836 37.2715 37.4828C37.475 37.4823 37.6784 37.4828 37.8819 37.4837C37.9794 37.484 38.0769 37.484 38.1743 37.4837C38.3106 37.4835 38.4469 37.4848 38.5832 37.4862C38.6607 37.4865 38.7382 37.4869 38.818 37.4873C39.041 37.5169 39.1368 37.5566 39.2912 37.7189C39.3446 38.0928 39.3446 38.0928 39.2912 38.2657C39.037 38.5136 38.8728 38.5736 38.5207 38.5756C38.4356 38.5767 38.3505 38.5778 38.2628 38.5789C38.1706 38.5787 38.0783 38.5783 37.986 38.5779C37.8907 38.5782 37.7955 38.5787 37.7002 38.5792C37.5009 38.5799 37.3017 38.5796 37.1024 38.5786C36.8475 38.5774 36.5926 38.579 36.3377 38.5814C36.1411 38.5829 35.9445 38.5828 35.7479 38.5822C35.654 38.5822 35.56 38.5827 35.466 38.5837C34.6403 38.5912 34.6403 38.5912 34.4141 38.3787C34.2751 38.1559 34.2516 38.045 34.301 37.7872C34.5131 37.5085 34.666 37.4795 35.009 37.4795Z" fill="#15D28F"/>
<path d="M35.009 31.3271C35.0971 31.3265 35.1851 31.3259 35.2758 31.3252C35.3717 31.3259 35.4676 31.3267 35.5635 31.3275C35.6621 31.3275 35.7606 31.3274 35.8592 31.3272C36.0656 31.3271 36.272 31.328 36.4784 31.3295C36.7428 31.3315 37.0071 31.3313 37.2715 31.3304C37.475 31.3299 37.6784 31.3305 37.8819 31.3313C37.9794 31.3316 38.0769 31.3317 38.1743 31.3314C38.3106 31.3312 38.4469 31.3325 38.5832 31.3338C38.6607 31.3342 38.7382 31.3346 38.818 31.3349C39.041 31.3645 39.1368 31.4042 39.2912 31.5665C39.3446 31.9405 39.3446 31.9405 39.2912 32.1134C39.037 32.3612 38.8728 32.4213 38.5207 32.4233C38.4356 32.4244 38.3505 32.4255 38.2628 32.4266C38.1706 32.4263 38.0783 32.426 37.986 32.4255C37.8907 32.4259 37.7955 32.4263 37.7002 32.4268C37.5009 32.4275 37.3017 32.4272 37.1024 32.4262C36.8475 32.4251 36.5926 32.4267 36.3377 32.4291C36.1411 32.4306 35.9445 32.4305 35.7479 32.4299C35.654 32.4298 35.56 32.4303 35.466 32.4313C34.6403 32.4388 34.6403 32.4388 34.4141 32.2263C34.2751 32.0036 34.2516 31.8927 34.301 31.6349C34.5131 31.3561 34.666 31.3272 35.009 31.3271Z" fill="#13D28F"/>
<path d="M35.009 28.251C35.0971 28.2503 35.1851 28.2497 35.2758 28.249C35.3717 28.2497 35.4676 28.2505 35.5635 28.2514C35.6621 28.2513 35.7606 28.2512 35.8592 28.251C36.0656 28.251 36.272 28.2518 36.4784 28.2534C36.7428 28.2553 37.0071 28.2551 37.2715 28.2543C37.475 28.2538 37.6784 28.2543 37.8819 28.2552C37.9794 28.2555 38.0769 28.2555 38.1743 28.2552C38.3106 28.255 38.4469 28.2563 38.5832 28.2576C38.6607 28.258 38.7382 28.2584 38.818 28.2588C39.041 28.2883 39.1368 28.3281 39.2912 28.4903C39.3446 28.8643 39.3446 28.8643 39.2912 29.0372C39.037 29.2851 38.8728 29.3451 38.5207 29.3471C38.4356 29.3482 38.3505 29.3493 38.2628 29.3504C38.1706 29.3501 38.0783 29.3498 37.986 29.3494C37.8907 29.3497 37.7955 29.3502 37.7002 29.3507C37.5009 29.3514 37.3017 29.3511 37.1024 29.3501C36.8475 29.3489 36.5926 29.3505 36.3377 29.3529C36.1411 29.3544 35.9445 29.3543 35.7479 29.3537C35.654 29.3537 35.56 29.3541 35.466 29.3551C34.6403 29.3627 34.6403 29.3627 34.4141 29.1502C34.2751 28.9274 34.2516 28.8165 34.301 28.5587C34.5131 28.28 34.666 28.251 35.009 28.251Z" fill="#13D28F"/>
<path d="M35.009 34.4033C35.0971 34.4027 35.1851 34.402 35.2758 34.4014C35.3717 34.4021 35.4676 34.4029 35.5635 34.4037C35.6621 34.4037 35.7606 34.4036 35.8592 34.4034C36.0656 34.4033 36.272 34.4042 36.4784 34.4057C36.7428 34.4077 37.0071 34.4075 37.2715 34.4066C37.475 34.4061 37.6784 34.4067 37.8819 34.4075C37.9794 34.4078 38.0769 34.4078 38.1743 34.4076C38.3106 34.4074 38.4469 34.4086 38.5832 34.41C38.6607 34.4104 38.7382 34.4107 38.818 34.4111C39.041 34.4407 39.1368 34.4804 39.2912 34.6427C39.3446 35.0167 39.3446 35.0167 39.2912 35.1896C39.037 35.4374 38.8728 35.4975 38.5207 35.4995C38.4356 35.5005 38.3505 35.5016 38.2628 35.5027C38.1706 35.5025 38.0783 35.5021 37.986 35.5017C37.8907 35.5021 37.7955 35.5025 37.7002 35.503C37.5009 35.5037 37.3017 35.5034 37.1024 35.5024C36.8475 35.5012 36.5926 35.5028 36.3377 35.5052C36.1411 35.5067 35.9445 35.5066 35.7479 35.5061C35.654 35.506 35.56 35.5065 35.466 35.5075C34.6403 35.515 34.6403 35.515 34.4141 35.3025C34.2751 35.0797 34.2516 34.9688 34.301 34.711C34.5131 34.4323 34.666 34.4034 35.009 34.4033Z" fill="#14D28F"/>
<path d="M33.5488 36.6932C33.7155 36.8043 33.7155 36.8043 33.8223 36.9666C33.8509 37.2098 33.851 37.3335 33.7141 37.5399C33.6386 37.6178 33.6386 37.6178 33.5616 37.6972C33.506 37.7553 33.4503 37.8134 33.3929 37.8732C33.3009 37.9658 33.3009 37.9658 33.207 38.0604C33.1407 38.1291 33.0745 38.1979 33.0084 38.2668C32.3483 38.9455 32.3483 38.9455 31.9907 38.9531C31.673 38.8482 31.4976 38.6463 31.2716 38.4064C31.2284 38.3623 31.1852 38.3181 31.1406 38.2725C30.7523 37.8717 30.7523 37.8717 30.729 37.552C30.7461 37.3084 30.7461 37.3084 30.8145 37.176C31.0423 37.055 31.2533 37.0381 31.498 37.1033C31.6828 37.243 31.8304 37.4028 31.9766 37.5819C32.2413 37.4741 32.4036 37.3031 32.6003 37.0991C32.9294 36.7588 33.062 36.6512 33.5488 36.6932Z" fill="#14D28F"/>
<path d="M33.5488 33.617C33.7155 33.7281 33.7155 33.7281 33.8223 33.8905C33.8509 34.1336 33.851 34.2573 33.7141 34.4638C33.6386 34.5416 33.6386 34.5416 33.5616 34.621C33.506 34.6791 33.4503 34.7372 33.3929 34.797C33.3009 34.8897 33.3009 34.8897 33.207 34.9842C33.1407 35.0529 33.0745 35.1217 33.0084 35.1906C32.3483 35.8694 32.3483 35.8694 31.9907 35.8769C31.673 35.772 31.4976 35.5701 31.2716 35.3303C31.2284 35.2861 31.1852 35.2419 31.1406 35.1964C30.7523 34.7955 30.7523 34.7955 30.729 34.4758C30.7461 34.2322 30.7461 34.2322 30.8145 34.0998C31.0423 33.9788 31.2533 33.962 31.498 34.0272C31.6828 34.1668 31.8304 34.3266 31.9766 34.5057C32.2413 34.3979 32.4036 34.227 32.6003 34.0229C32.9294 33.6826 33.062 33.575 33.5488 33.617Z" fill="#14D28F"/>
<path d="M33.5488 30.5411C33.7541 30.6779 33.8096 30.7638 33.8693 31.0025C33.7963 31.3476 33.5881 31.5256 33.3438 31.7715C33.2696 31.8475 33.1955 31.9234 33.1213 31.9993C32.3378 32.7953 32.3378 32.7953 32.0294 32.8009C31.6792 32.7027 31.5104 32.5158 31.2673 32.2543C31.2244 32.2101 31.1815 32.1659 31.1373 32.1204C30.7536 31.7214 30.7536 31.7214 30.729 31.4383C30.7461 31.2247 30.7461 31.2247 30.8145 31.0623C30.9869 30.9222 31.1315 30.9013 31.3517 30.9098C31.6304 30.9886 31.7986 31.2117 31.9766 31.4297C32.2243 31.3259 32.377 31.1781 32.5619 30.9854C32.8851 30.6497 33.0642 30.4901 33.5488 30.5411Z" fill="#14D28F"/>
<path d="M9.14453 26.7129C10.1822 26.7129 11.2199 26.7129 12.2891 26.7129C12.1862 26.97 12.0908 27.1688 11.947 27.3997C11.9077 27.463 11.8683 27.5264 11.8278 27.5917C11.7868 27.657 11.7459 27.7223 11.7037 27.7896C11.6625 27.8559 11.6213 27.9223 11.5789 27.9906C11.2741 28.4798 11.2741 28.4798 11.1953 28.5586C10.8897 28.6095 10.6114 28.6177 10.3066 28.5586C10.0773 28.3735 9.96621 28.1319 9.82812 27.875C9.73753 27.7287 9.64473 27.584 9.55193 27.4391C9.14453 26.8018 9.14453 26.8018 9.14453 26.7129Z" fill="#C7EFFE"/>
<path d="M10.9512 23.6958C11.4361 23.8496 11.635 24.355 11.8629 24.7818C11.9743 24.9846 12.0993 25.1775 12.2263 25.3709C12.2891 25.4822 12.2891 25.4822 12.2891 25.6189C11.2514 25.6189 10.2137 25.6189 9.14453 25.6189C9.76137 24.5395 9.76137 24.5395 9.99475 24.1962C10.0623 24.0962 10.0623 24.0962 10.1312 23.9941C10.3459 23.6883 10.5851 23.6966 10.9512 23.6958Z" fill="#C7EFFE"/>
<path d="M33.5488 27.4646C33.7541 27.6015 33.8096 27.6874 33.8693 27.9261C33.7963 28.2712 33.5881 28.4492 33.3438 28.6951C33.2696 28.771 33.1955 28.8469 33.1213 28.9229C32.3378 29.7189 32.3378 29.7189 32.0294 29.7245C31.6792 29.6262 31.5104 29.4394 31.2673 29.1779C31.2244 29.1337 31.1815 29.0895 31.1373 29.044C30.7536 28.645 30.7536 28.645 30.729 28.3619C30.7461 28.1482 30.7461 28.1482 30.8145 27.9859C30.9872 27.8455 31.1322 27.825 31.3528 27.8331C31.5901 27.9012 31.7135 28.0674 31.8644 28.2553C31.9014 28.2876 31.9384 28.32 31.9766 28.3533C32.3341 28.3088 32.526 28.0096 32.75 27.7529C33.0047 27.4799 33.1602 27.4084 33.5488 27.4646Z" fill="#12D28F"/>
<path d="M18.9883 22.748C19.0108 22.7932 19.0334 22.8383 19.0566 22.8848C19.0117 23.0035 18.9606 23.12 18.9071 23.2351C18.5786 23.9963 18.4272 24.8024 18.3047 25.6191C17.8535 25.6191 17.4023 25.6191 16.9375 25.6191C16.9563 25.0809 17.0234 24.6064 17.1682 24.0896C17.1825 24.0385 17.1968 23.9873 17.2115 23.9346C17.3037 23.6186 17.4173 23.3216 17.5527 23.0215C17.5866 23.0328 17.6204 23.044 17.6553 23.0557C18.1177 23.1481 18.4405 23.0985 18.8516 22.8848C18.8967 22.8396 18.9418 22.7945 18.9883 22.748Z" fill="#F8F1EF"/>
<path d="M16.8008 21.9277C16.945 22.072 16.9665 22.1359 17.0229 22.3251C17.1001 22.5481 17.1726 22.6542 17.3647 22.7908C17.4268 22.8443 17.4888 22.8979 17.5527 22.9531C17.5315 23.271 17.4233 23.5633 17.322 23.8632C17.1335 24.4394 17.0286 25.0208 16.9375 25.6191C16.5991 25.6191 16.2607 25.6191 15.9121 25.6191C15.9862 24.3145 16.2738 23.1213 16.8008 21.9277Z" fill="#FC6830"/>
<path d="M25.4141 23.2948C25.2629 23.372 25.1114 23.4444 24.9561 23.513C24.1699 23.8737 23.697 24.3439 23.3633 25.1405C23.2956 25.2984 23.2279 25.4563 23.1582 25.619C22.707 25.619 22.2559 25.619 21.791 25.619C21.9609 24.9488 22.229 24.4455 22.748 23.9784C22.8115 23.9206 22.8749 23.8628 22.9403 23.8032C23.6431 23.2317 24.5421 23.0956 25.4141 23.2948Z" fill="#F9F1EE"/>
<path d="M17.6211 15.0918C17.9595 15.0918 18.2979 15.0918 18.6465 15.0918C18.6465 16.1521 18.6465 17.2123 18.6465 18.3047C18.3081 18.3047 17.9697 18.3047 17.6211 18.3047C17.6211 17.2444 17.6211 16.1842 17.6211 15.0918Z" fill="#FEB137"/>
<path d="M25.2197 25.0468C25.5539 25.211 25.7596 25.4855 25.8926 25.8244C25.9758 26.2159 25.9225 26.5053 25.7131 26.8455C25.5235 27.0939 25.3809 27.2426 25.0723 27.3283C24.6774 27.3762 24.3103 27.4057 23.97 27.1745C23.7992 27.0112 23.7295 26.9198 23.6367 26.7131C23.7174 26.7089 23.7982 26.7048 23.8813 26.7005C23.9878 26.6947 24.0942 26.689 24.2007 26.6832C24.2804 26.6791 24.2804 26.6791 24.3617 26.675C24.4133 26.6722 24.4648 26.6693 24.5179 26.6663C24.5652 26.6638 24.6124 26.6613 24.6611 26.6587C24.8034 26.6443 24.9346 26.6143 25.0723 26.5764C25.0856 26.4782 25.0983 26.3799 25.1107 26.2816C25.1179 26.2268 25.125 26.1721 25.1323 26.1157C25.1507 25.9496 25.1507 25.9496 25.0723 25.756C24.8907 25.6889 24.7102 25.6762 24.5179 25.6661C24.4664 25.6632 24.4148 25.6603 24.3617 25.6574C24.282 25.6533 24.282 25.6533 24.2007 25.6492C24.1194 25.6448 24.1194 25.6448 24.0365 25.6403C23.9032 25.6331 23.77 25.6262 23.6367 25.6193C23.9957 24.9918 24.5292 24.8467 25.2197 25.0468Z" fill="#FC6C35"/>
<path d="M18.0996 20.834C18.5282 20.834 18.9568 20.834 19.3984 20.834C19.4077 21.0506 19.4144 21.2667 19.4197 21.4834C19.4226 21.544 19.4255 21.6047 19.4284 21.6671C19.4379 22.1815 19.2896 22.4846 18.9528 22.8654C18.8515 22.9531 18.8515 22.9531 18.6892 22.9574C18.4353 22.8546 18.3259 22.694 18.1679 22.4746C18.1009 22.2735 18.0916 22.1448 18.0929 21.9355C18.0931 21.8714 18.0933 21.8073 18.0935 21.7412C18.0944 21.6411 18.0944 21.6411 18.0953 21.5389C18.0956 21.4714 18.0959 21.4039 18.0962 21.3343C18.097 21.1675 18.0982 21.0007 18.0996 20.834Z" fill="#9E9797"/>
<path d="M22.0645 7.02537C22.2236 7.21011 22.2733 7.30643 22.2584 7.55088C22.1861 7.83726 22.06 8.05697 21.9064 8.30711C21.8797 8.35302 21.8529 8.39893 21.8254 8.44623C21.571 8.86723 21.571 8.86723 21.3125 8.93943C20.8957 8.92481 20.8957 8.92481 20.7016 8.75572C20.6044 8.54409 20.6054 8.42085 20.629 8.18748C20.7117 7.98919 20.818 7.80779 20.928 7.62351C20.9562 7.57434 20.9844 7.52517 21.0135 7.47451C21.2917 6.99524 21.2917 6.99524 21.5005 6.90574C21.7236 6.88096 21.8622 6.93067 22.0645 7.02537Z" fill="#FFD15A"/>
<path d="M13.1778 16.1172C13.3823 16.291 13.4404 16.4014 13.4897 16.6641C13.4226 17.0217 13.2078 17.1436 12.9233 17.3386C12.2177 17.7829 12.2177 17.7829 11.7423 17.6895C11.5714 17.5827 11.5714 17.5827 11.4688 17.4161C11.4233 17.1379 11.4254 16.9996 11.5884 16.7667C12.0317 16.3891 12.5789 15.9889 13.1778 16.1172Z" fill="#FFD15A"/>
<path d="M25.3457 18.3729C25.3457 18.3955 25.3457 18.418 25.3457 18.4413C25.2597 18.4563 25.1737 18.4712 25.0851 18.4867C23.4445 18.7854 22.1613 19.4282 20.834 20.4237C20.834 20.0853 20.834 19.747 20.834 19.3983C22.3091 18.6227 23.6867 18.3233 25.3457 18.3729Z" fill="#F9EEEB"/>
<path d="M24.5938 9.55457C24.7689 9.69556 24.7689 9.69556 24.8672 9.89637C24.8715 10.1399 24.8715 10.1399 24.7988 10.3749C24.4297 10.7073 23.8771 11.146 23.3633 11.1738C23.1172 11.1174 23.0295 11.0594 22.8848 10.8534C22.8056 10.6476 22.8017 10.5527 22.8762 10.345C23.0901 10.0871 23.3514 9.93085 23.6367 9.75965C23.7058 9.71735 23.7749 9.67506 23.8461 9.63148C24.1246 9.52481 24.2957 9.51611 24.5938 9.55457Z" fill="#FFD15A"/>
<path d="M14.9553 7.02551C15.1152 7.21747 15.2391 7.42573 15.3654 7.64075C15.394 7.68287 15.4225 7.72499 15.452 7.76839C15.6585 8.08397 15.6927 8.30141 15.6389 8.66614C15.4979 8.84131 15.4979 8.84131 15.2971 8.93958C15.0621 8.95667 15.0621 8.95667 14.8186 8.87122C14.6494 8.70825 14.5309 8.52382 14.4084 8.32434C14.3749 8.27279 14.3414 8.22124 14.3069 8.16813C14.1124 7.8495 14.0065 7.61353 14.0666 7.23059C14.1579 7.05716 14.2198 6.9822 14.3956 6.89734C14.6282 6.88405 14.7456 6.91649 14.9553 7.02551Z" fill="#FFD15A"/>
<path d="M12.2892 9.5545C12.4835 9.63144 12.6527 9.73561 12.8275 9.8493C12.8728 9.87693 12.9181 9.90455 12.9648 9.93301C13.1766 10.0654 13.3112 10.1646 13.4513 10.3748C13.4812 10.5713 13.4812 10.5713 13.4513 10.785C13.2921 11.0004 13.1968 11.1136 12.9274 11.1543C12.6176 11.1169 12.4012 10.989 12.1354 10.832C12.0616 10.7905 12.0616 10.7905 11.9864 10.7483C11.7512 10.6128 11.6231 10.5378 11.4689 10.3065C11.4403 10.0442 11.4315 9.88864 11.5714 9.66131C11.8077 9.51367 12.0207 9.51487 12.2892 9.5545Z" fill="#FFD15A"/>
<path d="M18.1681 5.96157C18.2132 5.96007 18.2583 5.95857 18.3048 5.95703C18.5328 6.02872 18.5969 6.13595 18.715 6.34182C18.7509 6.57215 18.747 6.79711 18.7406 7.02969C18.7405 7.09106 18.7404 7.15244 18.7403 7.21567C18.7335 7.72543 18.7335 7.72543 18.5782 7.98244C18.394 8.12578 18.2985 8.11883 18.0613 8.10635C17.8233 8.0501 17.761 8.03464 17.6212 7.84573C17.5775 7.58721 17.5895 7.32566 17.5913 7.06387C17.5899 6.99209 17.5886 6.92032 17.5872 6.84637C17.5872 6.77724 17.5873 6.70811 17.5873 6.63689C17.5872 6.57375 17.587 6.51062 17.5869 6.44558C17.6487 6.13575 17.8534 5.96096 18.1681 5.96157Z" fill="#FFD05A"/>
<path d="M24.2819 13.0823C24.3543 13.0821 24.4268 13.0818 24.5014 13.0815C24.6148 13.0827 24.6148 13.0827 24.7305 13.0839C24.8439 13.0828 24.8439 13.0828 24.9596 13.0815C25.0321 13.0818 25.1045 13.0821 25.1791 13.0823C25.2787 13.0827 25.2787 13.0827 25.3802 13.083C25.5789 13.1139 25.6383 13.1544 25.7559 13.3147C25.8327 13.5669 25.8473 13.6776 25.7303 13.9171C25.6192 14.0666 25.6192 14.0666 25.5508 14.135C25.2823 14.158 25.0128 14.1572 24.7433 14.1606C24.6677 14.1632 24.592 14.1657 24.5141 14.1684C23.9577 14.1744 23.9577 14.1744 23.7212 13.978C23.6063 13.7265 23.6319 13.5782 23.7051 13.3147C23.8693 13.0875 24.0103 13.0833 24.2819 13.0823Z" fill="#FFD15A"/>
<path d="M11.1464 13.0728C11.2152 13.0725 11.2841 13.0721 11.355 13.0718C11.4622 13.0734 11.4622 13.0734 11.5715 13.075C11.643 13.0739 11.7145 13.0729 11.7881 13.0718C11.8569 13.0721 11.9257 13.0725 11.9966 13.0728C12.0907 13.0733 12.0907 13.0733 12.1866 13.0738C12.4103 13.1201 12.4923 13.2042 12.6311 13.3826C12.6653 13.6219 12.6653 13.6219 12.6311 13.8611C12.4923 14.0395 12.4103 14.1237 12.1866 14.1699C12.1239 14.1702 12.0612 14.1706 11.9966 14.1709C11.9278 14.1712 11.859 14.1716 11.7881 14.1719C11.6809 14.1703 11.6809 14.1703 11.5715 14.1687C11.5001 14.1698 11.4286 14.1708 11.355 14.1719C11.2862 14.1716 11.2173 14.1712 11.1464 14.1709C11.0837 14.1706 11.021 14.1703 10.9564 14.1699C10.7327 14.1237 10.6508 14.0395 10.512 13.8611C10.4778 13.6219 10.4778 13.6219 10.512 13.3826C10.7057 13.1337 10.8341 13.0744 11.1464 13.0728Z" fill="#FFD15A"/>
<path d="M25.0723 15.9802C24.8036 16.126 24.5427 16.1613 24.2434 16.2024C22.9124 16.4083 21.4995 16.9338 20.4238 17.7576C20.3787 17.735 20.3336 17.7125 20.2871 17.6892C20.3701 17.5333 20.4542 17.3783 20.5392 17.2235C20.5624 17.1796 20.5856 17.1357 20.6095 17.0904C20.8645 16.6305 21.179 16.5131 21.671 16.3701C22.8293 16.0482 23.8717 15.9602 25.0723 15.9802Z" fill="#F04725"/>
<path d="M16.5955 13.4512C16.6181 13.4512 16.6406 13.4512 16.6639 13.4512C16.669 13.504 16.6741 13.5569 16.6794 13.6114C16.742 14.1074 16.8398 14.4696 17.2107 14.8184C17.3183 14.8728 17.3183 14.8728 17.4281 14.9284C17.6209 15.0918 17.6209 15.0918 17.6539 15.2352C17.6613 15.4112 17.6567 15.5824 17.6465 15.7583C17.6447 15.819 17.6428 15.8797 17.6409 15.9423C17.6361 16.0919 17.6294 16.2412 17.6209 16.3906C16.9898 15.7999 16.6299 14.7684 16.5843 13.9281C16.583 13.7683 16.5858 13.6106 16.5955 13.4512Z" fill="#FFD15C"/>
<path d="M19.3984 20.834C19.7143 20.834 20.0301 20.834 20.3555 20.834C20.2363 21.0724 20.1206 21.2407 19.9539 21.4449C19.9075 21.502 19.8612 21.559 19.8134 21.6177C19.7433 21.7035 19.7433 21.7035 19.6719 21.791C19.5816 21.9038 19.4914 22.0166 19.3984 22.1328C19.3984 21.7042 19.3984 21.2756 19.3984 20.834Z" fill="#F9F3F1"/>
</g>
<defs>
<clipPath id="clip0_1531_1631">
<rect width="35" height="35" fill="white" transform="translate(6 6)"/>
</clipPath>
</defs>
</svg>
