<svg width="48" height="48" viewBox="0 0 48 48" fill="none" xmlns="http://www.w3.org/2000/svg">
<circle cx="24" cy="24" r="24" fill="#F4F7FE"/>
<g clip-path="url(#clip0_1531_1772)">
<path d="M23.4702 5.9786C23.54 5.97874 23.6097 5.97889 23.6816 5.97904C25.4732 5.98512 27.1792 6.20354 28.8824 6.7893C29.1551 6.84385 29.3866 6.75804 29.6359 6.65017C31.4227 5.90023 33.4513 5.69137 35.3263 6.2734C35.3731 6.28768 35.42 6.30197 35.4682 6.31669C36.5181 6.64818 37.4428 7.18459 38.2658 7.91402C38.3173 7.95579 38.3689 7.99756 38.422 8.04059C39.8826 9.25134 40.7303 11.1268 41.0001 12.9726C41.0837 14.4953 41.0103 15.8883 40.3485 17.2838C40.162 17.6996 40.1806 17.945 40.3165 18.373C40.3491 18.4973 40.381 18.6217 40.4124 18.7463C40.438 18.8444 40.438 18.8444 40.464 18.9446C40.6671 19.729 40.8287 20.5087 40.9318 21.3125C40.9407 21.3811 40.9407 21.3811 40.9498 21.4511C40.9966 21.8376 41.013 22.2192 41.0164 22.6083C41.0171 22.6721 41.0178 22.7359 41.0185 22.8016C41.0303 24.2178 41.0209 25.5945 40.7267 26.9863C40.7117 27.0575 40.6967 27.1287 40.6812 27.2021C40.1567 29.6068 39.1499 31.8411 37.7069 33.8337C37.6757 33.8768 37.6444 33.92 37.6123 33.9644C37.5437 34.0558 37.4727 34.1453 37.3999 34.2333C37.153 34.537 37.0565 34.7251 37.0609 35.1296C37.016 36.5435 36.3004 37.4555 35.3263 38.4023C34.8933 38.7945 34.5991 38.9836 33.9978 38.9711C33.6411 38.9265 33.3701 38.7729 33.1217 38.5177C33.0625 38.4606 33.0625 38.4606 33.0021 38.4023C32.7845 38.4315 32.6168 38.5243 32.4282 38.6327C32.3693 38.6661 32.3104 38.6994 32.2497 38.7337C32.1548 38.7875 32.1548 38.7875 32.0579 38.8424C31.0856 39.3828 30.0667 39.8772 28.9964 40.1922C28.8227 40.2465 28.8227 40.2465 28.6354 40.3511C28.4041 40.4616 28.2044 40.5077 27.952 40.5513C27.9063 40.5594 27.8605 40.5674 27.8133 40.5757C27.7101 40.5937 27.6069 40.6113 27.5037 40.6287C27.3077 40.6616 27.1118 40.6955 26.916 40.7295C26.7714 40.7542 26.6269 40.7788 26.4823 40.8034C26.4141 40.8151 26.3459 40.8268 26.2757 40.8388C26.1763 40.8554 26.1763 40.8554 26.0748 40.8723C25.9875 40.887 25.9875 40.887 25.8985 40.902C25.377 40.9752 24.8611 41.0111 24.3346 41.0138C24.273 41.0143 24.2115 41.0148 24.1481 41.0153C23.9506 41.0165 23.7531 41.0169 23.5557 41.017C23.4882 41.0171 23.4207 41.0171 23.3511 41.0172C22.3605 41.0161 21.3988 40.9851 20.424 40.7949C20.3626 40.7839 20.3013 40.7729 20.2381 40.7615C16.9099 40.1593 13.8321 38.5567 11.4005 36.2148C11.3555 36.1716 11.3104 36.1284 11.2639 36.0839C10.6153 35.4587 10.0179 34.8232 9.48647 34.0957C9.42781 34.017 9.36915 33.9383 9.31049 33.8596C8.89777 33.2998 8.52981 32.7185 8.18764 32.1132C8.16014 32.0649 8.13265 32.0165 8.10432 31.9667C7.21391 30.3852 6.61585 28.6645 6.25221 26.888C6.24214 26.8389 6.23207 26.7897 6.22169 26.7391C6.0184 25.6695 5.97464 24.6118 5.97878 23.5256C5.97892 23.456 5.97907 23.3864 5.97922 23.3147C5.98262 22.3161 5.99977 21.3363 6.20522 20.3554C6.2188 20.2888 6.23238 20.2221 6.24637 20.1535C6.48844 18.9963 6.77538 17.7647 7.31312 16.7054C7.48795 16.323 7.47389 15.9373 7.47414 15.5233C7.47789 14.6078 7.47789 14.6078 7.70912 14.2714C7.86372 14.1319 8.0018 14.0226 8.18764 13.9296C8.22853 13.9336 8.26941 13.9376 8.31154 13.9417C8.50619 13.9538 8.62141 13.9374 8.80287 13.8613C9.03394 13.6031 9.2155 13.3203 9.40285 13.0297C9.61049 12.7182 9.85884 12.4365 10.1017 12.1523C10.167 12.0755 10.167 12.0755 10.2336 11.9972C11.0414 11.0746 11.9122 10.2085 12.9044 9.48629C12.983 9.42774 13.0616 9.36917 13.1402 9.31058C13.7001 8.89769 14.2815 8.52969 14.8869 8.18746C14.9352 8.15997 14.9835 8.13247 15.0334 8.10415C16.8247 7.09561 18.8029 6.44418 20.8341 6.13668C20.9106 6.12456 20.9871 6.11243 21.0659 6.09994C21.8672 5.985 22.6617 5.97553 23.4702 5.9786Z" fill="#EDECED"/>
<path d="M23.4701 5.9786C23.5398 5.97874 23.6096 5.97889 23.6815 5.97904C25.473 5.98512 27.179 6.20354 28.8823 6.7893C29.155 6.84385 29.3864 6.75804 29.6358 6.65017C31.4226 5.90023 33.4512 5.69137 35.3262 6.2734C35.373 6.28768 35.4198 6.30197 35.4681 6.31669C36.5179 6.64818 37.4427 7.18459 38.2656 7.91402C38.3172 7.95579 38.3687 7.99756 38.4218 8.04059C39.8825 9.25134 40.7302 11.1268 41 12.9726C41.0836 14.4953 41.0102 15.8883 40.3483 17.2838C40.1618 17.6996 40.1805 17.945 40.3164 18.373C40.3489 18.4973 40.3809 18.6217 40.4123 18.7463C40.4378 18.8444 40.4378 18.8444 40.4639 18.9446C40.6669 19.729 40.8286 20.5087 40.9316 21.3125C40.9406 21.3811 40.9406 21.3811 40.9496 21.4511C40.9964 21.8376 41.0129 22.2192 41.0163 22.6083C41.017 22.6721 41.0176 22.7359 41.0183 22.8016C41.0301 24.2178 41.0208 25.5945 40.7266 26.9863C40.7115 27.0575 40.6965 27.1287 40.6811 27.2021C40.1565 29.6068 39.1498 31.8411 37.7067 33.8337C37.6755 33.8768 37.6443 33.92 37.6121 33.9644C37.5436 34.0558 37.4726 34.1453 37.3997 34.2333C37.1529 34.537 37.0563 34.7251 37.0608 35.1296C37.0158 36.5435 36.3003 37.4555 35.3262 38.4023C34.8932 38.7945 34.5989 38.9836 33.9977 38.9711C33.641 38.9265 33.37 38.7729 33.1216 38.5177C33.0624 38.4606 33.0624 38.4606 33.002 38.4023C32.7844 38.4315 32.6166 38.5243 32.4281 38.6327C32.3692 38.6661 32.3102 38.6994 32.2495 38.7337C32.1862 38.7696 32.1229 38.8054 32.0577 38.8424C31.5105 39.1468 30.9578 39.4228 30.3829 39.6712C30.319 39.6989 30.2551 39.7265 30.1893 39.755C29.1217 40.2078 29.1217 40.2078 28.832 40.1113C28.8764 40.0372 28.9208 39.9631 28.9666 39.8868C29.1481 39.5209 29.1436 39.1827 29.1402 38.7806C29.1406 38.7028 29.141 38.6251 29.1415 38.545C29.1426 38.2852 29.1417 38.0255 29.1409 37.7657C29.1411 37.5791 29.1417 37.3926 29.1423 37.206C29.1435 36.7522 29.1433 36.2985 29.1425 35.8447C29.1418 35.4756 29.1418 35.1065 29.1421 34.7374C29.1421 34.6585 29.1421 34.6585 29.1422 34.578C29.1423 34.4712 29.1424 34.3643 29.1425 34.2574C29.1432 33.2557 29.1423 32.254 29.1409 31.2522C29.1396 30.394 29.1399 29.5359 29.1411 28.6777C29.1426 27.68 29.1432 26.6823 29.1423 25.6846C29.1422 25.578 29.1421 25.4714 29.1421 25.3648C29.142 25.3124 29.142 25.26 29.1419 25.206C29.1417 24.8378 29.1421 24.4696 29.1427 24.1015C29.1435 23.6521 29.1433 23.2027 29.1418 22.7533C29.1411 22.5244 29.141 22.2954 29.1417 22.0664C29.1465 20.4744 28.9529 19.4318 27.8049 18.2668C27.6758 18.1376 27.5461 18.0089 27.4162 17.8803C27.3249 17.7889 27.2335 17.6975 27.1422 17.606C26.9518 17.4155 26.7609 17.2254 26.5696 17.0357C26.3257 16.7938 26.0829 16.5508 25.8404 16.3074C25.6523 16.1188 25.4637 15.9307 25.2749 15.7428C25.1852 15.6534 25.0957 15.5639 25.0063 15.4742C23.9459 14.4122 23.062 13.9661 21.5434 13.9596C21.4174 13.96 21.2913 13.9603 21.1653 13.9607C21.0297 13.9601 20.8942 13.9594 20.7587 13.9585C20.3939 13.9567 20.0292 13.9564 19.6644 13.9565C19.2821 13.9563 18.8997 13.9545 18.5174 13.9529C17.7947 13.9502 17.0721 13.9488 16.3495 13.9479C15.5262 13.9468 14.7029 13.9442 13.8796 13.9414C12.1873 13.9358 10.495 13.9321 8.80273 13.9296C8.87853 13.8095 8.95446 13.6895 9.03044 13.5695C9.07271 13.5027 9.11498 13.4359 9.15853 13.367C9.30819 13.1361 9.46829 12.918 9.64014 12.7034C9.68823 12.643 9.68823 12.643 9.7373 12.5814C10.0681 12.1703 10.4193 11.7802 10.7852 11.4003C10.8284 11.3553 10.8716 11.3102 10.9161 11.2638C11.5412 10.6152 12.1768 10.0177 12.9043 9.48629C12.983 9.42763 13.0617 9.36897 13.1404 9.31031C13.7002 8.89759 14.2814 8.52963 14.8867 8.18746C14.9351 8.15997 14.9834 8.13247 15.0332 8.10415C16.8246 7.09561 18.8027 6.44418 20.834 6.13668C20.9105 6.12456 20.9869 6.11243 21.0657 6.09994C21.8671 5.985 22.6616 5.97553 23.4701 5.9786Z" fill="#F36060"/>
<path d="M40.043 17.8262C40.2804 18.0636 40.3219 18.4056 40.4104 18.7234C40.4422 18.8372 40.4422 18.8372 40.4747 18.9533C40.6846 19.7296 40.8275 20.5153 40.9316 21.3125C40.9375 21.3572 40.9433 21.4018 40.9493 21.4479C40.9966 21.8354 41.0129 22.2182 41.0163 22.6084C41.0173 22.704 41.0173 22.704 41.0183 22.8016C41.0301 24.2178 41.0208 25.5945 40.7266 26.9863C40.7115 27.0576 40.6965 27.1288 40.6811 27.2022C40.1565 29.6069 39.1498 31.8412 37.7067 33.8337C37.6755 33.8769 37.6443 33.92 37.6121 33.9645C37.5436 34.0558 37.4726 34.1454 37.3997 34.2334C37.1529 34.5371 37.0563 34.7251 37.0608 35.1296C37.0158 36.5435 36.3003 37.4555 35.3262 38.4023C34.8932 38.7945 34.5989 38.9837 33.9977 38.9711C33.641 38.9266 33.37 38.773 33.1216 38.5177C33.0821 38.4796 33.0426 38.4416 33.002 38.4023C32.7844 38.4316 32.6166 38.5244 32.4281 38.6328C32.3692 38.6661 32.3102 38.6994 32.2495 38.7337C32.1862 38.7696 32.1229 38.8055 32.0577 38.8424C31.5105 39.1468 30.9578 39.4229 30.3829 39.6713C30.319 39.6989 30.2551 39.7266 30.1893 39.7551C29.1217 40.2079 29.1217 40.2079 28.832 40.1113C28.8764 40.0369 28.9208 39.9625 28.9665 39.8858C29.1456 39.525 29.1439 39.1948 29.1409 38.798C29.1415 38.7222 29.142 38.6463 29.1425 38.5682C29.1439 38.3148 29.1433 38.0615 29.1428 37.8081C29.1434 37.6261 29.1441 37.4442 29.1449 37.2623C29.1465 36.871 29.1471 36.4798 29.147 36.0885C29.1469 35.5227 29.1483 34.957 29.1501 34.3913C29.1529 33.4734 29.1545 32.5554 29.1553 31.6375C29.1561 30.746 29.1575 29.8546 29.1596 28.9631C29.1598 28.9081 29.1599 28.8531 29.16 28.7964C29.1607 28.5206 29.1614 28.2447 29.1621 27.9688C29.1677 25.6817 29.1714 23.3946 29.1738 21.1074C29.2515 21.14 29.3292 21.1726 29.4093 21.2062C29.5133 21.2496 29.6174 21.2929 29.7215 21.3363C29.7725 21.3577 29.8234 21.3791 29.8759 21.4012C30.4113 21.6235 30.9816 21.8594 31.5664 21.8594C31.6682 21.7424 31.6682 21.7424 31.7501 21.5859C32.1681 20.9156 32.7836 20.4725 33.5488 20.2871C34.627 20.1657 35.4226 20.4508 36.2666 21.1202C36.3172 21.1611 36.3678 21.202 36.4199 21.2441C37.0946 20.8861 37.6901 20.5193 38.2656 20.0137C38.3361 19.9601 38.4066 19.9065 38.4792 19.8513C38.9887 19.3862 39.3857 18.8062 39.7695 18.2363C39.8142 18.1701 39.8142 18.1701 39.8598 18.1025C39.9213 18.0107 39.9822 17.9185 40.043 17.8262Z" fill="#F8E364"/>
<path d="M36.3053 9.27419C37.5259 10.2329 38.5022 11.5189 38.7267 13.0951C38.8689 14.8921 38.477 16.4885 37.3085 17.8944C36.4333 18.9176 35.026 19.6682 33.6854 19.8085C32.006 19.9071 30.4507 19.5237 29.1481 18.4028C27.9978 17.3347 27.2489 15.9792 27.1694 14.3934C27.1184 12.6919 27.6436 11.2354 28.8172 9.98155C29.2391 9.5537 29.6721 9.22899 30.1991 8.93934C30.2533 8.90902 30.3075 8.87871 30.3633 8.84748C32.2179 7.8616 34.6042 8.05543 36.3053 9.27419Z" fill="#F2F3F3"/>
<path d="M32.9509 5.96998C32.9968 5.97019 33.0427 5.9704 33.0899 5.97061C33.8626 5.97576 34.5871 6.04385 35.3264 6.27333C35.3732 6.28761 35.4201 6.3019 35.4683 6.31662C36.5181 6.64811 37.4429 7.18452 38.2658 7.91395C38.3174 7.95572 38.3689 7.99749 38.4221 8.04052C39.8827 9.25127 40.7304 11.1268 41.0002 12.9725C41.1054 14.8888 40.949 16.8839 39.7014 18.4413C39.6114 18.5678 39.5217 18.6946 39.4322 18.8215C38.6204 19.9272 37.5911 20.7311 36.3518 21.3124C36.3137 21.2761 36.2756 21.2398 36.2364 21.2024C35.5111 20.5309 34.8179 20.3104 33.8385 20.3343C33.1782 20.3696 32.6529 20.6522 32.1819 21.1073C31.9556 21.3674 31.7577 21.641 31.5666 21.9276C30.9802 21.9063 30.4631 21.7123 29.922 21.5002C29.8099 21.457 29.6962 21.4179 29.5823 21.3797C29.4036 21.3067 29.2995 21.2547 29.174 21.1073C29.1112 20.8717 29.0875 20.6463 29.067 20.4034C28.9519 19.4209 28.2689 18.7432 27.5882 18.0882C27.4846 17.9883 27.3816 17.8877 27.2788 17.7869C26.9868 17.5007 26.6945 17.215 26.4 16.9315C26.2187 16.7569 26.0389 16.5809 25.8598 16.4041C25.7919 16.3376 25.7236 16.2715 25.6547 16.206C25.2237 15.7959 24.9665 15.4921 24.9358 14.8866C24.9296 14.8129 24.9234 14.7392 24.917 14.6632C24.915 14.4499 24.9133 14.2368 24.9144 14.0236C24.9147 13.9453 24.9151 13.8669 24.9154 13.7862C24.9452 11.6214 25.9032 9.66421 27.4251 8.15274C28.9372 6.72734 30.8804 5.95354 32.9509 5.96998ZM30.3362 8.87098C30.2576 8.90985 30.2576 8.90985 30.1775 8.94949C29.7558 9.16843 29.3959 9.44948 29.0373 9.75966C28.9909 9.79949 28.9444 9.83932 28.8966 9.88035C28.1714 10.5515 27.7027 11.4291 27.3967 12.3573C27.3735 12.4263 27.3503 12.4953 27.3265 12.5664C26.9479 13.908 27.1539 15.4443 27.8069 16.664C27.8396 16.7289 27.8724 16.7938 27.9062 16.8608C28.6334 18.2146 29.8765 19.1187 31.3127 19.6122C32.8871 20.0605 34.4436 19.807 35.8733 19.0565C37.3001 18.2171 38.1916 16.9167 38.6138 15.3432C38.6343 15.2602 38.6548 15.1772 38.676 15.0917C38.6898 15.0382 38.7037 14.9847 38.7179 14.9296C38.9364 13.4445 38.5928 11.9268 37.7283 10.7017C36.789 9.47913 35.569 8.60518 34.0404 8.2942C32.7281 8.13222 31.5172 8.25592 30.3362 8.87098Z" fill="#136972"/>
<path d="M40.043 17.8262C40.2804 18.0636 40.3219 18.4056 40.4104 18.7234C40.4422 18.8372 40.4422 18.8372 40.4747 18.9533C40.6846 19.7296 40.8275 20.5153 40.9316 21.3125C40.9375 21.3572 40.9433 21.4018 40.9493 21.4479C40.9966 21.8354 41.0129 22.2182 41.0163 22.6084C41.017 22.6722 41.0176 22.7359 41.0183 22.8016C41.0301 24.2178 41.0208 25.5945 40.7266 26.9863C40.7115 27.0576 40.6965 27.1288 40.6811 27.2022C40.1449 29.6604 39.1041 31.9384 37.6118 33.9626C37.5415 34.058 37.472 34.154 37.403 34.2505C37.3667 34.3007 37.3303 34.3508 37.2928 34.4025C37.2599 34.4485 37.2269 34.4944 37.1929 34.5417C37.1634 34.575 37.1339 34.6083 37.1035 34.6426C37.0584 34.6426 37.0133 34.6426 36.9668 34.6426C36.9667 34.5801 36.9666 34.5177 36.9665 34.4534C36.964 32.9328 36.9599 31.4123 36.9542 29.8917C36.9515 29.1564 36.9493 28.4211 36.9483 27.6857C36.9474 27.0447 36.9455 26.4036 36.9426 25.7625C36.941 25.4232 36.9399 25.084 36.94 24.7446C36.9401 24.4249 36.9388 24.1052 36.9366 23.7855C36.9361 23.6685 36.9359 23.5515 36.9363 23.4345C36.9418 22.4491 36.9418 22.4491 36.5133 21.581C36.4199 21.4492 36.4199 21.4492 36.4199 21.2441C36.4902 21.2069 36.5604 21.1696 36.6327 21.1312C37.2331 20.8067 37.7517 20.4652 38.2656 20.0137C38.3361 19.9601 38.4066 19.9065 38.4792 19.8513C38.9887 19.3862 39.3857 18.8062 39.7695 18.2363C39.7993 18.1922 39.8291 18.148 39.8598 18.1025C39.9213 18.0107 39.9822 17.9185 40.043 17.8262Z" fill="#F36160"/>
<path d="M29.1738 21.1074C29.2515 21.1401 29.3292 21.1728 29.4093 21.2065C29.5133 21.25 29.6174 21.2934 29.7215 21.3368C29.7725 21.3583 29.8234 21.3798 29.8759 21.4019C30.2769 21.5687 30.6771 21.694 31.0978 21.803C31.2696 21.8526 31.4088 21.914 31.5664 21.9961C31.5519 22.0359 31.5374 22.0758 31.5225 22.1168C31.3228 22.7387 31.3324 23.3489 31.3348 23.9939C31.3345 24.1186 31.3341 24.2433 31.3337 24.368C31.3328 24.7049 31.3331 25.0417 31.3338 25.3786C31.3343 25.7323 31.3338 26.086 31.3335 26.4397C31.3331 27.0335 31.3336 27.6274 31.3346 28.2213C31.3357 28.9063 31.3353 29.5913 31.3342 30.2763C31.3333 30.8661 31.3332 31.4558 31.3337 32.0455C31.334 32.3971 31.3341 32.7486 31.3334 33.1001C31.3328 33.4308 31.3332 33.7614 31.3344 34.0921C31.3347 34.2129 31.3346 34.3337 31.3341 34.4545C31.3295 35.7917 31.5998 36.7792 32.5234 37.7871C32.6559 37.912 32.7873 38.0201 32.9336 38.1289C32.9844 38.0641 33.0351 37.9992 33.0874 37.9324C33.2256 37.7558 33.3352 37.6563 33.5488 37.582C33.7513 37.559 33.9519 37.5567 34.1555 37.5564C34.2095 37.5547 34.2636 37.553 34.3192 37.5513C34.689 37.5495 34.8949 37.6128 35.1895 37.8555C35.3219 37.9922 35.3219 37.9922 35.3945 38.1289C35.3588 38.428 35.1964 38.542 34.9718 38.7217C34.6167 38.9814 34.251 39.0027 33.8223 38.9492C33.5391 38.8553 33.3296 38.7315 33.1216 38.5177C33.0821 38.4796 33.0426 38.4416 33.002 38.4023C32.7844 38.4316 32.6166 38.5244 32.4281 38.6328C32.3692 38.6661 32.3102 38.6994 32.2495 38.7337C32.1862 38.7696 32.1229 38.8055 32.0577 38.8424C31.5105 39.1468 30.9578 39.4229 30.3829 39.6713C30.319 39.6989 30.2551 39.7266 30.1893 39.7551C29.1217 40.2079 29.1217 40.2079 28.832 40.1113C28.8764 40.0369 28.9208 39.9625 28.9665 39.8858C29.1456 39.525 29.1439 39.1948 29.1409 38.798C29.1415 38.7222 29.142 38.6463 29.1425 38.5682C29.1439 38.3148 29.1433 38.0615 29.1428 37.8081C29.1434 37.6261 29.1441 37.4442 29.1449 37.2623C29.1465 36.871 29.1471 36.4798 29.147 36.0885C29.1469 35.5227 29.1483 34.957 29.1501 34.3913C29.1529 33.4734 29.1545 32.5554 29.1553 31.6375C29.1561 30.746 29.1575 29.8546 29.1596 28.9631C29.1598 28.9081 29.1599 28.8531 29.16 28.7964C29.1607 28.5206 29.1614 28.2447 29.1621 27.9688C29.1677 25.6817 29.1714 23.3946 29.1738 21.1074Z" fill="#F36060"/>
<path d="M33.2072 20.4238C33.2072 25.116 33.2072 29.8082 33.2072 34.6426C33.3425 34.6651 33.4779 34.6877 33.6173 34.7109C33.793 34.8098 33.9361 34.9281 34.0959 35.0527C34.3121 34.949 34.5153 34.8297 34.7194 34.7043C35.1693 34.4882 35.8148 34.4832 36.2786 34.6434C36.447 34.7266 36.6047 34.8132 36.7619 34.916C36.8125 34.949 36.8632 34.9819 36.9154 35.0159C37.0353 35.1211 37.0353 35.1211 37.0695 35.3475C36.9988 36.5879 36.2826 37.4192 35.463 38.2656C35.4081 38.1895 35.4081 38.1895 35.352 38.1118C35.1469 37.8744 34.9574 37.6826 34.6379 37.6248C34.4791 37.6137 34.3234 37.6131 34.1642 37.6162C34.1108 37.6152 34.0574 37.6141 34.0024 37.613C33.5492 37.6161 33.3065 37.765 32.9765 38.0776C32.9215 38.1369 32.9215 38.1369 32.8654 38.1973C32.0493 37.4506 31.4777 36.6388 31.2931 35.5312C31.2864 35.3571 31.283 35.1849 31.2831 35.0108C31.2828 34.959 31.2826 34.9071 31.2823 34.8537C31.2816 34.6801 31.2813 34.5066 31.281 34.3331C31.2806 34.2085 31.2801 34.084 31.2797 33.9594C31.2782 33.5506 31.2775 33.1417 31.2768 32.7328C31.2766 32.5918 31.2763 32.4508 31.276 32.3097C31.2747 31.6469 31.2737 30.9841 31.2731 30.3213C31.2725 29.5576 31.2707 28.7939 31.2679 28.0302C31.2659 27.4391 31.2648 26.848 31.2646 26.2569C31.2645 25.9042 31.2639 25.5516 31.2621 25.199C31.2605 24.8668 31.2602 24.5346 31.2609 24.2025C31.261 24.0811 31.2606 23.9598 31.2596 23.8385C31.252 22.807 31.3682 21.866 32.1231 21.0946C32.8481 20.4238 32.8481 20.4238 33.2072 20.4238Z" fill="#F6CC66"/>
<path d="M32.9936 5.97869C33.0858 5.97855 33.1781 5.97833 33.2703 5.97803C33.749 5.98063 34.1808 6.00936 34.6428 6.13678C34.4438 6.26946 34.2645 6.33337 34.0377 6.40349C32.6754 6.82528 31.1355 7.58111 30.3319 8.81401C30.1939 9.01596 30.1065 9.0839 29.8918 9.19159C28.6013 9.92331 27.7873 11.2402 27.378 12.6352C27.0467 13.9746 27.2253 15.4501 27.8752 16.6641C27.908 16.7291 27.9408 16.794 27.9746 16.8609C28.4307 17.7102 29.0637 18.3432 29.8705 18.8583C30.1407 19.0411 30.3363 19.2587 30.5412 19.5096C31.024 20.0648 31.6275 20.5156 32.2502 20.9024C32.1557 21.1055 32.045 21.2763 31.9084 21.4535C31.7887 21.6095 31.6758 21.764 31.5666 21.9278C30.9802 21.9065 30.4631 21.7125 29.922 21.5004C29.8099 21.4572 29.6962 21.4181 29.5823 21.3798C29.4036 21.3069 29.2995 21.2548 29.174 21.1075C29.1112 20.8719 29.0875 20.6464 29.067 20.4036C28.9519 19.4211 28.2689 18.7434 27.5882 18.0884C27.4846 17.9884 27.3816 17.8878 27.2788 17.787C26.9868 17.5009 26.6945 17.2152 26.4 16.9316C26.2187 16.757 26.0389 16.5811 25.8598 16.4043C25.7919 16.3377 25.7236 16.2717 25.6547 16.2062C25.2237 15.7961 24.9665 15.4923 24.9358 14.8868C24.9296 14.8131 24.9234 14.7393 24.917 14.6634C24.915 14.4501 24.9133 14.237 24.9144 14.0237C24.9147 13.9454 24.9151 13.8671 24.9154 13.7864C24.9452 11.6216 25.9032 9.66438 27.4251 8.15291C28.9555 6.71025 30.902 5.95301 32.9936 5.97869Z" fill="#0B5966"/>
<path d="M11.5853 28.1383C11.6477 28.1381 11.71 28.1378 11.7743 28.1376C11.9845 28.1368 12.1947 28.1366 12.405 28.1363C12.5552 28.1359 12.7054 28.1354 12.8556 28.1349C13.2646 28.1338 13.6737 28.133 14.0827 28.1325C14.3381 28.1321 14.5935 28.1317 14.8489 28.1313C15.6016 28.13 16.3543 28.1291 17.107 28.1285C17.2447 28.1284 17.3825 28.1283 17.5203 28.1282C17.5659 28.1282 17.6115 28.1282 17.6585 28.1281C18.3973 28.1276 19.1361 28.1258 19.875 28.1236C20.6334 28.1213 21.3918 28.1201 22.1502 28.1199C22.5761 28.1197 23.0019 28.1191 23.4278 28.1174C23.8284 28.1158 24.229 28.1155 24.6296 28.1162C24.7768 28.1163 24.9239 28.1158 25.0709 28.1149C25.2717 28.1137 25.4724 28.1142 25.6731 28.1151C25.7314 28.1143 25.7897 28.1136 25.8497 28.1128C26.2144 28.1167 26.4241 28.1785 26.713 28.4218C26.8308 28.6575 26.8157 28.9161 26.7813 29.1738C26.6531 29.3448 26.5599 29.4212 26.3712 29.5156C26.1704 29.5229 25.9713 29.526 25.7705 29.5261C25.6761 29.5266 25.6761 29.5266 25.5797 29.527C25.3674 29.5279 25.1552 29.5284 24.9429 29.5288C24.7912 29.5293 24.6395 29.5299 24.4879 29.5305C23.9887 29.5323 23.4895 29.5333 22.9903 29.5343C22.8187 29.5347 22.6471 29.535 22.4755 29.5354C21.7619 29.5369 21.0483 29.5382 20.3347 29.5389C20.1495 29.5391 19.9642 29.5393 19.779 29.5395C19.733 29.5396 19.6869 29.5396 19.6395 29.5397C18.8936 29.5405 18.1476 29.5428 17.4017 29.5457C16.6361 29.5486 15.8705 29.5501 15.1049 29.5505C14.6749 29.5508 14.245 29.5516 13.815 29.5538C13.4107 29.5559 13.0063 29.5563 12.6019 29.5555C12.4534 29.5555 12.3048 29.5561 12.1562 29.5573C11.9537 29.5588 11.7512 29.5582 11.5486 29.5572C11.4896 29.5581 11.4306 29.5591 11.3698 29.56C11.0705 29.5561 10.9577 29.5443 10.7162 29.3506C10.518 29.0929 10.4741 28.9536 10.5118 28.6269C10.8011 28.1594 11.07 28.1382 11.5853 28.1383Z" fill="#136A73"/>
<path d="M11.5221 35.2473C11.585 35.247 11.6479 35.2467 11.7127 35.2464C11.9248 35.2455 12.137 35.2451 12.3491 35.2446C12.5006 35.2441 12.6522 35.2435 12.8038 35.2429C13.3026 35.2411 13.8015 35.2401 14.3003 35.2391C14.4718 35.2388 14.6434 35.2384 14.8149 35.238C15.5282 35.2365 16.2415 35.2353 16.9548 35.2345C17.14 35.2343 17.3251 35.2341 17.5103 35.2339C17.5563 35.2338 17.6023 35.2338 17.6497 35.2337C18.3952 35.2329 19.1406 35.2306 19.8861 35.2277C20.6513 35.2248 21.4165 35.2233 22.1817 35.2229C22.6114 35.2226 23.0411 35.2218 23.4708 35.2196C23.875 35.2175 24.2792 35.2171 24.6834 35.2179C24.8318 35.2179 24.9802 35.2174 25.1287 35.2162C25.3312 35.2146 25.5336 35.2152 25.7362 35.2163C25.8244 35.2148 25.8244 35.2148 25.9144 35.2134C26.2012 35.2172 26.3846 35.2394 26.6127 35.4216C26.7812 35.5996 26.7812 35.5996 26.8309 35.7556C26.815 36.1039 26.7781 36.3095 26.5078 36.5566C26.2491 36.6429 26.005 36.6379 25.7353 36.6406C25.6767 36.6414 25.6181 36.6422 25.5577 36.6431C25.3606 36.6458 25.1636 36.648 24.9665 36.6501C24.8254 36.6519 24.6844 36.6537 24.5434 36.6555C23.2536 36.6713 21.9638 36.6802 20.6739 36.6873C19.8071 36.6922 18.9403 36.6991 18.0735 36.7113C17.317 36.7219 16.5606 36.7286 15.804 36.7307C15.4038 36.7319 15.0039 36.735 14.6038 36.7427C14.2266 36.7499 13.8498 36.7519 13.4725 36.75C13.3348 36.7502 13.1971 36.7522 13.0595 36.7563C12.4554 36.7734 11.9578 36.777 11.4777 36.3731C11.2014 36.1115 10.9519 35.8303 10.7168 35.5313C10.7394 35.4636 10.7619 35.3959 10.7852 35.3262C11.0136 35.2119 11.2708 35.2474 11.5221 35.2473Z" fill="#126972"/>
<path d="M15.2735 32.308C15.3445 32.3075 15.3445 32.3075 15.4169 32.3071C15.5763 32.3062 15.7357 32.3057 15.895 32.3053C16.009 32.3048 16.1229 32.3042 16.2369 32.3036C16.6118 32.3018 16.9867 32.3008 17.3616 32.2998C17.4906 32.2994 17.6195 32.2991 17.7484 32.2987C18.2847 32.2972 18.821 32.2959 19.3573 32.2952C20.1264 32.2941 20.8956 32.2918 21.6647 32.2879C22.2052 32.2853 22.7457 32.2839 23.2862 32.2836C23.6092 32.2833 23.9321 32.2825 24.2551 32.2803C24.5589 32.2782 24.8627 32.2778 25.1666 32.2786C25.2781 32.2786 25.3896 32.278 25.5012 32.2768C25.6535 32.2753 25.8056 32.2758 25.9579 32.2769C26.0431 32.2767 26.1283 32.2765 26.2161 32.2762C26.5006 32.3301 26.6017 32.4381 26.781 32.6603C26.8428 32.8725 26.8308 33.0608 26.781 33.2755C26.6319 33.4639 26.5164 33.5788 26.3025 33.6857C26.1536 33.6929 26.0045 33.6955 25.8555 33.6962C25.7858 33.6967 25.7858 33.6967 25.7147 33.6971C25.5583 33.698 25.4019 33.6984 25.2456 33.6989C25.1337 33.6994 25.0219 33.7 24.9101 33.7006C24.5422 33.7024 24.1743 33.7034 23.8063 33.7044C23.6798 33.7047 23.5532 33.7051 23.4266 33.7055C22.9001 33.707 22.3736 33.7082 21.8472 33.709C21.0923 33.7101 20.3374 33.7124 19.5825 33.7163C19.052 33.7189 18.5214 33.7203 17.9908 33.7206C17.6738 33.7209 17.3569 33.7217 17.0399 33.7239C16.7416 33.726 16.4434 33.7264 16.1451 33.7256C16.0357 33.7256 15.9263 33.7261 15.8169 33.7273C15.6673 33.7289 15.5179 33.7283 15.3683 33.7272C15.2847 33.7275 15.2011 33.7277 15.1149 33.7279C14.8087 33.6713 14.6958 33.5621 14.4764 33.3439C14.3911 33.1381 14.3828 32.9495 14.408 32.7287C14.6479 32.3315 14.8299 32.31 15.2735 32.308Z" fill="#136A73"/>
<path d="M15.3344 25.1994C15.4041 25.1991 15.4041 25.1991 15.4753 25.1988C15.6318 25.1982 15.7884 25.1981 15.9449 25.198C16.0568 25.1976 16.1688 25.1973 16.2807 25.1969C16.5854 25.196 16.89 25.1956 17.1947 25.1953C17.3849 25.1951 17.5752 25.1948 17.7654 25.1945C18.3604 25.1936 18.9554 25.1929 19.5504 25.1926C20.2377 25.1923 20.9249 25.1911 21.6122 25.1891C22.1432 25.1877 22.6741 25.187 23.205 25.1869C23.5222 25.1868 23.8395 25.1864 24.1567 25.1852C24.4551 25.1841 24.7536 25.1839 25.052 25.1845C25.1616 25.1846 25.2711 25.1843 25.3806 25.1836C25.5302 25.1827 25.6797 25.1831 25.8293 25.1838C25.9548 25.1837 25.9548 25.1837 26.0829 25.1835C26.3254 25.2116 26.4514 25.2673 26.6447 25.414C26.7812 25.6189 26.8059 25.6834 26.8156 25.9182C26.8191 25.9695 26.8226 26.0208 26.8262 26.0736C26.7576 26.3195 26.5816 26.4471 26.3712 26.5762C26.1413 26.6192 26.1413 26.6192 25.8856 26.6196C25.8383 26.6201 25.791 26.6206 25.7423 26.6212C25.5847 26.6225 25.4272 26.6215 25.2696 26.6204C25.1563 26.6208 25.0429 26.6215 24.9296 26.6222C24.6224 26.6238 24.3153 26.6231 24.0081 26.6221C23.6864 26.6212 23.3648 26.622 23.0432 26.6225C22.5032 26.6232 21.9632 26.6223 21.4232 26.6207C20.7989 26.6189 20.1747 26.6195 19.5505 26.6213C19.0143 26.6229 18.4782 26.6231 17.942 26.6222C17.6219 26.6217 17.3018 26.6216 16.9816 26.6227C16.6807 26.6237 16.3798 26.623 16.0789 26.6211C15.9685 26.6206 15.858 26.6207 15.7476 26.6215C15.5968 26.6224 15.4462 26.6213 15.2954 26.6196C15.2111 26.6194 15.1267 26.6193 15.0398 26.6192C14.7575 26.5643 14.6568 26.4533 14.4767 26.2344C14.3775 26.0359 14.3829 25.9081 14.4083 25.6875C14.6618 25.2779 14.8686 25.2005 15.3344 25.1994Z" fill="#126972"/>
<path d="M33.5618 34.698C33.7528 34.7993 33.9322 34.9103 34.0958 35.0527C34.312 34.9489 34.5152 34.8297 34.7193 34.7042C35.1692 34.4881 35.8147 34.4831 36.2785 34.6433C36.447 34.7265 36.6046 34.8132 36.7618 34.9159C36.8378 34.9654 36.8378 34.9654 36.9154 35.0158C37.0353 35.121 37.0353 35.121 37.0695 35.3475C36.9988 36.5878 36.2825 37.4191 35.463 38.2655C35.4264 38.2148 35.3897 38.164 35.3519 38.1117C35.1469 37.8743 34.9573 37.6825 34.6379 37.6247C34.479 37.6136 34.3234 37.613 34.1642 37.6161C34.1108 37.6151 34.0574 37.614 34.0024 37.6129C33.5492 37.616 33.3064 37.7649 32.9764 38.0776C32.9398 38.117 32.9031 38.1565 32.8654 38.1972C32.0393 37.4414 31.3904 36.5839 31.3145 35.4329C31.3258 35.0983 31.3258 35.0983 31.457 34.9301C31.5822 34.8369 31.6967 34.7724 31.84 34.7109C31.8915 34.6862 31.9431 34.6615 31.9962 34.6361C32.4719 34.4773 33.1015 34.4982 33.5618 34.698Z" fill="#FED2D1"/>
<path d="M7.43562 16.3906C7.45818 16.3906 7.48073 16.3906 7.50398 16.3906C7.50398 21.0828 7.50398 25.775 7.50398 30.6094C7.25577 30.2784 7.14222 29.9538 7.0041 29.5669C6.97703 29.4911 6.94997 29.4154 6.92209 29.3373C6.50754 28.1493 6.22854 26.935 6.06843 25.6875C6.05947 25.6191 6.05947 25.6191 6.05034 25.5493C6.00274 25.1585 5.98814 24.773 5.98618 24.3796C5.9857 24.3149 5.98522 24.2502 5.98472 24.1836C5.96914 21.4823 5.96914 21.4823 6.20515 20.3555C6.21873 20.2888 6.23231 20.2222 6.2463 20.1535C6.51517 18.8682 6.87888 17.5828 7.43562 16.3906Z" fill="#F45F5F"/>
<path d="M22.6797 18.2365C23.0606 18.5202 23.1485 18.8871 23.2778 19.3302C23.2985 19.3975 23.3192 19.4649 23.3406 19.5342C23.4304 19.8295 23.5114 20.1205 23.5684 20.424C23.6887 20.1067 23.8052 19.7897 23.9102 19.4669C23.9489 19.4778 23.9876 19.4886 24.0274 19.4998C24.186 19.5358 24.3322 19.5493 24.4944 19.5569C24.5521 19.5598 24.6099 19.5627 24.6693 19.5656C24.7588 19.5696 24.7588 19.5696 24.8501 19.5737C24.9412 19.5782 24.9412 19.5782 25.0341 19.5827C25.1835 19.5899 25.333 19.5969 25.4824 19.6037C25.597 20.1075 25.6997 20.6132 25.7986 21.1204C25.8143 21.1989 25.83 21.2775 25.8461 21.3584C25.8609 21.4345 25.8757 21.5106 25.891 21.589C25.9111 21.6916 25.9111 21.6916 25.9317 21.7963C26.01 22.3319 26.01 22.3319 25.8541 22.5687C25.6274 22.7199 25.4763 22.709 25.209 22.6798C24.9621 22.5153 24.9615 22.4559 24.8971 22.1757C24.8804 22.1029 24.8636 22.0301 24.8464 21.9551C24.7749 21.6057 24.7152 21.2551 24.6621 20.9025C24.555 21.173 24.4578 21.4418 24.3793 21.722C24.3654 21.7705 24.3514 21.819 24.3371 21.869C24.3091 21.967 24.2822 22.0652 24.2564 22.1638C24.1891 22.3967 24.1389 22.5245 23.9459 22.6761C23.7259 22.7681 23.5992 22.7924 23.3633 22.7482C23.0116 22.4143 22.9135 22.056 22.795 21.5946C22.777 21.528 22.759 21.4614 22.7404 21.3927C22.6964 21.2296 22.6534 21.0662 22.6113 20.9025C22.5798 21.0249 22.5485 21.1474 22.5173 21.2699C22.4983 21.3446 22.4793 21.4192 22.4597 21.4961C22.4127 21.6954 22.3781 21.8923 22.3464 22.0945C22.3001 22.33 22.2601 22.4197 22.1157 22.6243C21.9277 22.7482 21.9277 22.7482 21.7184 22.7567C21.4594 22.6575 21.3728 22.5851 21.2441 22.338C21.2446 22.2088 21.2446 22.2088 21.2644 22.0627C21.2716 22.0081 21.2789 21.9534 21.2863 21.8972C21.3624 21.3905 21.4484 20.8857 21.5363 20.3809C21.5609 20.2383 21.5851 20.0956 21.6089 19.9529C21.6434 19.7455 21.6793 19.5384 21.7154 19.3313C21.7258 19.2677 21.7361 19.2041 21.7468 19.1386C21.809 18.7924 21.8715 18.5587 22.1328 18.3048C22.3303 18.2061 22.4607 18.2107 22.6797 18.2365Z" fill="#B683F1"/>
<path d="M33.2756 9.14429C33.4521 9.29399 33.5821 9.41556 33.6857 9.62281C33.693 9.76618 33.6959 9.90978 33.6967 10.0533C33.6972 10.1196 33.6972 10.1196 33.6978 10.1871C33.6988 10.3334 33.6992 10.4797 33.6996 10.626C33.7 10.7277 33.7004 10.8294 33.7008 10.931C33.7015 11.1444 33.7019 11.3578 33.7021 11.5712C33.7025 11.8442 33.7042 12.1173 33.7061 12.3904C33.7074 12.6005 33.7077 12.8106 33.7078 13.0208C33.708 13.1214 33.7086 13.2221 33.7095 13.3227C33.7107 13.4638 33.7105 13.6048 33.7101 13.7458C33.7105 13.8661 33.7105 13.8661 33.7108 13.9888C33.6828 14.2279 33.6248 14.3536 33.4806 14.5447C33.2646 14.6887 33.2101 14.6989 32.9628 14.7013C32.8996 14.7021 32.8364 14.703 32.7712 14.7039C32.7031 14.7041 32.6349 14.7042 32.5647 14.7044C32.4945 14.7048 32.4243 14.7053 32.352 14.7057C32.2034 14.7064 32.0548 14.7068 31.9062 14.7067C31.679 14.707 31.4519 14.7095 31.2248 14.7121C31.0804 14.7125 30.936 14.7128 30.7917 14.7129C30.7238 14.7139 30.6559 14.7149 30.586 14.7159C30.2851 14.7139 30.1114 14.7111 29.85 14.5519C29.7099 14.3958 29.6664 14.3155 29.644 14.1089C29.6367 14.059 29.6295 14.0091 29.6221 13.9578C29.668 13.7086 29.8016 13.5393 29.9943 13.3826C30.1949 13.3455 30.3373 13.3339 30.5361 13.3425C30.6128 13.3434 30.6128 13.3434 30.691 13.3443C30.8533 13.3466 31.0155 13.3517 31.1778 13.3569C31.2882 13.359 31.3986 13.3609 31.509 13.3625C31.779 13.3671 32.0487 13.3741 32.3185 13.3826C32.3174 13.3105 32.3174 13.3105 32.3162 13.2369C32.3094 12.7834 32.3042 12.3298 32.3008 11.8762C32.299 11.643 32.2966 11.4098 32.2927 11.1766C32.2883 10.9084 32.2867 10.6401 32.2851 10.3718C32.2834 10.2884 32.2816 10.2049 32.2798 10.1189C32.2796 9.47379 32.2796 9.47379 32.483 9.2641C32.7829 9.0615 32.917 9.0592 33.2756 9.14429Z" fill="#156B74"/>
<path d="M19.33 18.2361C19.6472 18.4344 19.7635 18.6647 19.8852 19.0062C19.9034 19.0548 19.9217 19.1034 19.9405 19.1535C19.9986 19.3088 20.0553 19.4645 20.1119 19.6204C20.1496 19.7219 20.1873 19.8234 20.2252 19.9248C20.3006 20.1269 20.375 20.3294 20.4488 20.5321C20.5228 20.7342 20.5999 20.9346 20.6799 21.1343C20.699 21.1827 20.7181 21.2312 20.7378 21.2811C20.7736 21.3718 20.8102 21.4622 20.8476 21.5523C20.9749 21.8771 20.9951 22.1312 20.9706 22.4744C20.8596 22.6453 20.8596 22.6453 20.6972 22.7478C20.4921 22.782 20.4921 22.782 20.287 22.7478C20.0604 22.5778 19.9596 22.4013 19.8769 22.1326C19.8769 22.0649 19.8769 21.9972 19.8769 21.9275C19.3806 21.9275 18.8843 21.9275 18.373 21.9275C18.3504 22.0629 18.3279 22.1982 18.3046 22.3377C18.2162 22.5649 18.1751 22.6063 17.9628 22.7478C17.7209 22.7787 17.5982 22.7766 17.3903 22.6453C17.2358 22.4076 17.2458 22.2003 17.2792 21.9275C17.3485 21.6732 17.4423 21.4307 17.5388 21.1857C17.5654 21.1161 17.5921 21.0466 17.6196 20.9749C17.6759 20.8284 17.7327 20.6822 17.7899 20.5361C17.8771 20.3131 17.9628 20.0897 18.0483 19.866C18.1034 19.7234 18.1586 19.5808 18.2138 19.4383C18.2393 19.3718 18.2648 19.3054 18.2911 19.2369C18.7091 18.1752 18.7091 18.1752 19.33 18.2361Z" fill="#B683F1"/>
<path d="M14.2289 18.2236C14.7528 18.3952 15.0124 18.9533 15.297 19.3985C15.5113 19.1957 15.682 18.981 15.8525 18.7406C16.1041 18.3864 16.1041 18.3864 16.2541 18.2364C16.5297 18.1935 16.6344 18.2155 16.865 18.3774C17.006 18.5782 17.006 18.5782 17.0092 18.791C16.9349 19.2071 16.6068 19.5237 16.3495 19.8431C16.3093 19.8954 16.2691 19.9476 16.2276 20.0015C16.1714 20.0715 16.1714 20.0715 16.114 20.143C16.0305 20.2882 16.0305 20.2882 16.0923 20.4562C16.1868 20.631 16.2891 20.7857 16.4084 20.9446C16.4512 21.003 16.4939 21.0615 16.5379 21.1217C16.6278 21.2432 16.7182 21.3642 16.8092 21.4848C17.1722 21.9846 17.1722 21.9846 17.1809 22.268C17.1427 22.4747 17.1427 22.4747 17.0018 22.6456C16.7307 22.784 16.6139 22.7652 16.3224 22.6798C16.1516 22.5197 16.0258 22.3349 15.8952 22.1414C15.8252 22.0418 15.755 21.9423 15.6848 21.8429C15.6545 21.7986 15.6243 21.7543 15.5931 21.7086C15.5031 21.5873 15.4065 21.4848 15.297 21.3809C15.2712 21.4175 15.2454 21.4541 15.2187 21.4917C15.1014 21.6573 14.9835 21.8225 14.8655 21.9876C14.8045 22.0739 14.8045 22.0739 14.7423 22.162C14.6831 22.2446 14.6831 22.2446 14.6228 22.3289C14.5866 22.3797 14.5505 22.4306 14.5132 22.4829C14.3604 22.6702 14.2415 22.7424 14.0025 22.778C13.7931 22.7481 13.7931 22.7481 13.6308 22.6029C13.4939 22.3607 13.4793 22.2721 13.5197 21.9962C13.6441 21.7734 13.7961 21.5745 13.9512 21.3724C13.9919 21.3178 14.0326 21.2633 14.0745 21.2071C14.3801 20.798 14.3801 20.798 14.5286 20.6285C14.6274 20.4996 14.6274 20.4996 14.6037 20.3559C14.5374 20.2009 14.4577 20.0765 14.359 19.9398C14.3222 19.8873 14.2854 19.8348 14.2475 19.7808C14.1699 19.6716 14.0917 19.5628 14.013 19.4545C13.788 19.1311 13.6626 18.9188 13.7248 18.5098C13.8739 18.2713 13.9473 18.2392 14.2289 18.2236Z" fill="#B682F1"/>
<path d="M29.9257 9.07617C29.9257 9.34712 29.7964 9.48969 29.648 9.70422C28.5401 11.3772 28.1454 13.4928 28.5093 15.465C28.5648 15.7297 28.6281 15.9919 28.6953 16.2539C28.71 16.3191 28.7247 16.3843 28.7399 16.4515C28.9509 17.2848 29.4495 18.0792 29.9257 18.7832C29.9709 18.8509 30.016 18.9186 30.0625 18.9883C29.0331 18.6316 28.2263 17.5206 27.7382 16.5957C27.0328 15.08 27.0071 13.4977 27.5398 11.9318C27.9847 10.7646 28.8686 9.73686 29.9257 9.07617Z" fill="#E2E3E3"/>
<path d="M11.4263 18.2682C11.5105 18.2678 11.5947 18.2675 11.6815 18.2671C11.8132 18.2687 11.8132 18.2687 11.9475 18.2703C12.0353 18.2692 12.123 18.2682 12.2135 18.2671C12.2977 18.2674 12.382 18.2678 12.4687 18.2682C12.5843 18.2686 12.5843 18.2686 12.7021 18.2691C12.9478 18.312 13.0285 18.3816 13.178 18.5779C13.2164 18.7787 13.2164 18.7787 13.178 18.9881C13.0419 19.1685 12.9349 19.3092 12.7056 19.3573C12.5583 19.3635 12.4151 19.3598 12.2679 19.3512C12.2173 19.3497 12.1667 19.3481 12.1145 19.3466C11.9904 19.3426 11.8664 19.3364 11.7424 19.3299C11.7424 19.5555 11.7424 19.781 11.7424 20.0135C11.8125 20.0095 11.8825 20.0055 11.9547 20.0014C12.0477 19.9982 12.1407 19.9951 12.2338 19.9921C12.2798 19.9892 12.3258 19.9864 12.3733 19.9834C12.6448 19.9768 12.7551 20.0033 12.9697 20.1747C13.1096 20.3553 13.1096 20.3553 13.1481 20.5304C13.098 20.7475 13.0061 20.8305 12.8362 20.9705C12.6309 21.0731 12.4403 21.0452 12.2124 21.0431C12.1248 21.0425 12.0372 21.0419 11.947 21.0413C11.8795 21.0405 11.812 21.0397 11.7424 21.0388C11.7424 21.2644 11.7424 21.49 11.7424 21.7224C11.8174 21.7193 11.8924 21.7161 11.9697 21.7128C12.0691 21.7103 12.1685 21.7078 12.2679 21.7054C12.3172 21.7031 12.3665 21.7008 12.4173 21.6984C12.6805 21.6936 12.8086 21.7058 13.0399 21.8453C13.178 21.9959 13.178 21.9959 13.2207 22.2351C13.178 22.4744 13.178 22.4744 13.03 22.6236C12.693 22.8396 12.3372 22.7899 11.9475 22.7863C11.8671 22.7879 11.7868 22.7895 11.704 22.7912C11.6264 22.7911 11.5489 22.791 11.469 22.7908C11.3632 22.7909 11.3632 22.7909 11.2554 22.791C10.9678 22.7278 10.8814 22.6528 10.717 22.406C10.6671 22.1189 10.6708 21.8357 10.674 21.5449C10.6739 21.461 10.6737 21.3772 10.6735 21.2908C10.6736 21.1138 10.6745 20.9367 10.6762 20.7597C10.6786 20.4884 10.6776 20.2173 10.6763 19.946C10.6768 19.774 10.6774 19.602 10.6783 19.43C10.678 19.3487 10.6776 19.2675 10.6773 19.1838C10.6784 19.1083 10.6795 19.0327 10.6806 18.9549C10.681 18.8886 10.6814 18.8222 10.6819 18.7538C10.7652 18.337 11.0425 18.2697 11.4263 18.2682Z" fill="#B582F1"/>
<path d="M32.7158 34.5657C32.7869 34.5666 32.7869 34.5666 32.8593 34.5676C32.9753 34.5692 33.0912 34.5716 33.2072 34.5742C33.3245 34.9585 33.4413 35.3429 33.5576 35.7275C33.5973 35.8583 33.6371 35.989 33.677 36.1197C33.7344 36.3076 33.7912 36.4957 33.848 36.6838C33.866 36.7422 33.8839 36.8006 33.9024 36.8607C33.927 36.9428 33.927 36.9428 33.9522 37.0266C33.974 37.0985 33.974 37.0985 33.9963 37.1719C34.0275 37.3086 34.0275 37.3086 34.0275 37.582C33.9668 37.5921 33.9668 37.5921 33.9049 37.6023C33.4388 37.6905 33.1972 37.8645 32.8654 38.1973C32.0393 37.4415 31.3904 36.584 31.3145 35.433C31.3258 35.0984 31.3258 35.0984 31.457 34.9302C31.5822 34.837 31.6967 34.7725 31.84 34.711C31.9123 34.6755 31.9123 34.6755 31.9861 34.6394C32.2319 34.5575 32.4602 34.5593 32.7158 34.5657Z" fill="#FEBFBF"/>
<path d="M12.1951 24.9057C12.5048 25.0586 12.7135 25.2212 12.836 25.5508C12.8932 25.9266 12.9011 26.2996 12.7249 26.6446C12.5018 26.9264 12.2454 27.147 11.879 27.1914C11.5063 27.2344 11.2825 27.1683 10.9812 26.9597C10.7206 26.735 10.5515 26.489 10.4792 26.15C10.4563 25.801 10.5418 25.5477 10.743 25.2635C11.1621 24.7978 11.6061 24.6818 12.1951 24.9057Z" fill="#8DCC5C"/>
<path d="M12.2036 31.9852C12.4978 32.1549 12.682 32.3524 12.836 32.6603C12.8706 33.04 12.8881 33.3725 12.7206 33.7198C12.4077 34.0581 12.1612 34.2391 11.6952 34.2582C11.3146 34.2532 11.0659 34.1463 10.7852 33.8907C10.5334 33.6041 10.4699 33.3195 10.4904 32.9428C10.5509 32.5294 10.7759 32.3115 11.0845 32.0586C11.4204 31.8101 11.8218 31.8707 12.2036 31.9852Z" fill="#8DCC5B"/>
<path d="M19.125 40.4531C22.0125 40.4531 24.9 40.4531 27.875 40.4531C27.5621 40.6096 27.2805 40.6634 26.9393 40.7266C26.8818 40.7378 26.8243 40.7491 26.7651 40.7607C25.6838 40.9647 24.624 41.0255 23.5256 41.0214C23.4263 41.0212 23.4263 41.0212 23.325 41.0211C22.3452 41.0183 21.3877 40.9854 20.4238 40.7949C20.3615 40.7829 20.2993 40.7708 20.2351 40.7584C19.8636 40.6854 19.494 40.6063 19.125 40.5215C19.125 40.4989 19.125 40.4764 19.125 40.4531Z" fill="#F45F5F"/>
<path d="M34.1469 37.5609C34.2015 37.5589 34.2561 37.5569 34.3124 37.5549C34.6857 37.5509 34.8922 37.6096 35.1894 37.8557C35.3218 37.9924 35.3218 37.9924 35.3944 38.1291C35.3587 38.4282 35.1963 38.5422 34.9717 38.7219C34.6163 38.9818 34.2512 39.0024 33.8222 38.9494C33.4628 38.834 33.1625 38.6371 32.9335 38.3342C32.9207 38.1633 32.9207 38.1633 33.0019 37.9924C33.3629 37.6209 33.6449 37.5668 34.1469 37.5609Z" fill="#0C5A67"/>
<path d="M34.0957 37.5822C34.4406 37.5577 34.7008 37.5423 35.0143 37.7019C35.3016 37.9541 35.3016 37.9541 35.3945 38.1291C35.3662 38.3628 35.2857 38.4666 35.1083 38.6162C35.0692 38.6502 35.0302 38.6842 34.99 38.7193C34.8145 38.8345 34.6379 38.8899 34.4375 38.9494C34.3802 38.7601 34.3233 38.5707 34.2666 38.3812C34.2503 38.3275 34.234 38.2738 34.2172 38.2184C34.2018 38.1667 34.1864 38.1149 34.1705 38.0616C34.1562 38.0139 34.1418 37.9663 34.1271 37.9173C34.0957 37.7873 34.0957 37.7873 34.0957 37.5822Z" fill="#176B74"/>
<path d="M19.125 20.082C19.3155 20.3677 19.3984 20.556 19.3984 20.9023C19.218 20.9023 19.0375 20.9023 18.8516 20.9023C18.8887 20.5903 18.9742 20.3573 19.125 20.082Z" fill="#E7E0EF"/>
</g>
<defs>
<clipPath id="clip0_1531_1772">
<rect width="35" height="35" fill="white" transform="translate(6 6)"/>
</clipPath>
</defs>
</svg>
