<svg width="59" height="59" viewBox="0 0 59 59" fill="none" xmlns="http://www.w3.org/2000/svg">
<circle cx="29.5" cy="29.5" r="29.5" fill="#F4F7FE"/>
<g clip-path="url(#clip0_1531_1772)">
<path d="M28.8489 7.34863C28.9346 7.34881 29.0203 7.34899 29.1087 7.34918C31.3108 7.35665 33.4078 7.62512 35.5013 8.34511C35.8365 8.41217 36.121 8.3067 36.4275 8.17411C38.6238 7.2523 41.1173 6.99558 43.422 7.71099C43.4795 7.72855 43.5371 7.74611 43.5964 7.7642C44.8868 8.17165 46.0235 8.831 47.035 9.72759C47.0984 9.77893 47.1618 9.83027 47.227 9.88317C49.0224 11.3714 50.0644 13.6767 50.396 15.9454C50.4988 17.8171 50.4085 19.5293 49.595 21.2447C49.3658 21.7557 49.3887 22.0573 49.5558 22.5834C49.5958 22.7362 49.635 22.8892 49.6736 23.0423C49.705 23.1629 49.705 23.1629 49.7371 23.286C49.9866 24.2502 50.1854 25.2086 50.312 26.1965C50.323 26.2809 50.323 26.2809 50.3341 26.3669C50.3917 26.842 50.4119 27.3111 50.4161 27.7894C50.4169 27.8677 50.4177 27.9461 50.4186 28.0269C50.4331 29.7676 50.4216 31.4598 50.0599 33.1706C50.0415 33.2581 50.023 33.3457 50.004 33.4359C49.3593 36.3916 48.1218 39.138 46.3481 41.5872C46.3097 41.6402 46.2713 41.6932 46.2318 41.7479C46.1475 41.8602 46.0602 41.9702 45.9707 42.0784C45.6673 42.4517 45.5486 42.6828 45.5541 43.1801C45.4988 44.918 44.6193 46.0389 43.422 47.2028C42.8898 47.6848 42.5281 47.9173 41.7891 47.9019C41.3506 47.8472 41.0175 47.6584 40.7122 47.3446C40.6394 47.2744 40.6394 47.2744 40.5651 47.2028C40.2977 47.2387 40.0915 47.3528 39.8598 47.486C39.7873 47.527 39.7149 47.5679 39.6403 47.6101C39.5236 47.6762 39.5236 47.6762 39.4045 47.7437C38.2094 48.408 36.957 49.0157 35.6414 49.4028C35.428 49.4696 35.428 49.4696 35.1977 49.5981C34.9134 49.7341 34.6679 49.7906 34.3578 49.8443C34.3015 49.8542 34.2452 49.8641 34.1872 49.8743C34.0604 49.8964 33.9336 49.918 33.8067 49.9394C33.5657 49.9798 33.325 50.0216 33.0843 50.0632C32.9066 50.0936 32.7289 50.1239 32.5512 50.1541C32.4674 50.1685 32.3836 50.1828 32.2972 50.1976C32.175 50.218 32.175 50.218 32.0503 50.2388C31.9431 50.2569 31.9431 50.2569 31.8336 50.2753C31.1926 50.3653 30.5584 50.4094 29.9113 50.4128C29.8357 50.4134 29.76 50.414 29.682 50.4146C29.4393 50.416 29.1966 50.4166 28.9539 50.4167C28.8709 50.4168 28.788 50.4168 28.7025 50.4169C27.4849 50.4156 26.3027 50.3775 25.1045 50.1436C25.0291 50.1301 24.9538 50.1166 24.8761 50.1027C20.7851 49.3624 17.002 47.3926 14.0132 44.514C13.9578 44.4609 13.9024 44.4077 13.8453 44.353C13.0481 43.5846 12.3137 42.8034 11.6605 41.9092C11.5884 41.8125 11.5163 41.7158 11.4442 41.619C10.9369 40.9309 10.4846 40.2165 10.064 39.4725C10.0302 39.413 9.99642 39.3536 9.96161 39.2924C8.86714 37.3484 8.13202 35.2334 7.68505 33.0498C7.67267 32.9894 7.66029 32.929 7.64753 32.8667C7.39765 31.5521 7.34387 30.2519 7.34895 28.9168C7.34913 28.8313 7.34931 28.7458 7.3495 28.6576C7.35367 27.4301 7.37476 26.2258 7.62728 25.0202C7.64398 24.9382 7.66067 24.8563 7.67787 24.7719C7.97542 23.3495 8.32811 21.8357 8.98908 20.5337C9.20398 20.0636 9.1867 19.5896 9.187 19.0806C9.19161 17.9553 9.19161 17.9553 9.47584 17.5419C9.66586 17.3704 9.83559 17.236 10.064 17.1218C10.1143 17.1267 10.1645 17.1315 10.2163 17.1366C10.4556 17.1515 10.5972 17.1313 10.8202 17.0378C11.1043 16.7205 11.3274 16.3729 11.5577 16.0156C11.8129 15.6327 12.1182 15.2865 12.4167 14.9371C12.497 14.8427 12.497 14.8427 12.5789 14.7464C13.5718 13.6125 14.6422 12.5478 15.8617 11.6602C15.9584 11.5882 16.055 11.5162 16.1516 11.4442C16.8397 10.9367 17.5543 10.4843 18.2985 10.0637C18.3579 10.0299 18.4173 9.9961 18.4785 9.96128C20.6804 8.72162 23.1119 7.92091 25.6086 7.54294C25.7027 7.52804 25.7967 7.51314 25.8935 7.49779C26.8785 7.35651 27.8551 7.34486 28.8489 7.34863Z" fill="#EDECED"/>
<path d="M28.8485 7.34863C28.9342 7.34881 29.0199 7.34899 29.1083 7.34918C31.3104 7.35665 33.4074 7.62512 35.5009 8.34511C35.8361 8.41217 36.1206 8.3067 36.4271 8.17411C38.6234 7.2523 41.1169 6.99558 43.4215 7.71099C43.4791 7.72855 43.5367 7.74611 43.596 7.7642C44.8864 8.17165 46.0231 8.831 47.0346 9.72759C47.098 9.77893 47.1614 9.83027 47.2266 9.88317C49.022 11.3714 50.0639 13.6767 50.3956 15.9454C50.4983 17.8171 50.4081 19.5293 49.5946 21.2447C49.3654 21.7557 49.3883 22.0573 49.5554 22.5834C49.5954 22.7362 49.6346 22.8892 49.6732 23.0423C49.7046 23.1629 49.7046 23.1629 49.7367 23.286C49.9862 24.2502 50.1849 25.2086 50.3116 26.1965C50.3226 26.2809 50.3226 26.2809 50.3337 26.3669C50.3912 26.842 50.4115 27.3111 50.4157 27.7894C50.4165 27.8677 50.4173 27.9461 50.4181 28.0269C50.4326 29.7676 50.4212 31.4598 50.0595 33.1706C50.0411 33.2581 50.0226 33.3457 50.0036 33.4359C49.3589 36.3916 48.1214 39.138 46.3477 41.5872C46.3093 41.6402 46.2709 41.6932 46.2314 41.7479C46.1471 41.8602 46.0598 41.9702 45.9703 42.0784C45.6669 42.4517 45.5482 42.6828 45.5537 43.1801C45.4984 44.918 44.6189 46.0389 43.4215 47.2028C42.8893 47.6848 42.5277 47.9173 41.7886 47.9019C41.3502 47.8472 41.0171 47.6584 40.7117 47.3446C40.639 47.2744 40.639 47.2744 40.5647 47.2028C40.2973 47.2387 40.0911 47.3528 39.8593 47.486C39.7869 47.527 39.7145 47.5679 39.6398 47.6101C39.562 47.6542 39.4842 47.6983 39.4041 47.7437C38.7315 48.1179 38.0521 48.4572 37.3455 48.7625C37.2669 48.7965 37.1884 48.8305 37.1074 48.8655C35.7952 49.4221 35.7952 49.4221 35.4392 49.3034C35.4937 49.2124 35.5483 49.1213 35.6046 49.0275C35.8277 48.5777 35.8221 48.1621 35.8179 47.6677C35.8185 47.5722 35.819 47.4767 35.8195 47.3782C35.8209 47.0589 35.8198 46.7396 35.8188 46.4202C35.819 46.1909 35.8198 45.9616 35.8205 45.7324C35.822 45.1746 35.8217 44.6168 35.8207 44.0591C35.82 43.6054 35.8199 43.1517 35.8202 42.698C35.8203 42.6011 35.8203 42.6011 35.8204 42.5021C35.8205 42.3708 35.8206 42.2394 35.8207 42.108C35.8217 40.8767 35.8206 39.6454 35.8188 38.4141C35.8173 37.3593 35.8175 36.3045 35.8191 35.2496C35.8209 34.0233 35.8216 32.7969 35.8206 31.5706C35.8205 31.4396 35.8203 31.3086 35.8202 31.1776C35.8202 31.1131 35.8201 31.0487 35.8201 30.9823C35.8198 30.5297 35.8203 30.0772 35.8211 29.6247C35.822 29.0723 35.8218 28.52 35.82 27.9676C35.8191 27.6861 35.8189 27.4047 35.8199 27.1233C35.8258 25.1664 35.5877 23.8848 34.1767 22.4529C34.018 22.294 33.8585 22.1359 33.6989 21.9779C33.5866 21.8655 33.4743 21.7531 33.3621 21.6407C33.1281 21.4065 32.8934 21.1729 32.6583 20.9397C32.3585 20.6423 32.06 20.3436 31.762 20.0444C31.5307 19.8126 31.2989 19.5815 31.0669 19.3505C30.9566 19.2406 30.8466 19.1306 30.7367 19.0204C29.4333 17.7149 28.3469 17.1666 26.4802 17.1587C26.3253 17.1591 26.1704 17.1595 26.0154 17.16C25.8488 17.1592 25.6823 17.1583 25.5157 17.1573C25.0673 17.155 24.619 17.1547 24.1707 17.1548C23.7007 17.1545 23.2307 17.1524 22.7607 17.1504C21.8725 17.147 20.9843 17.1453 20.096 17.1442C19.084 17.1429 18.0721 17.1396 17.0601 17.1362C14.98 17.1293 12.8999 17.1248 10.8198 17.1218C10.913 16.9742 11.0063 16.8266 11.0997 16.6792C11.1517 16.597 11.2036 16.5148 11.2572 16.4302C11.4411 16.1464 11.6379 15.8784 11.8491 15.6146C11.9083 15.5403 11.9083 15.5403 11.9686 15.4645C12.3752 14.9593 12.8068 14.4798 13.2566 14.0129C13.3097 13.9575 13.3628 13.9021 13.4175 13.845C14.1859 13.0477 14.9671 12.3134 15.8613 11.6602C15.958 11.5881 16.0548 11.516 16.1515 11.4439C16.8396 10.9366 17.554 10.4843 18.2981 10.0637C18.3575 10.0299 18.4169 9.9961 18.4781 9.96128C20.68 8.72162 23.1115 7.92091 25.6082 7.54294C25.7022 7.52804 25.7963 7.51314 25.8931 7.49779C26.8781 7.35651 27.8546 7.34486 28.8485 7.34863Z" fill="#F36060"/>
<path d="M49.2196 21.9111C49.5115 22.203 49.5624 22.6234 49.6712 23.014C49.7103 23.1538 49.7103 23.1538 49.7502 23.2966C50.0083 24.2508 50.1838 25.2166 50.3119 26.1964C50.3191 26.2513 50.3263 26.3062 50.3337 26.3628C50.3918 26.8391 50.4118 27.3097 50.4159 27.7893C50.4172 27.9068 50.4172 27.9068 50.4184 28.0268C50.4329 29.7676 50.4215 31.4597 50.0598 33.1705C50.0414 33.258 50.0229 33.3456 50.0039 33.4358C49.3592 36.3916 48.1217 39.1379 46.3479 41.5871C46.3096 41.6401 46.2712 41.6932 46.2317 41.7478C46.1474 41.8601 46.0601 41.9701 45.9706 42.0783C45.6671 42.4516 45.5485 42.6827 45.554 43.18C45.4987 44.9179 44.6192 46.0389 43.4218 47.2027C42.8896 47.6847 42.5279 47.9172 41.7889 47.9018C41.3505 47.8471 41.0173 47.6583 40.712 47.3445C40.6635 47.2977 40.615 47.2509 40.565 47.2027C40.2976 47.2386 40.0913 47.3527 39.8596 47.4859C39.7872 47.5269 39.7147 47.5678 39.6401 47.61C39.5623 47.6541 39.4845 47.6982 39.4044 47.7436C38.7318 48.1178 38.0524 48.4571 37.3458 48.7624C37.2672 48.7964 37.1886 48.8304 37.1077 48.8654C35.7955 49.422 35.7955 49.422 35.4395 49.3033C35.494 49.2118 35.5486 49.1203 35.6048 49.0261C35.8249 48.5826 35.8228 48.1767 35.8192 47.689C35.8198 47.5958 35.8204 47.5026 35.8211 47.4065C35.8228 47.0951 35.8221 46.7837 35.8214 46.4722C35.8222 46.2486 35.823 46.025 35.8241 45.8014C35.826 45.3204 35.8267 44.8395 35.8267 44.3585C35.8265 43.6632 35.8282 42.9678 35.8304 42.2724C35.8338 41.1441 35.8358 40.0159 35.8368 38.8876C35.8378 37.7918 35.8395 36.696 35.8421 35.6002C35.8423 35.5327 35.8425 35.4651 35.8426 35.3954C35.8435 35.0563 35.8443 34.7173 35.8451 34.3782C35.8521 31.5669 35.8566 28.7556 35.8596 25.9443C35.9551 25.9844 36.0506 26.0245 36.149 26.0658C36.2769 26.1191 36.4048 26.1724 36.5328 26.2256C36.5954 26.252 36.658 26.2783 36.7225 26.3054C37.3806 26.5786 38.0816 26.8686 38.8005 26.8686C38.9256 26.7248 38.9256 26.7248 39.0263 26.5325C39.5401 25.7086 40.2966 25.1639 41.2372 24.936C42.5624 24.7868 43.5404 25.1372 44.5778 25.9601C44.64 26.0103 44.7022 26.0606 44.7662 26.1124C45.5955 25.6723 46.3274 25.2214 47.0349 24.5999C47.1216 24.5341 47.2082 24.4682 47.2975 24.4004C47.9237 23.8286 48.4116 23.1157 48.8835 22.4153C48.9384 22.3339 48.9384 22.3339 48.9944 22.2508C49.07 22.138 49.1449 22.0246 49.2196 21.9111Z" fill="#F8E364"/>
<path d="M44.6253 11.3996C46.1256 12.578 47.3256 14.1587 47.6016 16.0961C47.7764 18.3049 47.2946 20.2672 45.8584 21.9953C44.7827 23.253 43.0529 24.1755 41.4051 24.348C39.3407 24.4692 37.4291 23.998 35.8279 22.6202C34.414 21.3073 33.4935 19.6412 33.3958 17.6919C33.333 15.6005 33.9787 13.8102 35.4212 12.269C35.9398 11.7431 36.472 11.344 37.1198 10.988C37.1864 10.9507 37.253 10.9135 37.3216 10.8751C39.6012 9.66328 42.5343 9.90152 44.6253 11.3996Z" fill="#F2F3F3"/>
<path d="M40.5017 7.33821C40.5581 7.33846 40.6145 7.33872 40.6726 7.33898C41.6223 7.34531 42.5128 7.42899 43.4215 7.71107C43.4791 7.72863 43.5367 7.74619 43.596 7.76428C44.8864 8.17173 46.0231 8.83107 47.0346 9.72767C47.098 9.77901 47.1613 9.83035 47.2266 9.88325C49.022 11.3715 50.0639 13.6767 50.3956 15.9455C50.5249 18.3009 50.3326 20.7532 48.7991 22.6675C48.6885 22.8231 48.5782 22.9789 48.4683 23.1349C47.4705 24.494 46.2052 25.482 44.6819 26.1966C44.6351 26.152 44.5883 26.1073 44.5401 26.0614C43.6485 25.236 42.7965 24.965 41.5927 24.9943C40.781 25.0378 40.1354 25.3851 39.5564 25.9445C39.2782 26.2642 39.035 26.6005 38.8002 26.9528C38.0794 26.9266 37.4437 26.6882 36.7786 26.4275C36.6408 26.3744 36.5011 26.3263 36.3611 26.2793C36.1415 26.1896 36.0134 26.1256 35.8593 25.9445C35.7821 25.6549 35.7529 25.3778 35.7277 25.0793C35.5862 23.8716 34.7468 23.0387 33.9101 22.2335C33.7826 22.1107 33.656 21.987 33.5296 21.8631C33.1708 21.5114 32.8115 21.1602 32.4495 20.8117C32.2267 20.5971 32.0056 20.3808 31.7855 20.1635C31.7021 20.0817 31.618 20.0005 31.5334 19.92C31.0037 19.4159 30.6875 19.0425 30.6497 18.2982C30.6421 18.2076 30.6345 18.117 30.6266 18.0236C30.6242 17.7615 30.6221 17.4996 30.6235 17.2374C30.6239 17.1411 30.6243 17.0449 30.6247 16.9457C30.6613 14.2847 31.8388 11.879 33.7096 10.0212C35.5682 8.26912 37.9566 7.31799 40.5017 7.33821ZM37.2877 10.904C37.1912 10.9518 37.1912 10.9518 37.0927 11.0005C36.5744 11.2696 36.132 11.6151 35.6912 11.9963C35.6341 12.0453 35.5771 12.0943 35.5183 12.1447C34.6269 12.9697 34.0508 14.0483 33.6746 15.1893C33.6461 15.2741 33.6176 15.3589 33.5883 15.4463C33.123 17.0953 33.3762 18.9837 34.1788 20.4829C34.2191 20.5627 34.2594 20.6425 34.3009 20.7248C35.1947 22.3888 36.7227 23.5001 38.488 24.1068C40.4233 24.6578 42.3364 24.3463 44.0937 23.4238C45.8476 22.392 46.9433 20.7936 47.4623 18.8595C47.4875 18.7575 47.5128 18.6554 47.5388 18.5503C47.5558 18.4846 47.5728 18.4188 47.5903 18.3511C47.8588 16.5256 47.4365 14.6601 46.3739 13.1543C45.2194 11.6515 43.7197 10.5773 41.8408 10.1951C40.2279 9.99596 38.7394 10.148 37.2877 10.904Z" fill="#136972"/>
<path d="M49.2194 21.9111C49.5113 22.203 49.5623 22.6234 49.6711 23.014C49.7102 23.1538 49.7102 23.1538 49.7501 23.2966C50.0082 24.2508 50.1837 25.2166 50.3118 26.1964C50.319 26.2513 50.3261 26.3062 50.3335 26.3628C50.3916 26.8391 50.4116 27.3097 50.4158 27.7893C50.4166 27.8676 50.4175 27.946 50.4183 28.0268C50.4328 29.7676 50.4214 31.4597 50.0597 33.1705C50.0412 33.258 50.0228 33.3456 50.0038 33.4358C49.3447 36.4574 48.0654 39.2574 46.2311 41.7454C46.1447 41.8627 46.0592 41.9808 45.9745 42.0993C45.9298 42.161 45.8851 42.2227 45.8391 42.2862C45.7985 42.3427 45.758 42.3992 45.7163 42.4573C45.68 42.4982 45.6437 42.5391 45.6064 42.5813C45.5509 42.5813 45.4955 42.5813 45.4383 42.5813C45.4382 42.5046 45.4381 42.4278 45.4379 42.3488C45.4348 40.4797 45.4299 38.6107 45.4229 36.7417C45.4195 35.8379 45.4168 34.934 45.4155 34.0302C45.4144 33.2422 45.4122 32.4542 45.4085 31.6663C45.4066 31.2492 45.4053 30.8322 45.4054 30.4151C45.4054 30.0221 45.4039 29.6292 45.4012 29.2362C45.4005 29.0924 45.4004 28.9486 45.4009 28.8047C45.4076 27.5935 45.4076 27.5935 44.8808 26.5265C44.7661 26.3645 44.7661 26.3645 44.7661 26.1124C44.8524 26.0666 44.9388 26.0208 45.0277 25.9735C45.7656 25.5747 46.403 25.1549 47.0348 24.5999C47.1214 24.5341 47.2081 24.4682 47.2974 24.4004C47.9236 23.8286 48.4115 23.1157 48.8833 22.4153C48.92 22.361 48.9566 22.3068 48.9943 22.2508C49.0699 22.138 49.1448 22.0246 49.2194 21.9111Z" fill="#F36160"/>
<path d="M35.8596 25.9443C35.9551 25.9845 36.0506 26.0247 36.149 26.0662C36.2769 26.1196 36.4048 26.1729 36.5328 26.2263C36.5954 26.2527 36.658 26.2791 36.7225 26.3064C37.2155 26.5113 37.7073 26.6654 38.2244 26.7994C38.4356 26.8603 38.6068 26.9358 38.8005 27.0367C38.7826 27.0856 38.7648 27.1346 38.7465 27.185C38.5011 27.9495 38.5128 28.6995 38.5158 29.4922C38.5154 29.6455 38.515 29.7988 38.5144 29.9522C38.5133 30.3662 38.5137 30.7802 38.5145 31.1943C38.5152 31.629 38.5146 32.0638 38.5142 32.4985C38.5137 33.2285 38.5143 33.9585 38.5155 34.6885C38.5169 35.5305 38.5164 36.3724 38.5151 37.2144C38.5139 37.9393 38.5138 38.6642 38.5144 39.3891C38.5148 39.8212 38.5149 40.2533 38.514 40.6853C38.5133 41.0918 38.5138 41.4982 38.5153 41.9046C38.5156 42.0531 38.5155 42.2016 38.5149 42.3501C38.5093 43.9937 38.8415 45.2076 39.9768 46.4465C40.1396 46.6 40.3012 46.7329 40.481 46.8666C40.5433 46.7869 40.6057 46.7071 40.67 46.625C40.8399 46.4079 40.9746 46.2856 41.2372 46.1944C41.4861 46.1661 41.7326 46.1633 41.9829 46.1629C42.0493 46.1608 42.1157 46.1588 42.1841 46.1566C42.6386 46.1544 42.8918 46.2322 43.2538 46.5305C43.4166 46.6985 43.4166 46.6985 43.5059 46.8666C43.462 47.2342 43.2624 47.3744 42.9863 47.5952C42.5498 47.9144 42.1002 47.9406 41.5733 47.8749C41.2252 47.7595 40.9677 47.6072 40.712 47.3445C40.6635 47.2977 40.615 47.2509 40.565 47.2027C40.2976 47.2386 40.0913 47.3527 39.8596 47.4859C39.7872 47.5269 39.7147 47.5678 39.6401 47.61C39.5623 47.6541 39.4845 47.6982 39.4044 47.7436C38.7318 48.1178 38.0524 48.4571 37.3458 48.7624C37.2672 48.7964 37.1886 48.8304 37.1077 48.8654C35.7955 49.422 35.7955 49.422 35.4395 49.3033C35.494 49.2118 35.5486 49.1203 35.6048 49.0261C35.8249 48.5826 35.8228 48.1767 35.8192 47.689C35.8198 47.5958 35.8204 47.5026 35.8211 47.4065C35.8228 47.0951 35.8221 46.7837 35.8214 46.4722C35.8222 46.2486 35.823 46.025 35.8241 45.8014C35.826 45.3204 35.8267 44.8395 35.8267 44.3585C35.8265 43.6632 35.8282 42.9678 35.8304 42.2724C35.8338 41.1441 35.8358 40.0159 35.8368 38.8876C35.8378 37.7918 35.8395 36.696 35.8421 35.6002C35.8423 35.5327 35.8425 35.4651 35.8426 35.3954C35.8435 35.0563 35.8443 34.7173 35.8451 34.3782C35.8521 31.5669 35.8566 28.7556 35.8596 25.9443Z" fill="#F36060"/>
<path d="M40.8172 25.1045C40.8172 30.872 40.8172 36.6395 40.8172 42.5817C40.9835 42.6094 41.1499 42.6372 41.3213 42.6657C41.5372 42.7872 41.7131 42.9327 41.9095 43.0859C42.1752 42.9583 42.425 42.8118 42.6759 42.6575C43.2289 42.3919 44.0223 42.3858 44.5924 42.5827C44.7994 42.685 44.9932 42.7915 45.1865 42.9178C45.2487 42.9583 45.311 42.9988 45.3752 43.0406C45.5226 43.1699 45.5226 43.1699 45.5646 43.4482C45.4777 44.9728 44.5973 45.9946 43.59 47.035C43.5224 46.9415 43.5224 46.9415 43.4534 46.846C43.2014 46.5542 42.9684 46.3184 42.5758 46.2473C42.3805 46.2337 42.1892 46.2329 41.9935 46.2368C41.9279 46.2355 41.8622 46.2342 41.7946 46.2329C41.2376 46.2366 40.9392 46.4197 40.5336 46.804C40.466 46.8768 40.466 46.8768 40.397 46.951C39.3939 46.0333 38.6913 45.0354 38.4645 43.674C38.4562 43.46 38.452 43.2483 38.4521 43.0343C38.4518 42.9706 38.4515 42.9068 38.4512 42.8412C38.4502 42.6279 38.4499 42.4146 38.4496 42.2013C38.4491 42.0482 38.4485 41.8951 38.4479 41.742C38.4461 41.2394 38.4453 40.7368 38.4444 40.2343C38.4441 40.0609 38.4438 39.8876 38.4434 39.7142C38.4418 38.8996 38.4406 38.0849 38.4399 37.2702C38.4391 36.3315 38.4369 35.3928 38.4335 34.454C38.4309 33.7275 38.4297 33.0009 38.4294 32.2743C38.4292 31.8408 38.4285 31.4074 38.4264 30.9739C38.4244 30.5656 38.424 30.1574 38.4249 29.7491C38.4249 29.5999 38.4244 29.4508 38.4233 29.3017C38.414 28.0338 38.5567 26.8772 39.4846 25.929C40.3758 25.1045 40.3758 25.1045 40.8172 25.1045Z" fill="#F6CC66"/>
<path d="M40.5542 7.34897C40.6675 7.34879 40.7809 7.34851 40.8942 7.34814C41.4826 7.35135 42.0134 7.38665 42.5813 7.54327C42.3366 7.70636 42.1163 7.78491 41.8376 7.87111C40.1631 8.38955 38.2703 9.31859 37.2824 10.834C37.1129 11.0823 37.0054 11.1658 36.7415 11.2981C35.1553 12.1976 34.1547 13.8162 33.6516 15.5309C33.2444 17.1773 33.464 18.9909 34.2628 20.4831C34.3031 20.563 34.3434 20.6428 34.3849 20.725C34.9456 21.7689 35.7236 22.547 36.7153 23.1801C37.0475 23.4048 37.2879 23.6724 37.5398 23.9807C38.1331 24.6632 38.875 25.2172 39.6404 25.6927C39.5242 25.9423 39.3882 26.1523 39.2203 26.3701C39.0731 26.5618 38.9344 26.7517 38.8002 26.9531C38.0794 26.9269 37.4437 26.6884 36.7786 26.4277C36.6408 26.3746 36.5011 26.3265 36.3611 26.2795C36.1415 26.1898 36.0134 26.1259 35.8593 25.9448C35.7821 25.6552 35.7529 25.3781 35.7277 25.0796C35.5862 23.8719 34.7468 23.0389 33.9101 22.2338C33.7826 22.1109 33.656 21.9873 33.5296 21.8634C33.1708 21.5116 32.8115 21.1604 32.4495 20.812C32.2267 20.5973 32.0056 20.3811 31.7855 20.1637C31.7021 20.0819 31.618 20.0008 31.5334 19.9203C31.0037 19.4162 30.6875 19.0428 30.6497 18.2985C30.6421 18.2079 30.6345 18.1172 30.6266 18.0239C30.6242 17.7618 30.6221 17.4998 30.6235 17.2377C30.6239 17.1414 30.6243 17.0451 30.6247 16.9459C30.6613 14.285 31.8388 11.8793 33.7096 10.0214C35.5907 8.24817 37.9832 7.3174 40.5542 7.34897Z" fill="#0B5966"/>
<path d="M14.2404 34.5866C14.317 34.5863 14.3937 34.586 14.4727 34.5856C14.7311 34.5847 14.9895 34.5844 15.2479 34.5841C15.4325 34.5836 15.6172 34.583 15.8018 34.5824C16.3046 34.5809 16.8073 34.5801 17.3101 34.5794C17.624 34.5789 17.9379 34.5784 18.2518 34.5779C19.177 34.5764 20.1022 34.5752 21.0274 34.5745C21.1968 34.5744 21.3661 34.5743 21.5355 34.5742C21.5915 34.5741 21.6476 34.5741 21.7054 34.574C22.6135 34.5733 23.5216 34.5712 24.4298 34.5685C25.362 34.5657 26.2942 34.5642 27.2264 34.5639C27.7499 34.5637 28.2733 34.563 28.7968 34.5608C29.2892 34.5589 29.7816 34.5585 30.2741 34.5594C30.4549 34.5594 30.6357 34.5589 30.8165 34.5578C31.0632 34.5563 31.3099 34.5569 31.5566 34.558C31.6283 34.557 31.6999 34.5561 31.7737 34.5552C32.222 34.56 32.4797 34.6359 32.8348 34.9351C32.9796 35.2247 32.9611 35.5426 32.9188 35.8593C32.7612 36.0695 32.6467 36.1635 32.4147 36.2795C32.1679 36.2884 31.9232 36.2922 31.6764 36.2924C31.5603 36.2929 31.5603 36.2929 31.4419 36.2935C31.1809 36.2946 30.92 36.2951 30.6591 36.2957C30.4726 36.2963 30.2862 36.297 30.0998 36.2977C29.4862 36.2999 28.8726 36.3012 28.259 36.3024C28.0481 36.3029 27.8372 36.3033 27.6262 36.3038C26.7491 36.3056 25.872 36.3072 24.9948 36.3081C24.7671 36.3084 24.5395 36.3086 24.3118 36.3089C24.2552 36.3089 24.1986 36.309 24.1403 36.3091C23.2235 36.3101 22.3066 36.3129 21.3897 36.3164C20.4487 36.32 19.5076 36.3219 18.5666 36.3224C18.0381 36.3227 17.5096 36.3237 16.9811 36.3264C16.4841 36.329 15.987 36.3295 15.49 36.3285C15.3074 36.3285 15.1248 36.3292 14.9422 36.3307C14.6932 36.3326 14.4443 36.3319 14.1953 36.3305C14.1228 36.3317 14.0502 36.3329 13.9755 36.3341C13.6077 36.3292 13.469 36.3147 13.1721 36.0767C12.9284 35.7599 12.8745 35.5887 12.9209 35.1871C13.2765 34.6125 13.6069 34.5865 14.2404 34.5866Z" fill="#136A73"/>
<path d="M14.1627 43.3249C14.24 43.3245 14.3173 43.3242 14.397 43.3238C14.6577 43.3227 14.9185 43.3221 15.1792 43.3216C15.3655 43.321 15.5518 43.3203 15.7381 43.3195C16.3513 43.3173 16.9644 43.316 17.5776 43.3148C17.7884 43.3144 17.9993 43.3139 18.2101 43.3135C19.0869 43.3117 19.9637 43.3101 20.8404 43.3092C21.068 43.3089 21.2956 43.3087 21.5232 43.3084C21.5797 43.3083 21.6363 43.3083 21.6946 43.3082C22.6109 43.3072 23.5271 43.3044 24.4434 43.3009C25.384 43.2973 26.3246 43.2954 27.2651 43.2949C27.7933 43.2946 28.3215 43.2936 28.8496 43.2908C29.3465 43.2883 29.8433 43.2878 30.3401 43.2888C30.5226 43.2888 30.705 43.2881 30.8874 43.2866C31.1364 43.2847 31.3852 43.2854 31.6342 43.2867C31.7426 43.285 31.7426 43.285 31.8533 43.2832C32.2058 43.2879 32.4312 43.3152 32.7116 43.5391C32.9187 43.758 32.9187 43.758 32.9798 43.9496C32.9602 44.3777 32.9149 44.6305 32.5826 44.9343C32.2646 45.0403 31.9646 45.0342 31.633 45.0375C31.561 45.0385 31.489 45.0395 31.4148 45.0406C31.1726 45.0439 30.9303 45.0465 30.6881 45.0492C30.5147 45.0514 30.3414 45.0536 30.168 45.0558C28.5827 45.0752 26.9972 45.0862 25.4118 45.0949C24.3463 45.1009 23.2809 45.1094 22.2155 45.1244C21.2856 45.1374 20.3558 45.1457 19.4259 45.1482C18.934 45.1497 18.4424 45.1535 17.9506 45.163C17.487 45.1719 17.0238 45.1743 16.5601 45.1719C16.3908 45.1722 16.2216 45.1747 16.0524 45.1797C15.3098 45.2008 14.6983 45.2051 14.1082 44.7087C13.7685 44.3871 13.4618 44.0415 13.1729 43.6739C13.2006 43.5907 13.2283 43.5076 13.2569 43.4219C13.5377 43.2814 13.8538 43.3251 14.1627 43.3249Z" fill="#126972"/>
<path d="M18.774 39.7118C18.8613 39.7113 18.8613 39.7113 18.9503 39.7107C19.1462 39.7096 19.3421 39.7091 19.538 39.7085C19.6781 39.7079 19.8181 39.7072 19.9582 39.7065C20.419 39.7043 20.8798 39.703 21.3407 39.7018C21.4992 39.7013 21.6576 39.7009 21.8161 39.7004C22.4753 39.6986 23.1345 39.697 23.7937 39.6961C24.7391 39.6947 25.6845 39.6919 26.6299 39.6871C27.2942 39.6839 27.9586 39.6822 28.623 39.6818C29.02 39.6815 29.4169 39.6805 29.8139 39.6778C30.1874 39.6752 30.5608 39.6747 30.9343 39.6757C31.0714 39.6757 31.2084 39.675 31.3455 39.6735C31.5327 39.6716 31.7197 39.6723 31.9069 39.6737C32.0116 39.6734 32.1164 39.6731 32.2243 39.6728C32.5739 39.739 32.6983 39.8717 32.9187 40.1449C32.9946 40.4057 32.9799 40.6372 32.9187 40.9011C32.7354 41.1326 32.5934 41.2738 32.3305 41.4052C32.1475 41.4141 31.9642 41.4173 31.781 41.4182C31.6954 41.4187 31.6954 41.4187 31.608 41.4193C31.4158 41.4204 31.2236 41.4209 31.0314 41.4215C30.8939 41.4221 30.7564 41.4228 30.619 41.4235C30.1668 41.4257 29.7145 41.427 29.2623 41.4282C29.1067 41.4287 28.9511 41.4291 28.7956 41.4296C28.1484 41.4314 27.5013 41.433 26.8541 41.4339C25.9263 41.4353 24.9984 41.4381 24.0705 41.4429C23.4184 41.4461 22.7662 41.4477 22.1141 41.4482C21.7244 41.4485 21.3348 41.4495 20.9452 41.4522C20.5786 41.4548 20.212 41.4553 19.8453 41.4543C19.7109 41.4543 19.5764 41.455 19.4419 41.4565C19.2581 41.4584 19.0744 41.4577 18.8906 41.4563C18.7878 41.4566 18.685 41.4569 18.5791 41.4572C18.2027 41.3875 18.0639 41.2534 17.7942 40.9851C17.6894 40.7322 17.6792 40.5004 17.7102 40.2289C18.0051 39.7408 18.2287 39.7143 18.774 39.7118Z" fill="#136A73"/>
<path d="M18.8486 30.9741C18.9343 30.9737 18.9343 30.9737 19.0217 30.9733C19.2141 30.9726 19.4066 30.9725 19.599 30.9723C19.7366 30.972 19.8742 30.9715 20.0117 30.9711C20.3862 30.97 20.7607 30.9694 21.1352 30.9691C21.369 30.9688 21.6029 30.9685 21.8367 30.9681C22.568 30.967 23.2994 30.9661 24.0307 30.9658C24.8755 30.9654 25.7203 30.964 26.5651 30.9615C27.2177 30.9597 27.8702 30.9589 28.5228 30.9588C28.9128 30.9587 29.3027 30.9582 29.6927 30.9567C30.0595 30.9553 30.4263 30.9551 30.7932 30.9558C30.9278 30.9559 31.0624 30.9555 31.1971 30.9547C31.3809 30.9536 31.5647 30.9541 31.7485 30.955C31.9028 30.9548 31.9028 30.9548 32.0603 30.9546C32.3583 30.9891 32.5132 31.0576 32.7508 31.238C32.9186 31.4898 32.949 31.5691 32.9608 31.8576C32.9652 31.9207 32.9695 31.9837 32.974 32.0487C32.8896 32.3509 32.6733 32.5078 32.4147 32.6664C32.132 32.7193 32.132 32.7193 31.8178 32.7197C31.7596 32.7204 31.7015 32.721 31.6416 32.7217C31.4479 32.7234 31.2543 32.7221 31.0606 32.7208C30.9213 32.7213 30.782 32.7221 30.6427 32.723C30.2651 32.7249 29.8875 32.7242 29.5099 32.7228C29.1146 32.7218 28.7193 32.7227 28.324 32.7234C27.6602 32.7242 26.9965 32.7232 26.3327 32.7212C25.5654 32.7189 24.7981 32.7196 24.0308 32.7219C23.3718 32.7238 22.7128 32.7241 22.0538 32.723C21.6603 32.7224 21.2668 32.7223 20.8733 32.7237C20.5034 32.7249 20.1335 32.724 19.7637 32.7216C19.6279 32.721 19.4922 32.7212 19.3565 32.7221C19.1711 32.7233 18.986 32.7218 18.8007 32.7197C18.697 32.7196 18.5933 32.7194 18.4865 32.7193C18.1394 32.6518 18.0157 32.5154 17.7943 32.2463C17.6723 32.0023 17.679 31.8452 17.7103 31.5741C18.0219 31.0706 18.2761 30.9755 18.8486 30.9741Z" fill="#126972"/>
<path d="M41.253 42.65C41.4879 42.7745 41.7083 42.9109 41.9095 43.0858C42.1753 42.9583 42.425 42.8117 42.6759 42.6575C43.2289 42.3919 44.0223 42.3858 44.5924 42.5827C44.7994 42.685 44.9932 42.7915 45.1865 42.9178C45.2799 42.9785 45.2799 42.9785 45.3752 43.0405C45.5226 43.1699 45.5226 43.1699 45.5646 43.4482C45.4777 44.9728 44.5973 45.9946 43.59 47.035C43.5449 46.9726 43.4999 46.9102 43.4535 46.846C43.2014 46.5541 42.9684 46.3184 42.5758 46.2473C42.3805 46.2337 42.1892 46.2329 41.9935 46.2368C41.9279 46.2355 41.8622 46.2342 41.7946 46.2328C41.2376 46.2366 40.9392 46.4197 40.5336 46.8039C40.4885 46.8525 40.4435 46.901 40.397 46.951C39.3817 46.022 38.5841 44.968 38.4907 43.5532C38.5047 43.142 38.5047 43.142 38.666 42.9352C38.8198 42.8206 38.9605 42.7413 39.1367 42.6657C39.2 42.6354 39.2634 42.6051 39.3287 42.5738C39.9135 42.3786 40.6873 42.4043 41.253 42.65Z" fill="#FED2D1"/>
<path d="M9.13954 20.147C9.16727 20.147 9.195 20.147 9.22357 20.147C9.22357 25.9145 9.22357 31.6819 9.22357 37.6242C8.91847 37.2174 8.77891 36.8183 8.60913 36.3428C8.57587 36.2497 8.5426 36.1566 8.50833 36.0607C7.99878 34.6003 7.65584 33.1077 7.45904 31.5744C7.44803 31.4903 7.44803 31.4903 7.4368 31.4045C7.3783 30.9242 7.36035 30.4503 7.35795 29.9667C7.35735 29.8872 7.35676 29.8077 7.35615 29.7258C7.337 26.4055 7.337 26.4055 7.62709 25.0204C7.64378 24.9385 7.66048 24.8566 7.67768 24.7722C8.00816 23.1923 8.45522 21.6124 9.13954 20.147Z" fill="#F45F5F"/>
<path d="M27.8773 22.4154C28.3456 22.7641 28.4536 23.2151 28.6125 23.7598C28.638 23.8425 28.6634 23.9253 28.6897 24.0105C28.8 24.3734 28.8996 24.7311 28.9696 25.1042C29.1176 24.7142 29.2608 24.3246 29.3898 23.9278C29.4373 23.9411 29.4849 23.9545 29.5339 23.9682C29.7288 24.0125 29.9085 24.029 30.1079 24.0384C30.1789 24.042 30.2498 24.0455 30.3229 24.0491C30.4329 24.0541 30.4329 24.0541 30.5451 24.0591C30.6571 24.0646 30.6571 24.0646 30.7713 24.0701C30.9549 24.079 31.1386 24.0876 31.3223 24.0959C31.4632 24.7152 31.5895 25.3368 31.711 25.9602C31.7302 26.0567 31.7495 26.1533 31.7694 26.2528C31.7876 26.3463 31.8058 26.4398 31.8245 26.5362C31.8493 26.6623 31.8493 26.6623 31.8746 26.791C31.9708 27.4493 31.9708 27.4493 31.7792 27.7405C31.5005 27.9263 31.3148 27.9128 30.9862 27.877C30.6828 27.6747 30.682 27.6018 30.6029 27.2573C30.5823 27.1679 30.5617 27.0784 30.5405 26.9862C30.4527 26.5568 30.3794 26.1257 30.314 25.6924C30.1824 26.0249 30.0629 26.3552 29.9665 26.6997C29.9493 26.7593 29.9322 26.8189 29.9145 26.8804C29.8802 27.0008 29.8471 27.1216 29.8154 27.2427C29.7326 27.5289 29.671 27.6861 29.4338 27.8724C29.1633 27.9854 29.0076 28.0154 28.7176 27.961C28.2853 27.5506 28.1647 27.1102 28.0191 26.5431C27.997 26.4612 27.9748 26.3793 27.952 26.295C27.8979 26.0944 27.8451 25.8936 27.7933 25.6924C27.7545 25.8428 27.7161 25.9934 27.6778 26.144C27.6544 26.2357 27.631 26.3275 27.6069 26.422C27.5491 26.667 27.5067 26.909 27.4677 27.1575C27.4107 27.447 27.3616 27.5573 27.1841 27.8087C26.953 27.961 26.953 27.961 26.6957 27.9715C26.3773 27.8496 26.271 27.7606 26.1128 27.4569C26.1133 27.298 26.1133 27.298 26.1376 27.1184C26.1466 27.0513 26.1555 26.9842 26.1647 26.915C26.2581 26.2922 26.3639 25.6717 26.4719 25.0512C26.5022 24.8759 26.5319 24.7006 26.5611 24.5252C26.6035 24.2702 26.6476 24.0157 26.6921 23.7611C26.7048 23.6829 26.7175 23.6048 26.7306 23.5242C26.8071 23.0987 26.8839 22.8115 27.2051 22.4994C27.4478 22.378 27.6081 22.3837 27.8773 22.4154Z" fill="#B683F1"/>
<path d="M40.9009 11.2399C41.1179 11.4239 41.2777 11.5734 41.4051 11.8281C41.4141 12.0043 41.4176 12.1808 41.4186 12.3573C41.4192 12.4387 41.4192 12.4387 41.4199 12.5217C41.4211 12.7016 41.4217 12.8814 41.4221 13.0612C41.4226 13.1862 41.4231 13.3112 41.4236 13.4362C41.4245 13.6984 41.4249 13.9607 41.4252 14.223C41.4257 14.5586 41.4277 14.8943 41.4301 15.2299C41.4317 15.4882 41.4321 15.7465 41.4322 16.0048C41.4325 16.1285 41.4332 16.2522 41.4343 16.3759C41.4357 16.5493 41.4355 16.7226 41.435 16.896C41.4355 17.0438 41.4355 17.0438 41.4359 17.1947C41.4014 17.4886 41.3302 17.643 41.153 17.8779C40.8874 18.055 40.8204 18.0675 40.5164 18.0704C40.4387 18.0714 40.361 18.0725 40.281 18.0736C40.1972 18.0738 40.1135 18.074 40.0272 18.0742C39.9409 18.0747 39.8546 18.0753 39.7656 18.0759C39.583 18.0767 39.4003 18.0771 39.2177 18.0771C38.9385 18.0775 38.6594 18.0805 38.3802 18.0837C38.2027 18.0842 38.0252 18.0845 37.8478 18.0847C37.7643 18.0859 37.6809 18.0871 37.595 18.0883C37.2251 18.0859 37.0116 18.0824 36.6903 17.8868C36.5182 17.6949 36.4647 17.5962 36.4371 17.3422C36.4282 17.2809 36.4193 17.2196 36.4102 17.1565C36.4666 16.8503 36.6308 16.6421 36.8677 16.4495C37.1143 16.404 37.2893 16.3897 37.5337 16.4002C37.6279 16.4013 37.6279 16.4013 37.724 16.4024C37.9236 16.4052 38.1229 16.4115 38.3224 16.418C38.4581 16.4205 38.5938 16.4228 38.7295 16.4249C39.0613 16.4304 39.3929 16.4391 39.7246 16.4495C39.7232 16.3609 39.7232 16.3609 39.7217 16.2705C39.7133 15.713 39.7069 15.1554 39.7028 14.5979C39.7006 14.3112 39.6976 14.0246 39.6929 13.738C39.6874 13.4083 39.6854 13.0786 39.6835 12.7488C39.6814 12.6462 39.6792 12.5436 39.677 12.4379C39.6767 11.6449 39.6767 11.6449 39.9267 11.3872C40.2953 11.1382 40.4601 11.1353 40.9009 11.2399Z" fill="#156B74"/>
<path d="M23.7597 22.4153C24.1497 22.659 24.2926 22.9422 24.4421 23.3619C24.4646 23.4216 24.487 23.4814 24.5102 23.5429C24.5816 23.7338 24.6512 23.9252 24.7208 24.1168C24.7671 24.2416 24.8136 24.3663 24.8601 24.491C24.9528 24.7394 25.0442 24.9883 25.135 25.2375C25.2259 25.4858 25.3207 25.7321 25.419 25.9776C25.4424 26.0372 25.4659 26.0968 25.4901 26.1581C25.5342 26.2696 25.5791 26.3807 25.6252 26.4914C25.7816 26.8907 25.8064 27.203 25.7764 27.6248C25.6398 27.8349 25.6398 27.8349 25.4403 27.9609C25.1882 28.0029 25.1882 28.0029 24.9361 27.9609C24.6575 27.752 24.5336 27.535 24.432 27.2047C24.432 27.1215 24.432 27.0383 24.432 26.9526C23.8219 26.9526 23.2119 26.9526 22.5834 26.9526C22.5557 27.119 22.5279 27.2854 22.4994 27.4568C22.3907 27.7361 22.3402 27.787 22.0792 27.9609C21.7818 27.9989 21.6311 27.9963 21.3755 27.8349C21.1857 27.5428 21.1979 27.2879 21.239 26.9526C21.3241 26.6401 21.4394 26.342 21.558 26.0408C21.5908 25.9553 21.6236 25.8698 21.6573 25.7817C21.7266 25.6017 21.7964 25.4219 21.8667 25.2423C21.9739 24.9683 22.0792 24.6936 22.1843 24.4188C22.252 24.2434 22.3198 24.0682 22.3878 23.8929C22.4191 23.8113 22.4505 23.7296 22.4828 23.6454C22.9965 22.3405 22.9965 22.3405 23.7597 22.4153Z" fill="#B683F1"/>
<path d="M17.4897 22.3998C18.1337 22.6108 18.4527 23.2968 18.8026 23.844C19.066 23.5948 19.2758 23.3309 19.4853 23.0353C19.7946 22.6 19.7946 22.6 19.979 22.4156C20.3177 22.3629 20.4465 22.3899 20.7299 22.5889C20.9032 22.8357 20.9032 22.8357 20.9072 23.0973C20.8158 23.6087 20.4126 23.9979 20.0963 24.3905C20.0469 24.4547 19.9974 24.519 19.9465 24.5851C19.8773 24.6713 19.8773 24.6713 19.8068 24.7591C19.7042 24.9375 19.7042 24.9375 19.7801 25.1441C19.8963 25.359 20.022 25.5491 20.1687 25.7444C20.2212 25.8162 20.2737 25.8881 20.3279 25.962C20.4383 26.1114 20.5495 26.2602 20.6613 26.4084C21.1076 27.0228 21.1076 27.0228 21.1182 27.3711C21.0713 27.6251 21.0713 27.6251 20.898 27.8352C20.5649 28.0053 20.4213 27.9822 20.063 27.8772C19.8531 27.6804 19.6983 27.4533 19.5378 27.2155C19.4518 27.0931 19.3656 26.9708 19.2792 26.8486C19.242 26.7941 19.2048 26.7396 19.1665 26.6835C19.0559 26.5344 18.9371 26.4084 18.8026 26.2807C18.7708 26.3257 18.7391 26.3706 18.7063 26.4169C18.5621 26.6204 18.4172 26.8234 18.2722 27.0265C18.1972 27.1326 18.1972 27.1326 18.1207 27.2408C18.048 27.3423 18.048 27.3423 17.9739 27.4459C17.9294 27.5084 17.885 27.5709 17.8392 27.6353C17.6513 27.8654 17.5052 27.9542 17.2114 27.998C16.9541 27.9612 16.9541 27.9612 16.7545 27.7827C16.5862 27.485 16.5683 27.3762 16.618 27.037C16.7709 26.7632 16.9577 26.5187 17.1484 26.2702C17.1984 26.2032 17.2483 26.1361 17.2998 26.0671C17.6756 25.5642 17.6756 25.5642 17.8581 25.3559C17.9795 25.1974 17.9795 25.1974 17.9504 25.0208C17.8689 24.8303 17.7709 24.6773 17.6496 24.5093C17.6043 24.4448 17.5591 24.3803 17.5125 24.3139C17.4172 24.1797 17.3211 24.046 17.2244 23.9128C16.9478 23.5153 16.7936 23.2544 16.87 22.7517C17.0533 22.4585 17.1435 22.4191 17.4897 22.3998Z" fill="#B682F1"/>
<path d="M36.7836 11.1562C36.7836 11.4893 36.6246 11.6645 36.4423 11.9282C35.0805 13.9846 34.5953 16.5851 35.0426 19.0092C35.1108 19.3346 35.1886 19.6568 35.2712 19.9789C35.2893 20.059 35.3073 20.1392 35.326 20.2218C35.5854 21.246 36.1983 22.2225 36.7836 23.0878C36.8391 23.171 36.8945 23.2542 36.9517 23.3399C35.6864 22.9015 34.6947 21.5359 34.0948 20.399C33.2277 18.536 33.1961 16.591 33.8509 14.6663C34.3978 13.2316 35.4843 11.9683 36.7836 11.1562Z" fill="#E2E3E3"/>
<path d="M14.0443 22.4549C14.1479 22.4545 14.2514 22.4541 14.3581 22.4536C14.5199 22.4556 14.5199 22.4556 14.685 22.4576C14.7929 22.4563 14.9008 22.455 15.0119 22.4536C15.1155 22.454 15.219 22.4545 15.3257 22.4549C15.4677 22.4555 15.4677 22.4555 15.6126 22.4561C15.9146 22.5089 16.0138 22.5943 16.1975 22.8357C16.2448 23.0825 16.2448 23.0825 16.1975 23.3398C16.0302 23.5616 15.8987 23.7345 15.6168 23.7936C15.4358 23.8012 15.2598 23.7967 15.0789 23.7862C15.0167 23.7843 14.9545 23.7824 14.8903 23.7805C14.7378 23.7755 14.5854 23.768 14.433 23.7599C14.433 24.0372 14.433 24.3145 14.433 24.6002C14.5191 24.5953 14.6052 24.5904 14.6939 24.5854C14.8082 24.5815 14.9226 24.5777 15.0369 24.5739C15.0935 24.5704 15.1501 24.5669 15.2084 24.5633C15.5421 24.5551 15.6777 24.5877 15.9415 24.7984C16.1135 25.0203 16.1135 25.0203 16.1607 25.2356C16.0992 25.5025 15.9862 25.6045 15.7774 25.7765C15.525 25.9027 15.2908 25.8684 15.0106 25.8658C14.903 25.8651 14.7953 25.8643 14.6844 25.8635C14.6014 25.8625 14.5184 25.8616 14.433 25.8606C14.433 26.1378 14.433 26.4151 14.433 26.7008C14.5251 26.6969 14.6173 26.693 14.7123 26.689C14.8345 26.6858 14.9567 26.6828 15.0789 26.6798C15.1395 26.677 15.2001 26.6742 15.2625 26.6713C15.586 26.6654 15.7435 26.6804 16.0278 26.8518C16.1975 27.0369 16.1975 27.0369 16.25 27.331C16.1975 27.6251 16.1975 27.6251 16.0157 27.8085C15.6013 28.0739 15.164 28.0129 14.685 28.0085C14.5863 28.0105 14.4875 28.0125 14.3857 28.0145C14.2904 28.0144 14.1951 28.0142 14.0969 28.014C13.9669 28.0141 13.9669 28.0141 13.8343 28.0142C13.4808 27.9366 13.3747 27.8443 13.1726 27.5411C13.1112 27.1882 13.1157 26.84 13.1197 26.4825C13.1195 26.3795 13.1193 26.2764 13.1191 26.1703C13.1192 25.9527 13.1203 25.7351 13.1224 25.5175C13.1253 25.184 13.1242 24.8508 13.1225 24.5173C13.1231 24.3059 13.1239 24.0945 13.125 23.883C13.1246 23.7832 13.1242 23.6833 13.1237 23.5804C13.1251 23.4876 13.1264 23.3947 13.1278 23.2991C13.1283 23.2175 13.1288 23.1359 13.1293 23.0519C13.2318 22.5396 13.5726 22.4568 14.0443 22.4549Z" fill="#B582F1"/>
<path d="M40.2132 42.4872C40.3006 42.4883 40.3006 42.4883 40.3897 42.4895C40.5322 42.4915 40.6747 42.4945 40.8172 42.4977C40.9614 42.97 41.1049 43.4425 41.248 43.9152C41.2967 44.076 41.3456 44.2367 41.3947 44.3974C41.4652 44.6284 41.5351 44.8595 41.6049 45.0907C41.627 45.1625 41.649 45.2342 41.6717 45.3082C41.702 45.4091 41.702 45.4091 41.7329 45.512C41.7598 45.6005 41.7598 45.6005 41.7872 45.6907C41.8255 45.8587 41.8255 45.8587 41.8255 46.1948C41.7509 46.2072 41.7509 46.2072 41.6748 46.2198C41.1019 46.3282 40.805 46.542 40.397 46.951C39.3817 46.0221 38.5841 44.968 38.4907 43.5533C38.5047 43.142 38.5047 43.142 38.666 42.9352C38.8198 42.8207 38.9605 42.7414 39.1367 42.6658C39.2256 42.6222 39.2256 42.6222 39.3163 42.5778C39.6185 42.4772 39.899 42.4794 40.2132 42.4872Z" fill="#FEBFBF"/>
<path d="M14.9896 30.6131C15.3702 30.8011 15.6268 31.0009 15.7773 31.4061C15.8476 31.8679 15.8574 32.3264 15.6408 32.7505C15.3666 33.0968 15.0514 33.3681 14.601 33.4227C14.1429 33.4755 13.8678 33.3943 13.4975 33.1378C13.1771 32.8616 12.9693 32.5593 12.8804 32.1426C12.8523 31.7136 12.9574 31.4022 13.2047 31.0529C13.7199 30.4805 14.2656 30.3378 14.9896 30.6131Z" fill="#8DCC5C"/>
<path d="M15.0004 39.3151C15.362 39.5238 15.5884 39.7665 15.7776 40.1449C15.8203 40.6117 15.8417 41.0203 15.6358 41.4473C15.2512 41.8631 14.9482 42.0856 14.3755 42.109C13.9076 42.1028 13.602 41.9714 13.2569 41.6573C12.9474 41.305 12.8694 40.9552 12.8945 40.4921C12.969 39.9841 13.2455 39.7162 13.6248 39.4054C14.0377 39.0999 14.5311 39.1743 15.0004 39.3151Z" fill="#8DCC5B"/>
<path d="M23.5078 49.7236C27.057 49.7236 30.6062 49.7236 34.263 49.7236C33.8784 49.9159 33.5323 49.9821 33.1129 50.0597C33.0423 50.0736 32.9716 50.0875 32.8988 50.1017C31.5697 50.3525 30.2669 50.4272 28.9169 50.4221C28.7949 50.4219 28.7949 50.4219 28.6703 50.4217C27.466 50.4184 26.2891 50.3779 25.1043 50.1438C25.0277 50.1289 24.9512 50.1141 24.8723 50.0988C24.4157 50.0091 23.9613 49.9119 23.5078 49.8077C23.5078 49.7799 23.5078 49.7522 23.5078 49.7236Z" fill="#F45F5F"/>
<path d="M41.9723 46.1683C42.0394 46.1658 42.1066 46.1634 42.1758 46.1609C42.6346 46.156 42.8883 46.2282 43.2537 46.5306C43.4165 46.6987 43.4165 46.6987 43.5057 46.8667C43.4618 47.2343 43.2622 47.3745 42.9862 47.5954C42.5493 47.9148 42.1005 47.9401 41.5732 47.875C41.1314 47.7331 40.7623 47.4911 40.4808 47.1188C40.4651 46.9087 40.4651 46.9087 40.5649 46.6987C41.0086 46.2421 41.3553 46.1756 41.9723 46.1683Z" fill="#0C5A67"/>
<path d="M41.9092 46.1946C42.3331 46.1645 42.653 46.1456 43.0383 46.3417C43.3914 46.6517 43.3914 46.6517 43.5057 46.8668C43.4708 47.154 43.3719 47.2816 43.1538 47.4655C43.1058 47.5073 43.0578 47.5491 43.0084 47.5922C42.7927 47.7339 42.5757 47.802 42.3293 47.8751C42.2589 47.6424 42.1889 47.4096 42.1192 47.1767C42.0992 47.1107 42.0792 47.0447 42.0585 46.9766C42.0396 46.913 42.0206 46.8494 42.0011 46.7838C41.9835 46.7253 41.9659 46.6668 41.9477 46.6065C41.9092 46.4467 41.9092 46.4467 41.9092 46.1946Z" fill="#176B74"/>
<path d="M23.508 24.6841C23.7421 25.0353 23.8441 25.2667 23.8441 25.6924C23.6222 25.6924 23.4004 25.6924 23.1719 25.6924C23.2175 25.3088 23.3227 25.0225 23.508 24.6841Z" fill="#E7E0EF"/>
</g>
<defs>
<clipPath id="clip0_1531_1772">
<rect width="43.0208" height="43.0208" fill="white" transform="translate(7.375 7.375)"/>
</clipPath>
</defs>
</svg>
