<svg width="48" height="48" viewBox="0 0 48 48" fill="none" xmlns="http://www.w3.org/2000/svg">
<circle cx="24" cy="24" r="24" fill="#F4F7FE"/>
<g clip-path="url(#clip0_1572_1530)">
<path d="M10.6027 8.54637C10.6498 8.54615 10.6969 8.54593 10.7454 8.5457C10.9034 8.54512 11.0614 8.54543 11.2193 8.54573C11.3337 8.5455 11.448 8.54521 11.5624 8.54487C11.8767 8.54411 12.191 8.54412 12.5054 8.54427C12.8443 8.5443 13.1833 8.54361 13.5223 8.54301C14.1864 8.54198 14.8506 8.54163 15.5148 8.54156C16.0546 8.5415 16.5944 8.54125 17.1342 8.54085C18.6645 8.53975 20.1947 8.53917 21.7249 8.53927C21.7662 8.53927 21.8074 8.53927 21.8499 8.53927C21.9333 8.53928 22.0167 8.53928 22.1001 8.53929C23.3975 8.53937 24.6949 8.53843 25.9923 8.53672C27.4501 8.5348 28.9079 8.53372 30.3657 8.53384C31.1375 8.53388 31.9093 8.53354 32.6811 8.53219C33.3383 8.53105 33.9954 8.53078 34.6525 8.53163C34.9878 8.53204 35.3231 8.53204 35.6583 8.53096C35.9654 8.52998 36.2724 8.53016 36.5794 8.53125C36.6904 8.53144 36.8013 8.53121 36.9123 8.53051C37.6812 8.52601 38.3075 8.57975 38.8903 9.12958C39.2844 9.56227 39.457 10.0172 39.4535 10.6027C39.4537 10.6498 39.454 10.6969 39.4542 10.7454C39.4548 10.9034 39.4545 11.0614 39.4542 11.2193C39.4544 11.3337 39.4547 11.448 39.455 11.5624C39.4558 11.8767 39.4558 12.191 39.4556 12.5054C39.4556 12.8443 39.4563 13.1833 39.4569 13.5223C39.4579 14.1864 39.4583 14.8506 39.4583 15.5148C39.4584 16.0546 39.4586 16.5944 39.459 17.1342C39.4601 18.6645 39.4607 20.1947 39.4606 21.7249C39.4606 21.7662 39.4606 21.8074 39.4606 21.8499C39.4606 21.9333 39.4606 22.0167 39.4606 22.1001C39.4605 23.3975 39.4615 24.6949 39.4632 25.9923C39.4651 27.4501 39.4662 28.9079 39.466 30.3657C39.466 31.1375 39.4664 31.9093 39.4677 32.6811C39.4688 33.3383 39.4691 33.9954 39.4683 34.6525C39.4678 34.9878 39.4678 35.3231 39.4689 35.6583C39.4699 35.9654 39.4697 36.2724 39.4686 36.5794C39.4684 36.6904 39.4687 36.8013 39.4694 36.9123C39.4739 37.6812 39.4201 38.3075 38.8703 38.8903C38.4376 39.2844 37.9827 39.457 37.3972 39.4535C37.3265 39.4539 37.3265 39.4539 37.2544 39.4542C37.0965 39.4548 36.9385 39.4545 36.7806 39.4542C36.6662 39.4544 36.5519 39.4547 36.4375 39.455C36.1232 39.4558 35.8089 39.4558 35.4945 39.4556C35.1555 39.4556 34.8166 39.4563 34.4776 39.4569C33.8135 39.4579 33.1493 39.4583 32.4851 39.4583C31.9453 39.4584 31.4055 39.4586 30.8657 39.459C29.3354 39.4601 27.8052 39.4607 26.2749 39.4606C26.2337 39.4606 26.1925 39.4606 26.15 39.4606C26.0666 39.4606 25.9832 39.4606 25.8998 39.4606C24.6024 39.4605 23.305 39.4615 22.0076 39.4632C20.5498 39.4651 19.092 39.4662 17.6342 39.466C16.8624 39.466 16.0906 39.4664 15.3187 39.4677C14.6616 39.4688 14.0045 39.4691 13.3474 39.4683C13.0121 39.4678 12.6768 39.4678 12.3416 39.4689C12.0345 39.4699 11.7275 39.4697 11.4205 39.4686C11.3095 39.4684 11.1986 39.4687 11.0876 39.4694C10.3187 39.4739 9.69236 39.4201 9.10956 38.8703C8.71549 38.4376 8.5429 37.9827 8.54637 37.3972C8.54615 37.3501 8.54593 37.303 8.5457 37.2544C8.54512 37.0965 8.54543 36.9385 8.54573 36.7806C8.5455 36.6662 8.54521 36.5519 8.54487 36.4375C8.54411 36.1232 8.54412 35.8089 8.54427 35.4945C8.5443 35.1555 8.54361 34.8166 8.54301 34.4776C8.54198 33.8135 8.54163 33.1493 8.54156 32.4851C8.5415 31.9453 8.54125 31.4055 8.54085 30.8657C8.53975 29.3354 8.53917 27.8052 8.53927 26.2749C8.53927 26.2337 8.53927 26.1925 8.53927 26.15C8.53928 26.0666 8.53928 25.9832 8.53929 25.8998C8.53937 24.6024 8.53843 23.305 8.53672 22.0076C8.5348 20.5498 8.53372 19.092 8.53384 17.6342C8.53388 16.8624 8.53354 16.0906 8.53219 15.3188C8.53105 14.6616 8.53078 14.0045 8.53163 13.3474C8.53204 13.0121 8.53204 12.6768 8.53096 12.3416C8.52998 12.0345 8.53016 11.7275 8.53125 11.4205C8.53144 11.3095 8.53121 11.1986 8.53051 11.0876C8.52601 10.3187 8.57975 9.69236 9.12958 9.10956C9.56227 8.71549 10.0172 8.5429 10.6027 8.54637Z" fill="#E5F7FE"/>
<path d="M10.6027 8.54637C10.6498 8.54615 10.6969 8.54593 10.7454 8.5457C10.9034 8.54512 11.0614 8.54543 11.2193 8.54573C11.3337 8.5455 11.448 8.54521 11.5624 8.54487C11.8767 8.54411 12.191 8.54412 12.5054 8.54427C12.8443 8.5443 13.1833 8.54361 13.5223 8.54301C14.1864 8.54198 14.8506 8.54163 15.5148 8.54156C16.0546 8.5415 16.5944 8.54125 17.1342 8.54085C18.6645 8.53975 20.1947 8.53917 21.7249 8.53927C21.7662 8.53927 21.8074 8.53927 21.8499 8.53927C21.9333 8.53928 22.0167 8.53928 22.1001 8.53929C23.3975 8.53937 24.6949 8.53843 25.9923 8.53672C27.4501 8.5348 28.9079 8.53372 30.3657 8.53384C31.1375 8.53388 31.9093 8.53354 32.6811 8.53219C33.3383 8.53105 33.9954 8.53078 34.6525 8.53163C34.9878 8.53204 35.3231 8.53204 35.6583 8.53096C35.9654 8.52998 36.2724 8.53016 36.5794 8.53125C36.6904 8.53144 36.8013 8.53121 36.9123 8.53051C37.6812 8.52601 38.3075 8.57975 38.8903 9.12958C39.2844 9.56227 39.457 10.0172 39.4535 10.6027C39.4537 10.6498 39.454 10.6969 39.4542 10.7454C39.4548 10.9034 39.4545 11.0614 39.4542 11.2193C39.4544 11.3337 39.4547 11.448 39.455 11.5624C39.4558 11.8767 39.4558 12.191 39.4556 12.5054C39.4556 12.8443 39.4563 13.1833 39.4569 13.5223C39.4579 14.1864 39.4583 14.8506 39.4583 15.5148C39.4584 16.0546 39.4586 16.5944 39.459 17.1342C39.4601 18.6645 39.4607 20.1947 39.4606 21.7249C39.4606 21.7662 39.4606 21.8074 39.4606 21.8499C39.4606 21.9333 39.4606 22.0167 39.4606 22.1001C39.4605 23.3975 39.4615 24.6949 39.4632 25.9923C39.4651 27.4501 39.4662 28.9079 39.466 30.3657C39.466 31.1375 39.4664 31.9093 39.4677 32.6811C39.4688 33.3383 39.4691 33.9954 39.4683 34.6525C39.4678 34.9878 39.4678 35.3231 39.4689 35.6583C39.4699 35.9654 39.4697 36.2724 39.4686 36.5794C39.4684 36.6904 39.4687 36.8013 39.4694 36.9123C39.4739 37.6812 39.4201 38.3075 38.8703 38.8903C38.4376 39.2844 37.9827 39.457 37.3972 39.4535C37.3265 39.4539 37.3265 39.4539 37.2544 39.4542C37.0965 39.4548 36.9385 39.4545 36.7806 39.4542C36.6662 39.4544 36.5519 39.4547 36.4375 39.455C36.1232 39.4558 35.8089 39.4558 35.4945 39.4556C35.1555 39.4556 34.8166 39.4563 34.4776 39.4569C33.8135 39.4579 33.1493 39.4583 32.4851 39.4583C31.9453 39.4584 31.4055 39.4586 30.8657 39.459C29.3354 39.4601 27.8052 39.4607 26.2749 39.4606C26.2337 39.4606 26.1925 39.4606 26.15 39.4606C26.0666 39.4606 25.9832 39.4606 25.8998 39.4606C24.6024 39.4605 23.305 39.4615 22.0076 39.4632C20.5498 39.4651 19.092 39.4662 17.6342 39.466C16.8624 39.466 16.0906 39.4664 15.3187 39.4677C14.6616 39.4688 14.0045 39.4691 13.3474 39.4683C13.0121 39.4678 12.6768 39.4678 12.3416 39.4689C12.0345 39.4699 11.7275 39.4697 11.4205 39.4686C11.3095 39.4684 11.1986 39.4687 11.0876 39.4694C10.3187 39.4739 9.69236 39.4201 9.10956 38.8703C8.71549 38.4376 8.5429 37.9827 8.54637 37.3972C8.54615 37.3501 8.54593 37.303 8.5457 37.2544C8.54512 37.0965 8.54543 36.9385 8.54573 36.7806C8.5455 36.6662 8.54521 36.5519 8.54487 36.4375C8.54411 36.1232 8.54412 35.8089 8.54427 35.4945C8.5443 35.1555 8.54361 34.8166 8.54301 34.4776C8.54198 33.8135 8.54163 33.1493 8.54156 32.4851C8.5415 31.9453 8.54125 31.4055 8.54085 30.8657C8.53975 29.3354 8.53917 27.8052 8.53927 26.2749C8.53927 26.2337 8.53927 26.1925 8.53927 26.15C8.53928 26.0666 8.53928 25.9832 8.53929 25.8998C8.53937 24.6024 8.53843 23.305 8.53672 22.0076C8.5348 20.5498 8.53372 19.092 8.53384 17.6342C8.53388 16.8624 8.53354 16.0906 8.53219 15.3188C8.53105 14.6616 8.53078 14.0045 8.53163 13.3474C8.53204 13.0121 8.53204 12.6768 8.53096 12.3416C8.52998 12.0345 8.53016 11.7275 8.53125 11.4205C8.53144 11.3095 8.53121 11.1986 8.53051 11.0876C8.52601 10.3187 8.57975 9.69236 9.12958 9.10956C9.56227 8.71549 10.0172 8.5429 10.6027 8.54637ZM10.7499 16.0624C10.668 16.2264 10.6796 16.3469 10.6796 16.5306C10.6794 16.604 10.6793 16.6773 10.6791 16.7529C10.6792 16.8342 10.6794 16.9155 10.6795 16.9993C10.6794 17.086 10.6793 17.1727 10.6792 17.2593C10.679 17.4984 10.6791 17.7374 10.6793 17.9764C10.6794 18.2339 10.6792 18.4914 10.679 18.7488C10.6787 19.2535 10.6788 19.7581 10.679 20.2628C10.6791 20.6728 10.6791 21.0827 10.6791 21.4927C10.6791 21.5509 10.6791 21.6092 10.6791 21.6692C10.679 21.7875 10.679 21.9058 10.679 22.0241C10.6788 23.1346 10.679 24.2451 10.6794 25.3557C10.6796 26.3096 10.6796 27.2635 10.6793 28.2174C10.679 29.3239 10.6788 30.4304 10.679 31.537C10.679 31.6548 10.6791 31.7727 10.6791 31.8906C10.6791 31.9486 10.6791 32.0066 10.6791 32.0663C10.6792 32.4761 10.6791 32.8858 10.6789 33.2955C10.6788 33.7945 10.6788 34.2934 10.6791 34.7924C10.6793 35.0472 10.6794 35.302 10.6792 35.5568C10.679 35.7897 10.6791 36.0226 10.6794 36.2554C10.6795 36.3804 10.6793 36.5054 10.6791 36.6303C10.6792 36.7035 10.6794 36.7767 10.6796 36.8521C10.6796 36.9158 10.6796 36.9795 10.6796 37.0452C10.6715 37.1854 10.6715 37.1854 10.7499 37.2499C10.8904 37.2561 11.031 37.2577 11.1715 37.2576C11.2163 37.2577 11.2611 37.2578 11.3073 37.2579C11.4594 37.258 11.6114 37.2577 11.7635 37.2575C11.8729 37.2575 11.9822 37.2575 12.0916 37.2576C12.3936 37.2578 12.6956 37.2575 12.9976 37.2572C13.3227 37.2569 13.6478 37.257 13.9729 37.2571C14.5367 37.2571 15.1005 37.2569 15.6642 37.2566C16.4794 37.256 17.2945 37.2559 18.1096 37.2558C19.432 37.2557 20.7543 37.2552 22.0767 37.2547C23.3616 37.2541 24.6465 37.2536 25.9314 37.2534C26.0105 37.2534 26.0896 37.2533 26.1712 37.2533C26.5682 37.2532 26.9652 37.2532 27.3622 37.2531C30.6581 37.2524 33.954 37.2513 37.2499 37.2499C37.2514 34.5598 37.2525 31.8697 37.2531 29.1795C37.2532 28.8623 37.2533 28.545 37.2534 28.2278C37.2534 28.1646 37.2534 28.1015 37.2534 28.0364C37.2537 27.0123 37.2542 25.9882 37.2548 24.9641C37.2553 23.9141 37.2557 22.8641 37.2558 21.8141C37.2559 21.1657 37.2562 20.5172 37.2567 19.8688C37.257 19.4248 37.2571 18.9807 37.257 18.5367C37.257 18.2801 37.2571 18.0235 37.2574 17.7669C37.2577 17.5324 37.2577 17.2979 37.2575 17.0634C37.2575 16.9376 37.2577 16.8118 37.258 16.6859C37.2579 16.6122 37.2578 16.5385 37.2576 16.4626C37.2577 16.3984 37.2577 16.3343 37.2577 16.2682C37.266 16.1271 37.266 16.1271 37.1874 16.0624C37.0474 16.0563 36.9071 16.0547 36.7669 16.0548C36.7222 16.0547 36.6775 16.0546 36.6314 16.0545C36.4797 16.0544 36.328 16.0547 36.1763 16.0549C36.0672 16.0549 35.9581 16.0548 35.8489 16.0548C35.5477 16.0546 35.2464 16.0549 34.9451 16.0552C34.6207 16.0555 34.2964 16.0554 33.972 16.0553C33.4096 16.0553 32.8472 16.0555 32.2847 16.0558C31.4715 16.0563 30.6583 16.0565 29.8451 16.0566C28.5259 16.0567 27.2066 16.0571 25.8874 16.0577C24.6055 16.0583 23.3237 16.0587 22.0418 16.059C21.9234 16.059 21.9234 16.059 21.8026 16.0591C21.4065 16.0591 21.0105 16.0592 20.6144 16.0593C17.3262 16.0599 14.0381 16.061 10.7499 16.0624Z" fill="#72D562"/>
<path d="M10.6028 8.54637C10.6499 8.54615 10.697 8.54593 10.7455 8.5457C10.9035 8.54512 11.0614 8.54543 11.2194 8.54573C11.3337 8.5455 11.4481 8.54521 11.5624 8.54487C11.8768 8.54411 12.1911 8.54412 12.5054 8.54427C12.8444 8.5443 13.1834 8.54361 13.5223 8.54301C14.1865 8.54198 14.8506 8.54163 15.5148 8.54156C16.0546 8.5415 16.5945 8.54125 17.1343 8.54085C18.6645 8.53975 20.1948 8.53917 21.725 8.53927C21.7662 8.53927 21.8075 8.53927 21.85 8.53927C21.9334 8.53928 22.0168 8.53928 22.1002 8.53929C23.3976 8.53937 24.695 8.53843 25.9924 8.53672C27.4502 8.5348 28.908 8.53372 30.3658 8.53384C31.1376 8.53388 31.9094 8.53354 32.6812 8.53219C33.3383 8.53105 33.9955 8.53078 34.6526 8.53163C34.9879 8.53204 35.3231 8.53204 35.6584 8.53096C35.9654 8.52998 36.2724 8.53016 36.5795 8.53125C36.6904 8.53144 36.8014 8.53121 36.9123 8.53051C37.6812 8.52601 38.3076 8.57975 38.8904 9.12958C40.0355 10.3869 39.4375 12.3487 39.4375 13.8749C29.2488 13.8749 19.06 13.8749 8.5625 13.8749C8.5625 9.71071 8.5625 9.71071 9.12964 9.10956C9.56233 8.71549 10.0173 8.5429 10.6028 8.54637Z" fill="#004960"/>
<path d="M8.5625 13.875C18.7513 13.875 28.94 13.875 39.4375 13.875C39.4427 17.8221 39.4478 21.7692 39.4531 25.8359C39.4554 27.0832 39.4577 28.3305 39.46 29.6156C39.4612 31.1362 39.4612 31.1362 39.4614 31.8476C39.4616 32.3455 39.4625 32.8434 39.4639 33.3412C39.4655 33.9154 39.4662 34.4896 39.4659 35.0637C39.4657 35.3575 39.466 35.6512 39.4673 35.9449C39.4685 36.2107 39.4686 36.4764 39.4677 36.7421C39.4676 36.8381 39.4679 36.934 39.4687 37.0299C39.4744 37.7618 39.3866 38.3431 38.8704 38.8904C38.4682 39.2567 38.032 39.4551 37.4829 39.4497C37.4108 39.4493 37.3387 39.4489 37.2644 39.4485C37.19 39.4474 37.1157 39.4464 37.0391 39.4453C36.9632 39.4447 36.8874 39.4442 36.8093 39.4436C36.6229 39.4421 36.4364 39.4401 36.25 39.4375C36.25 39.4169 36.25 39.3963 36.25 39.375C36.2938 39.3658 36.3377 39.3566 36.3828 39.3472C36.9897 39.2037 37.3557 38.9527 37.7297 38.4575C38.0303 37.9308 38.027 37.4361 38.0249 36.846C38.0253 36.7473 38.0257 36.6486 38.0262 36.55C38.0273 36.279 38.0273 36.008 38.027 35.7371C38.027 35.4403 38.0281 35.1435 38.029 34.8468C38.0306 34.2709 38.0312 33.6949 38.0315 33.119C38.0319 32.4528 38.0335 31.7865 38.0351 31.1203C38.0388 29.3615 38.0408 27.6026 38.043 25.8438C38.0494 21.9147 38.0559 17.9856 38.0625 13.9375C28.3275 13.9375 18.5925 13.9375 8.5625 13.9375C8.5625 13.9169 8.5625 13.8963 8.5625 13.875Z" fill="#56C85A"/>
<path d="M10.75 16.0625C11.2037 16.0625 11.6575 16.0625 12.125 16.0625C12.125 23.0544 12.125 30.0462 12.125 37.25C11.6712 37.25 11.2175 37.25 10.75 37.25C10.6422 37.1423 10.6796 36.9991 10.6796 36.8522C10.6794 36.779 10.6793 36.7058 10.6791 36.6304C10.6792 36.5489 10.6794 36.4675 10.6795 36.3836C10.6794 36.297 10.6793 36.2104 10.6792 36.1238C10.679 35.8848 10.6791 35.6457 10.6793 35.4067C10.6794 35.1493 10.6792 34.8919 10.679 34.6346C10.6788 34.1299 10.6788 33.6252 10.679 33.1206C10.6791 32.7106 10.6792 32.3006 10.6791 31.8906C10.6791 31.8324 10.6791 31.7741 10.6791 31.7141C10.679 31.5958 10.679 31.4776 10.679 31.3593C10.6788 30.2486 10.679 29.138 10.6794 28.0274C10.6796 27.0735 10.6796 26.1196 10.6793 25.1657C10.679 24.0592 10.6788 22.9528 10.679 21.8464C10.6791 21.7285 10.6791 21.6106 10.6791 21.4927C10.6791 21.4057 10.6791 21.4057 10.6791 21.317C10.6792 20.9073 10.6791 20.4976 10.6789 20.0879C10.6788 19.5889 10.6788 19.0899 10.6791 18.5909C10.6793 18.3361 10.6794 18.0813 10.6792 17.8264C10.679 17.5935 10.6791 17.3605 10.6794 17.1275C10.6795 17.0027 10.6793 16.8778 10.6791 16.753C10.6793 16.6796 10.6794 16.6063 10.6796 16.5307C10.6796 16.467 10.6796 16.4032 10.6796 16.3376C10.6875 16.1875 10.6875 16.1875 10.75 16.0625Z" fill="#CEF0FC"/>
<path d="M25.125 18.875C27.028 18.8725 27.028 18.8725 27.9648 18.8718C28.4723 18.8715 28.9799 18.871 29.4875 18.8702C29.8893 18.8696 30.291 18.8692 30.6927 18.8691C30.9056 18.869 31.1184 18.8688 31.3313 18.8684C31.5685 18.8679 31.8057 18.8678 32.043 18.8679C32.1496 18.8675 32.1496 18.8675 32.2583 18.8672C32.3547 18.8673 32.3547 18.8673 32.453 18.8674C32.5092 18.8674 32.5654 18.8673 32.6232 18.8673C32.75 18.875 32.75 18.875 32.8125 18.9375C32.8125 20.1543 32.8125 21.3712 32.8125 22.625C30.2756 22.625 27.7387 22.625 25.125 22.625C25.125 21.3875 25.125 20.15 25.125 18.875Z" fill="#64B5F6"/>
<path d="M19.2407 22.6842C20.027 23.2878 20.6917 24.1933 20.8752 25.1873C20.8825 25.3148 20.8861 25.4425 20.8869 25.5701C20.8878 25.636 20.8887 25.7019 20.8896 25.7698C20.8752 25.9373 20.8752 25.9373 20.7502 26.0623C20.6112 26.0781 20.6112 26.0781 20.4347 26.0782C20.3679 26.0786 20.3011 26.0789 20.2323 26.0793C20.1587 26.079 20.0851 26.0788 20.0093 26.0785C19.9321 26.0787 19.8549 26.0789 19.7753 26.0792C19.5631 26.0796 19.351 26.0795 19.1388 26.0791C18.9171 26.0788 18.6953 26.0791 18.4736 26.0793C18.1012 26.0795 17.7288 26.0792 17.3564 26.0786C16.9254 26.0779 16.4945 26.0782 16.0636 26.0789C15.694 26.0794 15.3244 26.0795 14.9548 26.0792C14.7339 26.079 14.513 26.079 14.2921 26.0794C14.0459 26.0798 13.7997 26.0792 13.5535 26.0785C13.48 26.0788 13.4064 26.079 13.3306 26.0793C13.2304 26.0787 13.2304 26.0787 13.1282 26.0782C13.07 26.0782 13.0117 26.0781 12.9517 26.0781C12.8127 26.0623 12.8127 26.0623 12.6877 25.9373C12.5539 25.122 12.8849 24.3431 13.34 23.6834C14.0274 22.7544 14.962 22.1335 16.1061 21.9044C17.2357 21.7428 18.3044 22.0433 19.2407 22.6842Z" fill="#FEDA2E"/>
<path d="M17.9377 17.5002C18.4194 17.8328 18.8886 18.3485 19.0002 18.9377C19.074 19.7016 18.9822 20.3411 18.4885 20.9611C18.1031 21.365 17.5892 21.6553 17.0305 21.7087C16.2904 21.7164 15.7366 21.5749 15.1877 21.0627C15.0443 20.9057 14.9256 20.7427 14.8127 20.5627C14.7868 20.5225 14.7608 20.4823 14.7341 20.4409C14.4597 19.9371 14.4756 19.2308 14.633 18.6877C14.8656 18.1188 15.3365 17.6421 15.8713 17.3479C16.4972 17.0973 17.356 17.1737 17.9377 17.5002Z" fill="#FED6BD"/>
<path d="M26.688 10.6164C26.7697 10.616 26.8514 10.6157 26.9355 10.6153C27.0269 10.6152 27.1183 10.6152 27.2096 10.6151C27.3052 10.6148 27.4008 10.6145 27.4963 10.6142C27.7567 10.6133 28.017 10.6129 28.2773 10.6127C28.4399 10.6125 28.6025 10.6122 28.765 10.6119C29.2734 10.6111 29.7817 10.6105 30.29 10.6102C30.8773 10.61 31.4646 10.6089 32.0519 10.6071C32.5054 10.6057 32.959 10.6051 33.4126 10.605C33.6836 10.6049 33.9546 10.6046 34.2257 10.6034C34.4808 10.6024 34.7358 10.6023 34.9909 10.6028C35.0845 10.6029 35.1781 10.6026 35.2717 10.602C35.3995 10.6012 35.5273 10.6017 35.6552 10.6022C35.7267 10.6021 35.7982 10.602 35.8719 10.6019C36.146 10.6354 36.3074 10.7451 36.5 10.9377C36.5315 11.1275 36.5284 11.3101 36.5 11.5002C36.3827 11.6565 36.2976 11.7264 36.125 11.8127C35.9966 11.8191 35.8681 11.8214 35.7395 11.8219C35.6573 11.8223 35.575 11.8228 35.4902 11.8232C35.3985 11.8234 35.3067 11.8236 35.215 11.8237C35.1188 11.8241 35.0226 11.8245 34.9264 11.825C34.6647 11.8261 34.4029 11.8267 34.1412 11.8272C33.9777 11.8276 33.8142 11.8279 33.6508 11.8283C33.1395 11.8295 32.6282 11.8304 32.1169 11.8309C31.5264 11.8316 30.9359 11.8332 30.3453 11.8357C29.8891 11.8376 29.4329 11.8385 28.9767 11.8387C28.7041 11.8389 28.4315 11.8394 28.1589 11.841C27.9025 11.8425 27.6461 11.8427 27.3896 11.8421C27.2955 11.8421 27.2014 11.8425 27.1073 11.8433C26.9788 11.8444 26.8503 11.844 26.7217 11.8432C26.6139 11.8434 26.6139 11.8434 26.5038 11.8436C26.2707 11.8059 26.1669 11.7265 26 11.5627C25.9241 11.375 25.9118 11.2007 25.9375 11.0002C26.0859 10.8127 26.0859 10.8127 26.25 10.6877C26.3629 10.5747 26.5359 10.6168 26.688 10.6164Z" fill="#ECF2F5"/>
<path d="M25.3049 24.7108C25.3867 24.7103 25.4685 24.7099 25.5529 24.7094C25.7769 24.7083 26.0009 24.7091 26.225 24.7103C26.4597 24.7113 26.6943 24.7108 26.929 24.7105C27.323 24.7102 27.7171 24.7112 28.1111 24.7129C28.5664 24.7149 29.0217 24.7149 29.4771 24.7138C29.9154 24.7129 30.3537 24.7133 30.792 24.7143C30.9784 24.7148 31.1648 24.7147 31.3512 24.7142C31.6116 24.7137 31.8719 24.7152 32.1323 24.7169C32.2482 24.7163 32.2482 24.7163 32.3665 24.7157C32.4374 24.7164 32.5084 24.7172 32.5815 24.7181C32.643 24.7182 32.7046 24.7184 32.768 24.7186C32.9852 24.7592 33.0918 24.8489 33.2498 25.0002C33.2913 25.1252 33.2913 25.1252 33.2889 25.2502C33.2897 25.2915 33.2905 25.3327 33.2913 25.3752C33.2269 25.5693 33.1039 25.6374 32.9373 25.7502C32.7668 25.7819 32.7668 25.7819 32.5787 25.7824C32.5071 25.7832 32.4355 25.784 32.3618 25.7848C32.2838 25.7844 32.2059 25.784 32.1255 25.7836C32.0421 25.784 31.9588 25.7846 31.8754 25.7852C31.6494 25.7866 31.4234 25.7864 31.1975 25.7859C31.0087 25.7855 30.82 25.786 30.6313 25.7865C30.1862 25.7875 29.741 25.7873 29.2959 25.7863C28.8366 25.7852 28.3774 25.7862 27.9182 25.7882C27.5238 25.7899 27.1293 25.7903 26.7349 25.7898C26.4994 25.7895 26.2639 25.7896 26.0284 25.7909C25.7659 25.7923 25.5035 25.7911 25.241 25.7897C25.1629 25.7904 25.0848 25.7911 25.0044 25.7919C24.8973 25.7907 24.8973 25.7907 24.788 25.7895C24.7259 25.7895 24.6639 25.7894 24.6 25.7894C24.3746 25.7351 24.3093 25.6295 24.1873 25.4377C24.1423 25.1978 24.1617 25.1019 24.2954 24.8972C24.5661 24.6432 24.958 24.7075 25.3049 24.7108Z" fill="#96A4AF"/>
<path d="M24.9711 30.1008C25.0768 30.0998 25.0768 30.0998 25.1846 30.0989C25.3001 30.0993 25.3001 30.0993 25.418 30.0997C25.4993 30.0993 25.5806 30.0989 25.6644 30.0984C25.8873 30.0973 26.1102 30.0974 26.333 30.0977C26.5191 30.0979 26.7052 30.0976 26.8913 30.0972C27.3302 30.0963 27.7691 30.0964 28.2081 30.0971C28.661 30.0978 29.1138 30.0969 29.5667 30.0953C29.9555 30.0939 30.3444 30.0935 30.7333 30.0938C30.9655 30.094 31.1977 30.0939 31.43 30.0928C31.6888 30.0917 31.9477 30.0926 32.2066 30.0936C32.2836 30.093 32.3606 30.0924 32.44 30.0918C32.5104 30.0924 32.5809 30.093 32.6534 30.0937C32.7146 30.0937 32.7759 30.0937 32.8389 30.0937C33.0473 30.1342 33.1216 30.2085 33.2498 30.375C33.281 30.5937 33.281 30.5937 33.2498 30.8125C33.1331 30.9603 33.0422 31.0413 32.8748 31.125C32.767 31.1313 32.659 31.1337 32.551 31.1342C32.4824 31.1346 32.4138 31.1351 32.3431 31.1355C32.2675 31.1357 32.1919 31.1359 32.114 31.136C32.0346 31.1365 31.9552 31.1369 31.8734 31.1373C31.6553 31.1384 31.4372 31.139 31.2191 31.1396C31.0828 31.1399 30.9466 31.1403 30.8103 31.1406C30.3841 31.1418 29.9578 31.1427 29.5316 31.1432C29.0395 31.1439 28.5474 31.1455 28.0552 31.148C27.6749 31.1499 27.2946 31.1508 26.9143 31.151C26.6871 31.1512 26.46 31.1518 26.2328 31.1533C25.9793 31.1551 25.7258 31.1548 25.4724 31.1544C25.3595 31.1556 25.3595 31.1556 25.2444 31.1568C24.7364 31.1536 24.7364 31.1536 24.4844 31.007C24.3581 30.8549 24.334 30.7857 24.3396 30.5898C24.3395 30.5421 24.3395 30.4943 24.3394 30.4451C24.4225 30.1336 24.6853 30.1015 24.9711 30.1008Z" fill="#98A6B1"/>
<path d="M24.9715 35.0934C25.042 35.0927 25.1124 35.092 25.185 35.0913C25.262 35.0918 25.3391 35.0923 25.4184 35.0928C25.5404 35.0922 25.5404 35.0922 25.6648 35.0915C25.8877 35.0904 26.1106 35.0908 26.3335 35.0916C26.5667 35.0922 26.8 35.0917 27.0333 35.0913C27.425 35.0908 27.8168 35.0914 28.2085 35.0926C28.6614 35.094 29.1142 35.0935 29.5671 35.0921C29.956 35.091 30.3448 35.0908 30.7337 35.0915C30.9659 35.0919 31.1982 35.0919 31.4304 35.0911C31.6893 35.0903 31.9481 35.0914 32.207 35.0928C32.3225 35.0921 32.3225 35.0921 32.4404 35.0913C32.5108 35.092 32.5813 35.0927 32.6539 35.0934C32.7151 35.0935 32.7763 35.0936 32.8393 35.0937C33.0476 35.1344 33.1217 35.2091 33.2502 35.3752C33.2925 35.6337 33.2847 35.7597 33.141 35.9804C32.8268 36.2042 32.5266 36.1683 32.1499 36.1646C32.0698 36.1651 31.9898 36.1655 31.9074 36.166C31.6884 36.1671 31.4694 36.1663 31.2504 36.1651C31.021 36.1641 30.7916 36.1646 30.5622 36.165C30.1769 36.1652 29.7917 36.1642 29.4065 36.1625C28.9614 36.1605 28.5163 36.1605 28.0712 36.1616C27.6427 36.1626 27.2142 36.1621 26.7857 36.1611C26.6035 36.1606 26.4213 36.1607 26.2391 36.1612C25.9845 36.1617 25.7301 36.1602 25.4755 36.1585C25.4 36.1589 25.3245 36.1593 25.2467 36.1598C24.7366 36.1539 24.7366 36.1539 24.4847 36.0059C24.3664 35.8647 24.334 35.8071 24.34 35.6252C24.34 35.5839 24.3399 35.5427 24.3398 35.5002C24.432 35.1748 24.6592 35.0939 24.9715 35.0934Z" fill="#97A5B0"/>
<path d="M25.125 18.875C26.1181 18.8735 27.1112 18.8724 28.1043 18.8717C28.5654 18.8714 29.0265 18.871 29.4875 18.8702C29.8893 18.8696 30.291 18.8692 30.6927 18.8691C30.9056 18.869 31.1184 18.8688 31.3313 18.8684C31.5685 18.8679 31.8057 18.8678 32.043 18.8679C32.1496 18.8675 32.1496 18.8675 32.2583 18.8672C32.3547 18.8673 32.3547 18.8673 32.453 18.8674C32.5092 18.8674 32.5654 18.8673 32.6232 18.8673C32.75 18.875 32.75 18.875 32.8125 18.9375C32.8184 19.0525 32.8198 19.1678 32.8196 19.2831C32.8196 19.3938 32.8196 19.3938 32.8196 19.5068C32.8193 19.5871 32.8189 19.6674 32.8186 19.7502C32.8185 19.832 32.8184 19.9137 32.8183 19.998C32.8181 20.2157 32.8175 20.4334 32.8168 20.6511C32.8162 20.8732 32.8159 21.0952 32.8156 21.3172C32.8149 21.7531 32.8138 22.1891 32.8125 22.625C32.5856 22.625 32.3588 22.625 32.125 22.625C32.125 21.6143 32.125 20.6037 32.125 19.5625C29.815 19.5625 27.505 19.5625 25.125 19.5625C25.125 19.3356 25.125 19.1087 25.125 18.875Z" fill="#4AA9F5"/>
<path d="M13.9754 34.2127C14.0421 34.2125 14.1088 34.2122 14.1775 34.212C14.3978 34.2116 14.6181 34.2134 14.8384 34.2153C14.9915 34.2155 15.1446 34.2157 15.2977 34.2157C15.6184 34.2161 15.9391 34.2175 16.2599 34.2197C16.6713 34.2226 17.0828 34.2235 17.4942 34.2237C17.8103 34.224 18.1264 34.225 18.4424 34.2262C18.5942 34.2267 18.7459 34.2271 18.8976 34.2274C19.1095 34.228 19.3214 34.2294 19.5332 34.231C19.5961 34.2311 19.659 34.2311 19.7238 34.2312C19.7815 34.2318 19.8393 34.2324 19.8988 34.2331C19.9739 34.2335 19.9739 34.2335 20.0505 34.2339C20.2071 34.2525 20.3049 34.2905 20.4377 34.3752C20.5841 34.5947 20.5938 34.6792 20.5627 34.9377C20.4783 35.1037 20.4783 35.1037 20.3127 35.2502C20.0891 35.2978 19.8679 35.2922 19.64 35.2896C19.5372 35.2903 19.5372 35.2903 19.4324 35.291C19.2056 35.292 18.9789 35.2908 18.7522 35.2895C18.5948 35.2895 18.4374 35.2897 18.28 35.2899C17.9501 35.2901 17.6201 35.2892 17.2902 35.2875C16.9089 35.2855 16.5276 35.2855 16.1463 35.2866C15.7793 35.2876 15.4123 35.2871 15.0453 35.2861C14.8892 35.2857 14.7331 35.2858 14.577 35.2862C14.3589 35.2865 14.141 35.2852 13.923 35.2835C13.8582 35.2839 13.7935 35.2843 13.7268 35.2848C13.2919 35.2789 13.2919 35.2789 13.0854 35.1365C12.9575 34.9317 12.9629 34.799 13.0002 34.5627C13.2662 34.1812 13.5483 34.2064 13.9754 34.2127Z" fill="#98A6B1"/>
<path d="M13.9744 29.2187C14.041 29.2183 14.1076 29.218 14.1762 29.2176C14.3962 29.2169 14.6162 29.2179 14.8362 29.219C14.9891 29.219 15.1421 29.2189 15.295 29.2187C15.6155 29.2187 15.936 29.2194 16.2565 29.2209C16.6674 29.2226 17.0782 29.2225 17.4891 29.2217C17.8049 29.2212 18.1207 29.2217 18.4365 29.2225C18.588 29.2228 18.7395 29.2228 18.891 29.2226C19.1027 29.2224 19.3144 29.2234 19.5261 29.2248C19.6201 29.2243 19.6201 29.2243 19.716 29.2239C20.2533 29.2297 20.2533 29.2297 20.5002 29.4375C20.5905 29.6181 20.5863 29.7373 20.5627 29.9375C20.4357 30.1202 20.334 30.2328 20.1104 30.2788C19.9316 30.2904 19.7553 30.2915 19.5762 30.2895C19.5082 30.2899 19.4403 30.2904 19.3703 30.2908C19.146 30.2919 18.9216 30.2907 18.6973 30.2893C18.5414 30.2894 18.3855 30.2895 18.2296 30.2898C17.8611 30.29 17.4927 30.2886 17.1242 30.2867C16.7886 30.285 16.453 30.2854 16.1174 30.2864C15.754 30.2874 15.3905 30.287 15.0271 30.2859C14.8725 30.2856 14.718 30.2856 14.5635 30.286C14.3477 30.2863 14.132 30.2851 13.9162 30.2834C13.8522 30.2838 13.7881 30.2842 13.7221 30.2846C13.2898 30.2787 13.2898 30.2787 13.0858 30.1307C12.9941 29.9906 12.9648 29.9163 12.9651 29.75C12.9637 29.7088 12.9623 29.6675 12.9609 29.625C13.1055 29.1652 13.583 29.2149 13.9744 29.2187Z" fill="#97A5B0"/>
<path d="M36.4375 8.5623C36.664 8.55493 36.8906 8.55056 37.1172 8.54667C37.1805 8.54458 37.2438 8.54249 37.3091 8.54033C37.94 8.53224 38.4287 8.69384 38.8904 9.12944C39.2549 9.52963 39.454 9.96534 39.4517 10.5116C39.4517 10.5867 39.4517 10.6617 39.4517 10.739C39.451 10.8191 39.4504 10.8992 39.4497 10.9817C39.4495 11.0653 39.4493 11.1488 39.4492 11.2324C39.4487 11.4512 39.4475 11.6701 39.4461 11.8889C39.4448 12.1126 39.4442 12.3364 39.4436 12.5601C39.4423 12.9983 39.4401 13.4366 39.4375 13.8748C38.9837 13.8748 38.53 13.8748 38.0625 13.8748C38.0619 13.7664 38.0613 13.6579 38.0607 13.5462C38.0585 13.1857 38.0551 12.8253 38.051 12.4648C38.0485 12.2465 38.0465 12.0282 38.0456 11.8099C38.0444 11.5582 38.0413 11.3066 38.0381 11.055C38.038 10.9775 38.0379 10.9001 38.0379 10.8203C38.0264 10.1341 37.8675 9.62685 37.3933 9.12333C37.1994 8.95622 36.996 8.85036 36.7625 8.74809C36.625 8.6873 36.625 8.6873 36.4375 8.5623Z" fill="#003848"/>
<path d="M27.0577 27.4052C27.1207 27.4048 27.1836 27.4044 27.2484 27.4039C27.4566 27.4028 27.6647 27.4035 27.8729 27.4044C28.0175 27.4042 28.1622 27.404 28.3068 27.4037C28.61 27.4033 28.9132 27.4038 29.2164 27.405C29.6051 27.4064 29.9937 27.4056 30.3824 27.4041C30.6811 27.4032 30.9798 27.4035 31.2785 27.4041C31.4218 27.4043 31.5651 27.4041 31.7084 27.4035C31.9088 27.4029 32.1091 27.4038 32.3094 27.4052C32.3687 27.4047 32.428 27.4042 32.489 27.4037C32.7515 27.4071 32.9005 27.4158 33.1307 27.5512C33.2501 27.6876 33.2501 27.6876 33.2892 27.9024C33.2389 28.1891 33.1695 28.2632 32.9376 28.4376C32.7305 28.4833 32.5276 28.4803 32.3162 28.478C32.2538 28.4786 32.1915 28.4791 32.1273 28.4797C31.9215 28.481 31.7157 28.4801 31.5099 28.4791C31.3668 28.4793 31.2236 28.4796 31.0805 28.48C30.7806 28.4805 30.4807 28.4798 30.1808 28.4783C29.7964 28.4765 29.412 28.4776 29.0276 28.4794C28.7321 28.4806 28.4366 28.4802 28.141 28.4794C27.9993 28.4792 27.8575 28.4794 27.7158 28.4802C27.5177 28.481 27.3197 28.4798 27.1216 28.478C27.0337 28.479 27.0337 28.479 26.9441 28.4799C26.6628 28.4754 26.5381 28.4661 26.3072 28.2927C26.1504 28.073 26.1444 27.952 26.1876 27.6876C26.4028 27.3557 26.7001 27.4022 27.0577 27.4052Z" fill="#97A5B0"/>
<path d="M27.5696 32.7117C27.6265 32.7113 27.6833 32.711 27.7419 32.7106C27.9294 32.7099 28.1169 32.7114 28.3045 32.713C28.435 32.7131 28.5655 32.7131 28.696 32.713C28.9695 32.7131 29.2429 32.7143 29.5163 32.7163C29.8666 32.7187 30.2169 32.719 30.5673 32.7186C30.8368 32.7184 31.1063 32.7191 31.3757 32.7202C31.5049 32.7206 31.6341 32.7208 31.7633 32.7208C31.9439 32.7209 32.1244 32.7222 32.305 32.7239C32.3583 32.7237 32.4116 32.7235 32.4665 32.7233C32.7573 32.7275 32.9514 32.7484 33.1873 32.9376C33.2839 33.1309 33.2681 33.2873 33.2498 33.5001C33.1599 33.6372 33.1599 33.6372 32.9998 33.7501C32.8063 33.7876 32.6154 33.7849 32.4189 33.7835C32.3601 33.784 32.3013 33.7846 32.2408 33.7851C32.0465 33.7865 31.8523 33.7861 31.658 33.7855C31.523 33.7859 31.3881 33.7863 31.2531 33.7867C30.9702 33.7874 30.6874 33.7871 30.4045 33.7862C30.0417 33.7851 29.679 33.7866 29.3162 33.7888C29.0375 33.7901 28.7588 33.79 28.4801 33.7895C28.3464 33.7895 28.2126 33.7899 28.0788 33.7908C27.8919 33.7919 27.7051 33.791 27.5182 33.7896C27.4628 33.7903 27.4074 33.791 27.3504 33.7918C26.9761 33.786 26.9761 33.786 26.7782 33.6031C26.6655 33.3979 26.644 33.2933 26.6873 33.0626C26.9467 32.713 27.1648 32.7054 27.5696 32.7117Z" fill="#97A5B0"/>
<path d="M14.6895 31.7127C14.7392 31.7125 14.7888 31.7122 14.8399 31.712C15.0035 31.7116 15.1669 31.7134 15.3304 31.7153C15.4442 31.7155 15.5581 31.7157 15.672 31.7157C15.9103 31.7161 16.1487 31.7175 16.387 31.7197C16.6926 31.7226 16.998 31.7235 17.3036 31.7237C17.5386 31.724 17.7736 31.725 18.0086 31.7262C18.1212 31.7267 18.2339 31.7271 18.3466 31.7274C18.5039 31.728 18.6613 31.7294 18.8187 31.731C18.8652 31.7311 18.9117 31.7311 18.9597 31.7312C19.1894 31.7345 19.3723 31.7389 19.5626 31.8752C19.7092 32.0951 19.7238 32.1788 19.6876 32.4377C19.516 32.664 19.4232 32.7422 19.1399 32.7894C19.0471 32.7911 18.9544 32.7911 18.8616 32.7896C18.7853 32.7903 18.7853 32.7903 18.7075 32.791C18.5399 32.792 18.3725 32.7908 18.2049 32.7895C18.0882 32.7895 17.9716 32.7897 17.8549 32.7899C17.6107 32.7901 17.3664 32.7892 17.1222 32.7875C16.8091 32.7854 16.496 32.7857 16.1829 32.7869C15.9421 32.7876 15.7014 32.787 15.4606 32.7861C15.3451 32.7857 15.2297 32.7858 15.1142 32.7862C14.9529 32.7865 14.7917 32.7852 14.6304 32.7835C14.5589 32.7841 14.5589 32.7841 14.4859 32.7848C14.2699 32.7809 14.1467 32.7661 13.9707 32.6365C13.8286 32.4339 13.8369 32.3042 13.8751 32.0627C14.112 31.7497 14.3147 31.7052 14.6895 31.7127Z" fill="#97A5B0"/>
<path d="M16.4375 21.9376C17.7229 21.8713 18.7133 22.1936 19.6875 23.0626C20.2736 23.6383 20.8459 24.5339 20.8833 25.3739C20.8831 25.44 20.883 25.5061 20.8828 25.5743C20.8831 25.6742 20.8831 25.6742 20.8833 25.7762C20.875 25.9376 20.875 25.9376 20.8125 26.0001C20.6543 26.0046 20.4979 26.0059 20.3398 26.004C20.2732 26.0036 20.2732 26.0036 20.2052 26.0031C20.0951 26.0024 19.9851 26.0013 19.875 26.0001C19.8783 25.9387 19.8783 25.9387 19.8816 25.8761C19.9111 24.8824 19.5363 24.0092 18.8984 23.2579C18.2284 22.5662 17.383 22.153 16.4375 22.0001C16.4375 21.9795 16.4375 21.9588 16.4375 21.9376Z" fill="#FEC703"/>
<path d="M18.125 17.6875C18.5695 18.0257 18.8501 18.3943 19 18.9375C19.0775 19.7029 18.9799 20.3436 18.4883 20.9609C18.1029 21.3648 17.5889 21.6551 17.0303 21.7085C16.2609 21.7165 15.775 21.5548 15.1875 21.0625C15.2494 21.0316 15.2494 21.0316 15.3125 21C15.3782 21.0296 15.444 21.0593 15.5117 21.0898C16.035 21.294 16.6342 21.2576 17.1523 21.0586C17.8019 20.7447 18.0961 20.3476 18.375 19.6875C18.5487 19.1665 18.4835 18.5538 18.2483 18.0657C18.1887 17.9401 18.1541 17.823 18.125 17.6875Z" fill="#F8C7AB"/>
<path d="M18.5 10.4373C18.7009 10.5378 18.8231 10.6213 18.9609 10.7967C19.0499 11.117 19.0456 11.3874 18.8906 11.6795C18.7528 11.871 18.7099 11.92 18.5 11.9998C18.2177 12.0352 17.958 12.0316 17.6914 11.9295C17.4629 11.7218 17.3856 11.5223 17.3477 11.2186C17.386 10.9118 17.5111 10.7269 17.7397 10.5221C17.9783 10.3726 18.2283 10.3983 18.5 10.4373Z" fill="#62B3F4"/>
<path d="M11.8123 10.4373C12.044 10.5697 12.1475 10.6955 12.2498 10.9373C12.2958 11.2317 12.2762 11.4479 12.1404 11.7146C11.9727 11.9056 11.853 11.9836 11.6018 12.023C11.3288 12.0302 11.1256 12.0349 10.906 11.8591C10.7415 11.6782 10.6328 11.5503 10.6152 11.303C10.6506 10.9367 10.7355 10.7576 10.9998 10.4998C11.246 10.3766 11.5438 10.4089 11.8123 10.4373Z" fill="#F9675A"/>
<path d="M15.125 10.4377C15.3258 10.5382 15.4481 10.6217 15.5859 10.7971C15.6705 11.1016 15.6555 11.3527 15.5508 11.6448C15.4175 11.8423 15.3481 11.9148 15.125 12.0002C14.8669 12.0391 14.618 12.0611 14.3806 11.9387C14.2059 11.7996 14.0632 11.6527 14 11.4377C13.9704 11.1713 13.9813 11.0349 14.1094 10.7971C14.4114 10.428 14.6595 10.3709 15.125 10.4377Z" fill="#FCD82C"/>
<path d="M11.8125 10.4377C12.0117 10.5627 12.0117 10.5627 12.125 10.6877C12.1044 10.729 12.0838 10.7702 12.0625 10.8127C12.0262 10.8053 11.99 10.7979 11.9526 10.7903C11.6828 10.7457 11.5416 10.7302 11.2891 10.8518C11.0896 11.0323 10.9498 11.1662 10.9265 11.4438C10.9259 11.5669 10.9313 11.6899 10.9375 11.8127C10.6271 11.5123 10.6271 11.5123 10.6216 11.3157C10.6508 10.9417 10.7308 10.7628 11 10.5002C11.2456 10.3774 11.5448 10.408 11.8125 10.4377Z" fill="#EB5246"/>
<path d="M18.5 10.4376C18.6586 10.5041 18.7444 10.5707 18.875 10.6876C18.875 10.7288 18.875 10.7701 18.875 10.8126C18.835 10.8052 18.7949 10.7978 18.7537 10.7901C18.4739 10.7484 18.255 10.717 18 10.8556C17.8189 10.9952 17.7654 11.0457 17.6875 11.2501C17.6725 11.3977 17.6725 11.3977 17.6797 11.547C17.6808 11.5969 17.682 11.6469 17.6831 11.6983C17.6846 11.736 17.686 11.7737 17.6875 11.8126C17.6463 11.8126 17.605 11.8126 17.5625 11.8126C17.3965 11.5289 17.3339 11.3287 17.375 11.0001C17.6483 10.4925 17.9404 10.3558 18.5 10.4376Z" fill="#41A3F0"/>
<path d="M15.125 10.4376C15.2836 10.5041 15.3693 10.5707 15.5 10.6876C15.5 10.7288 15.5 10.7701 15.5 10.8126C15.4378 10.8025 15.4378 10.8025 15.3743 10.7923C15.0213 10.7389 15.0213 10.7389 14.6875 10.8399C14.6256 10.8882 14.6256 10.8882 14.5625 10.9376C14.5212 10.9376 14.48 10.9376 14.4375 10.9376C14.3105 11.2085 14.28 11.4554 14.25 11.7501C14.0689 11.5768 14.0052 11.4916 13.9805 11.2344C14.007 10.9157 14.1284 10.734 14.3647 10.5223C14.603 10.3731 14.8537 10.3979 15.125 10.4376Z" fill="#F7C404"/>
<path d="M9.5 8.8125C9.54125 8.83313 9.5825 8.85375 9.625 8.875C9.3775 9.1225 9.13 9.37 8.875 9.625C8.875 9.33861 9.05726 9.19885 9.25 9C9.39844 8.87891 9.39844 8.87891 9.5 8.8125Z" fill="#1A6D5E"/>
</g>
<defs>
<clipPath id="clip0_1572_1530">
<rect width="32" height="32" fill="white" transform="translate(8 8)"/>
</clipPath>
</defs>
</svg>
