<svg width="59" height="59" viewBox="0 0 59 59" fill="none" xmlns="http://www.w3.org/2000/svg">
<circle cx="29.5" cy="29.5" r="29.5" fill="#F4F7FE"/>
<path d="M13.0327 10.5051C13.0906 10.5049 13.1485 10.5046 13.2082 10.5043C13.4023 10.5036 13.5965 10.504 13.7907 10.5044C13.9312 10.5041 14.0717 10.5037 14.2123 10.5033C14.5987 10.5024 14.985 10.5024 15.3714 10.5026C15.7881 10.5026 16.2047 10.5017 16.6213 10.501C17.4377 10.4997 18.2541 10.4993 19.0704 10.4992C19.734 10.4992 20.3975 10.4988 21.0611 10.4984C22.942 10.497 24.8229 10.4963 26.7038 10.4964C26.7545 10.4964 26.8052 10.4964 26.8574 10.4964C26.9599 10.4964 27.0624 10.4964 27.1649 10.4964C28.7597 10.4965 30.3544 10.4954 31.9491 10.4933C33.741 10.4909 35.5329 10.4896 37.3248 10.4897C38.2734 10.4898 39.2221 10.4894 40.1708 10.4877C40.9785 10.4863 41.7862 10.486 42.594 10.487C43.0061 10.4875 43.4181 10.4875 43.8302 10.4862C44.2076 10.485 44.585 10.4852 44.9624 10.4865C45.0988 10.4868 45.2352 10.4865 45.3716 10.4856C46.3166 10.4801 47.0866 10.5462 47.8029 11.222C48.2873 11.7538 48.4994 12.313 48.4952 13.0327C48.4954 13.0906 48.4957 13.1485 48.496 13.2082C48.4967 13.4023 48.4963 13.5965 48.496 13.7907C48.4962 13.9312 48.4966 14.0717 48.497 14.2123C48.498 14.5987 48.4979 14.985 48.4978 15.3714C48.4977 15.7881 48.4986 16.2047 48.4993 16.6213C48.5006 17.4377 48.501 18.2541 48.5011 19.0704C48.5012 19.734 48.5015 20.3975 48.502 21.0611C48.5033 22.942 48.504 24.8229 48.5039 26.7038C48.5039 26.7545 48.5039 26.8052 48.5039 26.8574C48.5039 26.9599 48.5039 27.0624 48.5039 27.1649C48.5038 28.7597 48.5049 30.3544 48.507 31.9491C48.5094 33.741 48.5107 35.5329 48.5106 37.3248C48.5105 38.2734 48.5109 39.2221 48.5126 40.1708C48.514 40.9785 48.5143 41.7862 48.5133 42.594C48.5128 43.0061 48.5128 43.4181 48.5141 43.8302C48.5153 44.2076 48.5151 44.585 48.5138 44.9624C48.5135 45.0988 48.5138 45.2352 48.5147 45.3716C48.5202 46.3166 48.4541 47.0866 47.7783 47.8029C47.2465 48.2873 46.6873 48.4994 45.9676 48.4952C45.8807 48.4956 45.8807 48.4956 45.7921 48.496C45.598 48.4967 45.4038 48.4963 45.2097 48.496C45.0691 48.4962 44.9286 48.4966 44.788 48.497C44.4016 48.498 44.0153 48.4979 43.6289 48.4978C43.2123 48.4977 42.7956 48.4986 42.379 48.4993C41.5626 48.5006 40.7462 48.501 39.9299 48.5011C39.2663 48.5012 38.6028 48.5015 37.9393 48.502C36.0583 48.5033 34.1774 48.504 32.2965 48.5039C32.2458 48.5039 32.1951 48.5039 32.1429 48.5039C32.0404 48.5039 31.9379 48.5039 31.8354 48.5039C30.2406 48.5038 28.6459 48.5049 27.0512 48.507C25.2593 48.5094 23.4674 48.5107 21.6755 48.5106C20.7269 48.5105 19.7782 48.5109 18.8295 48.5126C18.0218 48.514 17.2141 48.5143 16.4063 48.5133C15.9942 48.5128 15.5822 48.5128 15.1701 48.5141C14.7927 48.5153 14.4153 48.5151 14.0379 48.5138C13.9015 48.5135 13.7651 48.5138 13.6287 48.5147C12.6837 48.5202 11.9138 48.4541 11.1974 47.7783C10.713 47.2465 10.5009 46.6873 10.5051 45.9676C10.5049 45.9097 10.5046 45.8518 10.5043 45.7921C10.5036 45.598 10.504 45.4038 10.5044 45.2097C10.5041 45.0691 10.5037 44.9286 10.5033 44.788C10.5024 44.4016 10.5024 44.0153 10.5026 43.6289C10.5026 43.2123 10.5017 42.7956 10.501 42.379C10.4997 41.5626 10.4993 40.7462 10.4992 39.9299C10.4992 39.2663 10.4988 38.6028 10.4984 37.9393C10.497 36.0583 10.4963 34.1774 10.4964 32.2965C10.4964 32.2458 10.4964 32.1951 10.4964 32.1429C10.4964 32.0404 10.4964 31.9379 10.4964 31.8354C10.4965 30.2406 10.4954 28.6459 10.4933 27.0512C10.4909 25.2593 10.4896 23.4674 10.4897 21.6755C10.4898 20.7269 10.4894 19.7782 10.4877 18.8295C10.4863 18.0218 10.486 17.2141 10.487 16.4063C10.4875 15.9942 10.4875 15.5822 10.4862 15.1701C10.485 14.7927 10.4852 14.4153 10.4865 14.0379C10.4868 13.9015 10.4865 13.7651 10.4856 13.6287C10.4801 12.6837 10.5462 11.9138 11.222 11.1974C11.7538 10.713 12.313 10.5009 13.0327 10.5051Z" fill="#E5F7FE"/>
<path d="M13.0327 10.5051C13.0906 10.5049 13.1485 10.5046 13.2082 10.5043C13.4023 10.5036 13.5965 10.504 13.7907 10.5044C13.9312 10.5041 14.0717 10.5037 14.2123 10.5033C14.5987 10.5024 14.985 10.5024 15.3714 10.5026C15.7881 10.5026 16.2047 10.5017 16.6213 10.501C17.4377 10.4997 18.2541 10.4993 19.0704 10.4992C19.734 10.4992 20.3975 10.4988 21.0611 10.4984C22.942 10.497 24.8229 10.4963 26.7038 10.4964C26.7545 10.4964 26.8052 10.4964 26.8574 10.4964C26.9599 10.4964 27.0624 10.4964 27.1649 10.4964C28.7597 10.4965 30.3544 10.4954 31.9491 10.4933C33.741 10.4909 35.5329 10.4896 37.3248 10.4897C38.2734 10.4898 39.2221 10.4894 40.1708 10.4877C40.9785 10.4863 41.7862 10.486 42.594 10.487C43.0061 10.4875 43.4181 10.4875 43.8302 10.4862C44.2076 10.485 44.585 10.4852 44.9624 10.4865C45.0988 10.4868 45.2352 10.4865 45.3716 10.4856C46.3166 10.4801 47.0866 10.5462 47.8029 11.222C48.2873 11.7538 48.4994 12.313 48.4952 13.0327C48.4954 13.0906 48.4957 13.1485 48.496 13.2082C48.4967 13.4023 48.4963 13.5965 48.496 13.7907C48.4962 13.9312 48.4966 14.0717 48.497 14.2123C48.498 14.5987 48.4979 14.985 48.4978 15.3714C48.4977 15.7881 48.4986 16.2047 48.4993 16.6213C48.5006 17.4377 48.501 18.2541 48.5011 19.0704C48.5012 19.734 48.5015 20.3975 48.502 21.0611C48.5033 22.942 48.504 24.8229 48.5039 26.7038C48.5039 26.7545 48.5039 26.8052 48.5039 26.8574C48.5039 26.9599 48.5039 27.0624 48.5039 27.1649C48.5038 28.7597 48.5049 30.3544 48.507 31.9491C48.5094 33.741 48.5107 35.5329 48.5106 37.3248C48.5105 38.2734 48.5109 39.2221 48.5126 40.1708C48.514 40.9785 48.5143 41.7862 48.5133 42.594C48.5128 43.0061 48.5128 43.4181 48.5141 43.8302C48.5153 44.2076 48.5151 44.585 48.5138 44.9624C48.5135 45.0988 48.5138 45.2352 48.5147 45.3716C48.5202 46.3166 48.4541 47.0866 47.7783 47.8029C47.2465 48.2873 46.6873 48.4994 45.9676 48.4952C45.8807 48.4956 45.8807 48.4956 45.7921 48.496C45.598 48.4967 45.4038 48.4963 45.2097 48.496C45.0691 48.4962 44.9286 48.4966 44.788 48.497C44.4016 48.498 44.0153 48.4979 43.6289 48.4978C43.2123 48.4977 42.7956 48.4986 42.379 48.4993C41.5626 48.5006 40.7462 48.501 39.9299 48.5011C39.2663 48.5012 38.6028 48.5015 37.9393 48.502C36.0583 48.5033 34.1774 48.504 32.2965 48.5039C32.2458 48.5039 32.1951 48.5039 32.1429 48.5039C32.0404 48.5039 31.9379 48.5039 31.8354 48.5039C30.2406 48.5038 28.6459 48.5049 27.0512 48.507C25.2593 48.5094 23.4674 48.5107 21.6755 48.5106C20.7269 48.5105 19.7782 48.5109 18.8295 48.5126C18.0218 48.514 17.2141 48.5143 16.4063 48.5133C15.9942 48.5128 15.5822 48.5128 15.1701 48.5141C14.7927 48.5153 14.4153 48.5151 14.0379 48.5138C13.9015 48.5135 13.7651 48.5138 13.6287 48.5147C12.6837 48.5202 11.9138 48.4541 11.1974 47.7783C10.713 47.2465 10.5009 46.6873 10.5051 45.9676C10.5049 45.9097 10.5046 45.8518 10.5043 45.7921C10.5036 45.598 10.504 45.4038 10.5044 45.2097C10.5041 45.0691 10.5037 44.9286 10.5033 44.788C10.5024 44.4016 10.5024 44.0153 10.5026 43.6289C10.5026 43.2123 10.5017 42.7956 10.501 42.379C10.4997 41.5626 10.4993 40.7462 10.4992 39.9299C10.4992 39.2663 10.4988 38.6028 10.4984 37.9393C10.497 36.0583 10.4963 34.1774 10.4964 32.2965C10.4964 32.2458 10.4964 32.1951 10.4964 32.1429C10.4964 32.0404 10.4964 31.9379 10.4964 31.8354C10.4965 30.2406 10.4954 28.6459 10.4933 27.0512C10.4909 25.2593 10.4896 23.4674 10.4897 21.6755C10.4898 20.7269 10.4894 19.7782 10.4877 18.8295C10.4863 18.0218 10.486 17.2141 10.487 16.4063C10.4875 15.9942 10.4875 15.5822 10.4862 15.1701C10.485 14.7927 10.4852 14.4153 10.4865 14.0379C10.4868 13.9015 10.4865 13.7651 10.4856 13.6287C10.4801 12.6837 10.5462 11.9138 11.222 11.1974C11.7538 10.713 12.313 10.5009 13.0327 10.5051ZM13.2137 19.7436C13.1129 19.9452 13.1272 20.0933 13.1272 20.3191C13.127 20.4093 13.1268 20.4995 13.1266 20.5924C13.1268 20.6923 13.1269 20.7922 13.1271 20.8952C13.127 21.0017 13.1269 21.1083 13.1268 21.2148C13.1264 21.5086 13.1266 21.8025 13.1268 22.0963C13.127 22.4127 13.1267 22.7292 13.1265 23.0456C13.1262 23.666 13.1263 24.2863 13.1265 24.9066C13.1267 25.4105 13.1267 25.9144 13.1266 26.4183C13.1266 26.4899 13.1266 26.5615 13.1266 26.6353C13.1265 26.7807 13.1265 26.9261 13.1265 27.0716C13.1263 28.4366 13.1265 29.8016 13.1269 31.1666C13.1273 32.3391 13.1272 33.5116 13.1269 34.6841C13.1264 36.0442 13.1263 37.4043 13.1265 38.7644C13.1265 38.9093 13.1266 39.0542 13.1266 39.199C13.1266 39.2703 13.1266 39.3416 13.1266 39.4151C13.1267 39.9187 13.1266 40.4224 13.1264 40.926C13.1262 41.5393 13.1262 42.1525 13.1267 42.7658C13.1269 43.079 13.1269 43.3922 13.1267 43.7054C13.1265 43.9917 13.1266 44.2779 13.127 44.5642C13.1271 44.7178 13.1269 44.8714 13.1266 45.025C13.1268 45.115 13.127 45.2049 13.1272 45.2976C13.1272 45.3759 13.1272 45.4542 13.1272 45.5349C13.1172 45.7072 13.1172 45.7072 13.2137 45.7866C13.3863 45.7942 13.5591 45.7961 13.7319 45.7961C13.7869 45.7962 13.842 45.7962 13.8988 45.7963C14.0857 45.7965 14.2726 45.7962 14.4595 45.7959C14.594 45.7959 14.7284 45.796 14.8628 45.7961C15.234 45.7962 15.6052 45.7959 15.9764 45.7955C16.376 45.7952 16.7757 45.7953 17.1753 45.7954C17.8682 45.7954 18.5612 45.7952 19.2542 45.7947C20.2561 45.7941 21.2581 45.7939 22.26 45.7938C23.8854 45.7936 25.5108 45.7931 27.1361 45.7924C28.7155 45.7917 30.2948 45.7912 31.8742 45.7908C31.9715 45.7908 32.0687 45.7908 32.169 45.7908C32.6569 45.7907 33.1449 45.7906 33.6329 45.7905C37.6841 45.7897 41.7354 45.7883 45.7866 45.7866C45.7884 42.48 45.7897 39.1734 45.7905 35.8667C45.7906 35.4768 45.7907 35.0868 45.7908 34.6969C45.7909 34.6193 45.7909 34.5416 45.7909 34.4616C45.7912 33.2029 45.7918 31.9441 45.7925 30.6853C45.7933 29.3947 45.7937 28.1041 45.7938 26.8134C45.7939 26.0164 45.7943 25.2193 45.7949 24.4223C45.7953 23.8765 45.7954 23.3307 45.7953 22.7849C45.7953 22.4695 45.7954 22.1542 45.7958 21.8388C45.7961 21.5505 45.7962 21.2623 45.7959 20.974C45.7959 20.8194 45.7962 20.6647 45.7965 20.51C45.7964 20.4194 45.7962 20.3288 45.7961 20.2354C45.7961 20.1566 45.7961 20.0777 45.7962 19.9965C45.8064 19.8232 45.8064 19.8232 45.7098 19.7436C45.5376 19.7361 45.3652 19.7341 45.1928 19.7342C45.1379 19.7341 45.0829 19.734 45.0263 19.7339C44.8398 19.7337 44.6534 19.7341 44.4669 19.7344C44.3328 19.7344 44.1987 19.7343 44.0646 19.7342C43.6942 19.734 43.3239 19.7343 42.9536 19.7347C42.5549 19.7351 42.1562 19.7349 41.7575 19.7349C41.0662 19.7348 40.3749 19.7351 39.6835 19.7355C38.684 19.7361 37.6844 19.7363 36.6848 19.7364C35.0633 19.7366 33.4417 19.7371 31.8202 19.7378C30.2445 19.7386 28.6689 19.7391 27.0933 19.7394C26.9477 19.7395 26.9477 19.7395 26.7992 19.7395C26.3124 19.7396 25.8256 19.7397 25.3387 19.7398C21.2971 19.7406 17.2554 19.7419 13.2137 19.7436Z" fill="#72D562"/>
<path d="M13.0327 10.5051C13.0906 10.5049 13.1485 10.5046 13.2082 10.5043C13.4023 10.5036 13.5965 10.504 13.7907 10.5044C13.9312 10.5041 14.0717 10.5037 14.2123 10.5033C14.5987 10.5024 14.985 10.5024 15.3714 10.5026C15.7881 10.5026 16.2047 10.5017 16.6214 10.501C17.4377 10.4997 18.2541 10.4993 19.0704 10.4992C19.734 10.4992 20.3975 10.4988 21.0611 10.4984C22.942 10.497 24.8229 10.4963 26.7038 10.4964C26.7545 10.4964 26.8052 10.4964 26.8574 10.4964C26.9599 10.4964 27.0624 10.4964 27.165 10.4964C28.7597 10.4965 30.3544 10.4954 31.9491 10.4933C33.741 10.4909 35.5329 10.4896 37.3248 10.4897C38.2734 10.4898 39.2221 10.4894 40.1708 10.4877C40.9785 10.4863 41.7862 10.486 42.594 10.487C43.0061 10.4875 43.4182 10.4875 43.8303 10.4862C44.2077 10.485 44.585 10.4852 44.9624 10.4865C45.0988 10.4868 45.2352 10.4865 45.3716 10.4856C46.3167 10.4801 47.0866 10.5462 47.8029 11.222C49.2104 12.7674 48.4754 15.1788 48.4754 17.0548C35.9518 17.0548 23.4281 17.0548 10.5249 17.0548C10.5249 11.9363 10.5249 11.9363 11.222 11.1974C11.7539 10.713 12.3131 10.5009 13.0327 10.5051Z" fill="#004960"/>
<path d="M10.5249 17.0547C23.0486 17.0547 35.5722 17.0547 48.4754 17.0547C48.4818 21.9063 48.4881 26.758 48.4946 31.7567C48.4974 33.2898 48.5002 34.8229 48.5031 36.4025C48.5045 38.2716 48.5045 38.2716 48.5048 39.146C48.505 39.758 48.5062 40.37 48.5079 40.9819C48.5098 41.6877 48.5107 42.3934 48.5103 43.0992C48.5101 43.4602 48.5104 43.8213 48.5121 44.1823C48.5136 44.5089 48.5136 44.8356 48.5126 45.1622C48.5124 45.2801 48.5128 45.3981 48.5138 45.516C48.5207 46.4155 48.4129 47.1301 47.7783 47.8028C47.2839 48.253 46.7478 48.4969 46.0729 48.4903C45.9843 48.4898 45.8956 48.4893 45.8043 48.4888C45.7129 48.4875 45.6215 48.4862 45.5273 48.4849C45.4342 48.4842 45.341 48.4835 45.245 48.4828C45.0158 48.481 44.7866 48.4784 44.5575 48.4753C44.5575 48.4499 44.5575 48.4246 44.5575 48.3984C44.6113 48.3871 44.6652 48.3759 44.7207 48.3642C45.4666 48.1879 45.9165 47.8794 46.3763 47.2707C46.7458 46.6233 46.7417 46.0152 46.7391 45.2899C46.7395 45.1686 46.7401 45.0473 46.7407 44.926C46.7421 44.5929 46.742 44.2599 46.7417 43.9268C46.7417 43.562 46.743 43.1973 46.7441 42.8325C46.7461 42.1246 46.7469 41.4167 46.7473 40.7088C46.7478 39.8899 46.7497 39.071 46.7517 38.252C46.7561 36.0901 46.7586 33.9282 46.7613 31.7663C46.7692 26.9368 46.7772 22.1073 46.7853 17.1315C34.8194 17.1315 22.8534 17.1315 10.5249 17.1315C10.5249 17.1062 10.5249 17.0808 10.5249 17.0547Z" fill="#56C85A"/>
<path d="M13.2138 19.7437C13.7715 19.7437 14.3293 19.7437 14.9039 19.7437C14.9039 28.3378 14.9039 36.932 14.9039 45.7866C14.3462 45.7866 13.7884 45.7866 13.2138 45.7866C13.0814 45.6542 13.1273 45.4782 13.1273 45.2977C13.1271 45.2077 13.1269 45.1177 13.1267 45.025C13.1269 44.9249 13.127 44.8248 13.1272 44.7216C13.1271 44.6152 13.127 44.5088 13.1269 44.4024C13.1265 44.1085 13.1267 43.8147 13.1269 43.5209C13.1271 43.2045 13.1268 42.8882 13.1266 42.5718C13.1263 41.9515 13.1264 41.3312 13.1266 40.7109C13.1268 40.2069 13.1268 39.703 13.1267 39.199C13.1267 39.1275 13.1267 39.0559 13.1267 38.9821C13.1266 38.8367 13.1266 38.6913 13.1266 38.5459C13.1264 37.1808 13.1266 35.8156 13.127 34.4505C13.1274 33.278 13.1273 32.1055 13.127 30.933C13.1266 29.573 13.1264 28.213 13.1266 26.853C13.1267 26.7081 13.1267 26.5632 13.1267 26.4183C13.1267 26.3114 13.1267 26.3114 13.1267 26.2023C13.1268 25.6987 13.1267 25.1951 13.1265 24.6916C13.1263 24.0782 13.1264 23.4648 13.1268 22.8515C13.127 22.5383 13.127 22.225 13.1268 21.9118C13.1266 21.6255 13.1267 21.3391 13.1271 21.0528C13.1272 20.8993 13.127 20.7458 13.1267 20.5924C13.1269 20.5022 13.1271 20.412 13.1273 20.3191C13.1273 20.2408 13.1273 20.1625 13.1273 20.0818C13.137 19.8973 13.137 19.8973 13.2138 19.7437Z" fill="#CEF0FC"/>
<path d="M30.8828 23.2005C33.222 23.1974 33.222 23.1974 34.3733 23.1966C34.9973 23.1962 35.6212 23.1956 36.2451 23.1947C36.7389 23.1939 37.2327 23.1934 37.7265 23.1932C37.9881 23.1931 38.2497 23.1929 38.5114 23.1924C38.8029 23.1918 39.0945 23.1917 39.3861 23.1918C39.5172 23.1913 39.5172 23.1913 39.6509 23.1909C39.7693 23.1911 39.7693 23.1911 39.8902 23.1912C39.9592 23.1912 40.0282 23.1911 40.0994 23.191C40.2552 23.2005 40.2552 23.2005 40.332 23.2773C40.332 24.773 40.332 26.2688 40.332 27.8099C37.2138 27.8099 34.0955 27.8099 30.8828 27.8099C30.8828 26.2888 30.8828 24.7677 30.8828 23.2005Z" fill="#64B5F6"/>
<path d="M23.6501 27.883C24.6166 28.625 25.4337 29.738 25.6592 30.9598C25.6682 31.1165 25.6727 31.2734 25.6736 31.4303C25.6747 31.5113 25.6758 31.5923 25.6769 31.6758C25.6592 31.8817 25.6592 31.8817 25.5056 32.0353C25.3347 32.0546 25.3347 32.0546 25.1178 32.0548C25.0357 32.0553 24.9536 32.0557 24.869 32.0561C24.7786 32.0558 24.6881 32.0555 24.595 32.0552C24.5 32.0555 24.4051 32.0557 24.3073 32.056C24.0465 32.0566 23.7857 32.0564 23.5249 32.056C23.2524 32.0556 22.9798 32.0559 22.7073 32.0562C22.2495 32.0564 21.7918 32.0561 21.334 32.0553C20.8043 32.0545 20.2746 32.0548 19.745 32.0556C19.2907 32.0563 18.8364 32.0564 18.3821 32.056C18.1106 32.0558 17.839 32.0557 17.5675 32.0563C17.2649 32.0568 16.9623 32.0561 16.6597 32.0552C16.5693 32.0555 16.4788 32.0558 16.3856 32.0561C16.2625 32.0555 16.2625 32.0555 16.1369 32.0548C16.0653 32.0548 15.9937 32.0547 15.9199 32.0546C15.7491 32.0353 15.7491 32.0353 15.5954 31.8817C15.431 30.8796 15.8379 29.9221 16.3973 29.1112C17.2421 27.9693 18.3909 27.2061 19.7973 26.9245C21.1857 26.7259 22.4993 27.0952 23.6501 27.883Z" fill="#FEDA2E"/>
<path d="M22.0481 21.5106C22.6401 21.9194 23.2169 22.5533 23.3541 23.2775C23.4448 24.2165 23.332 25.0025 22.7251 25.7647C22.2514 26.2611 21.6196 26.6179 20.933 26.6835C20.0232 26.6931 19.3425 26.5191 18.6679 25.8895C18.4916 25.6965 18.3457 25.4962 18.207 25.2749C18.1751 25.2255 18.1432 25.1761 18.1103 25.1252C17.773 24.506 17.7925 23.6378 17.9861 22.9702C18.2719 22.271 18.8507 21.685 19.5081 21.3233C20.2774 21.0154 21.3331 21.1093 22.0481 21.5106Z" fill="#FED6BD"/>
<path d="M32.8043 13.0495C32.9046 13.049 33.005 13.0486 33.1085 13.0482C33.2208 13.0481 33.3331 13.048 33.4454 13.0479C33.5628 13.0475 33.6803 13.0472 33.7978 13.0467C34.1178 13.0457 34.4378 13.0452 34.7578 13.0449C34.9576 13.0447 35.1574 13.0444 35.3572 13.044C35.982 13.043 36.6069 13.0422 37.2317 13.0419C37.9536 13.0416 38.6754 13.0402 39.3973 13.038C39.9548 13.0363 40.5123 13.0356 41.0698 13.0355C41.403 13.0354 41.7361 13.0349 42.0693 13.0336C42.3828 13.0323 42.6963 13.0321 43.0098 13.0328C43.1249 13.0329 43.2399 13.0325 43.3549 13.0318C43.5121 13.0308 43.6692 13.0314 43.8264 13.032C43.9143 13.0319 44.0022 13.0318 44.0928 13.0317C44.4297 13.0728 44.6281 13.2077 44.8648 13.4444C44.9035 13.6777 44.8997 13.9021 44.8648 14.1358C44.7206 14.328 44.6159 14.4139 44.4038 14.5199C44.246 14.5278 44.088 14.5306 43.93 14.5312C43.8289 14.5318 43.7278 14.5323 43.6236 14.5329C43.5108 14.5331 43.398 14.5333 43.2853 14.5335C43.1671 14.534 43.0488 14.5345 42.9306 14.535C42.6089 14.5364 42.2871 14.5372 41.9654 14.5378C41.7645 14.5382 41.5635 14.5387 41.3626 14.5392C40.7341 14.5406 40.1057 14.5417 39.4773 14.5424C38.7514 14.5431 38.0255 14.5451 37.2997 14.5482C36.7389 14.5506 36.1781 14.5517 35.6174 14.5519C35.2823 14.5521 34.9473 14.5528 34.6122 14.5547C34.297 14.5565 33.9818 14.5569 33.6666 14.5561C33.5509 14.556 33.4352 14.5565 33.3196 14.5576C33.1616 14.5589 33.0037 14.5584 32.8457 14.5574C32.7131 14.5577 32.7131 14.5577 32.5778 14.5579C32.2913 14.5116 32.1637 14.414 31.9585 14.2126C31.8653 13.982 31.8501 13.7677 31.8817 13.5212C32.0641 13.2907 32.0641 13.2907 32.2658 13.1371C32.4046 12.9983 32.6173 13.05 32.8043 13.0495Z" fill="#ECF2F5"/>
<path d="M31.1041 30.3736C31.2046 30.3731 31.3052 30.3725 31.4089 30.372C31.6843 30.3705 31.9596 30.3715 32.235 30.373C32.5235 30.3743 32.8119 30.3736 33.1004 30.3732C33.5847 30.3729 34.069 30.3741 34.5534 30.3763C35.1131 30.3787 35.6727 30.3787 36.2324 30.3774C36.7712 30.3762 37.3099 30.3767 37.8487 30.378C38.0778 30.3785 38.3069 30.3785 38.536 30.3779C38.8561 30.3772 39.176 30.379 39.4961 30.3811C39.6385 30.3804 39.6385 30.3804 39.7839 30.3796C39.8712 30.3806 39.9584 30.3816 40.0483 30.3826C40.1239 30.3828 40.1995 30.383 40.2774 30.3832C40.5444 30.4331 40.6755 30.5434 40.8697 30.7294C40.9207 30.8831 40.9207 30.8831 40.9177 31.0367C40.9187 31.0874 40.9197 31.1381 40.9207 31.1903C40.8415 31.429 40.6904 31.5126 40.4856 31.6513C40.276 31.6902 40.276 31.6902 40.0448 31.6908C39.9568 31.6918 39.8688 31.6928 39.7782 31.6938C39.6824 31.6933 39.5865 31.6928 39.4878 31.6923C39.3853 31.6928 39.2828 31.6935 39.1803 31.6943C38.9025 31.696 38.6248 31.6958 38.347 31.6951C38.1151 31.6947 37.8831 31.6953 37.6511 31.6958C37.104 31.6971 36.5568 31.6968 36.0097 31.6956C35.4452 31.6943 34.8808 31.6955 34.3163 31.698C33.8315 31.7 33.3466 31.7006 32.8618 31.6999C32.5723 31.6995 32.2828 31.6997 31.9933 31.7013C31.6707 31.703 31.3482 31.7015 31.0256 31.6998C30.9296 31.7007 30.8336 31.7016 30.7347 31.7025C30.603 31.701 30.603 31.701 30.4687 31.6995C30.3924 31.6995 30.3162 31.6995 30.2376 31.6994C29.9606 31.6327 29.8804 31.5029 29.7304 31.2672C29.6751 30.9722 29.699 30.8543 29.8633 30.6028C30.196 30.2905 30.6777 30.3696 31.1041 30.3736Z" fill="#96A4AF"/>
<path d="M30.6941 36.9988C30.824 36.9977 30.824 36.9977 30.9565 36.9965C31.0985 36.997 31.0985 36.997 31.2434 36.9975C31.3434 36.997 31.4433 36.9965 31.5463 36.9959C31.8203 36.9946 32.0942 36.9947 32.3682 36.9951C32.5969 36.9953 32.8256 36.9949 33.0543 36.9944C33.5939 36.9933 34.1334 36.9934 34.6729 36.9943C35.2296 36.9952 35.7862 36.9941 36.3429 36.9921C36.8208 36.9904 37.2988 36.9898 37.7768 36.9903C38.0622 36.9906 38.3477 36.9904 38.6331 36.9891C38.9513 36.9876 39.2695 36.9887 39.5877 36.99C39.6824 36.9893 39.777 36.9886 39.8746 36.9878C39.9612 36.9885 40.0478 36.9893 40.137 36.9901C40.2122 36.9901 40.2875 36.9901 40.365 36.9901C40.6211 37.04 40.7124 37.1313 40.87 37.3359C40.9084 37.6048 40.9084 37.6048 40.87 37.8736C40.7265 38.0553 40.6149 38.1548 40.409 38.2578C40.2766 38.2656 40.1438 38.2685 40.0111 38.2691C39.9268 38.2696 39.8424 38.2702 39.7555 38.2707C39.6626 38.2709 39.5696 38.2711 39.4739 38.2714C39.3763 38.2719 39.2787 38.2724 39.1782 38.2729C38.9101 38.2742 38.642 38.275 38.3739 38.2757C38.2065 38.2761 38.039 38.2765 37.8715 38.277C37.3476 38.2785 36.8237 38.2796 36.2997 38.2802C35.6948 38.281 35.0899 38.283 34.485 38.2861C34.0176 38.2884 33.5501 38.2895 33.0826 38.2898C32.8034 38.29 32.5242 38.2907 32.2449 38.2926C31.9334 38.2947 31.6218 38.2944 31.3102 38.2939C31.1715 38.2953 31.1715 38.2953 31.03 38.2968C30.4057 38.2929 30.4057 38.2929 30.0959 38.1127C29.9406 37.9258 29.911 37.8407 29.9179 37.6C29.9178 37.5412 29.9177 37.4825 29.9176 37.422C30.0198 37.0392 30.3428 36.9997 30.6941 36.9988Z" fill="#98A6B1"/>
<path d="M30.694 43.1355C30.7806 43.1347 30.8672 43.1338 30.9565 43.1329C31.0511 43.1335 31.1458 43.1342 31.2433 43.1348C31.3933 43.134 31.3933 43.134 31.5462 43.1332C31.8202 43.1318 32.0941 43.1323 32.3681 43.1333C32.6548 43.1341 32.9416 43.1333 33.2283 43.1329C33.7098 43.1323 34.1913 43.133 34.6728 43.1345C35.2295 43.1362 35.7861 43.1356 36.3428 43.1339C36.8208 43.1325 37.2987 43.1324 37.7767 43.1332C38.0622 43.1336 38.3476 43.1337 38.6331 43.1327C38.9513 43.1316 39.2694 43.1331 39.5876 43.1348C39.7296 43.1339 39.7296 43.1339 39.8745 43.1329C39.9611 43.1338 40.0477 43.1347 40.1369 43.1355C40.2122 43.1357 40.2874 43.1358 40.3649 43.1359C40.6208 43.186 40.712 43.2778 40.8699 43.4819C40.9219 43.7996 40.9123 43.9545 40.7357 44.2258C40.3495 44.5008 39.9805 44.4567 39.5174 44.4522C39.4191 44.4528 39.3207 44.4533 39.2194 44.4539C38.9502 44.4553 38.681 44.4543 38.4118 44.4528C38.1298 44.4515 37.8478 44.4522 37.5659 44.4526C37.0924 44.453 36.6189 44.4517 36.1454 44.4496C35.5983 44.4471 35.0512 44.4471 34.5041 44.4485C33.9774 44.4497 33.4507 44.4492 32.9239 44.4478C32.7 44.4473 32.476 44.4474 32.252 44.448C31.9392 44.4487 31.6264 44.4468 31.3136 44.4447C31.2207 44.4452 31.1279 44.4457 31.0322 44.4462C30.4053 44.439 30.4053 44.439 30.0956 44.2571C29.9502 44.0835 29.9104 44.0128 29.9178 43.7892C29.9177 43.7384 29.9176 43.6877 29.9175 43.6355C30.0308 43.2355 30.3101 43.1361 30.694 43.1355Z" fill="#97A5B0"/>
<path d="M30.8828 23.2005C32.1035 23.1987 33.3242 23.1973 34.5449 23.1965C35.1116 23.1961 35.6783 23.1956 36.2451 23.1947C36.7389 23.1939 37.2327 23.1934 37.7265 23.1932C37.9881 23.1931 38.2497 23.1929 38.5114 23.1924C38.8029 23.1918 39.0945 23.1917 39.3861 23.1918C39.5172 23.1913 39.5172 23.1913 39.6509 23.1909C39.7693 23.1911 39.7693 23.1911 39.8902 23.1912C39.9592 23.1912 40.0282 23.1911 40.0994 23.191C40.2552 23.2005 40.2552 23.2005 40.332 23.2773C40.3392 23.4187 40.3411 23.5605 40.3408 23.7021C40.3407 23.8382 40.3407 23.8382 40.3407 23.9771C40.3403 24.0758 40.3399 24.1746 40.3395 24.2763C40.3394 24.3768 40.3393 24.4773 40.3392 24.5808C40.3389 24.8485 40.3382 25.1161 40.3373 25.3837C40.3365 25.6566 40.3362 25.9295 40.3358 26.2024C40.335 26.7382 40.3336 27.274 40.332 27.8099C40.0532 27.8099 39.7743 27.8099 39.487 27.8099C39.487 26.5676 39.487 25.3254 39.487 24.0455C36.6476 24.0455 33.8082 24.0455 30.8828 24.0455C30.8828 23.7667 30.8828 23.4878 30.8828 23.2005Z" fill="#4AA9F5"/>
<path d="M17.1778 42.0532C17.2597 42.0529 17.3417 42.0526 17.4262 42.0523C17.697 42.0518 17.9677 42.054 18.2386 42.0563C18.4267 42.0567 18.6149 42.0568 18.8031 42.0569C19.1974 42.0574 19.5916 42.0591 19.9859 42.0618C20.4916 42.0653 20.9973 42.0664 21.5031 42.0667C21.8916 42.0671 22.2801 42.0682 22.6686 42.0697C22.8551 42.0704 23.0416 42.0709 23.2281 42.0713C23.4885 42.072 23.7489 42.0737 24.0093 42.0757C24.0866 42.0758 24.1639 42.0758 24.2436 42.0759C24.3145 42.0766 24.3855 42.0774 24.4586 42.0782C24.5509 42.0787 24.5509 42.0787 24.6451 42.0793C24.8376 42.1021 24.9579 42.1488 25.1211 42.2529C25.301 42.5227 25.3129 42.6266 25.2748 42.9443C25.171 43.1483 25.171 43.1483 24.9675 43.3284C24.6926 43.387 24.4207 43.3801 24.1406 43.3769C24.0142 43.3777 24.0142 43.3777 23.8854 43.3786C23.6066 43.3799 23.328 43.3784 23.0493 43.3767C22.8558 43.3768 22.6624 43.377 22.4689 43.3773C22.0634 43.3775 21.6578 43.3764 21.2522 43.3743C20.7836 43.3718 20.3149 43.3718 19.8462 43.3731C19.3951 43.3744 18.944 43.3738 18.4929 43.3725C18.301 43.3721 18.1091 43.3722 17.9173 43.3726C17.6493 43.3731 17.3814 43.3715 17.1134 43.3694C17.0338 43.3699 16.9542 43.3704 16.8722 43.3709C16.3377 43.3638 16.3377 43.3638 16.0839 43.1887C15.9266 42.937 15.9333 42.7738 15.9792 42.4834C16.3062 42.0145 16.6529 42.0455 17.1778 42.0532Z" fill="#98A6B1"/>
<path d="M17.1768 35.9147C17.2587 35.9143 17.3405 35.9139 17.4249 35.9135C17.6953 35.9125 17.9657 35.9138 18.2361 35.9152C18.4241 35.9152 18.6121 35.915 18.8001 35.9148C19.1941 35.9147 19.588 35.9157 19.9819 35.9174C20.487 35.9196 20.992 35.9194 21.497 35.9184C21.8852 35.9179 22.2734 35.9185 22.6615 35.9194C22.8478 35.9198 23.034 35.9198 23.2202 35.9195C23.4805 35.9193 23.7406 35.9206 24.0009 35.9222C24.1164 35.9217 24.1164 35.9217 24.2343 35.9212C24.8946 35.9283 24.8946 35.9283 25.1982 36.1838C25.3092 36.4057 25.304 36.5522 25.275 36.7983C25.1189 37.0229 24.9939 37.1613 24.719 37.2178C24.4993 37.2321 24.2825 37.2334 24.0624 37.2309C23.9789 37.2315 23.8954 37.232 23.8094 37.2326C23.5336 37.2339 23.2579 37.2324 22.9821 37.2308C22.7904 37.2308 22.5988 37.231 22.4072 37.2313C21.9543 37.2316 21.5014 37.2299 21.0485 37.2275C20.636 37.2255 20.2235 37.226 19.811 37.2272C19.3642 37.2284 18.9175 37.2279 18.4708 37.2266C18.2808 37.2262 18.0909 37.2262 17.901 37.2267C17.6357 37.2271 17.3706 37.2255 17.1054 37.2234C17.0266 37.2239 16.9479 37.2244 16.8668 37.2249C16.3354 37.2178 16.3354 37.2178 16.0847 37.0358C15.9719 36.8636 15.9359 36.7723 15.9363 36.5679C15.9346 36.5172 15.9329 36.4665 15.9312 36.4142C16.1089 35.849 16.6958 35.9101 17.1768 35.9147Z" fill="#97A5B0"/>
<path d="M44.7881 10.5249C45.0665 10.5159 45.345 10.5105 45.6235 10.5057C45.7014 10.5031 45.7792 10.5006 45.8594 10.4979C46.6349 10.488 47.2356 10.6866 47.8031 11.222C48.2511 11.7139 48.4959 12.2495 48.493 12.9209C48.493 13.0132 48.493 13.1054 48.493 13.2005C48.4922 13.2989 48.4914 13.3974 48.4906 13.4988C48.4903 13.6015 48.4901 13.7042 48.4899 13.8069C48.4893 14.0759 48.4878 14.3449 48.4861 14.6139C48.4846 14.8889 48.4839 15.1639 48.4831 15.4389C48.4814 15.9776 48.4787 16.5162 48.4756 17.0549C47.9179 17.0549 47.3601 17.0549 46.7855 17.0549C46.7848 16.9216 46.784 16.7883 46.7833 16.651C46.7806 16.2079 46.7764 15.7648 46.7714 15.3218C46.7683 15.0534 46.7659 14.7851 46.7647 14.5168C46.7633 14.2074 46.7594 13.8982 46.7555 13.5888C46.7554 13.4937 46.7553 13.3985 46.7552 13.3004C46.7411 12.4569 46.5458 11.8334 45.9629 11.2145C45.7246 11.0091 45.4745 10.879 45.1875 10.7533C45.0186 10.6786 45.0186 10.6786 44.7881 10.5249Z" fill="#003848"/>
<path d="M33.2585 33.6859C33.3359 33.6854 33.4132 33.6848 33.4929 33.6843C33.7488 33.6829 34.0046 33.6838 34.2605 33.6849C34.4383 33.6846 34.6161 33.6843 34.7938 33.684C35.1665 33.6835 35.5392 33.6842 35.9119 33.6856C36.3897 33.6874 36.8674 33.6863 37.3451 33.6845C37.7123 33.6834 38.0794 33.6837 38.4466 33.6845C38.6227 33.6847 38.7989 33.6845 38.975 33.6838C39.2213 33.683 39.4675 33.6842 39.7137 33.6859C39.7866 33.6853 39.8594 33.6847 39.9345 33.684C40.2571 33.6882 40.4403 33.6989 40.7232 33.8653C40.87 34.033 40.87 34.033 40.918 34.297C40.8562 34.6494 40.7709 34.7405 40.4859 34.9548C40.2313 35.0111 39.9819 35.0073 39.722 35.0045C39.6454 35.0052 39.5688 35.0059 39.4898 35.0066C39.2368 35.0083 38.9839 35.0071 38.731 35.0058C38.555 35.0061 38.3791 35.0065 38.2031 35.007C37.8345 35.0075 37.4659 35.0067 37.0973 35.0049C36.6248 35.0027 36.1524 35.004 35.6798 35.0063C35.3166 35.0077 34.9533 35.0072 34.5901 35.0062C34.4158 35.006 34.2416 35.0063 34.0674 35.0072C33.8239 35.0082 33.5805 35.0067 33.337 35.0045C33.229 35.0057 33.229 35.0057 33.1188 35.0069C32.7731 35.0013 32.6198 34.9899 32.336 34.7768C32.1433 34.5067 32.1358 34.358 32.189 34.033C32.4535 33.6251 32.8189 33.6822 33.2585 33.6859Z" fill="#97A5B0"/>
<path d="M33.8879 40.2081C33.9578 40.2076 34.0276 40.2072 34.0996 40.2068C34.3302 40.2059 34.5606 40.2077 34.7912 40.2097C34.9516 40.2099 35.112 40.2098 35.2725 40.2097C35.6086 40.2098 35.9446 40.2113 36.2807 40.2137C36.7113 40.2167 37.1419 40.2171 37.5726 40.2165C37.9038 40.2163 38.235 40.2172 38.5663 40.2185C38.725 40.2191 38.8838 40.2193 39.0426 40.2192C39.2646 40.2194 39.4865 40.221 39.7084 40.2231C39.774 40.2228 39.8395 40.2226 39.907 40.2224C40.2644 40.2275 40.503 40.2532 40.793 40.4858C40.9117 40.7233 40.8923 40.9156 40.8698 41.1772C40.7593 41.3457 40.7593 41.3457 40.5625 41.4845C40.3247 41.5305 40.09 41.5273 39.8484 41.5255C39.7762 41.5261 39.704 41.5268 39.6295 41.5275C39.3907 41.5292 39.152 41.5287 38.9132 41.528C38.7473 41.5284 38.5814 41.5289 38.4155 41.5295C38.0678 41.5303 37.7201 41.5299 37.3724 41.5288C36.9265 41.5275 36.4807 41.5293 36.0348 41.532C35.6922 41.5337 35.3497 41.5335 35.0071 41.5329C34.8427 41.5328 34.6782 41.5334 34.5138 41.5345C34.2841 41.5358 34.0545 41.5347 33.8247 41.533C33.7566 41.5339 33.6885 41.5348 33.6184 41.5357C33.1584 41.5286 33.1584 41.5286 32.9151 41.3038C32.7766 41.0515 32.7502 40.923 32.8034 40.6394C33.1222 40.2097 33.3903 40.2003 33.8879 40.2081Z" fill="#97A5B0"/>
<path d="M18.056 38.98C18.117 38.9797 18.178 38.9794 18.2409 38.9791C18.4419 38.9786 18.6427 38.9808 18.8437 38.9831C18.9837 38.9835 19.1236 38.9836 19.2636 38.9837C19.5566 38.9841 19.8495 38.9859 20.1425 38.9886C20.518 38.9921 20.8935 38.9932 21.2691 38.9935C21.5579 38.9939 21.8468 38.995 22.1357 38.9965C22.2741 38.9972 22.4126 38.9977 22.5511 38.9981C22.7445 38.9988 22.938 39.0005 23.1314 39.0025C23.1886 39.0026 23.2458 39.0026 23.3047 39.0027C23.5871 39.0068 23.8119 39.0121 24.0458 39.1797C24.2259 39.45 24.244 39.5529 24.1994 39.8711C23.9885 40.1493 23.8744 40.2453 23.5262 40.3035C23.4122 40.3055 23.2982 40.3054 23.1842 40.3037C23.0904 40.3045 23.0904 40.3045 22.9948 40.3054C22.7888 40.3067 22.5829 40.3052 22.377 40.3035C22.2336 40.3036 22.0902 40.3038 21.9468 40.3041C21.6465 40.3043 21.3463 40.3032 21.0461 40.3011C20.6613 40.2984 20.2765 40.2989 19.8917 40.3003C19.5957 40.3012 19.2997 40.3005 19.0037 40.2993C18.8618 40.2989 18.7199 40.299 18.578 40.2994C18.3797 40.2999 18.1816 40.2983 17.9833 40.2962C17.8954 40.2969 17.8954 40.2969 17.8057 40.2977C17.5402 40.2929 17.3888 40.2748 17.1724 40.1155C16.9977 39.8664 17.008 39.707 17.0549 39.4102C17.3461 39.0255 17.5952 38.9708 18.056 38.98Z" fill="#97A5B0"/>
<path d="M20.2046 26.9649C21.7846 26.8834 23.002 27.2796 24.1994 28.3477C24.9199 29.0554 25.6232 30.1562 25.6692 31.1886C25.669 31.27 25.6688 31.3513 25.6686 31.435C25.6689 31.5579 25.6689 31.5579 25.6692 31.6832C25.659 31.8816 25.659 31.8816 25.5822 31.9584C25.3878 31.964 25.1955 31.9655 25.0012 31.9632C24.9193 31.9627 24.9193 31.9627 24.8357 31.9621C24.7004 31.9612 24.5651 31.9598 24.4299 31.9584C24.4339 31.8829 24.4339 31.8829 24.438 31.8059C24.4742 30.5846 24.0135 29.5113 23.2295 28.5878C22.4059 27.7376 21.3668 27.2296 20.2046 27.0417C20.2046 27.0164 20.2046 26.991 20.2046 26.9649Z" fill="#FEC703"/>
<path d="M22.2786 21.7412C22.825 22.1569 23.1699 22.61 23.3542 23.2777C23.4495 24.2185 23.3294 25.006 22.7252 25.7648C22.2515 26.2613 21.6197 26.6181 20.933 26.6837C19.9873 26.6936 19.3901 26.4948 18.668 25.8896C18.744 25.8516 18.744 25.8516 18.8216 25.8128C18.9024 25.8493 18.9832 25.8857 19.0665 25.9233C19.7097 26.1742 20.4461 26.1295 21.0831 25.8848C21.8815 25.499 22.2431 25.0109 22.5859 24.1995C22.7994 23.5592 22.7193 22.8061 22.4302 22.206C22.357 22.0517 22.3144 21.9078 22.2786 21.7412Z" fill="#F8C7AB"/>
<path d="M22.7397 12.8295C22.9866 12.9529 23.1368 13.0556 23.3062 13.2712C23.4156 13.6649 23.4102 13.9972 23.2198 14.3563C23.0503 14.5917 22.9976 14.652 22.7397 14.7501C22.3926 14.7935 22.0735 14.7891 21.7458 14.6636C21.4649 14.4083 21.3699 14.1631 21.3232 13.7898C21.3704 13.4127 21.5241 13.1854 21.8052 12.9336C22.0984 12.75 22.4058 12.7816 22.7397 12.8295Z" fill="#62B3F4"/>
<path d="M14.5197 12.8295C14.8045 12.9922 14.9317 13.1469 15.0574 13.4441C15.114 13.8059 15.0899 14.0717 14.923 14.3995C14.7169 14.6343 14.5698 14.7302 14.261 14.7786C13.9255 14.7874 13.6757 14.7933 13.4057 14.5772C13.2036 14.3548 13.0699 14.1976 13.0483 13.8936C13.0918 13.4434 13.1961 13.2232 13.521 12.9063C13.8237 12.755 14.1897 12.7947 14.5197 12.8295Z" fill="#F9675A"/>
<path d="M18.5915 12.8295C18.8384 12.9529 18.9886 13.0556 19.1581 13.2712C19.262 13.6455 19.2435 13.9541 19.1148 14.3131C18.9511 14.556 18.8657 14.645 18.5915 14.7501C18.2742 14.7978 17.9684 14.8249 17.6765 14.6744C17.4618 14.5035 17.2864 14.3229 17.2087 14.0587C17.1723 13.7312 17.1858 13.5635 17.3431 13.2712C17.7143 12.8175 18.0194 12.7474 18.5915 12.8295Z" fill="#FCD82C"/>
<path d="M14.5195 12.8296C14.7644 12.9832 14.7644 12.9832 14.9036 13.1369C14.8783 13.1876 14.8529 13.2383 14.8268 13.2905C14.7822 13.2814 14.7377 13.2723 14.6918 13.2629C14.3601 13.2082 14.1865 13.1891 13.8761 13.3385C13.6309 13.5604 13.4591 13.725 13.4305 14.0662C13.4297 14.2174 13.4363 14.3687 13.444 14.5197C13.0624 14.1504 13.0624 14.1504 13.0557 13.9087C13.0916 13.4491 13.1899 13.2292 13.5208 12.9064C13.8227 12.7554 14.1904 12.7931 14.5195 12.8296Z" fill="#EB5246"/>
<path d="M22.7396 12.8294C22.9346 12.9111 23.04 12.993 23.2006 13.1367C23.2006 13.1874 23.2006 13.2381 23.2006 13.2903C23.1513 13.2812 23.1021 13.2721 23.0514 13.2627C22.7075 13.2114 22.4385 13.1728 22.125 13.3431C21.9025 13.5147 21.8367 13.5768 21.7409 13.8281C21.7225 14.0095 21.7225 14.0095 21.7313 14.193C21.7327 14.2544 21.7341 14.3158 21.7355 14.379C21.7373 14.4254 21.7391 14.4717 21.7409 14.5195C21.6902 14.5195 21.6395 14.5195 21.5873 14.5195C21.3832 14.1708 21.3063 13.9247 21.3568 13.5208C21.6928 12.8968 22.0518 12.7288 22.7396 12.8294Z" fill="#41A3F0"/>
<path d="M18.5914 12.8298C18.7864 12.9115 18.8917 12.9934 19.0523 13.1371C19.0523 13.1878 19.0523 13.2385 19.0523 13.2907C18.9758 13.2784 18.9758 13.2784 18.8978 13.2658C18.464 13.2001 18.464 13.2001 18.0536 13.3243C17.9776 13.3837 17.9776 13.3837 17.9 13.4444C17.8493 13.4444 17.7986 13.4444 17.7463 13.4444C17.5903 13.7773 17.5527 14.0809 17.5159 14.4431C17.2933 14.2301 17.215 14.1253 17.1846 13.8093C17.2172 13.4175 17.3664 13.1941 17.6569 12.9339C17.9497 12.7505 18.2579 12.781 18.5914 12.8298Z" fill="#F7C404"/>
<path d="M11.6774 10.832C11.7281 10.8574 11.7788 10.8827 11.8311 10.9089C11.5268 11.2131 11.2226 11.5173 10.9092 11.8307C10.9092 11.4787 11.1332 11.3069 11.3701 11.0625C11.5526 10.9137 11.5526 10.9137 11.6774 10.832Z" fill="#1A6D5E"/>
</svg>
