<svg width="48" height="48" viewBox="0 0 48 48" fill="none" xmlns="http://www.w3.org/2000/svg">
<circle cx="24" cy="24" r="24" fill="#F4F7FE"/>
<g clip-path="url(#clip0_1528_1504)">
<path d="M26.6266 8.59038C27.5666 9.25652 28.2827 10.1484 28.8828 11.1211C28.9099 11.1649 28.9371 11.2086 28.965 11.2538C29.5926 12.2828 30.1558 13.4586 30.4102 14.6406C30.4555 14.6285 30.5009 14.6165 30.5476 14.604C31.5851 14.3453 32.6627 14.2156 33.7305 14.1758C33.7984 14.173 33.8664 14.1703 33.9364 14.1675C35.6952 14.1318 37.4931 14.425 38.8134 15.6621C39.5076 16.3854 39.8327 17.2679 39.8689 18.2639C39.8011 20.7092 38.3186 22.8728 36.7852 24.668C36.7453 24.7007 36.7054 24.7335 36.6643 24.7673C36.5686 24.8672 36.5686 24.8672 36.5914 25.0285C36.6629 25.2288 36.7472 25.3228 36.8972 25.4731C38.4708 27.1572 39.9025 29.5564 39.8606 31.9249C39.7714 32.9863 39.3564 33.8297 38.5781 34.5625C37.0374 35.8175 34.9527 35.9196 33.0457 35.7744C32.9719 35.7688 32.8982 35.7632 32.8223 35.7574C32.0257 35.6909 31.1724 35.6134 30.4102 35.3594C30.3997 35.4024 30.3892 35.4455 30.3784 35.4898C30.2508 35.9872 30.0765 36.4523 29.8748 36.9241C29.8426 36.9995 29.8104 37.0748 29.7772 37.1525C28.9642 39.0245 27.761 40.957 25.8312 41.8223C24.9333 42.1504 23.8449 42.1236 22.9727 41.7344C21.7238 41.1429 20.8287 40.032 20.1172 38.8789C20.0901 38.8351 20.0629 38.7913 20.035 38.7462C19.4074 37.7172 18.8442 36.5414 18.5898 35.3594C18.5111 35.377 18.4323 35.3946 18.3512 35.4128C17.2845 35.6474 16.2279 35.7799 15.1367 35.8242C15.0694 35.827 15.0022 35.8299 14.9328 35.8328C13.2191 35.8686 11.4667 35.5373 10.1866 34.3378C9.48773 33.6097 9.16258 32.7224 9.13525 31.7195C9.19809 29.3527 10.5738 27.3113 12.0346 25.5507C12.0661 25.5123 12.0976 25.4739 12.1301 25.4343C12.1997 25.3503 12.2712 25.2679 12.3432 25.186C12.4263 25.0705 12.4263 25.0705 12.4086 24.9338C12.3314 24.7653 12.2329 24.6635 12.1028 24.531C10.5346 22.8353 9.09735 20.4513 9.1394 18.0751C9.2286 17.0136 9.6436 16.1703 10.4219 15.4375C11.5545 14.515 12.9693 14.2154 14.4062 14.1758C14.4755 14.1731 14.5448 14.1705 14.6161 14.1677C15.7878 14.144 17.5331 14.1122 18.5898 14.6406C18.6003 14.5976 18.6108 14.5545 18.6216 14.5101C18.7492 14.0127 18.9235 13.5476 19.1252 13.0759C19.1574 13.0005 19.1896 12.9251 19.2228 12.8474C20.0358 10.9755 21.239 9.043 23.1688 8.17767C24.3288 7.75381 25.5917 7.95142 26.6266 8.59038ZM21.8501 10.6893C21.0336 11.7308 19.7852 13.5996 19.7852 14.9726C19.8515 14.991 19.8515 14.991 19.9192 15.0098C21.2092 15.3712 22.5415 15.7569 23.7463 16.3523C24.2217 16.6038 24.2217 16.6038 24.7363 16.5796C24.8356 16.5329 24.9338 16.484 25.0312 16.4336C25.1672 16.3791 25.3036 16.3256 25.4403 16.273C25.5931 16.2117 25.7459 16.1504 25.8987 16.0891C26.5134 15.845 27.1302 15.6128 27.7581 15.4043C27.8207 15.3835 27.8833 15.3626 27.9478 15.3412C28.3666 15.2046 28.7889 15.085 29.2148 14.9726C29.1235 14.4877 28.9675 14.0565 28.7749 13.603C28.7453 13.5328 28.7157 13.4627 28.6852 13.3904C28.0017 11.7931 27.0704 10.1129 25.4463 9.32396C24.0279 8.79112 22.7377 9.61557 21.8501 10.6893ZM11.0325 16.5454C10.555 17.0492 10.3548 17.6432 10.3264 18.3345C10.3844 20.135 11.4444 21.786 12.5469 23.1406C12.6027 23.21 12.6584 23.2795 12.7142 23.3489C13.014 23.7231 13.014 23.7231 13.3438 24.0703C13.6264 23.962 13.8075 23.7486 14.012 23.5349C14.3365 23.2027 14.6711 22.8999 15.0356 22.6112C15.1885 22.4883 15.3328 22.3604 15.4771 22.2275C15.7652 21.9681 16.0699 21.7325 16.3777 21.4971C16.4258 21.4602 16.474 21.4233 16.5236 21.3853C16.725 21.2324 16.9145 21.0901 17.1385 20.9709C17.3893 20.7666 17.4079 20.5781 17.4402 20.2724C17.4474 20.2187 17.4546 20.1649 17.462 20.1095C17.4773 19.9942 17.4919 19.8788 17.5057 19.7633C17.5421 19.4614 17.584 19.1602 17.6257 18.859C17.6338 18.799 17.642 18.7391 17.6504 18.6774C17.7332 18.0838 17.8573 17.5051 17.9978 16.9225C18.0904 16.537 18.1567 16.1647 18.1914 15.7695C15.9634 15.3336 12.8551 14.8113 11.0325 16.5454ZM33.1536 15.4209C33.0888 15.4264 33.024 15.432 32.9572 15.4377C32.2338 15.5053 31.5216 15.6326 30.8086 15.7695C30.8498 16.2381 30.9431 16.6783 31.0535 17.135C31.1903 17.7042 31.291 18.2632 31.3557 18.845C31.3699 18.9641 31.3841 19.0833 31.3984 19.2025C31.4195 19.3794 31.4392 19.5558 31.4542 19.7333C31.4989 20.4476 31.4989 20.4476 31.8732 21.0258C32.068 21.1742 32.275 21.2969 32.489 21.4154C32.644 21.505 32.7787 21.613 32.916 21.7277C32.9605 21.7644 33.0051 21.8012 33.051 21.8391C33.0944 21.8755 33.1379 21.9119 33.1826 21.9494C33.2301 21.9889 33.2776 22.0284 33.3266 22.069C33.6419 22.3323 33.9507 22.6012 34.2534 22.8789C34.3882 23.0021 34.5257 23.1214 34.6643 23.2402C34.9655 23.502 35.2443 23.7854 35.5234 24.0703C36.747 23.539 37.8165 21.3244 38.2858 20.1484C38.6625 19.1318 38.8237 18.1228 38.3789 17.0976C37.8984 16.2773 37.0988 15.8316 36.2057 15.5947C35.2053 15.3514 34.1743 15.3326 33.1536 15.4209ZM19.3867 16.1015C19.1604 16.9901 18.9565 17.8802 18.7932 18.7827C18.7784 18.8631 18.7636 18.9436 18.7483 19.0265C18.7351 19.1013 18.722 19.1761 18.7084 19.2533C18.6967 19.3195 18.6849 19.3858 18.6729 19.4541C18.6439 19.6294 18.6439 19.6294 18.7227 19.8203C18.7576 19.7983 18.7925 19.7763 18.8285 19.7537C20.2003 18.8928 21.5977 18.1019 23.0391 17.3633C22.7536 17.1729 22.4424 17.0718 22.1218 16.9524C22.0513 16.9261 21.9809 16.8997 21.9082 16.8726C21.4225 16.6933 20.9341 16.5248 20.4409 16.3672C20.3808 16.3479 20.3208 16.3286 20.2589 16.3088C19.9692 16.218 19.6888 16.1412 19.3867 16.1015ZM26.8574 16.9565C26.7893 16.9818 26.7212 17.0071 26.651 17.0332C26.3108 17.1523 26.3108 17.1523 26.0273 17.3633C26.1022 17.402 26.1771 17.4407 26.2543 17.4805C27.4065 18.0792 28.5301 18.719 29.6299 19.4094C29.6847 19.4438 29.7396 19.4782 29.7962 19.5137C29.8443 19.5441 29.8925 19.5745 29.9421 19.6058C30.0732 19.6845 30.206 19.7539 30.3438 19.8203C30.1896 18.5707 29.9808 17.3079 29.6133 16.1015C28.7407 16.1015 27.6676 16.654 26.8574 16.9565ZM24.0118 18.1607C23.9692 18.1817 23.9265 18.2027 23.8826 18.2244C23.7423 18.2939 23.6023 18.3639 23.4624 18.4341C23.3905 18.4701 23.3905 18.4701 23.3171 18.5068C22.4276 18.953 21.5637 19.4333 20.7148 19.9531C20.6449 19.9959 20.575 20.0387 20.503 20.0827C19.8962 20.453 19.8962 20.453 19.2991 20.8384C19.1211 20.9492 19.1211 20.9492 18.9322 21.0281C18.7118 21.1345 18.6015 21.2145 18.457 21.414C18.3104 21.9032 18.3312 22.4356 18.3242 22.9414C18.3225 23.0203 18.3207 23.0992 18.3189 23.1806C18.307 23.7424 18.3055 24.3039 18.3074 24.8658C18.3076 24.9999 18.3074 25.1341 18.3069 25.2682C18.3039 26.155 18.3081 27.0421 18.3649 27.9273C18.3676 27.9891 18.3703 28.0508 18.3731 28.1145C18.3971 28.4162 18.4315 28.598 18.6595 28.807C18.8174 28.925 18.977 29.0263 19.1577 29.106C19.4212 29.2307 19.6598 29.3778 19.9033 29.5379C21.0475 30.2887 22.256 30.933 23.4733 31.5558C23.6156 31.6296 23.7561 31.7057 23.8961 31.7838C23.9653 31.8215 24.0345 31.8591 24.1057 31.8979C24.189 31.9449 24.189 31.9449 24.2741 31.9929C24.7136 32.1201 25.2986 31.6861 25.687 31.4912C25.7485 31.4604 25.7485 31.4604 25.8112 31.429C27.1506 30.7567 28.4544 29.9938 29.7009 29.1616C29.8789 29.0508 29.8789 29.0508 30.0678 28.9719C30.2882 28.8655 30.3985 28.7855 30.543 28.5859C30.6896 28.0968 30.6688 27.5643 30.6758 27.0586C30.6775 26.9797 30.6793 26.9007 30.6811 26.8194C30.693 26.2576 30.6945 25.6961 30.6926 25.1342C30.6924 25 30.6926 24.8659 30.6931 24.7318C30.6951 24.1348 30.6905 23.5382 30.6758 22.9414C30.674 22.8651 30.6721 22.7888 30.6702 22.7101C30.6636 22.4986 30.6531 22.2878 30.6408 22.0766C30.6389 22.0153 30.6369 21.9541 30.635 21.891C30.6101 21.5584 30.5527 21.3869 30.298 21.1639C30.1059 21.0227 29.9112 20.8976 29.6958 20.7949C29.399 20.6461 29.1219 20.479 28.8428 20.2996C27.7358 19.5908 26.5833 18.9607 25.4089 18.3718C25.3469 18.3406 25.3469 18.3406 25.2837 18.3088C24.6555 17.9616 24.6555 17.9616 24.0118 18.1607ZM16.8988 22.5925C16.8515 22.6314 16.8041 22.6703 16.7554 22.7104C16.6793 22.7734 16.6793 22.7734 16.6018 22.8376C16.5504 22.8801 16.499 22.9226 16.4461 22.9663C16.1163 23.24 15.7932 23.5186 15.4773 23.8083C15.341 23.9329 15.2021 24.0537 15.062 24.1741C14.7859 24.4141 14.529 24.6719 14.2734 24.9336C14.5109 25.5164 15.1953 25.9958 15.668 26.3945C15.7359 26.4526 15.8037 26.5107 15.8716 26.5688C16.4946 27.2055 16.4946 27.2055 17.1953 27.5898C17.1953 25.8805 17.1953 24.1712 17.1953 22.4101C17.0738 22.4101 16.9889 22.5184 16.8988 22.5925ZM31.8047 22.4101C31.8047 24.1194 31.8047 25.8287 31.8047 27.5898C32.4142 27.1327 32.9974 26.6704 33.5577 26.1543C33.7073 26.0173 33.859 25.8836 34.0127 25.7512C34.2625 25.5344 34.496 25.3034 34.7266 25.0664C34.4891 24.4836 33.8047 24.0042 33.332 23.6055C33.2641 23.5474 33.1963 23.4893 33.1284 23.4311C32.5054 22.7945 32.5054 22.7945 31.8047 22.4101ZM13.2135 26.0521C11.838 27.5657 10.2383 29.6831 10.3303 31.8463C10.4363 32.6584 10.749 33.2381 11.3806 33.7532C12.9689 34.9078 15.243 34.715 17.075 34.4297C17.4484 34.3695 17.8207 34.306 18.1914 34.2305C18.1502 33.7618 18.0569 33.3217 17.9465 32.865C17.8097 32.2958 17.709 31.7368 17.6443 31.155C17.6301 31.0358 17.6159 30.9166 17.6016 30.7975C17.5805 30.6206 17.5608 30.4442 17.5458 30.2667C17.5011 29.5523 17.5011 29.5523 17.1268 28.9742C16.932 28.8258 16.725 28.7031 16.511 28.5846C16.356 28.495 16.2213 28.3869 16.084 28.2723C16.0395 28.2356 15.9949 28.1988 15.949 28.1609C15.9056 28.1245 15.8621 28.0881 15.8174 28.0505C15.7699 28.0111 15.7224 27.9716 15.6734 27.9309C15.3581 27.6677 15.0493 27.3988 14.7466 27.1211C14.6118 26.9979 14.4743 26.8786 14.3357 26.7598C14.0763 26.5352 13.8388 26.2917 13.6016 26.0441C13.426 25.8835 13.3866 25.8894 13.2135 26.0521ZM35.4285 26.0116C35.3921 26.0496 35.3557 26.0875 35.3183 26.1266C35.2775 26.1684 35.2367 26.2103 35.1948 26.2535C35.1512 26.2986 35.1076 26.3438 35.0627 26.3904C34.7177 26.7419 34.3692 27.0709 33.9816 27.3758C33.8468 27.4835 33.7166 27.5924 33.5873 27.7063C33.5321 27.7547 33.5321 27.7547 33.4758 27.804C33.3985 27.8722 33.3218 27.9412 33.2458 28.0108C33.0267 28.2055 32.8236 28.3482 32.5562 28.4697C32.1591 28.6654 31.7849 28.8717 31.6259 29.3105C31.4446 29.9685 31.3951 30.6608 31.3292 31.3379C31.2769 31.8586 31.1767 32.3565 31.0535 32.865C30.943 33.3216 30.8498 33.7619 30.8086 34.2305C32.7844 34.6135 35.4701 35.1038 37.3078 33.9812C37.9842 33.5122 38.4254 33.0198 38.6168 32.2069C38.8883 30.5651 37.9417 28.8899 37.0294 27.5983C36.8448 27.3458 36.6506 27.1019 36.4531 26.8594C36.3973 26.7899 36.3416 26.7205 36.2858 26.6511C35.9913 26.2717 35.9913 26.2717 35.6562 25.9297C35.5193 25.9152 35.5193 25.9152 35.4285 26.0116ZM18.6562 30.1797C18.7573 31.0344 18.9105 31.8716 19.0962 32.7114C19.1119 32.7827 19.1119 32.7827 19.128 32.8554C19.2394 33.3817 19.2394 33.3817 19.3867 33.8984C20.0875 33.7505 20.761 33.535 21.437 33.3008C21.56 33.2582 21.56 33.2582 21.6856 33.2148C22.1415 33.0553 22.5927 32.8877 23.0391 32.7031C22.8493 32.5529 22.659 32.4387 22.4427 32.3306C22.3771 32.2974 22.3116 32.2642 22.244 32.23C22.1736 32.1944 22.1031 32.1588 22.0305 32.1221C20.9386 31.5626 19.8916 30.9313 18.8618 30.2647C18.7404 30.1739 18.7404 30.1739 18.6562 30.1797ZM30.2773 30.1797C30.2424 30.2017 30.2075 30.2236 30.1715 30.2463C28.7997 31.1072 27.4023 31.8981 25.9609 32.6367C26.242 32.8241 26.5461 32.9253 26.8616 33.0434C26.966 33.0826 26.966 33.0826 27.0725 33.1225C28.3147 33.6485 28.3147 33.6485 29.6133 33.8984C29.8396 33.0098 30.0435 32.1198 30.2068 31.2173C30.2216 31.1368 30.2364 31.0564 30.2517 30.9735C30.2715 30.8612 30.2715 30.8612 30.2916 30.7467C30.3033 30.6804 30.3151 30.6141 30.3271 30.5458C30.3561 30.3706 30.3561 30.3706 30.2773 30.1797ZM24.1125 33.499C23.2067 33.8825 22.2963 34.2252 21.3623 34.5334C21.3103 34.5506 21.2582 34.5678 21.2046 34.5856C20.7336 34.7408 20.2628 34.8934 19.7852 35.0273C19.8765 35.5122 20.0325 35.9435 20.2251 36.397C20.2547 36.4671 20.2843 36.5373 20.3148 36.6096C20.9983 38.2069 21.9296 39.8871 23.5537 40.676C24.1715 40.9081 24.8432 40.9037 25.4587 40.6677C25.8209 40.4942 26.1232 40.2694 26.4258 40.0078C26.4901 39.9566 26.5544 39.9054 26.6206 39.8527C27.9082 38.7771 28.753 36.8024 29.2148 35.2266C29.2148 35.1608 29.2148 35.0951 29.2148 35.0273C29.1712 35.0144 29.1276 35.0014 29.0827 34.988C27.677 34.5681 26.2876 34.1137 24.9422 33.5257C24.581 33.3682 24.4685 33.3454 24.1125 33.499Z" fill="#4FB96E"/>
<path d="M26.7377 21.6318C27.6607 22.3213 28.2725 23.1872 28.4843 24.3358C28.6101 25.5325 28.3699 26.6073 27.6189 27.5619C26.9558 28.3406 26.0472 28.8913 25.0142 29C23.7622 29.0717 22.7322 28.7953 21.7648 27.9715C21.0411 27.2921 20.5483 26.3614 20.4909 25.3589C20.4589 24.075 20.7908 23.0502 21.6836 22.0992C23.0268 20.8061 25.1793 20.605 26.7377 21.6318Z" fill="#E64B3B"/>
<path d="M33.9364 14.1674C35.6952 14.1317 37.4931 14.4249 38.8134 15.662C39.5076 16.3853 39.8327 17.2678 39.8689 18.2638C39.8027 20.6513 38.3915 22.7276 36.9208 24.5036C36.7853 24.6677 36.6521 24.8334 36.5195 24.9999C36.2803 24.8986 36.1249 24.7558 35.9426 24.5724C35.8642 24.4944 35.8642 24.4944 35.7841 24.4149C35.6562 24.2694 35.6562 24.2694 35.5898 24.0702C35.6285 24.0298 35.6672 23.9894 35.7071 23.9478C37.1054 22.4527 38.5248 20.4637 38.6113 18.3426C38.5811 17.6317 38.3512 17.0065 37.8477 16.4999C37.6797 16.3497 37.5067 16.2218 37.3164 16.1014C37.2586 16.0648 37.2586 16.0648 37.1997 16.0275C35.4898 15.0689 33.1545 15.4191 31.3324 15.7364C31.1605 15.766 30.9885 15.7933 30.8161 15.8195C30.7209 15.8346 30.6257 15.8497 30.5305 15.8649C30.4529 15.8771 30.3752 15.8893 30.2952 15.902C29.9063 15.9823 29.5332 16.1237 29.1581 16.2522C28.9099 16.3366 28.6608 16.4183 28.4117 16.5004C28.256 16.552 28.1003 16.6036 27.9446 16.6552C27.8387 16.6903 27.7327 16.7253 27.6267 16.7603C27.4705 16.8118 27.3144 16.8636 27.1583 16.9154C27.1116 16.9308 27.0648 16.9462 27.0166 16.962C26.7969 17.0352 26.583 17.1135 26.371 17.2066C26.0869 17.3281 25.9049 17.3512 25.6124 17.2399C25.4412 17.1635 25.2735 17.082 25.106 16.9979C25.0476 16.9694 24.9892 16.9409 24.929 16.9115C24.7857 16.8414 24.6427 16.7706 24.5 16.6991C24.6691 16.4991 24.8507 16.4239 25.0914 16.3271C25.2115 16.2787 25.2115 16.2787 25.334 16.2293C25.4212 16.1949 25.5084 16.1606 25.5957 16.1263C25.6399 16.1088 25.6841 16.0913 25.7297 16.0733C27.0092 15.5673 28.3054 15.1169 29.6483 14.8111C29.8218 14.7712 29.9947 14.729 30.1676 14.6867C31.412 14.3865 32.6578 14.2189 33.9364 14.1674Z" fill="#EFC419"/>
<path d="M12.4805 25C12.7197 25.1013 12.8751 25.244 13.0574 25.4275C13.1097 25.4795 13.162 25.5314 13.2159 25.5849C13.3438 25.7305 13.3438 25.7305 13.4102 25.9297C13.3715 25.9701 13.3328 26.0105 13.2929 26.0521C11.8946 27.5472 10.4752 29.5362 10.3887 31.6572C10.4189 32.3681 10.6488 32.9934 11.1523 33.5C11.3203 33.6501 11.4933 33.7781 11.6836 33.8984C11.7221 33.9228 11.7606 33.9472 11.8003 33.9724C13.5094 34.9305 15.8437 34.579 17.6665 34.2634C17.8388 34.234 18.0113 34.2066 18.1841 34.1804C18.2793 34.1653 18.3744 34.1502 18.4695 34.135C18.5471 34.1228 18.6248 34.1105 18.7048 34.0979C19.0937 34.0176 19.4668 33.8762 19.8419 33.7477C20.0901 33.6633 20.3392 33.5816 20.5883 33.4995C20.744 33.4479 20.8997 33.3963 21.0554 33.3447C21.1613 33.3096 21.2673 33.2745 21.3733 33.2396C21.5295 33.1881 21.6856 33.1363 21.8417 33.0844C21.8884 33.0691 21.9352 33.0537 21.9834 33.0379C22.2031 32.9647 22.417 32.8864 22.629 32.7933C22.9131 32.6718 23.0951 32.6487 23.3876 32.7599C23.5588 32.8364 23.7265 32.9179 23.894 33.002C23.9524 33.0305 24.0108 33.059 24.071 33.0883C24.2143 33.1585 24.3573 33.2293 24.5 33.3008C24.3255 33.5114 24.1254 33.5851 23.8743 33.685C23.8102 33.7106 23.8102 33.7106 23.7447 33.7368C23.6038 33.7927 23.4626 33.8477 23.3213 33.9026C23.2729 33.9215 23.2245 33.9405 23.1746 33.96C22.4583 34.2396 21.7367 34.4992 21.0054 34.7368C20.9242 34.7634 20.8429 34.7901 20.7593 34.8175C20.2706 34.9725 19.7862 35.0886 19.2828 35.1806C19.0526 35.227 18.8313 35.2879 18.6064 35.3552C17.4858 35.6619 16.2969 35.7949 15.1367 35.8242C15.0704 35.8269 15.004 35.8295 14.9357 35.8323C13.2226 35.8722 11.4655 35.5362 10.1866 34.3379C9.48773 33.6097 9.16258 32.7224 9.13525 31.7195C9.19951 29.2991 10.632 27.2358 12.1248 25.4408C12.2452 25.2953 12.3631 25.1479 12.4805 25Z" fill="#EFC419"/>
<path d="M19.7852 35.0273C19.8076 35.0899 19.8076 35.0899 19.8305 35.1536C20.5849 37.2403 21.4977 39.6152 23.6243 40.6428C24.2853 40.875 25.0251 40.8087 25.6497 40.51C25.9316 40.3461 26.1788 40.1533 26.4258 39.9414C26.4791 39.9012 26.5324 39.8609 26.5874 39.8195C27.9443 38.6753 28.6749 36.6621 29.2148 35.0273C29.6207 35.0963 30.0168 35.1706 30.4102 35.293C30.3216 35.7513 30.1835 36.162 30.0034 36.592C29.9769 36.6559 29.9503 36.7199 29.923 36.7857C29.0832 38.7826 27.8926 40.9613 25.7908 41.834C24.9236 42.1586 23.8105 42.1082 22.9727 41.7344C21.7238 41.1429 20.8287 40.032 20.1172 38.8789C20.0901 38.8351 20.0629 38.7913 20.035 38.7462C19.6451 38.1071 19.3387 37.442 19.0547 36.7498C19.0235 36.6739 18.9924 36.5981 18.9603 36.52C18.7979 36.1135 18.67 35.7235 18.5898 35.293C18.7516 35.2484 18.9135 35.2042 19.0754 35.1602C19.1442 35.1412 19.1442 35.1412 19.2143 35.1218C19.4105 35.0687 19.581 35.0273 19.7852 35.0273Z" fill="#3A97D2"/>
<path d="M26.8242 8.73024C27.6646 9.40109 28.3212 10.2106 28.8828 11.1209C28.9099 11.1646 28.9371 11.2084 28.965 11.2535C29.3549 11.8927 29.6613 12.5577 29.9453 13.25C29.9765 13.3258 30.0076 13.4017 30.0397 13.4798C30.2021 13.8863 30.33 14.2763 30.4102 14.7068C30.2733 14.7405 30.1363 14.7736 29.9993 14.8064C29.923 14.8249 29.8467 14.8434 29.7681 14.8624C29.5744 14.9006 29.4108 14.9095 29.2148 14.906C29.1975 14.8616 29.1802 14.8173 29.1623 14.7715C27.9485 11.5838 27.9485 11.5839 25.4504 9.3943C24.8416 9.16213 24.1693 9.15983 23.5579 9.386C21.4777 10.3936 20.5086 12.8534 19.7852 14.906C19.3771 14.8672 18.9882 14.8021 18.5898 14.7068C18.6784 14.2485 18.8165 13.8378 18.9966 13.4077C19.0231 13.3438 19.0497 13.2799 19.077 13.2141C19.9168 11.2171 21.1074 9.03843 23.2092 8.16578C24.4188 7.71298 25.795 8.0009 26.8242 8.73024Z" fill="#3A97D3"/>
<path d="M23.245 17.3277C23.3085 17.3614 23.3721 17.3951 23.4375 17.4299C23.5277 17.4687 23.6182 17.5068 23.7088 17.5445C23.8039 17.5864 23.8988 17.6284 23.9937 17.6706C24.067 17.703 24.067 17.703 24.1418 17.736C24.2613 17.7887 24.3806 17.8417 24.5 17.8947C24.3291 18.0935 24.1361 18.1858 23.9016 18.2986C23.8197 18.3385 23.7378 18.3784 23.6559 18.4183C23.6129 18.4392 23.5699 18.46 23.5255 18.4814C22.561 18.9497 21.6301 19.4606 20.7148 20.0197C20.6086 20.0846 20.6086 20.0846 20.5003 20.1507C20.2836 20.2835 20.0675 20.417 19.8516 20.551C19.7861 20.5916 19.7207 20.6321 19.6533 20.6739C19.3246 20.8801 19.0074 21.0929 18.7015 21.3317C18.5621 21.4348 18.4117 21.5139 18.2601 21.5974C17.7382 21.916 17.2737 22.317 16.8254 22.7302C16.6655 22.8739 16.501 23.0079 16.332 23.1408C16.0417 23.3697 15.7667 23.6117 15.4937 23.8609C15.3516 23.9899 15.2075 24.1157 15.062 24.2407C14.7859 24.4807 14.529 24.7385 14.2734 25.0002C14.0514 24.9034 13.901 24.7804 13.7297 24.6101C13.6836 24.565 13.6375 24.52 13.5899 24.4736C13.4697 24.3278 13.4284 24.2568 13.4102 24.0705C13.4886 23.9523 13.4886 23.9523 13.6104 23.8332C13.677 23.7671 13.677 23.7671 13.745 23.6997C13.7934 23.6536 13.8418 23.6075 13.8916 23.56C13.9404 23.5125 13.9891 23.4649 14.0393 23.4159C14.361 23.1055 14.691 22.8142 15.0426 22.538C15.1937 22.4179 15.3352 22.2921 15.4771 22.1613C16.0954 21.6064 16.7698 21.1002 17.4781 20.6664C17.7766 20.4772 18.061 20.2683 18.3473 20.0612C18.4281 20.0031 18.509 19.945 18.5898 19.8869C18.6391 19.8515 18.6883 19.816 18.739 19.7794C19.1591 19.4806 19.5915 19.2087 20.0342 18.9448C20.1059 18.9019 20.1776 18.859 20.2514 18.8149C20.8957 18.4322 21.5477 18.0633 22.2115 17.7157C22.3255 17.6553 22.4383 17.5927 22.5501 17.5285C22.9837 17.2889 22.9837 17.2889 23.245 17.3277Z" fill="#EFC419"/>
<path d="M34.7266 25C34.9486 25.0968 35.099 25.2198 35.2703 25.3901C35.3164 25.4352 35.3625 25.4802 35.4101 25.5266C35.5303 25.6724 35.5716 25.7434 35.5898 25.9297C35.5114 26.0479 35.5114 26.0479 35.3896 26.167C35.3452 26.2111 35.3008 26.2551 35.2551 26.3004C35.2067 26.3466 35.1583 26.3927 35.1084 26.4402C35.0349 26.5118 35.0349 26.5118 34.9599 26.5849C34.6453 26.8884 34.3236 27.1743 33.9798 27.4443C33.8051 27.5833 33.6371 27.7274 33.4692 27.8742C33.0922 28.2033 32.7066 28.5172 32.3069 28.8184C32.2637 28.851 32.2206 28.8837 32.1761 28.9174C31.9794 29.0637 31.7833 29.1997 31.5692 29.3193C31.3291 29.4553 31.1099 29.6063 30.8875 29.7688C30.7286 29.8839 30.5695 29.9988 30.4102 30.1133C30.3605 30.149 30.3109 30.1848 30.2598 30.2216C29.8402 30.5202 29.4081 30.7917 28.9658 31.0554C28.8942 31.0982 28.8226 31.1411 28.7488 31.1852C28.1009 31.5702 27.4442 31.939 26.7775 32.2905C26.6777 32.3432 26.5786 32.397 26.48 32.4519C26.2073 32.5993 26.0119 32.688 25.6953 32.6367C25.4816 32.5607 25.2778 32.4679 25.0728 32.3711C24.9899 32.3331 24.9899 32.3331 24.9054 32.2943C24.77 32.232 24.6349 32.1691 24.5 32.1055C24.6709 31.9067 24.8639 31.8144 25.0984 31.7016C25.1803 31.6617 25.2622 31.6218 25.3441 31.5819C25.3871 31.561 25.4301 31.5402 25.4745 31.5188C26.439 31.0505 27.3699 30.5396 28.2852 29.9805C28.356 29.9372 28.4268 29.894 28.4997 29.8495C28.7164 29.7167 28.9325 29.5832 29.1484 29.4492C29.2139 29.4086 29.2793 29.3681 29.3467 29.3263C29.6754 29.1201 29.9926 28.9073 30.2985 28.6685C30.4379 28.5654 30.5883 28.4863 30.7399 28.4028C31.2619 28.0842 31.7265 27.683 32.1749 27.2697C32.3333 27.1274 32.4962 26.9949 32.6638 26.8635C32.9748 26.6184 33.2665 26.3561 33.5577 26.0879C33.7073 25.9509 33.859 25.8172 34.0127 25.6848C34.2625 25.468 34.496 25.2371 34.7266 25Z" fill="#EFC419"/>
<path d="M30.543 21.4141C30.6387 21.4779 30.7345 21.5417 30.8303 21.6055C30.8836 21.6411 30.9369 21.6766 30.9919 21.7132C31.1524 21.8204 31.3122 21.9275 31.4685 22.0408C31.517 22.0749 31.5656 22.1091 31.6156 22.1443C31.8812 22.4323 31.8878 22.8269 31.8883 23.2021C31.8885 23.2455 31.8887 23.2888 31.889 23.3335C31.8896 23.4754 31.8892 23.6172 31.8887 23.759C31.8888 23.8585 31.889 23.958 31.8891 24.0574C31.8893 24.2653 31.889 24.4731 31.8884 24.681C31.8877 24.9465 31.8881 25.2119 31.8889 25.4774C31.8894 25.6826 31.8892 25.8878 31.8889 26.0931C31.8888 26.1909 31.8889 26.2887 31.8892 26.3866C31.8895 26.5237 31.889 26.6608 31.8883 26.7979C31.8881 26.9146 31.8881 26.9146 31.888 27.0336C31.8637 27.3557 31.8226 27.6321 31.5987 27.8726C31.5434 27.9135 31.4881 27.9544 31.4312 27.9966C31.3769 28.0378 31.3226 28.0791 31.2667 28.1216C31.1118 28.228 30.956 28.329 30.7966 28.4282C30.749 28.4578 30.7014 28.4874 30.6524 28.518C30.6163 28.5404 30.5802 28.5628 30.543 28.5859C30.5477 28.4996 30.5524 28.4132 30.5572 28.3242C30.609 27.3053 30.6198 26.2883 30.618 25.2682C30.6177 25.0448 30.6179 24.8214 30.6183 24.598C30.6198 23.5348 30.6007 22.4757 30.543 21.4141Z" fill="#3B97D2"/>
<path d="M18.4569 21.4141C18.4522 21.5004 18.4475 21.5868 18.4427 21.6758C18.3909 22.6947 18.3801 23.7117 18.3819 24.7318C18.3822 24.9552 18.382 25.1786 18.3816 25.402C18.3801 26.4652 18.3992 27.5243 18.4569 28.5859C18.3615 28.5225 18.2661 28.459 18.1707 28.3955C18.1175 28.3602 18.0644 28.3249 18.0097 28.2884C17.8341 28.1706 17.6624 28.0497 17.494 27.9219C17.4386 27.8808 17.3831 27.8397 17.3259 27.7974C17.0781 27.5299 17.1203 27.1542 17.1192 26.8054C17.1189 26.7621 17.1187 26.7187 17.1185 26.6741C17.1179 26.5319 17.1177 26.3897 17.1176 26.2475C17.1174 26.1479 17.1172 26.0483 17.117 25.9488C17.1166 25.7405 17.1165 25.5323 17.1165 25.324C17.1165 25.058 17.1156 24.792 17.1145 24.526C17.1137 24.3205 17.1136 24.115 17.1136 23.9095C17.1135 23.8115 17.1132 23.7135 17.1127 23.6154C17.1121 23.478 17.1123 23.3406 17.1127 23.2032C17.1126 23.1252 17.1125 23.0472 17.1124 22.9668C17.136 22.6432 17.1766 22.3672 17.4035 22.1274C17.4594 22.0865 17.5153 22.0456 17.5729 22.0034C17.632 21.9594 17.691 21.9154 17.7519 21.8701C17.8092 21.8292 17.8666 21.7883 17.9257 21.7461C17.9734 21.7107 18.0212 21.6752 18.0704 21.6387C18.3763 21.4141 18.3763 21.4141 18.4569 21.4141Z" fill="#3B97D2"/>
<path d="M17.3281 29.25C17.6326 29.365 17.8736 29.5152 18.1375 29.7024C18.1792 29.7307 18.2209 29.759 18.2639 29.7881C18.3039 29.8164 18.3439 29.8447 18.3852 29.8739C18.4213 29.8991 18.4575 29.9243 18.4947 29.9503C18.7113 30.1701 18.7478 30.4728 18.7966 30.7667C18.8095 30.8421 18.8223 30.9175 18.8356 30.9952C18.8557 31.1154 18.8557 31.1154 18.8762 31.238C18.9925 31.9144 19.1243 32.5836 19.2855 33.2507C19.2988 33.3063 19.3121 33.3618 19.3258 33.4191C19.3376 33.467 19.3494 33.515 19.3615 33.5645C19.3867 33.6992 19.3867 33.6992 19.3867 33.9648C19.225 34.0112 19.0632 34.0567 18.9011 34.1018C18.8553 34.115 18.8094 34.1283 18.7622 34.1419C18.4132 34.238 18.4132 34.238 18.1914 34.1641C18.1314 34.0063 18.1314 34.0063 18.0819 33.7942C18.0633 33.715 18.0446 33.6359 18.0254 33.5543C18.006 33.4671 17.9866 33.3798 17.9673 33.2925C17.9573 33.2485 17.9473 33.2045 17.937 33.1592C17.7799 32.4674 17.6488 31.7723 17.5356 31.072C17.5222 30.9889 17.5087 30.9058 17.4948 30.8202C17.414 30.2978 17.3607 29.7776 17.3281 29.25Z" fill="#3B97D2"/>
<path d="M18.2578 15.7695C18.4242 15.7959 18.587 15.8262 18.7517 15.8608C18.8209 15.8747 18.8209 15.8747 18.8914 15.8889C19.2353 15.9594 19.2353 15.9594 19.3867 16.0352C19.3471 16.3814 19.2935 16.7171 19.2191 17.058C19.2095 17.1028 19.1998 17.1477 19.1899 17.194C19.1482 17.3871 19.106 17.5801 19.0635 17.7731C18.9529 18.2754 18.8469 18.7722 18.7922 19.2844C18.7484 19.6706 18.6865 19.9084 18.3777 20.1621C18.2116 20.2818 18.0374 20.3834 17.8594 20.4844C17.7879 20.5333 17.7164 20.5821 17.6428 20.6325C17.4609 20.75 17.4609 20.75 17.3281 20.75C17.3658 20.0716 17.4599 19.4102 17.573 18.7412C17.5816 18.6894 17.5903 18.6376 17.5992 18.5843C18.034 15.9933 18.034 15.9933 18.2578 15.7695Z" fill="#3B97D2"/>
<path d="M31.6719 29.1836C31.6363 29.8869 31.5449 30.5696 31.427 31.2629C31.4183 31.3146 31.4097 31.3662 31.4007 31.4194C31.2841 32.1108 31.1532 32.7968 30.9912 33.4792C30.9667 33.5832 30.9667 33.5832 30.9417 33.6893C30.8543 34.0412 30.8543 34.0412 30.8086 34.1641C30.5877 34.2745 30.3648 34.1628 30.1362 34.1018C30.0862 34.0888 30.0361 34.0759 29.9845 34.0625C29.8606 34.0304 29.7369 33.9977 29.6133 33.9648C29.6529 33.6186 29.7065 33.2829 29.7809 32.942C29.7905 32.8972 29.8002 32.8523 29.8101 32.806C29.8518 32.6129 29.894 32.4199 29.9365 32.2269C30.0471 31.7246 30.1531 31.2278 30.2078 30.7157C30.2456 30.3827 30.2864 30.1757 30.5163 29.9255C30.7176 29.7708 30.9206 29.6419 31.1406 29.5156C31.2342 29.449 31.327 29.3814 31.4187 29.3123C31.6055 29.1836 31.6055 29.1836 31.6719 29.1836Z" fill="#3B97D2"/>
<path d="M30.8084 15.8361C30.8608 15.9939 30.8608 15.9939 30.9113 16.2061C30.9302 16.2852 30.9491 16.3643 30.9685 16.4459C30.9885 16.5331 31.0085 16.6204 31.0283 16.7077C31.0385 16.7517 31.0487 16.7957 31.0591 16.841C31.2179 17.5315 31.351 18.2247 31.4641 18.924C31.4776 19.0066 31.4911 19.0891 31.5049 19.1741C31.5899 19.7214 31.6405 20.2638 31.6716 20.8166C31.1593 20.4989 31.1593 20.4989 30.9412 20.3518C30.8918 20.326 30.8424 20.3002 30.7916 20.2736C30.5035 20.0989 30.3686 19.9592 30.2565 19.6364C30.183 19.3258 30.1365 19.0113 30.0904 18.6958C30.0646 18.5351 30.0382 18.3745 30.0116 18.214C29.9941 18.1082 29.9769 18.0023 29.9601 17.8963C29.8879 17.4522 29.7821 17.0217 29.6637 16.5877C29.619 16.3933 29.6022 16.2335 29.6131 16.0354C29.7872 15.9891 29.9616 15.9436 30.136 15.8984C30.2104 15.8786 30.2104 15.8786 30.2862 15.8583C30.6605 15.7622 30.6605 15.7622 30.8084 15.8361Z" fill="#3B97D2"/>
<path d="M24.8984 11.3867C25.1928 11.5287 25.3926 11.7052 25.5625 11.9844C25.695 12.386 25.7379 12.7168 25.5625 13.1133C25.3415 13.4416 25.1445 13.5954 24.7656 13.711C24.3483 13.7573 24.0465 13.6941 23.7031 13.4453C23.4538 13.2015 23.3181 12.9388 23.2964 12.5893C23.3158 12.2616 23.3928 11.9742 23.6162 11.7276C24.0278 11.3685 24.3543 11.3355 24.8984 11.3867Z" fill="#E64B3B"/>
<path d="M40.4949 24.0045C40.7575 24.2018 40.8744 24.4258 40.9686 24.7345C41.0156 25.1578 40.9412 25.4431 40.7029 25.797C40.4709 26.0563 40.2161 26.1318 39.8812 26.1866C39.533 26.2042 39.2474 26.1195 38.9857 25.8859C38.6851 25.5488 38.6238 25.2811 38.6303 24.8341C38.6586 24.4985 38.793 24.3202 39.0262 24.087C39.4969 23.7611 39.9874 23.7306 40.4949 24.0045Z" fill="#E64B3B"/>
<path d="M9.89884 24.024C10.127 24.2079 10.2953 24.3741 10.3554 24.6681C10.3916 25.067 10.3928 25.3914 10.1562 25.7306C9.86274 26.038 9.58633 26.1665 9.16007 26.1954C8.76694 26.1668 8.50442 26.0174 8.23039 25.7306C8.04758 25.4077 7.96803 25.1028 8.03117 24.7345C8.14903 24.3866 8.30909 24.131 8.62882 23.9376C9.06 23.7516 9.49623 23.7776 9.89884 24.024Z" fill="#E64B3B"/>
<path d="M14.4313 30.2213C14.7077 30.4714 14.8484 30.6701 14.8967 31.0371C14.9119 31.4468 14.8952 31.7261 14.6056 32.0392C14.2427 32.3589 14.0237 32.3948 13.5465 32.3896C13.1716 32.3555 12.9748 32.2114 12.7213 31.9313C12.5355 31.5453 12.5003 31.2014 12.6217 30.7899C13.0352 30.0869 13.6983 29.8684 14.4313 30.2213Z" fill="#E64B3B"/>
<path d="M24.9111 22.8419C25.057 23.0432 25.0664 23.1636 25.0626 23.4064C25.0206 23.5854 24.9621 23.6741 24.8322 23.8048C24.6501 23.8674 24.6501 23.8674 24.4421 23.9086C24.0516 23.9874 23.7949 24.075 23.5581 24.4066C23.4249 24.6554 23.3851 24.9058 23.3505 25.1838C23.2906 25.3787 23.2149 25.4323 23.0393 25.5314C22.8558 25.5744 22.6924 25.5696 22.508 25.5314C22.3143 25.391 22.2593 25.2799 22.2105 25.0474C22.162 24.4276 22.4448 23.8596 22.8307 23.3885C23.3743 22.873 24.1888 22.502 24.9111 22.8419Z" fill="#FA7A74"/>
</g>
<defs>
<clipPath id="clip0_1528_1504">
<rect width="34" height="34" fill="white" transform="translate(7.5 8)"/>
</clipPath>
</defs>
</svg>
