<svg width="59" height="60" viewBox="0 0 59 60" fill="none" xmlns="http://www.w3.org/2000/svg">
<circle cx="29.5" cy="30" r="29.5" fill="#F4F7FE"/>
<g clip-path="url(#clip0_1531_1506)">
<path d="M32.7282 11.0592C33.8837 11.878 34.7639 12.9743 35.5016 14.1698C35.5349 14.2236 35.5683 14.2775 35.6026 14.3329C36.374 15.5978 37.0663 17.043 37.3789 18.4959C37.4347 18.4811 37.4904 18.4662 37.5479 18.451C38.8232 18.133 40.1477 17.9735 41.4601 17.9245C41.5437 17.9212 41.6272 17.9178 41.7133 17.9143C43.8751 17.8706 46.0851 18.2309 47.7079 19.7515C48.5612 20.6406 48.9608 21.7253 49.0053 22.9495C48.922 25.9552 47.0997 28.6146 45.2149 30.8212C45.1658 30.8615 45.1168 30.9018 45.0663 30.9433C44.9487 31.0661 44.9487 31.0661 44.9767 31.2644C45.0646 31.5106 45.1682 31.6261 45.3526 31.8109C47.2868 33.8808 49.0466 36.8299 48.9951 39.7412C48.8854 41.0459 48.3753 42.0825 47.4187 42.9832C45.5249 44.5258 42.9625 44.6513 40.6184 44.4729C40.5278 44.466 40.4372 44.4591 40.3438 44.452C39.3647 44.3702 38.3158 44.275 37.3789 43.9627C37.366 44.0156 37.3532 44.0686 37.3399 44.1231C37.1831 44.7345 36.9688 45.3062 36.7208 45.886C36.6813 45.9787 36.6417 46.0713 36.601 46.1668C35.6016 48.4678 34.1227 50.8431 31.7507 51.9067C30.647 52.31 29.3091 52.277 28.237 51.7987C26.702 51.0716 25.6017 49.7062 24.7271 48.2888C24.6938 48.235 24.6604 48.1812 24.6261 48.1257C23.8547 46.8608 23.1624 45.4156 22.8498 43.9627C22.753 43.9844 22.6562 44.0061 22.5564 44.0284C21.2453 44.3167 19.9466 44.4796 18.6053 44.5341C18.5226 44.5376 18.4399 44.541 18.3547 44.5446C16.2483 44.5886 14.0943 44.1815 12.5208 42.7071C11.6618 41.8121 11.2621 40.7215 11.2285 39.4887C11.3057 36.5795 12.9967 34.0703 14.7922 31.9062C14.831 31.859 14.8697 31.8118 14.9096 31.7632C14.9952 31.6599 15.0831 31.5586 15.1717 31.4579C15.2737 31.316 15.2737 31.316 15.252 31.148C15.1571 30.9409 15.036 30.8157 14.8761 30.6528C12.9486 28.5685 11.1819 25.6382 11.2336 22.7174C11.3433 21.4128 11.8534 20.3761 12.81 19.4754C14.2021 18.3415 15.9413 17.9733 17.7074 17.9245C17.7926 17.9213 17.8777 17.918 17.9654 17.9147C19.4056 17.8855 21.5509 17.8465 22.8498 18.4959C22.8627 18.443 22.8755 18.3901 22.8888 18.3356C23.0456 17.7242 23.2599 17.1525 23.5079 16.5726C23.5474 16.48 23.587 16.3873 23.6277 16.2918C24.6271 13.9909 26.106 11.6155 28.478 10.5519C29.9039 10.0309 31.4562 10.2738 32.7282 11.0592ZM26.8572 13.6391C25.8536 14.9193 24.319 17.2163 24.319 18.904C24.4006 18.9267 24.4006 18.9267 24.4838 18.9497C26.0694 19.3939 27.7071 19.868 29.1879 20.5999C29.7723 20.909 29.7723 20.909 30.4048 20.8793C30.5268 20.8218 30.6476 20.7617 30.7673 20.6998C30.9345 20.6328 31.1021 20.5671 31.2702 20.5024C31.458 20.4271 31.6458 20.3517 31.8336 20.2763C32.5891 19.9763 33.3473 19.6909 34.119 19.4346C34.196 19.409 34.273 19.3834 34.3523 19.3571C34.8671 19.1891 35.3861 19.0421 35.9097 18.904C35.7974 18.308 35.6057 17.778 35.3689 17.2205C35.3325 17.1343 35.2961 17.048 35.2586 16.9592C34.4185 14.9958 33.2738 12.9306 31.2775 11.9609C29.534 11.3059 27.9481 12.3193 26.8572 13.6391ZM13.5605 20.8372C12.9736 21.4565 12.7276 22.1866 12.6927 23.0363C12.764 25.2494 14.0668 27.2788 15.422 28.9438C15.4905 29.0292 15.5591 29.1145 15.6276 29.1999C15.9961 29.6598 15.9961 29.6598 16.4015 30.0866C16.7489 29.9535 16.9715 29.6911 17.2228 29.4285C17.6217 29.0202 18.033 28.648 18.481 28.2931C18.669 28.142 18.8463 27.9849 19.0236 27.8215C19.3779 27.5026 19.7524 27.213 20.1307 26.9236C20.1899 26.8783 20.2491 26.833 20.3101 26.7863C20.5576 26.5984 20.7905 26.4234 21.0658 26.2769C21.3741 26.0257 21.397 25.794 21.4367 25.4184C21.4455 25.3523 21.4544 25.2862 21.4635 25.2181C21.4823 25.0764 21.5002 24.9345 21.5172 24.7926C21.5619 24.4215 21.6134 24.0513 21.6646 23.681C21.6747 23.6073 21.6847 23.5337 21.695 23.4578C21.7968 22.7281 21.9493 22.0169 22.122 21.3008C22.2358 20.8269 22.3173 20.3693 22.36 19.8835C19.6215 19.3477 15.8009 18.7057 13.5605 20.8372ZM40.751 19.455C40.6714 19.4618 40.5917 19.4687 40.5096 19.4757C39.6205 19.5587 38.7451 19.7152 37.8687 19.8835C37.9193 20.4595 38.034 21.0006 38.1697 21.5619C38.3378 22.2616 38.4616 22.9487 38.5411 23.6638C38.5586 23.8103 38.5761 23.9568 38.5937 24.1033C38.6196 24.3207 38.6438 24.5375 38.6622 24.7557C38.7171 25.6337 38.7171 25.6337 39.1773 26.3444C39.4167 26.5268 39.6711 26.6776 39.9341 26.8232C40.1247 26.9334 40.2902 27.0662 40.459 27.2071C40.5137 27.2523 40.5685 27.2975 40.6249 27.344C40.6783 27.3888 40.7317 27.4336 40.7867 27.4797C40.8451 27.5282 40.9035 27.5767 40.9637 27.6267C41.3512 27.9503 41.7308 28.2808 42.1029 28.6221C42.2686 28.7735 42.4376 28.9202 42.608 29.0663C42.9782 29.388 43.3209 29.7364 43.664 30.0866C45.1679 29.4336 46.4826 26.7114 47.0594 25.266C47.5225 24.0163 47.7206 22.7761 47.1738 21.516C46.5832 20.5077 45.6003 19.9598 44.5026 19.6686C43.273 19.3696 42.0057 19.3465 40.751 19.455ZM23.8293 20.2916C23.551 21.3839 23.3005 22.4779 23.0998 23.5872C23.0815 23.6861 23.0633 23.785 23.0445 23.8869C23.0284 23.9789 23.0122 24.0708 22.9955 24.1656C22.9811 24.2471 22.9667 24.3286 22.9518 24.4125C22.9163 24.6279 22.9163 24.6279 23.013 24.8626C23.056 24.8356 23.0989 24.8086 23.1432 24.7807C24.8294 23.7225 26.547 22.7504 28.3186 21.8425C27.9677 21.6086 27.5852 21.4842 27.1912 21.3375C27.1045 21.3051 27.0179 21.2728 26.9286 21.2394C26.3316 21.019 25.7313 20.8119 25.1251 20.6181C25.0512 20.5945 24.9774 20.5708 24.9013 20.5463C24.5452 20.4348 24.2005 20.3403 23.8293 20.2916ZM33.012 21.3426C32.9283 21.3736 32.8446 21.4047 32.7583 21.4368C32.3401 21.5832 32.3401 21.5832 31.9917 21.8425C32.0838 21.8901 32.1758 21.9376 32.2707 21.9866C33.6869 22.7225 35.068 23.5089 36.4198 24.3575C36.4872 24.3998 36.5547 24.4421 36.6242 24.4857C36.6834 24.5231 36.7426 24.5605 36.8036 24.599C36.9647 24.6957 37.128 24.781 37.2973 24.8626C37.1078 23.3267 36.8512 21.7745 36.3994 20.2916C35.3269 20.2916 34.0079 20.9707 33.012 21.3426ZM29.5143 22.8226C29.4619 22.8485 29.4094 22.8744 29.3554 22.901C29.183 22.9864 29.011 23.0725 28.839 23.1587C28.7506 23.2029 28.7506 23.2029 28.6604 23.2481C27.5671 23.7966 26.5052 24.3869 25.4618 25.0259C25.3758 25.0784 25.2899 25.131 25.2013 25.1852C24.4555 25.6403 24.4555 25.6403 23.7216 26.114C23.5028 26.2502 23.5028 26.2502 23.2706 26.3472C22.9996 26.478 22.8642 26.5763 22.6865 26.8216C22.5063 27.4228 22.5319 28.0773 22.5233 28.699C22.5211 28.796 22.519 28.893 22.5168 28.9929C22.5021 29.6835 22.5002 30.3737 22.5026 31.0644C22.5029 31.2293 22.5026 31.3941 22.502 31.559C22.4983 32.649 22.5034 33.7394 22.5733 34.8275C22.5766 34.9034 22.5799 34.9793 22.5833 35.0575C22.6128 35.4284 22.6551 35.6518 22.9354 35.9088C23.1294 36.0538 23.3256 36.1783 23.5477 36.2763C23.8717 36.4296 24.165 36.6104 24.4642 36.8071C25.8706 37.7301 27.3561 38.522 28.8524 39.2875C29.0273 39.3783 29.2 39.4718 29.3721 39.5678C29.4571 39.614 29.5421 39.6603 29.6297 39.708C29.7321 39.7658 29.7321 39.7658 29.8366 39.8247C30.3769 39.9811 31.0959 39.4476 31.5734 39.2081C31.649 39.1703 31.649 39.1703 31.7261 39.1317C33.3723 38.3052 34.975 37.3676 36.5071 36.3446C36.7259 36.2084 36.7259 36.2084 36.9581 36.1114C37.2291 35.9806 37.3645 35.8823 37.5422 35.637C37.7224 35.0358 37.6968 34.3813 37.7054 33.7597C37.7076 33.6627 37.7097 33.5656 37.7119 33.4657C37.7266 32.7751 37.7285 32.0849 37.7261 31.3942C37.7258 31.2294 37.7261 31.0645 37.7267 30.8996C37.7292 30.1658 37.7235 29.4326 37.7054 28.699C37.7032 28.6051 37.7009 28.5113 37.6986 28.4147C37.6905 28.1547 37.6775 27.8956 37.6624 27.6359C37.66 27.5607 37.6577 27.4854 37.6553 27.4078C37.6247 26.9991 37.5542 26.7882 37.241 26.5141C37.005 26.3405 36.7657 26.1868 36.5008 26.0605C36.136 25.8777 35.7954 25.6723 35.4524 25.4517C34.0917 24.5805 32.6751 23.806 31.2316 23.0822C31.1554 23.0439 31.1554 23.0439 31.0777 23.0048C30.3055 22.578 30.3055 22.578 29.5143 22.8226ZM20.7712 28.2701C20.713 28.3179 20.6548 28.3657 20.5949 28.415C20.5015 28.4924 20.5015 28.4924 20.4062 28.5714C20.343 28.6236 20.2798 28.6758 20.2147 28.7296C19.8094 29.066 19.4122 29.4085 19.024 29.7645C18.8564 29.9177 18.6856 30.0662 18.5135 30.2141C18.1741 30.5092 17.8583 30.8261 17.5442 31.1477C17.8361 31.864 18.6773 32.4533 19.2583 32.9434C19.3418 33.0148 19.4252 33.0862 19.5086 33.1577C20.2744 33.9402 20.2744 33.9402 21.1357 34.4127C21.1357 32.3117 21.1357 30.2106 21.1357 28.046C20.9863 28.046 20.882 28.179 20.7712 28.2701ZM39.093 28.046C39.093 30.147 39.093 32.248 39.093 34.4127C39.8422 33.8508 40.5591 33.2825 41.2478 32.6482C41.4317 32.4797 41.6181 32.3154 41.807 32.1527C42.1141 31.8862 42.4011 31.6023 42.6845 31.3109C42.3926 30.5946 41.5514 30.0053 40.9704 29.5152C40.8869 29.4438 40.8035 29.3724 40.7201 29.3009C39.9543 28.5184 39.9543 28.5184 39.093 28.046ZM16.2414 32.5225C14.5506 34.383 12.5844 36.9856 12.6974 39.6446C12.8278 40.6428 13.2121 41.3553 13.9884 41.9884C15.9407 43.4077 18.7359 43.1707 20.9877 42.82C21.4468 42.746 21.9044 42.6679 22.36 42.5751C22.3094 41.9991 22.1947 41.4581 22.059 40.8967C21.8909 40.197 21.7671 39.5099 21.6876 38.7949C21.6701 38.6484 21.6526 38.5019 21.635 38.3554C21.6091 38.138 21.5849 37.9211 21.5665 37.703C21.5116 36.8249 21.5116 36.8249 21.0514 36.1142C20.812 35.9319 20.5576 35.781 20.2946 35.6354C20.104 35.5252 19.9385 35.3924 19.7697 35.2515C19.715 35.2064 19.6602 35.1612 19.6038 35.1146C19.5504 35.0698 19.497 35.0251 19.442 34.9789C19.3836 34.9304 19.3252 34.8819 19.265 34.8319C18.8775 34.5083 18.4979 34.1778 18.1258 33.8365C17.9601 33.6851 17.7911 33.5385 17.6207 33.3924C17.3019 33.1164 17.01 32.817 16.7184 32.5127C16.5026 32.3152 16.4541 32.3226 16.2414 32.5225ZM43.5473 32.4728C43.5026 32.5194 43.4579 32.566 43.4118 32.6141C43.3617 32.6655 43.3116 32.717 43.26 32.77C43.2064 32.8256 43.1529 32.8811 43.0977 32.9383C42.6736 33.3704 42.2452 33.7748 41.7688 34.1496C41.6031 34.282 41.4431 34.4158 41.2841 34.5558C41.2163 34.6153 41.2163 34.6153 41.147 34.6759C41.0521 34.7598 40.9578 34.8446 40.8644 34.9301C40.5951 35.1694 40.3454 35.3448 40.0167 35.4942C39.5286 35.7347 39.0688 35.9883 38.8732 36.5276C38.6504 37.3364 38.5896 38.1875 38.5086 39.0197C38.4444 39.6597 38.3212 40.2717 38.1697 40.8967C38.0339 41.458 37.9193 41.9991 37.8687 42.5751C40.2972 43.0459 43.5984 43.6486 45.8573 42.2687C46.6886 41.6923 47.231 41.087 47.4662 40.0878C47.8 38.0698 46.6364 36.0107 45.515 34.4231C45.2882 34.1128 45.0494 33.813 44.8067 33.5148C44.7382 33.4295 44.6696 33.3441 44.6011 33.2588C44.239 32.7925 44.239 32.7925 43.8272 32.3721C43.6589 32.3543 43.6589 32.3543 43.5473 32.4728ZM22.9314 37.596C23.0556 38.6466 23.2439 39.6757 23.4722 40.7079C23.4915 40.7955 23.4915 40.7955 23.5112 40.8849C23.6482 41.5319 23.6482 41.5319 23.8293 42.167C24.6907 41.9852 25.5185 41.7203 26.3494 41.4324C26.5007 41.3801 26.5007 41.3801 26.6549 41.3267C27.2154 41.1306 27.7699 40.9246 28.3186 40.6977C28.0854 40.5131 27.8515 40.3728 27.5856 40.2399C27.505 40.1991 27.4244 40.1583 27.3414 40.1162C27.2548 40.0724 27.1682 40.0286 27.0789 39.9835C25.7368 39.2958 24.4498 38.5198 23.1841 37.7006C23.0348 37.5889 23.0348 37.5889 22.9314 37.596ZM37.2157 37.596C37.1727 37.623 37.1298 37.65 37.0855 37.6779C35.3993 38.7361 33.6817 39.7083 31.9101 40.6161C32.2556 40.8465 32.6294 40.9709 33.0171 41.1161C33.1455 41.1642 33.1455 41.1642 33.2764 41.2133C34.8032 41.8598 34.8032 41.8598 36.3994 42.167C36.6777 41.0748 36.9282 39.9807 37.1289 38.8714C37.1472 38.7725 37.1654 38.6736 37.1842 38.5718C37.2084 38.4338 37.2084 38.4338 37.2332 38.293C37.2476 38.2115 37.262 38.1301 37.2769 38.0461C37.3124 37.8307 37.3124 37.8307 37.2157 37.596ZM29.638 41.676C28.5247 42.1473 27.4057 42.5686 26.2576 42.9475C26.1936 42.9686 26.1297 42.9898 26.0638 43.0116C25.4849 43.2024 24.9061 43.39 24.319 43.5546C24.4313 44.1506 24.623 44.6807 24.8598 45.2381C24.8962 45.3243 24.9326 45.4106 24.9701 45.4995C25.8102 47.4628 26.9549 49.528 28.9512 50.4978C29.7106 50.783 30.5362 50.7777 31.2928 50.4876C31.738 50.2743 32.1095 49.998 32.4815 49.6764C32.5605 49.6135 32.6395 49.5506 32.7209 49.4857C34.3036 48.1637 35.342 45.7364 35.9097 43.7995C35.9097 43.7187 35.9097 43.6378 35.9097 43.5546C35.8561 43.5387 35.8025 43.5227 35.7472 43.5063C34.0195 42.9901 32.3116 42.4316 30.6578 41.7088C30.2139 41.5152 30.0756 41.4872 29.638 41.676Z" fill="#4FB96E"/>
<path d="M32.8651 27.0894C33.9996 27.9369 34.7515 29.0013 35.0119 30.413C35.1665 31.8839 34.8714 33.205 33.9482 34.3785C33.1332 35.3356 32.0163 36.0125 30.7466 36.1461C29.2077 36.2342 27.9416 35.8945 26.7525 34.8819C25.863 34.0468 25.2573 32.9028 25.1867 31.6705C25.1473 30.0924 25.5553 28.8328 26.6527 27.6639C28.3038 26.0744 30.9495 25.8273 32.8651 27.0894Z" fill="#E64B3B"/>
<path d="M41.7137 17.9146C43.8755 17.8708 46.0855 18.2311 47.7083 19.7518C48.5616 20.6408 48.9612 21.7255 49.0057 22.9498C48.9243 25.8845 47.1897 28.4366 45.382 30.6196C45.2154 30.8212 45.0517 31.0249 44.8888 31.2296C44.5947 31.1051 44.4037 30.9296 44.1796 30.7041C44.0832 30.6083 44.0832 30.6083 43.9848 30.5106C43.8276 30.3317 43.8276 30.3317 43.746 30.0868C43.7936 30.0371 43.8411 29.9875 43.8901 29.9363C45.6089 28.0987 47.3536 25.6538 47.4599 23.0467C47.4228 22.1729 47.1402 21.4044 46.5212 20.7816C46.3148 20.5971 46.1022 20.4398 45.8682 20.2919C45.7972 20.2469 45.7972 20.2469 45.7248 20.201C43.623 19.0228 40.7526 19.4532 38.5129 19.8432C38.3017 19.8796 38.0902 19.9131 37.8783 19.9453C37.7613 19.9638 37.6443 19.9824 37.5273 20.0011C37.4318 20.0161 37.3364 20.0312 37.2381 20.0467C36.76 20.1454 36.3014 20.3193 35.8403 20.4772C35.5352 20.581 35.229 20.6814 34.9229 20.7823C34.7315 20.8457 34.5401 20.9091 34.3488 20.9726C34.2186 21.0157 34.0883 21.0588 33.958 21.1017C33.766 21.1651 33.5741 21.2287 33.3823 21.2924C33.3248 21.3113 33.2673 21.3302 33.2081 21.3496C32.9381 21.4396 32.6752 21.5359 32.4145 21.6503C32.0653 21.7996 31.8416 21.8281 31.482 21.6913C31.2716 21.5973 31.0656 21.4971 30.8596 21.3938C30.7878 21.3588 30.716 21.3237 30.6421 21.2876C30.4659 21.2014 30.2901 21.1144 30.1147 21.0265C30.3226 20.7807 30.5458 20.6882 30.8417 20.5693C30.9893 20.5098 30.9893 20.5098 31.1399 20.4491C31.2471 20.4068 31.3543 20.3646 31.4615 20.3225C31.5159 20.301 31.5703 20.2794 31.6263 20.2573C33.199 19.6353 34.7922 19.0818 36.4428 18.7059C36.6561 18.6568 36.8686 18.605 37.0812 18.5529C38.6107 18.1839 40.142 17.9779 41.7137 17.9146Z" fill="#EFC419"/>
<path d="M15.3403 31.2295C15.6344 31.354 15.8254 31.5294 16.0495 31.7549C16.1137 31.8188 16.178 31.8827 16.2443 31.9485C16.4015 32.1274 16.4015 32.1274 16.4831 32.3722C16.4355 32.4219 16.388 32.4716 16.339 32.5227C14.6202 34.3604 12.8755 36.8052 12.7692 39.4123C12.8063 40.2862 13.0889 41.0547 13.7079 41.6774C13.9143 41.862 14.1269 42.0192 14.3609 42.1672C14.4082 42.1971 14.4555 42.2271 14.5043 42.258C16.605 43.4357 19.4743 43.0036 21.7149 42.6158C21.9267 42.5796 22.1387 42.546 22.3511 42.5137C22.468 42.4952 22.5849 42.4766 22.7018 42.4579C22.7973 42.4429 22.8927 42.4278 22.991 42.4123C23.4691 42.3136 23.9277 42.1398 24.3888 41.9819C24.6939 41.8781 25.0001 41.7777 25.3062 41.6768C25.4976 41.6134 25.6889 41.5499 25.8803 41.4865C26.0105 41.4433 26.1408 41.4003 26.2711 41.3573C26.4631 41.294 26.655 41.2303 26.8468 41.1666C26.9043 41.1477 26.9618 41.1289 27.021 41.1094C27.291 41.0194 27.5539 40.9232 27.8146 40.8088C28.1638 40.6594 28.3875 40.631 28.7471 40.7677C28.9575 40.8617 29.1635 40.9619 29.3695 41.0652C29.4413 41.1003 29.513 41.1353 29.587 41.1714C29.7632 41.2576 29.939 41.3447 30.1143 41.4325C29.8998 41.6914 29.6539 41.782 29.3453 41.9047C29.2664 41.9363 29.2664 41.9363 29.1859 41.9684C29.0128 42.0372 28.8392 42.1048 28.6655 42.1723C28.606 42.1955 28.5465 42.2188 28.4852 42.2428C27.6047 42.5865 26.7178 42.9056 25.8189 43.1977C25.719 43.2304 25.6192 43.2631 25.5164 43.2968C24.9158 43.4873 24.3203 43.6301 23.7015 43.7432C23.4186 43.8002 23.1466 43.8751 22.8702 43.9578C21.4927 44.3348 20.0314 44.4983 18.6053 44.5343C18.5238 44.5375 18.4422 44.5408 18.3582 44.5441C16.2525 44.5933 14.0928 44.1803 12.5208 42.7073C11.6618 41.8123 11.2621 40.7216 11.2285 39.4889C11.3075 36.5138 13.0683 33.9777 14.9032 31.7714C15.0512 31.5925 15.196 31.4113 15.3403 31.2295Z" fill="#EFC419"/>
<path d="M24.3193 43.5547C24.3469 43.6315 24.3469 43.6315 24.3751 43.7099C25.3023 46.2748 26.4243 49.1939 29.0382 50.457C29.8508 50.7424 30.7601 50.661 31.5278 50.2938C31.8744 50.0923 32.1782 49.8554 32.4818 49.5949C32.5473 49.5454 32.6129 49.496 32.6804 49.445C34.3483 48.0386 35.2463 45.5641 35.91 43.5547C36.4088 43.6395 36.8958 43.7308 37.3792 43.8812C37.2703 44.4445 37.1006 44.9493 36.8793 45.478C36.8467 45.5565 36.814 45.6351 36.7804 45.716C35.7482 48.1706 34.2848 50.8486 31.7012 51.9212C30.6354 52.3202 29.2671 52.2583 28.2373 51.7987C26.7023 51.0717 25.602 49.7063 24.7275 48.2889C24.6941 48.2351 24.6607 48.1813 24.6264 48.1258C24.1472 47.3402 23.7706 46.5228 23.4215 45.6718C23.3832 45.5786 23.3449 45.4854 23.3054 45.3894C23.1058 44.8897 22.9486 44.4103 22.8501 43.8812C23.049 43.8264 23.2479 43.772 23.447 43.7179C23.5315 43.6946 23.5315 43.6946 23.6177 43.6707C23.8588 43.6055 24.0684 43.5547 24.3193 43.5547Z" fill="#3A97D2"/>
<path d="M32.9715 11.2316C34.0045 12.0562 34.8115 13.0512 35.5019 14.1701C35.5352 14.2239 35.5686 14.2777 35.6029 14.3332C36.0821 15.1188 36.4587 15.9362 36.8079 16.7872C36.8462 16.8804 36.8844 16.9735 36.9239 17.0696C37.1235 17.5692 37.2807 18.0486 37.3792 18.5778C37.211 18.6192 37.0426 18.6598 36.8742 18.7002C36.7804 18.723 36.6867 18.7457 36.5901 18.7691C36.3519 18.816 36.1508 18.827 35.91 18.8227C35.8887 18.7681 35.8674 18.7136 35.8454 18.6574C34.3535 14.7392 34.3535 14.7392 31.2829 12.0478C30.5345 11.7625 29.7082 11.7596 28.9566 12.0376C26.3998 13.2762 25.2085 16.2997 24.3193 18.8227C23.8178 18.7749 23.3398 18.695 22.8501 18.5778C22.959 18.0144 23.1287 17.5096 23.35 16.981C23.3827 16.9025 23.4153 16.8239 23.4489 16.743C24.4811 14.2884 25.9445 11.6104 28.5281 10.5378C30.0149 9.98122 31.7065 10.3351 32.9715 11.2316Z" fill="#3A97D3"/>
<path d="M28.5721 21.7984C28.6502 21.8398 28.7282 21.8813 28.8087 21.924C28.9196 21.9717 29.0308 22.0186 29.1422 22.0649C29.259 22.1164 29.3757 22.168 29.4923 22.2199C29.5824 22.2597 29.5824 22.2597 29.6743 22.3002C29.8212 22.3651 29.9679 22.4302 30.1147 22.4954C29.9046 22.7397 29.6673 22.8531 29.3791 22.9918C29.2784 23.0408 29.1778 23.0899 29.0772 23.139C29.0243 23.1646 28.9714 23.1902 28.9169 23.2165C27.7313 23.792 26.5871 24.4201 25.4621 25.1073C25.3315 25.187 25.3315 25.187 25.1983 25.2684C24.932 25.4316 24.6663 25.5957 24.401 25.7603C24.3205 25.8102 24.2401 25.8601 24.1572 25.9115C23.7533 26.1649 23.3633 26.4264 22.9873 26.72C22.816 26.8467 22.6311 26.9439 22.4448 27.0466C21.8033 27.4381 21.2323 27.9311 20.6813 28.439C20.4847 28.6156 20.2826 28.7803 20.0749 28.9437C19.718 29.2251 19.38 29.5225 19.0444 29.8288C18.8698 29.9873 18.6926 30.1419 18.5138 30.2956C18.1744 30.5907 17.8586 30.9075 17.5445 31.2292C17.2716 31.1102 17.0868 30.959 16.8762 30.7496C16.8195 30.6943 16.7628 30.6389 16.7044 30.5819C16.5565 30.4026 16.5058 30.3154 16.4834 30.0864C16.5798 29.9411 16.5798 29.9411 16.7295 29.7947C16.8114 29.7135 16.8114 29.7135 16.895 29.6306C16.9545 29.574 17.0139 29.5173 17.0752 29.4589C17.1351 29.4005 17.195 29.342 17.2568 29.2818C17.6521 28.9002 18.0578 28.5422 18.4899 28.2027C18.6756 28.055 18.8496 27.9005 19.024 27.7397C19.784 27.0576 20.613 26.4354 21.4835 25.9022C21.8505 25.6696 22.2 25.4129 22.552 25.1584C22.6513 25.0869 22.7507 25.0155 22.8501 24.9441C22.9106 24.9005 22.9711 24.8569 23.0335 24.812C23.5498 24.4447 24.0813 24.1105 24.6254 23.786C24.7136 23.7333 24.8017 23.6806 24.8925 23.6263C25.6843 23.156 26.4858 22.7026 27.3018 22.2753C27.4418 22.2011 27.5805 22.1242 27.7179 22.0452C28.2509 21.7506 28.2509 21.7506 28.5721 21.7984Z" fill="#EFC419"/>
<path d="M42.6849 31.2295C42.9578 31.3485 43.1426 31.4997 43.3532 31.709C43.4099 31.7644 43.4666 31.8197 43.5251 31.8767C43.6729 32.056 43.7236 32.1433 43.746 32.3722C43.6496 32.5175 43.6496 32.5175 43.4999 32.664C43.4453 32.7181 43.3907 32.7722 43.3345 32.8279C43.275 32.8846 43.2155 32.9413 43.1542 32.9997C43.0639 33.0877 43.0639 33.0877 42.9717 33.1776C42.585 33.5506 42.1896 33.902 41.7669 34.234C41.5523 34.4048 41.3458 34.5819 41.1394 34.7624C40.676 35.1669 40.202 35.5527 39.7107 35.9229C39.6577 35.9631 39.6046 36.0032 39.55 36.0446C39.3082 36.2245 39.0672 36.3916 38.8039 36.5386C38.5088 36.7058 38.2394 36.8914 37.966 37.0911C37.7707 37.2327 37.5751 37.3738 37.3793 37.5146C37.3183 37.5585 37.2573 37.6025 37.1945 37.6477C36.6787 38.0147 36.1476 38.3485 35.604 38.6726C35.516 38.7253 35.428 38.7779 35.3373 38.8321C34.5408 39.3053 33.7337 39.7587 32.9142 40.1908C32.7916 40.2555 32.6696 40.3216 32.5485 40.3892C32.2133 40.5703 31.9731 40.6793 31.584 40.6163C31.3213 40.5228 31.0708 40.4088 30.8188 40.2898C30.717 40.2431 30.717 40.2431 30.6131 40.1954C30.4466 40.1189 30.2805 40.0415 30.1147 39.9633C30.3248 39.719 30.5621 39.6055 30.8503 39.4669C30.951 39.4178 31.0516 39.3688 31.1522 39.3197C31.2051 39.2941 31.258 39.2685 31.3125 39.2421C32.4981 38.6666 33.6423 38.0385 34.7673 37.3513C34.8544 37.2982 34.9414 37.245 35.0311 37.1903C35.2974 37.0271 35.5631 36.863 35.8285 36.6983C35.9089 36.6484 35.9893 36.5986 36.0722 36.5472C36.4761 36.2937 36.8661 36.0322 37.2421 35.7387C37.4134 35.612 37.5983 35.5148 37.7846 35.4121C38.4263 35.0204 38.9974 34.5274 39.5484 34.0194C39.7432 33.8444 39.9435 33.6816 40.1494 33.5201C40.5317 33.2188 40.8903 32.8964 41.2482 32.5667C41.4321 32.3983 41.6185 32.2339 41.8074 32.0712C42.1145 31.8048 42.4015 31.5209 42.6849 31.2295Z" fill="#EFC419"/>
<path d="M37.5425 26.8218C37.6602 26.9002 37.7779 26.9787 37.8956 27.0571C37.9612 27.1008 38.0267 27.1445 38.0943 27.1895C38.2916 27.3212 38.4881 27.4528 38.6801 27.5921C38.7398 27.6341 38.7994 27.6761 38.8609 27.7193C39.1874 28.0734 39.1955 28.5584 39.1961 29.0196C39.1964 29.0729 39.1967 29.1262 39.197 29.1811C39.1977 29.3555 39.1972 29.5298 39.1966 29.7041C39.1968 29.8264 39.1969 29.9487 39.1971 30.0709C39.1974 30.3264 39.197 30.5819 39.1963 30.8374C39.1953 31.1637 39.1959 31.49 39.1968 31.8163C39.1974 32.0686 39.1972 32.3208 39.1968 32.573C39.1967 32.6933 39.1968 32.8136 39.1972 32.9339C39.1976 33.1024 39.197 33.2709 39.1961 33.4394C39.1959 33.5828 39.1959 33.5828 39.1957 33.7291C39.1659 34.125 39.1153 34.4648 38.8402 34.7604C38.7722 34.8107 38.7042 34.861 38.6342 34.9128C38.5675 34.9635 38.5008 35.0142 38.4321 35.0665C38.2417 35.1973 38.0502 35.3214 37.8542 35.4433C37.7957 35.4797 37.7372 35.5161 37.677 35.5536C37.6326 35.5812 37.5882 35.6088 37.5425 35.6372C37.5483 35.531 37.554 35.4249 37.56 35.3155C37.6236 34.0631 37.6369 32.813 37.6347 31.5592C37.6343 31.2846 37.6346 31.01 37.635 30.7354C37.6369 29.4286 37.6135 28.1267 37.5425 26.8218Z" fill="#3B97D2"/>
<path d="M22.6869 26.8218C22.6812 26.9279 22.6754 27.0341 22.6694 27.1435C22.6058 28.3959 22.5925 29.646 22.5947 30.8998C22.5951 31.1744 22.5949 31.449 22.5944 31.7236C22.5925 33.0304 22.616 34.3323 22.6869 35.6372C22.5696 35.5592 22.4524 35.4812 22.3351 35.4032C22.2698 35.3597 22.2045 35.3163 22.1372 35.2715C21.9214 35.1267 21.7103 34.9781 21.5034 34.821C21.4352 34.7705 21.367 34.72 21.2968 34.6679C20.9922 34.3391 21.044 33.8774 21.0426 33.4487C21.0423 33.3954 21.0421 33.3421 21.0418 33.2872C21.041 33.1124 21.0408 32.9376 21.0407 32.7628C21.0405 32.6404 21.0402 32.5181 21.0399 32.3957C21.0394 32.1397 21.0393 31.8837 21.0393 31.6277C21.0393 31.3008 21.0382 30.9738 21.0368 30.6469C21.0359 30.3943 21.0357 30.1417 21.0358 29.8891C21.0357 29.7686 21.0353 29.6481 21.0347 29.5276C21.0339 29.3587 21.0341 29.1898 21.0346 29.0209C21.0345 28.925 21.0344 28.8292 21.0343 28.7304C21.0633 28.3326 21.1132 27.9934 21.3921 27.6986C21.4608 27.6483 21.5295 27.598 21.6003 27.5462C21.6729 27.4921 21.7455 27.438 21.8203 27.3823C21.8908 27.332 21.9613 27.2817 22.034 27.2299C22.0927 27.1863 22.1514 27.1428 22.2119 27.0979C22.5878 26.8218 22.5878 26.8218 22.6869 26.8218Z" fill="#3B97D2"/>
<path d="M21.2993 36.4531C21.6736 36.5945 21.9698 36.7791 22.2941 37.0092C22.3454 37.044 22.3967 37.0787 22.4496 37.1146C22.4987 37.1493 22.5479 37.1841 22.5986 37.2199C22.643 37.251 22.6875 37.282 22.7332 37.3139C22.9995 37.5841 23.0443 37.9561 23.1043 38.3174C23.1201 38.4101 23.1359 38.5028 23.1522 38.5983C23.177 38.746 23.177 38.746 23.2022 38.8968C23.3451 39.7281 23.5072 40.5506 23.7053 41.3707C23.7216 41.4389 23.7379 41.5072 23.7547 41.5776C23.7692 41.6366 23.7837 41.6956 23.7987 41.7563C23.8297 41.922 23.8297 41.922 23.8297 42.2485C23.6309 42.3054 23.432 42.3614 23.2328 42.4168C23.1764 42.4331 23.1201 42.4493 23.0621 42.4661C22.633 42.5842 22.633 42.5842 22.3604 42.4933C22.2867 42.2994 22.2867 42.2994 22.2259 42.0387C22.203 41.9414 22.18 41.8441 22.1564 41.7439C22.1325 41.6366 22.1087 41.5293 22.085 41.422C22.0727 41.368 22.0604 41.3139 22.0477 41.2582C21.8546 40.4079 21.6935 39.5534 21.5544 38.6927C21.5378 38.5906 21.5213 38.4884 21.5042 38.3832C21.4048 37.7411 21.3393 37.1016 21.2993 36.4531Z" fill="#3B97D2"/>
<path d="M22.4421 19.8838C22.6466 19.9162 22.8467 19.9534 23.0491 19.996C23.1341 20.0131 23.1341 20.0131 23.2208 20.0305C23.6435 20.1172 23.6435 20.1172 23.8297 20.2103C23.781 20.6359 23.7151 21.0485 23.6237 21.4675C23.6118 21.5227 23.5999 21.5778 23.5877 21.6346C23.5365 21.872 23.4847 22.1093 23.4324 22.3464C23.2964 22.9639 23.1662 23.5746 23.0989 24.2041C23.0451 24.6789 22.969 24.9711 22.5894 25.283C22.3852 25.4301 22.1711 25.555 21.9523 25.6791C21.8645 25.7392 21.7766 25.7993 21.6861 25.8612C21.4626 26.0056 21.4626 26.0056 21.2993 26.0056C21.3456 25.1717 21.4613 24.3587 21.6003 23.5365C21.6109 23.4728 21.6216 23.4092 21.6325 23.3436C22.1669 20.1589 22.1669 20.1589 22.4421 19.8838Z" fill="#3B97D2"/>
<path d="M38.9298 36.3716C38.886 37.236 38.7738 38.0752 38.6288 38.9274C38.6181 38.9909 38.6075 39.0544 38.5965 39.1197C38.4531 39.9697 38.2923 40.8128 38.0931 41.6517C38.063 41.7795 38.063 41.7795 38.0323 41.9099C37.9248 42.3423 37.9248 42.3423 37.8687 42.4934C37.5972 42.6291 37.3231 42.4918 37.0422 42.4169C36.9807 42.4009 36.9191 42.385 36.8557 42.3686C36.7035 42.3291 36.5514 42.2889 36.3994 42.2485C36.4481 41.8229 36.514 41.4103 36.6054 40.9913C36.6173 40.9362 36.6291 40.881 36.6414 40.8242C36.6925 40.5868 36.7444 40.3495 36.7967 40.1124C36.9326 39.4949 37.0629 38.8843 37.1302 38.2547C37.1766 37.8454 37.2268 37.5911 37.5093 37.2835C37.7568 37.0933 38.0064 36.935 38.2768 36.7797C38.3917 36.6978 38.5059 36.6148 38.6186 36.5297C38.8481 36.3716 38.8481 36.3716 38.9298 36.3716Z" fill="#3B97D2"/>
<path d="M37.8687 19.965C37.9332 20.1589 37.9332 20.1589 37.9953 20.4197C38.0184 20.5169 38.0416 20.6142 38.0655 20.7144C38.0901 20.8217 38.1146 20.929 38.1391 21.0363C38.1515 21.0904 38.164 21.1445 38.1769 21.2002C38.372 22.0489 38.5357 22.9009 38.6747 23.7605C38.6913 23.862 38.7078 23.9634 38.7249 24.0679C38.8293 24.7406 38.8914 25.4073 38.9298 26.0868C38.3001 25.6962 38.3001 25.6962 38.0319 25.5154C37.9712 25.4837 37.9105 25.452 37.848 25.4193C37.494 25.2047 37.3282 25.0329 37.1903 24.6361C37.1 24.2544 37.0428 23.8678 36.9861 23.4799C36.9545 23.2824 36.922 23.0851 36.8893 22.8878C36.8678 22.7577 36.8467 22.6275 36.826 22.4973C36.7372 21.9514 36.6073 21.4222 36.4617 20.8888C36.4067 20.6498 36.3861 20.4534 36.3994 20.2099C36.6135 20.153 36.8278 20.097 37.0422 20.0415C37.1336 20.0171 37.1336 20.0171 37.2268 19.9922C37.6869 19.8741 37.6869 19.8741 37.8687 19.965Z" fill="#3B97D2"/>
<path d="M30.6044 14.4966C30.9663 14.671 31.2118 14.888 31.4207 15.2312C31.5836 15.7249 31.6363 16.1314 31.4207 16.6188C31.1491 17.0224 30.9069 17.2114 30.4412 17.3534C29.9282 17.4104 29.5573 17.3327 29.1352 17.0269C28.8287 16.7273 28.6619 16.4043 28.6353 15.9747C28.6591 15.5719 28.7538 15.2187 29.0284 14.9155C29.5342 14.4741 29.9356 14.4335 30.6044 14.4966Z" fill="#E64B3B"/>
<path d="M49.7753 30.0056C50.0981 30.248 50.2418 30.5234 50.3575 30.9028C50.4153 31.4231 50.3239 31.7738 50.031 32.2088C49.7458 32.5276 49.4326 32.6203 49.0209 32.6877C48.593 32.7093 48.2419 32.6053 47.9203 32.3181C47.5507 31.9037 47.4755 31.5747 47.4835 31.0252C47.5183 30.6128 47.6834 30.3936 47.97 30.107C48.5486 29.7064 49.1516 29.6689 49.7753 30.0056Z" fill="#E64B3B"/>
<path d="M12.1672 30.0297C12.4476 30.2558 12.6545 30.4601 12.7284 30.8214C12.7729 31.3117 12.7744 31.7104 12.4835 32.1274C12.1228 32.5052 11.7831 32.6632 11.2591 32.6988C10.7759 32.6636 10.4532 32.4799 10.1164 32.1274C9.8917 31.7304 9.79391 31.3557 9.87152 30.903C10.0164 30.4754 10.2131 30.1612 10.6061 29.9235C11.1361 29.6949 11.6723 29.7268 12.1672 30.0297Z" fill="#E64B3B"/>
<path d="M17.7382 37.6471C18.078 37.9544 18.2509 38.1988 18.3102 38.6498C18.329 39.1534 18.3085 39.4967 17.9525 39.8815C17.5064 40.2745 17.2372 40.3186 16.6507 40.3123C16.1899 40.2704 15.948 40.0932 15.6364 39.7489C15.408 39.2744 15.3647 38.8517 15.514 38.346C16.0222 37.4819 16.8373 37.2133 17.7382 37.6471Z" fill="#E64B3B"/>
<path d="M30.6196 28.5766C30.799 28.8239 30.8105 28.9719 30.8058 29.2704C30.7542 29.4904 30.6823 29.5995 30.5227 29.7601C30.2988 29.837 30.2988 29.837 30.0431 29.8876C29.5631 29.9845 29.2477 30.0922 28.9565 30.4998C28.7929 30.8056 28.7439 31.1134 28.7014 31.4551C28.6277 31.6946 28.5347 31.7605 28.3188 31.8823C28.0932 31.9352 27.8924 31.9292 27.6658 31.8823C27.4277 31.7097 27.3601 31.5732 27.3001 31.2874C27.2406 30.5256 27.5881 29.8274 28.0625 29.2484C28.7306 28.6148 29.7318 28.1588 30.6196 28.5766Z" fill="#FA7A74"/>
</g>
<defs>
<clipPath id="clip0_1531_1506">
<rect width="41.7917" height="41.7917" fill="white" transform="translate(9.21875 10.3335)"/>
</clipPath>
</defs>
</svg>
