<svg width="59" height="59" viewBox="0 0 59 59" fill="none" xmlns="http://www.w3.org/2000/svg">
<g clip-path="url(#clip0_752_1857)">
<path d="M55.0102 0.230507C55.4924 0.509437 55.8637 0.856441 56.2417 1.26266C56.4631 1.49607 56.6945 1.70142 56.9403 1.90861C57.7301 2.5944 58.3224 3.24707 58.4604 4.31548C58.5088 5.33463 58.1442 5.92428 57.4805 6.66923C57.2962 6.86658 57.1113 7.06343 56.9259 7.2598C56.7477 7.45616 56.5701 7.65301 56.393 7.85038C56.3068 7.94604 56.2207 8.0417 56.1319 8.14027C55.9193 8.37811 55.709 8.61772 55.4999 8.85868C55.102 9.31588 54.6915 9.76137 54.281 10.2072C53.9869 10.5272 53.696 10.8493 53.4113 11.1778C53.0187 11.6307 52.6127 12.0711 52.2067 12.512C51.9126 12.832 51.6217 13.154 51.3371 13.4825C50.9985 13.8732 50.6501 14.2545 50.3 14.6348C49.88 15.091 49.4658 15.5511 49.0594 16.0194C48.6527 16.4847 48.2366 16.9417 47.8224 17.4004C47.6471 17.5948 47.4719 17.7893 47.2967 17.9838C47.2205 18.0683 47.1443 18.1528 47.0657 18.2399C46.9732 18.3432 46.8807 18.4464 46.7853 18.5528C46.7084 18.6145 46.6315 18.6763 46.5522 18.7399C46.0041 19.2305 45.8106 19.6414 45.7585 20.3605C45.7408 20.8554 45.7425 21.349 45.7482 21.8442C45.7473 22.0504 45.7459 22.2566 45.7442 22.4629C45.7407 22.9649 45.7429 23.4667 45.7482 23.9688C45.8225 23.9664 45.8967 23.964 45.9732 23.9615C46.3159 23.9518 46.6586 23.9459 47.0014 23.94C47.1181 23.9361 47.2349 23.9323 47.3552 23.9283C48.3037 23.9161 49.0703 24.0842 49.8489 24.644C50.5175 25.3505 51.0621 26.117 51.0645 27.1228C51.065 27.2264 51.0655 27.3299 51.066 27.4366C51.066 27.6074 51.066 27.6074 51.0659 27.7817C51.0664 27.9026 51.0668 28.0235 51.0672 28.148C51.0685 28.5551 51.0689 28.9622 51.0694 29.3693C51.0701 29.6604 51.0709 29.9515 51.0717 30.2426C51.0739 31.1177 51.0751 31.9927 51.0761 32.8678C51.0766 33.2801 51.0773 33.6923 51.0779 34.1046C51.0798 35.4754 51.0815 36.8462 51.0823 38.217C51.0826 38.5727 51.0828 38.9285 51.083 39.2842C51.0831 39.3726 51.0831 39.461 51.0832 39.5521C51.0841 40.9835 51.087 42.4149 51.0908 43.8463C51.0946 45.3165 51.0967 46.7866 51.097 48.2568C51.0973 49.082 51.0983 49.9072 51.1012 50.7324C51.104 51.509 51.1044 52.2856 51.1032 53.0623C51.1032 53.347 51.1039 53.6318 51.1055 53.9165C51.1075 54.306 51.1067 54.6953 51.1052 55.0847C51.1071 55.2528 51.1071 55.2528 51.109 55.4244C51.1003 56.3538 50.8516 57.0989 50.3432 57.8765C49.5915 58.5955 48.8069 59.0138 47.7654 59.0158C47.6887 59.0161 47.612 59.0164 47.533 59.0168C47.2741 59.0176 47.0152 59.0177 46.7564 59.0178C46.5696 59.0182 46.3829 59.0187 46.1961 59.0193C45.6815 59.0207 45.1668 59.0213 44.6521 59.0219C44.0976 59.0225 43.5431 59.0239 42.9886 59.0251C41.6487 59.0279 40.3087 59.0296 38.9687 59.0311C38.5903 59.0315 38.2119 59.032 37.8335 59.0325C35.4843 59.0354 33.1351 59.0379 30.7859 59.0394C30.2417 59.0397 29.6974 59.04 29.1531 59.0404C28.9502 59.0405 28.9502 59.0405 28.7431 59.0406C26.5516 59.0421 24.3602 59.0459 22.1687 59.0507C19.9193 59.0556 17.67 59.0583 15.4206 59.0589C14.1574 59.0593 12.8943 59.0607 11.6311 59.0645C10.5553 59.0677 9.4795 59.069 8.40369 59.0677C7.85485 59.0671 7.30606 59.0674 6.75723 59.0703C6.25443 59.0729 5.7517 59.0728 5.24889 59.0706C5.06735 59.0703 4.88579 59.0709 4.70426 59.0726C3.42482 59.0841 2.48432 58.9191 1.51261 58.0422C0.181402 56.5791 0.558031 54.3946 0.555934 52.5505C0.555211 52.2706 0.554446 51.9907 0.553641 51.7108C0.551438 50.8749 0.550203 50.0391 0.549175 49.2032C0.548769 48.8878 0.548295 48.5725 0.547814 48.2571C0.545688 46.8648 0.543873 45.4726 0.542985 44.0803C0.542765 43.7407 0.542542 43.4012 0.542317 43.0616C0.542261 42.9772 0.542206 42.8929 0.542148 42.8059C0.54119 41.4372 0.538269 40.0684 0.534531 38.6997C0.530717 37.2915 0.528643 35.8833 0.528275 34.4751C0.528026 33.6855 0.527024 32.896 0.524073 32.1065C0.521304 31.3644 0.520901 30.6223 0.522086 29.8802C0.522143 29.6083 0.521417 29.3363 0.519835 29.0644C0.517792 28.6924 0.518612 28.3206 0.520127 27.9486C0.518863 27.8417 0.517596 27.7348 0.516294 27.6247C0.527011 26.5301 0.886814 25.6483 1.6373 24.8547C2.56083 23.9854 3.44386 23.9359 4.65275 23.9544C4.84593 23.9559 4.84593 23.9559 5.04301 23.9575C5.35948 23.9602 5.6759 23.964 5.99235 23.9688C5.99192 23.8797 5.9915 23.7907 5.99106 23.699C5.98088 21.5321 5.97325 19.3653 5.96846 17.1984C5.96609 16.1505 5.96285 15.1027 5.95757 14.0548C5.95298 13.1414 5.95001 12.2281 5.94898 11.3147C5.94838 10.8311 5.94697 10.3476 5.94361 9.86398C5.94048 9.40865 5.93952 8.95337 5.94021 8.49803C5.94008 8.33108 5.93917 8.16412 5.9374 7.99718C5.9351 7.76884 5.93593 7.54048 5.93692 7.31213C5.93649 7.18445 5.93607 7.05677 5.93563 6.92522C6.00767 6.47199 6.16349 6.23048 6.45328 5.87699C6.8763 5.57172 7.16795 5.48793 7.68659 5.48682C7.8185 5.4857 7.95041 5.48459 8.08631 5.48344C8.2307 5.48398 8.37509 5.48451 8.52386 5.48506C8.67921 5.48442 8.83456 5.48362 8.98991 5.48269C9.41669 5.48057 9.84344 5.48062 10.2702 5.48103C10.7305 5.4811 11.1909 5.47919 11.6512 5.47755C12.553 5.47468 13.4547 5.47373 14.3565 5.47354C15.0895 5.47337 15.8224 5.47266 16.5553 5.47157C18.6331 5.46852 20.7108 5.46693 22.7885 5.46719C22.9565 5.46721 22.9565 5.46721 23.1279 5.46723C23.2401 5.46724 23.3523 5.46726 23.4678 5.46727C25.2858 5.46741 27.1038 5.4641 28.9218 5.45923C30.7882 5.45427 32.6546 5.45188 34.521 5.45218C35.569 5.45229 36.617 5.45134 37.6649 5.44762C38.5571 5.44447 39.4493 5.44372 40.3415 5.44607C40.7967 5.4472 41.2518 5.44721 41.7071 5.44422C42.1239 5.4415 42.5407 5.44199 42.9575 5.44501C43.1795 5.44579 43.4015 5.44317 43.6234 5.44043C44.375 5.44945 44.8403 5.50001 45.3798 6.04817C45.6544 6.39558 45.7398 6.72275 45.8634 7.14457C46.927 6.00911 46.927 6.00911 47.9602 4.84618C48.2359 4.53229 48.5189 4.22529 48.8019 3.91801C49.2187 3.46528 49.6297 3.00847 50.0326 2.5433C50.3908 2.13594 50.7589 1.73767 51.126 1.33829C51.3025 1.14045 51.4727 0.936771 51.6355 0.727455C52.4386 -0.244796 53.9209 -0.265392 55.0102 0.230507Z" fill="#F7F5F5"/>
<path d="M4.65275 23.9543C4.84593 23.9559 4.84593 23.9559 5.04301 23.9575C5.35948 23.9602 5.6759 23.964 5.99235 23.9687C5.98944 24.0578 5.98653 24.1469 5.98354 24.2386C5.95772 25.0844 5.94159 25.9297 5.93592 26.7758C5.93267 27.2108 5.92589 27.6451 5.91056 28.0798C5.75535 30.121 5.75535 30.121 6.52812 31.8943C6.92743 32.2326 7.35305 32.4866 7.82197 32.7164C8.19861 32.9095 8.52039 33.1571 8.8588 33.4107C8.98967 33.5038 9.12078 33.5966 9.25222 33.6889C9.75493 34.0457 10.2501 34.4126 10.7458 34.7791C11.4629 35.3093 12.1826 35.8355 12.9064 36.3564C14.0811 37.2022 15.245 38.0624 16.409 38.9227C17.3891 39.6469 18.3706 40.3689 19.3595 41.081C20.3463 41.7916 21.3256 42.5121 22.3035 43.2347C22.5989 43.4528 22.8947 43.6703 23.1906 43.8876C23.2896 43.9603 23.3885 44.0331 23.4904 44.108C23.6795 44.2469 23.8686 44.3858 24.0578 44.5245C24.4964 44.8471 24.9299 45.173 25.3517 45.5175C25.7734 45.3265 26.138 45.0676 26.5113 44.7973C26.5808 44.7473 26.6504 44.6973 26.722 44.6458C27.4095 44.1499 28.0911 43.6459 28.7728 43.1421C29.3965 42.6815 30.0232 42.2253 30.6525 41.7724C31.6416 41.0602 32.6232 40.338 33.6035 39.6136C34.151 39.2093 34.6992 38.8058 35.2472 38.4021C35.705 38.0649 36.1626 37.7274 36.6199 37.3895C37.5154 36.7281 38.4129 36.0701 39.3167 35.4201C40.0442 34.8969 40.7636 34.3643 41.4789 33.8245C42.224 33.2635 42.9801 32.7181 43.7375 32.1738C43.8135 32.1172 43.8896 32.0606 43.9679 32.0023C44.2502 31.8047 44.2502 31.8047 44.5723 31.6233C45.2561 31.2106 45.2561 31.2106 45.6335 30.5334C45.6754 30.111 45.6784 29.7047 45.6667 29.2803C45.667 29.1266 45.6677 28.9729 45.669 28.8192C45.671 28.4174 45.6654 28.0161 45.6582 27.6144C45.6522 27.2034 45.6533 26.7925 45.6539 26.3814C45.6539 25.5771 45.646 24.773 45.633 23.9687C46.0699 23.9552 46.5067 23.9471 46.9438 23.9399C47.066 23.936 47.1883 23.9322 47.3142 23.9282C48.2733 23.9164 49.0605 24.077 49.8489 24.6439C50.5175 25.3504 51.0621 26.1169 51.0645 27.1227C51.065 27.2263 51.0655 27.3298 51.066 27.4365C51.066 27.6073 51.066 27.6073 51.0659 27.7816C51.0664 27.9025 51.0668 28.0234 51.0672 28.1479C51.0685 28.555 51.0689 28.9621 51.0694 29.3692C51.0701 29.6603 51.0709 29.9514 51.0717 30.2425C51.0739 31.1176 51.0751 31.9927 51.0761 32.8678C51.0766 33.28 51.0773 33.6923 51.0779 34.1045C51.0798 35.4753 51.0815 36.8461 51.0823 38.2169C51.0826 38.5726 51.0828 38.9284 51.083 39.2841C51.0831 39.3725 51.0831 39.4609 51.0832 39.552C51.0841 40.9835 51.087 42.4149 51.0908 43.8463C51.0946 45.3164 51.0967 46.7866 51.097 48.2567C51.0973 49.0819 51.0983 49.9071 51.1012 50.7323C51.104 51.509 51.1044 52.2856 51.1032 53.0622C51.1032 53.347 51.1039 53.6317 51.1055 53.9165C51.1075 54.3059 51.1067 54.6952 51.1052 55.0846C51.1071 55.2528 51.1071 55.2528 51.109 55.4243C51.1003 56.3538 50.8516 57.0988 50.3432 57.8764C49.5915 58.5954 48.8069 59.0137 47.7654 59.0158C47.6887 59.0161 47.612 59.0164 47.533 59.0167C47.2741 59.0176 47.0152 59.0176 46.7564 59.0177C46.5696 59.0182 46.3829 59.0187 46.1961 59.0192C45.6815 59.0206 45.1668 59.0213 44.6521 59.0218C44.0976 59.0225 43.5431 59.0238 42.9886 59.025C41.6487 59.0279 40.3087 59.0296 38.9687 59.031C38.5903 59.0315 38.2119 59.0319 37.8335 59.0324C35.4843 59.0353 33.1351 59.0379 30.7859 59.0393C30.2417 59.0396 29.6974 59.04 29.1531 59.0403C28.9502 59.0404 28.9502 59.0404 28.7431 59.0406C26.5516 59.042 24.3602 59.0459 22.1687 59.0507C19.9193 59.0555 17.67 59.0583 15.4206 59.0589C14.1574 59.0593 12.8943 59.0606 11.6311 59.0644C10.5553 59.0676 9.4795 59.0689 8.40369 59.0676C7.85485 59.067 7.30606 59.0674 6.75722 59.0702C6.25442 59.0728 5.7517 59.0727 5.24889 59.0705C5.06735 59.0702 4.88579 59.0708 4.70426 59.0726C3.42482 59.084 2.48432 58.919 1.51261 58.0421C0.181402 56.579 0.558031 54.3946 0.555934 52.5504C0.555211 52.2705 0.554445 51.9906 0.553639 51.7107C0.551436 50.8749 0.550204 50.039 0.549176 49.2032C0.548771 48.8878 0.548293 48.5724 0.547812 48.257C0.545687 46.8647 0.543872 45.4725 0.542984 44.0802C0.542764 43.7407 0.542542 43.4011 0.542317 43.0616C0.542261 42.9772 0.542206 42.8928 0.542148 42.8059C0.54119 41.4371 0.538267 40.0684 0.534529 38.6996C0.530715 37.2914 0.528643 35.8832 0.528275 34.475C0.528026 33.6855 0.527024 32.896 0.524073 32.1065C0.521305 31.3644 0.520902 30.6223 0.522086 29.8801C0.522144 29.6082 0.521415 29.3363 0.519833 29.0643C0.51779 28.6924 0.518611 28.3205 0.520125 27.9485C0.518861 27.8417 0.517597 27.7348 0.516294 27.6246C0.527011 26.5301 0.886814 25.6483 1.6373 24.8546C2.56083 23.9854 3.44386 23.9358 4.65275 23.9543Z" fill="#FBA863"/>
<path d="M31.1538 43.8095C31.5137 43.9214 31.776 44.0822 32.0896 44.2915C32.2718 44.4119 32.2718 44.4119 32.4576 44.5348C32.5881 44.6223 32.7185 44.7099 32.849 44.7974C32.9846 44.8874 33.1202 44.9772 33.2559 45.067C33.5288 45.2477 33.8014 45.4287 34.0738 45.6101C34.5853 45.9498 35.0995 46.2853 35.6146 46.6196C35.7056 46.6787 35.7967 46.7379 35.8904 46.7989C36.7725 47.3715 37.659 47.937 38.5453 48.503C39.5935 49.1733 40.6361 49.8521 41.6775 50.533C42.3057 50.9437 42.9357 51.3516 43.5669 51.7575C43.7108 51.8503 43.8536 51.9447 43.9954 52.0406C44.2622 52.2142 44.2622 52.2142 44.609 52.3848C45.5631 52.9142 45.5631 52.9142 45.7545 53.4879C45.7946 53.9215 45.7878 54.3306 45.7625 54.7652C45.762 54.9088 45.7616 55.0525 45.7611 55.2005C45.7267 56.42 45.3858 57.4612 44.4877 58.3158C43.5956 59.0601 42.7157 59.0502 41.6012 59.0455C41.4359 59.0461 41.2707 59.0468 41.1054 59.0476C40.6522 59.0495 40.199 59.0493 39.7459 59.0486C39.2567 59.0483 38.7676 59.05 38.2784 59.0514C37.3205 59.0538 36.3625 59.0543 35.4046 59.0541C34.6258 59.054 33.8471 59.0544 33.0683 59.0553C32.844 59.0555 32.6196 59.0558 32.3952 59.056C32.2835 59.0561 32.1719 59.0563 32.0568 59.0564C29.9449 59.0586 27.8329 59.0584 25.721 59.0576C23.7896 59.057 21.8582 59.0594 19.9268 59.0632C17.9431 59.0671 15.9593 59.0689 13.9756 59.0683C12.8621 59.0681 11.7486 59.0687 10.6352 59.0715C9.68715 59.074 8.73916 59.0744 7.79115 59.0722C7.30765 59.0711 6.8242 59.071 6.34071 59.0734C5.89763 59.0755 5.45463 59.075 5.01155 59.0724C4.85173 59.0719 4.69191 59.0724 4.53209 59.074C3.30952 59.0851 2.43703 58.8693 1.51245 58.0494C1.1076 57.6158 0.899404 57.1287 0.691406 56.5801C1.46685 56.0277 2.25529 55.5029 3.06091 54.9957C3.28602 54.8532 3.51108 54.7106 3.73611 54.568C3.84581 54.4985 3.95551 54.4291 4.06854 54.3575C4.49291 54.0877 4.91511 53.8147 5.33679 53.5408C6.75242 52.6221 8.17586 51.7155 9.59776 50.8066C10.8439 50.0099 12.0898 49.213 13.3305 48.4078C14.1014 47.9083 14.877 47.4162 15.6524 46.9237C16.3137 46.5034 16.9732 46.0805 17.6309 45.6545C17.7092 45.604 17.7876 45.5536 17.8684 45.5016C18.2545 45.2526 18.6372 45 19.0159 44.7398C19.1266 44.6651 19.1266 44.6651 19.2394 44.5889C19.3779 44.4953 19.5154 44.4002 19.6517 44.3035C19.837 44.1794 19.837 44.1794 20.166 44.0196C20.3974 44.0776 20.3974 44.0776 20.627 44.2501C20.7329 44.3219 20.8388 44.3938 20.9479 44.4679C21.0741 44.5582 21.1999 44.6488 21.3256 44.7398C21.394 44.789 21.4625 44.8382 21.533 44.8888C21.9619 45.1979 22.3878 45.5108 22.8128 45.8251C22.9101 45.897 23.0074 45.9689 23.1076 46.043C23.2994 46.1851 23.4909 46.3274 23.6823 46.47C24.5821 47.1933 24.5821 47.1933 25.6797 47.4167C25.9779 47.3502 26.1607 47.2342 26.4112 47.0598C26.5018 46.997 26.5924 46.9342 26.6858 46.8695C27.1324 46.5502 27.5757 46.2269 28.0164 45.8993C28.1105 45.83 28.2046 45.7607 28.3016 45.6893C28.7582 45.3528 29.212 45.0135 29.6602 44.666C29.7381 44.6065 29.8159 44.547 29.8961 44.4858C30.0414 44.3746 30.1857 44.2619 30.3288 44.1478C30.8084 43.7835 30.8084 43.7835 31.1538 43.8095Z" fill="#FCD69E"/>
<path d="M55.01 0.230507C55.4922 0.509437 55.8636 0.856441 56.2416 1.26266C56.4629 1.49607 56.6944 1.70142 56.9402 1.90861C57.7299 2.5944 58.3223 3.24707 58.4603 4.31548C58.5087 5.33463 58.1441 5.92428 57.4803 6.66923C57.296 6.86658 57.1111 7.06343 56.9258 7.2598C56.7476 7.45616 56.5699 7.65301 56.3928 7.85038C56.2636 7.99387 56.2636 7.99387 56.1317 8.14027C55.9191 8.37811 55.7089 8.61772 55.4998 8.85868C55.1018 9.31588 54.6914 9.76137 54.2808 10.2072C53.9867 10.5272 53.6958 10.8493 53.4111 11.1778C53.0186 11.6307 52.6126 12.0711 52.2066 12.512C51.9124 12.832 51.6216 13.154 51.3369 13.4825C50.9983 13.8732 50.65 14.2545 50.2998 14.6348C49.8799 15.091 49.4656 15.5511 49.0592 16.0194C48.6525 16.4847 48.2364 16.9417 47.8223 17.4004C47.6494 17.5925 47.4765 17.7845 47.3037 17.9766C47.2183 18.0714 47.1329 18.1661 47.0449 18.2638C46.87 18.4584 46.6957 18.6534 46.5218 18.849C46.0441 19.3848 45.5556 19.9015 45.0445 20.4055C44.7601 20.694 44.4958 20.9971 44.2315 21.304C43.8226 21.7763 43.401 22.2374 42.9824 22.7012C42.812 22.8909 42.6415 23.0805 42.4711 23.2702C42.1005 23.6821 41.728 24.0923 41.3547 24.5017C40.9674 24.9272 40.586 25.3567 40.2091 25.7914C39.8587 26.1871 39.499 26.5742 39.1385 26.9608C38.8361 27.2832 38.8361 27.2832 38.6035 27.6563C38.1296 27.5947 37.8975 27.3454 37.5592 27.0225C37.144 26.6323 36.7241 26.2605 36.2772 25.9062C35.6335 25.3873 35.0346 24.8257 34.4359 24.2559C33.7769 23.6295 33.114 23.0101 32.3809 22.4707C32.5294 22.1465 32.6877 21.9023 32.9332 21.6443C33.0272 21.5444 33.0272 21.5444 33.1232 21.4426C33.1896 21.3731 33.2559 21.3036 33.3243 21.232C33.4614 21.0865 33.5984 20.941 33.7353 20.7953C33.8007 20.7259 33.8661 20.6565 33.9334 20.585C34.1992 20.3002 34.4536 20.0063 34.7081 19.7114C34.9838 19.3975 35.2668 19.0905 35.5498 18.7832C35.9697 18.3271 36.384 17.8669 36.7904 17.3986C37.1971 16.9333 37.6132 16.4763 38.0273 16.0176C38.2002 15.8256 38.3731 15.6335 38.5459 15.4414C40.2744 13.5209 42.0029 11.6003 43.7314 9.67973C43.8167 9.58481 43.902 9.48989 43.9898 9.39209C44.1649 9.19787 44.3408 9.00433 44.5174 8.81142C44.9215 8.3683 45.314 7.92541 45.676 7.44706C46.103 6.88608 46.5798 6.37446 47.0588 5.85854C47.2986 5.59911 47.5336 5.3375 47.7646 5.07035C48.1033 4.67965 48.4516 4.29832 48.8018 3.91801C49.2186 3.46528 49.6295 3.00847 50.0324 2.5433C50.3906 2.13594 50.7588 1.73767 51.1258 1.33829C51.3023 1.14045 51.4726 0.936771 51.6354 0.727455C52.4384 -0.244796 53.9207 -0.265392 55.01 0.230507Z" fill="#FA8627"/>
<path d="M51.0488 29.1543C51.0488 37.5203 51.0488 45.8863 51.0488 54.5059C49.8824 53.8579 49.8824 53.8579 49.4752 53.5903C49.3846 53.5311 49.294 53.4719 49.2007 53.4109C49.1071 53.3491 49.0135 53.2874 48.917 53.2239C48.7134 53.0906 48.5098 52.9574 48.3062 52.8242C48.2054 52.7581 48.1045 52.692 48.0007 52.6238C47.5702 52.3421 47.1381 52.0626 46.7059 51.7834C46.5458 51.6799 46.3857 51.5764 46.2256 51.4729C46.147 51.422 46.0684 51.3712 45.9873 51.3188C45.663 51.1091 45.3387 50.8992 45.0144 50.6894C44.8501 50.5831 44.6859 50.4768 44.5216 50.3705C44.1248 50.1138 43.7281 49.857 43.3317 49.5998C42.4957 49.0578 41.658 48.5186 40.8182 47.9825C39.4205 47.0901 38.0304 46.1871 36.6436 45.2781C36.0548 44.8923 35.4644 44.5091 34.8728 44.1276C34.1139 43.638 33.3607 43.1406 32.6113 42.6367C33.0251 42.1852 33.5043 41.8509 34.0013 41.4988C34.1888 41.3647 34.3762 41.2306 34.5636 41.0964C34.7082 40.9928 34.7082 40.9928 34.8558 40.8872C35.3205 40.5524 35.7808 40.2118 36.2412 39.8711C36.9487 39.3482 37.659 38.8294 38.373 38.3154C39.3622 37.6032 40.3438 36.881 41.3241 36.1566C41.8716 35.7523 42.4197 35.3488 42.9677 34.9451C43.4255 34.6079 43.8832 34.2704 44.3405 33.9325C45.2359 33.2711 46.1335 32.6132 47.0372 31.9631C47.8577 31.3729 48.6692 30.7717 49.4761 30.163C49.5779 30.0864 49.5779 30.0864 49.6819 30.0083C49.8374 29.8905 49.992 29.7716 50.1462 29.6521C50.2287 29.5887 50.3112 29.5253 50.3961 29.4599C50.4714 29.4016 50.5466 29.3432 50.6241 29.283C50.8184 29.1543 50.8184 29.1543 51.0488 29.1543Z" fill="#FAC574"/>
<path d="M0.576172 29.6152C1.1271 29.9301 1.56685 30.2019 2.05261 30.5875C2.64999 31.0558 3.25811 31.5062 3.87476 31.9487C4.60348 32.472 5.32844 32.9998 6.0498 33.5332C6.75735 34.0561 7.4676 34.5749 8.18164 35.0889C9.17078 35.8011 10.1524 36.5233 11.1327 37.2477C11.5891 37.5848 12.046 37.9213 12.5029 38.2578C13.0519 38.6622 13.6007 39.0666 14.1491 39.4718C15.2302 40.2703 16.3153 41.0629 17.4058 41.8485C17.4816 41.9034 17.5575 41.9582 17.6356 42.0147C17.7891 42.1242 17.9438 42.232 18.0997 42.3382C18.2929 42.4708 18.481 42.6107 18.668 42.752C18.668 42.828 18.668 42.9041 18.668 42.9824C18.4492 43.1486 18.4492 43.1486 18.1391 43.3434C17.9663 43.4529 17.9663 43.4529 17.79 43.5646C17.6638 43.6434 17.5376 43.7222 17.4076 43.8035C17.2769 43.8859 17.1463 43.9685 17.0158 44.0511C16.7433 44.2235 16.4706 44.3955 16.1977 44.5672C15.5593 44.9693 14.9243 45.3769 14.2891 45.7841C14.1681 45.8615 14.0471 45.9389 13.9225 46.0186C13.256 46.4451 12.5906 46.8732 11.9268 47.3037C10.5181 48.2173 9.102 49.1192 7.68739 50.0235C5.9334 51.1444 5.9334 51.1444 4.18445 52.2732C3.40606 52.7778 2.62551 53.279 1.84375 53.7784C1.73135 53.8505 1.61895 53.9226 1.50314 53.9968C1.34732 54.0962 1.34732 54.0962 1.18835 54.1975C1.09522 54.257 1.00208 54.3166 0.90612 54.3779C0.691406 54.5059 0.691406 54.5059 0.576172 54.5059C0.576172 46.292 0.576172 38.078 0.576172 29.6152Z" fill="#FBD69E"/>
<path d="M45.6326 19.7051C45.6706 19.7051 45.7086 19.7051 45.7478 19.7051C45.7527 20.4571 45.7569 21.2089 45.7516 21.9609C45.7503 22.1627 45.7491 22.3644 45.7478 22.5661C45.7472 22.6728 45.7465 22.7795 45.7458 22.8894C45.7431 23.6859 45.7589 24.4811 45.7801 25.2773C45.7938 25.8187 45.7999 26.3601 45.8041 26.9016C45.8074 27.2874 45.8154 27.6718 45.8296 28.0575C45.9156 30.462 45.9156 30.462 45.4474 31.1582C45.0034 31.6197 44.497 31.9392 43.9339 32.237C43.4927 32.4808 43.0938 32.7832 42.6869 33.0795C42.5236 33.1941 42.3601 33.3085 42.1963 33.4225C41.7236 33.7549 41.2608 34.0994 40.7999 34.4479C40.1574 34.9337 39.5094 35.4108 38.8554 35.8811C37.8588 36.5979 36.87 37.3248 35.8827 38.0543C35.3352 38.4587 34.7871 38.8622 34.2391 39.2658C33.7813 39.6031 33.3236 39.9405 32.8663 40.2785C31.9778 40.9347 31.0875 41.5879 30.1912 42.2334C28.6419 43.3491 27.1059 44.4829 25.5818 45.6328C25.2645 45.4822 24.983 45.3152 24.6991 45.1089C24.6183 45.0503 24.5375 44.9918 24.4543 44.9315C24.3676 44.8682 24.281 44.805 24.1918 44.7397C24.1005 44.6734 24.0092 44.6071 23.9152 44.5387C22.7998 43.727 21.6905 42.9069 20.5812 42.087C19.601 41.3628 18.6196 40.6408 17.6306 39.9287C16.6415 39.2164 15.6599 38.4943 14.6796 37.7699C14.2232 37.4328 13.7662 37.0963 13.3093 36.7598C12.7604 36.3554 12.2115 35.9509 11.6632 35.5458C10.7677 34.8844 9.87018 34.2264 8.96645 33.5764C8.27486 33.0788 7.58825 32.5752 6.90664 32.064C6.82766 32.0048 6.74868 31.9455 6.66731 31.8845C6.12282 31.4746 6.12282 31.4746 5.99197 31.3438C5.98191 31.1386 5.97964 30.933 5.98071 30.7275C5.98108 30.6031 5.98145 30.4787 5.98184 30.3505C5.9828 30.2196 5.98377 30.0886 5.98476 29.9537C5.98528 29.8223 5.9858 29.691 5.98634 29.5556C5.9877 29.2298 5.9896 28.9039 5.99197 28.5781C6.75286 29.0433 7.47506 29.5388 8.17717 30.0882C8.61748 30.4318 9.06496 30.7621 9.52102 31.0845C10.1624 31.5385 10.7974 32.0006 11.4296 32.4673C11.522 32.5355 11.6144 32.6037 11.7096 32.674C11.9932 32.8835 12.2768 33.0931 12.5603 33.3027C13.6323 34.0951 14.7051 34.8861 15.7869 35.665C16.9615 36.5109 18.1255 37.371 19.2895 38.2314C20.3612 39.0232 21.4344 39.8126 22.5183 40.5876C22.9497 40.8971 23.3747 41.2121 23.7925 41.5397C23.8755 41.6042 23.9584 41.6686 24.0438 41.735C24.2004 41.8573 24.3559 41.9809 24.5101 42.1061C24.8277 42.3532 25.0618 42.5071 25.4562 42.603C26.0053 42.4773 26.3754 42.1592 26.8134 41.8157C27.0095 41.6665 27.2056 41.5173 27.4017 41.3682C27.5014 41.2916 27.6012 41.2149 27.7039 41.1359C28.1634 40.7846 28.63 40.4434 29.0965 40.1016C29.279 39.9672 29.4614 39.8327 29.6438 39.6982C30.0087 39.4294 30.3736 39.1605 30.7385 38.8916C30.8289 38.825 30.9192 38.7585 31.0123 38.6899C31.1946 38.5556 31.377 38.4212 31.5593 38.2869C32.0171 37.9496 32.4748 37.6122 32.9321 37.2743C33.8275 36.6129 34.7251 35.9549 35.6288 35.3049C36.3564 34.7816 37.076 34.249 37.7912 33.709C38.4597 33.2057 39.1374 32.7157 39.8173 32.228C40.4516 31.7722 41.0753 31.3044 41.693 30.8265C41.9451 30.6523 41.9451 30.6523 42.1756 30.6523C42.1375 28.4468 42.0995 26.2412 42.0603 23.9688C41.9082 24.0828 41.7561 24.1969 41.5994 24.3145C41.7538 23.968 41.9219 23.7386 42.1972 23.479C42.558 23.1285 42.8901 22.7633 43.2185 22.3825C43.4812 22.0814 43.7499 21.7863 44.0193 21.4912C44.4333 21.0374 44.8419 20.5798 45.2437 20.1152C45.3683 19.9739 45.4994 19.8383 45.6326 19.7051Z" fill="#E2E1E1"/>
<path d="M55.01 0.230507C55.4922 0.509437 55.8636 0.856441 56.2416 1.26266C56.4629 1.49607 56.6944 1.70142 56.9402 1.90861C57.7299 2.5944 58.3223 3.24707 58.4603 4.31548C58.5087 5.33463 58.1441 5.92428 57.4803 6.66923C57.296 6.86658 57.1111 7.06343 56.9258 7.2598C56.7476 7.45616 56.5699 7.65301 56.3928 7.85038C56.2636 7.99387 56.2636 7.99387 56.1317 8.14027C55.9191 8.37811 55.7089 8.61772 55.4998 8.85868C55.1018 9.31588 54.6914 9.76137 54.2808 10.2072C53.9867 10.5272 53.6958 10.8493 53.4111 11.1778C53.0186 11.6307 52.6126 12.0711 52.2066 12.512C51.9124 12.832 51.6216 13.154 51.3369 13.4825C50.9983 13.8732 50.65 14.2545 50.2998 14.6348C49.8799 15.091 49.4656 15.5511 49.0592 16.0194C48.6525 16.4847 48.2364 16.9417 47.8223 17.4004C47.6494 17.5925 47.4765 17.7845 47.3037 17.9766C47.2183 18.0714 47.1329 18.1661 47.0449 18.2638C46.87 18.4584 46.6957 18.6534 46.5218 18.849C46.0441 19.3848 45.5556 19.9015 45.0445 20.4055C44.7601 20.694 44.4958 20.9971 44.2315 21.304C43.8226 21.7763 43.401 22.2374 42.9824 22.7012C42.812 22.8909 42.6415 23.0805 42.4711 23.2702C42.1005 23.6821 41.728 24.0923 41.3547 24.5017C40.9674 24.9272 40.586 25.3567 40.2091 25.7914C39.8587 26.1871 39.499 26.5742 39.1385 26.9608C38.8361 27.2832 38.8361 27.2832 38.6035 27.6563C38.1113 27.5982 37.8586 27.3108 37.5088 26.9793C37.1553 26.6462 36.81 26.325 36.4141 26.043C36.4824 25.6629 36.601 25.462 36.8606 25.1787C36.9328 25.0991 37.005 25.0195 37.0794 24.9375C37.2064 24.8002 37.2064 24.8002 37.3359 24.6602C37.4922 24.4897 37.6485 24.3192 37.8048 24.1486C37.9154 24.028 38.0261 23.9075 38.1369 23.7872C38.4312 23.4672 38.7221 23.145 39.0068 22.8164C39.3454 22.4257 39.6938 22.0444 40.0439 21.6641C40.4612 21.2109 40.8724 20.7535 41.276 20.288C41.6316 19.8832 41.9967 19.487 42.3599 19.0889C42.5871 18.838 42.8111 18.5852 43.0328 18.3295C43.4281 17.8744 43.8363 17.4315 44.2446 16.9881C44.5387 16.6681 44.8296 16.3461 45.1143 16.0176C45.5068 15.5646 45.9128 15.1243 46.3188 14.6834C46.6129 14.3634 46.9038 14.0414 47.1885 13.7129C47.5271 13.3222 47.8754 12.9409 48.2256 12.5606C48.6455 12.1044 49.0598 11.6443 49.4662 11.176C49.8729 10.7106 50.289 10.2537 50.7031 9.79496C50.9615 9.50801 51.2197 9.22098 51.4774 8.9334C51.6605 8.7308 51.8455 8.52985 52.0319 8.33022C52.1258 8.22892 52.2197 8.12761 52.3164 8.02323C52.402 7.93203 52.4875 7.84082 52.5757 7.74685C52.7777 7.48987 52.8271 7.34116 52.8926 7.02934C51.7513 5.95972 51.7513 5.95972 50.5825 4.92046C50.1176 4.516 49.6623 4.10068 49.2051 3.68754C49.3595 3.34963 49.5333 3.09206 49.7812 2.81608C49.8521 2.73676 49.923 2.65743 49.996 2.57571C50.3716 2.16232 50.7479 1.74955 51.1258 1.33829C51.3023 1.14045 51.4726 0.936771 51.6354 0.727455C52.4384 -0.244796 53.9207 -0.265392 55.01 0.230507Z" fill="#F2671F"/>
<path d="M45.6328 33.0723C45.6328 38.9665 45.6328 44.8607 45.6328 50.9336C45.2105 50.7647 44.8999 50.6199 44.5268 50.3804C44.4262 50.316 44.3255 50.2517 44.2218 50.1854C44.0611 50.0816 44.0611 50.0816 43.8971 49.9757C43.7849 49.9037 43.6727 49.8318 43.5571 49.7576C43.2115 49.5357 42.8664 49.3129 42.5215 49.0898C42.4203 49.0244 42.3191 48.959 42.2149 48.8916C41.6434 48.5215 41.0729 48.1502 40.5027 47.7782C40.0164 47.4611 39.5296 47.1448 39.0428 46.8284C38.9471 46.7661 38.8514 46.7039 38.7528 46.6398C38.1393 46.2411 37.5253 45.843 36.911 45.4456C36.7924 45.3688 36.7924 45.3688 36.6714 45.2905C36.2626 45.0261 35.8536 44.7619 35.4445 44.498C34.4949 43.8851 33.5492 43.2674 32.6113 42.6367C33.0251 42.1852 33.5043 41.8509 34.0013 41.4988C34.1888 41.3647 34.3762 41.2306 34.5636 41.0964C34.7082 40.9928 34.7082 40.9928 34.8558 40.8872C35.3205 40.5524 35.7808 40.2118 36.2412 39.8711C36.9487 39.3482 37.659 38.8294 38.373 38.3154C39.3615 37.6037 40.3424 36.882 41.322 36.1582C41.969 35.6803 42.6165 35.2033 43.2642 34.7265C43.6121 34.4704 43.9595 34.2138 44.3067 33.9568C44.4655 33.8396 44.6242 33.7224 44.783 33.6052C44.856 33.551 44.9291 33.4967 45.0043 33.4408C45.5045 33.0723 45.5045 33.0723 45.6328 33.0723Z" fill="#FCD69E"/>
<path d="M55.01 0.230507C55.4922 0.509437 55.8636 0.856441 56.2416 1.26266C56.4629 1.49607 56.6944 1.70142 56.9402 1.90861C57.7299 2.5944 58.3223 3.24707 58.4603 4.31548C58.5087 5.33463 58.1441 5.92428 57.4803 6.66923C57.296 6.8666 57.1112 7.06344 56.9258 7.2598C56.7427 7.46094 56.5603 7.66259 56.3784 7.86478C56.2936 7.95896 56.2088 8.05314 56.1214 8.15017C55.8442 8.46223 55.5763 8.78014 55.3125 9.10355C54.7199 8.68747 54.2031 8.2393 53.6983 7.72074C53.4087 7.43001 53.1025 7.16333 52.7917 6.89565C52.3194 6.48671 51.8582 6.06518 51.3945 5.64652C50.6672 4.9907 49.9379 4.33719 49.2051 3.68754C49.3595 3.34963 49.5333 3.09206 49.7812 2.81608C49.8521 2.73676 49.923 2.65743 49.996 2.57571C50.3716 2.16232 50.7479 1.74955 51.1258 1.33829C51.3023 1.14045 51.4726 0.936771 51.6354 0.727455C52.4384 -0.244796 53.9207 -0.265392 55.01 0.230507Z" fill="#FD4754"/>
<path d="M30.537 27.0801C30.9247 27.2506 31.1984 27.4709 31.5093 27.7571C31.609 27.8483 31.7086 27.9395 31.8113 28.0335C32.058 28.2617 32.3042 28.4907 32.5504 28.7195C32.6179 28.782 32.6853 28.8446 32.7548 28.909C32.8881 29.0328 33.0211 29.1568 33.1538 29.2812C33.4895 29.6002 33.4895 29.6002 33.8788 29.8457C33.8788 29.9218 33.8788 29.9978 33.8788 30.0762C33.2667 30.3922 32.6537 30.706 32.0396 31.0179C31.8308 31.1243 31.6224 31.2313 31.4142 31.3389C31.1149 31.4934 30.8146 31.6459 30.514 31.7979C30.4212 31.8464 30.3284 31.8949 30.2328 31.9449C29.5789 32.272 29.5789 32.272 29.1484 32.2372C29.0743 32.2086 29.0001 32.1799 28.9237 32.1504C28.937 31.987 28.9517 31.8238 28.9669 31.6606C28.979 31.5243 28.979 31.5243 28.9912 31.3852C29.0409 31.1023 29.1366 30.9049 29.2694 30.6523C29.1482 30.6531 29.1482 30.6531 29.0245 30.654C27.0577 30.6667 25.0909 30.6762 23.1241 30.6822C22.173 30.6852 21.2219 30.6892 20.2707 30.6958C19.4418 30.7016 18.6128 30.7053 17.7838 30.7066C17.3448 30.7073 16.9059 30.7091 16.4669 30.7133C16.0537 30.7172 15.6405 30.7184 15.2272 30.7175C15.0034 30.7177 14.7796 30.7208 14.5559 30.724C13.4612 30.7175 13.4612 30.7175 13.1 30.3863C12.9061 30.0762 12.9061 30.0762 12.8989 29.6584C13.0355 29.2245 13.0978 29.1428 13.4823 28.9238C13.7964 28.8813 13.7964 28.8813 14.1633 28.8823C14.3026 28.8818 14.4419 28.8813 14.5854 28.8808C14.7394 28.882 14.8933 28.8833 15.0473 28.8846C15.2097 28.8847 15.3721 28.8846 15.5346 28.8844C15.9752 28.8843 16.4159 28.8864 16.8565 28.8888C17.3171 28.8909 17.7778 28.8911 18.2384 28.8916C19.1105 28.8926 19.9826 28.8955 20.8547 28.8989C21.8477 28.9028 22.8406 28.9047 23.8335 28.9064C25.876 28.91 27.9184 28.9161 29.9608 28.9238C29.9842 28.8455 30.0076 28.7672 30.0316 28.6864C30.0625 28.5833 30.0933 28.4801 30.1251 28.3738C30.1556 28.2717 30.1861 28.1696 30.2175 28.0644C30.3179 27.7341 30.4253 27.4067 30.537 27.0801Z" fill="#838383"/>
<path d="M15.0712 17.2274C15.2209 17.2268 15.3707 17.2261 15.525 17.2255C15.935 17.2239 16.3449 17.2252 16.7549 17.2271C17.1844 17.2287 17.6138 17.2279 18.0432 17.2275C18.7643 17.2272 19.4854 17.2288 20.2065 17.2314C21.0397 17.2345 21.8729 17.2347 22.7061 17.2333C23.5083 17.2321 24.3104 17.2328 25.1125 17.2344C25.4536 17.2351 25.7947 17.2351 26.1358 17.2346C26.6123 17.2339 27.0886 17.2361 27.5651 17.2386C27.7065 17.2381 27.8479 17.2376 27.9936 17.2371C28.1235 17.2382 28.2534 17.2393 28.3872 17.2405C28.5561 17.2409 28.5561 17.2409 28.7284 17.2414C29.0969 17.2934 29.3152 17.4137 29.615 17.6309C29.7787 17.9583 29.7665 18.1903 29.7302 18.5528C29.5151 18.8181 29.3434 18.9766 29.0388 19.1289C28.8343 19.1412 28.6293 19.146 28.4244 19.1475C28.294 19.1486 28.1636 19.1498 28.0293 19.151C27.8856 19.1516 27.7418 19.1523 27.5937 19.153C27.4429 19.1541 27.2921 19.1552 27.1367 19.1564C26.6356 19.16 26.1346 19.1624 25.6336 19.1645C25.5483 19.1649 25.4631 19.1653 25.3753 19.1657C24.5718 19.1692 23.7683 19.1723 22.9647 19.1742C21.9366 19.1768 20.9086 19.1816 19.8805 19.1896C19.1577 19.195 18.435 19.1978 17.7123 19.1987C17.2805 19.1993 16.8488 19.201 16.4171 19.2056C15.9353 19.2106 15.4537 19.2102 14.972 19.2093C14.8289 19.2116 14.6859 19.2139 14.5385 19.2162C13.6007 19.2083 13.6007 19.2083 13.2631 18.9823C12.9979 18.6837 12.9076 18.4763 12.8916 18.0774C13.2795 17.0862 14.1585 17.2202 15.0712 17.2274Z" fill="#878787"/>
<path d="M32.2656 22.3555C32.6595 22.6108 33.0304 22.8617 33.3703 23.186C33.4768 23.2867 33.4768 23.2867 33.5854 23.3895C33.6585 23.4594 33.7316 23.5294 33.8069 23.6014C33.9613 23.7474 34.1159 23.8932 34.2705 24.039C34.3433 24.1077 34.416 24.1764 34.491 24.2472C34.854 24.5877 35.2298 24.9121 35.6074 25.2363C35.7404 25.3524 35.8734 25.4685 36.0062 25.5847C36.8193 26.2946 37.6366 26.9929 38.4883 27.6562C37.853 28.1759 37.0791 28.5086 36.3503 28.8777C36.1669 28.971 35.9839 29.0652 35.8015 29.1603C35.5375 29.2979 35.2722 29.4328 35.0065 29.5671C34.9252 29.61 34.8439 29.653 34.7602 29.6972C34.3931 29.8792 34.1838 29.9789 33.7777 29.881C33.5289 29.7278 33.3492 29.5776 33.1515 29.3632C32.8031 28.999 32.4396 28.6663 32.0581 28.3373C31.5835 27.925 31.1188 27.5016 30.6523 27.0801C30.9115 26.0268 31.2749 25.0192 31.6534 24.0048C31.713 23.844 31.7725 23.6832 31.8319 23.5224C31.9759 23.1332 32.1206 22.7443 32.2656 22.3555Z" fill="#FBD69E"/>
<path d="M5.99233 23.9687C5.99233 26.4024 5.99233 28.8362 5.99233 31.3437C4.82673 30.5666 4.82673 30.5666 4.44792 30.2845C4.32054 30.1902 4.32054 30.1902 4.19058 30.094C4.00819 29.9579 3.82603 29.8215 3.64406 29.6848C3.15915 29.3224 2.6717 28.9734 2.16259 28.6456C2.06677 28.5821 1.97095 28.5186 1.87222 28.4532C1.68977 28.3329 1.50505 28.216 1.31794 28.1031C0.938246 27.8485 0.722541 27.6926 0.628503 27.2324C0.608492 26.2926 0.87037 25.6676 1.50449 24.9792C2.85948 23.6922 3.99992 23.9687 5.99233 23.9687Z" fill="#FB8628"/>
<path d="M45.6328 23.9688C48.9097 23.9688 48.9097 23.9688 49.8488 24.644C50.4099 25.2369 50.864 25.7898 50.9827 26.6146C50.9336 26.9648 50.9336 26.9648 50.6829 27.2277C50.5636 27.3121 50.4443 27.3965 50.3214 27.4834C50.2228 27.5548 50.2228 27.5548 50.1223 27.6276C49.9755 27.7338 49.8281 27.839 49.6802 27.9434C49.3221 28.1978 48.9698 28.4599 48.6169 28.7214C48.3358 28.9294 48.0539 29.1362 47.7719 29.3429C47.4481 29.5807 47.1261 29.8203 46.8068 30.064C46.7104 30.1374 46.7104 30.1374 46.6121 30.2123C46.4448 30.3402 46.278 30.4688 46.1113 30.5974C45.8633 30.7676 45.8633 30.7676 45.6328 30.7676C45.6328 28.524 45.6328 26.2804 45.6328 23.9688Z" fill="#FA8729"/>
<path d="M13.8781 23.1182C13.9827 23.1173 14.0872 23.1163 14.1949 23.1153C14.3093 23.116 14.4237 23.1167 14.5416 23.1174C14.7226 23.1165 14.7226 23.1165 14.9073 23.1156C15.3073 23.114 15.7072 23.1151 16.1072 23.1162C16.3846 23.116 16.662 23.1157 16.9394 23.1152C17.5214 23.1147 18.1032 23.1155 18.6852 23.1171C19.4316 23.119 20.1781 23.1179 20.9246 23.1158C21.4976 23.1146 22.0707 23.115 22.6437 23.1159C22.919 23.1161 23.1943 23.1158 23.4695 23.115C23.8541 23.1141 24.2386 23.1155 24.6232 23.1174C24.7374 23.1167 24.8516 23.116 24.9692 23.1153C25.074 23.1163 25.1789 23.1172 25.2869 23.1182C25.4233 23.1184 25.4233 23.1184 25.5624 23.1186C25.8844 23.1746 26.0413 23.2794 26.2734 23.5078C26.3635 24.1383 26.3635 24.1383 26.2734 24.4297C25.9316 24.8063 25.6623 24.9219 25.1681 24.95C24.952 24.953 24.7359 24.9536 24.5197 24.9521C24.3423 24.9536 24.3423 24.9536 24.1612 24.9551C23.7705 24.9577 23.38 24.957 22.9893 24.9559C22.7176 24.9565 22.4459 24.9572 22.1743 24.9581C21.6051 24.9593 21.0359 24.9588 20.4667 24.9571C19.737 24.9551 19.0074 24.9578 18.2777 24.9619C17.7168 24.9644 17.1559 24.9642 16.595 24.9633C16.326 24.9632 16.0569 24.964 15.7879 24.9657C15.4118 24.9677 15.036 24.966 14.66 24.9634C14.5487 24.9647 14.4375 24.9661 14.3229 24.9675C13.796 24.96 13.5557 24.9446 13.1207 24.6241C12.9062 24.3145 12.9062 24.3145 12.9062 23.8968C13.0782 23.3165 13.2695 23.1191 13.8781 23.1182Z" fill="#838383"/>
<path d="M45.6328 53.2383C45.9882 53.3729 46.3075 53.5151 46.6249 53.724C46.7014 53.774 46.7779 53.8239 46.8568 53.8754C46.9377 53.929 47.0187 53.9825 47.1021 54.0377C47.2764 54.1518 47.4508 54.2658 47.6251 54.3798C47.7144 54.4385 47.8037 54.4972 47.8958 54.5576C48.3361 54.8467 48.7777 55.1337 49.2195 55.4205C49.2985 55.4721 49.3775 55.5238 49.4588 55.5769C49.9416 55.8906 50.4312 56.1836 50.9336 56.4648C50.8178 57.2137 50.4551 57.8059 49.8708 58.2906C49.6151 58.4648 49.3632 58.6245 49.0898 58.7695C49.0145 58.8099 48.9392 58.8503 48.8616 58.8919C48.3418 59.0534 47.8389 59.0282 47.2979 59.0225C47.181 59.0222 47.0642 59.0219 46.9438 59.0215C46.5716 59.0202 46.1994 59.0173 45.8273 59.0144C45.5745 59.0132 45.3218 59.0122 45.069 59.0113C44.4503 59.0087 43.8316 59.0049 43.2129 59C43.4038 58.8727 43.5965 58.7475 43.7949 58.6322C44.6637 58.1056 45.1875 57.4269 45.5176 56.4648C45.5594 56.0974 45.5594 56.0974 45.5653 55.7028C45.5697 55.559 45.5742 55.4153 45.5788 55.2673C45.5824 55.1182 45.5859 54.9691 45.5896 54.8156C45.5941 54.6643 45.5985 54.513 45.6031 54.3571C45.614 53.9842 45.6238 53.6113 45.6328 53.2383Z" fill="#FAC574"/>
<path d="M55.4277 0.576172C55.9437 1.01006 56.4482 1.45562 56.9474 1.90857C57.0062 1.96142 57.0651 2.01428 57.1258 2.06873C57.8437 2.72376 58.3325 3.34107 58.4612 4.31634C58.5066 5.33552 58.1445 5.92377 57.4803 6.66919C57.296 6.86656 57.1112 7.06341 56.9258 7.25977C56.7427 7.4609 56.5603 7.66255 56.3784 7.86475C56.2936 7.95892 56.2088 8.0531 56.1214 8.15013C55.8442 8.4622 55.5763 8.7801 55.3125 9.10352C54.7089 8.67973 54.1814 8.22349 53.6718 7.69009C53.4589 7.46799 53.4589 7.46799 53.123 7.25977C53.2752 6.92477 53.4414 6.68045 53.6965 6.41621C53.7639 6.34557 53.8313 6.27493 53.9008 6.20215C53.9721 6.12811 54.0434 6.05407 54.1169 5.97778C55.6919 4.38765 55.6919 4.38765 56.157 2.27633C56.0997 1.79564 55.9068 1.44448 55.6582 1.03711C55.5802 0.88406 55.5031 0.730557 55.4277 0.576172Z" fill="#F92D3D"/>
<path d="M40.332 5.53122C40.9409 5.51405 41.5496 5.50154 42.1586 5.49324C42.3655 5.48977 42.5724 5.48506 42.7792 5.47906C43.0776 5.47061 43.3758 5.46674 43.6743 5.4637C43.7659 5.46013 43.8575 5.45656 43.9519 5.45288C44.5793 5.45251 44.9011 5.60816 45.3607 6.03366C45.6782 6.41609 45.7663 6.82036 45.7237 7.30745C45.6084 7.68544 45.4294 7.87468 45.1575 8.16C45.063 8.26086 44.9685 8.36172 44.8712 8.46564C44.7803 8.56205 44.6894 8.65845 44.5957 8.75778C44.4652 8.90588 44.3355 9.05467 44.2068 9.20431C43.8527 9.61079 43.4906 10.0096 43.1265 10.4071C43.072 10.4665 43.0176 10.526 42.9615 10.5873C42.7049 10.8667 42.4452 11.1411 42.1758 11.4082C42.1771 11.2763 42.1785 11.1443 42.1798 11.0084C42.1836 10.5163 42.1813 10.0244 42.1772 9.53237C42.1763 9.31991 42.1769 9.10744 42.1793 8.89498C42.2356 7.69861 42.2356 7.69861 41.8638 6.60031C41.6297 6.39217 41.4172 6.24873 41.1387 6.10739C41.0598 6.05904 40.9809 6.01068 40.8997 5.96087C40.7146 5.84884 40.5239 5.74636 40.332 5.64645C40.332 5.60842 40.332 5.5704 40.332 5.53122Z" fill="#E2E1E1"/>
<path d="M14.93 11.4551C15.0711 11.455 15.2121 11.455 15.3575 11.455C15.6554 11.4557 15.9534 11.4577 16.2513 11.461C16.7073 11.4658 17.1631 11.4657 17.6191 11.465C17.9087 11.4662 18.1983 11.4677 18.4879 11.4695C18.6243 11.4695 18.7607 11.4695 18.9012 11.4695C19.0921 11.4723 19.0921 11.4723 19.2869 11.4751C19.3985 11.4761 19.5101 11.477 19.6251 11.478C19.9966 11.5324 20.2138 11.6425 20.5117 11.8692C20.6341 12.2581 20.6341 12.2581 20.6269 12.6758C20.4234 12.9987 20.2777 13.1961 19.9355 13.3672C19.7362 13.38 19.5364 13.3856 19.3367 13.3876C19.2117 13.3891 19.0867 13.3906 18.9579 13.3921C18.8223 13.393 18.6866 13.3938 18.5469 13.3947C18.4079 13.3956 18.2689 13.3965 18.1257 13.3975C17.8311 13.3991 17.5365 13.4003 17.242 13.4012C16.7913 13.4032 16.3406 13.4083 15.89 13.4134C15.604 13.4145 15.3181 13.4155 15.0322 13.4163C14.8973 13.4183 14.7624 13.4203 14.6233 13.4224C13.6909 13.4199 13.6909 13.4199 13.228 13.1584C12.9338 12.7993 12.89 12.5615 12.9062 12.0996C13.3988 11.3318 14.0873 11.4434 14.93 11.4551Z" fill="#878787"/>
<path d="M36.1836 25.8125C37.008 26.3997 37.7724 27.0556 38.4883 27.7715C37.8765 28.0902 37.2635 28.4061 36.6491 28.7196C36.4402 28.8266 36.2318 28.9344 36.0237 29.0429C35.7246 29.1987 35.4243 29.3518 35.1235 29.5045C34.9843 29.5781 34.9843 29.5781 34.8423 29.6532C34.1909 29.9792 34.1909 29.9792 33.7707 29.8851C33.5273 29.7266 33.3412 29.5692 33.1443 29.356C32.8058 28.9996 32.4512 28.6852 32.068 28.3778C31.9947 28.3058 31.9947 28.3058 31.9199 28.2324C31.9199 28.1564 31.9199 28.0803 31.9199 28.002C32.045 27.9397 32.1701 27.8775 32.2989 27.8134C32.7614 27.5832 33.2237 27.3527 33.686 27.1221C33.8864 27.0222 34.0868 26.9224 34.2873 26.8226C34.5748 26.6795 34.8622 26.5362 35.1496 26.3927C35.2398 26.3479 35.3299 26.3032 35.4228 26.257C35.8299 26.0743 35.8299 26.0743 36.1836 25.8125Z" fill="#F9C474"/>
<path d="M30.5371 27.0801C30.8819 27.2372 31.1467 27.4199 31.4302 27.6707C31.5362 27.7638 31.5362 27.7638 31.6444 27.8588C31.6973 27.906 31.7502 27.9533 31.8047 28.002C31.5316 28.3083 31.2493 28.4758 30.8828 28.6573C30.7331 28.7329 30.7331 28.7329 30.5803 28.8099C30.3066 28.9238 30.3066 28.9238 29.9609 28.9238C30.1441 28.3061 30.3285 27.6898 30.5371 27.0801Z" fill="#9F9E9D"/>
</g>
<defs>
<clipPath id="clip0_752_1857">
<rect width="59" height="59" fill="white"/>
</clipPath>
</defs>
</svg>
