<svg width="59" height="59" viewBox="0 0 59 59" fill="none" xmlns="http://www.w3.org/2000/svg">
<g clip-path="url(#clip0_753_1880)">
<path d="M43.2128 4.26364C43.3458 4.3342 43.4787 4.40476 43.6157 4.47745C47.0122 6.34725 50.1378 9.09044 52.4316 12.2148C52.5293 12.3449 52.6269 12.475 52.7246 12.6051C57.1183 18.5323 58.9374 26.1292 57.9628 33.4179C57.4342 36.8854 56.3929 40.1197 54.7363 43.2129C54.6657 43.3458 54.5952 43.4788 54.5225 43.6157C53.6481 45.2039 52.5781 46.681 51.3945 48.0527C51.3201 48.1399 51.2456 48.2271 51.169 48.3169C49.841 49.8328 48.4124 51.241 46.7851 52.4316C46.6551 52.5291 46.5252 52.6266 46.3953 52.7242C40.4481 57.1342 32.8894 58.8998 25.582 57.9629C22.116 57.4436 18.8766 56.391 15.7871 54.7363C15.6541 54.6657 15.5212 54.5952 15.3842 54.5225C14.151 53.8436 12.8959 53.0637 11.8592 52.1053C11.4595 51.8079 11.2514 51.7932 10.76 51.7978C10.0907 51.8041 10.0907 51.8041 9.74896 51.4701C9.56441 51.164 9.56441 51.164 9.56441 50.8183C9.42537 50.7648 9.42537 50.7648 9.28352 50.7103C8.98823 50.5879 8.98823 50.5879 8.873 50.4726C8.86993 50.2974 8.86767 50.1221 8.8658 49.9469C8.80558 49.3096 8.58252 49.0782 8.11677 48.664C7.52643 48.1058 7.05585 47.4327 6.56831 46.7851C6.51864 46.7194 6.46897 46.6537 6.4178 46.586C1.93613 40.6133 0.0498198 32.9656 1.03706 25.582C1.56568 22.1145 2.60696 18.8802 4.26362 15.7871C4.33418 15.6541 4.40474 15.5212 4.47744 15.3842C6.34723 11.9877 9.09043 8.86216 12.2148 6.56833C12.3449 6.47065 12.475 6.37297 12.6051 6.27529C21.1994 -0.0954761 33.0873 -0.926338 43.2128 4.26364Z" fill="#EEEDF2"/>
<path d="M25.9233 8.72253C26.0778 8.7211 26.0778 8.7211 26.2353 8.71963C26.5751 8.71685 26.9149 8.71584 27.2547 8.71508C27.4917 8.71404 27.7287 8.71299 27.9656 8.71193C28.4624 8.71003 28.9591 8.70914 29.4558 8.7088C30.0907 8.70818 30.7254 8.70385 31.3602 8.69858C31.8498 8.69514 32.3393 8.69432 32.8289 8.6942C33.0628 8.69372 33.2967 8.69229 33.5307 8.68988C33.8589 8.68676 34.1869 8.68734 34.5151 8.68877C34.6106 8.68706 34.7062 8.68535 34.8047 8.68359C35.5267 8.69254 36.0614 8.90658 36.6445 9.33401C37.1261 9.86299 37.2687 10.4318 37.2608 11.13C37.1715 11.7499 36.7966 12.1892 36.3492 12.6038C35.7889 12.9774 35.4865 13.0311 34.8008 13.0215C34.8052 14.2767 34.812 15.5319 34.822 16.7871C34.8265 17.3701 34.8302 17.953 34.832 18.536C34.8338 19.0994 34.8377 19.6627 34.8432 20.2261C34.8449 20.4402 34.8458 20.6543 34.8459 20.8684C34.8452 22.9519 34.8452 22.9519 35.8683 24.717C36.2364 25.0366 36.646 25.2716 37.0695 25.51C37.9571 26.0293 38.7934 26.5786 39.5254 27.3106C39.5824 22.1769 39.5824 22.1769 39.6406 16.9395C39.2984 16.8824 39.2984 16.8824 38.9492 16.8242C38.2947 16.4708 37.9175 16.0338 37.6816 15.3262C37.6167 14.6705 37.6438 14.1544 38.0273 13.5977C38.7174 12.9172 39.1352 12.7737 40.1057 12.7725C40.2137 12.7719 40.3216 12.7713 40.4328 12.7707C40.7911 12.7691 41.1495 12.7683 41.5078 12.7676C41.7564 12.767 42.005 12.7663 42.2536 12.7656C42.7756 12.7644 43.2975 12.7638 43.8195 12.7634C44.4881 12.7627 45.1566 12.76 45.8252 12.7567C46.339 12.7545 46.8529 12.7539 47.3667 12.7538C47.6132 12.7534 47.8596 12.7525 48.1061 12.751C48.4511 12.749 48.7962 12.7492 49.1413 12.75C49.2429 12.7489 49.3446 12.7478 49.4494 12.7468C50.1083 12.7512 50.612 12.844 51.119 13.3055C51.5608 13.8759 51.7984 14.2193 51.7762 14.9629C51.6878 15.5724 51.3963 16.0637 50.9336 16.4641C50.2625 16.9395 50.2625 16.9395 49.7812 16.9395C49.7817 17.0503 49.7821 17.1612 49.7825 17.2754C49.7928 19.9772 49.8003 22.679 49.8051 25.3809C49.8075 26.6875 49.8107 27.9941 49.816 29.3006C49.8206 30.4399 49.8236 31.5792 49.8246 32.7185C49.8252 33.3213 49.8266 33.9241 49.83 34.527C49.8331 35.0953 49.8341 35.6636 49.8334 36.232C49.8335 36.4397 49.8344 36.6473 49.8362 36.855C49.8512 38.7 49.5809 40.2881 48.3053 41.718C47.1361 42.8288 45.8205 43.1432 44.2635 43.1247C43.6544 43.1027 43.0941 42.9558 42.5215 42.752C42.4939 42.8481 42.4662 42.9442 42.4378 43.0432C42.268 43.5061 42.0473 43.898 41.7869 44.3148C41.7368 44.3951 41.6867 44.4753 41.635 44.5579C41.0982 45.3898 40.4501 46.0839 39.7559 46.7852C39.6865 46.8615 39.6171 46.9379 39.5456 47.0166C37.6764 49.0412 34.4628 50.4574 31.7311 50.6116C31.3452 50.621 30.9602 50.6255 30.5742 50.6243C30.3373 50.6239 30.1006 50.6266 29.8637 50.6296C26.4107 50.6463 23.3376 49.1241 20.8574 46.7852C20.7794 46.7146 20.7015 46.6441 20.6211 46.5714C17.8431 43.9604 16.8913 40.2162 16.7108 36.5424C16.7102 36.424 16.7096 36.3056 16.709 36.1836C16.747 36.1456 16.785 36.1076 16.8242 36.0684C16.8595 35.8554 16.8897 35.6415 16.9178 35.4274C17.3508 32.5533 18.461 30.1818 20.3965 28.002C20.4812 27.9063 20.5658 27.8107 20.6531 27.7121C21.6455 26.6565 22.8636 25.8984 24.0984 25.1571C25.0209 24.574 25.4226 23.8524 25.6973 22.8164C25.7422 22.4765 25.7477 22.1422 25.7471 21.7996C25.7483 21.7039 25.7494 21.6082 25.7506 21.5096C25.7541 21.1972 25.7552 20.8849 25.7562 20.5725C25.7582 20.3544 25.7603 20.1363 25.7625 19.9181C25.768 19.347 25.7714 18.7758 25.7744 18.2047C25.7779 17.6207 25.7832 17.0367 25.7884 16.4527C25.7983 15.309 25.8061 14.1652 25.8125 13.0215C25.7076 13.0246 25.7076 13.0246 25.6006 13.0278C25.5081 13.0295 25.4157 13.0311 25.3205 13.0328C25.2292 13.0349 25.1378 13.0369 25.0438 13.0391C24.6006 13.0101 24.3107 12.8317 23.9687 12.5606C23.9016 12.5099 23.8345 12.4593 23.7653 12.4071C23.4144 12.0833 23.2911 11.844 23.2184 11.3673C23.1997 10.7554 23.2115 10.282 23.4718 9.72293C24.2464 8.92744 24.8422 8.72339 25.9233 8.72253Z" fill="#192383"/>
<path d="M27.1951 13.0215C29.2486 13.0215 31.3021 13.0215 33.4178 13.0215C33.4178 13.5919 33.4178 14.1623 33.4178 14.75C33.1243 14.7585 33.1243 14.7585 32.825 14.7671C32.5688 14.7758 32.3127 14.7845 32.0566 14.7932C31.9276 14.7968 31.7986 14.8003 31.6656 14.804C31.4802 14.8107 31.4802 14.8107 31.2909 14.8175C31.1769 14.8211 31.0628 14.8248 30.9453 14.8285C30.6244 14.8465 30.6244 14.8465 30.3065 15.0957C30.2585 15.4414 30.2585 15.4414 30.3065 15.7871C30.6151 16.0958 30.7835 16.0527 31.2148 16.0653C31.3493 16.0697 31.4837 16.0742 31.6222 16.0788C31.8337 16.0841 31.8337 16.0841 32.0494 16.0896C32.1912 16.0941 32.3331 16.0985 32.4793 16.1031C32.8305 16.114 33.1818 16.1235 33.533 16.1328C33.533 16.7412 33.533 17.3497 33.533 17.9766C31.9929 18.0336 31.9929 18.0336 30.4217 18.0918C30.3837 18.358 30.3456 18.6242 30.3065 18.8984C30.6151 19.2071 30.7835 19.1641 31.2148 19.1766C31.3493 19.1811 31.4837 19.1855 31.6222 19.1901C31.8337 19.1955 31.8337 19.1955 32.0494 19.2009C32.1912 19.2054 32.3331 19.2098 32.4793 19.2144C32.8305 19.2253 33.1818 19.2349 33.533 19.2441C33.533 19.8526 33.533 20.461 33.533 21.0879C32.4683 21.1259 31.4035 21.1639 30.3065 21.2031C30.3065 21.5454 30.3065 21.8876 30.3065 22.2402C31.9036 22.2973 31.9036 22.2973 33.533 22.3555C33.6471 23.04 33.6471 23.04 33.7635 23.7383C34.3036 25.2864 35.2977 26.0178 36.652 26.8169C39.49 28.5125 41.3744 31.2724 42.186 34.4483C42.3441 35.1213 42.4211 35.7727 42.4133 36.4645C42.4122 36.5855 42.4112 36.7066 42.4101 36.8313C42.4081 36.967 42.4081 36.967 42.4061 37.1055C41.9463 36.8796 41.4929 36.6535 41.0521 36.3925C40.2169 35.9267 39.1294 35.9401 38.2023 36.1255C37.7123 36.2986 37.2771 36.5775 36.8474 36.8651C36.2615 37.2262 35.575 37.2118 34.9158 37.1055C34.3395 36.8705 33.8222 36.5221 33.3026 36.1836C32.6406 35.8526 31.4598 35.985 30.7517 36.1552C30.2093 36.367 29.743 36.6552 29.2694 36.9902C28.646 37.198 27.9419 37.2994 27.3293 37.0032C27.1039 36.8688 26.8828 36.7292 26.6622 36.5869C25.6833 35.9711 24.7588 35.8568 23.6229 36.0684C23.0442 36.2536 22.6131 36.5273 22.1464 36.911C21.5385 37.2328 20.9513 37.2212 20.2811 37.1055C19.8951 36.9315 19.5562 36.7327 19.2044 36.4978C18.9159 36.3103 18.6449 36.1841 18.3221 36.0684C18.1087 33.549 19.5701 31.0593 21.1237 29.1831C22.1152 28.0312 23.2732 27.2026 24.5722 26.4316C25.4265 25.9156 26.1032 25.3531 26.5397 24.4369C26.594 24.3265 26.6482 24.2162 26.704 24.1024C27.0113 23.3329 27.1143 22.6323 27.1166 21.8126C27.1178 21.7169 27.119 21.6213 27.1202 21.5227C27.1237 21.2097 27.1257 20.8967 27.1276 20.5837C27.1298 20.3655 27.132 20.1472 27.1344 19.9289C27.1403 19.3568 27.1449 18.7847 27.1491 18.2126C27.1546 17.5248 27.1617 16.8371 27.1685 16.1493C27.1786 15.1067 27.1867 14.0641 27.1951 13.0215Z" fill="#FCFCFD"/>
<path d="M25.2365 37.2207C25.6629 37.432 26.0631 37.6658 26.4658 37.9184C27.3633 38.4423 28.3409 38.5498 29.352 38.2938C29.8667 38.0986 30.303 37.8411 30.7605 37.5376C31.3795 37.1584 31.899 37.0692 32.6115 37.2207C33.0584 37.4135 33.4647 37.6578 33.879 37.9121C34.7846 38.4345 35.7019 38.5562 36.7257 38.2929C37.2426 38.0994 37.6824 37.8396 38.1427 37.5376C38.7283 37.178 39.1951 37.0787 39.8712 37.2207C40.2789 37.3765 40.6484 37.5749 41.0236 37.7968C41.624 38.1662 41.624 38.1662 42.2911 38.373C42.3255 39.1161 42.2116 39.7353 42.0031 40.4472C41.9722 40.553 41.9414 40.6587 41.9096 40.7677C41.4286 42.3446 40.6951 43.6707 39.6407 44.9414C39.5617 45.0392 39.4827 45.1371 39.4013 45.238C37.4622 47.5254 34.5442 48.9951 31.5743 49.3203C30.9954 49.3525 30.4249 49.3451 29.8458 49.3203C29.7132 49.3167 29.5805 49.3131 29.4439 49.3095C26.2555 49.165 23.459 47.6091 21.2609 45.3519C19.4325 43.3446 18.2026 40.5819 18.1855 37.8472C18.1927 37.7165 18.1998 37.5858 18.2072 37.4511C18.5166 37.5664 18.7987 37.6904 19.0854 37.8553C19.9821 38.3702 20.7516 38.5627 21.7794 38.373C22.2172 38.2174 22.6134 38.0043 23.0177 37.7766C23.7337 37.3752 24.4043 37.0242 25.2365 37.2207Z" fill="#F0867E"/>
<path d="M14.7017 8.02235C15.7664 8.63125 16.3267 9.45513 16.7088 10.6016C16.7188 10.7802 16.7224 10.9592 16.7219 11.138C16.7219 11.3006 16.7219 11.3006 16.7219 11.4665C16.7213 11.5832 16.7207 11.6999 16.7201 11.8201C16.7199 11.9399 16.7198 12.0596 16.7196 12.1829C16.7189 12.5657 16.7175 12.9485 16.716 13.3312C16.7155 13.5906 16.7149 13.8499 16.7145 14.1093C16.7132 14.7454 16.7113 15.3815 16.7088 16.0176C16.8372 16.015 16.9655 16.0123 17.0977 16.0095C17.5155 16.0176 17.5155 16.0176 17.7459 16.1473C17.9237 16.4807 17.8511 16.7017 17.7459 17.0547C17.3501 17.3186 17.1715 17.3058 16.7088 17.2852C16.7094 17.3579 16.7099 17.4305 16.7104 17.5053C16.7232 19.2802 16.7327 21.055 16.7387 22.8299C16.7416 23.6883 16.7457 24.5466 16.7523 25.4049C16.7581 26.1538 16.7618 26.9027 16.763 27.6516C16.7638 28.0475 16.7655 28.4433 16.7697 28.8391C16.7918 31.1593 16.6861 32.8307 15.2445 34.7155C15.0809 34.9358 14.9279 35.1617 14.7751 35.3896C14.6659 35.5487 14.5566 35.7077 14.4474 35.8668C14.3977 35.9424 14.3481 36.0181 14.297 36.0961C14.0235 36.4838 13.8833 36.6252 13.4219 36.7868C13.0213 36.7598 13.0213 36.7598 12.7296 36.5424C12.3727 36.0923 12.0292 35.6361 11.6961 35.1681C11.6321 35.0795 11.5681 34.9909 11.5021 34.8996C11.3145 34.638 11.1304 34.3741 10.9471 34.1094C10.8947 34.0372 10.8422 33.9649 10.7882 33.8905C10.0243 32.777 9.84073 31.5193 9.85767 30.1972C9.85761 30.0565 9.85754 29.9157 9.85747 29.7708C9.85773 29.3901 9.86002 29.0096 9.86327 28.629C9.86618 28.2293 9.86642 27.8296 9.86697 27.4299C9.86839 26.6753 9.87216 25.9208 9.87681 25.1662C9.88198 24.3062 9.8845 23.4462 9.88681 22.5861C9.89161 20.8191 9.8997 19.0522 9.91 17.2852C9.71727 17.2892 9.71727 17.2892 9.52064 17.2933C9.10336 17.2852 9.10336 17.2852 8.88009 17.1556C8.70219 16.8416 8.72001 16.602 8.75766 16.2481C8.98813 16.0176 8.98813 16.0176 9.2375 15.9951C9.33108 15.9978 9.42467 16.0005 9.52109 16.0032C9.61526 16.0053 9.70944 16.0074 9.80647 16.0095C9.87866 16.0122 9.95086 16.0149 10.0252 16.0176C10.024 15.948 10.0227 15.8784 10.0214 15.8067C10.0085 15.0775 9.99989 14.3485 9.99359 13.6193C9.9907 13.3477 9.98678 13.0761 9.98177 12.8045C9.97473 12.4126 9.9715 12.0208 9.96897 11.6288C9.966 11.5087 9.96302 11.3887 9.95996 11.2649C9.95958 10.2702 10.2849 9.61943 10.7959 8.78668C11.8948 7.71742 13.2888 7.37993 14.7017 8.02235Z" fill="#1A2383"/>
<path d="M46.0723 23.8031C46.218 23.8009 46.3637 23.7987 46.5138 23.7964C46.9496 23.8217 47.3267 23.946 47.7385 24.0876C47.8623 24.1299 47.9861 24.1721 48.1137 24.2157C48.2077 24.2483 48.3017 24.2809 48.3986 24.3145C48.4094 26.1707 48.4175 28.0269 48.4224 29.8831C48.4248 30.7451 48.428 31.607 48.4333 32.469C48.4379 33.2208 48.4409 33.9725 48.4419 34.7243C48.4425 35.1219 48.4439 35.5195 48.4473 35.9171C48.451 36.3623 48.4511 36.8074 48.4509 37.2526C48.4525 37.3827 48.4542 37.5129 48.4559 37.647C48.4498 38.8368 48.1816 39.8366 47.3457 40.7102C46.5182 41.4735 45.8216 41.7545 44.7111 41.7437C44.6196 41.7446 44.5281 41.7455 44.4338 41.7464C43.9368 41.7447 43.5505 41.7144 43.0978 41.4844C43.3062 40.278 43.3062 40.278 43.4507 39.7415C43.8511 38.0865 43.7931 36.2261 43.4435 34.5704C43.4011 34.3582 43.4011 34.3582 43.358 34.1418C43.1737 33.284 42.9075 32.4797 42.5576 31.6751C42.5242 31.5969 42.4907 31.5186 42.4563 31.438C42.2695 31.0277 42.0813 30.6786 41.8007 30.322C40.8379 29.0861 40.9002 27.9202 40.9587 26.4031C40.964 26.1662 40.9687 25.9293 40.9729 25.6924C40.9842 25.1176 41.0021 24.5433 41.0236 23.9688C41.0924 23.985 41.1613 24.0013 41.2322 24.018C41.3238 24.0391 41.4154 24.0601 41.5097 24.0819C41.6451 24.1133 41.6451 24.1133 41.7832 24.1455C42.2216 24.2305 42.6524 24.2383 43.0978 24.2353C43.2349 24.235 43.2349 24.235 43.3748 24.2348C43.9383 24.2255 44.3745 24.1469 44.897 23.9323C45.2865 23.8208 45.6701 23.8092 46.0723 23.8031Z" fill="#29AAF4"/>
<path d="M11.293 17.2852C12.6239 17.2852 13.9549 17.2852 15.3262 17.2852C15.3392 19.1394 15.3498 20.9935 15.356 22.8478C15.359 23.7088 15.363 24.5699 15.3696 25.431C15.3754 26.182 15.3791 26.933 15.3804 27.6841C15.3811 28.0813 15.3829 28.4785 15.3871 28.8756C15.3918 29.3205 15.3918 29.7653 15.3916 30.2102C15.3936 30.3399 15.3957 30.4696 15.3979 30.6033C15.3896 31.8836 14.9239 32.9386 14.1594 33.9509C14.0852 34.0541 14.0852 34.0541 14.0095 34.1593C13.7753 34.4786 13.5846 34.6942 13.2519 34.916C13.0091 34.6181 12.7702 34.3172 12.5317 34.0157C12.4641 33.9329 12.3966 33.8501 12.3269 33.7648C11.4629 32.6629 11.223 31.606 11.2406 30.2233C11.2406 30.0826 11.2405 29.9419 11.2404 29.797C11.2407 29.4154 11.243 29.0339 11.2462 28.6523C11.2491 28.252 11.2494 27.8516 11.2499 27.4513C11.2514 26.6951 11.2551 25.9389 11.2598 25.1827C11.2649 24.3211 11.2675 23.4594 11.2698 22.5977C11.2746 20.8268 11.283 19.056 11.293 17.2852Z" fill="#FDC308"/>
<path d="M51.625 14.1738C52.1082 14.3748 52.2475 14.6072 52.4586 15.0714C52.6651 15.6674 52.6152 16.1583 52.3596 16.7306C52.1034 17.1889 51.8333 17.4565 51.3945 17.7461C51.1653 17.7912 50.9348 17.8307 50.7031 17.8613C50.7035 17.9722 50.704 18.0831 50.7044 18.1973C50.7147 20.8991 50.7222 23.6009 50.727 26.3027C50.7294 27.6093 50.7326 28.9159 50.7379 30.2225C50.7425 31.3618 50.7455 32.501 50.7465 33.6403C50.7471 34.2432 50.7485 34.846 50.7519 35.4488C50.755 36.0172 50.7559 36.5855 50.7553 37.1538C50.7554 37.3615 50.7563 37.5692 50.7581 37.7769C50.7729 39.5959 50.52 41.0791 49.2771 42.4855C48.1326 43.4938 47.2242 43.9421 45.6832 43.9547C45.5811 43.9559 45.4789 43.9571 45.3737 43.9583C44.6746 43.949 44.0918 43.818 43.4434 43.5586C43.4339 43.6367 43.4243 43.7149 43.4146 43.7954C43.3043 44.2283 43.0983 44.5785 42.8672 44.9558C42.8207 45.0321 42.7741 45.1085 42.7262 45.1871C41.1851 47.6638 39.0432 49.3909 36.4141 50.5879C36.2178 50.6786 36.2178 50.6786 36.0175 50.7711C35.559 50.9528 35.1081 51.0711 34.6279 51.1785C34.5449 51.1979 34.4619 51.2174 34.3763 51.2374C30.8566 52.0458 27.1397 51.4883 24.0624 49.6012C23.468 49.1954 22.9076 48.7443 22.3555 48.2832C22.3935 48.2071 22.4315 48.1311 22.4707 48.0527C22.5462 48.1029 22.6216 48.1532 22.6994 48.2049C24.9653 49.6835 27.3573 50.5434 30.0738 50.5177C30.3066 50.5159 30.5393 50.5177 30.7721 50.5199C32.2046 50.5224 33.5859 50.308 34.916 49.7596C35.0023 49.7249 35.0885 49.6901 35.1774 49.6542C38.5152 48.2756 40.9064 45.9715 42.5215 42.752C42.5916 42.7686 42.6617 42.7852 42.7339 42.8024C44.3965 43.1544 45.9656 43.1475 47.4478 42.2622C48.6198 41.4693 49.2844 40.3459 49.6178 38.9689C49.6939 38.574 49.6992 38.1815 49.6981 37.7811C49.6991 37.6465 49.6991 37.6465 49.7001 37.5092C49.7021 37.211 49.7024 36.9129 49.7028 36.6148C49.7038 36.4001 49.705 36.1854 49.7063 35.9707C49.7094 35.3896 49.7112 34.8085 49.7127 34.2274C49.7145 33.6195 49.7175 33.0115 49.7205 32.4036C49.7259 31.2531 49.7301 30.1027 49.7339 28.9522C49.7383 27.6422 49.744 26.3321 49.7498 25.022C49.7617 22.3278 49.772 19.6336 49.7812 16.9395C49.8611 16.9012 49.9409 16.863 50.0232 16.8235C50.1275 16.7727 50.2319 16.7218 50.3394 16.6694C50.443 16.6192 50.5466 16.5691 50.6534 16.5175C51.0999 16.2718 51.2973 15.9622 51.5386 15.5278C51.6619 15.0756 51.6433 14.6396 51.625 14.1738Z" fill="#D2D4E7"/>
<path d="M41.0234 16.9395C43.4572 16.9395 45.8909 16.9395 48.3984 16.9395C48.3984 18.9169 48.3984 20.8943 48.3984 22.9316C47.707 22.8164 47.707 22.8164 47.3037 22.694C46.159 22.4083 45.1189 22.5713 44.0213 22.9424C42.922 23.2728 42.1479 22.9319 41.0234 22.5859C41.0234 20.7226 41.0234 18.8593 41.0234 16.9395Z" fill="#FEFEFE"/>
<path d="M13.3039 37.3242C13.713 37.4512 13.713 37.4512 13.953 37.7726C14.0227 37.9184 14.0889 38.0659 14.1524 38.2146C14.1892 38.2944 14.2261 38.3743 14.2641 38.4565C14.3911 38.7346 14.5129 39.0146 14.6349 39.2949C14.737 39.5229 14.8392 39.7508 14.9415 39.9787C16.3456 43.1382 16.3456 43.1382 15.8809 44.5165C15.53 45.3051 15.0529 45.7448 14.2757 46.1032C13.5207 46.3436 12.676 46.3536 11.9413 46.0361C11.3212 45.6682 10.7438 45.0434 10.4865 44.3652C10.3197 42.9988 10.6186 41.9149 11.1779 40.6777C11.2316 40.5564 11.2854 40.435 11.3408 40.31C11.6385 39.6398 11.9401 38.9713 12.2488 38.306C12.3005 38.194 12.3522 38.082 12.4055 37.9666C12.6586 37.5019 12.76 37.3402 13.3039 37.3242Z" fill="#192381"/>
<path d="M10.0033 47.0862C10.1223 47.0852 10.1223 47.0852 10.2436 47.0843C10.5057 47.0828 10.7678 47.0838 11.0299 47.085C11.212 47.0847 11.3941 47.0844 11.5762 47.084C11.9579 47.0835 12.3395 47.0842 12.7212 47.0858C13.2106 47.0878 13.7 47.0867 14.1894 47.0846C14.5655 47.0833 14.9415 47.0837 15.3176 47.0846C15.498 47.0849 15.6785 47.0846 15.859 47.0838C16.1111 47.0829 16.3632 47.0842 16.6154 47.0862C16.7589 47.0864 16.9024 47.0867 17.0503 47.087C17.4002 47.1309 17.4002 47.1309 17.6193 47.2879C17.807 47.5677 17.7907 47.7942 17.7918 48.1284C17.7922 48.2557 17.7927 48.383 17.7931 48.5142C17.7918 48.6471 17.7905 48.78 17.7891 48.917C17.7904 49.05 17.7918 49.1829 17.7931 49.3199C17.7927 49.4472 17.7922 49.5745 17.7918 49.7057C17.7914 49.8223 17.791 49.939 17.7906 50.0592C17.7459 50.3575 17.7459 50.3575 17.6185 50.5455C17.2934 50.7802 17.0257 50.7519 16.6278 50.7585C16.5108 50.7611 16.5108 50.7611 16.3914 50.7637C16.1337 50.7689 15.8759 50.7717 15.6181 50.7743C15.4388 50.7771 15.2596 50.78 15.0803 50.783C14.7046 50.789 14.3288 50.7936 13.9531 50.7975C13.4716 50.8025 12.9903 50.8106 12.5089 50.8196C12.1387 50.8262 11.7685 50.8312 11.3982 50.8356C11.2207 50.8379 11.0433 50.8408 10.8658 50.8442C10.6175 50.8487 10.3694 50.8509 10.1211 50.8525C9.97984 50.8543 9.83861 50.8561 9.69309 50.8579C9.30365 50.8151 9.14392 50.7513 8.87282 50.4727C8.81501 50.1639 8.81501 50.1639 8.81565 49.7957C8.81558 49.6632 8.81551 49.5307 8.81543 49.3942C8.81773 49.2557 8.82003 49.1173 8.82241 48.9746C8.82159 48.8362 8.82077 48.6978 8.81993 48.5551C8.82729 47.5446 8.82729 47.5446 8.99953 47.2872C9.3291 47.0519 9.60177 47.0869 10.0033 47.0862Z" fill="#151F81"/>
<path d="M13.8281 9.10346C14.4629 9.37903 14.8899 9.74214 15.2286 10.3519C15.4197 10.8409 15.3819 11.3472 15.3712 11.865C15.3705 11.9841 15.3699 12.1032 15.3692 12.2259C15.3666 12.6039 15.3608 12.9819 15.355 13.3599C15.3526 13.6172 15.3505 13.8744 15.3487 14.1317C15.344 14.7604 15.335 15.3888 15.3261 16.0175C13.9952 16.0175 12.6642 16.0175 11.2929 16.0175C11.2823 15.2794 11.2732 14.5416 11.2676 13.8034C11.2653 13.5526 11.2622 13.3018 11.2582 13.051C11.2525 12.6894 11.25 12.3279 11.2479 11.9663C11.2456 11.8551 11.2432 11.7439 11.2407 11.6294C11.2405 10.8474 11.3669 10.1921 11.9289 9.61522C12.5446 9.08685 13.0316 8.98529 13.8281 9.10346Z" fill="#FBFBFC"/>
<path d="M17.8613 16.709C18.4087 16.7954 18.4087 16.7954 18.668 17.0547C18.7052 17.405 18.7206 17.6474 18.5527 17.9622C18.1845 18.1693 17.8187 18.0994 17.4004 18.0918C17.4018 18.2066 17.4018 18.2066 17.4032 18.3237C17.4253 20.1907 17.4454 22.0578 17.4634 23.9249C17.4721 24.8278 17.4815 25.7307 17.4925 26.6336C17.502 27.4211 17.5103 28.2086 17.5171 28.9962C17.5208 29.4127 17.525 29.8291 17.5308 30.2456C17.5373 30.712 17.5409 31.1784 17.5443 31.6448C17.5478 31.8491 17.5478 31.8491 17.5513 32.0575C17.5547 32.9424 17.4246 33.723 17.1699 34.5703C17.0558 34.4562 17.0558 34.4562 16.9395 34.3398C16.8725 34.4312 16.8725 34.4312 16.8042 34.5244C16.5973 34.8063 16.3903 35.088 16.1832 35.3698C16.113 35.4655 16.0429 35.5612 15.9705 35.6599C15.7568 35.9505 15.5418 36.2401 15.3262 36.5293C15.2537 36.6275 15.1812 36.7257 15.1065 36.8269C15.0364 36.92 14.9663 37.0131 14.894 37.1091C14.8315 37.1928 14.769 37.2765 14.7045 37.3627C14.4497 37.6433 14.1972 37.7339 13.8281 37.7969C13.486 37.5037 13.3255 37.1642 13.1367 36.7598C13.2391 36.7372 13.3414 36.7146 13.4469 36.6913C13.9232 36.4889 14.1237 36.1994 14.3971 35.7803C14.4464 35.7078 14.4956 35.6354 14.5464 35.5608C14.6457 35.4147 14.7444 35.2682 14.8423 35.1212C15.0306 34.8415 15.2293 34.5696 15.427 34.2966C16.3161 33.0151 16.6455 31.7934 16.6436 30.2364C16.6447 30.0957 16.6459 29.955 16.6471 29.8101C16.65 29.4281 16.6514 29.046 16.6521 28.664C16.6532 28.2633 16.6562 27.8627 16.659 27.4621C16.664 26.7051 16.6673 25.9481 16.67 25.191C16.6731 24.3285 16.6782 23.466 16.6834 22.6035C16.694 20.8307 16.7023 19.0579 16.709 17.2852C16.9416 17.2364 17.1741 17.1876 17.4067 17.1389C17.6735 17.0636 17.6735 17.0636 17.8613 16.709Z" fill="#D3D5E7"/>
<path d="M25.99 10.109C26.0904 10.1084 26.1909 10.1078 26.2944 10.1072C26.627 10.1056 26.9596 10.1057 27.2922 10.106C27.5231 10.1056 27.7541 10.1051 27.985 10.1045C28.4692 10.1036 28.9535 10.1037 29.4378 10.1043C30.0587 10.105 30.6796 10.103 31.3005 10.1003C31.7774 10.0986 32.2544 10.0985 32.7314 10.0989C32.9603 10.0988 33.1893 10.0982 33.4182 10.0971C33.7382 10.0957 34.0582 10.0964 34.3782 10.0978C34.5204 10.0964 34.5204 10.0964 34.6654 10.0951C35.046 10.0986 35.3273 10.1141 35.6664 10.295C35.838 10.4864 35.838 10.4864 35.8956 10.8249C35.8232 11.2688 35.7388 11.3741 35.3771 11.6387C35.0266 11.6842 34.718 11.7018 34.3676 11.6984C34.2658 11.6992 34.164 11.7 34.0592 11.7008C33.7229 11.7028 33.3867 11.7015 33.0503 11.6999C32.8167 11.7002 32.5831 11.7007 32.3495 11.7013C31.86 11.7019 31.3705 11.701 30.8811 11.6988C30.253 11.6962 29.625 11.6977 28.997 11.7005C28.5147 11.7021 28.0324 11.7016 27.5501 11.7004C27.3185 11.7001 27.0868 11.7005 26.8552 11.7015C26.5319 11.7027 26.2087 11.7009 25.8853 11.6984C25.7892 11.6993 25.6931 11.7002 25.5941 11.7012C24.9508 11.6917 24.9508 11.6917 24.6548 11.4306C24.4876 11.0454 24.5569 10.7699 24.6603 10.3711C25.1055 10.0743 25.4737 10.1075 25.99 10.109Z" fill="#FDFDFD"/>
<path d="M40.5225 14.0121C40.6733 14.0109 40.6733 14.0109 40.827 14.0097C41.159 14.0076 41.491 14.008 41.823 14.0087C42.0537 14.0081 42.2845 14.0075 42.5153 14.0068C42.9988 14.0058 43.4824 14.0061 43.966 14.0072C44.586 14.0086 45.2059 14.0062 45.8259 14.0029C46.3024 14.0007 46.7789 14.0008 47.2554 14.0014C47.484 14.0015 47.7126 14.0008 47.9413 13.9993C48.2607 13.9976 48.5801 13.9988 48.8995 14.0008C48.9941 13.9997 49.0887 13.9986 49.1862 13.9974C49.6017 14.0028 49.8486 14.0239 50.1898 14.2707C50.3575 14.5196 50.3575 14.5196 50.3503 14.8725C50.2395 15.2197 50.1744 15.3349 49.8966 15.5567C49.5564 15.5908 49.2405 15.6039 48.9002 15.6014C48.7984 15.602 48.6967 15.6026 48.5918 15.6032C48.2549 15.6048 47.918 15.6038 47.5811 15.6026C47.3473 15.6028 47.1135 15.6032 46.8797 15.6036C46.3896 15.6041 45.8994 15.6034 45.4093 15.6017C44.7803 15.5998 44.1514 15.6009 43.5225 15.603C43.0397 15.6042 42.5569 15.6038 42.0741 15.6029C41.8421 15.6027 41.6102 15.603 41.3783 15.6038C41.0544 15.6047 40.7305 15.6033 40.4066 15.6014C40.3104 15.6021 40.2141 15.6028 40.1149 15.6035C39.4622 15.5963 39.4622 15.5963 39.2132 15.4063C38.9644 15.0794 39.0153 14.7981 39.0646 14.4043C39.4603 13.9536 39.966 14.009 40.5225 14.0121Z" fill="#FAFBFC"/>
<path d="M37.1056 10.1406C37.4895 10.3187 37.6826 10.4711 37.9123 10.832C38.1086 11.4209 38.1396 12.0951 37.9488 12.6915C37.633 13.2955 37.1632 13.6169 36.5295 13.8281C36.2606 13.8327 35.9917 13.8332 35.7228 13.8281C35.7352 15.1704 35.7482 16.5127 35.7619 17.8549C35.7683 18.4782 35.7745 19.1015 35.7801 19.7247C35.7856 20.3262 35.7917 20.9277 35.7981 21.5291C35.8004 21.7586 35.8026 21.9881 35.8045 22.2176C35.8073 22.539 35.8108 22.8604 35.8144 23.1818C35.8151 23.2767 35.8157 23.3716 35.8164 23.4694C35.8222 23.9193 35.8434 24.336 35.9533 24.7754C35.3441 24.2338 34.9748 23.6173 34.801 22.8164C34.7906 22.4982 34.7864 22.1831 34.7879 21.8649C34.7879 21.7693 34.7878 21.6737 34.7878 21.5752C34.7879 21.2597 34.7888 20.9442 34.7897 20.6288C34.7899 20.4098 34.7901 20.1909 34.7902 19.9719C34.7906 19.396 34.7918 18.8201 34.793 18.2442C34.7942 17.6564 34.7948 17.0686 34.7953 16.4808C34.7966 15.3277 34.7985 14.1746 34.801 13.0215C34.8715 13.007 34.942 12.9926 35.0147 12.9777C35.1075 12.958 35.2004 12.9383 35.2961 12.918C35.388 12.8987 35.4799 12.8795 35.5746 12.8597C36.248 12.6841 36.6579 12.2624 37.0017 11.6814C37.1927 11.1795 37.1493 10.6683 37.1056 10.1406Z" fill="#D1D3E6"/>
<path d="M24.6817 30.9549C25.1973 31.239 25.5474 31.6203 25.8124 32.1504C25.8703 32.8932 25.9233 33.6006 25.4667 34.2246C24.9157 34.7518 24.5091 35.0013 23.7526 35.0745C23.1529 35.0564 22.723 34.8201 22.3005 34.402C21.8037 33.8297 21.6076 33.3953 21.6284 32.6465C21.7264 31.9148 22.1913 31.472 22.7376 31.017C23.3274 30.6092 24.0578 30.6701 24.6817 30.9549Z" fill="#1A2484"/>
<path d="M25.3895 40.7525C25.956 41.0055 26.3928 41.357 26.6193 41.9454C26.7223 42.6833 26.7294 43.4021 26.2736 44.0196C25.7522 44.5409 25.3432 44.8371 24.5883 44.8766C23.8893 44.8674 23.4322 44.6128 22.9318 44.1348C22.5334 43.6226 22.3874 43.0792 22.4186 42.4338C22.5631 41.7202 23.0318 41.1926 23.6232 40.793C24.1385 40.5354 24.8462 40.6012 25.3895 40.7525Z" fill="#1A2181"/>
<path d="M33.0005 38.4955C33.4979 38.8626 33.9121 39.2787 34.1096 39.8711C34.175 40.5311 34.1377 41.0325 33.7639 41.5996C33.3371 42.0956 32.914 42.4509 32.2541 42.5625C31.5441 42.6076 31.0791 42.3952 30.5373 41.9453C29.9684 41.3326 29.9075 40.8103 29.9134 39.9963C29.9878 39.4423 30.2425 39.0879 30.6526 38.7188C31.3578 38.2081 32.1891 38.2401 33.0005 38.4955Z" fill="#1A2181"/>
<path d="M32.9857 44.0268C33.4949 44.3855 33.9104 44.8057 34.1093 45.4024C34.1985 46.1441 34.1021 46.7559 33.6483 47.3614C33.0629 47.8976 32.52 48.0963 31.729 48.0848C31.1241 48.0132 30.7127 47.6877 30.3209 47.239C29.8606 46.6026 29.8761 45.9329 29.9608 45.1719C30.1552 44.6597 30.496 44.3575 30.9619 44.0844C31.6313 43.7909 32.2982 43.802 32.9857 44.0268Z" fill="#192181"/>
<path d="M38.5243 31.5382C39.0707 31.8457 39.3938 32.271 39.6406 32.8418C39.7587 33.5725 39.6591 34.1189 39.2297 34.7211C38.8392 35.1818 38.4715 35.455 37.8639 35.5237C37.1885 35.5485 36.6984 35.5078 36.1444 35.1006C35.621 34.5957 35.4657 34.0627 35.4346 33.346C35.4617 32.6914 35.6496 32.326 36.1255 31.87C36.8338 31.2465 37.6662 31.1397 38.5243 31.5382Z" fill="#192383"/>
<path d="M29.7303 24.8906C30.3411 25.2083 30.788 25.7326 30.9979 26.3886C31.0927 26.9656 31.0506 27.4067 30.7531 27.9155C30.1443 28.754 30.1443 28.754 29.7303 28.9238C29.0127 29.0202 28.3621 29.0378 27.6993 28.7293C27.09 28.136 26.8339 27.7267 26.8135 26.8712C26.8193 26.2656 26.8868 25.9247 27.3104 25.4668C28.0651 24.8019 28.7376 24.7579 29.7303 24.8906Z" fill="#192383"/>
<path d="M17.7461 47.9375C18.2935 48.0239 18.2935 48.0239 18.5527 48.2832C18.6057 48.7781 18.5901 49.2767 18.5887 49.774C18.5906 49.913 18.5925 50.052 18.5944 50.1951C18.5944 50.3282 18.5945 50.4612 18.5946 50.5982C18.5949 50.7205 18.5953 50.8427 18.5956 50.9687C18.5527 51.2793 18.5527 51.2793 18.4261 51.4679C18.0984 51.7029 17.8243 51.6755 17.4241 51.684C17.3449 51.6861 17.2658 51.6882 17.1843 51.6903C16.9228 51.6967 16.6613 51.7006 16.3997 51.7042C16.2179 51.7076 16.0361 51.7111 15.8542 51.7146C15.4731 51.7216 15.0919 51.7272 14.7107 51.732C14.2222 51.7383 13.734 51.7488 13.2456 51.7604C12.8701 51.7687 12.4945 51.7744 12.1189 51.7793C11.9389 51.7821 11.7588 51.7857 11.5788 51.7904C11.3269 51.7965 11.0752 51.799 10.8233 51.8006C10.68 51.8028 10.5367 51.8051 10.3891 51.8075C10.0254 51.7402 10.0254 51.7402 9.74505 51.4772C9.56445 51.1641 9.56445 51.1641 9.56445 50.7031C9.71094 50.7017 9.71094 50.7017 9.86038 50.7003C10.7795 50.6913 11.6985 50.6813 12.6176 50.67C13.0901 50.6642 13.5626 50.6589 14.0351 50.6545C14.4909 50.6503 14.9467 50.6449 15.4024 50.6388C15.5766 50.6367 15.7507 50.6349 15.9248 50.6336C16.1682 50.6317 16.4115 50.6283 16.6549 50.6246C16.863 50.6223 16.863 50.6223 17.0752 50.62C17.4159 50.6211 17.4159 50.6211 17.6309 50.3574C17.6735 50.1008 17.6735 50.1008 17.6786 49.8056C17.683 49.6971 17.6875 49.5887 17.6921 49.477C17.6956 49.3635 17.6992 49.25 17.7029 49.1331C17.7073 49.0187 17.7118 48.9043 17.7164 48.7865C17.7273 48.5035 17.7371 48.2205 17.7461 47.9375Z" fill="#CFD1E5"/>
<path d="M13.1366 39.6406C13.5382 39.9602 13.6923 40.4126 13.8856 40.8722C13.9196 40.9508 13.9536 41.0295 13.9887 41.1105C14.0911 41.3495 14.1906 41.5894 14.2889 41.8301C14.322 41.9101 14.355 41.9902 14.3891 42.0727C14.6499 42.73 14.7514 43.3117 14.6346 44.0195C14.447 44.3942 14.1798 44.622 13.8424 44.8694C13.3036 45.0279 12.9149 45.0058 12.4164 44.7469C12.0879 44.4708 11.9158 44.3003 11.7538 43.9043C11.7111 43.2328 11.8015 42.722 12.0563 42.0966C12.087 42.018 12.1177 41.9394 12.1493 41.8584C12.448 41.1053 12.7843 40.3701 13.1366 39.6406Z" fill="#F9C00A"/>
<path d="M14.1738 38.373C14.3841 38.3949 14.3841 38.3949 14.6348 38.4883C14.8031 38.7347 14.8031 38.7347 14.958 39.0609C15.0154 39.1806 15.0728 39.3003 15.132 39.4236C15.221 39.6166 15.221 39.6166 15.3118 39.8135C15.3729 39.9435 15.4341 40.0735 15.4971 40.2074C15.9697 41.2274 16.371 42.2567 16.709 43.3281C16.747 43.4422 16.785 43.5563 16.8242 43.6738C16.9265 44.6337 16.8355 45.4221 16.248 46.209C15.9538 46.481 15.6652 46.682 15.3262 46.9004C15.9726 46.9384 16.6191 46.9764 17.2852 47.0156C17.2852 47.0537 17.2852 47.0917 17.2852 47.1309C14.6613 47.1309 12.0374 47.1309 9.33398 47.1309C9.33398 47.0928 9.33398 47.0548 9.33398 47.0156C10.5509 46.9776 11.7677 46.9396 13.0215 46.9004C12.6792 46.6722 12.337 46.4441 11.9844 46.209C12.0224 46.1329 12.0604 46.0569 12.0996 45.9785C12.2707 46.0356 12.2707 46.0356 12.4453 46.0938C13.4339 46.1908 14.2922 46.147 15.0957 45.5176C15.7366 44.7825 15.961 44.1038 15.9483 43.1391C15.7646 41.591 14.9101 40.0759 14.2581 38.6818C14.1738 38.4883 14.1738 38.4883 14.1738 38.373Z" fill="#C8CAE1"/>
<path d="M37.9123 39.7559C38.4467 39.9512 38.7871 40.1761 39.0646 40.6778C39.1591 41.2542 39.1278 41.6965 38.8774 42.2262C38.4604 42.6761 38.1164 42.8417 37.5089 42.9176C36.8719 42.838 36.548 42.5647 36.1405 42.0822C35.9157 41.6411 35.8834 41.3975 35.9533 40.9082C36.4029 40.0589 36.923 39.5965 37.9123 39.7559Z" fill="#1E2583"/>
<path d="M10.2559 48.3984C12.3093 48.3984 14.3628 48.3984 16.4785 48.3984C16.4785 48.7407 16.4785 49.0829 16.4785 49.4355C14.425 49.4355 12.3716 49.4355 10.2559 49.4355C10.2559 49.0933 10.2559 48.7511 10.2559 48.3984Z" fill="#F0F0F7"/>
<path d="M16.248 9.56445C16.6294 9.74164 16.801 9.87757 17.0187 10.2415C17.0667 10.3196 17.1146 10.3977 17.1641 10.4782C17.3651 10.8743 17.4148 11.2333 17.4135 11.6743C17.4135 11.7712 17.4135 11.8681 17.4134 11.9679C17.4129 12.0714 17.4123 12.1748 17.4116 12.2815C17.4115 12.3882 17.4113 12.495 17.4111 12.605C17.4105 12.9455 17.4091 13.286 17.4076 13.6265C17.407 13.8575 17.4065 14.0886 17.406 14.3197C17.4047 14.8856 17.4028 15.4516 17.4004 16.0176C17.1722 16.0176 16.9441 16.0176 16.709 16.0176C16.7083 15.952 16.7076 15.8865 16.7069 15.8189C16.6995 15.1328 16.6898 14.4467 16.6787 13.7606C16.6749 13.505 16.6717 13.2494 16.6691 12.9938C16.6652 12.625 16.6591 12.2563 16.6527 11.8876C16.652 11.7745 16.6512 11.6614 16.6505 11.5448C16.6354 10.8273 16.5176 10.2302 16.248 9.56445Z" fill="#D1D3E6"/>
<path d="M24.0842 32.1504C24.3651 32.3304 24.3651 32.3304 24.5452 32.6113C24.538 33.029 24.538 33.029 24.4299 33.418C24.03 33.6846 23.8632 33.7072 23.3928 33.6484C23.0934 33.389 23.0521 33.2278 23.0039 32.8346C23.0471 32.4961 23.0471 32.4961 23.1768 32.28C23.4994 32.0865 23.7153 32.0977 24.0842 32.1504Z" fill="#F3F4F9"/>
<path d="M32.1073 45.179C32.4962 45.2871 32.4962 45.2871 32.7267 45.6328C32.7637 45.9886 32.7828 46.2251 32.6042 46.5403C32.2495 46.7462 31.9743 46.7199 31.5743 46.6699C31.2996 46.4306 31.2406 46.2775 31.1782 45.9209C31.2286 45.6328 31.2286 45.6328 31.4087 45.3591C31.6896 45.1718 31.6896 45.1718 32.1073 45.179Z" fill="#F4F5F9"/>
<path d="M24.6024 41.8877C24.8905 41.9453 24.8905 41.9453 25.1642 42.1254C25.3515 42.4062 25.3515 42.4062 25.337 42.824C25.2362 43.2129 25.2362 43.2129 25.0058 43.4434C24.3083 43.5068 24.3083 43.5068 23.9758 43.3137C23.7923 42.9899 23.8012 42.7718 23.8534 42.4062C24.0819 42.0846 24.2141 41.9654 24.6024 41.8877Z" fill="#F4F4F9"/>
<path d="M32.1072 39.655C32.4961 39.7559 32.4961 39.7559 32.7266 39.9863C32.79 40.6838 32.79 40.6838 32.5969 41.0162C32.2731 41.1997 32.055 41.1909 31.6895 41.1387C31.3678 40.9101 31.2486 40.778 31.1709 40.3896C31.2856 39.8159 31.5289 39.6351 32.1072 39.655Z" fill="#F5F5F9"/>
<path d="M28.9886 26.1798C29.3848 26.2735 29.3848 26.2735 29.6152 26.6192C29.5936 27.0297 29.5936 27.0297 29.5 27.4258C29.1543 27.6563 29.1543 27.6563 28.7438 27.6347C28.3477 27.541 28.3477 27.541 28.1172 27.1953C28.1388 26.7848 28.1388 26.7848 28.2324 26.3887C28.5781 26.1582 28.5781 26.1582 28.9886 26.1798Z" fill="#F7F7FA"/>
<path d="M37.5018 32.6906C37.9123 32.7266 37.9123 32.7266 38.1356 32.8562C38.3191 33.18 38.3103 33.3981 38.2581 33.7637C38.0708 34.0446 38.0708 34.0446 37.7971 34.2246C37.3922 34.2246 37.1892 34.1821 36.8824 33.9149C36.7156 33.5518 36.7681 33.3362 36.8752 32.957C37.1057 32.7266 37.1057 32.7266 37.5018 32.6906Z" fill="#F5F5F9"/>
<path d="M24.4297 12.9062C24.886 12.9443 25.3423 12.9823 25.8125 13.0215C25.8125 16.2538 25.8125 19.4861 25.8125 22.8164C25.7745 22.8164 25.7364 22.8164 25.6973 22.8164C25.6979 22.7051 25.6985 22.5938 25.6991 22.4791C25.7042 21.4295 25.7044 20.38 25.7 19.3305C25.6978 18.7909 25.6974 18.2514 25.7008 17.7118C25.7041 17.191 25.7029 16.6703 25.6986 16.1495C25.6977 15.9509 25.6985 15.7522 25.7008 15.5536C25.7621 14.505 25.7621 14.505 25.3772 13.5875C25.136 13.4295 25.136 13.4295 24.8803 13.3406C24.6602 13.252 24.6602 13.252 24.4297 12.9062Z" fill="#C1C3DB"/>
<path d="M24.4297 12.9062C24.848 12.9443 25.2663 12.9823 25.6973 13.0215C25.6973 13.2877 25.6973 13.5539 25.6973 13.8281C25.5501 13.7624 25.4039 13.6948 25.2579 13.6265C25.1356 13.5703 25.1356 13.5703 25.0108 13.513C24.7754 13.3672 24.7754 13.3672 24.4297 12.9062Z" fill="#D4D6E8"/>
<path d="M9.33398 17.2852C9.52412 17.2852 9.71426 17.2852 9.91016 17.2852C9.91016 17.5133 9.91016 17.7415 9.91016 17.9766C9.79607 17.9385 9.68199 17.9005 9.56445 17.8613C9.42761 17.566 9.42761 17.566 9.33398 17.2852Z" fill="#D1D3E6"/>
<path d="M38.9492 16.8242C39.2915 16.8813 39.2915 16.8813 39.6406 16.9395C39.6406 17.1296 39.6406 17.3197 39.6406 17.5156C39.0789 17.2131 39.0789 17.2131 38.9492 16.8242Z" fill="#D4D6E8"/>
<path d="M22.3555 48.0527C22.5097 48.1429 22.6632 48.2344 22.8164 48.3264C22.9447 48.4026 22.9447 48.4026 23.0757 48.4804C23.1422 48.5294 23.2088 48.5784 23.2773 48.6289C23.2773 48.705 23.2773 48.781 23.2773 48.8594C22.8928 48.7243 22.6119 48.6072 22.3555 48.2832C22.3555 48.2071 22.3555 48.1311 22.3555 48.0527Z" fill="#C8CAE1"/>
</g>
<defs>
<clipPath id="clip0_753_1880">
<rect width="59" height="59" fill="white"/>
</clipPath>
</defs>
</svg>
