<svg width="59" height="59" viewBox="0 0 59 59" fill="none" xmlns="http://www.w3.org/2000/svg">
<g clip-path="url(#clip0_766_1857)">
<path d="M28.2502 -0.0274425C28.3388 -0.0285711 28.4274 -0.0296997 28.5186 -0.0308625C30.5361 -0.0512475 32.4838 -0.0217554 34.4553 0.460953C34.6042 0.497077 34.6042 0.497077 34.7561 0.533931C39.8424 1.81654 44.4697 5.21338 47.2098 9.68826C50.1649 14.6501 51.1364 20.3551 49.7419 25.9878C48.9916 28.8196 47.7356 31.4555 45.8856 33.7351C45.4768 34.2391 45.0971 34.7585 44.7256 35.2905C44.2463 35.9766 43.7622 36.6585 43.2707 37.336C42.5515 38.3287 41.8439 39.3292 41.1389 40.332C40.3719 41.423 39.6 42.5098 38.8176 43.5896C38.3388 44.2512 37.867 44.9175 37.3973 45.5856C36.9038 46.2863 36.4022 46.981 35.8995 47.675C35.45 48.2959 35.0071 48.9208 34.5705 49.5508C35.2465 49.6649 35.9224 49.7775 36.6002 49.8803C43.4889 50.9432 43.4889 50.9432 45.3233 53.2239C45.5786 53.6966 45.6912 54.0805 45.5903 54.6184C45.2963 55.5642 44.5431 56.1553 43.7051 56.6265C39.9758 58.4488 35.5329 59.0077 31.42 59.0234C31.278 59.0242 31.1359 59.025 30.9895 59.0259C30.5339 59.0279 30.0783 59.0287 29.6226 59.0288C29.5451 59.0289 29.4676 59.0289 29.3877 59.029C27.1042 59.0298 24.8469 59.0151 22.5861 58.6543C22.4542 58.6339 22.3223 58.6135 22.1864 58.5925C15.4826 57.5285 15.4826 57.5285 13.728 55.299C13.4887 54.9 13.379 54.5096 13.3674 54.0449C13.6348 53.117 14.2014 52.5461 15.0239 52.086C17.4138 50.7699 20.0416 50.2379 22.7164 49.8324C23.2885 49.744 23.8591 49.6471 24.4299 49.5508C24.3727 49.4719 24.3727 49.4719 24.3143 49.3915C23.5595 48.3503 22.8093 47.3062 22.0697 46.2542C21.656 45.6667 21.2364 45.0837 20.8144 44.5021C20.214 43.6742 19.6258 42.8383 19.041 41.9993C18.5306 41.2682 18.0111 40.5442 17.4875 39.8225C17.0699 39.2464 16.6575 38.667 16.2483 38.085C15.5276 37.0604 14.7944 36.0451 14.0588 35.0313C13.9747 34.9153 13.8907 34.7992 13.804 34.6797C13.7312 34.5794 13.6585 34.4792 13.5835 34.3759C13.5125 34.2775 13.4415 34.1792 13.3683 34.0779C13.1977 33.8463 13.0247 33.6186 12.8479 33.3919C10.5931 30.4668 9.18102 26.9466 8.75802 23.2774C8.74525 23.1713 8.73247 23.0652 8.71931 22.956C8.17428 17.6087 9.72651 12.2642 13.0289 8.03041C13.5083 7.44983 14.0048 6.88714 14.5197 6.33791C14.5733 6.2804 14.6269 6.2229 14.6821 6.16365C17.8005 2.84388 22.0367 0.834028 26.5041 0.11525C26.6901 0.0849888 26.6901 0.0849888 26.8798 0.0541162C27.3379 -0.00339479 27.7893 -0.0225839 28.2502 -0.0274425Z" fill="#FC7A6E"/>
<path d="M38.8887 7.69484C39.1864 7.9243 39.4718 8.16612 39.756 8.41213C39.8139 8.46139 39.8719 8.51066 39.9316 8.56141C43.0153 11.196 45.1578 15.0611 45.5177 19.1289C45.7489 23.764 44.5322 28.0884 41.3944 31.5718C39.8232 33.2726 38.0694 34.5542 35.9533 35.4922C35.8334 35.5463 35.7135 35.6004 35.59 35.6561C31.9199 37.1865 27.5683 37.2197 23.8537 35.8379C23.343 35.6277 22.8485 35.3954 22.3556 35.1465C22.2311 35.0849 22.1066 35.0232 21.9784 34.9597C20.6044 34.2531 19.4416 33.3235 18.3224 32.2656C18.229 32.1796 18.1355 32.0936 18.0393 32.005C15.5956 29.6768 14.2049 26.5695 13.6393 23.2849C13.6064 23.0962 13.5689 22.9084 13.5298 22.721C13.0066 18.675 14.1277 14.3938 16.611 11.1571C19.3463 7.68869 22.962 5.5748 27.3107 4.83987C27.4156 4.81848 27.5204 4.79709 27.6285 4.77505C31.5101 4.25126 35.734 5.38661 38.8887 7.69484Z" fill="#F2F2FA"/>
<path d="M36.1971 0.949345C41.6562 2.85748 45.8563 6.77962 48.4389 11.9029C50.8149 16.846 50.9387 22.6597 49.1867 27.8058C48.4239 29.9588 47.3258 31.9601 45.8854 33.7351C45.4766 34.2391 45.0969 34.7585 44.7253 35.2905C44.2461 35.9766 43.7619 36.6585 43.2705 37.3359C42.5513 38.3287 41.8437 39.3292 41.1387 40.332C40.3717 41.423 39.5998 42.5098 38.8174 43.5896C38.3961 44.1717 37.9797 44.757 37.5664 45.3447C37.0661 46.0557 36.5619 46.7638 36.054 47.4694C35.9577 47.6035 35.9577 47.6035 35.8595 47.7404C35.7699 47.8645 35.7699 47.8645 35.6785 47.9911C35.5994 48.1009 35.5994 48.1009 35.5187 48.213C35.377 48.3984 35.377 48.3984 35.1465 48.6289C34.5484 47.926 34.0204 47.1891 33.5044 46.4251C33.0313 45.7246 32.548 45.0372 32.0352 44.3652C31.4686 43.6218 30.9376 42.8585 30.4133 42.0847C29.984 41.4524 29.5452 40.8283 29.0967 40.2096C29.0358 40.1256 28.9749 40.0416 28.9122 39.955C28.5857 39.5053 28.2575 39.0569 27.9286 38.6089C27.8601 38.5152 27.7916 38.4215 27.7211 38.3249C27.59 38.1456 27.4585 37.9666 27.3263 37.7881C27.2672 37.7071 27.2081 37.626 27.1471 37.5426C27.0951 37.4719 27.0431 37.4012 26.9895 37.3284C26.8289 37.0725 26.7239 36.8121 26.6191 36.5293C26.7281 36.5413 26.7281 36.5413 26.8392 36.5535C28.9396 36.7664 31.1303 36.8205 33.1875 36.2988C33.2675 36.2791 33.3476 36.2593 33.43 36.2389C34.6484 35.932 35.7568 35.4847 36.875 34.916C37.0357 34.8385 37.0357 34.8385 37.1995 34.7594C40.7459 32.9624 43.4089 29.5578 44.6826 25.8337C45.9838 21.6914 45.6037 17.2478 43.683 13.3745C43.1147 12.2883 42.3946 11.3019 41.5996 10.3711C41.5219 10.278 41.4442 10.1848 41.3642 10.0889C38.7371 7.04067 34.8517 5.24558 30.8828 4.83986C27.7707 4.64871 24.9311 5.22685 22.125 6.56837C23.0351 3.83297 26.7641 1.4514 29.1543 0.115246C30.9396 -0.777415 34.4234 0.366305 36.1971 0.949345Z" fill="#FE938A"/>
<path d="M29.4207 10.2055C29.5947 10.2021 29.5947 10.2021 29.7722 10.1987C30.8016 10.3392 31.7044 10.8212 32.5968 11.329C33.5438 11.8571 34.4992 12.3657 35.4639 12.8605C36.5389 13.4122 37.6124 13.9666 38.6754 14.5412C38.7695 14.5911 38.8637 14.641 38.9606 14.6924C39.766 15.1325 39.766 15.1325 39.9862 15.5567C40.0565 16.1012 40.0567 16.3505 39.7918 16.8315C39.4662 17.1782 39.0538 17.3769 38.6372 17.5944C38.5674 17.6314 38.4977 17.6683 38.4259 17.7064C38.2548 17.7969 38.0834 17.8868 37.912 17.9766C37.9118 18.0438 37.9117 18.1111 37.9115 18.1804C37.9092 18.8834 37.9029 19.5862 37.8944 20.2892C37.8917 20.5511 37.8901 20.8131 37.8895 21.0751C37.8884 21.4528 37.8836 21.8302 37.8782 22.2079C37.8787 22.3241 37.8791 22.4403 37.8796 22.5601C37.86 23.5203 37.5776 24.0862 36.8893 24.7484C36.5124 25.0179 36.1376 25.2323 35.7225 25.438C35.5871 25.5064 35.4516 25.5747 35.312 25.6451C34.9385 25.803 34.6227 25.8693 34.2245 25.9278C34.2243 25.8554 34.2242 25.7831 34.224 25.7085C34.2217 24.9551 34.2155 24.2019 34.2069 23.4485C34.2042 23.1674 34.2026 22.8863 34.202 22.6052C34.2009 22.2009 34.1962 21.7969 34.1907 21.3927C34.1914 21.2043 34.1914 21.2043 34.1921 21.0121C34.1835 20.3182 34.1835 20.3182 33.8698 19.7168C33.7587 19.6369 33.6476 19.557 33.5331 19.4746C33.4374 19.4034 33.4374 19.4034 33.3398 19.3308C33.1211 19.1708 32.8983 19.0188 32.6733 18.8679C32.5917 18.8127 32.51 18.7575 32.4258 18.7006C32.2539 18.5849 32.0817 18.4695 31.9092 18.3544C31.6467 18.1787 31.3858 18.0007 31.1249 17.8227C30.9569 17.71 30.7889 17.5974 30.6207 17.4851C30.5435 17.432 30.4663 17.379 30.3867 17.3243C29.903 17.0056 29.5183 16.8449 28.9237 16.8243C28.6164 16.9779 28.6164 16.9779 28.4628 17.2852C28.4118 17.6636 28.4054 17.7681 28.578 18.0918C29.1436 18.6398 29.7599 18.9882 30.4938 19.25C31.2718 19.5785 32.0282 19.9282 32.3807 20.7422C32.7997 22.6181 32.5339 24.7206 32.3807 26.6192C29.5136 27.3207 26.53 26.8313 23.8534 25.6973C23.7742 25.664 23.6951 25.6306 23.6135 25.5963C22.5555 25.1401 21.6723 24.6052 21.203 23.5078C21.1753 23.2381 21.1753 23.2381 21.1768 22.9372C21.1769 22.8242 21.1769 22.7112 21.1769 22.5947C21.1781 22.4736 21.1793 22.3525 21.1805 22.2277C21.1808 22.103 21.1812 21.9783 21.1815 21.8499C21.1828 21.4518 21.1857 21.0538 21.1886 20.6558C21.1898 20.3859 21.1908 20.1159 21.1918 19.846C21.1943 19.1845 21.1982 18.5229 21.203 17.8614C21.0405 17.8083 21.0405 17.8083 20.8747 17.7541C20.1576 17.5107 19.3831 17.1695 19.0136 16.4786C18.9446 16.1531 18.9161 15.8764 19.0136 15.5567C19.39 15.1387 19.7542 14.8598 20.2505 14.5988C20.444 14.4961 20.444 14.4961 20.6413 14.3914C20.7805 14.3188 20.9197 14.2463 21.059 14.1739C21.2035 14.0976 21.348 14.0213 21.4924 13.9449C22.5537 13.3846 23.6197 12.8329 24.6862 12.2825C25.5007 11.8608 26.3054 11.4243 27.0996 10.9654C27.8457 10.5404 28.5463 10.2066 29.4207 10.2055Z" fill="#85A4E3"/>
<path d="M24.4045 49.6206C24.8157 49.6937 24.9382 49.9475 25.1787 50.2782C25.2269 50.3435 25.275 50.4088 25.3247 50.4761C25.8264 51.1642 26.3033 51.8714 26.7756 52.5799C27.6207 53.8708 27.6207 53.8708 28.9238 54.6211C29.6808 54.7518 30.3655 54.5937 30.998 54.1602C31.3538 53.8094 31.6331 53.4159 31.9199 53.0078C32.0294 52.8537 32.139 52.6996 32.2485 52.5455C32.3065 52.4635 32.3646 52.3814 32.4243 52.2969C32.5443 52.1273 32.6647 51.9579 32.7855 51.7888C33.0596 51.4033 33.3248 51.0189 33.5652 50.6113C34.1307 49.7141 34.1307 49.7141 34.6653 49.5913C35.0174 49.6075 35.3475 49.6559 35.6922 49.7289C35.9867 49.788 36.2814 49.8308 36.5788 49.8726C39.3803 50.2798 43.4299 50.8701 45.3231 53.2239C45.5784 53.6966 45.691 54.0805 45.59 54.6184C45.2961 55.5642 44.5429 56.1553 43.7049 56.6265C39.9756 58.4488 35.5326 59.0077 31.4198 59.0234C31.2067 59.0246 31.2067 59.0246 30.9893 59.0259C30.5337 59.0279 30.0781 59.0287 29.6224 59.0288C29.5449 59.0289 29.4674 59.0289 29.3875 59.029C27.104 59.0298 24.8467 59.0151 22.5859 58.6543C22.454 58.6339 22.3221 58.6135 22.1862 58.5925C15.4824 57.5285 15.4824 57.5285 13.7277 55.299C13.4885 54.9 13.3787 54.5096 13.3672 54.0449C13.6346 53.117 14.2012 52.5461 15.0237 52.086C17.9373 50.4815 21.1625 50.0805 24.4045 49.6206Z" fill="#7FE0B6"/>
<path d="M21.203 17.9766C21.6435 18.1446 22.0585 18.3427 22.4773 18.559C22.5438 18.5934 22.6103 18.6277 22.6789 18.663C22.8953 18.7748 23.1114 18.887 23.3276 18.9993C23.4016 19.0375 23.4756 19.0758 23.5519 19.1153C24.6493 19.6827 25.7388 20.2627 26.8127 20.8738C27.9456 21.5067 29.0948 22.0453 30.4015 21.6911C31.0282 21.4756 31.5825 21.1956 32.1502 20.8574C32.2263 20.8574 32.3023 20.8574 32.3807 20.8574C32.3807 22.7588 32.3807 24.6602 32.3807 26.6191C29.47 27.266 26.568 26.8474 23.8534 25.6973C23.7346 25.6473 23.7346 25.6473 23.6134 25.5963C22.5548 25.1398 21.6735 24.6051 21.203 23.5078C21.1753 23.2424 21.1753 23.2424 21.1768 22.9477C21.1768 22.837 21.1768 22.7263 21.1769 22.6123C21.178 22.4937 21.1792 22.375 21.1805 22.2528C21.1808 22.1307 21.1811 22.0086 21.1815 21.8828C21.1827 21.493 21.1856 21.1032 21.1886 20.7134C21.1897 20.449 21.1908 20.1846 21.1917 19.9202C21.1943 19.2723 21.1981 18.6245 21.203 17.9766Z" fill="#7293DF"/>
<path d="M24.3703 49.6251C24.6602 49.6661 24.6602 49.6661 24.9158 49.9168C25.0026 50.0361 25.0893 50.1554 25.1787 50.2783C25.2269 50.3436 25.275 50.4089 25.3247 50.4761C25.8264 51.1642 26.3033 51.8714 26.7756 52.5799C27.6207 53.8708 27.6207 53.8708 28.9238 54.6211C29.6808 54.7518 30.3655 54.5937 30.998 54.1602C31.3538 53.8095 31.6331 53.4159 31.9199 53.0079C32.0294 52.8537 32.139 52.6997 32.2485 52.5456C32.3065 52.4635 32.3646 52.3815 32.4243 52.2969C32.5443 52.1273 32.6647 51.9579 32.7855 51.7889C33.0596 51.4033 33.3248 51.0189 33.5652 50.6114C33.8014 50.2366 33.9961 49.9459 34.3398 49.6661C34.9088 49.5679 35.3947 49.6536 35.9531 49.7813C36.0633 49.8025 36.1736 49.8238 36.2871 49.8457C36.5231 49.8937 36.7571 49.9515 36.9902 50.0118C36.5039 50.8102 35.9812 51.5688 35.4237 52.3184C35.069 52.7961 34.7251 53.2798 34.3867 53.7691C33.3949 55.1982 32.4233 56.5769 30.6523 57.0411C29.0141 57.2054 27.7375 57.0547 26.4233 56.0238C25.7228 55.3625 25.1688 54.615 24.6385 53.8145C24.0921 53.0012 23.5268 52.2085 22.9268 51.4337C22.5772 50.9781 22.2847 50.5163 22.0098 50.0118C22.7965 49.8202 23.5727 49.7392 24.3703 49.6251Z" fill="#60D9A7"/>
<path d="M29.7305 16.8242C30.0745 16.9964 30.3873 17.2073 30.7046 17.4242C30.7947 17.4843 30.8848 17.5445 30.9776 17.6064C31.1671 17.7333 31.3562 17.8609 31.5447 17.9892C31.8331 18.1851 32.123 18.3786 32.4133 18.5718C32.5976 18.6957 32.7819 18.8197 32.966 18.9439C33.0957 19.0305 33.0957 19.0305 33.2279 19.1189C33.3084 19.1738 33.3888 19.2288 33.4716 19.2854C33.5421 19.3332 33.6126 19.381 33.6853 19.4302C34.0743 19.7509 34.2134 19.9411 34.2662 20.4562C34.2672 20.6205 34.2663 20.785 34.2639 20.9493C34.2639 21.0843 34.2639 21.0843 34.264 21.222C34.2638 21.5188 34.2611 21.8156 34.2584 22.1124C34.2577 22.3184 34.2572 22.5244 34.2569 22.7304C34.2556 23.2723 34.2522 23.8141 34.2483 24.3559C34.2448 24.9089 34.2432 25.462 34.2415 26.015C34.2378 27.0999 34.2319 28.1847 34.2246 29.2695C34.2965 29.3029 34.3684 29.3363 34.4425 29.3708C34.7955 29.5584 34.879 29.703 35.0312 30.0761C35.1095 30.6945 35.111 31.1842 34.8296 31.747C34.3101 32.3242 33.9706 32.4644 33.2091 32.5393C32.6525 32.531 32.3075 32.3065 31.9199 31.9199C31.5118 31.3538 31.4723 30.7522 31.5742 30.0761C31.7277 29.718 31.9084 29.4481 32.2656 29.2695C32.2977 28.1737 32.3223 27.078 32.3373 25.9818C32.3445 25.4727 32.3542 24.9639 32.3699 24.455C32.385 23.9633 32.3932 23.4719 32.3968 22.9801C32.3994 22.7929 32.4043 22.6058 32.4118 22.4189C32.4344 21.832 32.4324 21.3086 32.2656 20.7422C31.8569 20.3115 31.4128 20.0762 30.8828 19.8203C30.6801 19.6896 30.4791 19.5563 30.281 19.4188C30.1882 19.3562 30.0955 19.2937 29.9999 19.2293C29.863 19.1368 29.863 19.1368 29.7233 19.0424C29.628 18.979 29.5327 18.9156 29.4345 18.8502C29.3431 18.7883 29.2516 18.7264 29.1574 18.6625C29.0358 18.5808 29.0358 18.5808 28.9116 18.4974C28.6706 18.304 28.5088 18.1252 28.3477 17.8613C28.3552 17.4304 28.3749 17.1629 28.6501 16.8242C29.0554 16.6535 29.3025 16.7262 29.7305 16.8242Z" fill="#FCED67"/>
<path d="M37.7969 17.9766C37.8116 18.7474 37.8217 19.5182 37.8286 20.2891C37.8315 20.5511 37.8354 20.8131 37.8404 21.0751C37.8474 21.4527 37.8507 21.8302 37.8532 22.2078C37.8562 22.3241 37.8592 22.4403 37.8622 22.56C37.8625 23.3316 37.7194 23.8333 37.2208 24.4297C36.7641 24.869 36.2889 25.1574 35.7227 25.438C35.5195 25.5405 35.5195 25.5405 35.3122 25.6451C34.9387 25.8029 34.6229 25.8692 34.2247 25.9277C34.2159 25.0807 34.2099 24.2337 34.2057 23.3866C34.2039 23.0983 34.2016 22.81 34.1986 22.5218C34.1944 22.1079 34.1924 21.694 34.1909 21.2801C34.1882 21.0862 34.1882 21.0862 34.1855 20.8883C34.1855 20.7084 34.1855 20.7084 34.1854 20.5249C34.1847 20.4192 34.1839 20.3135 34.1831 20.2046C34.2332 19.8801 34.3143 19.7883 34.5704 19.5898C34.8036 19.4546 35.041 19.3265 35.2807 19.2032C35.349 19.1679 35.4173 19.1325 35.4877 19.0962C35.6314 19.022 35.7754 18.9481 35.9194 18.8745C36.1408 18.7614 36.3617 18.6474 36.5825 18.5332C37.6633 17.9766 37.6633 17.9766 37.7969 17.9766Z" fill="#7293DF"/>
<path d="M34.0147 29.0336C34.4799 29.3029 34.8498 29.5549 35.0311 30.0762C35.1061 30.6961 35.1118 31.1825 34.8295 31.7471C34.31 32.3243 33.9704 32.4644 33.209 32.5393C32.6524 32.531 32.3074 32.3065 31.9198 31.9199C31.5096 31.351 31.4768 30.7549 31.5741 30.0762C31.8137 29.5587 32.119 29.2579 32.6207 29.0044C33.1221 28.8216 33.5351 28.8239 34.0147 29.0336Z" fill="#FEE550"/>
</g>
<defs>
<clipPath id="clip0_766_1857">
<rect width="59" height="59" fill="white"/>
</clipPath>
</defs>
</svg>
