<svg width="59" height="59" viewBox="0 0 59 59" fill="none" xmlns="http://www.w3.org/2000/svg">
<g clip-path="url(#clip0_753_1920)">
<path d="M28.1431 -0.049997C28.2484 -0.0507995 28.3538 -0.051602 28.4624 -0.0524288C28.7938 -0.0539947 29.1251 -0.0526125 29.4566 -0.0504472C29.5715 -0.0500967 29.6864 -0.0497462 29.8047 -0.0493851C32.7036 -0.0363724 35.7772 0.201212 38.4965 1.29474C39.6836 1.75711 40.7734 1.80732 42.0388 1.79665C42.3941 1.79368 42.7494 1.79429 43.1047 1.79572C43.8586 1.79809 44.6123 1.79585 45.3661 1.7933C46.2419 1.79086 47.1177 1.79036 47.9935 1.79336C48.3413 1.79374 48.689 1.79132 49.0367 1.7887C50.8533 1.78601 52.3347 2.08944 53.7283 3.34537C55.0772 4.75826 55.3479 6.34748 55.3263 8.21867C55.3225 8.59345 55.3228 8.9682 55.3229 9.34299C55.3229 10.0379 55.3212 10.7327 55.3127 11.4276C55.2326 14.4652 55.2326 14.4652 56.4646 17.1699C56.6669 17.5859 56.8338 18.0123 56.9976 18.4447C57.0399 18.5549 57.0822 18.6651 57.1257 18.7786C57.7378 20.4093 58.2255 22.0821 58.5749 23.7887C58.5918 23.8715 58.6088 23.9543 58.6263 24.0397C58.9664 25.8289 59.0467 27.6036 59.043 29.4207C59.0429 29.5952 59.0429 29.5952 59.0428 29.7733C59.0381 31.6757 58.9336 33.5099 58.5388 35.3769C58.5135 35.497 58.4882 35.617 58.4622 35.7407C57.9487 38.0948 57.2572 40.9598 55.8552 42.9642C55.2867 43.7992 55.3495 44.6915 55.3582 45.6607C55.3576 45.8422 55.3566 46.0237 55.3554 46.2052C55.3528 46.681 55.3532 47.1567 55.3547 47.6325C55.3568 48.3929 55.3556 49.1533 55.3517 49.9137C55.351 50.1771 55.3525 50.4405 55.3542 50.7039C55.3557 52.5339 54.9163 54.0473 53.6355 55.398C52.0242 56.8834 50.0939 56.9437 48.0257 56.9276C47.5217 56.9244 47.0177 56.9256 46.5137 56.9262C45.8779 56.9269 45.2422 56.9264 44.6064 56.9198C42.1034 56.8958 39.9991 56.986 37.6603 57.9559C37.1121 58.1623 36.5464 58.2869 35.9745 58.4094C35.8738 58.4311 35.7731 58.4529 35.6694 58.4753C35.3425 58.5436 35.0149 58.5998 34.6853 58.6543C34.5989 58.6685 34.5125 58.6828 34.4234 58.6975C32.7914 58.9604 31.1949 59.0613 29.543 59.0504C29.3705 59.0498 29.3705 59.0498 29.1945 59.0492C27.3043 59.04 25.4768 58.9363 23.6228 58.539C23.4977 58.5124 23.3726 58.4859 23.2436 58.4585C17.8823 57.2756 13.0645 54.7488 9.1033 50.9336C9.02732 50.8607 8.95134 50.7879 8.87306 50.7128C7.77968 49.6591 6.77254 48.5877 5.87674 47.3613C5.77786 47.2287 5.67898 47.096 5.5801 46.9634C4.8843 46.0195 4.2668 45.0384 3.68728 44.0195C3.64528 43.9467 3.60328 43.8739 3.56001 43.7989C1.14238 39.575 -0.0474002 34.723 -0.0365932 29.8771C-0.03623 29.5384 -0.0389411 29.1997 -0.0418541 28.861C-0.0470004 27.32 0.0919114 25.8339 0.345486 24.3144C0.367165 24.1834 0.388843 24.0524 0.411178 23.9174C1.02664 20.491 2.31223 16.0654 4.6727 13.3954C4.88464 13.0669 4.88183 12.8644 4.88031 12.4753C4.88094 12.2755 4.88094 12.2755 4.88158 12.0717C4.88051 11.9279 4.87944 11.7841 4.87834 11.6359C4.87941 11.4082 4.88049 11.1804 4.88176 10.9527C4.88433 10.3928 4.88321 9.8329 4.88115 9.27302C4.88013 8.95906 4.88067 8.64518 4.88274 8.33123C4.88456 8.03674 4.88408 7.74222 4.88088 7.44774C4.89327 5.97075 5.30671 4.65119 6.33767 3.57223C6.41343 3.49187 6.48919 3.41151 6.56724 3.32871C7.52352 2.39871 8.74516 1.82498 10.085 1.83246C10.2028 1.83284 10.3205 1.83321 10.4418 1.83359C10.5634 1.83456 10.6849 1.83552 10.8102 1.83652C10.934 1.83704 11.0578 1.83756 11.1854 1.83809C11.4901 1.83945 11.7947 1.84134 12.0994 1.84372C12.1232 1.72251 12.1469 1.60129 12.1714 1.47641C12.2516 1.0673 12.4861 0.843566 12.8055 0.585698C13.2127 0.350212 13.6368 0.38328 14.0962 0.390403C14.2024 0.38975 14.3085 0.389098 14.4179 0.388425C14.7687 0.386871 15.1193 0.389284 15.47 0.391585C15.7161 0.39095 15.9623 0.390013 16.2084 0.388789C16.8576 0.38615 17.5068 0.386637 18.156 0.388075C19.1882 0.390181 20.2205 0.388981 21.2527 0.385095C21.6095 0.384404 21.9662 0.385905 22.323 0.387628C23.672 0.388243 24.9652 0.280007 26.2988 0.0788961C26.9145 -0.0130579 27.5207 -0.052122 28.1431 -0.049997Z" fill="#60B7FE"/>
<path d="M28.1431 -0.049997C28.2484 -0.0507995 28.3538 -0.051602 28.4624 -0.0524288C28.7938 -0.0539947 29.1251 -0.0526125 29.4566 -0.0504472C29.5715 -0.0500967 29.6864 -0.0497462 29.8047 -0.0493851C33.2766 -0.0337999 36.601 0.544214 39.8709 1.72848C39.8709 1.76651 39.8709 1.80454 39.8709 1.84372C34.0147 1.84372 28.1585 1.84372 22.1248 1.84372C22.1248 4.27747 22.1248 6.71122 22.1248 9.21872C21.8015 9.86534 21.6031 10.171 20.9724 10.4863C20.2487 10.5622 19.8459 10.3625 19.2511 9.99655C18.9423 9.81262 18.6324 9.6305 18.322 9.44919C18.2458 9.40262 18.1696 9.35605 18.0911 9.30807C17.6085 9.03421 17.2576 8.92327 16.7062 9.03022C16.2986 9.16126 15.9559 9.37404 15.5996 9.60763C15.4542 9.7 15.3087 9.79213 15.163 9.88402C15.0935 9.92786 15.024 9.97171 14.9525 10.0169C14.3662 10.3747 13.9472 10.5732 13.2517 10.4863C12.6781 10.1995 12.4575 9.91877 12.2146 9.33395C12.1731 8.97957 12.1731 8.97957 12.1754 8.59961C12.1754 8.45663 12.1754 8.31364 12.1755 8.16632C12.1772 8.01207 12.179 7.85782 12.1809 7.70357C12.1815 7.54437 12.182 7.38518 12.1823 7.22598C12.1837 6.80882 12.1871 6.39169 12.1909 5.97454C12.1944 5.54814 12.196 5.12173 12.1977 4.69532C12.2014 3.86 12.2073 3.02472 12.2146 2.18942C12.0295 2.28078 11.8444 2.37242 11.6595 2.46417C11.5564 2.51517 11.4534 2.56617 11.3472 2.61872C10.0027 3.3118 9.24086 4.44591 8.74259 5.84148C8.5521 6.56589 8.57841 7.3028 8.58256 8.04621C8.58188 8.22887 8.581 8.41154 8.57994 8.5942C8.57761 9.09324 8.57812 9.59225 8.57912 10.0913C8.57969 10.6305 8.5776 11.1698 8.57585 11.709C8.57316 12.6423 8.57215 13.5756 8.57228 14.5089C8.57248 15.8583 8.57013 17.2076 8.56717 18.557C8.56244 20.7465 8.55975 22.9359 8.55836 25.1254C8.55699 27.2518 8.55466 29.3782 8.55104 31.5046C8.55082 31.6358 8.5506 31.7669 8.55037 31.902C8.54924 32.56 8.5481 33.218 8.54694 33.876C8.5374 39.3314 8.53118 44.7868 8.52713 50.2422C8.39845 50.1329 8.26992 50.0235 8.14145 49.914C8.06985 49.853 7.99826 49.7921 7.9245 49.7293C3.19162 45.5863 0.455984 38.2729 -0.000216717 32.1504C-0.0358605 31.3929 -0.038284 30.6353 -0.0365932 29.8771C-0.03623 29.5384 -0.0389411 29.1997 -0.0418541 28.861C-0.0470004 27.32 0.0919114 25.8339 0.345486 24.3144C0.367165 24.1834 0.388843 24.0524 0.411178 23.9174C1.02664 20.491 2.31223 16.0654 4.6727 13.3954C4.88464 13.0669 4.88183 12.8644 4.88031 12.4753C4.88094 12.2755 4.88094 12.2755 4.88158 12.0717C4.88051 11.9279 4.87944 11.7841 4.87834 11.6359C4.87941 11.4082 4.88049 11.1804 4.88176 10.9527C4.88433 10.3928 4.88321 9.8329 4.88115 9.27302C4.88013 8.95906 4.88067 8.64518 4.88274 8.33123C4.88456 8.03674 4.88408 7.74222 4.88088 7.44774C4.89327 5.97075 5.30671 4.65119 6.33767 3.57223C6.41343 3.49187 6.48919 3.41151 6.56724 3.32871C7.52352 2.39871 8.74516 1.82498 10.085 1.83246C10.2028 1.83284 10.3205 1.83321 10.4418 1.83359C10.5634 1.83456 10.6849 1.83552 10.8102 1.83652C10.934 1.83704 11.0578 1.83756 11.1854 1.83809C11.4901 1.83945 11.7947 1.84134 12.0994 1.84372C12.1232 1.72251 12.1469 1.60129 12.1714 1.47641C12.2516 1.0673 12.4861 0.843566 12.8055 0.585698C13.2127 0.350212 13.6368 0.38328 14.0962 0.390403C14.2024 0.38975 14.3085 0.389098 14.4179 0.388425C14.7687 0.386871 15.1193 0.389284 15.47 0.391585C15.7161 0.39095 15.9623 0.390013 16.2084 0.388789C16.8576 0.38615 17.5068 0.386637 18.156 0.388075C19.1882 0.390181 20.2205 0.388981 21.2527 0.385095C21.6095 0.384404 21.9662 0.385905 22.323 0.387628C23.672 0.388243 24.9652 0.280007 26.2988 0.0788961C26.9145 -0.0130579 27.5207 -0.052122 28.1431 -0.049997Z" fill="#26A6FD"/>
<path d="M48.2832 1.84379C50.3884 1.77073 52.0861 1.86526 53.7285 3.34544C55.0774 4.75834 55.3482 6.34755 55.3265 8.21875C55.3227 8.59353 55.3231 8.96827 55.3231 9.34307C55.3231 10.038 55.3214 10.7328 55.3129 11.4277C55.2328 14.4652 55.2328 14.4652 56.4648 17.17C56.6671 17.586 56.834 18.0123 56.9978 18.4447C57.0401 18.5549 57.0824 18.6651 57.126 18.7787C57.738 20.4094 58.2258 22.0822 58.5751 23.7887C58.5921 23.8716 58.609 23.9544 58.6265 24.0398C58.9666 25.829 59.0469 27.6036 59.0432 29.4208C59.0432 29.5371 59.0431 29.6535 59.043 29.7733C59.0383 31.6758 58.9338 33.5099 58.5391 35.377C58.5138 35.4971 58.4884 35.6171 58.4624 35.7408C57.9489 38.0948 57.2574 40.9599 55.8554 42.9643C55.2869 43.7993 55.3497 44.6916 55.3584 45.6608C55.3578 45.8423 55.3568 46.0238 55.3556 46.2053C55.353 46.681 55.3535 47.1568 55.3549 47.6325C55.357 48.393 55.3558 49.1534 55.3519 49.9138C55.3512 50.1772 55.3527 50.4406 55.3545 50.704C55.3559 52.5339 54.9165 54.0474 53.6357 55.3981C51.9014 56.9969 49.7966 56.9462 47.5918 56.9258C47.5918 56.8878 47.5918 56.8498 47.5918 56.8106C47.7219 56.8017 47.7219 56.8017 47.8547 56.7926C49.3168 56.6364 50.7501 56.0291 51.7519 54.9236C52.5058 53.8813 53.0359 52.689 53.0375 51.3914C53.0379 51.3136 53.0383 51.2358 53.0387 51.1557C53.0398 50.8961 53.0392 50.6364 53.0386 50.3767C53.0391 50.1883 53.0396 49.9999 53.0402 49.8115C53.0416 49.2944 53.0416 48.7773 53.0413 48.2602C53.0413 47.7022 53.0425 47.1443 53.0436 46.5863C53.0456 45.4933 53.0462 44.4004 53.0463 43.3074C53.0464 42.4188 53.0469 41.5303 53.0476 40.6417C53.0497 38.1219 53.0507 35.6021 53.0505 33.0823C53.0505 32.8785 53.0505 32.8785 53.0505 32.6706C53.0505 32.5347 53.0505 32.3987 53.0505 32.2585C53.0504 30.0549 53.0526 27.8514 53.0559 25.6478C53.0592 23.3846 53.0608 21.1214 53.0606 18.8582C53.0605 17.5878 53.0611 16.3174 53.0636 15.0471C53.0657 13.9653 53.0662 12.8836 53.0646 11.8019C53.0639 11.2502 53.0639 10.6986 53.0659 10.1469C53.0677 9.6413 53.0673 9.13571 53.0653 8.63008C53.065 8.44777 53.0654 8.26546 53.0667 8.08315C53.0785 6.29629 52.6667 4.78751 51.4521 3.43547C50.5972 2.62643 49.4354 2.13782 48.2832 1.95903C48.2832 1.921 48.2832 1.88297 48.2832 1.84379Z" fill="#A8D8F7"/>
<path d="M43.9043 1.84376C44.5047 1.83513 45.1051 1.8289 45.7055 1.82477C45.9093 1.82304 46.113 1.82069 46.3167 1.81768C48.5011 1.78618 48.5011 1.78618 49.5508 2.18946C49.6794 2.23848 49.8081 2.2875 49.9406 2.338C51.4075 3.05266 52.343 4.15538 52.9083 5.68073C53.1929 6.56302 53.1872 7.43105 53.1816 8.34689C53.1821 8.5358 53.1828 8.72471 53.1838 8.91362C53.1857 9.42944 53.1847 9.94522 53.1833 10.461C53.1823 11.0186 53.1839 11.5762 53.1851 12.1337C53.1872 13.2247 53.1867 14.3156 53.1854 15.4066C53.1844 16.2935 53.1842 17.1804 53.1847 18.0673C53.1848 18.1937 53.1849 18.3201 53.1849 18.4503C53.1851 18.7071 53.1852 18.9638 53.1854 19.2206C53.1867 21.6265 53.1852 24.0324 53.1827 26.4383C53.1807 28.5012 53.181 30.5642 53.1831 32.6271C53.1856 35.0246 53.1866 37.4221 53.1852 39.8196C53.185 40.0754 53.1849 40.3312 53.1847 40.587C53.1847 40.7128 53.1846 40.8387 53.1845 40.9684C53.1841 41.8539 53.1848 42.7394 53.1859 43.6249C53.1872 44.7045 53.1868 45.7841 53.1844 46.8637C53.1831 47.4142 53.1827 47.9647 53.1842 48.5152C53.1856 49.0197 53.1848 49.5242 53.1824 50.0287C53.1819 50.2107 53.1821 50.3926 53.1832 50.5745C53.1936 52.3959 52.7573 53.8952 51.5242 55.2693C51.0717 55.6981 50.5898 55.9989 50.0405 56.2848C49.9692 56.3228 49.898 56.3609 49.8245 56.4001C48.6153 56.987 47.2226 56.959 45.9078 56.9483C45.7524 56.9479 45.5969 56.9475 45.4415 56.9473C45.0378 56.9464 44.6341 56.9442 44.2304 56.9416C43.8163 56.9392 43.4022 56.9382 42.988 56.937C42.1795 56.9346 41.371 56.9307 40.5625 56.9258C40.5625 56.8878 40.5625 56.8497 40.5625 56.8106C41.2139 56.7333 41.8522 56.6905 42.5086 56.7049C44.2443 56.7403 45.7263 56.3039 47.0107 55.1036C47.4285 54.6562 47.8283 54.1433 48.023 53.557C48.0709 53.4898 48.1187 53.4227 48.168 53.3535C48.515 53.2995 48.515 53.2995 48.9386 53.2959C49.6404 53.2621 50.0484 53.2347 50.5879 52.7773C51.1685 51.9206 51.1136 51.0402 51.1074 50.0431C51.1079 49.8574 51.1086 49.6718 51.1095 49.4861C51.1115 48.9771 51.1105 48.4681 51.1091 47.9591C51.108 47.4097 51.1097 46.8604 51.1109 46.311C51.113 45.2353 51.1125 44.1596 51.1112 43.0839C51.1101 42.2098 51.11 41.3356 51.1105 40.4615C51.1106 40.3371 51.1107 40.2127 51.1107 40.0845C51.1109 39.8318 51.111 39.5791 51.1112 39.3264C51.1125 36.9568 51.111 34.5873 51.1085 32.2177C51.1064 30.184 51.1068 28.1503 51.1089 26.1166C51.1114 23.7552 51.1124 21.3938 51.1109 19.0323C51.1108 18.7806 51.1107 18.5289 51.1105 18.2772C51.1104 18.1533 51.1104 18.0295 51.1103 17.9019C51.1099 17.0286 51.1106 16.1553 51.1117 15.282C51.1129 14.218 51.1126 13.1542 51.1101 12.0902C51.1089 11.5473 51.1085 11.0044 51.11 10.4614C51.1113 9.96459 51.1106 9.46779 51.1081 8.97095C51.1076 8.79106 51.1079 8.61116 51.109 8.43127C51.1104 8.18693 51.109 7.94277 51.1068 7.69844C51.1067 7.4948 51.1067 7.4948 51.1066 7.28704C51.0159 6.70162 50.7248 6.34621 50.2926 5.95618C49.9643 5.7289 49.7587 5.64283 49.3581 5.65864C48.9639 5.66915 48.6604 5.6506 48.2832 5.53126C48.0121 5.21347 47.8487 4.89263 47.6643 4.51845C47.0977 3.40164 46.1609 2.68957 44.9959 2.27544C44.6336 2.16254 44.271 2.05669 43.9043 1.95899C43.9043 1.92096 43.9043 1.88294 43.9043 1.84376Z" fill="#61B7FE"/>
<path d="M48.2832 5.53127C49.7993 5.46503 49.7993 5.46503 50.3574 5.87697C50.9318 6.46356 51.1783 6.80766 51.1795 7.64173C51.1798 7.7176 51.1801 7.79347 51.1804 7.87163C51.1811 8.12834 51.1811 8.38504 51.181 8.64174C51.1814 8.82666 51.1818 9.01158 51.1823 9.19649C51.1835 9.70659 51.1839 10.2167 51.1842 10.7268C51.1846 11.2762 51.1857 11.8256 51.1868 12.375C51.189 13.7029 51.1902 15.0308 51.1912 16.3586C51.1917 16.9836 51.1923 17.6085 51.1929 18.2335C51.1949 20.3104 51.1966 22.3873 51.1974 24.4641C51.1976 25.0034 51.1979 25.5426 51.1981 26.0819C51.1981 26.2159 51.1982 26.3499 51.1982 26.488C51.1992 28.6595 51.2021 30.8311 51.2059 33.0026C51.2097 35.2309 51.2117 37.4591 51.2121 39.6874C51.2124 40.939 51.2134 42.1905 51.2163 43.4421C51.2188 44.508 51.2197 45.5738 51.2186 46.6397C51.2181 47.1836 51.2183 47.7274 51.2206 48.2713C51.2226 48.7694 51.2225 49.2673 51.2207 49.7654C51.2204 49.9454 51.2209 50.1255 51.2223 50.3056C51.2296 51.3382 51.2291 52.1791 50.5132 52.9934C49.7762 53.4736 49.0219 53.4075 48.168 53.3535C48.2047 53.2365 48.2047 53.2365 48.2421 53.1171C48.5301 52.1049 48.5621 51.1359 48.5568 50.0929C48.5571 49.9057 48.5576 49.7186 48.5582 49.5314C48.5594 49.0204 48.5585 48.5094 48.5572 47.9984C48.5562 47.446 48.5571 46.8937 48.5579 46.3413C48.5589 45.2606 48.5582 44.1799 48.5568 43.0991C48.5552 41.84 48.5554 40.5808 48.5556 39.3216C48.556 37.0747 48.5547 34.8278 48.5524 32.581C48.5502 30.4018 48.5494 28.2225 48.55 26.0433C48.5507 23.6687 48.5507 21.2941 48.5494 18.9195C48.5493 18.6662 48.5491 18.413 48.549 18.1597C48.5489 18.0351 48.5489 17.9105 48.5488 17.7821C48.5483 16.9048 48.5484 16.0275 48.5486 15.1502C48.5489 14.0809 48.5482 13.0117 48.5466 11.9425C48.5457 11.3971 48.5453 10.8518 48.5458 10.3065C48.5463 9.80694 48.5457 9.30741 48.5442 8.80787C48.5439 8.62751 48.5439 8.44716 48.5444 8.26681C48.5467 7.33268 48.523 6.44003 48.2832 5.53127Z" fill="#F5F7F9"/>
<path d="M41.7148 1.8438C43.6228 1.75138 45.2782 1.90901 46.7852 3.22661C47.8564 4.20746 48.5681 5.60329 48.6503 7.06388C48.659 7.54448 48.6602 8.02459 48.6589 8.50525C48.6593 8.69194 48.6597 8.87863 48.6603 9.06533C48.6615 9.57714 48.6612 10.089 48.6607 10.6008C48.6604 11.1532 48.6615 11.7057 48.6623 12.2582C48.6638 13.3401 48.664 14.422 48.6637 15.5039C48.6635 16.3834 48.6637 17.2628 48.6642 18.1423C48.6643 18.2675 48.6644 18.3927 48.6644 18.5217C48.6646 18.7761 48.6647 19.0304 48.6649 19.2848C48.6661 21.6699 48.6659 24.055 48.6652 26.4401C48.6646 28.6214 48.6659 30.8027 48.6681 32.984C48.6703 35.2244 48.6712 37.4649 48.6708 39.7053C48.6706 40.9628 48.6709 42.2204 48.6725 43.4779C48.6739 44.5486 48.674 45.6192 48.6726 46.6898C48.672 47.2359 48.6718 47.7819 48.6732 48.328C48.6745 48.8283 48.6741 49.3286 48.6725 49.829C48.6722 50.0095 48.6725 50.19 48.6734 50.3706C48.6829 52.3639 48.2602 53.9048 46.8635 55.372C45.6878 56.462 44.2776 56.8362 42.7087 56.8178C42.6239 56.8173 42.5391 56.8168 42.4517 56.8162C42.2445 56.8149 42.0373 56.8128 41.8301 56.8106C41.8301 56.7726 41.8301 56.7345 41.8301 56.6954C41.9388 56.666 41.9388 56.666 42.0497 56.636C43.0573 56.3507 43.8028 55.9922 44.5957 55.3126C44.6718 55.3126 44.7478 55.3126 44.8262 55.3126C44.8732 55.2105 44.8732 55.2105 44.9212 55.1064C45.0534 54.8577 45.1981 54.6757 45.3807 54.4627C46.3036 53.2301 46.4087 51.8643 46.3966 50.3862C46.3972 50.1962 46.398 50.0061 46.3991 49.8161C46.4013 49.2981 46.3999 48.7803 46.3978 48.2623C46.3963 47.7021 46.3981 47.1419 46.3994 46.5816C46.4016 45.4859 46.4006 44.3902 46.3985 43.2945C46.3969 42.4038 46.3964 41.513 46.3968 40.6223C46.3969 40.4318 46.3969 40.4318 46.397 40.2375C46.3971 39.9795 46.3972 39.7215 46.3974 39.4634C46.3984 37.1845 46.3964 34.9055 46.393 32.6266C46.3897 30.417 46.3889 28.2074 46.3906 25.9978C46.3926 23.5892 46.393 21.1807 46.391 18.7722C46.3908 18.5152 46.3906 18.2582 46.3904 18.0013C46.3902 17.8116 46.3902 17.8116 46.3901 17.6182C46.3894 16.7287 46.3898 15.8393 46.3906 14.9499C46.3915 13.8656 46.3907 12.7814 46.3878 11.6972C46.3863 11.1443 46.3856 10.5915 46.3869 10.0387C46.3881 9.53201 46.3871 9.02539 46.3844 8.51873C46.3838 8.33606 46.384 8.15338 46.3851 7.97071C46.3936 6.33701 46.1024 5.08546 45.0566 3.80279C44.999 3.72941 44.9414 3.65602 44.882 3.58042C44.1108 2.70409 42.8471 2.16285 41.7148 1.95904C41.7148 1.92101 41.7148 1.88298 41.7148 1.8438Z" fill="#A9D9F7"/>
<path d="M28.1433 -0.049997C28.2486 -0.0507995 28.354 -0.051602 28.4625 -0.0524288C28.794 -0.0539947 29.1253 -0.0526125 29.4568 -0.0504472C29.5717 -0.0500967 29.6865 -0.0497462 29.8049 -0.0493851C33.2768 -0.0337999 36.6012 0.544214 39.8711 1.72848C39.8711 1.76651 39.8711 1.80454 39.8711 1.84372C34.0149 1.84372 28.1586 1.84372 22.125 1.84372C22.125 4.27747 22.125 6.71122 22.125 9.21872C21.8017 9.86534 21.6033 10.171 20.9726 10.4863C20.2488 10.5622 19.8461 10.3625 19.2513 9.99655C18.9425 9.81262 18.6326 9.6305 18.3222 9.44919C18.246 9.40262 18.1698 9.35605 18.0913 9.30807C17.6087 9.03421 17.2578 8.92327 16.7064 9.03022C16.2988 9.16126 15.9561 9.37404 15.5998 9.60763C15.4544 9.7 15.3089 9.79213 15.1632 9.88402C15.0937 9.92786 15.0242 9.97171 14.9526 10.0169C14.3664 10.3747 13.9474 10.5732 13.2519 10.4863C12.6779 10.1993 12.4576 9.91909 12.2148 9.33395C12.1665 8.96235 12.1665 8.96235 12.1595 8.5577C12.1578 8.4834 12.156 8.40911 12.1543 8.33256C12.1491 8.08898 12.1463 7.84545 12.1437 7.60184C12.1409 7.43138 12.138 7.26092 12.1349 7.09047C12.129 6.73403 12.1243 6.3776 12.1205 6.02113C12.1155 5.56542 12.1074 5.10982 12.0984 4.65418C12.0917 4.30245 12.0868 3.95071 12.0824 3.59895C12.0801 3.43098 12.0772 3.26301 12.0738 3.09506C12.0693 2.85986 12.0671 2.62474 12.0654 2.38951C12.0637 2.25597 12.0619 2.12243 12.0601 1.98485C12.1199 1.42233 12.3125 1.06924 12.6886 0.65175C13.1583 0.382457 13.5506 0.397476 14.0833 0.403485C14.1895 0.402849 14.2956 0.402213 14.405 0.401558C14.6354 0.400484 14.8659 0.400472 15.0963 0.401396C15.4635 0.402856 15.8306 0.401545 16.1978 0.399548C16.9804 0.395839 17.7629 0.395892 18.5455 0.396086C19.4465 0.395796 20.3475 0.39391 21.2484 0.389582C21.6057 0.388468 21.9629 0.389444 22.3202 0.390584C23.6699 0.388961 24.9648 0.279731 26.2992 0.0787537C26.9148 -0.0130528 27.521 -0.0521217 28.1433 -0.049997Z" fill="#FD646F"/>
<path d="M4.83976 13.1367C4.87779 13.1367 4.91581 13.1367 4.95499 13.1367C4.95499 23.9365 4.95499 34.7363 4.95499 45.8633C2.29196 43.2002 0.941928 38.2925 0.345619 34.6855C0.331306 34.5994 0.316992 34.5132 0.302245 34.4244C0.053615 32.8897 -0.055382 31.3879 -0.0451535 29.8337C-0.0432968 29.5 -0.0451522 29.1665 -0.0473479 28.8329C-0.049076 27.3025 0.0950181 25.8235 0.345619 24.3145C0.367288 24.1834 0.388957 24.0523 0.411283 23.9173C1.05936 20.3127 2.4374 15.9895 4.83976 13.1367Z" fill="#FE9737"/>
<path d="M12.1349 14.2739C12.2398 14.2735 12.3447 14.273 12.4527 14.2726C12.5687 14.2727 12.6847 14.2728 12.8041 14.2729C12.988 14.2724 12.988 14.2724 13.1757 14.2718C13.5892 14.2708 14.0028 14.2707 14.4164 14.2705C14.7118 14.27 15.0072 14.2694 15.3026 14.2688C16.1071 14.2672 16.9116 14.2665 17.7161 14.266C18.2183 14.2657 18.7204 14.2652 19.2226 14.2647C20.6124 14.2633 22.0021 14.2621 23.3919 14.2617C23.4809 14.2617 23.5699 14.2616 23.6615 14.2616C23.7508 14.2616 23.84 14.2616 23.9319 14.2615C24.1126 14.2615 24.2934 14.2614 24.4741 14.2614C24.5638 14.2613 24.6535 14.2613 24.7459 14.2613C26.1989 14.2608 27.6519 14.2588 29.105 14.2561C30.5961 14.2534 32.0872 14.252 33.5783 14.2518C34.4158 14.2517 35.2533 14.2511 36.0908 14.249C36.8784 14.247 37.666 14.2468 38.4536 14.2478C38.743 14.2479 39.0325 14.2474 39.3219 14.2463C39.7163 14.2448 40.1107 14.2455 40.5051 14.2467C40.6779 14.2453 40.6779 14.2453 40.8542 14.2439C41.5615 14.249 41.9764 14.3311 42.4997 14.8364C42.6982 15.2125 42.68 15.4824 42.6365 15.9023C42.4965 16.2855 42.3776 16.5208 42.0648 16.7836C41.5491 17.0131 41.0711 16.9875 40.5126 16.9841C40.3902 16.9847 40.2679 16.9854 40.1418 16.986C39.7312 16.9877 39.3206 16.9868 38.9099 16.986C38.6158 16.9867 38.3216 16.9875 38.0275 16.9884C37.311 16.9903 36.5946 16.9905 35.8782 16.9899C35.2959 16.9894 34.7136 16.9896 34.1313 16.9902C34.0484 16.9903 33.9656 16.9904 33.8802 16.9905C33.7118 16.9906 33.5434 16.9908 33.3751 16.991C31.7962 16.9926 30.2174 16.9919 28.6385 16.9906C27.1941 16.9895 25.7497 16.991 24.3054 16.9937C22.8222 16.9965 21.339 16.9976 19.8558 16.9969C19.0232 16.9965 18.1905 16.9967 17.3578 16.9987C16.575 17.0006 15.7921 17.0001 15.0093 16.9979C14.7217 16.9975 14.4342 16.9978 14.1466 16.999C13.7545 17.0006 13.3625 16.9992 12.9704 16.9972C12.7992 16.9989 12.7992 16.9989 12.6244 17.0006C11.9523 16.9933 11.5778 16.92 11.0623 16.4785C10.7938 16.1367 10.7775 15.7599 10.7864 15.3302C10.868 14.9093 11.1056 14.6995 11.408 14.4043C11.6775 14.2696 11.8347 14.2744 12.1349 14.2739Z" fill="#26A6FE"/>
<path d="M12.2747 41.916C12.4314 41.915 12.4314 41.915 12.5912 41.914C12.7627 41.9146 12.7627 41.9146 12.9376 41.9153C13.0594 41.9149 13.1812 41.9144 13.3066 41.914C13.7161 41.9128 14.1255 41.9132 14.5349 41.9137C14.8279 41.9132 15.1209 41.9126 15.4138 41.9119C16.1279 41.9105 16.8419 41.9102 17.556 41.9105C18.1364 41.9107 18.7167 41.9105 19.2971 41.91C19.3797 41.91 19.4623 41.9099 19.5473 41.9098C19.7151 41.9097 19.8828 41.9095 20.0506 41.9094C21.6241 41.9081 23.1976 41.9084 24.7712 41.9091C26.2107 41.9097 27.6502 41.9084 29.0898 41.9062C30.5678 41.904 32.0457 41.903 33.5237 41.9035C34.3535 41.9037 35.1833 41.9034 36.0132 41.9018C36.7935 41.9002 37.5738 41.9005 38.3541 41.902C38.6407 41.9023 38.9273 41.902 39.2139 41.901C39.6048 41.8998 39.9955 41.9008 40.3864 41.9022C40.5002 41.9014 40.614 41.9005 40.7312 41.8997C41.3377 41.9045 41.7683 41.9474 42.2909 42.2911C42.5683 42.624 42.6321 42.8321 42.687 43.2633C42.6269 43.7526 42.4903 43.9894 42.1757 44.3653C41.8384 44.5745 41.5842 44.6247 41.1902 44.6257C41.085 44.6265 40.9797 44.6273 40.8713 44.6282C40.756 44.6279 40.6408 44.6276 40.5221 44.6273C40.3994 44.6279 40.2767 44.6285 40.1502 44.6292C39.7376 44.6309 39.3251 44.631 38.9125 44.6311C38.6172 44.6319 38.3219 44.6329 38.0267 44.634C37.2236 44.6365 36.4206 44.6375 35.6175 44.6381C35.1161 44.6385 34.6147 44.6392 34.1132 44.64C32.7249 44.6423 31.3366 44.6442 29.9483 44.6445C29.8151 44.6446 29.8151 44.6446 29.6791 44.6446C29.4991 44.6446 29.319 44.6447 29.1389 44.6447C29.0495 44.6447 28.9601 44.6448 28.868 44.6448C28.7785 44.6448 28.689 44.6448 28.5968 44.6448C27.146 44.6453 25.6953 44.6484 24.2446 44.6527C22.7552 44.6571 21.2658 44.6593 19.7763 44.6593C18.9401 44.6594 18.1038 44.6604 17.2675 44.6637C16.4812 44.6668 15.6948 44.667 14.9085 44.6651C14.6196 44.6649 14.3308 44.6657 14.0419 44.6675C13.648 44.6699 13.2543 44.6687 12.8604 44.6666C12.6883 44.6689 12.6883 44.6689 12.5128 44.6712C11.9998 44.6649 11.6356 44.6499 11.2237 44.3248C10.8362 43.8971 10.7917 43.5541 10.799 42.9825C10.8517 42.6132 11.0274 42.4266 11.2928 42.1758C11.6321 41.9719 11.8809 41.9165 12.2747 41.916Z" fill="#26A6FE"/>
<path d="M55.1973 15.0957C55.7172 15.6156 55.7172 15.6156 55.9188 16.0297C55.964 16.1225 56.0092 16.2154 56.0558 16.311C56.1028 16.4114 56.1499 16.5119 56.1984 16.6154C56.2482 16.7215 56.2981 16.8277 56.3495 16.9371C57.6459 19.7597 58.4899 22.7334 58.8848 25.8125C58.8948 25.8896 58.9048 25.9667 58.9151 26.0462C58.994 26.6977 59.0218 27.3411 59.0275 27.997C59.0286 28.1045 59.0297 28.212 59.0309 28.3227C59.0508 30.7101 59.0351 33.0308 58.5391 35.377C58.5138 35.497 58.4884 35.6171 58.4624 35.7408C57.8664 38.473 56.9705 41.4258 55.4277 43.7891C55.3517 43.8271 55.2756 43.8651 55.1973 43.9043C55.1973 34.3975 55.1973 24.8906 55.1973 15.0957Z" fill="#FC983B"/>
<path d="M37.0481 19.0929C37.2464 19.0879 37.2464 19.0879 37.4487 19.0828C38.6411 19.074 39.5967 19.3242 40.475 20.1615C41.084 20.8664 41.3461 21.5793 41.2938 22.5099C41.1628 23.5237 40.7607 24.2113 39.9866 24.8907C39.5832 25.0707 39.5832 25.0707 39.2952 25.1211C39.6164 25.72 40.0623 26.1651 40.5288 26.6505C40.9318 27.0764 41.2261 27.3927 41.2902 27.9948C41.2488 28.4004 41.1578 28.6033 40.9084 28.9239C40.5142 29.2195 40.1193 29.2047 39.6409 29.1543C39.2046 28.8524 38.8885 28.5027 38.5605 28.0884C38.1272 27.5476 37.6819 27.0213 37.2209 26.5039C37.2166 26.6303 37.2123 26.7568 37.2079 26.887C37.2003 27.0546 37.1927 27.2222 37.1849 27.3898C37.1823 27.4729 37.1797 27.556 37.1771 27.6416C37.1511 28.1583 37.0827 28.4989 36.76 28.9239C36.3658 29.2195 35.9709 29.2047 35.4924 29.1543C35.1019 28.9081 34.9478 28.7882 34.801 28.3477C34.7877 28.0769 34.7815 27.8058 34.7788 27.5348C34.7779 27.4525 34.7769 27.3702 34.7759 27.2854C34.7731 27.0132 34.7712 26.741 34.7695 26.4688C34.7689 26.3758 34.7683 26.2827 34.7677 26.1869C34.7646 25.6946 34.7623 25.2023 34.7607 24.71C34.7591 24.3027 34.7559 23.8954 34.7512 23.4881C34.7455 22.996 34.7427 22.5041 34.7419 22.012C34.7411 21.8246 34.7393 21.6373 34.7366 21.4499C34.7329 21.1876 34.7329 20.9254 34.7338 20.663C34.7328 20.5139 34.7319 20.3647 34.731 20.211C34.8189 19.7204 34.9962 19.5541 35.3772 19.2442C35.8671 18.9992 36.5099 19.0973 37.0481 19.0929Z" fill="#FDDC34"/>
<path d="M13.6934 19.1474C14.0956 19.3032 14.3237 19.5622 14.5194 19.9355C14.5994 20.3971 14.5889 20.8515 14.5806 21.3188C14.581 21.452 14.5814 21.5852 14.5818 21.7225C14.5829 22.1472 14.5804 22.5718 14.577 22.9965C14.5726 23.556 14.5718 24.1154 14.5734 24.675C14.5712 24.8035 14.5689 24.9319 14.5666 25.0643C14.5623 25.7901 14.5623 25.7901 14.9121 26.4093C15.4636 26.7967 15.9299 26.8106 16.5936 26.7344C16.9524 26.5833 17.222 26.3995 17.4003 26.043C17.4111 25.8513 17.4147 25.6591 17.4148 25.4671C17.4152 25.3471 17.4157 25.2271 17.4161 25.1034C17.4162 24.9732 17.4163 24.843 17.4165 24.7088C17.4186 24.4343 17.4208 24.1599 17.4232 23.8855C17.4266 23.4518 17.4291 23.0181 17.4291 22.5844C17.4295 22.1665 17.4335 21.7488 17.4381 21.331C17.4373 21.2017 17.4364 21.0724 17.4356 20.9391C17.4513 19.9343 17.4513 19.9343 17.794 19.5098C18.1136 19.2245 18.2202 19.1405 18.639 19.0929C19.1068 19.1379 19.34 19.3013 19.705 19.5898C19.8539 19.8878 19.8381 20.108 19.8424 20.4417C19.8443 20.5718 19.8461 20.7019 19.848 20.8359C19.8532 21.4339 19.8579 22.0319 19.8605 22.6299C19.8621 22.9447 19.8653 23.2594 19.87 23.5741C19.8768 24.0285 19.8788 24.4829 19.8805 24.9374C19.8831 25.077 19.8857 25.2165 19.8884 25.3602C19.8859 26.3965 19.6626 27.1506 18.9973 27.9542C17.7907 28.9777 16.6705 29.2776 15.0956 29.1543C14.1426 28.9072 13.2242 28.2384 12.6757 27.4258C12.316 26.7864 12.2023 26.248 12.1925 25.5201C12.1906 25.3952 12.1888 25.2702 12.1869 25.1414C12.1817 24.5738 12.177 24.0062 12.1744 23.4385C12.1725 23.139 12.1693 22.8395 12.1649 22.54C12.1586 22.1075 12.1561 21.6752 12.1544 21.2427C12.1518 21.1089 12.1492 20.975 12.1465 20.8371C12.1492 19.8041 12.1492 19.8041 12.4922 19.4505C12.9344 19.145 13.1526 19.1212 13.6934 19.1474Z" fill="#FCDC35"/>
<path d="M26.1582 19.7051C26.9859 20.208 26.9859 20.208 27.1953 20.6269C27.237 21.1359 27.2546 21.4277 27.0297 21.8873C26.674 22.1736 26.4377 22.2428 25.9871 22.2726C25.5354 22.2221 25.1856 22.0277 24.7943 21.8054C24.3198 21.5364 23.9307 21.52 23.3926 21.5488C23.2785 21.6249 23.1644 21.7009 23.0469 21.7793C23.0469 21.9314 23.0469 22.0835 23.0469 22.2402C23.1486 22.2834 23.2504 22.3267 23.3552 22.3712C23.7189 22.5263 24.0823 22.6822 24.4453 22.839C24.6371 22.9217 24.8291 23.0037 25.0212 23.0856C26.0254 23.5247 26.75 23.9209 27.2988 24.9041C27.5815 25.644 27.5343 26.477 27.3105 27.2313C26.9273 28.0784 26.2034 28.6213 25.3606 28.9594C24.1311 29.3684 22.8525 29.2275 21.7028 28.656C21.0349 28.2807 20.5156 27.8944 20.166 27.1953C20.1194 26.8537 20.101 26.6089 20.2866 26.309C20.4937 26.0563 20.6779 25.8446 20.9726 25.6972C21.5398 25.6419 21.8065 25.742 22.2546 26.0862C23.0046 26.6539 23.4824 26.8323 24.4297 26.7343C24.7904 26.6243 24.7904 26.6243 25.0059 26.3886C25.0923 26.1006 25.0923 26.1006 25.0059 25.8125C24.7039 25.5475 24.4069 25.3944 24.0322 25.2557C23.9349 25.2188 23.8376 25.1819 23.7374 25.1438C23.6355 25.1054 23.5336 25.067 23.4286 25.0274C21.2301 24.1661 21.2301 24.1661 20.7206 23.1189C20.4902 22.3745 20.4875 21.5355 20.7998 20.8142C21.2728 20.0303 21.9962 19.5056 22.8524 19.2054C24.0324 18.9138 25.0763 19.2002 26.1582 19.7051Z" fill="#FCDC35"/>
<path d="M30.9739 31.2711C31.1559 31.2712 31.1559 31.2712 31.3416 31.2713C31.4758 31.2711 31.61 31.2709 31.7482 31.2706C31.8881 31.2734 32.028 31.2761 32.172 31.279C32.3097 31.2777 32.4473 31.2764 32.5891 31.2751C33.6934 31.2842 34.5884 31.5134 35.4189 32.2684C36.4145 33.4707 36.5103 34.8119 36.4141 36.2989C36.2568 37.3304 35.7451 38.2306 34.9233 38.8772C34.0327 39.5239 33.2626 39.5827 32.1865 39.5758C32.0566 39.5781 31.9267 39.5804 31.7928 39.5828C31.668 39.5827 31.5431 39.5827 31.4145 39.5826C31.3013 39.5828 31.1882 39.583 31.0716 39.5832C30.6856 39.5098 30.5519 39.3645 30.3067 39.0645C30.1539 38.7589 30.1743 38.5246 30.1711 38.1823C30.1688 37.9775 30.1688 37.9775 30.1666 37.7685C30.1657 37.6203 30.1649 37.472 30.164 37.3193C30.1631 37.1675 30.1621 37.0158 30.1612 36.8594C30.1595 36.5377 30.1583 36.216 30.1574 35.8943C30.1562 35.4827 30.1522 35.0713 30.1476 34.6598C30.1439 34.2667 30.1434 33.8736 30.1424 33.4806C30.1404 33.333 30.1384 33.1855 30.1363 33.0335C30.1366 32.8958 30.137 32.7582 30.1373 32.6164C30.1366 32.4955 30.136 32.3747 30.1353 32.2502C30.2237 31.7307 30.4509 31.3894 30.9739 31.2711Z" fill="#FBDC36"/>
<path d="M30.0797 19.1676C30.2101 19.1668 30.2101 19.1668 30.3431 19.1659C30.5259 19.1655 30.7088 19.1666 30.8916 19.169C31.1702 19.1721 31.4482 19.169 31.7268 19.1653C31.9052 19.1657 32.0836 19.1665 32.262 19.1676C32.3857 19.1658 32.3857 19.1658 32.5119 19.1641C33.1664 19.1792 33.4379 19.3697 33.8788 19.8203C33.9985 20.1786 33.9695 20.4923 33.8788 20.8574C33.6274 21.175 33.4327 21.3686 33.0722 21.5488C32.8969 21.5585 32.7211 21.5612 32.5455 21.5601C32.4423 21.5597 32.3391 21.5593 32.2327 21.5589C32.1247 21.558 32.0167 21.557 31.9055 21.556C31.7966 21.5555 31.6877 21.555 31.5755 21.5544C31.3062 21.5531 31.0368 21.551 30.7675 21.5488C30.7675 22.0432 30.7675 22.5375 30.7675 23.0469C30.9821 23.0408 30.9821 23.0408 31.201 23.0347C31.3902 23.0315 31.5794 23.0283 31.7686 23.0252C31.9098 23.0209 31.9098 23.0209 32.0538 23.0165C32.6046 23.0098 32.9738 23.0283 33.4179 23.3926C33.7013 23.8176 33.7282 24.1665 33.6484 24.6601C33.4036 25.0569 33.2856 25.2036 32.8417 25.3515C32.6795 25.3608 32.5168 25.3639 32.3542 25.3628C32.2618 25.3624 32.1693 25.3621 32.074 25.3617C31.978 25.3607 31.882 25.3597 31.783 25.3587C31.637 25.358 31.637 25.358 31.488 25.3572C31.2478 25.3558 31.0077 25.3537 30.7675 25.3515C30.7675 25.8459 30.7675 26.3403 30.7675 26.8496C30.9259 26.8442 31.0842 26.8389 31.2474 26.8334C31.4571 26.8291 31.6669 26.8249 31.8766 26.8208C31.9808 26.8169 32.0849 26.8131 32.1922 26.8091C32.8708 26.7992 33.2468 26.8589 33.7636 27.3105C33.9482 27.6798 33.9356 28.0622 33.8788 28.4629C33.634 28.8596 33.516 29.0063 33.0722 29.1543C32.781 29.1695 32.493 29.1787 32.2016 29.1817C32.1165 29.1827 32.0314 29.1836 31.9437 29.1846C31.7638 29.1861 31.5838 29.1874 31.4038 29.1883C31.2201 29.1896 31.0364 29.192 30.8526 29.1954C30.5869 29.2003 30.3212 29.2022 30.0554 29.2033C29.9738 29.2054 29.8921 29.2074 29.808 29.2095C29.3916 29.2076 29.1696 29.1643 28.817 28.9351C28.4055 28.5187 28.4457 28.2284 28.4388 27.6525C28.4376 27.5691 28.4365 27.4857 28.4354 27.3997C28.4319 27.1232 28.4294 26.8466 28.4273 26.5701C28.4265 26.4756 28.4258 26.3812 28.425 26.2839C28.4212 25.7842 28.4184 25.2844 28.4162 24.7846C28.4141 24.3709 28.4101 23.9573 28.4043 23.5436C28.3974 23.0442 28.3939 22.5449 28.3927 22.0455C28.3918 21.8552 28.3896 21.665 28.3862 21.4747C28.3817 21.2082 28.3816 20.942 28.3825 20.6754C28.3813 20.5238 28.3801 20.3723 28.3789 20.2161C28.5627 19.3492 29.259 19.156 30.0797 19.1676Z" fill="#FDDC34"/>
<path d="M17.9768 31.5742C18.4242 31.8925 18.5304 32.0218 18.625 32.5609C18.553 32.957 18.553 32.957 18.3009 33.2379C17.9466 33.4348 17.7968 33.4873 17.4006 33.418C17.2053 33.3084 17.013 33.1932 16.8245 33.0723C16.1414 32.8594 15.3822 32.8414 14.7214 33.1299C14.1179 33.4714 13.7 34.0335 13.4827 34.6856C13.3703 35.56 13.5194 36.2831 14.0588 36.9902C14.6025 37.4811 15.1407 37.7217 15.8738 37.7537C16.5371 37.7143 16.9266 37.4904 17.3718 36.9974C17.5307 36.7353 17.6354 36.4689 17.7463 36.1836C17.6615 36.1903 17.5767 36.197 17.4893 36.2039C16.5727 36.2462 16.5727 36.2462 16.1114 35.9387C15.8653 35.5484 15.8159 35.3685 15.9026 34.916C16.1416 34.6122 16.2791 34.4719 16.6624 34.3954C16.7729 34.3949 16.8834 34.3944 16.9973 34.3939C17.1185 34.3933 17.2397 34.3927 17.3646 34.3921C17.4906 34.3939 17.6166 34.3956 17.7463 34.3975C17.9353 34.3948 17.9353 34.3948 18.1281 34.3921C18.2493 34.3927 18.3705 34.3933 18.4954 34.3939C18.6611 34.3947 18.6611 34.3947 18.8303 34.3954C19.213 34.4718 19.3509 34.6134 19.5901 34.916C19.7955 36.0338 19.4611 37.111 18.8411 38.0373C18.1566 38.9106 17.3158 39.4356 16.2105 39.5731C14.9691 39.6251 13.9838 39.3088 13.0289 38.5099C12.1333 37.645 11.6326 36.6356 11.5957 35.3842C11.6332 34.1536 12.041 33.1613 12.8934 32.2683C14.3337 30.9384 16.1947 30.7261 17.9768 31.5742Z" fill="#FCDC36"/>
<path d="M18.3223 56.8105C25.6615 56.8105 33.0008 56.8105 40.5625 56.8105C40.3596 57.2164 39.8768 57.2605 39.4656 57.4008C39.3285 57.4461 39.1913 57.4913 39.05 57.538C38.8391 57.6076 38.8391 57.6076 38.6239 57.6787C37.7485 57.961 36.8734 58.2128 35.9747 58.4094C35.8818 58.43 35.7889 58.4505 35.6931 58.4717C35.3582 58.5402 35.0229 58.5986 34.6855 58.6543C34.5991 58.6686 34.5127 58.6828 34.4237 58.6976C32.7916 58.9604 31.1951 59.0614 29.5432 59.0504C29.4282 59.05 29.3132 59.0496 29.1947 59.0492C25.4152 59.0308 21.8372 58.3343 18.3223 56.9258C18.3223 56.8878 18.3223 56.8497 18.3223 56.8105Z" fill="#FC973A"/>
<path d="M21.2032 31.1133C21.5085 31.2731 21.5085 31.2731 21.7794 31.5742C21.8666 31.9693 21.8597 32.3593 21.8568 32.7626C21.8583 32.8785 21.8597 32.9944 21.8612 33.1138C21.8654 33.4841 21.8657 33.8543 21.8658 34.2246C21.8683 34.5949 21.8716 34.9651 21.8753 35.3354C21.8773 35.5657 21.8785 35.7961 21.8788 36.0264C21.8794 36.1833 21.8794 36.1833 21.8801 36.3434C21.8802 36.481 21.8802 36.481 21.8802 36.6214C21.8947 36.8772 21.9266 37.0936 22.0098 37.3359C22.2288 37.479 22.2288 37.479 22.4708 37.5664C22.5468 37.6044 22.6229 37.6425 22.7012 37.6816C23.4427 37.7445 23.8179 37.6453 24.4298 37.2207C24.5653 36.9497 24.5593 36.7886 24.5595 36.4866C24.5599 36.3824 24.5604 36.2781 24.5608 36.1707C24.561 36.0578 24.5611 35.9448 24.5612 35.8284C24.5633 35.5902 24.5656 35.352 24.568 35.1138C24.5713 34.7375 24.5738 34.3613 24.5739 33.985C24.5742 33.6223 24.5782 33.2598 24.5828 32.8972C24.582 32.7849 24.5812 32.6727 24.5803 32.557C24.59 32.021 24.6005 31.7687 24.9311 31.3299C25.2364 31.1133 25.2364 31.1133 25.5893 31.0485C26.0279 31.1325 26.1317 31.2064 26.3887 31.5742C26.4579 31.9911 26.4505 32.4043 26.4459 32.826C26.4461 32.9488 26.4462 33.0716 26.4464 33.1981C26.4462 33.4577 26.4449 33.7174 26.4425 33.9771C26.4392 34.3732 26.4401 34.7691 26.4416 35.1652C26.4409 35.4178 26.4399 35.6704 26.4387 35.923C26.439 36.0409 26.4394 36.1588 26.4397 36.2802C26.4274 37.2216 26.2288 37.9298 25.5794 38.6368C24.774 39.334 23.8883 39.639 22.8295 39.5857C21.9818 39.4432 21.2177 38.9912 20.627 38.373C20.0967 37.5558 19.9657 36.8503 19.9784 35.8892C19.9781 35.7666 19.9778 35.644 19.9775 35.5177C19.9777 35.2607 19.9792 35.0036 19.9821 34.7467C19.986 34.3529 19.9844 33.9594 19.9822 33.5656C19.983 33.315 19.9841 33.0645 19.9856 32.8139C19.985 32.6964 19.9844 32.5789 19.9839 32.4578C19.9973 31.6506 19.9973 31.6506 20.2642 31.2699C20.6076 31.0527 20.8038 31.0481 21.2032 31.1133Z" fill="#FCDC36"/>
<path d="M39.5183 31.0485C39.6638 31.0457 39.8093 31.043 39.9592 31.0402C41.1485 31.042 41.1485 31.042 41.5853 31.3793C41.8302 31.6895 41.8302 31.6895 41.8374 32.1072C41.7179 32.4868 41.676 32.6113 41.3693 32.8418C41.1079 32.8811 41.1079 32.8811 40.8062 32.8756C40.6981 32.8745 40.59 32.8734 40.4787 32.8722C40.3662 32.8693 40.2536 32.8664 40.1377 32.8634C39.9669 32.8611 39.9669 32.8611 39.7927 32.8587C39.5116 32.8546 39.2304 32.8484 38.9494 32.8418C38.9494 33.3742 38.9494 33.9066 38.9494 34.4551C39.1639 34.4451 39.1639 34.4451 39.3828 34.4349C39.572 34.4294 39.7612 34.4242 39.9505 34.4191C40.0446 34.4143 40.1387 34.4094 40.2356 34.4045C40.7444 34.3942 40.9575 34.4059 41.3783 34.7193C41.5998 35.0313 41.5998 35.0313 41.607 35.449C41.4845 35.8379 41.4845 35.8379 41.313 36.0337C40.8701 36.2631 40.4481 36.2202 39.9577 36.2052C39.8608 36.2037 39.764 36.2021 39.6642 36.2005C39.4259 36.1964 39.1876 36.1902 38.9494 36.1836C38.9494 36.716 38.9494 37.2484 38.9494 37.7969C39.109 37.7902 39.2687 37.7835 39.4333 37.7767C39.6441 37.7712 39.8549 37.766 40.0657 37.7609C40.1708 37.7561 40.2759 37.7512 40.3842 37.7463C40.9196 37.7365 41.1721 37.7371 41.616 38.0611C41.8302 38.3731 41.8302 38.3731 41.8374 38.7908C41.7001 39.2269 41.6431 39.3084 41.254 39.5254C40.8917 39.572 40.8917 39.572 40.469 39.5754C40.394 39.576 40.319 39.5766 40.2418 39.5772C40.0837 39.578 39.9257 39.5778 39.7676 39.5768C39.5262 39.5758 39.2852 39.5792 39.0439 39.5828C38.8899 39.583 38.736 39.5829 38.5821 39.5826C38.3728 39.5829 38.3728 39.5829 38.1594 39.5832C37.7162 39.5125 37.6084 39.4152 37.3361 39.0645C37.2768 38.7278 37.2768 38.7278 37.2746 38.3319C37.2728 38.1835 37.271 38.035 37.2691 37.8821C37.2695 37.7204 37.2701 37.5588 37.2708 37.3972C37.2702 37.231 37.2695 37.0648 37.2686 36.8987C37.2674 36.5507 37.268 36.2028 37.2697 35.8549C37.2716 35.4092 37.2689 34.9637 37.2649 34.518C37.2623 34.175 37.2625 33.832 37.2635 33.4889C37.2636 33.3246 37.2628 33.1603 37.2611 32.9961C37.2591 32.7663 37.2611 32.5366 37.2634 32.3068C37.2635 32.1762 37.2636 32.0455 37.2637 31.9109C37.3361 31.5743 37.3361 31.5743 37.6068 31.3018C38.1875 30.9434 38.8547 31.0428 39.5183 31.0485Z" fill="#FCDC35"/>
<path d="M27.997 -0.0274648C28.1045 -0.0285934 28.212 -0.029722 28.3227 -0.0308848C32.3334 -0.064306 36.0757 0.353911 39.8711 1.72851C39.8711 1.76654 39.8711 1.80456 39.8711 1.84374C34.8895 1.84374 29.9079 1.84374 24.7754 1.84374C24.6613 1.57755 24.5472 1.31136 24.4297 1.0371C24.1369 0.705591 24.1369 0.705591 23.8535 0.460931C24.1583 0.405287 24.4632 0.350148 24.7682 0.295281C24.8529 0.279759 24.9377 0.264236 25.025 0.248242C25.1526 0.225404 25.1526 0.225404 25.2827 0.202104C25.3593 0.188224 25.436 0.174344 25.5149 0.160044C26.3433 0.0352854 27.1596 -0.0201778 27.997 -0.0274648Z" fill="#FE9637"/>
<path d="M28.6934 31.1133C29.0222 31.3602 29.1405 31.4971 29.2136 31.9057C29.2147 32.0981 29.2147 32.0981 29.2158 32.2944C29.2185 32.513 29.2185 32.513 29.2213 32.7361C29.2209 32.8948 29.2203 33.0535 29.2196 33.2122C29.2202 33.3756 29.2209 33.5389 29.2217 33.7022C29.2229 34.0442 29.2224 34.3862 29.2207 34.7283C29.2187 35.1659 29.2214 35.6034 29.2255 36.041C29.228 36.3782 29.2279 36.7154 29.2269 37.0527C29.2268 37.214 29.2276 37.3753 29.2293 37.5366C29.2313 37.7624 29.2292 37.9883 29.227 38.2141C29.2269 38.4066 29.2269 38.4066 29.2267 38.603C29.1305 39.063 28.9436 39.239 28.5781 39.5254C28.1604 39.5326 28.1604 39.5326 27.7715 39.4101C27.3987 39.0398 27.3817 38.7405 27.3792 38.2272C27.3778 38.0811 27.3763 37.9349 27.3748 37.7844C27.375 37.6253 27.3754 37.4662 27.3758 37.3071C27.3753 37.1435 27.3747 36.9799 27.374 36.8164C27.373 36.4738 27.3732 36.1313 27.3744 35.7888C27.3757 35.3501 27.3734 34.9116 27.37 34.4729C27.3679 34.1352 27.3679 33.7975 27.3686 33.4598C27.3686 33.2981 27.3679 33.1364 27.3665 32.9747C27.3648 32.7485 27.3663 32.5224 27.368 32.2962C27.368 32.1676 27.368 32.039 27.368 31.9065C27.4996 31.1496 27.9911 31.0129 28.6934 31.1133Z" fill="#FDDC34"/>
<path d="M31.9199 32.957C33.5412 32.957 33.5412 32.957 34.1094 33.418C34.7395 34.224 34.7638 35.0861 34.6855 36.0684C34.5537 36.6587 34.3447 37.1724 33.8861 37.5808C33.418 37.7969 33.418 37.7969 31.9199 37.7969C31.9199 36.1997 31.9199 34.6026 31.9199 32.957Z" fill="#65B8F7"/>
<path d="M23.8535 0.460935C24.1773 0.645513 24.4403 0.850533 24.6602 1.15234C24.6982 1.38051 24.7362 1.60867 24.7754 1.84375C23.9008 1.84375 23.0261 1.84375 22.125 1.84375C22.2402 1.03711 22.2402 1.03711 22.5211 0.763426C23.0021 0.458407 23.2747 0.394519 23.8535 0.460935Z" fill="#FD4855"/>
<path d="M37.1055 21.4335C38.1387 21.3922 38.1387 21.3922 38.6107 21.556C38.834 21.7792 38.834 21.7792 38.9492 22.1754C38.9492 22.5859 38.9492 22.5859 38.8052 22.8596C38.4528 23.1867 38.1179 23.1752 37.66 23.1693C37.477 23.1669 37.294 23.1645 37.1055 23.1621C37.1055 22.5916 37.1055 22.0212 37.1055 21.4335Z" fill="#64B7F9"/>
</g>
<defs>
<clipPath id="clip0_753_1920">
<rect width="59" height="59" fill="white"/>
</clipPath>
</defs>
</svg>
