<svg width="48" height="48" viewBox="0 0 48 48" fill="none" xmlns="http://www.w3.org/2000/svg">
<circle cx="24" cy="24" r="24" fill="#F4F7FE"/>
<g clip-path="url(#clip0_1564_1526)">
<path d="M13.6651 7.9743C13.7625 7.97412 13.86 7.97384 13.9574 7.97348C14.2239 7.97276 14.4903 7.97331 14.7568 7.97408C15.0446 7.97468 15.3324 7.97411 15.6203 7.97368C16.1835 7.97303 16.7467 7.97348 17.31 7.97431C17.9656 7.97524 18.6213 7.97513 19.277 7.97499C20.4464 7.97477 21.6158 7.97556 22.7852 7.9769C23.9206 7.9782 25.056 7.97869 26.1914 7.97831C27.4278 7.97789 28.6642 7.9779 29.9006 7.97868C30.0323 7.97876 30.164 7.97885 30.2957 7.97893C30.3605 7.97897 30.4253 7.97901 30.4921 7.97905C30.9495 7.97932 31.4069 7.97929 31.8643 7.97916C32.4211 7.97902 32.9778 7.97937 33.5346 7.98037C33.8189 7.98086 34.1031 7.98114 34.3874 7.98083C34.6472 7.98055 34.9071 7.9809 35.1669 7.98176C35.2612 7.98196 35.3556 7.98193 35.4499 7.98165C35.5775 7.9813 35.705 7.98187 35.8326 7.98249C35.9036 7.98255 35.9747 7.98261 36.0479 7.98267C36.2149 7.99989 36.2149 7.99989 36.3516 8.1366C36.3689 8.31509 36.3689 8.31509 36.369 8.5468C36.3694 8.63481 36.3698 8.72282 36.3703 8.8135C36.37 8.9121 36.3697 9.01069 36.3695 9.10929C36.3697 9.21331 36.3699 9.31733 36.3703 9.42134C36.371 9.70824 36.3708 9.99513 36.3705 10.282C36.3704 10.591 36.371 10.9 36.3715 11.209C36.3724 11.8148 36.3725 12.4205 36.3723 13.0263C36.3722 13.5185 36.3723 14.0106 36.3726 14.5028C36.3726 14.5727 36.3727 14.6426 36.3727 14.7147C36.3728 14.8567 36.3729 14.9988 36.373 15.1408C36.3737 16.4742 36.3736 17.8076 36.3732 19.141C36.3728 20.362 36.3736 21.583 36.3749 22.804C36.3762 24.0564 36.3768 25.3088 36.3765 26.5612C36.3764 27.2649 36.3765 27.9686 36.3775 28.6722C36.3783 29.2712 36.3784 29.8703 36.3776 30.4693C36.3772 30.7751 36.3771 31.081 36.3779 31.3868C36.3787 31.6665 36.3785 31.9462 36.3775 32.2259C36.3773 32.3274 36.3775 32.4289 36.378 32.5303C36.3787 32.6677 36.378 32.8051 36.3773 32.9424C36.3773 33.0189 36.3773 33.0954 36.3773 33.1742C36.3516 33.3612 36.3516 33.3612 36.2609 33.4877C36.0802 33.6119 35.9053 33.6026 35.6894 33.6133C35.6088 33.6178 35.5282 33.6223 35.4451 33.6269C35.3833 33.6295 35.3215 33.632 35.2579 33.6347C34.5683 35.5071 34.4987 37.3736 35.2579 39.2401C35.3197 39.2427 35.3814 39.2452 35.4451 39.2479C35.566 39.2546 35.566 39.2546 35.6894 39.2615C35.7695 39.2654 35.8496 39.2694 35.9321 39.2735C36.1466 39.3085 36.1466 39.3085 36.261 39.3851C36.3957 39.576 36.3771 39.7309 36.3765 39.9624C36.3764 40.0506 36.3764 40.1388 36.3763 40.2296C36.3758 40.2754 36.3752 40.3213 36.3746 40.3685C36.373 40.5088 36.3732 40.649 36.3737 40.7893C36.3699 41.4777 36.3699 41.4777 36.2149 41.6327C36.011 41.6459 35.8134 41.6505 35.6094 41.6491C35.5459 41.6493 35.4824 41.6494 35.417 41.6495C35.203 41.6497 34.989 41.649 34.7749 41.6482C34.622 41.6482 34.4691 41.6482 34.3162 41.6483C33.9 41.6483 33.4838 41.6475 33.0676 41.6466C32.6331 41.6457 32.1985 41.6456 31.764 41.6455C31.0342 41.6451 30.3045 41.6442 29.5748 41.643C28.8231 41.6418 28.0714 41.6408 27.3197 41.6402C27.2502 41.6402 27.2502 41.6402 27.1793 41.6401C26.947 41.6399 26.7146 41.6397 26.4823 41.6396C24.554 41.6382 22.6257 41.6357 20.6973 41.6327C20.6973 42.0839 20.6973 42.535 20.6973 42.9999C20.3138 42.9999 20.3138 42.9999 20.1248 42.8306C20.0843 42.796 20.0438 42.7615 20.002 42.7259C19.9184 42.652 19.8351 42.5777 19.7521 42.5032C19.6374 42.406 19.5306 42.32 19.3985 42.2479C19.0238 42.3022 18.7222 42.6431 18.4372 42.8768C18.2364 42.9999 18.2364 42.9999 17.8946 42.9315C17.8946 42.5029 17.8946 42.0743 17.8946 41.6327C17.7432 41.6341 17.5919 41.6356 17.4359 41.637C16.9333 41.6416 16.4308 41.6446 15.9282 41.6469C15.6237 41.6483 15.3193 41.6502 15.0149 41.6533C14.7205 41.6563 14.4263 41.6579 14.1319 41.6586C14.0202 41.6591 13.9084 41.6601 13.7967 41.6616C12.8439 41.6738 12.0974 41.5372 11.3663 40.8807C10.8649 40.3671 10.6403 39.7249 10.6393 39.0229C10.6392 38.9732 10.639 38.9235 10.6389 38.8723C10.6384 38.7048 10.6384 38.5373 10.6385 38.3698C10.6382 38.2489 10.638 38.1279 10.6377 38.007C10.637 37.6739 10.6368 37.3408 10.6366 37.0077C10.6363 36.6488 10.6357 36.2898 10.6351 35.9309C10.6337 35.0636 10.633 34.1964 10.6324 33.3291C10.6321 32.9208 10.6317 32.5125 10.6314 32.1041C10.6302 30.7469 10.6292 29.3896 10.6287 28.0323C10.6286 27.6801 10.6285 27.3278 10.6283 26.9755C10.6283 26.8442 10.6283 26.8442 10.6282 26.7102C10.6277 25.2918 10.6259 23.8733 10.6237 22.4549C10.6215 20.9988 10.6202 19.5428 10.62 18.0868C10.6199 17.2691 10.6193 16.4515 10.6175 15.6339C10.616 14.9376 10.6155 14.2413 10.6161 13.545C10.6165 13.1898 10.6163 12.8346 10.615 12.4794C10.6138 12.154 10.6139 11.8286 10.6149 11.5032C10.6151 11.3857 10.6148 11.2682 10.614 11.1507C10.6082 10.2575 10.7166 9.44746 11.3321 8.75184C12.0678 8.09951 12.7012 7.96888 13.6651 7.9743Z" fill="#4073C8"/>
<path d="M14.1887 33.5255C14.3235 33.5251 14.3235 33.5251 14.4611 33.5246C14.7105 33.5239 14.9599 33.5252 15.2093 33.5269C15.4783 33.5284 15.7474 33.5279 16.0164 33.5277C16.4824 33.5275 16.9484 33.5285 17.4145 33.5305C18.0883 33.5332 18.7621 33.5341 19.4359 33.5346C20.5291 33.5353 21.6223 33.5376 22.7155 33.5408C23.7775 33.544 24.8395 33.5464 25.9014 33.5478C25.9996 33.548 25.9996 33.548 26.0998 33.5481C26.4281 33.5486 26.7565 33.549 27.0849 33.5494C29.8092 33.553 32.5335 33.559 35.2579 33.5666C35.2459 33.6057 35.234 33.6447 35.2217 33.6849C35.1672 33.8639 35.1129 34.0429 35.0587 34.2219C35.0399 34.2833 35.0211 34.3447 35.0018 34.408C34.5129 36.0256 34.6234 37.6806 35.2579 39.2404C35.3196 39.243 35.3814 39.2455 35.4451 39.2482C35.5257 39.2527 35.6063 39.2572 35.6894 39.2618C35.7695 39.2658 35.8496 39.2697 35.9321 39.2738C36.1465 39.3088 36.1465 39.3088 36.2609 39.3855C36.3957 39.5763 36.377 39.7312 36.3765 39.9627C36.3764 40.0509 36.3764 40.1391 36.3763 40.2299C36.3758 40.2757 36.3752 40.3216 36.3746 40.3688C36.373 40.5091 36.3732 40.6493 36.3736 40.7896C36.3699 41.4781 36.3699 41.4781 36.2149 41.633C36.011 41.6463 35.8134 41.6508 35.6094 41.6495C35.5459 41.6496 35.4824 41.6497 35.417 41.6498C35.203 41.65 34.9889 41.6493 34.7749 41.6485C34.622 41.6485 34.4691 41.6485 34.3162 41.6486C33.9 41.6486 33.4838 41.6478 33.0676 41.6469C32.633 41.646 32.1985 41.6459 31.7639 41.6458C31.0342 41.6454 30.3045 41.6445 29.5748 41.6433C28.8231 41.6421 28.0713 41.6411 27.3196 41.6405C27.2502 41.6405 27.2502 41.6405 27.1793 41.6404C26.9469 41.6402 26.7146 41.6401 26.4823 41.6399C24.5539 41.6385 22.6256 41.636 20.6973 41.633C20.6973 42.0842 20.6973 42.5354 20.6973 43.0002C20.3138 43.0002 20.3138 43.0002 20.1248 42.8309C20.064 42.7791 20.064 42.7791 20.002 42.7262C19.9184 42.6523 19.8351 42.5781 19.752 42.5035C19.6373 42.4063 19.5305 42.3203 19.3985 42.2482C19.0238 42.3025 18.7221 42.6434 18.4372 42.8771C18.2364 43.0002 18.2364 43.0002 18.0399 42.9844C17.9919 42.9671 17.944 42.9497 17.8946 42.9318C17.8807 41.746 17.924 40.5622 17.9629 39.3772C17.9073 39.3778 17.8517 39.3784 17.7944 39.379C17.2694 39.3845 16.7445 39.3886 16.2194 39.3913C15.9495 39.3927 15.6797 39.3947 15.4098 39.3978C15.1492 39.4008 14.8886 39.4024 14.6279 39.4031C14.5287 39.4036 14.4294 39.4046 14.3301 39.4061C14.1907 39.4081 14.0514 39.4083 13.912 39.4082C13.7931 39.4091 13.7931 39.4091 13.6718 39.41C13.4019 39.3698 13.2532 39.2721 13.0411 39.1037C12.9399 38.9014 12.9618 38.7183 12.9595 38.4925C12.959 38.4437 12.9584 38.3949 12.9578 38.3446C12.9561 38.1828 12.955 38.0209 12.954 37.8591C12.9537 37.8038 12.9533 37.7486 12.9529 37.6916C12.9511 37.3992 12.9498 37.1067 12.9488 36.8142C12.9476 36.5121 12.9446 36.2101 12.9411 35.9081C12.9388 35.6758 12.938 35.4435 12.9376 35.2112C12.9372 35.0999 12.9361 34.9885 12.9345 34.8772C12.9323 34.7212 12.9323 34.5654 12.9328 34.4094C12.9323 34.3207 12.9317 34.232 12.9312 34.1406C12.9721 33.9118 13.0162 33.7957 13.1864 33.6373C13.4854 33.4723 13.857 33.5216 14.1887 33.5255Z" fill="#DAE7EC"/>
<path d="M33.5487 7.99986C33.9258 7.99649 34.303 7.99401 34.6802 7.99235C34.8086 7.99167 34.937 7.99073 35.0653 7.98955C35.2496 7.9879 35.4339 7.98712 35.6181 7.98651C35.6758 7.98581 35.7334 7.9851 35.7927 7.98438C35.9335 7.98435 36.0742 7.99149 36.2147 7.99986C36.401 8.18621 36.3686 8.28581 36.3688 8.54678C36.3692 8.63479 36.3696 8.7228 36.37 8.81348C36.3698 8.91208 36.3695 9.01067 36.3692 9.10927C36.3694 9.21329 36.3697 9.31731 36.37 9.42132C36.3707 9.70822 36.3706 9.99511 36.3703 10.282C36.3701 10.591 36.3707 10.9 36.3712 11.209C36.3721 11.8148 36.3722 12.4205 36.3721 13.0263C36.3719 13.5184 36.3721 14.0106 36.3724 14.5028C36.3724 14.5727 36.3724 14.6426 36.3725 14.7147C36.3726 14.8567 36.3726 14.9988 36.3727 15.1408C36.3735 16.4742 36.3733 17.8076 36.3729 19.1409C36.3726 20.362 36.3733 21.583 36.3746 22.804C36.3759 24.0564 36.3765 25.3088 36.3763 26.5612C36.3761 27.2649 36.3763 27.9685 36.3773 28.6722C36.3781 29.2712 36.3782 29.8702 36.3773 30.4693C36.3769 30.7751 36.3769 31.081 36.3777 31.3868C36.3784 31.6665 36.3782 31.9462 36.3773 32.2259C36.3771 32.3273 36.3772 32.4288 36.3778 32.5303C36.3785 32.6677 36.3778 32.805 36.377 32.9424C36.377 33.0189 36.377 33.0953 36.377 33.1741C36.3514 33.3612 36.3514 33.3612 36.2711 33.4883C36.0969 33.5972 35.9703 33.5919 35.7653 33.5918C35.6456 33.5925 35.6456 33.5925 35.5235 33.5933C35.4355 33.5927 35.3474 33.5922 35.2567 33.5917C35.1626 33.5919 35.0684 33.5921 34.9742 33.5925C34.7149 33.5932 34.4556 33.5926 34.1962 33.5918C33.9168 33.5912 33.6373 33.5918 33.3579 33.5923C32.8735 33.5929 32.389 33.5928 31.9046 33.5923C31.2039 33.5915 30.5032 33.5921 29.8025 33.5931C28.6653 33.5947 27.5281 33.5957 26.391 33.5959C26.2888 33.596 26.2888 33.596 26.1846 33.596C25.4248 33.5962 24.665 33.5962 23.9052 33.5961C23.6296 33.5961 23.3541 33.5961 23.0786 33.5961C23.0106 33.5961 22.9426 33.5961 22.8725 33.596C21.7398 33.596 20.607 33.597 19.4742 33.5989C18.7751 33.5999 18.076 33.6001 17.3769 33.599C16.898 33.5984 16.4192 33.5987 15.9403 33.5998C15.6638 33.6004 15.3873 33.6006 15.1108 33.5995C14.8578 33.5986 14.6049 33.5989 14.3519 33.6002C14.2167 33.6005 14.0814 33.5995 13.9462 33.5985C13.8663 33.5992 13.7863 33.5998 13.7039 33.6005C13.6002 33.6005 13.6002 33.6005 13.4944 33.6005C13.2638 33.6442 13.1827 33.7241 13.0409 33.9081C12.9994 34.1377 12.9994 34.1377 13.0055 34.3991C13.005 34.4481 13.0045 34.497 13.004 34.5474C13.0028 34.7089 13.0036 34.8703 13.0045 35.0317C13.0044 35.1441 13.0041 35.2565 13.0037 35.3688C13.0033 35.6042 13.0039 35.8396 13.0052 36.0749C13.0068 36.3765 13.0059 36.6781 13.0042 36.9797C13.0032 37.2117 13.0036 37.4437 13.0043 37.6757C13.0044 37.7869 13.0042 37.8981 13.0036 38.0093C13.0029 38.1648 13.004 38.3201 13.0055 38.4756C13.0057 38.564 13.0059 38.6525 13.0061 38.7436C13.0466 39.0036 13.1089 39.0817 13.3143 39.2401C13.5057 39.3358 13.6665 39.3196 13.8807 39.3225C13.9247 39.3232 13.9687 39.3238 14.0141 39.3245C14.1598 39.3267 14.3056 39.3284 14.4513 39.3301C14.5523 39.3315 14.6532 39.3329 14.7542 39.3344C15.0201 39.3382 15.286 39.3415 15.5519 39.3448C15.8708 39.3489 16.1897 39.3534 16.5087 39.3579C16.9934 39.3646 17.478 39.3706 17.9627 39.3768C17.9627 40.1213 17.9627 40.8657 17.9627 41.6327C16.6963 41.6436 16.6963 41.6436 16.1527 41.646C15.783 41.6477 15.4134 41.6496 15.0438 41.6533C14.7455 41.6563 14.4472 41.6579 14.1489 41.6586C14.0356 41.6591 13.9223 41.6601 13.8091 41.6616C12.8513 41.6736 12.1014 41.5409 11.366 40.8807C10.835 40.3366 10.6383 39.6744 10.6373 38.937C10.6369 38.879 10.6366 38.8209 10.6362 38.7611C10.6352 38.569 10.6348 38.3769 10.6344 38.1848C10.634 38.0508 10.6336 37.9167 10.6332 37.7827C10.6325 37.5013 10.6321 37.22 10.6319 36.9386C10.6315 36.5799 10.6298 36.2212 10.6279 35.8625C10.6266 35.5853 10.6263 35.3082 10.6262 35.031C10.6259 34.8989 10.6254 34.7668 10.6245 34.6347C10.6175 33.5346 10.6775 32.675 11.4216 31.8103C12.342 31.0183 13.2403 31.0069 14.4033 31.0107C14.5479 31.0104 14.6925 31.01 14.8371 31.0096C15.1473 31.0088 15.4576 31.0086 15.7679 31.0089C16.2592 31.0094 16.7506 31.0083 17.242 31.007C18.2854 31.0044 19.3289 31.0035 20.3724 31.0028C21.4982 31.002 22.624 31.001 23.7498 30.998C24.2374 30.9967 24.725 30.9964 25.2127 30.9969C25.5171 30.997 25.8215 30.9963 26.1259 30.9953C26.2661 30.9951 26.4064 30.9951 26.5466 30.9956C28.5647 31.0017 30.2514 30.4698 31.7305 29.0316C33.3453 27.3257 33.5001 25.229 33.5021 23.0087C33.5027 22.8442 33.5034 22.6797 33.5042 22.5152C33.5058 22.1181 33.5069 21.721 33.5077 21.3239C33.5086 20.8611 33.5103 20.3983 33.5121 19.9355C33.5152 19.1105 33.5177 18.2854 33.5198 17.4604C33.5219 16.6598 33.5242 15.8592 33.527 15.0586C33.5271 15.0091 33.5273 14.9596 33.5275 14.9086C33.5283 14.6602 33.5292 14.4119 33.53 14.1635C33.5371 12.109 33.5432 10.0544 33.5487 7.99986Z" fill="#3B66C1"/>
<path d="M19.9644 16.9725C20.0132 16.972 20.0621 16.9715 20.1124 16.971C20.2732 16.9699 20.4338 16.9718 20.5946 16.9738C20.7067 16.9739 20.8188 16.9738 20.9309 16.9736C21.1656 16.9736 21.4002 16.975 21.6349 16.9775C21.9354 16.9806 22.2357 16.9807 22.5362 16.9797C22.7676 16.9793 22.999 16.9802 23.2304 16.9815C23.3412 16.9821 23.452 16.9822 23.5627 16.982C23.7177 16.982 23.8725 16.9837 24.0275 16.9859C24.1596 16.9868 24.1596 16.9868 24.2944 16.9878C24.576 17.0313 24.6859 17.0754 24.867 17.2969C24.9157 17.5086 24.9114 17.7148 24.9078 17.9312C24.9081 17.9954 24.9083 18.0595 24.9086 18.1256C24.909 18.2649 24.9086 18.4041 24.9075 18.5434C24.9057 18.7637 24.9061 18.984 24.9069 19.2044C24.9083 19.6723 24.907 20.1402 24.9055 20.608C24.904 21.15 24.9037 21.6919 24.9055 22.2338C24.9058 22.4509 24.9043 22.668 24.9028 22.8851C24.9029 23.0182 24.9032 23.1514 24.9035 23.2846C24.9026 23.3449 24.9017 23.4053 24.9008 23.4675C24.9031 23.7487 24.9124 23.8913 25.0656 24.1346C25.3117 24.3664 25.4775 24.3469 25.8104 24.3499C25.905 24.3515 25.9996 24.3532 26.0942 24.3549C26.2431 24.3573 26.392 24.3593 26.541 24.3602C26.6849 24.3612 26.8287 24.364 26.9726 24.367C27.0587 24.368 27.1448 24.369 27.2335 24.37C27.502 24.4121 27.6152 24.4905 27.8065 24.6797C27.9618 24.9903 27.8906 25.4196 27.8919 25.7606C27.8941 25.8923 27.8941 25.8923 27.8962 26.0267C27.8967 26.1537 27.8967 26.1537 27.8973 26.2832C27.8979 26.3607 27.8986 26.4383 27.8992 26.5181C27.8717 26.7583 27.8179 26.8825 27.6698 27.0723C27.4648 27.1994 27.3092 27.2262 27.0699 27.2268C27.0044 27.2273 26.939 27.2278 26.8716 27.2283C26.8002 27.2281 26.7289 27.2279 26.6553 27.2278C26.5798 27.2281 26.5043 27.2285 26.4266 27.2288C26.1767 27.2298 25.9268 27.2297 25.6769 27.2296C25.5034 27.2298 25.3299 27.2301 25.1564 27.2304C24.7926 27.231 24.4288 27.2309 24.065 27.2306C23.6447 27.2302 23.2245 27.231 22.8043 27.2325C22.3997 27.2338 21.995 27.234 21.5904 27.2338C21.4184 27.2338 21.2464 27.2342 21.0744 27.2349C20.834 27.2357 20.5936 27.2352 20.3532 27.2344C20.282 27.235 20.2108 27.2355 20.1374 27.236C19.5332 27.2316 19.5332 27.2316 19.2616 27.0039C19.0163 26.6637 19.0996 26.177 19.0992 25.7777C19.0975 25.6905 19.0959 25.6033 19.0941 25.5135C19.0939 25.4295 19.0936 25.3455 19.0933 25.2589C19.0928 25.1822 19.0922 25.1056 19.0916 25.0266C19.132 24.7709 19.2197 24.6585 19.3983 24.4746C19.598 24.3747 19.777 24.3962 19.9999 24.3942C20.0945 24.3927 20.189 24.391 20.2836 24.3893C20.4326 24.3869 20.5815 24.3849 20.7305 24.384C20.8744 24.3829 21.0181 24.3802 21.162 24.3772C21.2912 24.3757 21.2912 24.3757 21.423 24.3741C21.6987 24.3309 21.7998 24.2603 21.9959 24.0645C22.0469 23.8796 22.0469 23.8796 22.0391 23.6727C22.0404 23.5547 22.0404 23.5547 22.0417 23.4342C22.0408 23.3496 22.0399 23.2649 22.0389 23.1777C22.0391 23.0905 22.0393 23.0034 22.0394 22.9136C22.0394 22.7294 22.0386 22.5453 22.0367 22.3611C22.0344 22.1251 22.0348 21.8892 22.0361 21.6532C22.037 21.4279 22.0358 21.2026 22.0347 20.9773C22.035 20.8925 22.0353 20.8077 22.0357 20.7203C22.0346 20.6419 22.0335 20.5634 22.0324 20.4825C22.032 20.4134 22.0316 20.3442 22.0311 20.273C22.0109 20.0915 22.0109 20.0915 21.8706 19.9747C21.6589 19.8601 21.4863 19.8705 21.2467 19.8716C21.1528 19.8707 21.059 19.8698 20.9652 19.8689C20.8184 19.8686 20.6715 19.8689 20.5247 19.8699C20.3822 19.8705 20.2398 19.869 20.0974 19.8673C19.97 19.8677 19.97 19.8677 19.8401 19.868C19.5272 19.8127 19.417 19.7062 19.1932 19.4844C19.0377 19.1734 19.103 18.7491 19.0992 18.4077C19.0967 18.3205 19.0941 18.2332 19.0915 18.1434C19.0907 18.0589 19.0899 17.9745 19.0891 17.8876C19.0877 17.8104 19.0864 17.7332 19.085 17.6537C19.1794 17.1328 19.4653 16.9721 19.9644 16.9725Z" fill="#EFF2F5"/>
<path d="M35.5368 39.3012C35.6168 39.2994 35.6968 39.2975 35.7792 39.2956C35.8463 39.2933 35.9134 39.291 35.9826 39.2886C36.1465 39.3088 36.1465 39.3088 36.2704 39.3995C36.3988 39.5804 36.3769 39.7441 36.3764 39.9628C36.3763 40.095 36.3763 40.095 36.3763 40.2299C36.3757 40.2758 36.3751 40.3216 36.3745 40.3688C36.3729 40.5091 36.3731 40.6493 36.3736 40.7896C36.3698 41.4781 36.3698 41.4781 36.2148 41.633C36.0109 41.6463 35.8133 41.6508 35.6093 41.6495C35.5458 41.6496 35.4823 41.6497 35.4169 41.6498C35.2029 41.6501 34.9889 41.6493 34.7749 41.6486C34.622 41.6485 34.4691 41.6485 34.3162 41.6486C33.8999 41.6487 33.4837 41.6479 33.0675 41.6469C32.633 41.6461 32.1984 41.646 31.7639 41.6458C31.0342 41.6454 30.3044 41.6446 29.5747 41.6434C28.823 41.6421 28.0713 41.6411 27.3196 41.6406C27.2501 41.6405 27.2501 41.6405 27.1792 41.6404C26.9469 41.6403 26.7145 41.6401 26.4822 41.6399C24.5539 41.6385 22.6256 41.6361 20.6973 41.633C20.6973 40.8886 20.6973 40.1442 20.6973 39.3772C22.5804 39.3682 24.4635 39.3593 26.3466 39.3504C27.221 39.3463 28.0954 39.3422 28.9698 39.338C29.7322 39.3344 30.4946 39.3308 31.2569 39.3272C31.6604 39.3253 32.0638 39.3234 32.4673 39.3215C32.8475 39.3197 33.2278 39.3179 33.608 39.3161C33.7471 39.3154 33.8862 39.3148 34.0253 39.3141C34.0906 39.3138 34.1559 39.3135 34.2232 39.3132C34.2863 39.3128 34.3493 39.3125 34.4143 39.3122C34.5345 39.3117 34.6547 39.3113 34.7749 39.3111C35.029 39.3105 35.2828 39.3088 35.5368 39.3012Z" fill="#3F72C8"/>
<path d="M20.6973 37.9414C25.3669 37.9414 30.0365 37.9414 34.8477 37.9414C35.1895 39.1035 35.1895 39.1035 35.2578 39.377C30.4528 39.377 25.6479 39.377 20.6973 39.377C20.6973 38.9032 20.6973 38.4295 20.6973 37.9414Z" fill="#DBE7EE"/>
<path d="M17.9629 35.4805C18.8652 35.4805 19.7676 35.4805 20.6973 35.4805C20.6973 37.9619 20.6973 40.4434 20.6973 43C20.3137 43 20.3137 43 20.1248 42.8307C20.0842 42.7962 20.0437 42.7616 20.0019 42.726C19.9183 42.6521 19.835 42.5779 19.752 42.5033C19.6373 42.4061 19.5305 42.3201 19.3984 42.248C19.0237 42.3023 18.7221 42.6432 18.4371 42.8769C18.2363 43 18.2363 43 17.8945 42.9316C17.9171 40.4728 17.9396 38.0139 17.9629 35.4805Z" fill="#F3DC46"/>
<path d="M20.6973 36.916C25.2992 36.916 29.9012 36.916 34.6426 36.916C34.7793 37.5996 34.7793 37.5996 34.7793 37.9414C30.1322 37.9414 25.4852 37.9414 20.6973 37.9414C20.6973 37.603 20.6973 37.2646 20.6973 36.916Z" fill="#D0E2E7"/>
<path d="M24.0735 12.5058C24.4314 12.7178 24.7337 12.9995 24.8673 13.4006C24.9069 13.8387 24.9202 14.2586 24.6951 14.6479C24.4638 14.922 24.0629 15.2213 23.6983 15.2626C23.2233 15.2766 22.8625 15.206 22.5065 14.8754C22.1401 14.4619 22.102 14.0782 22.1116 13.544C22.1498 13.1658 22.3397 12.9742 22.6115 12.7341C23.0499 12.4053 23.5431 12.3035 24.0735 12.5058Z" fill="#EEF2F5"/>
</g>
<defs>
<clipPath id="clip0_1564_1526">
<rect width="35" height="35" fill="white" transform="translate(6 8)"/>
</clipPath>
</defs>
</svg>
