<svg width="32" height="32" viewBox="0 0 32 32" fill="none" xmlns="http://www.w3.org/2000/svg">
<g clip-path="url(#clip0_1570_1480)">
<path d="M9.74811 -0.0174053C9.89921 -0.0176774 10.0503 -0.0180014 10.2014 -0.0183733C10.5677 -0.0191206 10.9339 -0.0192826 11.3002 -0.0191358C11.5983 -0.0190238 11.8963 -0.0191347 12.1944 -0.0193998C12.237 -0.019437 12.2796 -0.0194742 12.3235 -0.0195125C12.4101 -0.0195883 12.4967 -0.0196641 12.5832 -0.0197402C13.3933 -0.0204183 14.2033 -0.0202855 15.0134 -0.0199036C15.7522 -0.0195808 16.491 -0.0202836 17.2299 -0.0214723C17.9909 -0.022687 18.7519 -0.0231988 19.5129 -0.0229645C19.9392 -0.0228456 20.3655 -0.0229953 20.7918 -0.0238842C21.193 -0.0246743 21.5942 -0.0245452 21.9953 -0.0237335C22.1418 -0.0235865 22.2883 -0.0237534 22.4348 -0.0242725C24.9536 -0.0325469 27.15 0.746956 28.964 2.52833C29.0655 2.62783 29.1682 2.72591 29.2711 2.82398C30.5937 4.09894 31.4579 5.65103 31.8749 7.43726C31.8862 7.48441 31.8974 7.53156 31.9091 7.58014C32.0489 8.27381 32.0184 8.9827 32.018 9.68689C32.0184 9.83892 32.0188 9.99094 32.0193 10.143C32.0203 10.5117 32.0207 10.8805 32.0208 11.2493C32.0208 11.5496 32.0211 11.8498 32.0215 12.1501C32.0226 13.004 32.0231 13.8579 32.0231 14.7117C32.023 14.7806 32.023 14.7806 32.023 14.8509C32.023 14.8969 32.023 14.9428 32.023 14.9902C32.023 15.7342 32.0242 16.4782 32.0259 17.2221C32.0277 17.9886 32.0286 18.755 32.0285 19.5215C32.0284 19.9508 32.0288 20.3801 32.0301 20.8093C32.0314 21.2136 32.0313 21.6178 32.0304 22.0221C32.0303 22.1695 32.0306 22.3169 32.0314 22.4644C32.0438 25.0458 31.1719 27.2118 29.3749 29.0623C29.3421 29.0967 29.3093 29.1311 29.2755 29.1666C27.814 30.6991 25.7782 31.9143 23.6094 32.0057C23.4449 32.0082 23.2805 32.0087 23.116 32.0085C23.0531 32.0087 22.9901 32.0089 22.9253 32.0091C22.7149 32.0096 22.5046 32.0097 22.2942 32.0098C22.1432 32.0101 21.9921 32.0104 21.8411 32.0108C21.4309 32.0116 21.0208 32.012 20.6106 32.0123C20.354 32.0124 20.0975 32.0127 19.8409 32.013C19.1293 32.0138 18.4177 32.0144 17.7062 32.0146C17.6607 32.0146 17.6152 32.0146 17.5683 32.0146C17.4999 32.0147 17.4999 32.0147 17.4301 32.0147C17.3377 32.0147 17.2453 32.0147 17.1529 32.0148C17.0842 32.0148 17.0842 32.0148 17.0141 32.0148C16.2728 32.0151 15.5315 32.0162 14.7902 32.0176C14.0275 32.0191 13.2648 32.0199 12.5021 32.0199C12.0745 32.02 11.6469 32.0204 11.2194 32.0215C10.8167 32.0226 10.414 32.0227 10.0113 32.0221C9.86417 32.0221 9.71707 32.0223 9.56997 32.023C6.97865 32.0333 4.81351 31.175 2.93738 29.3748C2.88694 29.3269 2.88694 29.3269 2.83548 29.278C1.46505 27.9716 0.555718 26.408 0.124879 24.5623C0.113596 24.5151 0.102312 24.4679 0.0906872 24.4193C-0.0490502 23.726 -0.0186253 23.0175 -0.0182787 22.3136C-0.0186532 22.1617 -0.0190786 22.0098 -0.0195509 21.8579C-0.0205374 21.4893 -0.0209325 21.1207 -0.0210024 20.7522C-0.0210621 20.4521 -0.0213201 20.152 -0.0217148 19.8519C-0.0228144 18.9983 -0.0233928 18.1447 -0.0232988 17.2912C-0.0232914 17.2223 -0.0232912 17.2223 -0.0232836 17.1521C-0.0232785 17.1061 -0.0232736 17.0601 -0.0232683 17.0128C-0.0232176 16.2693 -0.0244119 15.5257 -0.0261761 14.7822C-0.0279793 14.0161 -0.0288338 13.25 -0.0287262 12.4839C-0.028685 12.0549 -0.0290178 11.6258 -0.0303742 11.1968C-0.0316437 10.7927 -0.0315871 10.3886 -0.0306841 9.98452C-0.0305546 9.83722 -0.0308418 9.68991 -0.0316044 9.54261C-0.0441361 6.95175 0.822931 4.79283 2.62488 2.93726C2.65769 2.90284 2.6905 2.86842 2.72431 2.83295C3.85711 1.64498 5.21107 0.746739 6.79675 0.288823C6.8484 0.273908 6.90004 0.258994 6.95325 0.243627C7.88569 -0.0102262 8.78836 -0.0185496 9.74811 -0.0174053ZM4.49988 4.68726C4.46951 4.71705 4.43913 4.74684 4.40784 4.77753C3.55405 5.62493 2.95601 6.67403 2.66785 7.84351C2.65288 7.90344 2.65288 7.90344 2.63761 7.96459C2.44714 8.81328 2.49085 9.71012 2.49179 10.5745C2.49171 10.7062 2.4916 10.8379 2.49146 10.9696C2.49118 11.325 2.49129 11.6803 2.49148 12.0357C2.49164 12.409 2.4915 12.7823 2.4914 13.1556C2.49128 13.7822 2.49143 14.4089 2.49173 15.0355C2.49207 15.7583 2.49196 16.481 2.49162 17.2038C2.49133 17.8262 2.49129 18.4487 2.49146 19.0711C2.49155 19.442 2.49157 19.8129 2.49136 20.1838C2.49118 20.5327 2.49131 20.8815 2.49167 21.2304C2.49175 21.3578 2.49173 21.4852 2.49159 21.6127C2.48921 24.0164 2.98914 25.738 4.67566 27.5076C6.39217 29.1647 8.26357 29.5095 10.5696 29.5088C10.7008 29.509 10.832 29.5092 10.9632 29.5095C11.3173 29.51 11.6714 29.5102 12.0255 29.5102C12.2474 29.5103 12.4693 29.5104 12.6911 29.5106C13.4669 29.5111 14.2427 29.5114 15.0185 29.5113C15.7387 29.5113 16.459 29.512 17.1793 29.513C17.8001 29.5138 18.421 29.5141 19.0418 29.5141C19.4115 29.514 19.7812 29.5142 20.1509 29.5149C20.499 29.5155 20.8471 29.5155 21.1952 29.515C21.3219 29.515 21.4487 29.5151 21.5755 29.5155C24.0479 29.5225 25.8431 28.9552 27.6249 27.1873C27.6785 27.1345 27.732 27.0817 27.7872 27.0273C28.5455 26.2344 29.0707 25.2161 29.3319 24.156C29.3469 24.0961 29.3469 24.0961 29.3622 24.0349C29.5526 23.1862 29.5089 22.2894 29.508 21.4251C29.5081 21.2933 29.5082 21.1616 29.5083 21.0299C29.5086 20.6745 29.5085 20.3192 29.5083 19.9638C29.5081 19.5905 29.5083 19.2173 29.5084 18.844C29.5085 18.2173 29.5083 17.5907 29.508 16.964C29.5077 16.2412 29.5078 15.5185 29.5081 14.7957C29.5084 14.1733 29.5085 13.5509 29.5083 12.9284C29.5082 12.5575 29.5082 12.1866 29.5084 11.8157C29.5086 11.4668 29.5085 11.118 29.5081 10.7691C29.508 10.6417 29.508 10.5143 29.5082 10.3869C29.5106 7.96362 28.9954 6.2157 27.2772 4.44898C26.3944 3.59273 25.3518 2.9599 24.1522 2.66773C24.1118 2.65776 24.0713 2.64779 24.0296 2.63752C23.2 2.45211 22.3319 2.49044 21.4873 2.49068C21.3547 2.49049 21.2222 2.49028 21.0897 2.49005C20.7317 2.4895 20.3737 2.48935 20.0158 2.48931C19.7915 2.48926 19.5673 2.48913 19.3431 2.48896C18.5593 2.48839 17.7755 2.48813 16.9917 2.48818C16.2636 2.48822 15.5356 2.48756 14.8075 2.48657C14.1803 2.48575 13.553 2.48542 12.9258 2.48546C12.5521 2.48547 12.1784 2.4853 11.8048 2.48463C11.453 2.48402 11.1013 2.48403 10.7495 2.48448C10.6213 2.48454 10.493 2.4844 10.3648 2.48402C8.00699 2.47747 6.18888 3.0123 4.49988 4.68726Z" fill="black"/>
<path d="M15.269 9.85576C15.6161 10.0116 15.8436 10.2376 16.0068 10.5848C16.0656 10.7591 16.0833 10.8983 16.0859 11.0818C16.0877 11.137 16.0895 11.1922 16.0913 11.2491C16.0017 11.8343 15.591 12.192 15.1865 12.5877C15.1252 12.6486 15.0639 12.7095 15.0026 12.7705C14.8425 12.9297 14.6816 13.0882 14.5205 13.2464C14.3558 13.4086 14.1919 13.5714 14.0278 13.7342C13.7067 14.0526 13.3849 14.3702 13.0625 14.6873C13.1354 14.6875 13.1354 14.6875 13.2098 14.6878C14.3929 14.6915 15.5759 14.6962 16.759 14.702C17.3311 14.7048 17.9032 14.7073 18.4754 14.709C18.9741 14.7104 19.4727 14.7125 19.9714 14.7153C20.2354 14.7168 20.4995 14.718 20.7635 14.7184C21.0121 14.7188 21.2607 14.72 21.5093 14.7219C21.6004 14.7225 21.6916 14.7227 21.7827 14.7226C21.9074 14.7225 22.0321 14.7237 22.1567 14.7249C22.2613 14.7253 22.2613 14.7253 22.368 14.7258C22.7629 14.7746 22.9957 14.9658 23.2339 15.2657C23.4678 15.5904 23.4845 15.9223 23.4375 16.3123C23.3234 16.6996 23.0819 16.9648 22.75 17.1873C22.5456 17.2554 22.3945 17.2585 22.1793 17.2597C22.0991 17.2603 22.0189 17.2609 21.9363 17.2615C21.8472 17.2619 21.7582 17.2623 21.6691 17.2626C21.5755 17.2632 21.4819 17.2639 21.3883 17.2645C21.1339 17.2662 20.8795 17.2675 20.6252 17.2688C20.3594 17.2701 20.0936 17.2718 19.8279 17.2735C19.3245 17.2766 18.8212 17.2794 18.3179 17.2821C17.7449 17.2852 17.1719 17.2887 16.5989 17.2921C15.4201 17.2992 14.2413 17.3059 13.0625 17.3123C13.0964 17.3456 13.1303 17.379 13.1652 17.4133C13.4859 17.7289 13.8059 18.0452 14.1252 18.3621C14.2894 18.5249 14.4538 18.6876 14.6187 18.8497C14.7781 19.0063 14.9369 19.1636 15.0953 19.3214C15.1847 19.4101 15.2748 19.4983 15.3649 19.5864C15.7131 19.9344 16.0044 20.2445 16.0957 20.7439C16.0905 21.1799 16.0275 21.5189 15.7234 21.8455C15.4412 22.0963 15.1673 22.2053 14.793 22.2107C14.7378 22.2125 14.6826 22.2143 14.6257 22.2161C14.1072 22.1368 13.7736 21.8095 13.42 21.4511C13.3464 21.3781 13.3464 21.3781 13.2713 21.3035C13.1103 21.1433 12.9501 20.9821 12.79 20.8208C12.6779 20.7087 12.5657 20.5966 12.4535 20.4846C12.2188 20.2499 11.9845 20.0149 11.7506 19.7795C11.4808 19.5081 11.2103 19.2375 10.9394 18.9673C10.6778 18.7064 10.4167 18.445 10.1559 18.1833C10.0453 18.0724 9.93458 17.9616 9.8237 17.851C9.66873 17.6962 9.51437 17.5408 9.36017 17.3852C9.31451 17.3399 9.26886 17.2945 9.22182 17.2477C8.85576 16.8763 8.58965 16.5528 8.58594 16.0076C8.58384 15.9369 8.58175 15.8661 8.57959 15.7933C8.6847 15.2586 9.11308 14.8591 9.48788 14.4867C9.53529 14.4388 9.5827 14.391 9.63155 14.3417C9.78693 14.1852 9.94299 14.0294 10.0991 13.8736C10.2081 13.7643 10.3171 13.655 10.426 13.5457C10.6538 13.3173 10.882 13.0893 11.1104 12.8616C11.4025 12.5701 11.6937 12.2777 11.9846 11.985C12.2091 11.7593 12.4342 11.5342 12.6595 11.3093C12.7671 11.2017 12.8745 11.0939 12.9817 10.9859C13.1317 10.835 13.2825 10.6849 13.4334 10.535C13.4772 10.4906 13.521 10.4462 13.5661 10.4005C14.0509 9.92282 14.5808 9.64814 15.269 9.85576Z" fill="black"/>
</g>
<defs>
<clipPath id="clip0_1570_1480">
<rect width="32" height="32" fill="white"/>
</clipPath>
</defs>
</svg>
