<svg width="235" height="235" viewBox="0 0 235 235" fill="none" xmlns="http://www.w3.org/2000/svg">
<path d="M155.11 11.1893C158.122 13.5613 160.359 16.2531 162.021 19.7361C162.021 20.1905 162.021 20.6449 162.021 21.1131C162.476 20.9616 162.93 20.8102 163.398 20.6541C167.57 20.3457 171.133 20.4608 174.873 22.49C175.346 22.7456 175.82 23.0012 176.307 23.2646C179.943 26.1892 182.728 29.7554 183.594 34.4236C183.637 35.58 183.653 36.7375 183.651 37.8947C183.653 38.2033 183.655 38.5118 183.656 38.8297C183.654 40.2413 183.585 41.3361 183.135 42.6854C183.401 42.6587 183.667 42.6321 183.942 42.6047C185.894 42.4919 187.279 42.4487 188.843 43.7181C190.725 45.7377 191.147 47.2008 191.085 49.9144C190.795 51.9477 189.652 53.2176 188.155 54.5329C187.266 55.0779 187.266 55.0779 185.889 55.5369C186.189 55.8718 186.49 56.2067 186.799 56.5517C194.056 64.791 199.891 74.3106 203.649 84.6318C204.626 87.2068 205.74 89.0039 207.704 90.948C208.885 92.433 208.862 94.0919 208.838 95.9275C208.838 96.5334 208.838 97.1393 208.838 97.7635C209.137 97.8747 209.437 97.9859 209.745 98.1005C214.737 100.015 218.699 102.765 220.972 107.775C221.979 110.255 222.211 112.308 222.206 115.004C222.208 115.313 222.209 115.621 222.211 115.939C222.208 117.351 222.139 118.445 221.689 119.795C221.956 119.773 222.222 119.752 222.496 119.73C224.404 119.642 225.608 119.696 227.369 120.512C229.018 122.043 229.838 123.477 230.026 125.754C229.894 128.378 228.637 129.991 226.738 131.728C225.233 132.481 223.568 132.243 221.915 132.232C221.53 132.231 221.144 132.231 220.746 132.23C219.512 132.228 218.277 132.222 217.042 132.216C216.206 132.214 215.37 132.212 214.534 132.21C212.482 132.205 210.431 132.197 208.379 132.187C208.331 132.553 208.282 132.919 208.233 133.296C207.725 136.883 206.958 140.282 205.912 143.748C205.711 144.438 205.711 144.438 205.507 145.142C204.86 147.324 204.165 149.37 203.197 151.431C201.277 156.147 203.07 160.936 204.937 165.378C205.158 165.922 205.379 166.467 205.607 167.028C206.364 168.884 207.14 170.732 207.92 172.578C208.061 172.911 208.201 173.245 208.346 173.588C209.748 176.91 211.158 180.229 212.576 183.544C215.258 189.815 217.882 196.108 220.485 202.412C220.674 202.87 220.863 203.328 221.058 203.8C221.598 205.106 222.137 206.412 222.676 207.719C222.914 208.296 222.914 208.296 223.157 208.884C226.01 215.824 226.01 215.824 225.964 218.821C225.962 219.32 225.96 219.819 225.958 220.334C225.825 221.639 225.578 222.416 224.902 223.525C225.195 223.553 225.488 223.581 225.79 223.609C226.169 223.648 226.548 223.686 226.939 223.726C227.317 223.763 227.695 223.801 228.085 223.839C229.033 223.984 229.033 223.984 229.492 224.443C229.55 225.82 229.55 225.82 229.492 227.197C228.73 227.96 227.808 227.713 226.79 227.717C226.305 227.716 226.305 227.716 225.81 227.714C225.469 227.715 225.127 227.716 224.776 227.717C223.624 227.718 222.472 227.717 221.32 227.715C220.498 227.716 219.675 227.717 218.853 227.718C216.613 227.72 214.373 227.719 212.134 227.718C209.795 227.717 207.456 227.718 205.118 227.718C201.19 227.719 197.262 227.718 193.334 227.716C188.785 227.713 184.237 227.714 179.689 227.717C175.791 227.719 171.894 227.719 167.996 227.718C165.665 227.717 163.334 227.717 161.003 227.719C158.812 227.72 156.621 227.719 154.43 227.716C153.623 227.716 152.817 227.716 152.01 227.717C150.914 227.718 149.818 227.717 148.721 227.714C148.398 227.715 148.075 227.716 147.742 227.717C145.55 227.708 145.55 227.708 145.039 227.197C144.982 225.82 144.982 225.82 145.039 224.443C145.766 223.717 146.591 223.825 147.592 223.726C148.161 223.668 148.161 223.668 148.741 223.609C149.034 223.582 149.327 223.554 149.629 223.525C149.524 223.275 149.419 223.025 149.312 222.767C149.114 222.248 149.114 222.248 148.912 221.718C148.712 221.215 148.712 221.215 148.508 220.701C147.678 216.468 149.577 212.872 151.264 209.096C151.735 208.026 152.204 206.956 152.671 205.885C152.88 205.416 153.089 204.947 153.304 204.464C153.817 203.392 153.817 203.392 153.76 202.412C153.263 202.612 152.767 202.812 152.256 203.018C144.212 206.165 135.393 208.991 126.68 208.838C126.696 209.402 126.696 209.402 126.712 209.978C126.72 210.473 126.729 210.967 126.737 211.477C126.753 212.212 126.753 212.212 126.769 212.961C126.682 214.311 126.462 215.045 125.762 216.181C126.033 216.216 126.305 216.25 126.585 216.285C128.593 216.62 129.704 216.942 131.298 218.276C132.425 220.275 132.411 221.745 132.188 223.984C132.925 223.976 132.925 223.976 133.677 223.968C134.319 223.964 134.96 223.96 135.601 223.955C135.926 223.952 136.25 223.948 136.585 223.944C137.414 223.94 138.243 223.96 139.072 223.984C139.531 224.443 139.531 224.443 139.589 225.82C139.531 227.197 139.531 227.197 139.072 227.656C138.362 227.701 137.65 227.714 136.938 227.714C136.474 227.715 136.01 227.716 135.531 227.717C134.757 227.716 134.757 227.716 133.967 227.714C133.152 227.715 133.152 227.715 132.32 227.717C130.804 227.718 129.288 227.717 127.773 227.716C126.141 227.715 124.509 227.717 122.877 227.718C119.677 227.72 116.477 227.719 113.278 227.718C110.678 227.717 108.079 227.717 105.48 227.717C105.111 227.718 104.741 227.718 104.361 227.718C103.611 227.718 102.861 227.718 102.111 227.718C95.0704 227.719 88.0297 227.718 80.9889 227.715C74.941 227.713 68.893 227.714 62.845 227.716C55.8304 227.718 48.8157 227.719 41.8011 227.718C41.0538 227.718 40.3065 227.718 39.5593 227.717C39.1916 227.717 38.8238 227.717 38.445 227.717C35.8473 227.717 33.2496 227.718 30.6519 227.719C27.4884 227.72 24.3249 227.72 21.1614 227.717C19.5457 227.716 17.9301 227.715 16.3144 227.717C14.567 227.719 12.8195 227.717 11.0721 227.714C10.5558 227.715 10.0396 227.716 9.50769 227.717C9.0434 227.716 8.57911 227.715 8.10075 227.714C7.69683 227.714 7.29291 227.714 6.87675 227.714C5.9668 227.656 5.9668 227.656 5.50781 227.197C5.45044 225.82 5.45044 225.82 5.50781 224.443C6.23519 223.716 6.98984 223.909 7.99917 223.89C8.43103 223.881 8.86288 223.872 9.30782 223.862C9.77732 223.855 10.2468 223.847 10.7306 223.839C11.4478 223.825 11.4478 223.825 12.1795 223.81C13.7135 223.78 15.2476 223.753 16.7816 223.726C17.8188 223.706 18.856 223.686 19.8932 223.666C22.4418 223.617 24.9904 223.57 27.5391 223.525C27.3509 223.259 27.1628 222.993 26.9689 222.718C26.7216 222.36 26.4743 222.001 26.2195 221.632C25.9745 221.28 25.7296 220.929 25.4772 220.567C23.99 218.047 23.7348 215.701 23.7568 212.824C23.756 212.447 23.7552 212.07 23.7544 211.681C23.7529 210.421 23.758 209.161 23.763 207.901C23.7632 206.996 23.7631 206.092 23.7626 205.187C23.7623 202.733 23.7677 200.279 23.7741 197.825C23.7799 195.259 23.7804 192.694 23.7815 190.128C23.7843 185.271 23.7919 180.414 23.8011 175.557C23.8113 170.027 23.8164 164.497 23.821 158.967C23.8306 147.593 23.8467 136.218 23.8672 124.844C23.2089 124.637 23.2089 124.637 22.5374 124.426C20.3995 123.675 19.3754 122.286 18.3594 120.254C18.3151 119.337 18.2998 118.418 18.302 117.5C18.3002 116.761 18.3002 116.761 18.2984 116.008C18.3594 114.746 18.3594 114.746 18.8184 113.828C18.3984 113.839 18.3984 113.839 17.97 113.85C16.6942 113.879 15.4185 113.896 14.1425 113.914C13.702 113.926 13.2615 113.937 12.8076 113.949C8.70907 113.992 8.70907 113.991 6.88477 112.451C5.65947 110.832 5.1703 109.427 5.04883 107.402C5.49079 104.883 6.22747 103.466 8.26172 101.894C9.7821 101.521 9.7821 101.521 11.0156 101.435C10.9778 100.924 10.9399 100.413 10.9009 99.8863C10.923 95.7022 13.158 91.9332 16.0645 89.0428C18.5533 87.1147 20.7031 85.7426 23.8672 85.3709C23.9068 85.065 23.9465 84.7591 23.9873 84.444C24.3645 81.9698 24.9057 79.905 26.0187 77.6542C26.9598 75.7001 27.3305 74.6475 26.6211 72.5193C24.7413 66.061 24.8494 58.8052 27.998 52.783C31.5325 46.8512 36.3975 42.796 43.037 40.7849C45.1641 40.289 47.2491 40.2145 49.4269 40.2183C50.0272 40.2184 50.0272 40.2184 50.6397 40.2185C54.5433 40.287 58.198 40.9404 61.5039 43.1443C62.9542 42.9779 63.9666 42.3622 65.1686 41.5648C65.6931 41.2224 65.6931 41.2224 66.2281 40.8732C66.6003 40.6287 66.9725 40.3842 67.356 40.1323C71.2557 37.6281 75.1739 35.3987 79.4043 33.5057C79.7476 33.352 80.0909 33.1983 80.4446 33.04C93.8602 27.1433 107.127 25.4085 121.631 25.7029C121.656 25.3121 121.656 25.3121 121.682 24.9133C122.093 20.0494 124.336 15.5254 127.983 12.2436C136.04 5.99316 146.656 5.14671 155.11 11.1893ZM53.2422 183.594C53.2405 183.997 53.2388 184.401 53.2371 184.817C53.2197 188.639 53.1935 192.46 53.1578 196.282C53.1397 198.246 53.1249 200.211 53.1178 202.175C53.1108 204.074 53.0949 205.972 53.0731 207.871C53.0664 208.592 53.0627 209.314 53.0623 210.035C53.0563 215.604 52.252 219.273 49.1113 223.984C54.1097 223.984 59.108 223.984 64.2578 223.984C64.8484 222.212 65.354 220.599 65.7507 218.798C65.8532 218.335 65.9557 217.873 66.0613 217.396C66.1685 216.904 66.2756 216.412 66.386 215.905C66.4978 215.394 66.6097 214.883 66.7249 214.356C66.9599 213.278 67.194 212.2 67.4273 211.122C67.7859 209.471 68.1504 207.82 68.5151 206.17C68.7428 205.122 68.9703 204.073 69.1973 203.025C69.3622 202.284 69.3622 202.284 69.5304 201.528C69.6285 201.069 69.7267 200.609 69.8278 200.136C69.9597 199.53 69.9597 199.53 70.0943 198.913C70.2324 197.757 70.2032 197.063 69.7656 195.986C68.7161 195.19 67.6974 194.495 66.5814 193.806C65.9481 193.399 65.3158 192.991 64.6845 192.581C64.3749 192.381 64.0653 192.18 63.7464 191.973C60.4354 189.767 57.5042 187.061 54.5887 184.368C53.8399 183.543 53.8399 183.543 53.2422 183.594ZM73.8965 198.74C73.1748 202.04 72.4561 205.34 71.7394 208.64C71.4952 209.763 71.2503 210.886 71.0047 212.009C70.6521 213.622 70.3018 215.235 69.9521 216.848C69.8417 217.351 69.7312 217.854 69.6174 218.371C69.5163 218.84 69.4153 219.308 69.3111 219.791C69.2214 220.203 69.1317 220.615 69.0393 221.039C68.7956 222.262 68.7956 222.262 68.8477 223.984C72.1799 223.984 75.5121 223.984 78.9453 223.984C78.9453 216.411 78.9453 208.838 78.9453 201.035C75.4683 198.666 75.4683 198.666 73.8965 198.74ZM82.6172 202.871C82.6172 209.838 82.6172 216.806 82.6172 223.984C89.2816 223.984 95.9461 223.984 102.812 223.984C102.964 222.621 103.115 221.258 103.271 219.853C103.931 218.505 103.931 218.505 105.107 217.558C106.622 217.107 108.131 216.841 109.697 216.64C109.552 216.322 109.406 216.003 109.256 215.674C108.736 214.225 108.593 212.981 108.492 211.448C108.458 210.958 108.424 210.467 108.388 209.962C108.366 209.591 108.343 209.22 108.32 208.838C108.03 208.799 107.74 208.76 107.442 208.72C100.431 207.756 93.7685 206.302 87.0239 204.159C85.5622 203.706 84.0887 203.291 82.6172 202.871Z" fill="#363267"/>
<path d="M79.4044 121.172C90.9157 121.172 102.427 121.172 114.287 121.172C114.893 122.535 115.499 123.898 116.123 125.303C118.619 127.405 120.508 128.227 123.705 128.186C126.226 127.9 128.287 126.89 130.093 125.131C130.984 123.732 130.984 123.732 131.729 121.172C139.605 121.172 147.481 121.172 155.596 121.172C157.726 125.431 159.501 129.047 160.645 133.564C160.748 133.973 160.852 134.381 160.958 134.802C163.365 145.92 160.347 157.264 154.78 166.896C154.621 167.139 154.461 167.381 154.297 167.63C153.901 168.233 153.533 168.854 153.181 169.483C152.078 171.22 151.234 172.377 149.21 172.969C147.522 173.127 145.876 173.152 144.181 173.134C143.536 173.142 142.891 173.152 142.246 173.163C140.501 173.188 138.756 173.186 137.011 173.178C135.551 173.174 134.091 173.182 132.631 173.191C129.185 173.21 125.739 173.208 122.293 173.192C118.745 173.177 115.198 173.196 111.65 173.233C108.598 173.263 105.545 173.272 102.493 173.264C100.672 173.26 98.8525 173.263 97.0321 173.287C95.3187 173.308 93.6074 173.302 91.8942 173.277C90.9714 173.269 90.0485 173.289 89.1259 173.309C86.5856 173.248 85.066 173.158 83.1747 171.368C82.0867 170.018 81.1928 168.57 80.3224 167.07C80.1179 166.752 79.9134 166.433 79.7028 166.105C73.9328 156.943 71.9063 144.928 74.2121 134.396C75.3289 129.645 76.9777 125.419 79.4044 121.172Z" fill="#FE5948"/>
<path d="M169.365 176.25C181.179 176.25 192.994 176.25 205.166 176.25C209.399 186.403 209.399 186.403 211.205 190.754C212.83 194.666 214.463 198.573 216.138 202.463C216.874 204.173 217.603 205.885 218.331 207.598C218.675 208.4 219.021 209.202 219.372 210.001C219.859 211.116 220.335 212.234 220.809 213.354C220.953 213.675 221.097 213.995 221.245 214.325C222.209 216.65 222.434 218.788 221.689 221.23C220.565 222.65 219.278 223.411 217.559 223.984C216.906 224.025 216.252 224.04 215.598 224.04C214.999 224.041 214.999 224.041 214.387 224.041C213.95 224.04 213.513 224.038 213.062 224.036C212.601 224.037 212.14 224.037 211.665 224.037C210.137 224.036 208.61 224.033 207.083 224.029C206.025 224.028 204.967 224.028 203.909 224.027C201.122 224.025 198.336 224.021 195.549 224.016C192.706 224.011 189.864 224.009 187.021 224.007C181.442 224.002 175.862 223.994 170.283 223.984C170.131 223.298 170.131 223.298 169.976 222.597C169.59 220.856 169.203 219.115 168.817 217.374C168.651 216.628 168.486 215.883 168.321 215.137C166.774 208.159 165.187 201.19 163.583 194.224C162.784 187.943 167.246 181.372 169.365 176.25Z" fill="#FEDB7B"/>
<path d="M121.631 25.7029C121.479 26.1573 121.328 26.6117 121.172 27.0799C120.252 27.5191 120.252 27.5191 119.078 27.9118C114.908 29.4939 112.245 31.8448 110.156 35.8006C109.361 37.684 108.809 39.4049 108.693 41.4518C108.32 42.6853 108.32 42.6853 107.526 43.1802C106.867 43.4829 106.205 43.7811 105.541 44.0748C104.17 44.7607 103.774 45.3717 103.271 46.8162C103.308 47.5818 103.357 48.3468 103.415 49.1111C103.46 50.3231 103.46 50.3231 103.271 51.406C102.425 52.2102 101.576 52.6551 100.539 53.1864C99.033 54.0113 98.4652 54.9056 97.7637 56.4549C97.4079 58.7263 97.4951 60.4754 98.4808 62.5651C99.5533 63.9066 99.5533 63.9066 101.256 64.5762C102.539 65.4864 102.785 65.9557 103.095 67.5232C103.186 69.4386 103.174 71.3296 103.126 73.2454C103.12 73.9522 103.116 74.659 103.112 75.3657C103.1 77.2216 103.069 79.0766 103.033 80.9321C103 82.8272 102.986 84.7225 102.969 86.6178C102.935 90.3334 102.88 94.0483 102.812 97.7635C102.574 97.8675 102.336 97.9715 102.091 98.0787C101.001 98.5553 99.9132 99.0343 98.8251 99.5133C98.4503 99.6769 98.0754 99.8405 97.6893 100.009C96.1369 100.694 94.6599 101.369 93.2073 102.251C92.2559 102.812 92.2559 102.812 91.1174 102.699C90.7357 102.585 90.3541 102.471 89.9609 102.353C89.353 102.232 89.353 102.232 88.7328 102.108C87.6122 101.884 86.4917 101.659 85.3711 101.435C85.3871 100.854 85.403 100.272 85.4195 99.6729C85.4324 98.893 85.445 98.1131 85.4572 97.3332C85.4687 96.9518 85.4802 96.5705 85.4921 96.1776C85.5274 93.1556 85.1895 90.1349 83.291 87.6714C82.305 85.6483 82.4155 83.7854 82.4187 81.5622C82.4117 80.8499 82.4117 80.8499 82.4046 80.1232C82.3907 78.5561 82.3865 76.9892 82.3823 75.422C82.3746 74.3345 82.3663 73.247 82.3573 72.1595C82.3355 69.299 82.3219 66.4385 82.3099 63.5779C82.2962 60.6582 82.2748 57.7385 82.2541 54.8188C82.2146 49.0914 82.1837 43.364 82.1582 37.6365C81.3981 37.4611 80.6323 37.3088 79.8633 37.1775C79.1423 37.8985 79.3292 38.625 79.3101 39.6267C79.3009 40.0494 79.2917 40.4721 79.2823 40.9076C79.2708 41.5967 79.2708 41.5967 79.2591 42.2999C79.2495 42.7678 79.24 43.2358 79.2302 43.718C79.2001 45.2192 79.1731 46.7205 79.1461 48.2218C79.1263 49.2369 79.1063 50.252 79.0861 51.2671C79.0368 53.7613 78.9903 56.2555 78.9453 58.7498C76.9763 58.7498 75.0072 58.7498 72.9785 58.7498C72.6661 57.9357 72.3537 57.1215 72.0319 56.2827C69.8367 51.073 66.6612 47.6653 62.4219 44.0623C64.2468 42.0646 66.2168 40.7138 68.5321 39.329C68.8979 39.109 69.2636 38.889 69.6405 38.6624C79.6376 32.7228 90.0465 28.9622 101.436 26.6209C102.026 26.4978 102.617 26.3747 103.225 26.2479C109.252 25.2365 115.538 25.6231 121.631 25.7029Z" fill="#34ACFE"/>
<path d="M150.547 12.8516C154.602 15.2527 157.131 18.64 158.873 22.9582C159.286 23.9828 159.286 23.9828 160.186 25.2441C161.454 25.0042 162.63 24.7353 163.858 24.3262C168.124 23.7987 171.326 24.6654 174.873 27.0801C177.569 29.4463 179.329 31.9891 179.574 35.6C179.692 40.1824 179.692 40.1824 178.966 42.2965C178.505 43.7294 178.585 44.4738 179.004 45.8984C179.485 45.9156 179.966 45.9328 180.462 45.9504C181.095 45.9806 181.728 46.0111 182.36 46.0419C182.677 46.0522 182.994 46.0626 183.321 46.0732C185.664 46.1978 185.664 46.1978 186.787 46.9939C187.483 48.0696 187.454 48.7764 187.266 50.0293C186.791 50.7771 186.791 50.7771 185.889 51.4062C184.658 51.5487 183.536 51.6102 182.305 51.6053C181.955 51.6077 181.604 51.6101 181.243 51.6126C180.503 51.6155 179.763 51.6149 179.022 51.611C177.891 51.6071 176.76 51.6203 175.629 51.6348C174.909 51.6356 174.189 51.6353 173.469 51.6339C173.132 51.6391 172.794 51.6443 172.446 51.6496C170.841 51.6278 169.978 51.524 168.687 50.5357C167.864 49.3986 167.822 48.9372 167.96 47.5623C168.048 45.5801 167.758 44.364 166.612 42.6855C164.343 41.2637 161.791 41.5805 159.239 41.9971C158.946 42.0728 158.652 42.1485 158.35 42.2266C156.566 40.3118 155.279 38.4883 154.047 36.1737C152.845 34.0583 151.92 32.7584 149.615 31.894C147.224 31.3012 145.663 31.4542 143.548 32.674C142.058 33.7132 141.073 34.505 140.449 36.2598C140.132 38.9634 140.152 41.3539 141.826 43.6035C142.684 44.2404 143.563 44.7764 144.491 45.3068C146.638 46.5675 148.933 48.1126 150.547 50.0293C150.547 50.4837 150.547 50.9381 150.547 51.4062C145.005 51.4381 139.464 51.4626 133.922 51.4776C131.349 51.4848 128.776 51.4945 126.203 51.5101C123.721 51.5251 121.239 51.5333 118.757 51.5369C117.809 51.5394 116.86 51.5444 115.912 51.5518C114.587 51.5618 113.262 51.5632 111.936 51.5626C111.542 51.5675 111.148 51.5725 110.742 51.5776C108.06 51.5635 108.06 51.5635 107.072 50.7791C106.485 50.0293 106.485 50.0293 106.312 48.8818C106.485 47.7344 106.485 47.7344 106.972 46.9312C108.267 46.0956 109.562 46.0665 111.074 45.8984C111.832 45.1413 111.626 44.1864 111.677 43.1445C112.053 38.8094 113.801 35.5038 117.041 32.5879C118.911 31.2844 120.807 30.3389 123.008 29.7479C123.462 29.6249 123.917 29.5018 124.385 29.375C124.998 28.1488 125.048 27.0065 125.217 25.6458C125.93 20.9787 127.795 17.9067 131.27 14.6875C137.308 10.3171 143.703 9.84218 150.547 12.8516Z" fill="#FDFDFD"/>
<path d="M136.777 55.0781C141.018 55.0781 145.259 55.0781 149.629 55.0781C150.083 56.1384 150.538 57.1986 151.006 58.291C152.19 59.2661 152.19 59.2661 153.76 59.668C154.653 59.5189 154.653 59.5189 155.564 59.3669C158.169 59.3495 159.574 60.8924 161.321 62.6093C162.093 63.3905 162.854 64.1814 163.615 64.9732C164.154 65.5183 164.694 66.0626 165.234 66.6061C166.649 68.0343 168.051 69.4747 169.451 70.9179C170.883 72.3889 172.328 73.8469 173.771 75.3066C175.87 77.4346 177.966 79.5654 180.049 81.709C180.469 82.1401 180.889 82.5712 181.321 83.0154C182.217 83.9941 182.217 83.9941 182.217 84.4531C181.768 84.4981 181.319 84.5431 180.856 84.5894C177.374 84.9865 174.274 85.4245 171.201 87.207C170.853 87.4058 170.505 87.6046 170.147 87.8094C165.707 90.5506 162.978 94.2824 161.104 99.1406C161.008 99.9514 160.93 100.765 160.874 101.579C160.711 102.696 160.711 102.696 160.186 103.73C158.629 104.769 157.08 105.509 155.357 106.223C153.825 106.914 152.72 107.674 151.465 108.779C149.84 108.055 148.557 107.065 147.162 105.968C142.495 102.395 137.649 100.039 132.188 97.7637C132.188 87.1611 132.188 76.5586 132.188 65.6348C133.096 65.1804 134.005 64.726 134.941 64.2578C136.635 62.3811 137.301 61.2848 137.294 58.7787C137.295 58.3769 137.296 57.9752 137.297 57.5613C137.281 56.3887 137.281 56.3887 136.777 55.0781Z" fill="#34ACFE"/>
<path d="M106.484 66.0938C113.755 66.0938 121.025 66.0938 128.516 66.0938C128.667 77.3021 128.819 88.5105 128.975 100.059C130.338 100.664 131.701 101.27 133.105 101.895C140.763 105.532 147.617 109.679 152.842 116.582C152.842 116.885 152.842 117.188 152.842 117.5C145.874 117.5 138.907 117.5 131.729 117.5C131.274 116.44 130.82 115.379 130.352 114.287C128.649 112.262 126.918 110.838 124.236 110.468C121.478 110.342 119.264 110.757 117.041 112.451C115.55 114.049 114.82 115.368 114.287 117.5C103.533 117.5 92.7791 117.5 81.6992 117.5C88.3531 108.628 96.0907 104.316 106.025 100.059C106.177 88.8502 106.328 77.6418 106.484 66.0938Z" fill="#E8F1FE"/>
<path d="M29.834 78.4863C30.137 78.4863 30.4399 78.4863 30.752 78.4863C31.2328 79.0122 31.6875 79.5622 32.129 80.1215C35.2798 83.7996 38.9988 85.8388 43.6036 87.207C43.8799 87.2952 44.1562 87.3833 44.4409 87.4742C50.6479 88.6665 56.4145 87.2385 61.963 84.4531C65.7277 82.9334 69.6984 82.1935 73.5864 83.6463C77.6894 85.636 77.6894 85.636 78.9454 87.207C79.111 88.2439 79.111 88.2439 79.1017 89.47C79.1016 89.9294 79.1015 90.3887 79.1014 90.862C79.0943 91.3569 79.0872 91.8518 79.0798 92.3616C79.0779 92.8691 79.076 93.3765 79.0739 93.8993C79.0662 95.5222 79.0489 97.1449 79.0314 98.7677C79.0245 99.867 79.0182 100.966 79.0126 102.066C78.9974 104.763 78.9744 107.459 78.9454 110.156C70.0524 110.188 61.1594 110.213 52.2664 110.228C48.1374 110.235 44.0084 110.244 39.8794 110.26C36.2813 110.274 32.6832 110.283 29.0851 110.286C27.1792 110.288 25.2734 110.292 23.3676 110.302C21.5747 110.311 19.782 110.314 17.9891 110.312C17.3302 110.312 16.6713 110.315 16.0124 110.32C15.1145 110.327 14.2165 110.325 13.3186 110.322C12.8155 110.323 12.3125 110.324 11.7942 110.326C10.5567 110.156 10.5567 110.156 9.70637 109.529C8.95181 108.455 8.9874 107.767 9.17975 106.484C9.66742 105.681 9.66742 105.681 10.5567 105.107C11.6228 104.924 12.6944 104.768 13.7696 104.648C14.5267 103.891 14.3214 102.936 14.372 101.895C14.7514 97.5172 16.5263 94.324 19.7364 91.3379C21.6905 89.8576 23.9225 89.111 26.2446 88.4065C27.0788 88.1944 27.0788 88.1944 27.5391 87.666C27.7702 86.0801 27.953 84.4906 28.138 82.8987C28.4619 81.2151 28.9977 79.9739 29.834 78.4863Z" fill="#FEFEFE"/>
<path d="M57.8318 113.828C64.7992 113.828 71.7666 113.828 78.9451 113.828C78.5172 115.968 78.1753 116.755 76.9944 118.475C70.4379 128.538 68.5971 141.176 70.7408 152.928C72.205 158.901 74.5195 165.486 78.3517 170.362C78.9451 171.201 78.9451 171.201 78.9451 172.578C76.2187 172.73 73.4924 172.881 70.6834 173.037C70.5319 173.794 70.3805 174.552 70.2244 175.332C71.3277 176.435 73.2635 176.078 74.8142 176.25C73.4511 182.914 72.0879 189.579 70.6834 196.445C66.562 194.797 62.8631 192.083 59.5185 189.174C58.3276 188.154 58.3276 188.154 56.9824 187.466C54.8427 186.082 53.5184 184.834 52.9616 182.335C52.5451 178.627 52.6461 174.897 52.7301 171.172C52.7618 169.525 52.7646 167.878 52.7706 166.231C52.7862 163.118 52.8276 160.005 52.8784 156.893C52.935 153.346 52.9626 149.8 52.9879 146.253C53.0405 138.963 53.1292 131.674 53.242 124.385C53.6745 124.182 54.107 123.979 54.5526 123.77C56.379 122.806 57.3725 121.632 58.2908 119.795C58.3348 119.041 58.3504 118.284 58.3482 117.529C58.3494 117.127 58.3505 116.725 58.3518 116.311C58.3359 115.139 58.3359 115.139 57.8318 113.828Z" fill="#34ACFE"/>
<path d="M187.725 89.502C188.728 90.2365 189.612 91.0168 190.505 91.8812C191.394 92.713 192.309 93.3572 193.318 94.0345C195.356 95.5284 196.304 97.3489 197.363 99.5997C197.638 100.139 197.912 100.679 198.195 101.235C198.465 101.789 198.465 101.789 198.74 102.354C200.008 102.114 201.185 101.845 202.412 101.436C206.678 100.908 209.88 101.775 213.428 104.19C216.124 106.556 217.883 109.099 218.129 112.709C218.247 117.292 218.247 117.292 217.521 119.406C217.059 120.839 217.14 121.583 217.559 123.008C218.04 123.025 218.521 123.042 219.016 123.06C219.649 123.09 220.282 123.121 220.915 123.151C221.232 123.162 221.549 123.172 221.875 123.183C224.218 123.307 224.218 123.307 225.342 124.103C226.037 125.179 226.008 125.886 225.82 127.139C225.073 128.14 224.67 128.479 223.424 128.681C223.027 128.678 222.631 128.675 222.223 128.672C221.772 128.672 221.322 128.672 220.858 128.672C220.374 128.665 219.889 128.658 219.389 128.65C218.892 128.648 218.395 128.646 217.882 128.644C216.292 128.637 214.702 128.619 213.112 128.602C212.035 128.595 210.958 128.589 209.88 128.583C207.238 128.568 204.596 128.545 201.953 128.516C202.408 128.213 202.862 127.91 203.33 127.598C206.066 125.502 206.066 125.502 207.156 122.38C207.197 119.747 207.008 118.159 205.166 116.123C203.173 114.569 201.884 114.057 199.362 114.05C198.765 114.044 198.168 114.038 197.552 114.032C196.906 114.035 196.26 114.039 195.613 114.043C194.945 114.042 194.276 114.04 193.607 114.038C192.209 114.035 190.811 114.039 189.413 114.048C187.626 114.058 185.839 114.052 184.052 114.041C182.672 114.035 181.292 114.037 179.913 114.042C179.254 114.043 178.595 114.041 177.936 114.037C177.014 114.032 176.091 114.041 175.169 114.05C174.645 114.051 174.121 114.053 173.582 114.054C171.25 114.426 169.831 115.608 168.275 117.328C167.264 119.429 167.163 121.174 167.529 123.467C168.62 125.732 170.004 126.759 172.119 128.057C172.119 128.208 172.119 128.36 172.119 128.516C169.09 128.516 166.061 128.516 162.939 128.516C162.229 126.84 162.229 126.84 161.505 125.131C159.472 120.441 156.997 116.416 153.76 112.451C154.991 109.771 157.077 108.568 159.727 107.402C160.304 107.242 160.881 107.081 161.476 106.915C161.959 106.773 162.442 106.631 162.939 106.484C163.553 105.258 163.602 104.116 163.771 102.755C164.484 98.0882 166.349 95.0161 169.824 91.797C175.104 87.9758 181.627 86.5214 187.725 89.502Z" fill="#FDFDFD"/>
<path d="M62.3788 48.3494C66.2062 51.3795 69.0188 56.2159 69.7656 61.045C70.1871 67.6843 68.8268 72.9103 64.6307 78.1135C61.1427 81.8946 56.1584 84.105 51.0799 84.6289C45.082 84.8114 39.7868 82.9692 35.2539 78.9777C31.0499 74.6221 29.2416 69.3963 29.2295 63.4679C29.2829 60.5439 29.9026 58.1659 31.2109 55.5372C31.4055 55.1414 31.6002 54.7456 31.8007 54.3378C34.7212 48.9768 39.2336 46.1247 44.9535 44.2258C51.3806 43.116 57.1125 44.6479 62.3788 48.3494Z" fill="#8CA0AB"/>
<path d="M27.5391 165.234C34.8094 165.234 42.0797 165.234 49.5704 165.234C49.644 177.554 49.644 177.554 49.66 182.817C49.671 186.403 49.6839 189.99 49.7089 193.577C49.7289 196.47 49.7398 199.363 49.7446 202.255C49.7479 203.357 49.7546 204.46 49.7645 205.562C49.7779 207.109 49.7796 208.655 49.7788 210.202C49.7887 210.882 49.7887 210.882 49.7988 211.575C49.7782 215.059 49.0163 217.868 46.7483 220.569C43.5659 223.254 41.2545 224.23 37.0577 224.122C33.5046 223.732 31.5193 221.717 29.2209 219.126C27.3198 216.368 27.4117 213.58 27.4349 210.359C27.4348 209.87 27.4346 209.382 27.4345 208.879C27.4351 207.269 27.4423 205.66 27.4495 204.051C27.4512 202.933 27.4525 201.815 27.4534 200.698C27.4569 197.759 27.4659 194.821 27.4761 191.883C27.4871 188.356 27.4913 184.828 27.4967 181.301C27.5056 175.945 27.5232 170.59 27.5391 165.234Z" fill="#36C7E2"/>
<path d="M176.25 128.516C183.52 128.516 190.791 128.516 198.281 128.516C198.298 130.605 198.316 132.695 198.333 134.848C198.347 136.183 198.361 137.517 198.377 138.852C198.402 140.964 198.425 143.076 198.44 145.188C198.452 146.893 198.471 148.598 198.494 150.303C198.501 150.95 198.507 151.596 198.51 152.242C198.538 157.95 199.515 162.833 201.81 168.046C203.33 171.558 203.33 171.558 203.33 172.578C192.728 172.578 182.125 172.578 171.201 172.578C172.168 169.679 173.18 166.888 174.38 164.09C175.586 161.177 175.843 158.375 175.885 155.246C175.894 154.649 175.904 154.052 175.913 153.437C175.921 152.795 175.929 152.152 175.936 151.51C175.946 150.845 175.955 150.181 175.965 149.517C175.99 147.778 176.013 146.038 176.035 144.299C176.063 142.207 176.093 140.116 176.123 138.024C176.167 134.855 176.208 131.685 176.25 128.516Z" fill="#FDFDFE"/>
<path d="M27.5391 124.844C34.8094 124.844 42.0797 124.844 49.5703 124.844C49.5703 136.961 49.5703 149.078 49.5703 161.562C42.3 161.562 35.0297 161.562 27.5391 161.562C27.5391 149.445 27.5391 137.328 27.5391 124.844Z" fill="#E8F1FE"/>
<path d="M156.514 176.25C156.922 178.02 157.322 179.791 157.716 181.564C157.916 182.461 158.123 183.356 158.329 184.251C158.455 184.82 158.581 185.39 158.71 185.977C158.887 186.759 158.887 186.759 159.067 187.557C159.509 190.954 158.371 193.874 157.174 196.99C157.031 197.398 156.889 197.806 156.743 198.227C155.978 200.21 155.379 201.59 153.444 202.595C152.791 202.856 152.131 203.101 151.465 203.33C151.131 203.462 150.796 203.593 150.451 203.728C145.666 205.567 140.764 206.875 135.745 207.891C135.27 207.988 134.795 208.085 134.306 208.185C131.562 208.71 129.014 208.934 126.221 208.838C126.073 208.394 126.073 208.394 125.922 207.941C124.6 204.081 122.217 200.703 119.336 197.822C119.27 196.638 119.25 195.505 119.279 194.323C119.283 193.998 119.287 193.674 119.291 193.34C119.302 192.539 119.319 191.738 119.336 190.938C120.186 190.836 120.186 190.836 121.054 190.733C132.303 189.289 141.478 185.489 150.088 178.086C150.356 177.733 150.624 177.381 150.9 177.017C152.581 175.757 154.485 176.111 156.514 176.25Z" fill="#34ACFE"/>
<path d="M82.6172 176.25C83.6774 177.159 84.7377 178.068 85.8301 179.004C94.7017 186.146 104.341 189.916 115.664 190.938C116.156 196.936 116.156 196.936 115.046 198.936C114.498 199.517 113.93 200.08 113.346 200.625C111.117 202.791 109.565 205.851 108.779 208.838C105.481 208.951 102.484 208.55 99.2554 207.891C98.7592 207.791 98.2631 207.692 97.7519 207.589C92.6812 206.519 87.2804 205.203 82.6172 202.871C82.6172 194.086 82.6172 185.301 82.6172 176.25Z" fill="#34ACFE"/>
<path d="M119.336 66.0938C122.365 66.0938 125.395 66.0938 128.516 66.0938C128.743 82.9063 128.743 82.9063 128.975 100.059C130.338 100.664 131.701 101.27 133.105 101.895C140.763 105.532 147.617 109.679 152.842 116.582C152.842 116.885 152.842 117.188 152.842 117.5C150.997 117.607 149.153 117.672 147.305 117.729C146.785 117.76 146.265 117.791 145.728 117.823C141.913 117.912 141.913 117.912 140.369 116.747C139.564 115.81 138.861 114.841 138.154 113.828C133.144 109.047 127.579 105.837 121.02 103.689C119.795 103.271 119.795 103.271 119.336 102.812C119.292 101.667 119.278 100.535 119.284 99.3897C119.284 99.0315 119.284 98.6733 119.284 98.3043C119.284 97.1146 119.288 95.9251 119.291 94.7355C119.292 93.9129 119.293 93.0903 119.293 92.2677C119.295 90.0983 119.299 87.9289 119.304 85.7596C119.309 83.5476 119.311 81.3357 119.314 79.1237C119.318 74.7804 119.327 70.4371 119.336 66.0938Z" fill="#B8D6FE"/>
<path d="M33.0469 165.234C36.0762 165.234 39.1055 165.234 42.2266 165.234C42.2681 171.746 42.3017 178.257 42.3217 184.769C42.3313 187.793 42.3442 190.816 42.3651 193.84C42.385 196.76 42.396 199.679 42.4008 202.598C42.4041 203.711 42.4107 204.823 42.4207 205.936C42.4341 207.497 42.4358 209.058 42.435 210.619C42.4416 211.076 42.4482 211.534 42.455 212.005C42.4295 216.361 41.0269 219.432 38.0957 222.607C36.5701 221.974 35.8939 221.355 35.0549 219.94C34.8692 219.634 34.6834 219.328 34.492 219.013C33.2966 216.756 32.9353 215.06 32.9572 212.486C32.9585 212.184 32.9598 211.882 32.9612 211.57C32.9663 210.611 32.9778 209.653 32.9895 208.694C32.9941 208.042 32.9983 207.389 33.0021 206.736C33.0121 205.141 33.028 203.547 33.0469 201.953C32.441 201.65 31.8352 201.347 31.2109 201.035C31.3624 200.278 31.5139 199.521 31.6699 198.74C32.3515 198.513 32.3515 198.513 33.0469 198.281C33.0469 197.07 33.0469 195.858 33.0469 194.609C32.441 194.306 31.8352 194.004 31.2109 193.691C31.3624 192.934 31.5139 192.177 31.6699 191.396C32.3515 191.169 32.3515 191.169 33.0469 190.938C33.0469 189.726 33.0469 188.514 33.0469 187.266C32.441 186.963 31.8352 186.66 31.2109 186.348C31.3624 185.59 31.5139 184.833 31.6699 184.053C32.3515 183.826 32.3515 183.826 33.0469 183.594C33.0469 182.382 33.0469 181.17 33.0469 179.922C32.441 179.619 31.8352 179.316 31.2109 179.004C31.3624 178.247 31.5139 177.489 31.6699 176.709C32.1243 176.558 32.5787 176.406 33.0469 176.25C33.0469 175.038 33.0469 173.827 33.0469 172.578C32.441 172.275 31.8352 171.972 31.2109 171.66C31.3624 170.903 31.5139 170.146 31.6699 169.365C32.1243 169.214 32.5787 169.062 33.0469 168.906C33.0469 167.695 33.0469 166.483 33.0469 165.234Z" fill="#31DCF3"/>
<path d="M56.4548 53.2422C59.6204 55.4671 61.2124 57.8761 62.4216 61.5039C62.8745 65.9661 61.9455 69.5721 59.1801 73.122C56.5356 75.8958 53.3211 77.2172 49.5127 77.3676C45.6331 77.1771 42.6562 75.6703 39.8382 73.027C37.3873 70.1551 36.3478 66.915 36.5607 63.1678C37.0913 59.1161 38.6986 56.4308 41.7673 53.7012C46.2923 50.7309 51.7973 50.3505 56.4548 53.2422Z" fill="#FFF8E4"/>
<path d="M154.219 16.0645C157.074 18.5932 158.534 21.8537 160.186 25.2441C161.454 25.0042 162.63 24.7353 163.857 24.3262C168.124 23.7987 171.325 24.6654 174.873 27.0801C177.569 29.4463 179.329 31.9891 179.574 35.6C179.692 40.1824 179.692 40.1824 178.966 42.2965C178.504 43.7294 178.585 44.4738 179.004 45.8984C179.485 45.9156 179.966 45.9328 180.462 45.9504C181.094 45.9806 181.727 46.0111 182.36 46.0419C182.677 46.0522 182.994 46.0626 183.32 46.0732C185.663 46.1978 185.663 46.1978 186.787 46.9939C187.482 48.0696 187.454 48.7764 187.266 50.0293C186.79 50.7771 186.79 50.7771 185.889 51.4062C184.658 51.5487 183.536 51.6102 182.305 51.6053C181.954 51.6077 181.604 51.6101 181.243 51.6126C180.503 51.6155 179.763 51.6149 179.022 51.611C177.891 51.6071 176.76 51.6203 175.629 51.6348C174.909 51.6356 174.189 51.6353 173.469 51.6339C173.132 51.6391 172.794 51.6443 172.446 51.6496C170.841 51.6278 169.978 51.524 168.687 50.5357C167.864 49.3986 167.822 48.9373 167.96 47.5623C168.048 45.58 167.758 44.364 166.611 42.6855C165.27 41.8413 164.254 41.6523 162.681 41.6815C162.33 41.6845 161.98 41.6874 161.618 41.6905C160.558 41.7352 160.558 41.7352 159.268 42.2266C159.088 41.6586 158.908 41.0906 158.723 40.5054C158.042 38.6524 157.166 37.917 155.596 36.7188C154.869 35.0839 155.136 34.4263 155.768 32.7313C155.896 32.4142 156.023 32.0971 156.155 31.7703C157.715 27.3394 156.762 22.6999 154.821 18.5315C154.622 18.1718 154.424 17.812 154.219 17.4414C154.219 16.987 154.219 16.5326 154.219 16.0645Z" fill="#E7EFFD"/>
<path d="M189.102 128.516C192.131 128.516 195.16 128.516 198.281 128.516C198.288 129.391 198.295 130.265 198.302 131.167C198.325 134.078 198.355 136.989 198.389 139.9C198.41 141.662 198.428 143.425 198.44 145.188C198.452 146.893 198.471 148.598 198.494 150.303C198.501 150.95 198.507 151.596 198.51 152.242C198.538 157.95 199.515 162.833 201.81 168.046C203.33 171.558 203.33 171.558 203.33 172.578C200.301 172.578 197.271 172.578 194.15 172.578C193.468 170.877 192.79 169.175 192.114 167.472C191.92 166.991 191.727 166.511 191.528 166.016C191.251 165.315 191.251 165.315 190.968 164.6C190.797 164.172 190.627 163.744 190.451 163.303C189.999 161.961 189.757 160.668 189.561 159.268C188.879 159.495 188.879 159.495 188.184 159.727C187.257 159.781 186.329 159.807 185.401 159.813C184.913 159.819 184.425 159.826 183.922 159.832C182.676 159.727 182.676 159.727 181.758 158.809C182.013 156.718 182.013 156.718 182.676 156.055C183.583 156.009 184.492 155.995 185.401 155.997C186.146 155.996 186.146 155.996 186.905 155.994C188.184 156.055 188.184 156.055 189.102 156.514C189.102 154.999 189.102 153.484 189.102 151.924C188.647 152.151 188.647 152.151 188.184 152.383C187.267 152.439 186.348 152.463 185.43 152.469C184.937 152.475 184.445 152.482 183.938 152.489C182.676 152.383 182.676 152.383 181.758 151.465C182.013 149.374 182.013 149.374 182.676 148.711C183.583 148.665 184.492 148.651 185.401 148.654C186.146 148.652 186.146 148.652 186.905 148.65C188.184 148.711 188.184 148.711 189.102 149.17C189.102 147.655 189.102 146.141 189.102 144.58C188.647 144.807 188.647 144.807 188.184 145.039C187.267 145.095 186.348 145.12 185.43 145.125C184.937 145.132 184.445 145.138 183.938 145.145C182.676 145.039 182.676 145.039 181.758 144.121C182.013 142.03 182.013 142.03 182.676 141.367C183.583 141.322 184.492 141.308 185.401 141.31C186.146 141.308 186.146 141.308 186.905 141.306C188.184 141.367 188.184 141.367 189.102 141.826C189.102 140.312 189.102 138.797 189.102 137.236C188.799 137.388 188.496 137.539 188.184 137.695C187.267 137.751 186.348 137.776 185.43 137.781C184.937 137.788 184.445 137.794 183.938 137.801C182.676 137.695 182.676 137.695 181.758 136.777C182.013 134.686 182.013 134.686 182.676 134.023C183.583 133.978 184.492 133.964 185.401 133.966C186.146 133.964 186.146 133.964 186.905 133.962C188.184 134.023 188.184 134.023 189.102 134.482C189.102 132.513 189.102 130.544 189.102 128.516Z" fill="#B8D6FE"/>
<path d="M77.5684 85.8302C78.5591 86.6133 78.909 86.9798 79.1109 88.2439C79.1078 88.6486 79.1048 89.0532 79.1016 89.4701C79.1015 90.1591 79.1015 90.1591 79.1013 90.8621C79.0942 91.357 79.0871 91.8519 79.0798 92.3617C79.0778 92.8692 79.0759 93.3766 79.0739 93.8994C79.0662 95.5223 79.0489 97.145 79.0314 98.7678C79.0245 99.8671 79.0182 100.966 79.0125 102.066C78.9985 104.763 78.9716 107.459 78.9453 110.156C71.8265 110.156 64.7076 110.156 57.373 110.156C58.509 109.02 58.509 109.02 59.668 107.861C61.7496 105.105 61.9779 102.549 61.5039 99.1407C60.6984 97.5298 59.9386 96.6282 58.6066 95.4402C57.832 94.5509 57.832 94.5509 57.8894 93.4321C58.291 92.2559 58.291 92.2559 58.7787 91.2232C59.3916 89.4254 59.2828 87.7121 59.209 85.8302C65.5031 82.3519 71.3928 81.8581 77.5684 85.8302Z" fill="#E8F0FE"/>
<path d="M193.232 94.0918C195.478 95.589 196.297 97.2201 197.363 99.5996C197.628 100.13 197.893 100.66 198.167 101.206C198.356 101.585 198.545 101.963 198.74 102.354C200.008 102.114 201.185 101.845 202.412 101.436C206.678 100.908 209.88 101.775 213.428 104.189C216.124 106.556 217.883 109.099 218.129 112.709C218.247 117.292 218.247 117.292 217.521 119.406C217.059 120.839 217.14 121.583 217.559 123.008C218.04 123.025 218.521 123.042 219.016 123.06C219.649 123.09 220.282 123.12 220.915 123.151C221.232 123.162 221.549 123.172 221.875 123.183C224.218 123.307 224.218 123.307 225.342 124.103C226.037 125.179 226.008 125.886 225.82 127.139C225.073 128.14 224.67 128.479 223.424 128.681C223.027 128.678 222.631 128.675 222.223 128.672C221.772 128.672 221.322 128.672 220.858 128.672C220.374 128.665 219.889 128.657 219.389 128.65C218.892 128.648 218.395 128.646 217.882 128.644C216.292 128.636 214.702 128.619 213.112 128.602C212.035 128.595 210.958 128.588 209.88 128.583C207.238 128.568 204.596 128.545 201.953 128.516C202.635 128.061 202.635 128.061 203.33 127.598C206.066 125.502 206.066 125.502 207.156 122.38C207.197 119.747 207.008 118.159 205.166 116.123C202.835 114.197 201.011 113.994 198.109 113.943C197.728 113.929 197.346 113.916 196.953 113.902C196.019 113.869 195.085 113.848 194.15 113.828C193.657 111.886 193.864 111.108 194.71 109.299C196.173 105.306 195.49 101.223 194.15 97.3047C193.899 96.8148 193.899 96.8148 193.643 96.315C193.232 95.4688 193.232 95.4688 193.232 94.0918Z" fill="#E7EFFD"/>
<path d="M144.58 121.172C148.215 121.172 151.85 121.172 155.596 121.172C157.738 125.25 159.508 129.077 160.645 133.564C160.748 133.973 160.852 134.381 160.958 134.802C163.509 146.586 160.027 158.492 153.76 168.447C153.394 169.1 153.394 169.1 153.021 169.765C152.267 170.962 151.704 171.761 150.547 172.578C148.511 172.91 146.622 172.827 144.58 172.578C144.946 171.863 144.946 171.863 145.319 171.133C151.778 158.419 154.105 145.813 149.628 131.967C148.487 128.599 147.08 125.623 145.186 122.606C144.58 121.631 144.58 121.631 144.58 121.172Z" fill="#E74A3A"/>
<path d="M88.584 176.25C107.669 176.25 126.753 176.25 146.416 176.25C140.383 182.283 132.596 185.139 124.385 186.807C124.019 186.896 123.653 186.985 123.277 187.077C112.146 188.843 100.513 185.31 91.363 178.988C90.4038 178.256 89.4654 177.533 88.584 176.709C88.584 176.558 88.584 176.406 88.584 176.25Z" fill="#FD5948"/>
<path d="M195.986 176.25C199.016 176.25 202.045 176.25 205.166 176.25C205.738 177.622 206.31 178.994 206.9 180.408C207.097 180.882 207.295 181.356 207.499 181.844C208.505 184.258 209.51 186.672 210.513 189.087C212.368 193.555 214.225 198.02 216.138 202.463C216.874 204.173 217.603 205.885 218.331 207.598C218.675 208.4 219.021 209.202 219.372 210.001C219.859 211.116 220.335 212.234 220.809 213.354C220.953 213.675 221.097 213.995 221.245 214.325C222.209 216.65 222.434 218.788 221.689 221.23C220.565 222.65 219.278 223.411 217.559 223.984C216.378 224.017 215.21 224.027 214.03 224.013C213.708 224.011 213.386 224.009 213.054 224.007C212.261 224.001 211.467 223.993 210.674 223.984C210.873 223.643 210.873 223.643 211.075 223.294C211.246 222.982 211.416 222.67 211.592 222.349C211.762 222.046 211.933 221.742 212.108 221.429C213.065 218.768 212.413 216.442 211.413 213.899C211.291 213.588 211.17 213.278 211.045 212.957C209.391 208.758 207.634 204.599 205.886 200.439C204.863 198.005 203.845 195.57 202.828 193.134C202.631 192.661 202.433 192.189 202.23 191.702C200.091 186.574 198.017 181.422 195.986 176.25Z" fill="#FEB160"/>
<path d="M165.234 51.8652C167.354 53.6399 169.375 55.4768 171.331 57.4291C171.6 57.6952 171.868 57.9613 172.144 58.2355C173.022 59.1062 173.897 59.9786 174.773 60.8513C175.075 61.1519 175.377 61.4526 175.688 61.7623C177.285 63.3526 178.881 64.9441 180.475 66.5368C182.112 68.1716 183.754 69.802 185.396 71.4314C186.668 72.6947 187.937 73.9611 189.205 75.2283C189.808 75.8304 190.413 76.4313 191.019 77.031C194.25 80.2319 197.211 83.344 199.658 87.207C200.011 87.7112 200.366 88.2129 200.727 88.7113C201.32 89.533 201.913 90.3554 202.505 91.1783C203.277 92.2472 203.277 92.2472 204.135 93.0125C204.324 93.2172 204.513 93.4219 204.707 93.6328C204.564 94.8663 204.564 94.8663 204.248 95.9277C203.244 96.2684 203.244 96.2684 201.953 96.3867C200.834 95.6731 200.834 95.6731 199.658 94.6082C197.909 93.0626 196.176 91.7503 194.206 90.4891C190.224 87.8171 186.979 84.3967 183.628 80.9946C182.947 80.3106 182.266 79.6271 181.585 78.9439C179.81 77.162 178.041 75.3746 176.272 73.5859C174.46 71.7548 172.643 69.929 170.826 68.1027C167.274 64.5313 163.728 60.9541 160.186 57.373C160.616 56.8651 161.048 56.3579 161.48 55.8509C161.84 55.427 161.84 55.427 162.208 54.9946C163.17 53.8974 164.188 52.8811 165.234 51.8652Z" fill="#F9FAFB"/>
<path d="M164.316 132.188C167.043 132.188 169.769 132.188 172.578 132.188C172.624 135.739 172.657 139.29 172.679 142.841C172.688 144.047 172.701 145.253 172.717 146.459C172.739 148.201 172.749 149.943 172.757 151.685C172.767 152.217 172.776 152.748 172.786 153.296C172.788 159.045 170.799 163.975 168.562 169.193C168.364 169.661 168.166 170.129 167.963 170.611C167.559 171.566 167.153 172.521 166.747 173.475C165.999 175.232 165.26 176.993 164.52 178.754C163.842 180.368 163.161 181.981 162.48 183.594C162.178 183.442 161.875 183.291 161.563 183.135C161.27 181.973 161.027 180.841 160.817 179.664C160.755 179.337 160.694 179.011 160.63 178.675C160.478 177.867 160.332 177.059 160.186 176.25C162.23 176.023 162.23 176.023 164.316 175.791C164.492 175.031 164.644 174.265 164.775 173.496C164.064 172.785 163.353 172.938 162.364 172.892C161.972 172.873 161.58 172.853 161.176 172.834C160.764 172.816 160.352 172.798 159.927 172.779C159.514 172.759 159.1 172.739 158.673 172.719C157.647 172.67 156.622 172.623 155.596 172.578C156.269 171.207 157.006 169.892 157.783 168.576C162.526 160.499 164.863 152.433 164.833 143.06C164.835 142.522 164.836 141.983 164.838 141.429C164.835 138.314 164.684 135.281 164.316 132.188Z" fill="#34ACFE"/>
<path d="M106.484 66.0938C108.302 66.0938 110.12 66.0938 111.992 66.0938C111.992 78.2109 111.992 90.3281 111.992 102.812C110.175 103.57 108.357 104.327 106.484 105.107C105.289 105.683 104.121 106.258 102.956 106.886C102.665 107.043 102.374 107.2 102.073 107.361C99.6731 108.684 97.5351 110.187 95.4688 111.992C95.0605 112.345 94.6523 112.699 94.2316 113.063C91.8896 115.096 91.8896 115.096 89.9609 117.5C89.0983 117.656 89.0983 117.656 88.064 117.634C87.6943 117.63 87.3245 117.626 86.9435 117.621C86.5571 117.609 86.1708 117.598 85.7727 117.586C85.1878 117.577 85.1878 117.577 84.5912 117.567C83.6271 117.551 82.6631 117.526 81.6992 117.5C87.9468 108.562 96.3023 104.226 106.025 100.059C106.177 88.8502 106.328 77.6418 106.484 66.0938Z" fill="#FDFDFE"/>
<path d="M58.6585 50.2428C62.3823 52.8422 65.2513 56.493 66.0937 61.0451C66.4977 66.8487 65.394 71.1582 61.7208 75.677C58.8274 78.829 55.2041 80.5511 50.9561 80.8908C45.4585 81.018 41.4703 79.3918 37.3784 75.7039C34.9318 73.1867 33.2665 69.6087 33.0468 66.0939C33.0184 65.7223 32.99 65.3508 32.9607 64.9679C32.7497 60.2453 34.3691 56.5108 37.3874 52.9017C42.9596 46.8205 51.6957 46.0748 58.6585 50.2428ZM39.3865 56.0823C37.1174 58.8874 36.3865 62.1084 36.5017 65.6797C37.1214 69.485 39.1688 72.7734 42.2014 75.1194C45.3564 77.1708 48.5922 77.6716 52.3241 77.1095C56.3194 75.7455 59.1417 73.7948 61.156 70.0957C62.6097 66.9276 63.0468 63.7896 62.1188 60.396C60.6418 56.6749 58.1923 53.818 54.5258 52.1827C48.9582 50.0404 43.3881 51.8251 39.3865 56.0823Z" fill="#383467"/>
<path d="M27.5391 165.234C29.3567 165.234 31.1743 165.234 33.0469 165.234C33.1814 168.013 33.1814 168.013 33.0469 168.906C32.5926 169.209 32.1382 169.512 31.67 169.824C31.8281 170.959 31.8281 170.959 32.129 172.119C32.4319 172.271 32.7348 172.422 33.0469 172.578C33.1814 175.357 33.1814 175.357 33.0469 176.25C32.5926 176.553 32.1382 176.856 31.67 177.168C31.8281 178.303 31.8281 178.303 32.129 179.463C32.4319 179.614 32.7348 179.766 33.0469 179.922C33.1814 182.701 33.1814 182.701 33.0469 183.594C32.5926 183.897 32.1382 184.2 31.67 184.512C31.8281 185.647 31.8281 185.647 32.129 186.807C32.4319 186.958 32.7348 187.11 33.0469 187.266C33.1814 190.045 33.1814 190.045 33.0469 190.938C32.5926 191.24 32.1382 191.543 31.67 191.855C31.8281 192.99 31.8281 192.99 32.129 194.15C32.4319 194.302 32.7348 194.453 33.0469 194.609C33.1814 197.388 33.1814 197.388 33.0469 198.281C32.3654 198.736 32.3654 198.736 31.67 199.199C31.8281 200.334 31.8281 200.334 32.129 201.494C32.4319 201.646 32.7348 201.797 33.0469 201.953C33.0464 202.341 33.0459 202.73 33.0454 203.13C33.05 204.598 33.067 206.065 33.0918 207.534C33.1 208.164 33.1036 208.794 33.1021 209.424C33.0952 214.131 33.6658 218.507 37.0496 222.06C37.8606 222.756 37.8606 222.756 39.0137 223.525C39.0137 223.677 39.0137 223.828 39.0137 223.984C36.2744 224.213 34.3862 223.755 32.129 222.148C29.6613 219.855 27.7294 217.706 27.4574 214.215C27.4262 212.928 27.4256 211.645 27.4349 210.359C27.4348 209.87 27.4347 209.382 27.4345 208.879C27.4352 207.269 27.4423 205.66 27.4495 204.051C27.4512 202.933 27.4525 201.815 27.4534 200.698C27.4569 197.759 27.4659 194.821 27.4761 191.883C27.4855 188.883 27.4897 185.883 27.4943 182.884C27.5041 177.001 27.5198 171.117 27.5391 165.234Z" fill="#ABF2FD"/>
<path d="M42.2266 124.844C44.65 124.844 47.0734 124.844 49.5703 124.844C49.5703 136.961 49.5703 149.078 49.5703 161.562C47.1469 161.562 44.7234 161.562 42.2266 161.562C42.2266 149.445 42.2266 137.328 42.2266 124.844Z" fill="#B9D7FF"/>
<path d="M79.4045 121.172C81.828 121.172 84.2514 121.172 86.7483 121.172C86.1519 122.208 86.1519 122.208 85.5435 123.266C79.5275 134.376 77.2776 146.925 80.7815 159.268C82.2919 163.907 84.4997 168.261 86.7483 172.578C85.7245 172.723 85.7245 172.723 84.4534 172.578C76.6033 165.01 73.5863 152.878 73.2656 142.4C73.2728 135.085 75.5244 127.351 79.4045 121.172Z" fill="#FDC5BF"/>
<path d="M56.4548 53.2422C59.6204 55.4671 61.2124 57.8761 62.4216 61.5039C62.8745 65.9661 61.9455 69.5721 59.1801 73.122C56.5356 75.8958 53.3211 77.2172 49.5127 77.3676C45.6331 77.1771 42.6562 75.6703 39.8382 73.027C37.3873 70.1551 36.3478 66.915 36.5607 63.1678C37.0913 59.1161 38.6986 56.4308 41.7673 53.7012C46.2923 50.7309 51.7973 50.3505 56.4548 53.2422ZM42.0255 58.7787C40.3557 61.1492 40.0809 63.2542 40.3904 66.0938C41.1551 69.0602 42.5278 70.751 45.0251 72.4765C47.0847 73.6607 49.0979 73.696 51.406 73.4375C54.3205 72.6122 56.1687 71.3676 57.8318 68.8477C58.996 66.3529 59.2674 63.6039 58.4342 60.9625C57.2122 58.264 55.577 56.6574 52.869 55.3937C48.4287 54.436 44.8963 55.0672 42.0255 58.7787Z" fill="#FAD87B"/>
<path d="M179.305 117.227C179.924 117.228 180.543 117.228 181.162 117.227C182.457 117.228 183.752 117.237 185.046 117.251C186.703 117.269 188.358 117.271 190.014 117.268C191.292 117.267 192.569 117.272 193.846 117.28C194.753 117.285 195.659 117.285 196.565 117.285C197.118 117.292 197.671 117.3 198.241 117.307C198.969 117.313 198.969 117.313 199.712 117.319C201.229 117.526 202.102 117.977 203.33 118.877C203.975 120.166 203.904 121.121 203.789 122.549C202.972 123.988 202.631 124.312 201.035 124.844C200.14 124.896 199.242 124.921 198.345 124.932C197.516 124.943 197.516 124.943 196.669 124.955C194.145 124.975 191.62 124.994 189.095 125.004C187.762 125.011 186.43 125.023 185.097 125.042C183.485 125.065 181.874 125.076 180.262 125.079C179.352 125.084 178.441 125.1 177.531 125.116C172.934 125.105 172.934 125.105 171.514 123.767C170.555 122.253 170.376 121.553 170.742 119.795C172.768 116.61 175.846 117.184 179.305 117.227Z" fill="#E9F2FF"/>
<path d="M30.5944 113.556C31.2133 113.556 31.8323 113.556 32.4512 113.556C33.7461 113.556 35.0407 113.565 36.3355 113.579C37.9916 113.598 39.6472 113.6 41.3034 113.596C42.5808 113.595 43.8581 113.6 45.1354 113.608C46.0418 113.613 46.9482 113.613 47.8545 113.613C48.4075 113.621 48.9604 113.628 49.5302 113.635C50.2582 113.641 50.2582 113.641 51.001 113.647C52.5179 113.855 53.3909 114.305 54.6193 115.205C55.264 116.494 55.1926 117.449 55.0783 118.877C54.2614 120.316 53.9203 120.64 52.3244 121.172C51.4288 121.224 50.5315 121.25 49.6344 121.26C48.8048 121.271 48.8048 121.271 47.9585 121.283C45.4339 121.303 42.9093 121.322 40.3845 121.333C39.0515 121.339 37.7188 121.351 36.3859 121.37C34.7743 121.393 33.1629 121.404 31.5511 121.407C30.6406 121.412 29.7302 121.428 28.8198 121.444C24.2226 121.433 24.2226 121.433 22.8031 120.095C21.8443 118.581 21.6652 117.881 22.0314 116.123C24.0569 112.938 27.1355 113.512 30.5944 113.556Z" fill="#E9F2FF"/>
<path d="M109.54 54.8056C110.159 54.8064 110.778 54.8064 111.397 54.8056C112.691 54.8063 113.986 54.8149 115.281 54.8294C116.937 54.8476 118.592 54.8496 120.249 54.8461C121.526 54.8447 122.803 54.8503 124.081 54.8581C124.987 54.8629 125.893 54.8631 126.8 54.8633C127.353 54.8706 127.906 54.8779 128.475 54.8854C129.204 54.8912 129.204 54.8912 129.946 54.8971C131.463 55.1046 132.336 55.555 133.565 56.4551C134.209 57.7444 134.138 58.6986 134.024 60.127C133.207 61.5663 132.866 61.8899 131.27 62.4219C130.374 62.474 129.477 62.4995 128.58 62.5104C127.75 62.5215 127.75 62.5215 126.904 62.5327C124.379 62.5531 121.855 62.5722 119.33 62.5826C117.997 62.5887 116.664 62.6015 115.331 62.6202C113.72 62.6429 112.108 62.6542 110.496 62.6575C109.586 62.6621 108.675 62.6778 107.765 62.6937C103.168 62.6828 103.168 62.6828 101.748 61.3455C100.79 59.8314 100.61 59.1312 100.977 57.373C103.002 54.1881 106.081 54.7617 109.54 54.8056Z" fill="#E9F2FF"/>
<path d="M173.955 55.0782C183.961 54.3404 183.961 54.3404 186.918 55.8258C188.001 57.0334 188.754 58.2601 189.561 59.668C189.974 60.2412 190.395 60.8086 190.823 61.3713C195.616 67.731 199.654 74.6651 202.785 81.9861C202.943 82.3532 203.101 82.7202 203.263 83.0984C204.307 85.6538 204.307 85.6538 203.789 87.2071C203.561 86.8482 203.332 86.4892 203.097 86.1194C200.346 81.9563 197.188 78.5346 193.632 75.0512C193.061 74.485 192.491 73.9183 191.921 73.3512C190.438 71.8775 188.949 70.4093 187.46 68.9423C185.06 66.5772 182.668 64.2031 180.276 61.8302C179.441 61.0037 178.605 60.1792 177.768 59.355C177.262 58.8547 176.755 58.3544 176.249 57.8541C176.015 57.6247 175.781 57.3954 175.54 57.1591C175.003 56.6272 174.478 56.0834 173.955 55.5372C173.955 55.3857 173.955 55.2342 173.955 55.0782Z" fill="#34AAFB"/>
<path d="M160.644 197.363C160.796 197.363 160.947 197.363 161.103 197.363C162.559 203.861 163.999 210.362 165.406 216.87C165.527 217.423 165.647 217.975 165.771 218.544C165.882 219.057 165.992 219.569 166.106 220.097C166.203 220.55 166.301 221.002 166.402 221.468C166.611 222.607 166.611 222.607 166.611 223.984C164.986 224.038 163.361 224.07 161.735 224.099C161.276 224.115 160.817 224.13 160.345 224.146C157.53 224.183 155.887 224.055 153.76 222.148C152.721 220.64 152.357 219.808 152.472 217.974C152.928 215.764 153.711 213.821 154.593 211.751C154.766 211.338 154.938 210.925 155.116 210.499C155.665 209.189 156.218 207.88 156.772 206.572C157.146 205.68 157.52 204.788 157.893 203.896C158.806 201.717 159.724 199.539 160.644 197.363Z" fill="#FBF5E3"/>
<path d="M165.234 51.8652C167.354 53.6399 169.375 55.4768 171.331 57.4291C171.6 57.6952 171.868 57.9613 172.144 58.2355C173.022 59.1062 173.897 59.9786 174.773 60.8513C175.075 61.1519 175.377 61.4526 175.688 61.7623C177.285 63.3526 178.881 64.9441 180.475 66.5368C182.112 68.1716 183.754 69.802 185.396 71.4314C186.668 72.6947 187.937 73.9611 189.205 75.2283C189.808 75.8304 190.413 76.4313 191.019 77.031C194.25 80.2319 197.211 83.344 199.658 87.207C200.011 87.7112 200.366 88.2129 200.727 88.7113C201.32 89.533 201.913 90.3554 202.505 91.1783C203.271 92.2462 203.271 92.2462 204.126 92.9748C204.707 93.6328 204.707 93.6328 204.707 95.4688C203.243 94.8224 202.262 94.0549 201.134 92.9244C200.796 92.5872 200.457 92.2499 200.109 91.9025C199.742 91.5324 199.375 91.1623 198.997 90.781C198.412 90.1966 198.412 90.1966 197.816 89.6003C196.75 88.5333 195.685 87.4643 194.622 86.3943C193.509 85.276 192.394 84.1602 191.279 83.0442C189.169 80.9312 187.061 78.8159 184.954 76.6998C182.555 74.2904 180.153 71.8837 177.751 69.4771C172.811 64.5274 167.874 59.5743 162.939 54.6191C163.697 53.7104 164.454 52.8016 165.234 51.8652Z" fill="#E4EDFB"/>
<path d="M27.5391 124.844C29.3566 124.844 31.1742 124.844 33.0469 124.844C33.0839 126.049 33.1113 127.253 33.1329 128.458C33.1502 128.972 33.1502 128.972 33.1679 129.496C33.1813 130.491 33.1813 130.491 33.0469 132.188C32.5925 132.49 32.1381 132.793 31.6699 133.105C31.828 134.24 31.828 134.24 32.1289 135.4C32.4318 135.552 32.7348 135.703 33.0469 135.859C33.1813 138.638 33.1813 138.638 33.0469 139.531C32.5925 139.834 32.1381 140.137 31.6699 140.449C31.828 141.584 31.828 141.584 32.1289 142.744C32.4318 142.896 32.7348 143.047 33.0469 143.203C33.1813 145.982 33.1813 145.982 33.0469 146.875C32.5925 147.178 32.1381 147.481 31.6699 147.793C31.828 148.928 31.828 148.928 32.1289 150.088C32.4318 150.239 32.7348 150.391 33.0469 150.547C33.1813 153.326 33.1813 153.326 33.0469 154.219C32.3653 154.673 32.3653 154.673 31.6699 155.137C31.828 156.272 31.828 156.272 32.1289 157.432C32.4318 157.583 32.7348 157.735 33.0469 157.891C33.0469 159.102 33.0469 160.314 33.0469 161.562C31.2293 161.562 29.4117 161.562 27.5391 161.562C27.5391 149.445 27.5391 137.328 27.5391 124.844Z" fill="#FEFEFE"/>
<path d="M117.5 148.711C120.105 149.613 121.775 151.294 123.008 153.76C123.257 156.034 123.267 157.832 122.233 159.899C120.585 161.77 119.12 163.21 116.559 163.508C114.017 163.591 112.613 163.282 110.615 161.563C108.596 159.271 108.157 157.932 108.191 154.925C108.444 152.642 109.701 151.407 111.361 149.945C113.404 148.493 115.043 148.487 117.5 148.711Z" fill="#3C3265"/>
<path d="M100.977 130.352C103.581 131.253 105.252 132.935 106.484 135.4C106.734 137.675 106.743 139.472 105.71 141.539C104.061 143.411 102.596 144.851 100.035 145.149C97.4934 145.232 96.0896 144.922 94.0919 143.203C92.0728 140.911 91.6332 139.573 91.6679 136.566C91.9208 134.282 93.1771 133.048 94.8377 131.585C96.8811 130.133 98.5192 130.127 100.977 130.352Z" fill="#3C3265"/>
<path d="M181.299 158.35C181.753 158.653 182.208 158.955 182.676 159.268C183.87 159.333 185.013 159.354 186.204 159.325C186.526 159.321 186.849 159.317 187.18 159.312C187.974 159.302 188.767 159.285 189.561 159.268C189.651 159.515 189.741 159.762 189.834 160.017C190.248 161.154 190.665 162.291 191.081 163.427C191.293 164.011 191.293 164.011 191.51 164.606C192.153 166.358 192.805 168.09 193.568 169.794C194.15 171.201 194.15 171.201 194.15 172.578C188.395 172.578 182.639 172.578 176.709 172.578C177.045 170.9 177.358 169.682 178 168.148C178.162 167.754 178.324 167.359 178.491 166.953C178.832 166.134 179.174 165.315 179.517 164.497C180.358 162.446 181.064 160.575 181.299 158.35Z" fill="#E8F1FE"/>
<path d="M217.1 109.697C218.248 111.419 218.14 112.377 218.132 114.431C218.135 115.025 218.137 115.62 218.139 116.232C218.018 117.959 218.018 117.959 217.523 119.413C217.057 120.843 217.14 121.585 217.559 123.008C218.04 123.025 218.521 123.042 219.016 123.06C219.649 123.09 220.282 123.12 220.915 123.151C221.232 123.162 221.549 123.172 221.875 123.183C224.218 123.307 224.218 123.307 225.342 124.103C226.037 125.179 226.008 125.886 225.82 127.139C225.109 128.061 224.704 128.467 223.546 128.681C223.207 128.678 222.867 128.675 222.517 128.672C222.132 128.672 221.746 128.672 221.348 128.672C220.934 128.665 220.519 128.657 220.092 128.65C219.666 128.648 219.24 128.646 218.801 128.644C217.44 128.636 216.08 128.619 214.719 128.602C213.796 128.595 212.874 128.588 211.951 128.583C209.689 128.568 207.428 128.544 205.166 128.516C205.327 128.265 205.488 128.014 205.654 127.756C205.864 127.426 206.073 127.096 206.289 126.757C206.497 126.43 206.706 126.104 206.921 125.767C207.533 124.72 207.825 123.804 208.006 122.606C208.292 120.799 208.292 120.799 209.297 119.795C209.865 119.672 210.433 119.549 211.018 119.422C213.065 118.935 214.265 118.141 215.723 116.582C216.983 114.318 217.259 112.252 217.1 109.697Z" fill="#B8D6FE"/>
<path d="M178.545 32.5879C179.693 34.3097 179.586 35.268 179.578 37.3212C179.58 37.9158 179.582 38.5104 179.585 39.123C179.463 40.8496 179.463 40.8496 178.968 42.3037C178.503 43.7332 178.585 44.4758 179.004 45.8984C179.485 45.9156 179.966 45.9328 180.462 45.9504C181.094 45.9806 181.727 46.0111 182.36 46.0419C182.677 46.0522 182.994 46.0626 183.32 46.0732C185.663 46.1978 185.663 46.1978 186.787 46.9939C187.482 48.0696 187.454 48.7764 187.266 50.0293C186.79 50.776 186.79 50.776 185.889 51.4063C184.658 51.5543 183.536 51.6211 182.305 51.6214C181.954 51.6249 181.604 51.6284 181.243 51.632C180.503 51.6369 179.763 51.6383 179.022 51.6362C177.89 51.6357 176.76 51.6548 175.629 51.6752C174.909 51.6776 174.189 51.6788 173.469 51.6788C173.132 51.6863 172.794 51.6938 172.446 51.7016C170.638 51.6772 169.97 51.5545 168.678 50.2418C168.451 49.8687 168.223 49.4957 167.988 49.1113C168.329 48.3374 168.67 47.5637 169.014 46.7913C169.428 45.8199 169.428 45.8199 169.652 44.4067C170.283 43.1445 170.283 43.1445 171.162 42.7483C171.889 42.5306 172.618 42.3199 173.349 42.1154C175.289 41.4818 176.628 40.4451 177.641 38.621C178.502 36.5615 178.683 34.8033 178.545 32.5879Z" fill="#B8D5FD"/>
<path d="M117.041 201.494C118.768 202.175 119.507 203.103 120.541 204.621C120.812 205.012 121.083 205.403 121.362 205.806C122.748 208.083 123.248 209.826 123.008 212.51C122.31 213.971 121.501 215.142 120.254 216.182C118.553 216.749 117.455 216.85 115.664 216.641C113.91 215.545 112.653 214.49 111.992 212.51C111.572 209.076 113.018 206.378 115.053 203.699C115.695 202.946 116.365 202.217 117.041 201.494Z" fill="#FADAAE"/>
<path d="M169.365 176.25C171.183 176.25 173 176.25 174.873 176.25C171.885 183.777 168.832 191.274 165.693 198.74C164.775 198.281 164.775 198.281 164.368 197.145C164.247 196.668 164.126 196.191 164.001 195.699C163.876 195.23 163.751 194.76 163.623 194.276C163.19 191.377 163.986 188.991 165.107 186.335C165.29 185.899 165.29 185.899 165.476 185.454C165.86 184.536 166.25 183.62 166.64 182.704C166.904 182.078 167.167 181.451 167.43 180.825C168.071 179.298 168.717 177.774 169.365 176.25Z" fill="#FCF6E3"/>
<path d="M124.385 113.828C126.263 114.658 127.459 115.739 128.516 117.5C128.824 119.409 128.963 120.462 127.928 122.106C126.415 123.912 125.56 124.759 123.151 125.045C121.068 125.033 120.052 124.173 118.578 122.782C117.405 121.47 117.295 120.238 117.305 118.497C117.66 116.684 118.91 115.489 120.254 114.287C121.661 113.584 122.832 113.723 124.385 113.828Z" fill="#FAC4BF"/>
<path d="M162.481 205.166C162.632 205.166 162.784 205.166 162.94 205.166C163.316 207.034 163.691 208.903 164.066 210.772C164.193 211.405 164.32 212.038 164.448 212.672C165.205 216.436 165.944 220.203 166.612 223.984C164.448 224.141 162.344 224.231 160.186 223.984C158.501 222.3 157.977 220.64 157.719 218.29C157.755 215.461 159.06 212.988 160.186 210.444C160.405 209.936 160.624 209.427 160.849 208.902C161.387 207.654 161.931 206.409 162.481 205.166Z" fill="#FAD87C"/>
<path d="M72.5195 69.7656C74.64 69.7656 76.7605 69.7656 78.9453 69.7656C78.9453 74.0066 78.9453 78.2477 78.9453 82.6172C77.1277 81.8599 75.3102 81.1025 73.4375 80.3223C71.7328 79.9643 70.1037 79.6305 68.3887 79.4043C68.5111 79.1629 68.6336 78.9215 68.7598 78.6728C69.4301 77.3189 70.0733 75.9539 70.7123 74.585C70.9543 74.069 71.1963 73.5531 71.4456 73.0215C72.1233 71.5623 72.1233 71.5623 72.5195 69.7656Z" fill="#33ABFC"/>
<path d="M201.953 132.188C204.074 132.188 206.194 132.188 208.379 132.188C207.929 136.184 207.035 139.893 205.912 143.748C205.778 144.211 205.644 144.674 205.506 145.151C204.631 148.092 203.605 150.933 202.412 153.76C202.261 153.76 202.109 153.76 201.953 153.76C201.953 146.641 201.953 139.522 201.953 132.188Z" fill="#34ADFF"/>
<path d="M109.346 220.194C109.747 220.191 110.148 220.188 110.562 220.185C111.213 220.188 111.213 220.188 111.877 220.191C112.322 220.19 112.767 220.189 113.225 220.188C114.167 220.187 115.108 220.189 116.05 220.193C117.494 220.198 118.938 220.193 120.383 220.187C121.296 220.188 122.209 220.189 123.123 220.191C123.557 220.189 123.991 220.187 124.438 220.185C124.839 220.188 125.241 220.191 125.654 220.194C126.185 220.195 126.185 220.195 126.727 220.196C127.598 220.313 127.598 220.313 128.516 221.231C128.516 222.139 128.516 223.048 128.516 223.984C121.245 223.984 113.975 223.984 106.484 223.984C106.484 220.2 106.484 220.2 109.346 220.194Z" fill="#90A4AE"/>
<path d="M148.711 35.3419C150.647 36.7712 151.59 38.6017 152.687 40.6848C153.652 42.3882 154.84 43.9083 156.055 45.4396C155.146 46.1969 154.237 46.9542 153.301 47.7345C153.094 47.5345 152.888 47.3346 152.675 47.1285C150.499 45.1139 148.3 43.7083 145.645 42.3917C144.58 41.7677 144.58 41.7677 143.662 40.3908C143.468 38.6129 143.402 37.5836 144.379 36.0591C145.949 35.0527 146.879 35.0527 148.711 35.3419Z" fill="#FA5848"/>
<path d="M78.4863 99.5996C78.6378 99.5996 78.7893 99.5996 78.9453 99.5996C78.9453 103.083 78.9453 106.567 78.9453 110.156C75.7646 110.156 72.5838 110.156 69.3066 110.156C70.064 108.945 70.8213 107.733 71.6016 106.484C72.0137 105.305 72.0137 105.305 72.1466 104.247C72.4331 102.44 72.4331 102.44 73.4375 101.436C74.2031 101.169 74.9795 100.933 75.7611 100.718C77.2526 100.393 77.2526 100.393 78.4863 99.5996Z" fill="#B9D7FF"/>
<path d="M78.4863 176.25C78.6378 176.25 78.7893 176.25 78.9453 176.25C78.9453 184.429 78.9453 192.608 78.9453 201.035C75.2734 199.658 75.2734 199.658 73.8965 198.74C75.3851 191.235 76.9126 183.738 78.4863 176.25Z" fill="#33ACFC"/>
<path d="M145.957 84.4531C148.048 84.7081 148.048 84.7081 148.711 85.3711C148.73 86.2889 148.73 87.2072 148.711 88.125C149.364 88.0966 149.364 88.0966 150.031 88.0676C151.465 88.125 151.465 88.125 152.383 89.043C152.128 91.1339 152.128 91.1339 151.465 91.7969C150.547 91.8156 149.629 91.8164 148.711 91.7969C148.73 92.2323 148.749 92.6678 148.768 93.1165C148.711 94.5508 148.711 94.5508 147.793 95.4688C145.702 95.2138 145.702 95.2138 145.039 94.5508C145.02 93.633 145.02 92.7146 145.039 91.7969C144.604 91.8158 144.168 91.8347 143.719 91.8542C142.285 91.7969 142.285 91.7969 141.367 90.8789C141.622 88.788 141.622 88.788 142.285 88.125C143.203 88.1063 144.121 88.1055 145.039 88.125C145.02 87.6895 145.001 87.2541 144.982 86.8054C145.039 85.3711 145.039 85.3711 145.957 84.4531Z" fill="#FAFDFF"/>
<path d="M194.609 117.5C195.622 117.472 196.635 117.443 197.679 117.414C198.533 117.39 198.533 117.39 199.405 117.366C201.135 117.508 201.966 117.832 203.33 118.877C203.975 120.167 203.903 121.121 203.789 122.549C202.972 123.988 202.631 124.312 201.035 124.844C198.892 124.906 196.754 124.864 194.609 124.844C194.609 122.421 194.609 119.997 194.609 117.5Z" fill="#B7D4FC"/>
<path d="M45.8984 113.828C46.9114 113.8 47.9243 113.772 48.9679 113.742C49.8225 113.718 49.8225 113.718 50.6945 113.694C52.4237 113.837 53.255 114.16 54.6191 115.205C55.2638 116.495 55.1924 117.449 55.0781 118.877C54.2612 120.316 53.9201 120.64 52.3242 121.172C50.1809 121.234 48.0431 121.192 45.8984 121.172C45.8984 118.749 45.8984 116.325 45.8984 113.828Z" fill="#B7D4FC"/>
<path d="M124.844 55.0783C125.857 55.0499 126.87 55.0215 127.913 54.9923C128.768 54.9683 128.768 54.9683 129.64 54.9438C131.369 55.0865 132.2 55.41 133.564 56.4553C134.209 57.7446 134.138 58.6988 134.023 60.1271C133.207 61.5665 132.865 61.8901 131.27 62.4221C129.126 62.4844 126.988 62.4417 124.844 62.4221C124.844 59.9986 124.844 57.5752 124.844 55.0783Z" fill="#B7D4FC"/>
<path d="M117.5 201.494C119.524 203.114 120.18 203.752 121.287 205.912C121.516 206.353 121.746 206.795 121.982 207.249C122.948 209.175 123.157 210.306 123.008 212.51C122.321 213.949 121.544 215.226 120.254 216.182C118.891 216.409 118.891 216.409 117.5 216.641C117.5 211.642 117.5 206.644 117.5 201.494Z" fill="#FBAF42"/>
<path d="M181.758 91.7968C182.061 92.0997 182.364 92.4026 182.676 92.7147C182.421 94.8057 182.421 94.8057 181.758 95.4686C181.061 95.5814 180.362 95.685 179.664 95.7842C177.104 96.269 175.362 97.3432 173.496 99.1405C173.193 99.5949 172.89 100.049 172.578 100.517C171.431 100.661 171.431 100.661 170.283 100.517C169.365 99.5995 169.365 99.5995 169.336 98.5955C170.462 95.615 173.081 93.8785 175.884 92.5892C177.982 91.7408 179.514 91.6899 181.758 91.7968Z" fill="#3C386B"/>
<path d="M143.203 14.6874C143.506 14.9903 143.809 15.2933 144.121 15.6054C143.866 17.6963 143.866 17.6963 143.203 18.3593C142.506 18.472 141.808 18.5756 141.109 18.6748C138.549 19.1596 136.807 20.2339 134.941 22.0311C134.638 22.4855 134.335 22.9399 134.023 23.4081C132.876 23.5515 132.876 23.5515 131.728 23.4081C130.81 22.4901 130.81 22.4901 130.782 21.4861C131.908 18.5056 134.527 16.7692 137.329 15.4799C139.428 14.6314 140.959 14.5805 143.203 14.6874Z" fill="#3C386B"/>
<path d="M163.857 44.9807C164.316 45.4397 164.316 45.4397 164.453 46.4889C164.275 48.1121 163.731 48.6159 162.59 49.766C162.227 50.1313 161.865 50.4967 161.492 50.8731C160.916 51.4353 160.916 51.4353 160.329 52.0089C159.954 52.3926 159.579 52.7763 159.193 53.1716C158.645 53.7152 158.645 53.7152 158.086 54.2697C157.585 54.767 157.585 54.767 157.073 55.2743C155.859 56.1351 155.218 56.1862 153.76 55.9963C153.301 55.5373 153.301 55.5373 153.164 54.4881C153.342 52.8649 153.886 52.3611 155.027 51.211C155.39 50.8457 155.752 50.4803 156.125 50.1039C156.509 49.7291 156.893 49.3543 157.288 48.9681C157.663 48.5844 158.038 48.2007 158.424 47.8054C158.789 47.443 159.155 47.0806 159.531 46.7073C159.865 46.3757 160.199 46.0442 160.543 45.7027C161.758 44.8418 162.399 44.7908 163.857 44.9807Z" fill="#B6D3FB"/>
<path d="M115.664 152.096C117.534 152.485 118.209 153.152 119.336 154.677C119.623 156.054 119.623 156.054 119.336 157.431C118.193 158.978 117.552 159.643 115.635 159.956C114.09 159.693 113.465 159.552 112.451 158.349C112.006 157.095 111.842 156.003 111.992 154.677C113.091 153.079 113.76 152.492 115.664 152.096Z" fill="#F6C1BE"/>
<path d="M99.1404 133.736C101.011 134.126 101.685 134.793 102.812 136.318C103.099 137.695 103.099 137.695 102.812 139.072C101.669 140.619 101.029 141.283 99.1118 141.596C97.5667 141.333 96.9419 141.192 95.9276 139.99C95.4824 138.736 95.3191 137.643 95.4686 136.318C96.5677 134.719 97.2365 134.133 99.1404 133.736Z" fill="#F6C1BE"/>
<path d="M181.758 128.516C184.181 128.516 186.605 128.516 189.102 128.516C189.102 130.485 189.102 132.454 189.102 134.482C188.648 134.477 188.195 134.472 187.728 134.466C187.14 134.462 186.552 134.458 185.946 134.454C185.067 134.446 185.067 134.446 184.171 134.438C182.728 134.376 182.728 134.376 181.758 134.941C181.758 132.821 181.758 130.7 181.758 128.516Z" fill="#E8F1FE"/>
<path d="M176.25 117.5C176.25 119.923 176.25 122.347 176.25 124.844C173.037 124.844 173.037 124.844 171.689 123.868C170.742 122.549 170.742 122.549 170.455 121.172C171.176 117.712 172.941 117.5 176.25 117.5Z" fill="#F9F9FA"/>
<path d="M27.5388 113.828C27.5388 116.252 27.5388 118.675 27.5388 121.172C24.3259 121.172 24.3259 121.172 22.9777 120.197C22.031 118.877 22.031 118.877 21.7441 117.5C22.465 114.04 24.2303 113.828 27.5388 113.828Z" fill="#F9F9FA"/>
<path d="M106.484 55.0781C106.484 57.5016 106.484 59.925 106.484 62.4219C103.271 62.4219 103.271 62.4219 101.923 61.4465C100.976 60.127 100.976 60.127 100.689 58.75C101.41 55.2899 103.176 55.0781 106.484 55.0781Z" fill="#F9F9FA"/>
<path d="M119.336 220.313C120.694 220.288 122.051 220.27 123.409 220.255C123.796 220.248 124.182 220.24 124.58 220.232C124.95 220.229 125.32 220.226 125.701 220.223C126.213 220.216 126.213 220.216 126.735 220.208C127.598 220.313 127.598 220.313 128.516 221.231C128.516 222.139 128.516 223.048 128.516 223.985C125.486 223.985 122.457 223.985 119.336 223.985C119.336 222.773 119.336 221.561 119.336 220.313Z" fill="#8496A0"/>
<path d="M181.758 151.465C182.212 151.692 182.212 151.692 182.676 151.924C183.765 151.956 184.856 151.962 185.946 151.953C186.534 151.948 187.122 151.944 187.728 151.94C188.181 151.935 188.635 151.929 189.102 151.924C189.102 153.438 189.102 154.953 189.102 156.514C188.648 156.508 188.195 156.503 187.728 156.498C187.14 156.493 186.552 156.489 185.946 156.485C185.067 156.477 185.067 156.477 184.171 156.469C182.728 156.407 182.728 156.407 181.758 156.973C181.758 155.155 181.758 153.337 181.758 151.465Z" fill="#E7F0FD"/>
<path d="M181.758 144.121C182.212 144.348 182.212 144.348 182.676 144.58C183.765 144.613 184.856 144.619 185.946 144.609C186.534 144.605 187.122 144.6 187.728 144.596C188.181 144.591 188.635 144.586 189.102 144.58C189.102 146.095 189.102 147.609 189.102 149.17C188.648 149.165 188.195 149.159 187.728 149.154C187.14 149.15 186.552 149.146 185.946 149.141C185.067 149.133 185.067 149.133 184.171 149.125C182.728 149.064 182.728 149.064 181.758 149.629C181.758 147.811 181.758 145.994 181.758 144.121Z" fill="#E7F0FD"/>
<path d="M181.758 136.777C182.212 137.005 182.212 137.005 182.676 137.236C183.765 137.269 184.856 137.275 185.946 137.265C186.534 137.261 187.122 137.257 187.728 137.252C188.181 137.247 188.635 137.242 189.102 137.236C189.102 138.751 189.102 140.266 189.102 141.826C188.648 141.821 188.195 141.816 187.728 141.81C187.14 141.806 186.552 141.802 185.946 141.797C185.067 141.789 185.067 141.789 184.171 141.781C182.728 141.72 182.728 141.72 181.758 142.285C181.758 140.468 181.758 138.65 181.758 136.777Z" fill="#E7F0FD"/>
<path d="M34.8541 198.195C35.3505 198.189 35.8469 198.182 36.3584 198.175C37.6367 198.281 37.6367 198.281 38.5547 199.199C38.2997 201.29 38.2997 201.29 37.6367 201.953C36.7297 202.01 35.8203 202.034 34.9115 202.039C34.4151 202.046 33.9187 202.052 33.4072 202.059C32.1289 201.953 32.1289 201.953 31.2109 201.035C31.5563 198.203 32.1078 198.211 34.8541 198.195Z" fill="#363569"/>
<path d="M34.8541 190.851C35.3505 190.845 35.8469 190.838 36.3584 190.832C37.6367 190.937 37.6367 190.937 38.5547 191.855C38.2997 193.946 38.2997 193.946 37.6367 194.609C36.7297 194.667 35.8203 194.69 34.9115 194.695C34.4151 194.702 33.9187 194.708 33.4072 194.715C32.1289 194.609 32.1289 194.609 31.2109 193.691C31.5563 190.86 32.1078 190.868 34.8541 190.851Z" fill="#363569"/>
<path d="M34.8541 183.508C35.3505 183.501 35.8469 183.494 36.3584 183.488C37.6367 183.594 37.6367 183.594 38.5547 184.512C38.2997 186.602 38.2997 186.602 37.6367 187.265C36.7297 187.323 35.8203 187.346 34.9115 187.352C34.4151 187.358 33.9187 187.365 33.4072 187.371C32.1289 187.265 32.1289 187.265 31.2109 186.347C31.5563 183.516 32.1078 183.524 34.8541 183.508Z" fill="#363569"/>
<path d="M34.8541 176.164C35.3505 176.157 35.8469 176.151 36.3584 176.144C37.6367 176.25 37.6367 176.25 38.5547 177.168C38.2997 179.259 38.2997 179.259 37.6367 179.922C36.7297 179.979 35.8203 180.002 34.9115 180.008C34.4151 180.014 33.9187 180.021 33.4072 180.027C32.1289 179.922 32.1289 179.922 31.2109 179.004C31.5563 176.172 32.1078 176.18 34.8541 176.164Z" fill="#363569"/>
<path d="M34.8541 168.82C35.3505 168.814 35.8469 168.807 36.3584 168.8C37.6367 168.906 37.6367 168.906 38.5547 169.824C38.2997 171.915 38.2997 171.915 37.6367 172.578C36.7297 172.635 35.8203 172.659 34.9115 172.664C34.4151 172.671 33.9187 172.677 33.4072 172.684C32.1289 172.578 32.1289 172.578 31.2109 171.66C31.5563 168.828 32.1078 168.836 34.8541 168.82Z" fill="#363569"/>
<path d="M185.401 155.968C185.897 155.962 186.394 155.955 186.905 155.949C188.184 156.055 188.184 156.055 189.102 156.972C188.847 159.063 188.847 159.063 188.184 159.726C187.277 159.784 186.367 159.807 185.458 159.812C184.962 159.819 184.466 159.825 183.954 159.832C182.676 159.726 182.676 159.726 181.758 158.808C182.103 155.977 182.655 155.985 185.401 155.968Z" fill="#39366A"/>
<path d="M34.8541 154.133C35.3505 154.126 35.8469 154.119 36.3584 154.113C37.6367 154.219 37.6367 154.219 38.5547 155.137C38.2997 157.227 38.2997 157.227 37.6367 157.89C36.7297 157.948 35.8203 157.971 34.9115 157.977C34.4151 157.983 33.9187 157.99 33.4072 157.996C32.1289 157.89 32.1289 157.89 31.2109 156.972C31.5563 154.141 32.1078 154.149 34.8541 154.133Z" fill="#3A366A"/>
<path d="M185.401 148.625C185.897 148.618 186.394 148.612 186.905 148.605C188.184 148.711 188.184 148.711 189.102 149.629C188.847 151.72 188.847 151.72 188.184 152.383C187.277 152.44 186.367 152.463 185.458 152.469C184.962 152.475 184.466 152.482 183.954 152.488C182.676 152.383 182.676 152.383 181.758 151.465C182.103 148.633 182.655 148.641 185.401 148.625Z" fill="#39366A"/>
<path d="M34.8541 146.789C35.3505 146.782 35.8469 146.776 36.3584 146.769C37.6367 146.875 37.6367 146.875 38.5547 147.793C38.2997 149.884 38.2997 149.884 37.6367 150.547C36.7297 150.604 35.8203 150.627 34.9115 150.633C34.4151 150.639 33.9187 150.646 33.4072 150.652C32.1289 150.547 32.1289 150.547 31.2109 149.629C31.5563 146.797 32.1078 146.805 34.8541 146.789Z" fill="#3A366A"/>
<path d="M185.401 141.281C185.897 141.274 186.394 141.268 186.905 141.261C188.184 141.367 188.184 141.367 189.102 142.285C188.847 144.376 188.847 144.376 188.184 145.039C187.277 145.096 186.367 145.12 185.458 145.125C184.962 145.131 184.466 145.138 183.954 145.145C182.676 145.039 182.676 145.039 181.758 144.121C182.103 141.289 182.655 141.297 185.401 141.281Z" fill="#39366A"/>
<path d="M34.8541 139.445C35.3505 139.439 35.8469 139.432 36.3584 139.425C37.6367 139.531 37.6367 139.531 38.5547 140.449C38.2997 142.54 38.2997 142.54 37.6367 143.203C36.7297 143.26 35.8203 143.284 34.9115 143.289C34.4151 143.296 33.9187 143.302 33.4072 143.309C32.1289 143.203 32.1289 143.203 31.2109 142.285C31.5563 139.453 32.1078 139.461 34.8541 139.445Z" fill="#3A366A"/>
<path d="M185.401 133.937C185.897 133.931 186.394 133.924 186.905 133.917C188.184 134.023 188.184 134.023 189.102 134.941C188.847 137.032 188.847 137.032 188.184 137.695C187.277 137.753 186.367 137.776 185.458 137.781C184.962 137.788 184.466 137.794 183.954 137.801C182.676 137.695 182.676 137.695 181.758 136.777C182.103 133.946 182.655 133.954 185.401 133.937Z" fill="#39366A"/>
<path d="M34.8541 132.101C35.3505 132.095 35.8469 132.088 36.3584 132.082C37.6367 132.187 37.6367 132.187 38.5547 133.105C38.2997 135.196 38.2997 135.196 37.6367 135.859C36.7297 135.917 35.8203 135.94 34.9115 135.945C34.4151 135.952 33.9187 135.958 33.4072 135.965C32.1289 135.859 32.1289 135.859 31.2109 134.941C31.5563 132.11 32.1078 132.118 34.8541 132.101Z" fill="#3A366A"/>
<path d="M156.973 49.5703C158.176 50.0517 158.714 50.3273 159.382 51.4636C159.496 51.7476 159.61 52.0316 159.727 52.3242C159.17 52.943 158.604 53.5535 158.034 54.1602C157.563 54.6714 157.563 54.6714 157.082 55.1929C156.055 55.9961 156.055 55.9961 154.812 56.1395C153.76 55.9961 153.76 55.9961 153.301 55.5371C153.158 54.4847 153.158 54.4847 153.301 53.2422C154.104 52.2149 154.104 52.2149 155.137 51.2628C155.478 50.9427 155.818 50.6226 156.17 50.2929C156.435 50.0544 156.7 49.816 156.973 49.5703Z" fill="#E4EDFB"/>
<path d="M141.367 176.25C142.561 176.115 142.561 176.115 143.949 176.164C144.639 176.182 144.639 176.182 145.344 176.201C145.698 176.217 146.051 176.233 146.416 176.25C144.799 177.978 143.212 179.209 141.166 180.438C140.415 180.894 140.415 180.894 139.648 181.36C138.248 182.163 136.877 182.943 135.4 183.594C135.097 183.442 134.795 183.291 134.482 183.135C135.113 182.562 135.113 182.562 135.755 181.978C136.306 181.474 136.857 180.971 137.408 180.467C137.685 180.216 137.962 179.964 138.248 179.706C138.514 179.462 138.78 179.218 139.054 178.966C139.3 178.743 139.545 178.519 139.797 178.289C140.557 177.559 140.557 177.559 141.367 176.25Z" fill="#E44A3B"/>
<path d="M73.4375 62.4219C75.2551 62.4219 77.0727 62.4219 78.9453 62.4219C78.9453 63.6336 78.9453 64.8453 78.9453 66.0938C77.1277 66.0938 75.3102 66.0938 73.4375 66.0938C73.4375 64.882 73.4375 63.6703 73.4375 62.4219Z" fill="#8597A1"/>
<path d="M108.496 220.223C108.911 220.233 109.327 220.244 109.755 220.255C110.381 220.267 110.381 220.267 111.02 220.28C111.341 220.291 111.662 220.301 111.992 220.312C111.992 221.524 111.992 222.736 111.992 223.984C110.175 223.984 108.357 223.984 106.484 223.984C106.484 220.388 106.484 220.388 108.496 220.223Z" fill="#B0C4D0"/>
<path d="M82.6172 105.107C84.4348 105.107 86.2523 105.107 88.125 105.107C86.5865 107.287 84.7643 108.617 82.6172 110.156C82.6172 108.49 82.6172 106.824 82.6172 105.107Z" fill="#B7D4FC"/>
<path d="M59.668 163.398C60.8728 163.571 60.8728 163.571 61.9629 163.857C62.2498 164.948 62.2498 164.948 62.4219 166.152C62.1189 166.455 61.816 166.758 61.5039 167.07C60.2991 166.898 60.2991 166.898 59.209 166.611C58.9221 165.521 58.9221 165.521 58.75 164.316C59.0529 164.013 59.3559 163.711 59.668 163.398Z" fill="#F1F9FF"/>
<path d="M147.793 67.9297C148.998 68.1018 148.998 68.1018 150.088 68.3887C150.375 69.4788 150.375 69.4788 150.547 70.6836C150.244 70.9865 149.941 71.2895 149.629 71.6016C148.424 71.4294 148.424 71.4294 147.334 71.1426C147.047 70.0525 147.047 70.0525 146.875 68.8477C147.178 68.5447 147.481 68.2418 147.793 67.9297Z" fill="#F1F9FF"/>
<path d="M92.7148 36.7188C93.9197 36.8909 93.9197 36.8909 95.0098 37.1777C95.2966 38.2678 95.2966 38.2678 95.4688 39.4727C95.1658 39.7756 94.8629 40.0785 94.5508 40.3906C93.3459 40.2185 93.3459 40.2185 92.2559 39.9316C91.969 38.8416 91.969 38.8416 91.7969 37.6367C92.0998 37.3338 92.4027 37.0309 92.7148 36.7188Z" fill="#F1F9FF"/>
<path d="M207.002 123.467C207.305 123.467 207.608 123.467 207.92 123.467C207.721 125.726 206.806 126.982 205.166 128.516C203.416 128.688 203.416 128.688 201.953 128.516C202.408 128.213 202.862 127.91 203.33 127.598C205.606 125.88 205.606 125.88 207.002 123.467Z" fill="#DDE6F7"/>
</svg>
