<svg width="38" height="38" viewBox="0 0 38 38" fill="none" xmlns="http://www.w3.org/2000/svg">
<g clip-path="url(#clip0_1623_1541)">
<path d="M24.0097 0.257256C24.0967 0.267972 24.0967 0.267972 24.1855 0.278904C25.1991 0.406347 26.0262 0.604558 26.7186 1.41009C27.117 2.047 27.2481 2.5763 27.2533 3.3203C27.2541 3.38478 27.2548 3.44926 27.2556 3.5157C27.2579 3.72813 27.2597 3.94056 27.2616 4.153C27.2631 4.30056 27.2647 4.44813 27.2662 4.5957C27.2703 4.98357 27.274 5.37145 27.2776 5.75934C27.2813 6.15535 27.2855 6.55136 27.2895 6.94736C27.2975 7.724 27.3051 8.50064 27.3123 9.27728C27.3511 9.23796 27.39 9.19863 27.43 9.15812C27.7973 8.7863 28.1652 8.41502 28.5337 8.04434C28.7231 7.85378 28.9123 7.66303 29.101 7.47179C29.2834 7.28698 29.4663 7.10274 29.6496 6.91886C29.7529 6.81498 29.8556 6.71054 29.9583 6.60609C30.4568 6.10739 30.8708 5.75351 31.5892 5.69159C32.1775 5.70204 32.6688 5.97333 33.0757 6.38275C33.1203 6.42992 33.165 6.47708 33.211 6.52568C33.2596 6.57509 33.3082 6.62451 33.3583 6.67542C33.5118 6.83196 33.6638 6.98996 33.8157 7.14813C33.9685 7.30517 34.1215 7.46189 34.2748 7.61845C34.3695 7.71542 34.4639 7.81271 34.5578 7.9104C34.8342 8.1959 35.121 8.4627 35.4224 8.72158C35.9751 9.19766 36.5395 9.71866 36.6639 10.4648C36.6913 11.1578 36.4614 11.585 36.0109 12.1024C35.8664 12.2538 35.719 12.4015 35.5697 12.5481C35.5158 12.602 35.4618 12.6558 35.4062 12.7113C35.2928 12.8241 35.1791 12.9368 35.0652 13.0491C34.8924 13.2197 34.7203 13.391 34.5483 13.5625C34.4374 13.6729 34.3263 13.7831 34.2152 13.8933C34.1645 13.9438 34.1138 13.9942 34.0615 14.0461C33.7643 14.339 33.4594 14.6192 33.1434 14.8916C33.0782 14.948 33.0139 15.0054 32.9529 15.0663C32.9456 15.1751 32.9435 15.2841 32.9435 15.3931C32.9432 15.4641 32.943 15.5351 32.9428 15.6083C32.943 15.7267 32.943 15.7267 32.9432 15.8474C32.943 15.9306 32.9429 16.0137 32.9427 16.0994C32.9423 16.3803 32.9423 16.6613 32.9424 16.9422C32.9422 17.1427 32.9419 17.3432 32.9416 17.5437C32.941 17.9768 32.9407 18.4098 32.9404 18.8429C32.94 19.5277 32.9388 20.2126 32.9373 20.8975C32.9369 21.1317 32.9364 21.366 32.9359 21.6002C32.9358 21.6588 32.9357 21.7173 32.9356 21.7776C32.9343 22.4447 32.933 23.1119 32.9319 23.779C32.9318 23.84 32.9317 23.901 32.9316 23.9638C32.93 24.951 32.9292 25.9381 32.9286 26.9253C32.928 27.9388 32.9263 28.9524 32.9236 29.9659C32.922 30.591 32.9212 31.216 32.9217 31.841C32.9219 32.2699 32.9211 32.6988 32.9194 33.1278C32.9185 33.375 32.9182 33.6222 32.9188 33.8694C32.9195 34.1381 32.9183 34.4067 32.9167 34.6754C32.9174 34.7526 32.918 34.8299 32.9186 34.9095C32.9095 35.7359 32.6637 36.3558 32.0896 36.9487C31.449 37.5343 30.8339 37.6513 29.988 37.6487C29.8663 37.6492 29.8663 37.6492 29.7421 37.6497C29.4706 37.6506 29.199 37.6505 28.9275 37.6504C28.7327 37.6508 28.5378 37.6514 28.343 37.6519C27.8689 37.6531 27.3948 37.6536 26.9207 37.6536C26.5352 37.6537 26.1497 37.654 25.7641 37.6545C24.6703 37.6558 23.5764 37.6565 22.4825 37.6564C22.4236 37.6564 22.3647 37.6564 22.304 37.6563C22.2155 37.6563 22.2155 37.6563 22.1252 37.6563C21.1692 37.6563 20.2132 37.6577 19.2573 37.6598C18.2748 37.6619 17.2924 37.6629 16.3099 37.6628C15.7587 37.6628 15.2074 37.6632 14.6562 37.6648C14.1377 37.6663 13.6193 37.6662 13.1008 37.6651C12.9107 37.665 12.7206 37.6653 12.5305 37.6662C12.2706 37.6674 12.0107 37.6667 11.7508 37.6655C11.676 37.6663 11.6011 37.6671 11.5239 37.6679C10.6963 37.6598 10.0284 37.3462 9.44878 36.76C8.8234 36.0173 8.78947 35.0814 8.81328 34.1545C8.81478 34.0516 8.81613 33.9487 8.81734 33.8459C8.8208 33.5977 8.82566 33.3496 8.83184 33.1015C8.76561 33.1022 8.69938 33.1028 8.63115 33.1035C8.00445 33.1095 7.37776 33.114 6.75105 33.1169C6.42891 33.1184 6.10679 33.1205 5.78467 33.1239C5.47331 33.1271 5.16197 33.1289 4.8506 33.1297C4.73231 33.1302 4.61401 33.1313 4.49573 33.1329C3.52601 33.1456 2.82343 33.0227 2.09794 32.3326C1.64657 31.8075 1.43568 31.2131 1.37367 30.533C1.36446 30.4327 1.36446 30.4327 1.35506 30.3304C1.34864 30.2575 1.34223 30.1847 1.33561 30.1096C1.32867 30.0316 1.32173 29.9536 1.31458 29.8732C0.802659 24.0296 0.37499 18.0046 3.88734 5.56399C4.35541 5.01351 4.86415 4.5073 5.38994 4.01239C5.4413 3.96374 5.49266 3.91509 5.54557 3.86497C10.6311 -0.91776 17.4975 -0.566373 24.0097 0.257256Z" fill="#D8DDFA"/>
<path d="M26.0506 10.6133C26.3761 10.8865 26.6879 11.167 26.9888 11.4676C27.0271 11.5058 27.0654 11.544 27.1049 11.5834C27.2299 11.7081 27.3546 11.833 27.4793 11.9579C27.5672 12.0457 27.655 12.1335 27.7429 12.2213C27.9264 12.4047 28.1098 12.5883 28.2931 12.7719C28.5267 13.0059 28.7605 13.2395 28.9945 13.4731C29.1759 13.6541 29.3571 13.8354 29.5382 14.0167C29.6243 14.1029 29.7104 14.189 29.7967 14.275C30.2461 14.7238 30.6861 15.1757 31.0975 15.6602C31.2402 15.8245 31.3772 15.9619 31.5428 16.1055C31.789 16.0851 31.9098 15.9873 32.0771 15.8129C32.1193 15.7697 32.1616 15.7264 32.2051 15.6818C32.2483 15.6364 32.2915 15.591 32.336 15.5442C32.4909 15.3835 32.6469 15.2245 32.8045 15.0664C32.829 15.0664 32.8535 15.0664 32.8787 15.0664C32.8855 17.6621 32.8908 20.2578 32.8939 22.8535C32.8943 23.1601 32.8946 23.4668 32.895 23.7734C32.8951 23.8345 32.8952 23.8955 32.8953 23.9584C32.8966 24.9461 32.8989 25.9337 32.9016 26.9213C32.9044 27.9352 32.9061 28.9491 32.9067 29.963C32.9071 30.5883 32.9083 31.2136 32.9108 31.8389C32.9123 32.2681 32.9128 32.6972 32.9124 33.1264C32.9122 33.3738 32.9127 33.6211 32.9141 33.8685C32.9156 34.1373 32.9152 34.4061 32.9144 34.6749C32.9153 34.7523 32.9162 34.8296 32.917 34.9093C32.9103 35.7361 32.6639 36.3556 32.0896 36.9488C31.449 37.5344 30.8339 37.6513 29.988 37.6488C29.8663 37.6493 29.8663 37.6493 29.7421 37.6498C29.4706 37.6507 29.199 37.6506 28.9275 37.6505C28.7327 37.6509 28.5378 37.6514 28.343 37.652C27.8689 37.6532 27.3948 37.6536 26.9207 37.6537C26.5352 37.6538 26.1497 37.6541 25.7641 37.6546C24.6703 37.6559 23.5764 37.6565 22.4825 37.6564C22.3942 37.6564 22.3942 37.6564 22.304 37.6564C22.2155 37.6564 22.2155 37.6564 22.1252 37.6564C21.1692 37.6563 20.2132 37.6578 19.2573 37.6598C18.2748 37.662 17.2924 37.663 16.3099 37.6629C15.7587 37.6628 15.2075 37.6632 14.6562 37.6648C14.1377 37.6663 13.6193 37.6663 13.1008 37.6652C12.9107 37.665 12.7206 37.6654 12.5305 37.6663C12.2706 37.6674 12.0108 37.6667 11.7509 37.6656C11.676 37.6664 11.6011 37.6671 11.524 37.6679C10.6963 37.6599 10.0284 37.3463 9.44879 36.76C8.82341 36.0174 8.78948 35.0815 8.81329 34.1545C8.81479 34.0517 8.81614 33.9488 8.81735 33.8459C8.82081 33.5977 8.82567 33.3497 8.83185 33.1016C8.91396 33.1015 8.99608 33.1013 9.08068 33.1012C11.081 33.0985 13.0813 33.0941 15.0815 33.0879C16.0489 33.085 17.0162 33.0826 17.9835 33.0814C18.8269 33.0805 19.6703 33.0785 20.5136 33.0752C20.96 33.0736 21.4063 33.0724 21.8526 33.0725C22.2733 33.0725 22.6939 33.0712 23.1145 33.0688C23.2684 33.0682 23.4223 33.0681 23.5761 33.0685C24.6717 33.0711 25.6608 33.0622 26.4887 32.2492C26.8701 31.7917 27.0976 31.2776 27.1014 30.682C27.1021 30.5956 27.1029 30.5091 27.1036 30.42C27.104 30.325 27.1045 30.23 27.1049 30.1322C27.1056 30.0312 27.1064 29.9303 27.1071 29.8294C27.1091 29.5552 27.1107 29.281 27.1122 29.0069C27.1138 28.7204 27.1158 28.434 27.1178 28.1475C27.1215 27.605 27.1249 27.0625 27.1281 26.5199C27.1317 25.9023 27.1358 25.2847 27.1399 24.6671C27.1484 23.3965 27.1563 22.126 27.1639 20.8555C26.7819 21.1831 26.4146 21.5199 26.0599 21.8768C25.9892 21.9475 25.9892 21.9475 25.917 22.0196C25.7635 22.1733 25.6102 22.3271 25.4568 22.481C25.3496 22.5885 25.2422 22.6959 25.1349 22.8033C24.8541 23.0844 24.5736 23.3657 24.293 23.647C24.0061 23.9347 23.7189 24.2222 23.4318 24.5097C22.8696 25.0727 22.3077 25.6359 21.7459 26.1992C21.3083 25.784 21.3083 25.784 21.2922 25.4099C21.2926 25.3333 21.293 25.2567 21.2934 25.1778C21.2936 25.0948 21.2938 25.0118 21.2941 24.9263C21.2947 24.8397 21.2953 24.7531 21.296 24.6638C21.2963 24.5763 21.2966 24.4888 21.297 24.3987C21.2979 24.1825 21.2991 23.9662 21.3006 23.75C21.2422 23.7516 21.1839 23.7531 21.1237 23.7547C20.858 23.7609 20.5923 23.7648 20.3265 23.7686C20.2346 23.771 20.1428 23.7735 20.0482 23.7761C19.3731 23.7834 19.3731 23.7834 19.0282 23.6329C18.6492 23.2476 18.5389 22.9971 18.5255 22.4607C18.5275 22.2859 18.531 22.1111 18.536 21.9363C18.5373 21.8466 18.5386 21.7569 18.54 21.6645C18.5435 21.4442 18.5484 21.2241 18.5545 21.0039C18.4961 21.0055 18.4378 21.007 18.3776 21.0086C18.1119 21.0148 17.8462 21.0187 17.5804 21.0225C17.4885 21.0249 17.3967 21.0274 17.3021 21.03C16.4621 21.039 16.4621 21.039 16.1053 20.707C16.2234 20.4157 16.4238 20.2197 16.6435 20.0025C16.6836 19.9623 16.7238 19.922 16.7651 19.8805C16.8997 19.7457 17.0348 19.6114 17.1699 19.4771C17.2665 19.3806 17.363 19.284 17.4595 19.1874C17.7217 18.9252 17.9843 18.6635 18.247 18.4018C18.5215 18.1283 18.7955 17.8543 19.0696 17.5804C19.5887 17.0618 20.1082 16.5435 20.6278 16.0254C21.2193 15.4356 21.8104 14.8453 22.4015 14.255C23.6174 13.0406 24.8338 11.8268 26.0506 10.6133Z" fill="#BBCCFB"/>
<path d="M26.0508 10.6133C26.3763 10.8865 26.6881 11.167 26.989 11.4676C27.0273 11.5058 27.0656 11.544 27.1051 11.5834C27.2301 11.7081 27.3548 11.833 27.4795 11.9579C27.5674 12.0457 27.6552 12.1335 27.7431 12.2213C27.9266 12.4047 28.11 12.5883 28.2933 12.7719C28.5268 13.0059 28.7607 13.2395 28.9947 13.4731C29.1761 13.6541 29.3572 13.8354 29.5384 14.0167C29.6245 14.1029 29.7106 14.189 29.7968 14.275C30.2104 14.6879 30.6211 15.1002 30.9999 15.5458C31.1232 15.69 31.2544 15.8243 31.3899 15.957C31.4334 15.9999 31.477 16.0428 31.5218 16.0869C31.5533 16.1175 31.5848 16.1481 31.6172 16.1797C31.4993 16.4698 31.3006 16.6651 31.0818 16.8814C31.022 16.9413 31.022 16.9413 30.9611 17.0025C30.8275 17.1362 30.6935 17.2695 30.5594 17.4028C30.4635 17.4986 30.3677 17.5944 30.272 17.6903C30.0118 17.9505 29.7511 18.2103 29.4904 18.47C29.218 18.7414 28.9461 19.0132 28.6741 19.2851C28.159 19.7998 27.6434 20.3141 27.1278 20.8282C26.5407 21.4136 25.9541 21.9994 25.3675 22.5853C24.1609 23.7904 22.9536 24.995 21.7461 26.1992C21.3085 25.784 21.3085 25.784 21.2924 25.4099C21.2929 25.295 21.2929 25.295 21.2935 25.1778C21.2939 25.0533 21.2939 25.0533 21.2943 24.9263C21.2952 24.7964 21.2952 24.7964 21.2961 24.6638C21.2965 24.5763 21.2968 24.4888 21.2972 24.3987C21.298 24.1825 21.2993 23.9662 21.3008 23.75C21.2424 23.7516 21.184 23.7531 21.1239 23.7547C20.8582 23.7609 20.5924 23.7648 20.3267 23.7686C20.2348 23.771 20.143 23.7735 20.0483 23.7761C19.3733 23.7834 19.3733 23.7834 19.0284 23.6329C18.6494 23.2476 18.5391 22.9971 18.5257 22.4607C18.5277 22.2859 18.5312 22.1111 18.5361 21.9363C18.5375 21.8466 18.5388 21.7569 18.5402 21.6645C18.5437 21.4442 18.5485 21.2241 18.5547 21.0039C18.4963 21.0055 18.4379 21.007 18.3778 21.0086C18.1121 21.0148 17.8463 21.0187 17.5806 21.0225C17.4887 21.0249 17.3969 21.0274 17.3022 21.03C16.4623 21.039 16.4623 21.039 16.1055 20.707C16.2236 20.4157 16.424 20.2197 16.6437 20.0025C16.6838 19.9623 16.7239 19.922 16.7653 19.8805C16.8999 19.7457 17.035 19.6114 17.1701 19.4771C17.2667 19.3806 17.3632 19.284 17.4597 19.1874C17.7219 18.9252 17.9845 18.6635 18.2472 18.4018C18.5217 18.1283 18.7957 17.8543 19.0698 17.5804C19.5889 17.0618 20.1083 16.5435 20.628 16.0254C21.2195 15.4356 21.8106 14.8453 22.4016 14.255C23.6176 13.0406 24.834 11.8268 26.0508 10.6133Z" fill="#2196F2"/>
<path d="M32.8789 15.0664C33.105 16.0318 33.2858 17.1715 32.8789 18.1094C32.5191 18.5642 32.0251 18.8896 31.5672 19.239C30.4782 20.0782 29.5124 21.0214 29.2994 22.4279C29.1231 23.8547 29.1982 25.3111 29.2738 26.7426C29.3115 27.4682 29.3261 28.194 29.3412 28.9204C29.3572 29.6626 29.3752 30.4045 29.4073 31.1463C29.4097 31.2028 29.412 31.2593 29.4145 31.3176C29.4255 31.581 29.4374 31.8443 29.4509 32.1076C29.4896 32.9993 29.3783 33.7895 28.7621 34.479C28.0982 35.1039 27.3415 35.289 26.4503 35.2807C26.3745 35.2809 26.2987 35.2811 26.2206 35.2813C25.9685 35.2816 25.7165 35.2804 25.4644 35.2792C25.2829 35.2791 25.1015 35.2792 24.92 35.2793C24.5304 35.2793 24.1407 35.2787 23.751 35.2774C23.1877 35.2756 22.6243 35.2751 22.0609 35.2748C21.1467 35.2743 20.2325 35.2728 19.3183 35.2707C18.4306 35.2687 17.5429 35.2671 16.6553 35.2661C16.6005 35.2661 16.5457 35.266 16.4892 35.266C16.2144 35.2657 15.9395 35.2654 15.6647 35.2651C13.3871 35.2628 11.1096 35.2588 8.83203 35.2539C8.83203 34.5436 8.83203 33.8334 8.83203 33.1016C9.03166 33.1013 9.23129 33.101 9.43696 33.1007C11.3186 33.0981 13.2001 33.0937 15.0817 33.0879C16.049 33.085 17.0164 33.0826 17.9837 33.0814C18.8271 33.0805 19.6705 33.0785 20.5138 33.0752C20.9602 33.0736 21.4065 33.0724 21.8528 33.0725C22.2735 33.0725 22.6941 33.0712 23.1147 33.0688C23.2686 33.0682 23.4225 33.0681 23.5763 33.0685C24.6719 33.0711 25.661 33.0622 26.4888 32.2492C26.8591 31.8052 27.1174 31.2915 27.0688 30.7092C27.0625 30.6285 27.0561 30.5479 27.0496 30.4648C27.0423 30.3761 27.0351 30.2874 27.0276 30.196C26.9276 28.8665 26.8597 27.5365 26.8162 26.2039C26.8142 26.1446 26.8122 26.0853 26.8102 26.0242C26.639 20.6799 26.639 20.6799 28.3611 18.788C28.6551 18.4827 28.9675 18.204 29.2932 17.9331C29.3457 17.8894 29.3982 17.8457 29.4523 17.8007C30.0492 17.3115 30.6683 16.8706 31.3293 16.4724C31.5537 16.3208 31.7288 16.1539 31.9141 15.957C31.9748 15.8957 31.9748 15.8957 32.0368 15.8331C32.0717 15.7978 32.1066 15.7624 32.1425 15.726C32.221 15.6468 32.2995 15.5677 32.3779 15.4885C32.4181 15.4477 32.4583 15.4069 32.4997 15.3649C32.7963 15.0664 32.7963 15.0664 32.8789 15.0664Z" fill="#9EBBFA"/>
<path d="M32.8066 6.12409C32.9474 6.25325 33.0798 6.38714 33.2112 6.52593C33.2598 6.57534 33.3084 6.62476 33.3585 6.67567C33.512 6.83221 33.664 6.99021 33.8159 7.14838C33.9687 7.30542 34.1217 7.46213 34.275 7.6187C34.3697 7.71567 34.464 7.81296 34.558 7.91065C34.8344 8.19614 35.1212 8.46295 35.4226 8.72182C35.9753 9.19791 36.5397 9.71891 36.6641 10.465C36.6914 11.1581 36.4616 11.5853 36.0111 12.1026C35.8666 12.254 35.7192 12.4017 35.5699 12.5484C35.5159 12.6022 35.462 12.656 35.4064 12.7115C35.293 12.8244 35.1793 12.937 35.0654 13.0494C34.8925 13.2199 34.7205 13.3913 34.5485 13.5628C34.4375 13.6731 34.3265 13.7834 34.2154 13.8936C34.1647 13.944 34.114 13.9944 34.0617 14.0464C33.7279 14.3753 33.3825 14.6869 33.0273 14.9924C32.9018 15.1033 32.7765 15.2146 32.6516 15.3264C32.5893 15.382 32.527 15.4377 32.4629 15.4951C32.2578 15.6858 32.0677 15.8872 31.8822 16.097C31.7656 16.1799 31.7656 16.1799 31.6297 16.1819C31.3877 16.0672 31.2204 15.8833 31.0374 15.6928C31.0006 15.6556 30.9638 15.6185 30.9259 15.5802C30.7294 15.3797 30.5422 15.1739 30.3606 14.9599C29.9772 14.5207 29.5604 14.1139 29.1474 13.7028C29.0599 13.6155 28.9725 13.5281 28.885 13.4408C28.6567 13.2127 28.4281 12.9849 28.1995 12.757C27.9655 12.5238 27.7317 12.2904 27.4979 12.057C27.0405 11.6003 26.5828 11.1439 26.125 10.6877C26.2621 10.3888 26.4608 10.1892 26.6956 9.96405C26.9406 9.72744 27.1768 9.48879 27.3983 9.22969C27.6966 8.887 28.0127 8.56404 28.333 8.24194C28.3936 8.18089 28.4543 8.11983 28.5167 8.05693C28.6441 7.92884 28.7716 7.80086 28.8992 7.67298C29.0937 7.47777 29.2874 7.28177 29.4811 7.08575C29.6055 6.96085 29.73 6.83599 29.8545 6.71118C29.9119 6.65289 29.9693 6.59459 30.0284 6.53453C30.8371 5.72909 31.8035 5.37538 32.8066 6.12409Z" fill="#FD7EBD"/>
<path d="M11.2812 0.445312C11.2882 1.40601 11.2934 2.36671 11.2966 3.32743C11.2982 3.77361 11.3003 4.21977 11.3036 4.66594C11.3069 5.09712 11.3087 5.52829 11.3094 5.95948C11.31 6.12337 11.311 6.28726 11.3126 6.45115C11.3329 8.60214 11.3329 8.60214 10.5486 9.49333C9.96142 10.0698 9.20896 10.2661 8.39847 10.2699C8.33062 10.2691 8.26276 10.2683 8.19285 10.2675C8.1189 10.2675 8.04494 10.2675 7.96874 10.2676C7.72739 10.2674 7.48608 10.2657 7.24474 10.2639C7.07617 10.2635 6.90761 10.2632 6.73905 10.263C6.29773 10.2621 5.85642 10.2599 5.4151 10.2575C4.96384 10.2552 4.51257 10.2542 4.0613 10.2531C3.17758 10.2507 2.29387 10.2469 1.41016 10.2422C1.82681 9.73431 2.29124 9.27588 2.7553 8.81205C2.84654 8.72058 2.93777 8.6291 3.02898 8.53761C3.2755 8.29043 3.52227 8.04349 3.7691 7.79661C3.92328 7.64238 4.07741 7.48809 4.23152 7.33379C4.76903 6.79559 5.30673 6.25758 5.84462 5.71975C6.3464 5.21801 6.84777 4.71586 7.34895 4.21351C7.77939 3.78211 8.2101 3.35099 8.64105 2.92009C8.8984 2.66275 9.15565 2.4053 9.4126 2.14756C9.65376 1.90569 9.89526 1.66417 10.137 1.42293C10.2259 1.33414 10.3147 1.24521 10.4033 1.15616C10.5238 1.0351 10.6447 0.914506 10.7658 0.79402C10.8335 0.726281 10.9012 0.658541 10.9709 0.588749C11.1328 0.445312 11.1328 0.445312 11.2812 0.445312Z" fill="#2397F3"/>
<path d="M16.0311 20.6328C16.0955 20.6806 16.1599 20.7285 16.2263 20.7778C16.6455 21.0173 17.1149 20.9799 17.5851 20.9854C17.6783 20.9876 17.7716 20.9898 17.8676 20.992C18.0966 20.9972 18.3255 21.0012 18.5546 21.0039C18.5557 21.0604 18.5567 21.1169 18.5579 21.1752C18.5634 21.432 18.5706 21.6888 18.5778 21.9456C18.5803 22.0789 18.5803 22.0789 18.5828 22.215C18.5855 22.3009 18.5881 22.3868 18.5908 22.4752C18.5928 22.5541 18.5947 22.633 18.5967 22.7143C18.6326 22.9592 18.7171 23.0997 18.8515 23.3047C18.8515 23.3537 18.8515 23.4027 18.8515 23.4531C18.8974 23.4761 18.9433 23.499 18.9906 23.5227C19.0927 23.5737 19.1947 23.6248 19.2968 23.6758C19.4475 23.6872 19.5985 23.6943 19.7496 23.6993C19.8396 23.7024 19.9295 23.7055 20.0221 23.7087C20.1165 23.7116 20.2108 23.7145 20.308 23.7175C20.4029 23.7207 20.4978 23.7239 20.5956 23.7272C20.8306 23.7351 21.0656 23.7427 21.3007 23.75C21.3018 23.8039 21.3028 23.8578 21.304 23.9133C21.3095 24.1588 21.3167 24.4044 21.3239 24.6499C21.3255 24.7347 21.3272 24.8194 21.3289 24.9068C21.3431 25.3484 21.3667 25.6633 21.5976 26.0508C21.5976 26.3979 21.5599 26.4232 21.3262 26.6584C21.2398 26.7454 21.2398 26.7454 21.1517 26.8341C21.0906 26.894 21.0296 26.9539 20.9667 27.0156C20.9079 27.0755 20.8492 27.1354 20.7887 27.1971C20.7303 27.2551 20.672 27.3131 20.6118 27.3728C20.559 27.4253 20.5061 27.4779 20.4517 27.532C19.8646 28.0003 19.3578 28.0237 18.6163 28.0173C18.5149 28.0173 18.4135 28.0174 18.312 28.0176C18.1005 28.0177 17.889 28.0168 17.6775 28.0151C17.4069 28.013 17.1365 28.0132 16.8659 28.0141C16.6569 28.0147 16.4479 28.0141 16.2388 28.0132C16.0908 28.0127 15.9427 28.013 15.7947 28.0133C15.7045 28.0124 15.6143 28.0114 15.5214 28.0105C15.4027 28.0099 15.4027 28.0099 15.2816 28.0092C14.9428 27.964 14.7535 27.8226 14.5282 27.5723C14.3324 27.2926 14.3142 27.0817 14.311 26.7486C14.31 26.6633 14.3091 26.5781 14.3081 26.4902C14.3075 26.3979 14.307 26.3056 14.3064 26.2105C14.3058 26.1154 14.3052 26.0203 14.3046 25.9223C14.3035 25.7206 14.3028 25.5189 14.3022 25.3172C14.3014 25.0606 14.2988 24.804 14.2959 24.5474C14.2935 24.3008 14.2931 24.0543 14.2925 23.8077C14.2912 23.7164 14.2899 23.6252 14.2886 23.5312C14.2902 22.8763 14.3808 22.3575 14.7841 21.8293C14.8417 21.7741 14.8992 21.7189 14.9585 21.662C15.0211 21.6008 15.0838 21.5396 15.1483 21.4765C15.2131 21.4154 15.2779 21.3544 15.3446 21.2915C15.4105 21.2276 15.4765 21.1637 15.5444 21.0978C15.7057 20.9418 15.8679 20.7868 16.0311 20.6328Z" fill="#FEB6BC"/>
<path d="M6.95649 13.6078C7.12464 13.6098 7.29243 13.6079 7.46058 13.6055C8.18507 13.6037 8.74218 13.7002 9.30967 14.1804C9.36707 14.2516 9.36707 14.2516 9.42564 14.3242C9.46544 14.3717 9.50524 14.4191 9.54624 14.468C9.77988 14.8185 9.82032 15.1406 9.82166 15.5543C9.8224 15.6349 9.8224 15.6349 9.82316 15.7171C9.82391 15.8306 9.82426 15.9441 9.82424 16.0575C9.82456 16.2289 9.82725 16.4001 9.83007 16.5715C9.83545 17.2637 9.79719 17.8662 9.36446 18.4361C9.31883 18.4737 9.27319 18.5113 9.22617 18.55C9.18149 18.589 9.13682 18.6279 9.09078 18.668C8.50638 19.0139 7.91165 19.0394 7.24551 19.0372C7.09285 19.0371 6.94046 19.0402 6.78783 19.0435C6.10168 19.0497 5.55739 18.9564 5.0366 18.4855C4.48767 17.9313 4.42385 17.3052 4.41891 16.5496C4.41944 16.452 4.41997 16.3544 4.42051 16.2539C4.41903 16.1563 4.41754 16.0587 4.41602 15.9582C4.41637 15.2613 4.52964 14.8094 4.90757 14.2314C5.5101 13.6551 6.15887 13.5966 6.95649 13.6078Z" fill="#5CB775"/>
<path d="M6.91094 22.5252C7.0633 22.5253 7.21537 22.5222 7.36769 22.5189C8.05709 22.5126 8.74202 22.5931 9.27975 23.066C9.67376 23.4908 9.83155 23.9285 9.82923 24.5054C9.82962 24.5627 9.83001 24.6199 9.83041 24.6789C9.83088 24.7996 9.83079 24.9202 9.83015 25.0408C9.82952 25.2239 9.83166 25.4069 9.83401 25.59C9.83413 25.7078 9.83409 25.8256 9.83387 25.9434C9.8347 25.9974 9.83554 26.0513 9.8364 26.107C9.82944 26.6268 9.62909 27.0777 9.25896 27.4469C9.22031 27.4872 9.18166 27.5274 9.14184 27.5689C8.58364 27.9655 7.98405 27.9408 7.3283 27.9351C7.16265 27.934 6.99713 27.9351 6.83149 27.9366C6.09812 27.9377 5.50432 27.8883 4.93862 27.373C4.45411 26.8011 4.43336 26.1 4.42732 25.3885C4.42609 25.2835 4.42408 25.1785 4.42123 25.0735C4.40121 24.3311 4.44471 23.7118 4.97214 23.1461C5.56292 22.581 6.12102 22.5226 6.91094 22.5252Z" fill="#5CB775"/>
<path d="M30.5038 15.1406C30.5866 15.2112 30.6694 15.2818 30.7522 15.3524C30.7984 15.3918 30.8445 15.4311 30.892 15.4716C31.0526 15.6114 31.2034 15.7588 31.3526 15.9106C31.403 15.9617 31.4535 16.0128 31.5054 16.0655C31.5422 16.1032 31.5791 16.1409 31.617 16.1797C31.4992 16.4698 31.3005 16.6651 31.0816 16.8814C31.0418 16.9213 31.002 16.9613 30.9609 17.0025C30.8274 17.1362 30.6933 17.2695 30.5592 17.4028C30.4634 17.4986 30.3676 17.5944 30.2718 17.6903C30.0116 17.9505 29.751 18.2103 29.4903 18.47C29.2179 18.7414 28.9459 19.0132 28.674 19.2851C28.1588 19.7998 27.6433 20.3141 27.1276 20.8282C26.5406 21.4136 25.954 21.9994 25.3674 22.5853C24.1607 23.7904 22.9535 24.995 21.7459 26.1992C21.3528 25.8262 21.2681 25.5556 21.2432 25.0224C21.2331 24.4485 21.3722 24.1346 21.7637 23.7232C21.8889 23.5985 22.017 23.4772 22.1454 23.3557C22.2364 23.2651 22.327 23.1742 22.4175 23.0831C22.6619 22.8383 22.91 22.5976 23.159 22.3574C23.4192 22.1052 23.6758 21.8493 23.9328 21.5938C24.4192 21.1112 24.9088 20.632 25.3995 20.154C25.9584 19.6092 26.5137 19.0608 27.0688 18.5121C28.2098 17.3842 29.3553 16.2609 30.5038 15.1406Z" fill="#2979FE"/>
<path d="M27.7578 8.83203C27.9747 8.93003 28.1284 9.03571 28.2961 9.20401C28.3651 9.27269 28.3651 9.27269 28.4355 9.34277C28.5098 9.41796 28.5098 9.41796 28.5857 9.49467C28.6386 9.54754 28.6915 9.60041 28.746 9.65487C28.9206 9.82961 29.0948 10.0049 29.2689 10.1801C29.3899 10.3014 29.5109 10.4227 29.632 10.5439C29.9505 10.863 30.2686 11.1826 30.5866 11.5022C30.9112 11.8283 31.2363 12.154 31.5612 12.4798C32.1988 13.1189 32.8359 13.7585 33.4727 14.3984C33.362 14.6312 33.2537 14.78 33.063 14.9548C32.9859 15.0262 32.9859 15.0262 32.9072 15.099C32.8535 15.148 32.7997 15.1969 32.7444 15.2473C32.6387 15.3446 32.5331 15.4419 32.4275 15.5393C32.3772 15.5851 32.3269 15.6309 32.2751 15.6781C32.154 15.7923 32.0432 15.9104 31.9317 16.0339C31.7656 16.1797 31.7656 16.1797 31.621 16.1916C31.3912 16.0616 31.2186 15.8813 31.0374 15.6926C31.0006 15.6555 30.9638 15.6183 30.9259 15.58C30.7294 15.3795 30.5422 15.1737 30.3606 14.9597C29.9772 14.5205 29.5604 14.1137 29.1474 13.7026C29.0599 13.6153 28.9725 13.528 28.885 13.4406C28.6567 13.2125 28.4281 12.9847 28.1995 12.7569C27.9655 12.5236 27.7317 12.2902 27.4979 12.0568C27.0405 11.6001 26.5828 11.1437 26.125 10.6875C26.2621 10.3886 26.461 10.1892 26.6956 9.96387C27.0423 9.62464 27.37 9.27666 27.6836 8.90625C27.7081 8.88176 27.7326 8.85727 27.7578 8.83203Z" fill="#FEC35C"/>
<path d="M35.1797 8.53516C36.5679 9.65178 36.5679 9.65178 36.6641 10.4648C36.7023 11.1576 36.4578 11.5919 36.007 12.106C35.8569 12.2623 35.7039 12.4149 35.549 12.5665C35.4937 12.6215 35.4383 12.6766 35.3812 12.7333C35.2063 12.907 35.0307 13.0798 34.855 13.2527C34.7354 13.3712 34.6158 13.4897 34.4964 13.6083C34.2052 13.897 33.9134 14.1851 33.6211 14.4727C33.4136 14.3727 33.2619 14.2799 33.1004 14.1149C33.0416 14.0553 33.0416 14.0553 32.9815 13.9946C32.9415 13.9533 32.9016 13.9121 32.8604 13.8696C32.8192 13.8278 32.7781 13.786 32.7357 13.7429C32.6346 13.6402 32.5341 13.5369 32.4336 13.4336C32.5347 13.2066 32.648 13.0536 32.8258 12.8808C32.8754 12.8322 32.9249 12.7836 32.976 12.7336C33.0295 12.6818 33.083 12.63 33.1381 12.5766C33.2513 12.4653 33.3644 12.354 33.4776 12.2426C33.6558 12.0681 33.8342 11.8938 34.0131 11.7199C34.186 11.5515 34.3579 11.3822 34.5297 11.2128C34.5829 11.1616 34.6361 11.1104 34.6909 11.0577C35.0557 10.6965 35.3493 10.337 35.4366 9.81485C35.4237 9.4596 35.389 9.1658 35.2539 8.83203C35.2281 8.73335 35.2031 8.63443 35.1797 8.53516Z" fill="#E859AD"/>
<path d="M14.3244 23.8984C14.8021 24.2923 15.237 24.7261 15.6739 25.1639C15.753 25.243 15.8322 25.3221 15.9113 25.4011C16.076 25.5657 16.2406 25.7305 16.4051 25.8953C16.6164 26.1071 16.8281 26.3185 17.0398 26.5297C17.2028 26.6924 17.3655 26.8553 17.5282 27.0181C17.6063 27.0962 17.6844 27.1743 17.7625 27.2523C17.871 27.3606 17.9794 27.4692 18.0876 27.5779C18.1493 27.6396 18.211 27.7014 18.2746 27.7651C18.4064 27.9062 18.4064 27.9062 18.4064 27.9805C17.9375 27.9861 17.4687 27.99 16.9998 27.9927C16.8404 27.9938 16.6809 27.9953 16.5215 27.9973C16.2921 28 16.0628 28.0012 15.8334 28.0022C15.7622 28.0034 15.6911 28.0045 15.6178 28.0057C15.2493 28.0058 14.9925 28.0017 14.6954 27.7578C14.4255 27.4579 14.3148 27.2412 14.3159 26.839C14.3159 26.7736 14.3159 26.7083 14.3159 26.6409C14.3163 26.5707 14.3167 26.5004 14.3171 26.428C14.3172 26.3558 14.3173 26.2836 14.3174 26.2093C14.3178 25.9786 14.3188 25.748 14.3197 25.5173C14.3201 25.361 14.3204 25.2047 14.3207 25.0484C14.3215 24.6651 14.3228 24.2818 14.3244 23.8984Z" fill="#495C66"/>
<path d="M19.5195 23.75C20.1073 23.75 20.6952 23.75 21.3008 23.75C21.3049 23.9432 21.3049 23.9432 21.3092 24.1402C21.3141 24.3101 21.319 24.48 21.324 24.6499C21.3265 24.7771 21.3265 24.7771 21.329 24.9068C21.3432 25.3484 21.3668 25.6633 21.5977 26.0508C21.5977 26.3979 21.5601 26.4232 21.3263 26.6584C21.2399 26.7454 21.2399 26.7454 21.1518 26.8341C21.0907 26.894 21.0297 26.9539 20.9668 27.0156C20.9081 27.0755 20.8493 27.1354 20.7888 27.1971C20.2091 27.773 19.7194 28.0484 18.9016 28.0679C18.3368 28.0399 18.0383 27.7176 17.6726 27.3176C17.3672 26.9643 17.3672 26.9643 17.3672 26.8672C17.4389 26.8661 17.5107 26.8651 17.5846 26.864C17.6813 26.8605 17.7779 26.8569 17.8774 26.8533C18.0195 26.8494 18.0195 26.8494 18.1645 26.8454C18.905 26.761 19.4087 26.2874 19.8999 25.7678C19.9851 25.6801 19.9851 25.6801 20.0721 25.5905C20.2104 25.4479 20.3478 25.3045 20.4844 25.1602C20.4106 25.0111 20.3366 24.8645 20.253 24.7206C20.1719 24.5298 20.1728 24.3833 20.1782 24.1768C20.1796 24.1106 20.1809 24.0443 20.1823 23.9761C20.184 23.926 20.1857 23.8759 20.1875 23.8242C19.9671 23.8242 19.7466 23.8242 19.5195 23.8242C19.5195 23.7997 19.5195 23.7752 19.5195 23.75Z" fill="#FBA1BD"/>
<path d="M14.3445 9.62973C14.4153 9.62977 14.4861 9.62981 14.5591 9.62985C14.6809 9.62938 14.6809 9.62938 14.8051 9.62891C14.8945 9.62932 14.984 9.62974 15.0762 9.63017C15.17 9.63003 15.2639 9.62989 15.3607 9.62974C15.6186 9.62938 15.8765 9.62995 16.1344 9.6307C16.404 9.63136 16.6735 9.63123 16.9431 9.6312C17.3958 9.63127 17.8485 9.63191 18.3013 9.63292C18.8251 9.63409 19.349 9.63448 19.8729 9.63443C20.3762 9.63438 20.8796 9.63476 21.3829 9.63538C21.5974 9.63564 21.8119 9.63578 22.0264 9.63582C22.3257 9.6359 22.6249 9.63662 22.9242 9.63742C23.0584 9.63737 23.0584 9.63737 23.1953 9.63732C23.2765 9.63763 23.3576 9.63795 23.4413 9.63828C23.5475 9.63846 23.5475 9.63846 23.6559 9.63865C23.8244 9.6482 23.8244 9.6482 23.9728 9.72242C23.976 9.87082 23.9759 10.0193 23.9728 10.1677C23.8474 10.2932 23.6901 10.2513 23.5183 10.2514C23.4358 10.2516 23.3534 10.2518 23.2685 10.252C23.1773 10.2519 23.086 10.2517 22.9921 10.2516C22.8966 10.2517 22.8012 10.2518 22.7028 10.2519C22.4403 10.2523 22.1778 10.2522 21.9153 10.2519C21.6411 10.2517 21.367 10.2519 21.0928 10.252C20.6324 10.2522 20.1719 10.252 19.7114 10.2516C19.1783 10.2512 18.6452 10.2514 18.1121 10.2518C17.6552 10.2521 17.1983 10.2521 16.7414 10.252C16.4681 10.2518 16.1949 10.2518 15.9217 10.2521C15.6172 10.2523 15.3128 10.252 15.0083 10.2516C14.8715 10.2518 14.8715 10.2518 14.7319 10.252C14.6082 10.2517 14.6082 10.2517 14.4821 10.2514C14.41 10.2513 14.3379 10.2513 14.2637 10.2513C14.1017 10.2419 14.1017 10.2419 14.0275 10.1677C14.0136 9.98682 14.0136 9.98682 14.0275 9.79664C14.176 9.6482 14.176 9.6482 14.3445 9.62973Z" fill="#475C66"/>
<path d="M32.2852 13.2852C32.7053 13.6338 33.0906 14.0086 33.4727 14.3984C33.3697 14.6337 33.2518 14.7818 33.063 14.9548C33.0116 15.0024 32.9602 15.05 32.9072 15.099C32.8535 15.148 32.7997 15.1969 32.7444 15.2473C32.6387 15.3446 32.5331 15.4419 32.4275 15.5393C32.3772 15.5851 32.3269 15.6309 32.2751 15.6781C32.154 15.7923 32.0432 15.9104 31.9317 16.0339C31.8495 16.106 31.8495 16.106 31.7656 16.1797C31.5288 16.1546 31.4079 16.0716 31.2449 15.9034C31.2057 15.8635 31.1665 15.8235 31.1261 15.7824C31.0861 15.7405 31.0461 15.6986 31.0049 15.6555C30.9637 15.6134 30.9226 15.5712 30.8802 15.5278C30.779 15.424 30.6785 15.3195 30.5781 15.2148C30.6919 14.9439 30.8543 14.774 31.0632 14.5695C31.1293 14.5041 31.1955 14.4388 31.2636 14.3715C31.3329 14.3038 31.4021 14.2362 31.4734 14.1665C31.6105 14.032 31.7474 13.8972 31.8842 13.7624C31.9755 13.6731 31.9755 13.6731 32.0686 13.582C32.2148 13.4443 32.2148 13.4443 32.2852 13.2852Z" fill="#FCA051"/>
<path d="M14.3984 26.8672C14.8021 26.8412 15.2053 26.8225 15.6097 26.8101C15.7467 26.805 15.8836 26.7979 16.0204 26.7888C17.2153 26.7116 17.2153 26.7116 17.6958 27.1005C17.9608 27.3489 18.1895 27.6151 18.4062 27.9063C18.4062 27.9308 18.4062 27.9553 18.4062 27.9805C17.9374 27.9861 17.4685 27.99 16.9997 27.9927C16.8402 27.9938 16.6807 27.9954 16.5213 27.9973C16.2919 28 16.0626 28.0012 15.8332 28.0022C15.7621 28.0034 15.6909 28.0045 15.6176 28.0057C15.1332 28.0058 14.8782 27.9358 14.5236 27.5908C14.3664 27.3346 14.389 27.1627 14.3984 26.8672Z" fill="#453E64"/>
<path d="M12.5937 14.5359C12.6839 14.5355 12.774 14.535 12.8669 14.5345C12.9661 14.5344 13.0653 14.5343 13.1644 14.5343C13.2655 14.534 13.3665 14.5338 13.4676 14.5335C13.6796 14.5331 13.8917 14.5329 14.1038 14.533C14.3759 14.533 14.648 14.532 14.9202 14.5307C15.129 14.5299 15.3377 14.5297 15.5465 14.5298C15.6468 14.5297 15.7472 14.5293 15.8475 14.5288C15.9877 14.528 16.1279 14.5283 16.2681 14.5287C16.348 14.5286 16.4279 14.5285 16.5102 14.5284C16.6994 14.5467 16.6994 14.5467 16.8478 14.6952C16.8293 14.8853 16.8293 14.8853 16.7736 15.0663C16.5772 15.1645 16.4287 15.1504 16.2087 15.1513C16.1215 15.1517 16.0344 15.1522 15.9445 15.1527C15.85 15.1528 15.7554 15.1529 15.658 15.1529C15.5614 15.1532 15.4648 15.1534 15.3652 15.1537C15.1606 15.1541 14.9559 15.1543 14.7513 15.1542C14.4887 15.1542 14.2262 15.1552 13.9636 15.1565C13.7135 15.1575 13.4635 15.1575 13.2134 15.1576C13.1189 15.1581 13.0243 15.1586 12.9269 15.1592C12.8397 15.159 12.7526 15.1587 12.6627 15.1585C12.5472 15.1587 12.5472 15.1587 12.4294 15.1588C12.2463 15.1405 12.2463 15.1405 12.0978 14.992C12.0839 14.8019 12.0839 14.8019 12.0978 14.6209C12.2288 14.49 12.4162 14.5366 12.5937 14.5359Z" fill="#4C606B"/>
<path d="M14.5708 6.9564C14.6945 6.95534 14.6945 6.95534 14.8208 6.95426C14.9549 6.95436 14.9549 6.95436 15.0918 6.95446C15.2291 6.95399 15.2291 6.95399 15.3691 6.9535C15.6127 6.95296 15.8563 6.9532 16.0999 6.95362C16.2492 6.95359 16.3985 6.95285 16.5478 6.95184C16.8341 6.95002 17.1203 6.94971 17.4065 6.94983C17.5405 6.9488 17.5405 6.9488 17.6771 6.94775C17.8012 6.94845 17.8012 6.94845 17.9278 6.94915C18.0371 6.94908 18.0371 6.94908 18.1487 6.94901C18.3322 6.97679 18.3322 6.97679 18.47 7.07999C18.5549 7.19944 18.5549 7.19944 18.5363 7.35716C18.4807 7.49632 18.4807 7.49632 18.4064 7.57054C18.2725 7.57788 18.1382 7.58004 18.004 7.58014C17.9181 7.58037 17.8322 7.58061 17.7436 7.58085C17.6033 7.58062 17.6033 7.58062 17.4601 7.58039C17.3649 7.58047 17.2696 7.58054 17.1715 7.58061C16.9696 7.58072 16.7677 7.58056 16.5658 7.58021C16.3064 7.57979 16.0471 7.58003 15.7878 7.58048C15.5412 7.58081 15.2946 7.58058 15.048 7.58039C14.9545 7.58054 14.8609 7.5807 14.7646 7.58085C14.6786 7.58062 14.5927 7.58038 14.5042 7.58014C14.4281 7.58008 14.352 7.58002 14.2736 7.57996C14.1017 7.57054 14.1017 7.57054 14.0275 7.49632C14.0136 7.31541 14.0136 7.31541 14.0275 7.12523C14.2207 6.93202 14.3018 6.95767 14.5708 6.9564Z" fill="#495D68"/>
<path d="M8.23841 24.492C8.28915 24.6599 8.28915 24.6599 8.31263 24.8631C8.2271 25.0083 8.2271 25.0083 8.09461 25.1461C8.04649 25.1964 7.99837 25.2467 7.94878 25.2986C7.89741 25.3508 7.84603 25.403 7.7931 25.4568C7.71948 25.5398 7.71948 25.5398 7.64437 25.6244C7.42028 25.8691 7.24709 26.0301 6.93958 26.1619C6.58678 26.1115 6.44007 25.9544 6.20551 25.6949C6.056 25.4898 5.99972 25.3404 6.01185 25.0858C6.06083 25.0368 6.10982 24.9878 6.16029 24.9373C6.41137 24.9505 6.51377 24.9958 6.70301 25.1646C6.74434 25.2121 6.78567 25.2595 6.82826 25.3084C7.17237 25.1667 7.37063 24.9054 7.61393 24.6329C7.83658 24.4578 7.96206 24.4641 8.23841 24.492Z" fill="#D1DBF2"/>
<path d="M16.7734 21.0039C17.3613 21.0039 17.9491 21.0039 18.5547 21.0039C18.5547 21.5917 18.5547 22.1795 18.5547 22.7852C18.5302 22.7362 18.5057 22.6872 18.4805 22.6367C18.384 22.6459 18.384 22.6459 18.2856 22.6553C17.9608 22.6312 17.8308 22.5594 17.5898 22.3398C17.3749 21.9301 17.3424 21.533 17.3672 21.0781C17.1712 21.0781 16.9753 21.0781 16.7734 21.0781C16.7734 21.0536 16.7734 21.0291 16.7734 21.0039Z" fill="#F5A2BF"/>
<path d="M8.23813 15.5857C8.29122 15.7516 8.29122 15.7516 8.31235 15.9568C8.21084 16.1159 8.21084 16.1159 8.05665 16.2717C8.00116 16.3277 7.94567 16.3838 7.88849 16.4416C7.82937 16.499 7.77024 16.5564 7.70932 16.6155C7.65192 16.6746 7.59452 16.7338 7.53537 16.7947C7.47931 16.8502 7.42325 16.9057 7.36548 16.9628C7.3141 17.0137 7.26271 17.0646 7.20976 17.117C7.05063 17.2185 7.05063 17.2185 6.85681 17.2062C6.62336 17.1247 6.49652 17.0033 6.32236 16.8289C6.26371 16.7719 6.20507 16.7148 6.14464 16.6561C5.99216 16.4501 5.97575 16.3556 6.01157 16.1053C6.08579 16.031 6.08579 16.031 6.25742 16.0078C6.5151 16.0378 6.57503 16.1492 6.75376 16.3279C7.05334 16.3119 7.19642 16.1284 7.3939 15.9197C7.80887 15.4841 7.80887 15.4841 8.23813 15.5857Z" fill="#D2DBF4"/>
<path d="M12.6086 17.3566C12.6696 17.3568 12.7307 17.3569 12.7936 17.3571C12.856 17.357 12.9183 17.357 12.9825 17.3569C13.1145 17.3568 13.2465 17.357 13.3785 17.3573C13.5813 17.3577 13.7841 17.3573 13.9869 17.3568C14.1149 17.3569 14.2428 17.357 14.3708 17.3571C14.4319 17.357 14.4929 17.3568 14.5559 17.3566C14.9838 17.3584 14.9838 17.3584 15.0666 17.4412C15.0851 17.6221 15.0851 17.6221 15.0666 17.8123C14.791 17.996 14.5781 17.9822 14.2592 17.9804C14.1737 17.9806 14.1737 17.9806 14.0865 17.9809C13.9661 17.981 13.8458 17.9807 13.7255 17.9801C13.5409 17.9793 13.3564 17.9801 13.1718 17.981C13.055 17.9809 12.9381 17.9807 12.8212 17.9804C12.7381 17.9809 12.7381 17.9809 12.6534 17.9813C12.2633 17.9778 12.2633 17.9778 12.0978 17.8123C12.0839 17.6221 12.0839 17.6221 12.0978 17.4412C12.2346 17.3044 12.4266 17.3574 12.6086 17.3566Z" fill="#4E626D"/>
<path d="M27.7578 8.83203C27.8313 8.85652 27.9048 8.88102 27.9805 8.90625C27.3867 9.5 26.793 10.0938 26.1992 10.6875C26.1992 10.4648 26.1992 10.4648 26.392 10.2529C26.4772 10.17 26.563 10.0876 26.6492 10.0056C26.7379 9.91927 26.8265 9.83278 26.915 9.74614C26.9579 9.70415 27.0009 9.66216 27.0451 9.6189C27.2713 9.39284 27.4777 9.15061 27.6836 8.90625C27.7081 8.88176 27.7326 8.85727 27.7578 8.83203Z" fill="#DFBB73"/>
<path d="M28.2773 8.3125C28.3508 8.33699 28.4243 8.36148 28.5 8.38672C28.3286 8.55816 28.1571 8.72961 27.9805 8.90625C27.9315 8.85727 27.8825 8.80828 27.832 8.75781C27.979 8.61086 28.1259 8.46391 28.2773 8.3125Z" fill="#F483B9"/>
<path d="M25.5312 3.41406C25.7272 3.41406 25.9231 3.41406 26.125 3.41406C26.125 3.53652 26.125 3.65898 26.125 3.78516C25.9291 3.78516 25.7331 3.78516 25.5312 3.78516C25.5312 3.6627 25.5312 3.54023 25.5312 3.41406Z" fill="#9DAFED"/>
<path d="M24.0469 3.41406C24.2428 3.41406 24.4387 3.41406 24.6406 3.41406C24.6406 3.53652 24.6406 3.65898 24.6406 3.78516C24.4447 3.78516 24.2488 3.78516 24.0469 3.78516C24.0469 3.6627 24.0469 3.54023 24.0469 3.41406Z" fill="#9DAFED"/>
<path d="M22.5625 3.41406C22.7584 3.41406 22.9544 3.41406 23.1562 3.41406C23.1562 3.53652 23.1562 3.65898 23.1562 3.78516C22.9603 3.78516 22.7644 3.78516 22.5625 3.78516C22.5625 3.6627 22.5625 3.54023 22.5625 3.41406Z" fill="#9DAFED"/>
<path d="M21.0781 3.41406C21.2741 3.41406 21.47 3.41406 21.6719 3.41406C21.6719 3.53652 21.6719 3.65898 21.6719 3.78516C21.4759 3.78516 21.28 3.78516 21.0781 3.78516C21.0781 3.6627 21.0781 3.54023 21.0781 3.41406Z" fill="#9DAFED"/>
<path d="M19.5938 3.41406C19.7897 3.41406 19.9856 3.41406 20.1875 3.41406C20.1875 3.53652 20.1875 3.65898 20.1875 3.78516C19.9916 3.78516 19.7956 3.78516 19.5938 3.78516C19.5938 3.6627 19.5938 3.54023 19.5938 3.41406Z" fill="#9DAFED"/>
<path d="M18.1094 3.41406C18.3053 3.41406 18.5012 3.41406 18.7031 3.41406C18.7031 3.53652 18.7031 3.65898 18.7031 3.78516C18.5072 3.78516 18.3113 3.78516 18.1094 3.78516C18.1094 3.6627 18.1094 3.54023 18.1094 3.41406Z" fill="#9DAFED"/>
<path d="M16.625 3.41406C16.8209 3.41406 17.0169 3.41406 17.2188 3.41406C17.2188 3.53652 17.2188 3.65898 17.2188 3.78516C17.0228 3.78516 16.8269 3.78516 16.625 3.78516C16.625 3.6627 16.625 3.54023 16.625 3.41406Z" fill="#9DAFED"/>
<path d="M15.1406 3.41406C15.3366 3.41406 15.5325 3.41406 15.7344 3.41406C15.7344 3.53652 15.7344 3.65898 15.7344 3.78516C15.5384 3.78516 15.3425 3.78516 15.1406 3.78516C15.1406 3.6627 15.1406 3.54023 15.1406 3.41406Z" fill="#9DAFED"/>
<path d="M13.6562 3.41406C13.8522 3.41406 14.0481 3.41406 14.25 3.41406C14.25 3.53652 14.25 3.65898 14.25 3.78516C14.0541 3.78516 13.8581 3.78516 13.6562 3.78516C13.6562 3.6627 13.6562 3.54023 13.6562 3.41406Z" fill="#9DAFED"/>
<path d="M12.1719 3.41406C12.3678 3.41406 12.5637 3.41406 12.7656 3.41406C12.7656 3.53652 12.7656 3.65898 12.7656 3.78516C12.5697 3.78516 12.3738 3.78516 12.1719 3.78516C12.1719 3.6627 12.1719 3.54023 12.1719 3.41406Z" fill="#9DAFED"/>
<path d="M24.9375 30.2812C25.1334 30.2812 25.3294 30.2812 25.5312 30.2812C25.5312 30.3792 25.5312 30.4772 25.5312 30.5781C25.3353 30.5781 25.1394 30.5781 24.9375 30.5781C24.9375 30.4802 24.9375 30.3822 24.9375 30.2812Z" fill="#8FA4E9"/>
<path d="M23.4531 30.2812C23.6491 30.2812 23.845 30.2812 24.0469 30.2812C24.0469 30.3792 24.0469 30.4772 24.0469 30.5781C23.8509 30.5781 23.655 30.5781 23.4531 30.5781C23.4531 30.4802 23.4531 30.3822 23.4531 30.2812Z" fill="#8FA4E9"/>
<path d="M21.9688 30.2812C22.1647 30.2812 22.3606 30.2812 22.5625 30.2812C22.5625 30.3792 22.5625 30.4772 22.5625 30.5781C22.3666 30.5781 22.1706 30.5781 21.9688 30.5781C21.9688 30.4802 21.9688 30.3822 21.9688 30.2812Z" fill="#8FA4E9"/>
<path d="M20.4844 30.2812C20.6803 30.2812 20.8762 30.2812 21.0781 30.2812C21.0781 30.3792 21.0781 30.4772 21.0781 30.5781C20.8822 30.5781 20.6863 30.5781 20.4844 30.5781C20.4844 30.4802 20.4844 30.3822 20.4844 30.2812Z" fill="#8FA4E9"/>
<path d="M19 30.2812C19.1959 30.2812 19.3919 30.2812 19.5938 30.2812C19.5938 30.3792 19.5938 30.4772 19.5938 30.5781C19.3978 30.5781 19.2019 30.5781 19 30.5781C19 30.4802 19 30.3822 19 30.2812Z" fill="#8FA4E9"/>
<path d="M17.5156 30.2812C17.7116 30.2812 17.9075 30.2812 18.1094 30.2812C18.1094 30.3792 18.1094 30.4772 18.1094 30.5781C17.9134 30.5781 17.7175 30.5781 17.5156 30.5781C17.5156 30.4802 17.5156 30.3822 17.5156 30.2812Z" fill="#8FA4E9"/>
<path d="M16.0312 30.2812C16.2272 30.2812 16.4231 30.2812 16.625 30.2812C16.625 30.3792 16.625 30.4772 16.625 30.5781C16.4291 30.5781 16.2331 30.5781 16.0312 30.5781C16.0312 30.4802 16.0312 30.3822 16.0312 30.2812Z" fill="#8FA4E9"/>
<path d="M14.5469 30.2812C14.7428 30.2812 14.9387 30.2812 15.1406 30.2812C15.1406 30.3792 15.1406 30.4772 15.1406 30.5781C14.9447 30.5781 14.7488 30.5781 14.5469 30.5781C14.5469 30.4802 14.5469 30.3822 14.5469 30.2812Z" fill="#8FA4E9"/>
<path d="M13.0625 30.2812C13.2584 30.2812 13.4544 30.2812 13.6562 30.2812C13.6562 30.3792 13.6562 30.4772 13.6562 30.5781C13.4603 30.5781 13.2644 30.5781 13.0625 30.5781C13.0625 30.4802 13.0625 30.3822 13.0625 30.2812Z" fill="#8FA4E9"/>
<path d="M11.5781 30.2812C11.7741 30.2812 11.97 30.2812 12.1719 30.2812C12.1719 30.3792 12.1719 30.4772 12.1719 30.5781C11.9759 30.5781 11.78 30.5781 11.5781 30.5781C11.5781 30.4802 11.5781 30.3822 11.5781 30.2812Z" fill="#8FA4E9"/>
<path d="M10.0938 30.2812C10.2897 30.2812 10.4856 30.2812 10.6875 30.2812C10.6875 30.3792 10.6875 30.4772 10.6875 30.5781C10.4916 30.5781 10.2956 30.5781 10.0938 30.5781C10.0938 30.4802 10.0938 30.3822 10.0938 30.2812Z" fill="#8FA4E9"/>
<path d="M8.60938 30.2812C8.80531 30.2812 9.00125 30.2812 9.20312 30.2812C9.20312 30.3792 9.20312 30.4772 9.20312 30.5781C9.00719 30.5781 8.81125 30.5781 8.60938 30.5781C8.60938 30.4802 8.60938 30.3822 8.60938 30.2812Z" fill="#8FA4E9"/>
<path d="M7.125 30.2812C7.32094 30.2812 7.51687 30.2812 7.71875 30.2812C7.71875 30.3792 7.71875 30.4772 7.71875 30.5781C7.52281 30.5781 7.32688 30.5781 7.125 30.5781C7.125 30.4802 7.125 30.3822 7.125 30.2812Z" fill="#8FA4E9"/>
<path d="M5.64062 30.2812C5.83656 30.2812 6.0325 30.2812 6.23438 30.2812C6.23438 30.3792 6.23438 30.4772 6.23438 30.5781C6.03844 30.5781 5.8425 30.5781 5.64062 30.5781C5.64062 30.4802 5.64062 30.3822 5.64062 30.2812Z" fill="#8FA4E9"/>
<path d="M4.15625 30.2812C4.35219 30.2812 4.54812 30.2812 4.75 30.2812C4.75 30.3792 4.75 30.4772 4.75 30.5781C4.55406 30.5781 4.35813 30.5781 4.15625 30.5781C4.15625 30.4802 4.15625 30.3822 4.15625 30.2812Z" fill="#8FA4E9"/>
<path d="M2.67188 30.2812C2.86781 30.2812 3.06375 30.2812 3.26562 30.2812C3.26562 30.3792 3.26562 30.4772 3.26562 30.5781C3.06969 30.5781 2.87375 30.5781 2.67188 30.5781C2.67188 30.4802 2.67188 30.3822 2.67188 30.2812Z" fill="#8FA4E9"/>
</g>
<defs>
<clipPath id="clip0_1623_1541">
<rect width="38" height="38" fill="white"/>
</clipPath>
</defs>
</svg>
