<svg width="38" height="38" viewBox="0 0 38 38" fill="none" xmlns="http://www.w3.org/2000/svg">
<g clip-path="url(#clip0_1623_1480)">
<path d="M18.949 -0.0277546C19.0614 -0.0276941 19.0614 -0.0276941 19.1761 -0.0276323C20.4016 -0.0246061 21.5823 0.0436521 22.7852 0.296952C22.8617 0.312858 22.9383 0.328764 23.0171 0.345151C24.8436 0.737267 26.7526 1.37352 28.3305 2.39088C28.9233 2.77254 29.3521 2.88511 30.0534 2.88649C31.1353 2.89365 32.0982 3.48419 32.8607 4.20764C33.656 5.02508 34.202 6.0448 34.2288 7.1993C34.2582 7.65625 34.4347 7.90022 34.7164 8.25112C35.0076 8.61837 35.2385 9.02309 35.4766 9.42586C35.5031 9.46993 35.5296 9.514 35.5569 9.5594C36.5258 11.1767 37.2072 12.9771 37.615 14.816C37.6286 14.8768 37.6422 14.9377 37.6561 15.0003C37.9306 16.3279 38.0391 17.6419 38.0279 18.9954C38.0274 19.1074 38.0274 19.1074 38.0268 19.2216C38.021 20.2983 37.9989 21.3567 37.7774 22.4141C37.7553 22.5227 37.7553 22.5227 37.7327 22.6334C37.0072 26.1015 35.3952 29.8647 32.6679 32.2568C32.6396 32.2907 32.6112 32.3246 32.5821 32.3595C32.5943 32.4436 32.6066 32.5278 32.6192 32.6146C32.6563 32.879 32.6563 32.879 32.5676 33.0437C32.4336 33.1759 32.4336 33.1759 32.2835 33.1924C32.2259 33.1885 32.1683 33.1845 32.1089 33.1805C31.6684 33.2085 31.4323 33.4343 31.1205 33.717C30.327 34.4355 29.415 35.0137 28.4886 35.5455C28.3523 35.6247 28.2179 35.7063 28.0834 35.7886C25.7613 37.184 22.8361 37.9988 20.1298 38.0178C20.0464 38.0184 19.963 38.019 19.877 38.0196C19.7004 38.0206 19.5238 38.0214 19.3472 38.022C19.1706 38.0228 18.994 38.0243 18.8173 38.0266C14.3427 38.0825 10.0873 36.4214 6.67973 33.547C6.62802 33.4957 6.57632 33.4445 6.52304 33.3917C6.24181 33.2059 6.00192 33.2106 5.67632 33.2153C5.61566 33.2148 5.55499 33.2142 5.49248 33.2137C5.23421 33.2115 4.97597 33.2127 4.71769 33.2137C4.5285 33.2138 4.33938 33.2123 4.1502 33.2106C4.06401 33.2119 4.06401 33.2119 3.97607 33.2132C3.51827 33.209 3.12026 33.0923 2.78093 32.7716C2.49875 32.4456 2.35522 32.1926 2.36197 31.762C2.36265 31.6874 2.36334 31.6127 2.36404 31.5358C2.36528 31.4552 2.36651 31.3747 2.36779 31.2917C2.36809 31.1191 2.36823 30.9466 2.36822 30.774C2.36882 30.5035 2.37035 30.2332 2.37477 29.9627C2.39127 28.8405 2.33602 28.0159 1.71212 27.0676C1.52734 26.7735 1.41216 26.444 1.28959 26.1204C1.26235 26.0495 1.23511 25.9785 1.20705 25.9054C0.812857 24.8551 0.498704 23.7777 0.273719 22.6785C0.262783 22.6252 0.251846 22.5718 0.240578 22.5169C0.0198621 21.3556 -0.0276462 20.2072 -0.0231557 19.0279C-0.0229958 18.9524 -0.0228358 18.8768 -0.022671 18.799C-0.0189845 17.7147 -0.0003633 16.651 0.222694 15.586C0.237439 15.5137 0.252185 15.4413 0.267377 15.3668C0.916381 12.2642 2.24047 8.89245 4.52738 6.60555C4.52905 6.42374 4.52905 6.42374 4.49955 6.22518C4.49132 6.15763 4.48309 6.09009 4.47462 6.02049C4.46754 5.96864 4.46046 5.91678 4.45316 5.86336C4.56913 5.7845 4.56913 5.7845 4.75004 5.71492C4.87044 5.74535 4.87044 5.74535 4.99328 5.77638C5.25862 5.81609 5.25862 5.81609 5.40587 5.69767C5.55489 5.55441 5.6932 5.40528 5.83085 5.25105C5.93546 5.14028 6.04051 5.02992 6.14599 4.91997C6.19821 4.86546 6.25044 4.81095 6.30425 4.75479C6.66781 4.39045 7.0819 4.08886 7.49613 3.78523C7.53838 3.75371 7.58063 3.72219 7.62417 3.68971C8.2729 3.20613 8.9442 2.7732 9.64848 2.37508C9.70096 2.34523 9.75345 2.31538 9.80753 2.28462C11.5246 1.31789 13.3928 0.668565 15.3216 0.273759C15.3749 0.262822 15.4283 0.251886 15.4833 0.240618C16.6356 0.0215896 17.7786 -0.0301355 18.949 -0.0277546Z" fill="#463E83"/>
<path d="M34.2147 7.64453C34.5222 7.92995 34.7465 8.23265 34.9708 8.58618C35.006 8.64146 35.0413 8.69673 35.0776 8.75368C36.2581 10.6257 37.1345 12.65 37.6148 14.8159C37.6352 14.9072 37.6352 14.9072 37.6559 15.0003C37.9304 16.3278 38.0389 17.6418 38.0277 18.9954C38.0273 19.07 38.027 19.1446 38.0266 19.2215C38.0208 20.2982 37.9987 21.3566 37.7772 22.4141C37.7551 22.5226 37.7551 22.5226 37.7325 22.6333C36.9793 26.234 35.3474 29.4744 32.8045 32.1367C32.7619 32.1888 32.7192 32.2409 32.6752 32.2945C32.4499 32.4815 32.3134 32.4708 32.0226 32.471C31.9738 32.4714 31.925 32.4718 31.8747 32.4723C31.7103 32.4733 31.5461 32.4723 31.3817 32.4713C31.263 32.4716 31.1443 32.4721 31.0256 32.4727C30.6987 32.4739 30.372 32.4733 30.0452 32.4724C29.6929 32.4717 29.3407 32.4728 28.9885 32.4736C28.2982 32.4749 27.6079 32.4746 26.9176 32.4738C26.3567 32.4731 25.7957 32.473 25.2348 32.4733C25.1151 32.4734 25.1151 32.4734 24.9931 32.4735C24.8311 32.4736 24.6691 32.4736 24.5071 32.4737C22.9868 32.4746 21.4665 32.4736 19.9463 32.472C18.6413 32.4707 17.3364 32.4709 16.0314 32.4723C14.5169 32.4739 13.0024 32.4745 11.4879 32.4736C11.3265 32.4735 11.165 32.4734 11.0035 32.4733C10.9241 32.4733 10.8446 32.4732 10.7628 32.4732C10.2025 32.4729 9.64216 32.4734 9.08185 32.4741C8.39906 32.4749 7.71628 32.4747 7.03349 32.4731C6.685 32.4723 6.33653 32.472 5.98804 32.473C5.66912 32.4739 5.35024 32.4734 5.03132 32.4718C4.91585 32.4715 4.80038 32.4716 4.68491 32.4724C4.52806 32.4733 4.37132 32.4723 4.21448 32.471C4.12733 32.4709 4.04018 32.4709 3.95039 32.4708C3.65823 32.4254 3.49621 32.318 3.26547 32.1367C3.11553 31.9211 3.09786 31.7444 3.09547 31.485C3.09452 31.4149 3.09358 31.3448 3.0926 31.2726C3.09243 31.1973 3.09227 31.1221 3.0921 31.0446C3.09161 30.9668 3.09111 30.8891 3.0906 30.8089C3.08985 30.6445 3.0895 30.4802 3.08953 30.3158C3.0892 30.0644 3.08651 29.8132 3.08369 29.5618C3.08326 29.402 3.08296 29.2422 3.08282 29.0824C3.08122 28.9698 3.08122 28.9698 3.07959 28.8549C3.08173 28.525 3.08338 28.3324 3.25833 28.0461C3.53701 27.7956 3.77427 27.8217 4.13245 27.8231C4.22175 27.823 4.22175 27.823 4.31284 27.8229C4.51342 27.8228 4.71398 27.8232 4.91455 27.8236C5.05789 27.8236 5.20123 27.8236 5.34457 27.8236C5.73466 27.8236 6.12474 27.824 6.51483 27.8245C6.92214 27.825 7.32946 27.825 7.73677 27.8251C8.5085 27.8253 9.28023 27.8259 10.052 27.8267C10.9304 27.8275 11.8088 27.8279 12.6872 27.8283C14.4945 27.8291 16.3019 27.8304 18.1092 27.832C18.1337 28.4443 18.1582 29.0566 18.1834 29.6875C18.4813 29.613 18.625 29.5282 18.8723 29.3541C18.947 29.3018 19.0217 29.2494 19.0987 29.1955C19.1763 29.1405 19.2539 29.0855 19.3338 29.0288C19.4114 28.9744 19.489 28.9199 19.569 28.8638C19.9657 28.5878 19.9657 28.5878 20.3499 28.2949C20.3942 28.2646 20.4386 28.2343 20.4842 28.2031C20.854 28.2781 21.1671 28.5604 21.4676 28.7783C21.5803 28.8589 21.6929 28.9394 21.8057 29.0198C21.8594 29.0583 21.9131 29.0968 21.9685 29.1364C22.1494 29.2653 22.3319 29.3916 22.516 29.5159C22.564 29.5483 22.612 29.5807 22.6615 29.6142C22.7959 29.6999 22.7959 29.6999 23.0077 29.7617C23.0077 26.3328 23.0077 22.9039 23.0077 19.3711C21.3912 19.3711 19.7747 19.3711 18.1092 19.3711C18.1092 20.2528 18.1092 21.1345 18.1092 22.043C17.1085 22.0514 16.1079 22.0582 15.1071 22.0622C14.6424 22.0641 14.1777 22.0667 13.713 22.071C13.264 22.075 12.815 22.0772 12.366 22.0782C12.1952 22.0789 12.0244 22.0802 11.8536 22.0822C9.80318 22.1054 9.80318 22.1054 8.95712 21.3034C8.44382 20.6843 8.32186 20.0054 8.38656 19.2227C8.45219 18.9755 8.55087 18.7726 8.68344 18.5547C8.71405 18.5028 8.74467 18.451 8.77621 18.3976C9.11763 17.8835 9.6276 17.5619 10.2205 17.3984C10.6055 17.3277 11.0006 17.3462 11.3907 17.347C11.4931 17.3467 11.5954 17.3463 11.6977 17.3459C11.9782 17.3448 12.2587 17.3447 12.5391 17.3448C12.8419 17.3447 13.1446 17.3437 13.4474 17.3428C13.9717 17.3414 14.4959 17.3405 15.0202 17.34C15.7783 17.3393 16.5364 17.3376 17.2945 17.3358C18.5247 17.3327 19.7548 17.3303 20.9849 17.3284C21.0953 17.3282 21.0953 17.3282 21.2079 17.328C21.2816 17.3279 21.3553 17.3278 21.4313 17.3276C22.4771 17.326 23.523 17.3241 24.5689 17.3221C24.6426 17.322 24.7162 17.3218 24.7921 17.3217C26.0182 17.3193 27.2443 17.3167 28.4704 17.3139C29.227 17.3122 29.9837 17.3108 30.7404 17.3098C31.2582 17.309 31.776 17.3081 32.2937 17.3069C32.5929 17.3063 32.892 17.3058 33.1911 17.3056C33.4645 17.3054 33.7379 17.3049 34.0113 17.3041C34.1579 17.3037 34.3046 17.3038 34.4513 17.3038C34.5372 17.3035 34.6231 17.3032 34.7117 17.3028C34.7864 17.3027 34.8612 17.3026 34.9382 17.3025C35.1031 17.3117 35.1031 17.3117 35.1795 17.2188C35.1919 17.0332 35.1919 17.0332 35.1795 16.8477C35.0514 16.7195 34.88 16.7638 34.7053 16.7635C34.5743 16.763 34.5743 16.763 34.4407 16.7625C34.3435 16.7625 34.2463 16.7625 34.1462 16.7625C34.0429 16.7623 33.9396 16.762 33.8363 16.7617C33.551 16.7609 33.2657 16.7607 32.9805 16.7605C32.6733 16.7602 32.3661 16.7595 32.059 16.7588C31.3163 16.7574 30.5737 16.7566 29.831 16.7559C29.4814 16.7556 29.1318 16.7552 28.7822 16.7548C27.6202 16.7536 26.4582 16.7525 25.2962 16.752C24.9945 16.7518 24.6927 16.7517 24.3909 16.7515C24.2784 16.7515 24.2784 16.7515 24.1636 16.7514C22.9491 16.7508 21.7347 16.7489 20.5202 16.7465C19.2738 16.7441 18.0273 16.7427 16.7809 16.7425C16.0809 16.7423 15.3809 16.7417 14.6809 16.7398C14.0846 16.7382 13.4883 16.7376 12.8919 16.7383C12.5878 16.7386 12.2836 16.7385 11.9794 16.737C11.7006 16.7357 11.4219 16.7358 11.1431 16.737C10.9951 16.7372 10.8471 16.736 10.6991 16.7348C10.2001 16.7383 9.81027 16.7865 9.35745 17.003C9.10784 17.1118 8.8987 17.1075 8.62661 17.1071C8.57601 17.1072 8.5254 17.1073 8.47325 17.1075C8.36774 17.1073 8.26223 17.1065 8.15673 17.1049C7.99613 17.1028 7.83571 17.1034 7.67511 17.1044C6.65277 17.0998 6.65277 17.0998 6.2606 16.7337C6.02797 16.4295 5.92845 16.2774 5.92421 15.8978C5.92278 15.7867 5.92278 15.7867 5.92132 15.6733C5.92077 15.5929 5.92022 15.5125 5.91966 15.4297C5.91906 15.3471 5.91846 15.2645 5.91784 15.1795C5.91682 15.0043 5.91602 14.8292 5.91544 14.6541C5.91416 14.3869 5.91091 14.1198 5.90763 13.8527C5.90688 13.6825 5.90624 13.5124 5.90574 13.3423C5.90444 13.2626 5.90314 13.183 5.9018 13.1009C5.90318 12.6254 5.95614 12.3388 6.23422 11.9492C6.16074 11.9125 6.16074 11.9125 6.08578 11.875C6.10144 11.7367 6.10144 11.7367 6.16 11.5781C6.31134 11.4914 6.31134 11.4914 6.50326 11.4158C6.93818 11.2171 7.16292 10.9324 7.42172 10.5391C7.55827 10.5536 7.55827 10.5536 7.71859 10.6133C7.82094 10.7751 7.82094 10.7751 7.90878 10.9751C8.01682 11.2181 8.10334 11.409 8.31234 11.5781C8.42256 11.6149 8.42256 11.6149 8.535 11.6523C8.66025 11.7544 8.66025 11.7544 8.75766 11.875C8.75766 11.9485 8.75766 12.022 8.75766 12.0977C8.88012 12.0977 9.00258 12.0977 9.12875 12.0977C9.17774 11.9752 9.22672 11.8527 9.27719 11.7266C9.98746 11.7266 10.6977 11.7266 11.4295 11.7266C11.4785 11.898 11.5275 12.0695 11.578 12.2461C11.7559 12.2965 11.7559 12.2965 11.9491 12.3203C12.1484 12.121 12.1762 11.9213 12.2459 11.6523C12.7834 11.6437 13.3209 11.6371 13.8584 11.6331C14.1081 11.6312 14.3577 11.6286 14.6074 11.6243C14.8953 11.6198 15.1833 11.6177 15.4713 11.6161C15.6037 11.6132 15.6037 11.6132 15.7389 11.6103C16.3439 11.6101 16.7615 11.7423 17.2928 12.0234C17.737 12.1863 18.1558 12.2031 18.6241 12.2043C18.7364 12.2047 18.7364 12.2047 18.851 12.2051C19.5641 12.1938 20.2155 12.0465 20.8553 11.7266C21.0578 11.7181 21.2585 11.7141 21.4611 11.7134C21.5551 11.7127 21.5551 11.7127 21.651 11.7119C21.859 11.7105 22.067 11.7096 22.275 11.7089C22.3461 11.7086 22.4172 11.7083 22.4905 11.708C22.8671 11.7064 23.2437 11.7054 23.6203 11.7047C24.0084 11.7038 24.3965 11.7013 24.7847 11.6983C25.0838 11.6964 25.3828 11.6958 25.6819 11.6955C25.8249 11.6951 25.9679 11.6943 26.1109 11.6929C26.3118 11.6911 26.5126 11.6912 26.7135 11.6917C26.8012 11.6903 26.8012 11.6903 26.8906 11.6888C27.3364 11.6929 27.659 11.8276 28.0545 12.0234C28.5127 12.1924 28.9408 12.1942 29.4229 12.1904C29.497 12.191 29.5711 12.1916 29.6475 12.1922C30.684 12.1894 31.6061 11.8272 32.4334 11.207C32.4993 11.1608 32.4993 11.1608 32.5665 11.1137C33.5046 10.3967 33.9898 9.18535 34.1683 8.05273C34.1851 7.91683 34.2012 7.7808 34.2147 7.64453Z" fill="#8179BD"/>
<path d="M14.3983 5.86307C14.3769 5.91052 14.3554 5.95798 14.3333 6.00687C14.1691 6.45407 14.0967 6.89588 14.0599 7.37035C14.0506 7.48938 14.0506 7.48938 14.041 7.61082C14.0342 7.70088 14.0342 7.70088 14.0272 7.79276C13.937 7.7938 13.937 7.7938 13.8449 7.79486C13.6168 7.79817 13.3887 7.80276 13.1606 7.80816C13.0153 7.81123 12.87 7.81288 12.7247 7.8145C11.7074 7.84039 10.9169 8.0873 10.0936 8.68338C10.014 8.74002 9.9344 8.79666 9.85238 8.85501C9.059 9.63036 8.72701 10.5828 8.535 11.6521C8.25134 11.6003 8.13334 11.4909 7.95314 11.2634C7.86462 11.1289 7.80531 10.9992 7.74643 10.8496C7.71275 10.7716 7.67907 10.6935 7.64438 10.6131C7.53416 10.5763 7.53416 10.5763 7.42172 10.5389C7.39087 10.6043 7.39087 10.6043 7.35939 10.6711C7.10927 11.1494 6.80446 11.4038 6.29771 11.5837C6.25227 11.6063 6.20682 11.6289 6.16 11.6521C6.12326 11.7623 6.12326 11.7623 6.08578 11.8748C6.15926 11.8993 6.23274 11.9238 6.30844 11.949C6.26027 12.0169 6.2121 12.0848 6.16247 12.1548C5.94831 12.5321 5.9689 12.9074 5.97213 13.3316C5.97185 13.4138 5.97157 13.4961 5.97127 13.5808C5.97107 13.754 5.97162 13.9272 5.97286 14.1005C5.97445 14.3652 5.97287 14.6297 5.97098 14.8944C5.97117 15.0631 5.97155 15.2318 5.97213 15.4005C5.97153 15.4793 5.97093 15.5582 5.97031 15.6395C5.97601 16.0904 6.00784 16.3555 6.30844 16.699C6.74788 17.0852 7.26674 17.0148 7.81871 17.0178C7.92731 17.0186 8.03591 17.0201 8.1445 17.0224C8.30262 17.0256 8.46064 17.0267 8.61879 17.0275C8.71298 17.0286 8.80718 17.0296 8.90423 17.0308C9.14453 17.0177 9.31136 16.9511 9.52752 16.8476C10.0117 16.6498 10.4715 16.6582 10.9886 16.6623C11.0929 16.6621 11.1972 16.6617 11.3015 16.6612C11.5864 16.6603 11.8713 16.6612 12.1562 16.6624C12.4641 16.6634 12.772 16.6626 13.0799 16.6621C13.6822 16.6613 14.2846 16.6622 14.8869 16.6636C15.5881 16.6651 16.2893 16.6651 16.9906 16.665C18.2413 16.6649 19.4919 16.6663 20.7426 16.6685C21.9568 16.6706 23.1711 16.6716 24.3853 16.6715C24.4602 16.6715 24.5351 16.6715 24.6122 16.6715C24.7243 16.6715 24.7243 16.6715 24.8387 16.6715C26.2209 16.6714 27.603 16.6722 28.9852 16.6736C29.4744 16.674 29.9636 16.6742 30.4527 16.6742C31.0482 16.6743 31.6436 16.675 32.239 16.6764C32.5429 16.6771 32.8469 16.6775 33.1508 16.6773C33.4287 16.6772 33.7065 16.6777 33.9844 16.6787C34.1333 16.6791 34.2822 16.6788 34.4311 16.6785C34.5186 16.6789 34.6061 16.6794 34.6962 16.6799C34.7722 16.68 34.8481 16.6801 34.9264 16.6802C35.1053 16.699 35.1053 16.699 35.2538 16.8474C35.2723 17.033 35.2723 17.033 35.2538 17.2185C35.0589 17.4134 34.9752 17.3855 34.7033 17.3856C34.5745 17.3861 34.5745 17.3861 34.4431 17.3867C34.3479 17.3863 34.2527 17.386 34.1547 17.3856C34.0532 17.3858 33.9517 17.386 33.8502 17.3863C33.5703 17.3869 33.2905 17.3866 33.0106 17.3861C32.7091 17.3858 32.4076 17.3863 32.1061 17.3867C31.5832 17.3874 31.0604 17.3875 30.5375 17.3873C29.7806 17.3871 29.0237 17.388 28.2668 17.3892C27.0378 17.3911 25.8087 17.3926 24.5796 17.3936C24.506 17.3936 24.4324 17.3937 24.3566 17.3938C23.3129 17.3946 22.2693 17.395 21.2257 17.3952C21.1523 17.3952 21.0789 17.3952 21.0032 17.3952C20.9299 17.3953 20.8566 17.3953 20.781 17.3953C19.5575 17.3956 18.3339 17.397 17.1104 17.3993C16.3557 17.4007 15.601 17.4012 14.8464 17.4004C14.3288 17.3999 13.8112 17.4005 13.2935 17.4019C12.9951 17.4027 12.6966 17.403 12.3981 17.4021C12.1244 17.4012 11.8508 17.4016 11.5771 17.4032C11.4321 17.4037 11.2871 17.4027 11.142 17.4016C10.3256 17.4087 9.57552 17.5936 8.98031 18.1834C8.50055 18.7953 8.38869 19.4213 8.46078 20.1873C8.59842 20.7519 8.87882 21.2302 9.36445 21.558C9.93865 21.89 10.4251 21.9907 11.0822 21.9922C11.1582 21.9929 11.2343 21.9937 11.3127 21.9945C11.5633 21.9967 11.8139 21.998 12.0645 21.9993C12.2385 22.0007 12.4126 22.0021 12.5867 22.0036C13.0442 22.0074 13.5018 22.0104 13.9594 22.0131C14.4265 22.0161 14.8937 22.0199 15.3608 22.0236C16.2769 22.0308 17.1931 22.037 18.1092 22.0428C18.1092 21.161 18.1092 20.2793 18.1092 19.3709C19.7257 19.3709 21.3422 19.3709 23.0077 19.3709C23.0686 21.6677 23.0845 23.9564 23.0526 26.2534C23.0472 26.6517 23.0425 27.05 23.0377 27.4483C23.0283 28.2194 23.0182 28.9904 23.0077 29.7615C22.657 29.7042 22.434 29.564 22.1541 29.3533C22.0623 29.2864 21.9703 29.2195 21.8784 29.1527C21.7388 29.0499 21.5996 28.9467 21.4612 28.8423C21.3327 28.7456 21.2031 28.6505 21.0733 28.5555C20.9975 28.4984 20.9216 28.4414 20.8434 28.3827C20.6441 28.2565 20.6441 28.2565 20.4529 28.3099C20.1997 28.4629 19.9639 28.6321 19.7281 28.8106C19.6292 28.884 19.5302 28.9573 19.4312 29.0306C19.2607 29.1578 19.0907 29.2856 18.921 29.4139C18.8567 29.4613 18.7924 29.5086 18.7262 29.5574C18.6708 29.5991 18.6154 29.6408 18.5583 29.6838C18.4061 29.7615 18.4061 29.7615 18.1092 29.6873C18.1092 29.075 18.1092 28.4627 18.1092 27.8318C16.2189 27.8329 14.3287 27.836 12.4384 27.8416C11.5608 27.8442 10.6831 27.8461 9.80544 27.8463C9.04057 27.8466 8.27571 27.8481 7.51085 27.8512C7.10576 27.8527 6.70069 27.8537 6.2956 27.8531C5.91443 27.8525 5.53329 27.8537 5.15213 27.8562C5.01214 27.8568 4.87214 27.8568 4.73215 27.8561C4.54112 27.8552 4.35024 27.8566 4.15923 27.8586C4.10371 27.8578 4.04819 27.857 3.99098 27.8562C3.69819 27.8619 3.57333 27.8972 3.34238 28.0835C3.17809 28.294 3.14494 28.3782 3.14559 28.6404C3.1449 28.7105 3.14421 28.7806 3.1435 28.8528C3.14471 28.9277 3.14593 29.0025 3.14718 29.0796C3.14718 29.1961 3.14718 29.1961 3.14717 29.315C3.14757 29.4789 3.14888 29.6429 3.15102 29.8068C3.15413 30.0575 3.15407 30.3081 3.15356 30.5588C3.15434 30.7182 3.1553 30.8777 3.15646 31.0371C3.15648 31.112 3.15649 31.1868 3.15651 31.2639C3.16051 31.7768 3.16051 31.7768 3.41391 32.2107C3.67214 32.3789 3.89278 32.3778 4.19663 32.378C4.24555 32.3782 4.29446 32.3784 4.34486 32.3787C4.50949 32.3793 4.6741 32.3788 4.83872 32.3783C4.95766 32.3785 5.07659 32.3788 5.19552 32.3792C5.52289 32.3799 5.85026 32.3797 6.17764 32.3794C6.53047 32.3792 6.8833 32.3799 7.23613 32.3805C7.84765 32.3814 8.45917 32.3817 9.0707 32.3818C9.95503 32.3819 10.8393 32.383 11.7237 32.3844C13.1586 32.3867 14.5935 32.3885 16.0284 32.3898C16.1143 32.3899 16.2002 32.39 16.2887 32.3901C17.2477 32.391 18.2067 32.3917 19.1656 32.3923C19.5136 32.3926 19.8615 32.3928 20.2094 32.393C20.3382 32.3931 20.3382 32.3931 20.4696 32.3932C21.8992 32.3942 23.3288 32.396 24.7585 32.3985C25.641 32.4 26.5235 32.4008 27.4061 32.4006C28.0103 32.4005 28.6145 32.4012 29.2186 32.4026C29.5677 32.4033 29.9167 32.4037 30.2658 32.4031C30.5849 32.4026 30.9039 32.403 31.223 32.4043C31.3389 32.4046 31.4547 32.4045 31.5706 32.404C31.7273 32.4034 31.8838 32.4042 32.0405 32.4052C32.1714 32.4053 32.1714 32.4053 32.3049 32.4054C32.3718 32.4146 32.4387 32.4239 32.5077 32.4334C32.6561 32.656 32.6561 32.656 32.6375 32.8462C32.5819 33.0271 32.5819 33.0271 32.4334 33.1756C32.3267 33.1771 32.22 33.1749 32.1134 33.1709C31.6736 33.2074 31.4328 33.4334 31.1203 33.7166C30.3269 34.4353 29.4148 35.0134 28.4884 35.5452C28.3521 35.6244 28.2177 35.706 28.0832 35.7883C25.7611 37.1837 22.8359 37.9985 20.1297 38.0175C20.0462 38.0181 19.9628 38.0187 19.8768 38.0193C19.7002 38.0203 19.5236 38.0211 19.347 38.0217C19.1704 38.0225 18.9938 38.024 18.8171 38.0263C14.3425 38.0822 10.0871 36.4211 6.67953 33.5467C6.62783 33.4954 6.57612 33.4442 6.52285 33.3914C6.24162 33.2057 6.00173 33.2103 5.67613 33.215C5.61546 33.2145 5.5548 33.214 5.49229 33.2134C5.23402 33.2112 4.97578 33.2125 4.7175 33.2134C4.52831 33.2135 4.33919 33.212 4.15001 33.2104C4.06381 33.2116 4.06381 33.2116 3.97588 33.2129C3.51808 33.2087 3.12007 33.0921 2.78074 32.7713C2.49578 32.4421 2.35692 32.1851 2.35328 31.7511C2.35234 31.6743 2.35139 31.5975 2.35041 31.5184C2.35025 31.4357 2.35008 31.3531 2.34991 31.2679C2.34942 31.1824 2.34892 31.097 2.34841 31.0089C2.34766 30.828 2.34731 30.647 2.34734 30.4661C2.34702 30.1903 2.34432 29.9146 2.3415 29.6389C2.34107 29.4629 2.34077 29.2869 2.34063 29.1109C2.33957 29.0289 2.3385 28.9468 2.3374 28.8623C2.34072 28.2971 2.42405 27.9021 2.7987 27.459C3.294 27.0567 3.75406 26.9881 4.37875 26.9412C4.34364 26.8761 4.30853 26.8111 4.27235 26.7441C3.60274 25.4722 3.09021 24.124 2.82016 22.7107C2.80447 22.6328 2.78878 22.555 2.77261 22.4747C2.54614 21.255 2.58838 20.012 2.5975 18.7771C2.88117 18.8289 2.99916 18.9383 3.17936 19.1659C3.26789 19.3003 3.32719 19.4301 3.38608 19.5796C3.43659 19.6967 3.43659 19.6967 3.48813 19.8162C3.5616 19.8407 3.63508 19.8652 3.71078 19.8904C3.73135 19.8468 3.75192 19.8032 3.77311 19.7582C4.02323 19.2799 4.32805 19.0255 4.83479 18.8456C4.88023 18.823 4.92568 18.8004 4.9725 18.7771C4.99699 18.7037 5.02149 18.6302 5.04672 18.5545C5.00309 18.5339 4.95947 18.5133 4.91452 18.4921C4.43617 18.242 4.18181 17.9372 4.00186 17.4305C3.97928 17.385 3.9567 17.3396 3.93344 17.2928C3.85996 17.2683 3.78649 17.2438 3.71078 17.2185C3.6906 17.2619 3.67041 17.3052 3.64961 17.3499C3.56344 17.5133 3.47079 17.6466 3.3536 17.7891C3.30008 17.8561 3.30008 17.8561 3.24547 17.9245C3.08436 18.063 2.95245 18.074 2.74594 18.1092C2.77367 17.4226 2.88526 16.8005 3.07992 16.1424C3.10624 16.0523 3.13255 15.9622 3.15967 15.8693C3.83921 13.611 5.01544 11.6766 6.60531 9.9451C6.69084 9.85153 6.69084 9.85153 6.7781 9.75607C7.20851 9.30654 7.69364 8.9295 8.18866 8.55462C8.29679 8.47254 8.40395 8.38918 8.51094 8.30562C9.93807 7.22029 11.6219 6.44244 13.3592 6.01151C13.5768 5.94788 13.7944 5.88409 14.0118 5.81987C14.1756 5.78885 14.1756 5.78885 14.3983 5.86307Z" fill="#6A61B4"/>
<path d="M18.9489 -0.0277546C19.0613 -0.0276941 19.0613 -0.0276941 19.1759 -0.0276323C20.4015 -0.0246061 21.5822 0.0436521 22.7851 0.296952C22.8616 0.312858 22.9382 0.328764 23.017 0.345151C25.1735 0.80813 27.2236 1.65469 29.0937 2.82039C28.8441 2.98676 28.6523 3.0271 28.3608 3.09407C27.1807 3.39306 26.2214 4.06368 25.5683 5.0887C25.331 5.48882 25.1894 5.86423 25.0116 6.30867C24.4238 6.30867 23.836 6.30867 23.2304 6.30867C23.1408 6.07906 23.1408 6.07906 23.0495 5.8448C22.5294 4.59442 21.6299 3.78093 20.4086 3.25074C19.4041 2.84565 18.1803 2.82731 17.1589 3.19148C16.3297 3.54854 15.3153 4.0792 14.9417 4.9478C14.7695 5.33442 14.6129 5.68383 14.2175 5.87796C13.8355 6.00987 13.4442 6.09615 13.0505 6.18575C11.3194 6.58047 9.71521 7.46636 8.31242 8.53523C8.24717 8.5847 8.18192 8.63416 8.1147 8.68512C6.3181 10.0853 4.97612 11.833 4.0007 13.8863C3.941 14.0117 3.87968 14.1363 3.81813 14.2608C3.53999 14.8584 3.35599 15.478 3.17277 16.1102C3.14742 16.1971 3.12207 16.2841 3.09595 16.3736C2.93433 16.9481 2.82286 17.5177 2.74602 18.1095C3.21113 17.9393 3.43021 17.6149 3.71086 17.2188C3.84915 17.2345 3.84915 17.2345 4.00773 17.293C4.09442 17.4444 4.09442 17.4444 4.17009 17.6363C4.3688 18.0712 4.65345 18.296 5.0468 18.5548C5.03114 18.6931 5.03114 18.6931 4.97258 18.8516C4.82124 18.9383 4.82124 18.9383 4.62932 19.014C4.1944 19.2127 3.96966 19.4974 3.71086 19.8907C3.57431 19.8762 3.57431 19.8762 3.41398 19.8165C3.31164 19.6547 3.31164 19.6547 3.2238 19.4547C3.11576 19.2117 3.02924 19.0208 2.82023 18.8516C2.74676 18.8271 2.67328 18.8027 2.59758 18.7774C2.6899 21.7591 3.09747 24.323 4.45305 27.0157C4.40186 27.0176 4.35068 27.0195 4.29794 27.0215C3.76343 27.0538 3.26341 27.1245 2.8501 27.4923C2.65973 27.7077 2.53724 27.9309 2.44914 28.2032C2.22648 28.129 2.22648 28.129 2.13686 27.9933C2.10808 27.934 2.07929 27.8747 2.04964 27.8136C2.01693 27.7463 1.98423 27.6791 1.95054 27.6099C1.91608 27.5363 1.88162 27.4627 1.84611 27.3868C1.7922 27.2723 1.7922 27.2723 1.7372 27.1554C0.88871 25.3153 0.332016 23.3842 0.0741409 21.3751C0.0676595 21.3256 0.061178 21.276 0.0545002 21.225C0.00282598 20.8008 -0.0130336 20.3822 -0.0151535 19.9551C-0.0159395 19.8497 -0.0159395 19.8497 -0.0167413 19.7422C-0.0336552 16.8094 -0.0336552 16.8094 0.222578 15.586C0.237324 15.5137 0.252069 15.4413 0.267262 15.3668C0.916265 12.2642 2.24036 8.89245 4.52727 6.60555C4.52894 6.42374 4.52894 6.42374 4.49943 6.22518C4.49121 6.15763 4.48298 6.09009 4.4745 6.02049C4.46742 5.96864 4.46034 5.91678 4.45305 5.86336C4.56901 5.7845 4.56901 5.7845 4.74992 5.71492C4.87033 5.74535 4.87033 5.74535 4.99316 5.77638C5.2585 5.81609 5.2585 5.81609 5.40575 5.69767C5.55477 5.55441 5.69309 5.40528 5.83073 5.25105C5.93534 5.14028 6.04039 5.02992 6.14587 4.91997C6.1981 4.86546 6.25032 4.81095 6.30413 4.75479C6.66769 4.39045 7.08178 4.08886 7.49602 3.78523C7.53827 3.75371 7.58052 3.72219 7.62405 3.68971C8.27278 3.20613 8.94409 2.7732 9.64836 2.37508C9.70085 2.34523 9.75334 2.31538 9.80742 2.28462C11.5245 1.31789 13.3927 0.668565 15.3215 0.273759C15.3748 0.262822 15.4282 0.251886 15.4831 0.240618C16.6355 0.0215896 17.7785 -0.0301355 18.9489 -0.0277546Z" fill="#8077BE"/>
<path d="M7.42177 10.5391C7.55832 10.5536 7.55832 10.5536 7.71864 10.6133C7.82098 10.7751 7.82098 10.7751 7.90883 10.9751C8.01687 11.2181 8.10339 11.409 8.31239 11.5781C8.38587 11.6026 8.45935 11.6271 8.53505 11.6523C8.66029 11.7544 8.66029 11.7544 8.75771 11.875C8.75771 11.9485 8.75771 12.022 8.75771 12.0977C8.88017 12.0977 9.00263 12.0977 9.1288 12.0977C9.17778 11.9752 9.22677 11.8527 9.27724 11.7266C9.98751 11.7266 10.6978 11.7266 11.4296 11.7266C11.5031 11.9837 11.5031 11.9837 11.578 12.2461C11.7559 12.2965 11.7559 12.2965 11.9491 12.3203C12.1484 12.121 12.1763 11.9213 12.246 11.6523C12.7835 11.6437 13.3209 11.6371 13.8584 11.6331C14.1081 11.6312 14.3578 11.6286 14.6074 11.6243C14.8954 11.6198 15.1833 11.6177 15.4713 11.6161C15.6038 11.6132 15.6038 11.6132 15.739 11.6103C16.344 11.6101 16.7615 11.7423 17.2929 12.0234C17.737 12.1863 18.1559 12.2031 18.6242 12.2043C18.7365 12.2047 18.7365 12.2047 18.8511 12.2051C19.5641 12.1938 20.2155 12.0465 20.8554 11.7266C21.0579 11.7181 21.2586 11.7141 21.4612 11.7134C21.5551 11.7127 21.5551 11.7127 21.651 11.7119C21.859 11.7105 22.0671 11.7096 22.2751 11.7089C22.3462 11.7086 22.4173 11.7083 22.4905 11.708C22.8671 11.7064 23.2437 11.7054 23.6203 11.7047C24.0085 11.7038 24.3966 11.7013 24.7847 11.6983C25.0838 11.6964 25.3829 11.6958 25.682 11.6955C25.825 11.6951 25.968 11.6943 26.111 11.6929C26.3119 11.6911 26.5127 11.6912 26.7136 11.6917C26.8012 11.6903 26.8012 11.6903 26.8907 11.6888C27.3364 11.6929 27.6591 11.8276 28.0546 12.0234C28.5127 12.1924 28.9408 12.1942 29.423 12.1904C29.4971 12.191 29.5712 12.1916 29.6475 12.1922C30.1981 12.1907 30.671 12.1214 31.181 11.9028C31.439 11.8051 31.6357 11.7524 31.914 11.8008C32.1904 11.9922 32.3839 12.1553 32.5077 12.4688C32.5276 12.6452 32.5276 12.6452 32.5293 12.8429C32.5302 12.9172 32.5312 12.9915 32.5321 13.0681C32.5324 13.1879 32.5324 13.1879 32.5326 13.3101C32.5331 13.3926 32.5336 13.4752 32.5341 13.5602C32.5349 13.7348 32.5352 13.9093 32.5352 14.0839C32.5355 14.3505 32.5382 14.6171 32.541 14.8838C32.5415 15.0535 32.5418 15.2232 32.5419 15.3929C32.543 15.4724 32.5441 15.552 32.5452 15.634C32.5447 15.7088 32.5442 15.7835 32.5438 15.8606C32.544 15.926 32.5442 15.9913 32.5444 16.0587C32.4897 16.3496 32.4159 16.4809 32.2108 16.6992C31.9203 16.7681 31.6322 16.7578 31.3348 16.7536C31.2442 16.7541 31.1535 16.7545 31.0601 16.755C30.8083 16.7559 30.5567 16.7548 30.3049 16.7528C30.0334 16.7512 29.7619 16.7522 29.4904 16.7528C29.0198 16.7536 28.5492 16.7528 28.0786 16.751C27.3974 16.7483 26.7162 16.7484 26.035 16.7492C24.9288 16.7505 23.8225 16.75 22.7163 16.7482C22.6501 16.7481 22.5839 16.748 22.5156 16.7479C22.2473 16.7474 21.979 16.747 21.7107 16.7466C20.9731 16.7454 20.2354 16.7445 19.4978 16.7438C19.4318 16.7437 19.3658 16.7437 19.2978 16.7436C18.1962 16.7426 17.0947 16.7428 15.9932 16.7436C15.3139 16.7441 14.6347 16.7435 13.9555 16.7413C13.4897 16.7399 13.0239 16.7396 12.5582 16.74C12.2896 16.7402 12.0211 16.7399 11.7525 16.7383C11.4609 16.7366 11.1693 16.7371 10.8777 16.7379C10.7935 16.737 10.7092 16.7362 10.6224 16.7352C10.1508 16.7387 9.78981 16.8017 9.36142 17.003C9.10938 17.1101 8.90053 17.1075 8.62666 17.1071C8.57605 17.1072 8.52545 17.1073 8.4733 17.1075C8.36779 17.1073 8.26228 17.1065 8.15678 17.1049C7.99618 17.1028 7.83576 17.1034 7.67516 17.1044C6.65282 17.0998 6.65282 17.0998 6.26065 16.7337C6.02802 16.4295 5.9285 16.2774 5.92426 15.8978C5.9233 15.8237 5.92235 15.7496 5.92137 15.6733C5.92082 15.5929 5.92027 15.5125 5.91971 15.4297C5.91911 15.3471 5.91851 15.2645 5.91789 15.1795C5.91687 15.0043 5.91607 14.8292 5.91549 14.6541C5.91421 14.3869 5.91096 14.1198 5.90768 13.8527C5.90693 13.6825 5.90629 13.5124 5.90579 13.3423C5.90449 13.2626 5.90319 13.183 5.90186 13.1009C5.90323 12.6254 5.95619 12.3388 6.23427 11.9492C6.18528 11.9247 6.1363 11.9002 6.08583 11.875C6.10149 11.7367 6.10149 11.7367 6.16005 11.5781C6.31139 11.4914 6.31139 11.4914 6.50331 11.4158C6.93823 11.2171 7.16297 10.9324 7.42177 10.5391Z" fill="#FABC4E"/>
<path d="M4.1325 27.8232C4.22179 27.8231 4.22179 27.8231 4.31289 27.823C4.51346 27.8228 4.71403 27.8233 4.9146 27.8237C5.05794 27.8237 5.20128 27.8237 5.34462 27.8236C5.73471 27.8236 6.12479 27.824 6.51488 27.8246C6.92219 27.825 7.3295 27.8251 7.73682 27.8252C8.50855 27.8254 9.28028 27.826 10.052 27.8267C10.9304 27.8276 11.8088 27.828 12.6872 27.8284C14.4946 27.8291 16.3019 27.8305 18.1093 27.8321C18.1338 28.4444 18.1583 29.0567 18.1835 29.6876C18.4813 29.6131 18.6251 29.5283 18.8723 29.3542C18.9471 29.3018 19.0218 29.2495 19.0988 29.1956C19.1763 29.1406 19.2539 29.0855 19.3339 29.0289C19.4115 28.9744 19.4891 28.92 19.569 28.8639C19.9658 28.5878 19.9658 28.5878 20.35 28.295C20.3943 28.2647 20.4386 28.2344 20.4843 28.2032C20.854 28.2782 21.1672 28.5605 21.4677 28.7784C21.5803 28.8589 21.693 28.9394 21.8057 29.0199C21.8595 29.0584 21.9132 29.0968 21.9686 29.1365C22.1495 29.2653 22.3319 29.3917 22.516 29.5159C22.564 29.5484 22.6121 29.5808 22.6615 29.6142C22.796 29.7 22.796 29.7 23.0077 29.7618C23.0077 29.125 23.0077 28.4882 23.0077 27.8321C26.0447 27.8321 29.0818 27.8321 32.2108 27.8321C32.2108 29.3261 32.2108 30.8201 32.2108 32.3594C28.5675 32.3661 24.9242 32.3715 21.2809 32.3746C20.851 32.375 20.4211 32.3753 19.9913 32.3757C19.8629 32.3759 19.8629 32.3759 19.732 32.376C18.3452 32.3773 16.9584 32.3796 15.5716 32.3823C14.1493 32.3851 12.727 32.3868 11.3047 32.3874C10.4266 32.3878 9.54855 32.3891 8.67048 32.3915C8.06884 32.393 7.46721 32.3935 6.86557 32.3931C6.51815 32.3929 6.17074 32.3932 5.82332 32.3948C5.50544 32.3963 5.1876 32.3963 4.86973 32.3953C4.75455 32.3952 4.63937 32.3956 4.52419 32.3965C4.36791 32.3977 4.21175 32.3971 4.05547 32.396C3.92514 32.3961 3.92514 32.3961 3.79218 32.3963C3.51242 32.3514 3.38961 32.2617 3.1913 32.0626C3.12065 31.8506 3.10655 31.7137 3.10394 31.4935C3.10299 31.4234 3.10204 31.3533 3.10106 31.281C3.10051 31.2054 3.09996 31.1298 3.0994 31.0519C3.0988 30.974 3.0982 30.8962 3.09758 30.8159C3.09655 30.6511 3.09576 30.4863 3.09517 30.3214C3.0939 30.0694 3.09064 29.8175 3.08737 29.5655C3.08661 29.4054 3.08598 29.2452 3.08548 29.0851C3.08418 29.0098 3.08288 28.9345 3.08154 28.8569C3.08315 28.333 3.08315 28.333 3.25822 28.046C3.53714 27.7958 3.7743 27.8218 4.1325 27.8232Z" fill="#FEE6BE"/>
<path d="M10.5069 17.4321C10.6367 17.4319 10.6367 17.4319 10.7691 17.4316C10.9124 17.432 10.9124 17.432 11.0586 17.4323C11.1607 17.4323 11.2628 17.4322 11.365 17.4321C11.6463 17.4319 11.9275 17.4322 12.2088 17.4326C12.5119 17.4329 12.815 17.4328 13.1181 17.4328C13.6435 17.4327 14.1688 17.433 14.6941 17.4334C15.4537 17.434 16.2133 17.4342 16.9728 17.4343C18.2051 17.4344 19.4374 17.4349 20.6696 17.4356C21.8668 17.4363 23.0641 17.4368 24.2613 17.4371C24.335 17.4372 24.4088 17.4372 24.4848 17.4372C24.8548 17.4373 25.2249 17.4374 25.5949 17.4375C28.6661 17.4383 31.7372 17.4396 34.8084 17.4412C34.7979 17.5177 34.7874 17.5942 34.7766 17.6729C34.7628 17.7742 34.7491 17.8756 34.7353 17.9769C34.725 18.0523 34.725 18.0523 34.7144 18.1292C34.6673 18.4779 34.6409 18.8136 34.6402 19.1651C34.6401 19.2156 34.6399 19.2661 34.6398 19.3181C34.6397 19.4227 34.6399 19.5273 34.6406 19.6319C34.6414 19.7888 34.6406 19.9457 34.6396 20.1027C34.6397 20.2061 34.6399 20.3095 34.6402 20.4129C34.6405 20.5486 34.6405 20.5486 34.6407 20.687C34.6668 21.1171 34.7429 21.5428 34.8084 21.9686C30.9141 21.9686 27.0198 21.9686 23.0076 21.9686C23.0076 21.1113 23.0076 20.2541 23.0076 19.3709C21.3911 19.3709 19.7746 19.3709 18.1091 19.3709C18.1091 20.2526 18.1091 21.1343 18.1091 22.0428C17.1085 22.0512 16.1078 22.058 15.1071 22.062C14.6423 22.0639 14.1776 22.0666 13.7129 22.0708C13.2639 22.0748 12.8149 22.077 12.3659 22.078C12.1951 22.0787 12.0243 22.08 11.8536 22.082C9.80311 22.1052 9.80311 22.1052 8.95704 21.3032C8.44375 20.6842 8.32179 20.0053 8.38649 19.2225C8.45212 18.9753 8.5508 18.7724 8.68336 18.5545C8.71398 18.5026 8.74459 18.4508 8.77614 18.3974C9.17083 17.8031 9.7928 17.4318 10.5069 17.4321Z" fill="#FEE6BF"/>
<path d="M8.16402 33.1757C8.33331 33.1481 8.33331 33.1481 8.54972 33.1483C8.63197 33.1479 8.71422 33.1474 8.79896 33.147C8.89007 33.1476 8.98118 33.1483 9.07505 33.1489C9.17126 33.1487 9.26746 33.1486 9.36658 33.1484C9.6345 33.1479 9.9024 33.1488 10.1703 33.1499C10.4589 33.1508 10.7475 33.1505 11.036 33.1503C11.5363 33.1502 12.0366 33.1509 12.5369 33.1522C13.2602 33.154 13.9835 33.1546 14.7068 33.1548C15.8803 33.1553 17.0537 33.1568 18.2272 33.1589C19.3673 33.161 20.5074 33.1625 21.6475 33.1635C21.7178 33.1635 21.788 33.1636 21.8604 33.1637C22.2127 33.164 22.5651 33.1642 22.9174 33.1645C25.8421 33.1668 28.7667 33.1707 31.6914 33.1757C28.7677 36.1143 24.2664 37.9886 20.1298 38.0176C20.0463 38.0182 19.9629 38.0188 19.8769 38.0194C19.7003 38.0205 19.5237 38.0213 19.3471 38.0218C19.1705 38.0227 18.9939 38.0242 18.8173 38.0264C15.2834 38.0706 11.891 37.0585 8.89403 35.1869C8.77095 35.1133 8.64274 35.0484 8.51424 34.9848C8.29555 34.8669 8.1617 34.7874 8.01558 34.5859C7.93398 34.1115 7.88897 33.5883 8.16402 33.1757Z" fill="#CE4529"/>
<path d="M6.01301 22.2262C6.10004 22.2259 6.18706 22.2257 6.27672 22.2254C6.4607 22.2252 6.64467 22.2257 6.82864 22.227C7.10915 22.2285 7.38952 22.227 7.67003 22.2251C7.84906 22.2253 8.02808 22.2256 8.2071 22.2262C8.33226 22.2253 8.33226 22.2253 8.45995 22.2244C8.88384 22.2294 9.20492 22.2533 9.56704 22.4845C10.055 22.7295 10.5654 22.7334 11.099 22.7346C11.1751 22.7354 11.2512 22.7361 11.3296 22.7369C11.5794 22.7392 11.8292 22.7404 12.0789 22.7417C12.2528 22.7431 12.4267 22.7445 12.6006 22.7461C13.0569 22.7499 13.5132 22.7528 13.9695 22.7556C14.5178 22.7591 15.066 22.7636 15.6142 22.768C16.4459 22.7746 17.2775 22.7798 18.1092 22.7852C18.1092 24.2057 18.1092 25.6263 18.1092 27.0899C13.6516 27.0899 9.19406 27.0899 4.60141 27.0899C4.46112 26.8093 4.43398 26.7154 4.43141 26.4189C4.43046 26.3446 4.42951 26.2703 4.42854 26.1937C4.42837 26.1138 4.42821 26.034 4.42804 25.9517C4.42754 25.8691 4.42705 25.7866 4.42654 25.7015C4.42579 25.527 4.42544 25.3524 4.42546 25.1779C4.42514 24.9112 4.42244 24.6446 4.41963 24.378C4.41919 24.2083 4.4189 24.0386 4.41876 23.8689C4.41769 23.7893 4.41663 23.7098 4.41553 23.6278C4.41823 23.1856 4.44033 22.9047 4.74984 22.5625C4.7988 22.5052 4.84775 22.4478 4.89819 22.3887C5.25502 22.1916 5.61207 22.2234 6.01301 22.2262Z" fill="#40C0F9"/>
<path d="M15.1406 11.7267C16.7953 11.7267 16.7953 11.7267 17.5156 12.0978C18.5676 12.4163 19.8859 12.2115 20.8555 11.7267C21.004 11.7199 21.1528 11.718 21.3015 11.7183C21.3965 11.7183 21.4914 11.7183 21.5892 11.7183C21.6904 11.7187 21.7916 11.7191 21.8928 11.7195C21.9846 11.7195 22.0763 11.7196 22.1709 11.7197C22.5148 11.7201 22.8587 11.7211 23.2026 11.7221C23.9711 11.7236 24.7395 11.7251 25.5312 11.7267C25.5312 13.3432 25.5312 14.9597 25.5312 16.6252C22.1023 16.6252 18.6734 16.6252 15.1406 16.6252C15.1406 15.0087 15.1406 13.3922 15.1406 11.7267Z" fill="#FE9000"/>
<path d="M23.0822 22.0432C24.6473 22.0397 26.2124 22.0371 27.7775 22.0355C28.5041 22.0347 29.2308 22.0337 29.9574 22.032C30.5906 22.0305 31.2238 22.0295 31.8569 22.0292C32.1924 22.029 32.5278 22.0285 32.8632 22.0275C33.1786 22.0265 33.4941 22.0262 33.8095 22.0264C33.9255 22.0263 34.0416 22.026 34.1576 22.0255C34.3155 22.0247 34.4734 22.0249 34.6313 22.0253C34.7198 22.0252 34.8084 22.025 34.8996 22.0249C35.1056 22.0432 35.1056 22.0432 35.254 22.1916C35.2805 22.3979 35.2899 22.5134 35.1654 22.6843C34.9845 22.8207 34.8703 22.8122 34.645 22.8106C34.5663 22.8106 34.4875 22.8106 34.4064 22.8106C34.2791 22.8089 34.2791 22.8089 34.1492 22.8071C34.0622 22.8068 33.9752 22.8065 33.8855 22.8061C33.6072 22.8049 33.329 22.8021 33.0507 22.7993C32.8622 22.7982 32.6737 22.7971 32.4852 22.7962C32.0227 22.7938 31.5603 22.79 31.0978 22.7854C31.0874 22.864 31.0771 22.9427 31.0664 23.0238C31.0334 23.2406 30.9943 23.4373 30.932 23.6464C30.914 23.7068 30.8961 23.7671 30.8776 23.8293C30.8584 23.892 30.8392 23.9547 30.8195 24.0192C30.7994 24.085 30.7794 24.1507 30.7587 24.2185C30.5269 24.968 30.2522 25.6769 29.8981 26.3768C29.8707 26.4314 29.8432 26.4859 29.815 26.5421C29.7479 26.6754 29.6807 26.8085 29.6134 26.9416C29.6928 26.9427 29.7722 26.9438 29.854 26.9449C30.1489 26.9492 30.4438 26.9549 30.7387 26.9611C30.8662 26.9635 30.9938 26.9656 31.1213 26.9673C31.3049 26.9698 31.4883 26.9737 31.6718 26.9778C31.7287 26.9783 31.7857 26.9788 31.8443 26.9793C32.084 26.9859 32.2584 27.001 32.4703 27.1176C32.5822 27.2385 32.5822 27.2385 32.61 27.4287C32.5822 27.6096 32.5822 27.6096 32.4337 27.758C32.2683 27.7763 32.2683 27.7763 32.058 27.7759C31.9388 27.7762 31.9388 27.7762 31.8171 27.7765C31.7295 27.7759 31.6419 27.7754 31.5516 27.7749C31.4597 27.7749 31.3677 27.7749 31.273 27.7749C31.0204 27.7748 30.7679 27.7741 30.5153 27.7731C30.2516 27.7721 29.9878 27.772 29.724 27.7719C29.2243 27.7714 28.7246 27.7702 28.225 27.7687C27.6562 27.767 27.0874 27.7662 26.5186 27.7655C25.3484 27.7639 24.1782 27.7613 23.0079 27.758C23.0062 27.1225 23.0049 26.4869 23.0041 25.8514C23.0037 25.5562 23.0032 25.2611 23.0023 24.9659C23.0015 24.6805 23.0011 24.3952 23.0009 24.1098C23.0008 24.0014 23.0005 23.8931 23.0001 23.7847C22.9996 23.6319 22.9995 23.479 22.9995 23.3261C22.9994 23.2394 22.9992 23.1527 22.999 23.0634C23.01 22.7211 23.0443 22.3834 23.0822 22.0432Z" fill="#6760B2"/>
<path d="M18.1094 19.3711C19.7259 19.3711 21.3423 19.3711 23.0078 19.3711C23.0687 21.6679 23.0846 23.9566 23.0527 26.2537C23.0473 26.6519 23.0426 27.0502 23.0378 27.4485C23.0285 28.2196 23.0184 28.9906 23.0078 29.7617C22.6572 29.7044 22.4341 29.5642 22.1543 29.3535C22.0624 29.2866 21.9705 29.2197 21.8786 29.1529C21.739 29.0502 21.5998 28.9469 21.4614 28.8425C21.3329 28.7458 21.2033 28.6507 21.0735 28.5557C20.9976 28.4986 20.9217 28.4416 20.8436 28.3829C20.6442 28.2567 20.6442 28.2567 20.4531 28.3101C20.1999 28.4632 19.964 28.6323 19.7283 28.8108C19.6293 28.8842 19.5304 28.9575 19.4314 29.0308C19.2608 29.158 19.0908 29.2858 18.9211 29.4141C18.8247 29.4851 18.8247 29.4851 18.7263 29.5576C18.6709 29.5993 18.6155 29.641 18.5585 29.684C18.4062 29.7617 18.4062 29.7617 18.1094 29.6875C18.1094 26.2831 18.1094 22.8787 18.1094 19.3711Z" fill="#E9552D"/>
<path d="M4.1325 27.8232C4.22179 27.8231 4.22179 27.8231 4.31289 27.823C4.51346 27.8228 4.71403 27.8233 4.9146 27.8237C5.05794 27.8237 5.20128 27.8237 5.34462 27.8236C5.73471 27.8236 6.12479 27.824 6.51488 27.8246C6.92219 27.825 7.3295 27.8251 7.73682 27.8252C8.50855 27.8254 9.28028 27.826 10.052 27.8267C10.9304 27.8276 11.8088 27.828 12.6872 27.8284C14.4946 27.8291 16.3019 27.8305 18.1093 27.8321C18.1093 28.4199 18.1093 29.0077 18.1093 29.6133C14.0681 29.6133 10.0268 29.6133 5.86318 29.6133C5.86318 29.9317 5.86318 30.2501 5.86318 30.5782C5.97256 30.5779 6.08195 30.5775 6.19466 30.5772C7.22348 30.5742 8.25229 30.5719 9.28112 30.5705C9.8101 30.5697 10.3391 30.5687 10.868 30.567C11.3781 30.5654 11.8882 30.5645 12.3983 30.5641C12.5934 30.5638 12.7884 30.5633 12.9834 30.5625C13.2557 30.5614 13.5279 30.5613 13.8002 30.5613C13.8816 30.5608 13.9629 30.5603 14.0467 30.5597C14.1576 30.56 14.1576 30.56 14.2707 30.5603C14.3351 30.5602 14.3995 30.5601 14.4659 30.5599C14.621 30.5782 14.621 30.5782 14.7694 30.7266C14.788 30.9122 14.788 30.9122 14.7694 31.0977C14.621 31.2462 14.621 31.2462 14.4659 31.2644C14.3693 31.2642 14.3693 31.2642 14.2707 31.264C14.1968 31.2642 14.1229 31.2644 14.0467 31.2646C13.9654 31.2641 13.884 31.2636 13.8002 31.263C13.7148 31.263 13.6293 31.263 13.5413 31.2631C13.2578 31.263 12.9742 31.2618 12.6907 31.2606C12.4946 31.2604 12.2984 31.2602 12.1023 31.26C11.6381 31.2595 11.1739 31.2583 10.7097 31.2568C10.1813 31.2552 9.6529 31.2544 9.12449 31.2536C8.03738 31.2521 6.95028 31.2495 5.86318 31.2462C5.88614 31.39 5.90939 31.5338 5.93276 31.6775C5.94567 31.7576 5.95859 31.8377 5.97189 31.9202C6.00706 32.1404 6.00706 32.1404 6.08583 32.3594C5.73325 32.3668 5.38072 32.3722 5.02809 32.3757C4.90822 32.3772 4.78836 32.3793 4.66852 32.3818C4.49588 32.3854 4.32331 32.3871 4.15064 32.3884C4.09735 32.39 4.04407 32.3915 3.98918 32.3931C3.72195 32.3932 3.57319 32.3662 3.34472 32.2231C3.12284 31.9909 3.1076 31.8017 3.10394 31.4935C3.10299 31.4234 3.10204 31.3533 3.10106 31.281C3.10051 31.2054 3.09996 31.1298 3.0994 31.0519C3.0988 30.974 3.0982 30.8962 3.09758 30.8159C3.09655 30.6511 3.09576 30.4863 3.09517 30.3214C3.0939 30.0694 3.09064 29.8175 3.08737 29.5655C3.08661 29.4054 3.08598 29.2452 3.08548 29.0851C3.08418 29.0098 3.08288 28.9345 3.08154 28.8569C3.08315 28.333 3.08315 28.333 3.25822 28.046C3.53714 27.7958 3.7743 27.8218 4.1325 27.8232Z" fill="#FED298"/>
<path d="M31.8829 4.38911C32.6966 5.01385 33.3325 5.94157 33.4728 6.97633C33.5486 7.90495 33.3743 8.63257 33.0275 9.49977C30.7252 9.49977 28.4229 9.49977 26.0509 9.49977C25.5679 8.53382 25.4527 7.56472 25.654 6.49681C25.7221 6.29759 25.802 6.1222 25.9025 5.93727C25.9411 5.86207 25.9798 5.78687 26.0196 5.70939C26.5511 4.73502 27.3152 4.12198 28.3702 3.74781C29.614 3.41363 30.8255 3.65711 31.8829 4.38911Z" fill="#AAA5D4"/>
<path d="M21.1189 4.38003C21.8353 4.95953 22.4497 5.83294 22.6369 6.75387C22.7175 7.69514 22.6927 8.57046 22.2658 9.42575C22.1264 9.56512 21.925 9.50888 21.7396 9.5092C21.6746 9.50893 21.6097 9.50867 21.5427 9.50839C21.4406 9.50841 21.4406 9.50841 21.3365 9.50843C21.1104 9.50837 20.8843 9.5078 20.6582 9.50722C20.5019 9.50708 20.3456 9.50697 20.1893 9.5069C19.777 9.50661 19.3647 9.50588 18.9524 9.50506C18.532 9.50431 18.1117 9.50397 17.6913 9.50359C16.8659 9.50279 16.0404 9.50153 15.215 9.49997C15.1542 9.34865 15.094 9.19707 15.0341 9.04538C15.0005 8.96099 14.9669 8.87661 14.9323 8.78967C14.5822 7.78188 14.7271 6.72314 15.1785 5.77714C15.7089 4.80149 16.4882 4.16765 17.5187 3.77295C18.7554 3.41628 20.0681 3.64384 21.1189 4.38003Z" fill="#AAA5D4"/>
<path d="M3.99857 27.0811C4.05877 27.081 4.11897 27.081 4.181 27.0809C4.38339 27.0808 4.58578 27.0812 4.78817 27.0816C4.93298 27.0816 5.07779 27.0816 5.22261 27.0816C5.61637 27.0815 6.01013 27.082 6.40389 27.0825C6.81517 27.083 7.22644 27.083 7.63771 27.0831C8.4168 27.0833 9.19589 27.0839 9.97498 27.0847C10.8618 27.0855 11.7487 27.0859 12.6355 27.0863C14.4601 27.0871 16.2847 27.0884 18.1092 27.09C18.1092 27.3349 18.1092 27.5799 18.1092 27.8322C18.0346 27.8323 17.96 27.8323 17.8831 27.8323C16.0682 27.8334 14.2533 27.8366 12.4384 27.842C11.5608 27.8446 10.6831 27.8465 9.80544 27.8467C9.04057 27.847 8.27571 27.8485 7.51085 27.8515C7.10576 27.8531 6.70069 27.8541 6.2956 27.8534C5.91443 27.8529 5.53329 27.8541 5.15213 27.8566C5.01214 27.8572 4.87214 27.8571 4.73215 27.8565C4.54112 27.8556 4.35024 27.857 4.15923 27.859C4.07595 27.8578 4.07595 27.8578 3.99098 27.8566C3.69819 27.8623 3.57333 27.8976 3.34238 28.0839C3.17809 28.2944 3.14494 28.3786 3.14559 28.6408C3.1449 28.7109 3.14421 28.781 3.1435 28.8532C3.14532 28.9655 3.14532 28.9655 3.14718 29.08C3.14718 29.1965 3.14718 29.1965 3.14717 29.3154C3.14757 29.4793 3.14888 29.6433 3.15102 29.8072C3.15413 30.0579 3.15407 30.3085 3.15356 30.5592C3.15434 30.7186 3.1553 30.8781 3.15646 31.0375C3.15648 31.1124 3.15649 31.1872 3.15651 31.2643C3.16051 31.7772 3.16051 31.7772 3.41391 32.2111C3.67214 32.3793 3.89278 32.3782 4.19663 32.3784C4.24555 32.3786 4.29446 32.3788 4.34487 32.3791C4.50949 32.3796 4.6741 32.3792 4.83872 32.3787C4.95766 32.3789 5.07659 32.3792 5.19552 32.3796C5.52289 32.3803 5.85026 32.3801 6.17764 32.3798C6.53047 32.3796 6.8833 32.3803 7.23613 32.3809C7.84765 32.3818 8.45917 32.3821 9.0707 32.3822C9.95503 32.3823 10.8393 32.3834 11.7237 32.3848C13.1586 32.3871 14.5935 32.3889 16.0284 32.3902C16.1143 32.3903 16.2002 32.3904 16.2887 32.3905C17.2477 32.3914 18.2067 32.3921 19.1656 32.3927C19.5136 32.393 19.8615 32.3932 20.2094 32.3934C20.3382 32.3935 20.3382 32.3935 20.4696 32.3936C21.8992 32.3946 23.3288 32.3964 24.7585 32.3989C25.641 32.4004 26.5235 32.4012 27.4061 32.401C28.0103 32.4009 28.6144 32.4016 29.2186 32.4029C29.5677 32.4037 29.9167 32.4041 30.2658 32.4035C30.5849 32.403 30.9039 32.4034 31.223 32.4047C31.3389 32.405 31.4547 32.4049 31.5706 32.4044C31.7273 32.4038 31.8838 32.4045 32.0405 32.4056C32.1278 32.4057 32.215 32.4058 32.3049 32.4058C32.4053 32.4197 32.4053 32.4197 32.5077 32.4338C32.6561 32.6564 32.6561 32.6564 32.6375 32.8466C32.5819 33.0275 32.5819 33.0275 32.4334 33.176C32.2594 33.1949 32.2594 33.1949 32.0361 33.1954C31.9513 33.1959 31.8665 33.1965 31.7791 33.1971C31.6851 33.1969 31.5911 33.1968 31.4942 33.1966C31.394 33.197 31.2938 33.1974 31.1935 33.1979C30.9171 33.1991 30.6408 33.1994 30.3644 33.1995C30.0667 33.1997 29.769 33.2009 29.4713 33.2019C28.9553 33.2035 28.4392 33.2047 27.9231 33.2054C27.177 33.2065 26.4308 33.2084 25.6847 33.2105C24.4742 33.2138 23.2637 33.2166 22.0532 33.2189C20.8771 33.2211 19.7009 33.2237 18.5248 33.2266C18.4524 33.2268 18.3799 33.227 18.3053 33.2272C17.9418 33.2281 17.5783 33.229 17.2149 33.2299C14.1979 33.2376 11.1809 33.2443 8.16391 33.2502C8.05102 33.476 8.06191 33.7163 8.04794 33.9645C8.04313 34.0432 8.04313 34.0432 8.03823 34.1234C8.03035 34.2529 8.02287 34.3824 8.01547 34.5119C7.72753 34.3862 7.49115 34.1985 7.24545 34.0063C7.2045 33.9747 7.16355 33.943 7.12137 33.9105C6.92208 33.7559 6.73613 33.6039 6.55581 33.4263C6.27581 33.1936 6.02118 33.2007 5.66888 33.2081C5.60832 33.2077 5.54776 33.2073 5.48536 33.2069C5.29272 33.2057 5.1002 33.2068 4.90756 33.2084C4.71546 33.2097 4.52345 33.2103 4.33135 33.2092C4.21222 33.2085 4.09308 33.2092 3.97397 33.2114C3.51644 33.2092 3.11975 33.0921 2.78073 32.7717C2.49578 32.4424 2.35692 32.1855 2.35328 31.7515C2.35234 31.6747 2.35139 31.5979 2.35041 31.5188C2.35025 31.4361 2.35008 31.3535 2.34991 31.2683C2.34942 31.1828 2.34892 31.0973 2.34841 31.0093C2.34766 30.8284 2.34731 30.6474 2.34734 30.4665C2.34702 30.1907 2.34432 29.915 2.3415 29.6393C2.34107 29.4633 2.34077 29.2873 2.34063 29.1113C2.33957 29.0293 2.3385 28.9472 2.3374 28.8627C2.34072 28.2972 2.42107 27.8936 2.80653 27.4568C2.8493 27.423 2.89206 27.3892 2.93612 27.3544C2.97908 27.3193 3.02204 27.2842 3.0663 27.248C3.35798 27.0524 3.66228 27.0798 3.99857 27.0811Z" fill="#4A3F82"/>
<path d="M7.42177 10.5391C7.55832 10.5536 7.55832 10.5536 7.71864 10.6133C7.82098 10.7751 7.82098 10.7751 7.90883 10.9751C8.01687 11.2181 8.10339 11.409 8.31239 11.5781C8.38587 11.6026 8.45935 11.6271 8.53505 11.6523C8.66029 11.7544 8.66029 11.7544 8.75771 11.875C8.75771 11.9485 8.75771 12.022 8.75771 12.0977C8.88017 12.0977 9.00263 12.0977 9.1288 12.0977C9.17778 11.9752 9.22677 11.8527 9.27724 11.7266C9.98751 11.7266 10.6978 11.7266 11.4296 11.7266C11.5031 11.9837 11.5031 11.9837 11.578 12.2461C11.6877 12.3872 11.6877 12.3872 11.8007 12.4688C11.7711 12.5011 11.7415 12.5334 11.7111 12.5667C11.1381 13.2108 11.0199 13.7808 11.0388 14.6318C11.0892 15.3643 11.3739 15.8103 11.8804 16.3284C12.0233 16.4766 12.0233 16.4766 12.0976 16.625C12.0486 16.6257 11.9997 16.6264 11.9493 16.6271C10.5351 16.6387 10.5351 16.6387 9.20302 17.0703C8.86944 17.0878 8.53556 17.0873 8.20157 17.0881C8.03574 17.0889 7.86997 17.0912 7.70415 17.0935C7.59804 17.094 7.49193 17.0944 7.38582 17.0947C7.24149 17.0957 7.24149 17.0957 7.09424 17.0968C6.75942 17.0635 6.50804 16.9647 6.26065 16.7337C6.02802 16.4295 5.9285 16.2774 5.92426 15.8978C5.9233 15.8237 5.92235 15.7496 5.92137 15.6733C5.92082 15.5929 5.92027 15.5125 5.91971 15.4297C5.91911 15.3471 5.91851 15.2645 5.91789 15.1795C5.91687 15.0043 5.91607 14.8292 5.91549 14.6541C5.91421 14.3869 5.91096 14.1198 5.90768 13.8527C5.90693 13.6825 5.90629 13.5124 5.90579 13.3423C5.90449 13.2626 5.90319 13.183 5.90186 13.1009C5.90323 12.6254 5.95619 12.3388 6.23427 11.9492C6.18528 11.9247 6.1363 11.9002 6.08583 11.875C6.10149 11.7367 6.10149 11.7367 6.16005 11.5781C6.31139 11.4914 6.31139 11.4914 6.50331 11.4158C6.93823 11.2171 7.16297 10.9324 7.42177 10.5391Z" fill="#FD9001"/>
<path d="M10.3651 16.6896C10.4531 16.6894 10.5411 16.6892 10.6318 16.6889C10.7289 16.689 10.8261 16.6892 10.9262 16.6893C11.03 16.6891 11.1339 16.689 11.2378 16.6888C11.5238 16.6883 11.8099 16.6883 12.096 16.6884C12.4043 16.6884 12.7125 16.688 13.0208 16.6877C13.6249 16.687 14.229 16.6868 14.8331 16.6868C15.3239 16.6868 15.8147 16.6866 16.3055 16.6864C17.6957 16.6857 19.086 16.6854 20.4762 16.6854C20.5512 16.6854 20.6262 16.6854 20.7034 16.6854C20.7785 16.6854 20.8536 16.6854 20.931 16.6855C22.1487 16.6855 23.3664 16.6848 24.5841 16.6837C25.8333 16.6827 27.0824 16.6821 28.3316 16.6822C29.0333 16.6822 29.7351 16.682 30.4369 16.6812C31.0342 16.6806 31.6316 16.6804 32.2289 16.6809C32.5339 16.6811 32.8389 16.6811 33.1439 16.6805C33.4227 16.6799 33.7016 16.68 33.9804 16.6807C34.1298 16.6808 34.2793 16.6803 34.4287 16.6797C34.5165 16.68 34.6043 16.6804 34.6948 16.6807C34.771 16.6807 34.8473 16.6807 34.9259 16.6807C35.1054 16.6992 35.1054 16.6992 35.2538 16.8476C35.2724 17.0332 35.2724 17.0332 35.2538 17.2187C35.0589 17.4136 34.9752 17.3857 34.7034 17.3858C34.6175 17.3861 34.5316 17.3865 34.4432 17.3869C34.348 17.3865 34.2528 17.3862 34.1547 17.3858C34.0533 17.386 33.9518 17.3862 33.8503 17.3865C33.5704 17.3871 33.2905 17.3868 33.0106 17.3863C32.7092 17.386 32.4077 17.3865 32.1062 17.3869C31.5833 17.3876 31.0604 17.3877 30.5375 17.3875C29.7807 17.3873 29.0238 17.3882 28.2669 17.3894C27.0378 17.3913 25.8088 17.3928 24.5797 17.3938C24.5061 17.3938 24.4325 17.3939 24.3566 17.3939C23.313 17.3948 22.2694 17.3952 21.2257 17.3954C21.1523 17.3954 21.0789 17.3954 21.0033 17.3954C20.93 17.3954 20.8566 17.3955 20.7811 17.3955C19.5575 17.3958 18.334 17.3972 17.1104 17.3995C16.3558 17.4009 15.6011 17.4014 14.8464 17.4006C14.3288 17.4001 13.8112 17.4007 13.2936 17.4021C12.9951 17.4029 12.6967 17.4032 12.3982 17.4022C12.1245 17.4013 11.8509 17.4018 11.5772 17.4034C11.4322 17.4038 11.2871 17.4029 11.1421 17.4018C10.3256 17.4089 9.57558 17.5938 8.98037 18.1836C8.50061 18.7955 8.38875 19.4215 8.46084 20.1875C8.59848 20.7521 8.87888 21.2304 9.36451 21.5582C9.93871 21.8902 10.4252 21.9909 11.0822 21.9924C11.1963 21.9935 11.1963 21.9935 11.3128 21.9946C11.5633 21.9969 11.8139 21.9982 12.0645 21.9995C12.2386 22.0008 12.4127 22.0023 12.5868 22.0038C13.0443 22.0076 13.5019 22.0106 13.9594 22.0133C14.4266 22.0163 14.8937 22.0201 15.3609 22.0238C16.277 22.031 17.1931 22.0373 18.1093 22.0429C18.1093 22.2879 18.1093 22.5328 18.1093 22.7851C17.1099 22.792 16.1105 22.7973 15.111 22.8005C14.6469 22.8021 14.1828 22.8042 13.7186 22.8075C13.2701 22.8108 12.8216 22.8125 12.3731 22.8133C12.2026 22.8138 12.0321 22.8149 11.8615 22.8165C10.5352 22.8285 9.48305 22.7758 8.46113 21.8319C7.8212 21.1603 7.6186 20.3749 7.62878 19.4708C7.67923 18.671 8.04719 17.965 8.62783 17.4182C9.13202 16.996 9.70128 16.6901 10.3651 16.6896Z" fill="#453E84"/>
<path d="M10.5049 17.4341C10.5846 17.4343 10.6642 17.4346 10.7463 17.4348C10.8294 17.4355 10.9125 17.4361 10.9981 17.4367C11.124 17.4372 11.124 17.4372 11.2525 17.4377C11.4599 17.4386 11.6673 17.4398 11.8748 17.4414C11.8181 17.4965 11.7615 17.5516 11.7031 17.6084C11.5447 17.7704 11.4137 17.9272 11.281 18.1093C11.3225 18.1092 11.364 18.1091 11.4067 18.1089C12.4158 18.1056 13.4248 18.1032 14.4338 18.1016C14.9218 18.1009 15.4098 18.0998 15.8977 18.0981C16.3683 18.0965 16.839 18.0956 17.3096 18.0952C17.4895 18.095 17.6693 18.0944 17.8491 18.0936C18.1004 18.0926 18.3517 18.0924 18.603 18.0925C18.6778 18.0919 18.7527 18.0914 18.8298 18.0909C18.8981 18.0911 18.9665 18.0913 19.037 18.0915C19.0964 18.0913 19.1559 18.0912 19.2171 18.0911C19.3709 18.1093 19.3709 18.1093 19.5935 18.2578C19.6214 18.4804 19.6214 18.4804 19.5935 18.7031C19.3557 18.8616 19.2935 18.8704 19.0201 18.8722C18.9479 18.873 18.8758 18.8738 18.8015 18.8747C18.7225 18.8749 18.6435 18.875 18.5621 18.8752C18.4372 18.8763 18.4372 18.8763 18.3097 18.8774C18.0338 18.8797 17.7579 18.881 17.4821 18.8822C17.291 18.8836 17.1 18.8851 16.9089 18.8866C16.4571 18.89 16.0053 18.8928 15.5534 18.8953C15.039 18.8981 14.5246 18.9018 14.0102 18.9055C12.952 18.9132 11.8939 18.9198 10.8357 18.9257C10.7579 19.1591 10.7516 19.3257 10.7522 19.5705C10.752 19.6443 10.7518 19.718 10.7516 19.794C10.7629 20.0748 10.8009 20.354 10.8357 20.6328C13.2359 20.6328 15.6362 20.6328 18.1091 20.6328C18.1091 21.0981 18.1091 21.5635 18.1091 22.0429C17.1084 22.0513 16.1078 22.0581 15.1071 22.0621C14.6423 22.0641 14.1776 22.0667 13.7129 22.0709C13.2639 22.075 12.8149 22.0772 12.3659 22.0781C12.1951 22.0788 12.0243 22.0801 11.8536 22.0822C9.80311 22.1053 9.80311 22.1053 8.95704 21.3033C8.44375 20.6843 8.32179 20.0054 8.38649 19.2226C8.45212 18.9755 8.5508 18.7725 8.68336 18.5546C8.71398 18.5028 8.74459 18.4509 8.77614 18.3975C9.16982 17.8047 9.79182 17.4303 10.5049 17.4341Z" fill="#FCD199"/>
<path d="M12.8398 22.7852C14.5788 22.7852 16.3177 22.7852 18.1094 22.7852C18.1094 24.2057 18.1094 25.6263 18.1094 27.0898C13.6518 27.0898 9.19422 27.0898 4.60156 27.0898C4.60156 27.0654 4.60156 27.0409 4.60156 27.0156C7.3202 27.0156 10.0388 27.0156 12.8398 27.0156C12.8398 25.6196 12.8398 24.2235 12.8398 22.7852Z" fill="#07A9F0"/>
<path d="M18.1095 19.3711C19.726 19.3711 21.3424 19.3711 23.0079 19.3711C23.0378 20.0048 23.0378 20.0048 23.0682 20.6514C23.0755 20.7827 23.0827 20.9141 23.0902 21.0495C23.1275 21.9039 23.016 22.5663 22.4698 23.2583C22.0254 23.7231 21.496 24.0812 20.8445 24.1434C20.0387 24.1463 19.4779 23.9727 18.8517 23.4531C18.2535 22.8084 18.0961 22.2286 18.1022 21.357C18.1023 21.3064 18.1024 21.2558 18.1024 21.2036C18.1028 21.0165 18.1039 20.8293 18.1048 20.6421C18.1064 20.2227 18.1079 19.8032 18.1095 19.3711Z" fill="#F66F26"/>
<path d="M25.5312 11.7266C27.3867 11.7266 27.3867 11.7266 28.0547 12.0234C28.3267 12.1008 28.3267 12.1008 28.5881 12.1487C28.6734 12.1658 28.7586 12.1829 28.8465 12.2006C29.0769 12.243 29.308 12.2818 29.5391 12.3203C29.5391 13.7409 29.5391 15.1614 29.5391 16.625C28.2165 16.625 26.8939 16.625 25.5312 16.625C25.5312 15.0085 25.5312 13.392 25.5312 11.7266Z" fill="#FEC04E"/>
<path d="M8.1641 33.1757C8.37918 33.1489 8.37918 33.1489 8.65786 33.1504C8.70856 33.1504 8.75925 33.1504 8.81148 33.1503C8.97936 33.1505 9.14719 33.1522 9.31507 33.154C9.43133 33.1544 9.5476 33.1547 9.66387 33.1549C9.97014 33.1558 10.2764 33.1579 10.5826 33.1604C10.95 33.1631 11.3173 33.1641 11.6846 33.1654C12.2429 33.1676 12.8011 33.1718 13.3594 33.1757C13.3594 34.4983 13.3594 35.8209 13.3594 37.1835C12.4387 36.9324 12.4387 36.9324 12.1232 36.8028C12.0527 36.7739 11.9822 36.745 11.9096 36.7152C11.8369 36.6845 11.7643 36.6538 11.6895 36.6222C11.6122 36.5896 11.5349 36.5571 11.4552 36.5235C10.793 36.2398 10.1496 35.9327 9.52457 35.5743C9.40459 35.5065 9.28347 35.4406 9.16152 35.3763C8.10636 34.8175 8.10636 34.8175 7.95619 34.434C7.87666 33.992 7.91245 33.5532 8.1641 33.1757Z" fill="#E9552D"/>
<path d="M24.7891 22.7851C25.3248 22.7805 25.8606 22.7759 26.4126 22.7712C26.5817 22.7691 26.7509 22.7671 26.9251 22.765C27.0587 22.7644 27.1923 22.7638 27.3258 22.7633C27.3956 22.7622 27.4653 22.7611 27.5372 22.7599C27.6366 22.7598 27.6366 22.7598 27.7381 22.7598C27.7957 22.7593 27.8534 22.7588 27.9129 22.7583C27.9597 22.7671 28.0065 22.776 28.0547 22.7851C28.2164 23.0277 28.2216 23.0962 28.2212 23.3769C28.2215 23.4895 28.2215 23.4895 28.2218 23.6044C28.2213 23.6853 28.2208 23.7663 28.2202 23.8497C28.2202 23.9328 28.2202 24.016 28.2201 24.1017C28.2199 24.2776 28.2193 24.4536 28.2184 24.6295C28.217 24.8992 28.2169 25.1689 28.2169 25.4387C28.2165 25.6094 28.2161 25.7802 28.2156 25.951C28.2155 26.0319 28.2154 26.1129 28.2153 26.1963C28.2149 26.2713 28.2144 26.3464 28.2139 26.4237C28.2135 26.5228 28.2135 26.5228 28.213 26.6239C28.2031 26.7929 28.2031 26.7929 28.1289 27.0155C27.0268 27.0155 25.9246 27.0155 24.7891 27.0155C24.7891 25.6195 24.7891 24.2234 24.7891 22.7851Z" fill="#71D0FA"/>
<path d="M7.42172 10.5391C7.55827 10.5536 7.55827 10.5536 7.71859 10.6133C7.82094 10.7751 7.82094 10.7751 7.90878 10.9751C8.01682 11.2181 8.10334 11.409 8.31234 11.5781C8.38582 11.6026 8.4593 11.6271 8.535 11.6523C8.66488 11.7498 8.66488 11.7498 8.75766 11.875C8.73446 12.0374 8.73446 12.0374 8.68344 12.1719C8.56098 12.1964 8.43852 12.2209 8.31234 12.2461C8.31234 13.8136 8.31234 15.3811 8.31234 16.9961C6.60531 16.9961 6.60531 16.9961 6.08578 16.5508C5.94565 16.2705 5.91836 16.177 5.91578 15.881C5.91484 15.8069 5.91389 15.7328 5.91291 15.6565C5.91275 15.5769 5.91258 15.4972 5.91241 15.4152C5.91192 15.3328 5.91142 15.2504 5.91091 15.1656C5.91016 14.9913 5.90981 14.8171 5.90984 14.6429C5.90951 14.377 5.90682 14.1113 5.904 13.8454C5.90357 13.676 5.90327 13.5065 5.90313 13.3371C5.90207 13.2579 5.901 13.1787 5.8999 13.0971C5.90279 12.6235 5.95779 12.3375 6.23422 11.9492C6.18524 11.9247 6.13625 11.9002 6.08578 11.875C6.10144 11.7367 6.10144 11.7367 6.16 11.5781C6.31134 11.4914 6.31134 11.4914 6.50326 11.4158C6.93818 11.2171 7.16292 10.9324 7.42172 10.5391Z" fill="#FEA80B"/>
<path d="M6.08594 27.832C10.0537 27.832 14.0214 27.832 18.1094 27.832C18.1094 28.1994 18.1094 28.5668 18.1094 28.9453C14.0682 28.9453 10.027 28.9453 5.86328 28.9453C5.86328 28.2773 5.86328 28.2773 6.08594 27.832Z" fill="#FFE6BE"/>
<path d="M10.0198 22.7109C11.4158 22.7477 11.4158 22.7477 12.8401 22.7852C12.8401 24.1812 12.8401 25.5773 12.8401 27.0156C11.8849 27.0156 10.9297 27.0156 9.94554 27.0156C9.80662 26.7378 9.7783 26.6491 9.77672 26.3571C9.77601 26.2855 9.7753 26.2139 9.77457 26.1402C9.77464 26.0633 9.77471 25.9865 9.77478 25.9073C9.77446 25.8279 9.77414 25.7484 9.77381 25.6666C9.77339 25.4987 9.77335 25.3308 9.77367 25.163C9.77391 24.9062 9.77216 24.6496 9.77028 24.3929C9.77011 24.2297 9.77006 24.0665 9.77014 23.9034C9.76945 23.8267 9.76877 23.75 9.76807 23.6709C9.76853 23.5991 9.76899 23.5273 9.76947 23.4533C9.76942 23.3904 9.76937 23.3275 9.76933 23.2627C9.7971 23.082 9.7971 23.082 10.0198 22.7109Z" fill="#71D0FA"/>
<path d="M27.3868 4.23047C27.4576 4.46603 27.4661 4.66945 27.4579 4.91467C27.4118 6.09117 27.4118 6.09117 27.7579 7.19922C27.812 7.31029 27.812 7.31029 27.8672 7.42361C28.1615 7.97604 28.5264 8.44402 29.0196 8.83203C29.0745 8.87651 29.1294 8.92099 29.186 8.96682C29.9146 9.47858 30.6652 9.42642 31.5245 9.42114C31.6706 9.42212 31.8168 9.42332 31.9629 9.42477C32.3178 9.42777 32.6725 9.42765 33.0275 9.42578C33.0275 9.45027 33.0275 9.47477 33.0275 9.5C30.7252 9.5 28.4229 9.5 26.0509 9.5C25.5679 8.53405 25.4527 7.56495 25.654 6.49704C25.7221 6.29782 25.802 6.12243 25.9025 5.9375C25.9411 5.8623 25.9798 5.7871 26.0196 5.70963C26.369 5.06895 26.7649 4.60971 27.3868 4.23047Z" fill="#928CC7"/>
<path d="M16.6992 4.15625C16.7482 4.18074 16.7972 4.20523 16.8477 4.23047C16.8116 4.30395 16.7755 4.37742 16.7384 4.45312C16.6129 4.74774 16.5879 5.02581 16.5925 5.34375C16.5932 5.39844 16.5938 5.45314 16.5944 5.50949C16.6282 6.63228 17.0515 7.64833 17.816 8.47485C18.0876 8.72694 18.3873 8.93606 18.7031 9.12891C18.7972 9.18638 18.7972 9.18638 18.8932 9.24502C19.2229 9.38262 19.5039 9.38693 19.8576 9.38954C19.9245 9.39087 19.9914 9.39221 20.0604 9.39358C20.2728 9.39758 20.4853 9.40011 20.6978 9.40259C20.8423 9.40505 20.9869 9.40761 21.1315 9.41027C21.4848 9.41656 21.8381 9.42153 22.1914 9.42578C22.1914 9.45027 22.1914 9.47477 22.1914 9.5C19.8892 9.5 17.5869 9.5 15.2149 9.5C14.7477 8.28542 14.5513 7.23242 15.0664 6.01172C15.4373 5.23445 15.9523 4.59673 16.6992 4.15625Z" fill="#928CC7"/>
<path d="M13.3594 33.1758C14.0941 33.1758 14.8289 33.1758 15.5859 33.1758C15.5859 34.6698 15.5859 36.1638 15.5859 37.7031C15.0664 37.7031 15.0664 37.7031 13.3594 37.2578C13.3594 35.9107 13.3594 34.5637 13.3594 33.1758Z" fill="#BC3F29"/>
<path d="M13.0811 8.51197C13.1878 8.51383 13.2946 8.51552 13.4014 8.51704C13.6596 8.52107 13.9177 8.52745 14.1758 8.53516C14.2133 8.6541 14.2503 8.77319 14.2871 8.89234C14.3078 8.95864 14.3284 9.02494 14.3497 9.09325C14.3984 9.27735 14.3984 9.27735 14.3984 9.5C14.3275 9.51627 14.2567 9.53253 14.1836 9.54929C13.2084 9.78416 12.3152 10.1367 11.7483 11.0096C11.5806 11.3546 11.5411 11.7191 11.5039 12.0977C11.4794 12.0977 11.4549 12.0977 11.4297 12.0977C11.4297 11.9752 11.4297 11.8527 11.4297 11.7266C10.7194 11.7266 10.0091 11.7266 9.27734 11.7266C9.38651 10.744 9.65675 9.94815 10.4144 9.27213C11.2578 8.64567 12.0574 8.48043 13.0811 8.51197Z" fill="#6B61B1"/>
<path d="M12.8398 22.7852C13.4766 22.7852 14.1134 22.7852 14.7695 22.7852C14.7695 24.1812 14.7695 25.5773 14.7695 27.0156C15.8717 27.0156 16.9738 27.0156 18.1094 27.0156C18.1094 27.0401 18.1094 27.0646 18.1094 27.0898C13.6518 27.0898 9.19422 27.0898 4.60156 27.0898C4.60156 27.0654 4.60156 27.0409 4.60156 27.0156C7.3202 27.0156 10.0388 27.0156 12.8398 27.0156C12.8398 25.6196 12.8398 24.2235 12.8398 22.7852Z" fill="#0B8FCD"/>
<path d="M23.082 22.0432C24.6471 22.0397 26.2122 22.0371 27.7773 22.0355C28.504 22.0347 29.2306 22.0337 29.9573 22.032C30.5905 22.0305 31.2236 22.0295 31.8568 22.0292C32.1922 22.029 32.5277 22.0285 32.8631 22.0275C33.1785 22.0265 33.4939 22.0262 33.8094 22.0264C33.9254 22.0263 34.0414 22.026 34.1575 22.0255C34.3154 22.0247 34.4733 22.0249 34.6312 22.0253C34.7197 22.0252 34.8082 22.025 34.8994 22.0249C35.1055 22.0432 35.1055 22.0432 35.2539 22.1916C35.2725 22.3772 35.2725 22.3772 35.2539 22.5627C35.1055 22.7111 35.1055 22.7111 34.8994 22.7294C34.8109 22.7293 34.7224 22.7291 34.6312 22.729C34.5573 22.7292 34.5573 22.7292 34.482 22.7294C34.3163 22.7296 34.1506 22.7288 33.9849 22.728C33.8664 22.7279 33.7479 22.728 33.6295 22.7281C33.3072 22.7281 32.9848 22.7272 32.6625 22.7262C32.326 22.7253 31.9894 22.7252 31.6528 22.725C31.0151 22.7245 30.3774 22.7233 29.7397 22.7218C29.0139 22.7202 28.2881 22.7194 27.5622 22.7186C26.0688 22.7171 24.5754 22.7144 23.082 22.7111C23.082 22.4907 23.082 22.2703 23.082 22.0432Z" fill="#453D83"/>
<path d="M23.082 22.7852C23.6454 22.7852 24.2087 22.7852 24.7891 22.7852C24.7891 24.1812 24.7891 25.5773 24.7891 27.0156C25.8667 27.0156 26.9444 27.0156 28.0547 27.0156C28.0547 27.0401 28.0547 27.0646 28.0547 27.0898C26.4137 27.0898 24.7727 27.0898 23.082 27.0898C23.082 25.6693 23.082 24.2487 23.082 22.7852Z" fill="#0990CD"/>
<path d="M9.79688 11.7266C10.3357 11.7266 10.8745 11.7266 11.4297 11.7266C11.4787 11.898 11.5277 12.0695 11.5781 12.2461C11.6878 12.3872 11.6878 12.3872 11.8008 12.4688C11.7712 12.5011 11.7417 12.5334 11.7112 12.5667C11.1382 13.2108 11.02 13.7808 11.0389 14.6318C11.0893 15.3643 11.374 15.8103 11.8805 16.3284C12.0234 16.4766 12.0234 16.4766 12.0977 16.625C12.0464 16.6269 11.9952 16.6287 11.9424 16.6306C11.7081 16.6393 11.4738 16.6484 11.2395 16.6575C11.1589 16.6604 11.0783 16.6633 10.9952 16.6663C10.9166 16.6694 10.8379 16.6725 10.7568 16.6757C10.6849 16.6785 10.613 16.6812 10.5389 16.684C10.2903 16.701 10.0435 16.7382 9.79688 16.7734C9.79688 15.108 9.79688 13.4425 9.79688 11.7266Z" fill="#FEA90B"/>
<path d="M4.60178 5.71484C4.64398 5.72919 4.68617 5.74355 4.72964 5.75833C4.84946 5.79874 4.96951 5.83852 5.08971 5.87778C5.23422 5.92571 5.37747 5.9774 5.52024 6.03027C6.07671 6.1454 6.60381 6.03965 7.12725 5.83516C7.27366 5.78906 7.27366 5.78906 7.57053 5.78906C7.5388 6.13177 7.48527 6.43186 7.37571 6.75854C7.20424 7.31247 7.37827 7.7848 7.52444 8.32961C7.57053 8.53516 7.57053 8.53516 7.57053 8.83203C7.20009 8.80216 6.87488 8.75567 6.52219 8.63721C5.99857 8.47287 5.58377 8.6174 5.07899 8.78593C4.88827 8.83469 4.72358 8.84005 4.52757 8.83203C4.65592 8.07694 4.65592 8.07694 4.76414 7.74658C4.8998 7.18307 4.72523 6.7151 4.50118 6.19582C4.45335 6.01172 4.45335 6.01172 4.51916 5.83922C4.54642 5.79817 4.57369 5.75713 4.60178 5.71484Z" fill="#FDCB72"/>
<path d="M24.0469 11.7266C24.5367 11.7266 25.0266 11.7266 25.5312 11.7266C25.5312 13.343 25.5312 14.9595 25.5312 16.625C25.0414 16.625 24.5516 16.625 24.0469 16.625C24.0469 15.0085 24.0469 13.392 24.0469 11.7266Z" fill="#FFA80A"/>
<path d="M15.1406 11.7266C15.6305 11.7266 16.1203 11.7266 16.625 11.7266C16.625 13.343 16.625 14.9595 16.625 16.625C16.1352 16.625 15.6453 16.625 15.1406 16.625C15.1406 15.0085 15.1406 13.392 15.1406 11.7266Z" fill="#FEA90B"/>
<path d="M23.8995 10.0743C24.1014 10.0752 24.302 10.0683 24.5038 10.0607C25.5021 10.0464 25.5021 10.0464 25.8681 10.3621C26.0771 10.5762 26.2451 10.8177 26.4219 11.0586C26.5952 11.2106 26.7717 11.346 26.9579 11.4813C27.0898 11.5782 27.0898 11.5782 27.2383 11.7266C25.1809 11.7266 23.1236 11.7266 21.0039 11.7266C21.1264 11.6286 21.2488 11.5307 21.375 11.4297C21.4966 11.3257 21.6172 11.2205 21.7368 11.1143C21.8261 11.0356 21.8261 11.0356 21.9171 10.9554C22.1148 10.7816 22.1148 10.7816 22.2052 10.6106C22.6009 9.99381 23.2365 10.0678 23.8995 10.0743Z" fill="#6D62AE"/>
<path d="M23.0078 19.371C24.1555 19.3659 25.3032 19.3618 26.4509 19.3594C26.9838 19.3583 27.5167 19.3567 28.0496 19.3542C28.514 19.352 28.9784 19.3505 29.4428 19.35C29.6887 19.3497 29.9347 19.3489 30.1806 19.3474C30.455 19.3458 30.7294 19.3456 31.0038 19.3457C31.0856 19.3449 31.1674 19.3441 31.2516 19.3433C31.3636 19.3437 31.3636 19.3437 31.4778 19.3442C31.5427 19.344 31.6076 19.3438 31.6745 19.3436C31.8398 19.371 31.8398 19.371 31.9747 19.4695C32.0625 19.5936 32.0625 19.5936 32.0486 19.8256C32.0287 19.896 32.0088 19.9664 31.9883 20.0389C31.8073 20.1294 31.6919 20.1223 31.4895 20.1221C31.3787 20.1222 31.3787 20.1222 31.2656 20.1224C31.1842 20.1221 31.1029 20.1219 31.0191 20.1216C30.9336 20.1216 30.8482 20.1216 30.7601 20.1216C30.4766 20.1216 30.1931 20.121 29.9096 20.1204C29.7134 20.1203 29.5173 20.1202 29.3212 20.1201C28.857 20.1199 28.3928 20.1192 27.9286 20.1185C27.4002 20.1177 26.8718 20.1173 26.3433 20.1169C25.2562 20.1161 24.1691 20.1147 23.082 20.1132C23.082 20.7255 23.082 21.3378 23.082 21.9686C23.0575 21.9686 23.033 21.9686 23.0078 21.9686C23.0078 21.1114 23.0078 20.2542 23.0078 19.371Z" fill="#FED298"/>
<path d="M23.0078 22.7852C23.0323 22.7852 23.0568 22.7852 23.082 22.7852C23.082 24.2057 23.082 25.6263 23.082 27.0898C23.7554 27.0881 24.4287 27.0864 25.1225 27.0846C25.602 27.0838 26.0816 27.083 26.5612 27.0824C27.1831 27.0816 27.8051 27.0805 28.427 27.0786C28.9192 27.0772 29.4115 27.0762 29.9037 27.0759C30.1645 27.0757 30.4253 27.0752 30.686 27.0741C30.9768 27.073 31.2675 27.0729 31.5583 27.073C31.6452 27.0725 31.7321 27.0719 31.8217 27.0714C31.94 27.0717 31.94 27.0717 32.0607 27.072C32.1295 27.0719 32.1984 27.0717 32.2693 27.0716C32.4336 27.0898 32.4336 27.0898 32.582 27.2383C32.6006 27.4238 32.6006 27.4238 32.582 27.6094C32.4336 27.7578 32.4336 27.7578 32.2681 27.7761C32.1641 27.7759 32.1641 27.7759 32.0579 27.7757C31.9386 27.776 31.9386 27.776 31.817 27.7763C31.7293 27.7757 31.6417 27.7752 31.5515 27.7747C31.4595 27.7747 31.3676 27.7747 31.2728 27.7747C31.0203 27.7746 30.7677 27.7739 30.5152 27.7729C30.2514 27.7719 29.9876 27.7718 29.7239 27.7717C29.2242 27.7712 28.7245 27.77 28.2248 27.7685C27.5497 27.7665 26.8746 27.7657 26.1995 27.7649C25.1356 27.7635 24.0717 27.7605 23.0078 27.7578C23.0078 26.1168 23.0078 24.4759 23.0078 22.7852Z" fill="#464083"/>
<path d="M28.0547 12.0977C28.55 12.1684 29.0446 12.2442 29.5391 12.3203C29.5391 13.7409 29.5391 15.1614 29.5391 16.625C29.0492 16.625 28.5594 16.625 28.0547 16.625C28.0547 15.131 28.0547 13.637 28.0547 12.0977Z" fill="#FE9000"/>
<path d="M20.4854 30.5592C20.6034 30.5585 20.6034 30.5585 20.7238 30.5579C20.8538 30.5584 20.8538 30.5584 20.9865 30.5588C21.123 30.5584 21.123 30.5584 21.2622 30.558C21.5122 30.5575 21.7621 30.5576 22.012 30.5581C22.2733 30.5585 22.5345 30.5581 22.7957 30.5579C23.2345 30.5576 23.6732 30.558 24.112 30.5587C24.6197 30.5595 25.1273 30.5592 25.635 30.5584C26.0704 30.5577 26.5059 30.5576 26.9413 30.558C27.2015 30.5582 27.4618 30.5583 27.7221 30.5578C28.0121 30.5573 28.3021 30.558 28.5921 30.5588C28.6788 30.5585 28.7655 30.5582 28.8548 30.5579C28.9335 30.5583 29.0122 30.5587 29.0932 30.5592C29.1618 30.5592 29.2305 30.5593 29.3012 30.5593C29.4651 30.578 29.4651 30.578 29.6135 30.7265C29.6321 30.912 29.6321 30.912 29.6135 31.0976C29.424 31.287 29.3561 31.2646 29.0932 31.2648C28.9752 31.2655 28.9752 31.2655 28.8548 31.2661C28.7681 31.2658 28.6815 31.2655 28.5921 31.2652C28.4557 31.2656 28.4557 31.2656 28.3164 31.266C28.0665 31.2665 27.8165 31.2664 27.5666 31.2659C27.3053 31.2656 27.0441 31.2659 26.7829 31.2661C26.3441 31.2664 25.9054 31.266 25.4666 31.2653C24.9589 31.2645 24.4513 31.2648 23.9436 31.2656C23.5082 31.2663 23.0728 31.2664 22.6373 31.266C22.3771 31.2658 22.1168 31.2657 21.8566 31.2662C21.5665 31.2667 21.2765 31.266 20.9865 31.2652C20.8564 31.2656 20.8564 31.2656 20.7238 31.2661C20.6451 31.2657 20.5665 31.2653 20.4854 31.2648C20.4168 31.2648 20.3481 31.2647 20.2774 31.2647C20.1135 31.246 20.1135 31.246 19.9651 31.0976C19.9465 30.912 19.9465 30.912 19.9651 30.7265C20.1546 30.537 20.2225 30.5594 20.4854 30.5592Z" fill="#FFD399"/>
<path d="M27.832 33.1758C29.1056 33.1758 30.3792 33.1758 31.6914 33.1758C30.6281 34.2391 29.3285 35.1749 27.9805 35.8477C27.9315 35.8477 27.8825 35.8477 27.832 35.8477C27.832 34.9659 27.832 34.0842 27.832 33.1758Z" fill="#EA542D"/>
<path d="M26.5703 10.168C28.5052 10.168 30.4401 10.168 32.4336 10.168C32.1017 10.8318 31.3786 11.1244 30.708 11.3621C30.6407 11.3844 30.5733 11.4067 30.5039 11.4297C30.4304 11.4542 30.357 11.4787 30.2812 11.5039C29.087 11.6112 27.9711 11.4693 27.0156 10.6875C26.8687 10.5161 26.7217 10.3446 26.5703 10.168Z" fill="#918BC6"/>
<path d="M15.8086 10.168C17.7435 10.168 19.6784 10.168 21.6719 10.168C21.0191 10.9295 20.2853 11.4208 19.2658 11.5217C18.093 11.5999 17.2042 11.4126 16.2539 10.6875C16.2078 10.6527 16.1617 10.6179 16.1142 10.582C16.0083 10.4983 15.9078 10.4079 15.8086 10.3164C15.8086 10.2674 15.8086 10.2184 15.8086 10.168Z" fill="#918BC6"/>
<path d="M30.4297 4.67564C31.1884 4.8622 31.7152 5.4319 32.1251 6.07536C32.3025 6.40381 32.4075 6.67341 32.3594 7.05064C32.2434 7.22691 32.2434 7.22691 32.0625 7.34751C31.5349 7.41854 31.1431 7.27048 30.7292 6.9596C30.2151 6.53121 29.8189 6.06978 29.6133 5.41783C29.5835 5.0177 29.5835 5.0177 29.7292 4.79624C29.9821 4.62768 30.1294 4.6406 30.4297 4.67564Z" fill="#C0BCDF"/>
<path d="M19.5195 4.67564C20.2782 4.8622 20.8051 5.4319 21.215 6.07536C21.3924 6.40381 21.4974 6.67341 21.4492 7.05064C21.3332 7.22691 21.3332 7.22691 21.1523 7.34751C20.6247 7.41854 20.233 7.27048 19.819 6.9596C19.305 6.53121 18.9087 6.06978 18.7031 5.41783C18.6734 5.0177 18.6734 5.0177 18.8191 4.79624C19.0719 4.62768 19.2192 4.6406 19.5195 4.67564Z" fill="#C0BCDF"/>
<path d="M11.2812 21.375C13.5345 21.375 15.7878 21.375 18.1094 21.375C18.1094 21.5709 18.1094 21.7669 18.1094 21.9688C17.3068 21.9808 16.5042 21.99 15.7016 21.9957C15.3288 21.9984 14.9561 22.002 14.5834 22.0079C14.2234 22.0136 13.8635 22.0167 13.5035 22.018C13.3665 22.019 13.2294 22.0209 13.0924 22.0237C11.8836 22.0475 11.8836 22.0475 11.4893 21.7105C11.2812 21.4797 11.2812 21.4797 11.2812 21.375Z" fill="#FFE5BD"/>
<path d="M14.918 10.2424C15.0908 10.4073 15.2155 10.584 15.3514 10.7802C15.5816 11.0737 15.8635 11.26 16.1704 11.4673C16.2485 11.5223 16.2485 11.5223 16.3281 11.5783C16.3281 11.6028 16.3281 11.6273 16.3281 11.6526C14.9811 11.6526 13.634 11.6526 12.2461 11.6526C12.6126 10.9195 13.1214 10.6013 13.8789 10.3166C14.2263 10.2158 14.5625 10.1502 14.918 10.2424Z" fill="#6960B3"/>
<path d="M7.42188 10.5391C7.55843 10.5536 7.55843 10.5536 7.71875 10.6133C7.82109 10.7751 7.82109 10.7751 7.90894 10.9751C8.01698 11.2181 8.10349 11.409 8.3125 11.5781C8.38598 11.6026 8.45945 11.6271 8.53516 11.6523C8.66504 11.7498 8.66504 11.7498 8.75781 11.875C8.74796 12.0211 8.74796 12.0211 8.68359 12.1719C8.53226 12.2586 8.53226 12.2586 8.34033 12.3342C7.90542 12.5329 7.68068 12.8176 7.42188 13.2109C7.28358 13.1953 7.28358 13.1953 7.125 13.1367C7.03831 12.9854 7.03831 12.9854 6.96265 12.7935C6.76394 12.3585 6.47928 12.1338 6.08594 11.875C6.10159 11.7367 6.10159 11.7367 6.16016 11.5781C6.31149 11.4914 6.31149 11.4914 6.50342 11.4158C6.93833 11.2171 7.16307 10.9324 7.42188 10.5391Z" fill="#FCE3BD"/>
<path d="M3.71094 17.2188C3.84923 17.2344 3.84923 17.2344 4.00781 17.293C4.0945 17.4443 4.0945 17.4443 4.17017 17.6362C4.36888 18.0711 4.65353 18.2959 5.04688 18.5547C5.03122 18.693 5.03122 18.693 4.97266 18.8516C4.82132 18.9382 4.82132 18.9382 4.62939 19.0139C4.19448 19.2126 3.96974 19.4973 3.71094 19.8906C3.57265 19.875 3.57265 19.875 3.41406 19.8164C3.32738 19.6651 3.32738 19.6651 3.25171 19.4731C3.053 19.0382 2.76834 18.8135 2.375 18.5547C2.39066 18.4164 2.39066 18.4164 2.44922 18.2578C2.60056 18.1711 2.60056 18.1711 2.79248 18.0955C3.22739 17.8967 3.45214 17.6121 3.71094 17.2188Z" fill="#FAE3BF"/>
<path d="M33.3984 23.8984C33.5364 23.915 33.5364 23.915 33.6953 23.9727C33.7892 24.1208 33.7892 24.1208 33.8623 24.302C33.8872 24.3616 33.9121 24.4212 33.9377 24.4826C33.9922 24.6406 33.9922 24.6406 33.9922 24.7891C34.032 24.8059 34.0718 24.8227 34.1128 24.8401C34.3473 24.9697 34.5316 25.1335 34.7344 25.3086C34.6602 25.5312 34.6602 25.5312 34.5088 25.6107C34.4455 25.6365 34.3821 25.6624 34.3169 25.689C33.8842 25.891 33.657 26.1773 33.3984 26.5703C33.2604 26.5538 33.2604 26.5538 33.1016 26.4961C33.0076 26.3479 33.0076 26.3479 32.9346 26.1667C32.9097 26.1071 32.8848 26.0475 32.8592 25.9861C32.8047 25.8281 32.8047 25.8281 32.8047 25.6797C32.7649 25.6613 32.7251 25.6429 32.6841 25.624C32.4659 25.5092 32.266 25.3732 32.0625 25.2344C32.079 25.0964 32.079 25.0964 32.1367 24.9375C32.2849 24.8436 32.2849 24.8436 32.4661 24.7705C32.5257 24.7456 32.5853 24.7208 32.6467 24.6951C32.8047 24.6406 32.8047 24.6406 32.9531 24.6406C32.9807 24.5809 32.9807 24.5809 33.0088 24.52C33.1236 24.3019 33.2597 24.102 33.3984 23.8984Z" fill="#463E84"/>
<path d="M15.9692 19.354C16.069 19.354 16.1687 19.3549 16.2684 19.3564C16.3209 19.3566 16.3734 19.3568 16.4275 19.357C16.5954 19.3578 16.7633 19.3597 16.9312 19.3616C17.0449 19.3623 17.1586 19.363 17.2724 19.3636C17.5514 19.3652 17.8304 19.3678 18.1094 19.3709C18.1094 19.6158 18.1094 19.8607 18.1094 20.113C17.7739 20.1167 17.4384 20.1194 17.1028 20.1212C16.9886 20.1219 16.8745 20.123 16.7603 20.1242C16.5963 20.126 16.4324 20.1269 16.2684 20.1275C16.2172 20.1283 16.166 20.1291 16.1133 20.1299C15.9869 20.1299 15.8605 20.1221 15.7344 20.113C15.5859 19.9646 15.5859 19.9646 15.5674 19.7419C15.5936 19.427 15.6552 19.3765 15.9692 19.354Z" fill="#FFD399"/>
<path d="M23.3047 8.53516C23.8435 8.53516 24.3823 8.53516 24.9375 8.53516C25.1602 9.20312 25.1602 9.20312 25.1602 9.42578C24.4744 9.42578 23.7886 9.42578 23.082 9.42578C23.1562 8.98047 23.1562 8.98047 23.3047 8.53516Z" fill="#6960B3"/>
<path d="M6.30859 33.1758C6.9209 33.1758 7.5332 33.1758 8.16406 33.1758C8.13957 33.2493 8.11508 33.3227 8.08984 33.3984C8.07298 33.5889 8.05896 33.7782 8.0481 33.969C8.04489 34.0211 8.04169 34.0732 8.03838 34.1269C8.03053 34.2551 8.02304 34.3834 8.01562 34.5117C7.72768 34.386 7.49131 34.1983 7.24561 34.0061C7.20466 33.9745 7.16371 33.9429 7.12152 33.9103C6.84544 33.6961 6.57282 33.4787 6.30859 33.25C6.30859 33.2255 6.30859 33.201 6.30859 33.1758Z" fill="#7F77BE"/>
<path d="M23.3789 6.97656C23.8687 6.97656 24.3586 6.97656 24.8633 6.97656C24.8633 7.24598 24.8633 7.51539 24.8633 7.79297C24.3734 7.79297 23.8836 7.79297 23.3789 7.79297C23.3789 7.52355 23.3789 7.25414 23.3789 6.97656Z" fill="#645BAA"/>
<path d="M20.4102 28.9453C20.5586 29.0937 20.5586 29.0937 20.5771 29.2793C20.5586 29.4648 20.5586 29.4648 20.4102 29.6132C20.223 29.6301 20.223 29.6301 19.9898 29.6277C19.9065 29.6273 19.8233 29.6268 19.7375 29.6263C19.6503 29.625 19.563 29.6238 19.4731 29.6225C19.3414 29.6215 19.3414 29.6215 19.207 29.6205C18.9895 29.6187 18.7721 29.6163 18.5547 29.6132C18.6105 29.5693 18.6662 29.5254 18.7237 29.4802C18.9186 29.3268 18.9186 29.3268 19.0606 29.1873C19.4806 28.8087 19.8716 28.8127 20.4102 28.9453Z" fill="#FED198"/>
<path d="M23.4531 7.05078C23.894 7.05078 24.3348 7.05078 24.7891 7.05078C24.7891 7.27121 24.7891 7.49164 24.7891 7.71875C24.4545 7.67402 24.2058 7.54315 23.9124 7.38013C23.868 7.35568 23.8237 7.33124 23.778 7.30605C23.6694 7.24614 23.5613 7.18563 23.4531 7.125C23.4531 7.10051 23.4531 7.07602 23.4531 7.05078Z" fill="#7F77BE"/>
<path d="M12.2461 11.7266C12.491 11.7266 12.7359 11.7266 12.9883 11.7266C12.7445 11.8891 12.5276 11.9491 12.2461 12.0234C12.2461 11.9255 12.2461 11.8275 12.2461 11.7266Z" fill="#FFAA0D"/>
</g>
<defs>
<clipPath id="clip0_1623_1480">
<rect width="38" height="38" fill="white"/>
</clipPath>
</defs>
</svg>
