<svg width="38" height="38" viewBox="0 0 38 38" fill="none" xmlns="http://www.w3.org/2000/svg">
<g clip-path="url(#clip0_1623_1593)">
<path d="M16.9385 -0.0121454C16.9894 -0.0125138 17.0403 -0.0128823 17.0927 -0.013262C17.2597 -0.0143383 17.4267 -0.0148508 17.5937 -0.015262C17.6515 -0.0154718 17.7092 -0.0156817 17.7687 -0.0158979C18.0747 -0.0170075 18.3808 -0.0176942 18.6869 -0.0180162C18.9993 -0.0184206 19.3118 -0.020199 19.6242 -0.0223188C19.8676 -0.0237182 20.111 -0.0240885 20.3544 -0.0242013C20.4693 -0.0244225 20.5843 -0.0250065 20.6992 -0.0259963C21.7655 -0.0345139 22.7921 0.103373 23.8148 0.417294C23.8758 0.435861 23.9367 0.454427 23.9996 0.473556C25.8776 1.07209 27.6982 2.24912 28.9452 3.78497C29.0311 3.89031 29.0311 3.89031 29.1188 3.99777C30.7883 6.08275 31.591 8.51832 31.5646 11.1773C31.5641 11.3035 31.5638 11.4297 31.5636 11.5559C31.5628 11.8832 31.5606 12.2104 31.5581 12.5376C31.5558 12.8735 31.5548 13.2094 31.5537 13.5453C31.5513 14.2007 31.5475 14.8561 31.5428 15.5115C31.589 15.5211 31.6353 15.5307 31.6829 15.5405C31.7736 15.5599 31.7736 15.5599 31.8661 15.5796C31.9261 15.5922 31.9861 15.6048 32.048 15.6178C32.4117 15.7119 32.6365 15.9888 32.8648 16.2723C33.223 17.1017 33.1746 18.0125 32.8787 18.8514C32.6124 19.4021 32.2263 20.0109 31.6912 20.3358C31.6423 20.3358 31.5933 20.3358 31.5428 20.3358C31.5428 23.2013 31.5428 26.0669 31.5428 29.0193C28.4568 29.0561 28.4568 29.0561 25.3084 29.0936C25.5534 29.2405 25.7983 29.3875 26.0506 29.5389C27.1157 30.3399 27.7109 31.4124 27.9942 32.6932C28.0125 32.7721 28.0309 32.851 28.0497 32.9324C28.1025 33.1615 28.1532 33.3911 28.203 33.6209C28.2181 33.6903 28.2333 33.7596 28.249 33.8311C28.2694 33.928 28.2694 33.928 28.2902 34.0268C28.3021 34.083 28.314 34.1392 28.3263 34.1971C28.3514 34.3631 28.3514 34.3631 28.3514 34.7342C31.0455 34.7342 33.7397 34.7342 36.5155 34.7342C36.5155 36.6412 36.5155 36.6412 35.7898 37.4075C35.285 37.8573 34.8049 38.0088 34.1399 38.0098C34.0609 38.01 34.0609 38.01 33.9804 38.0103C33.8032 38.0108 33.6259 38.0108 33.4487 38.0107C33.3207 38.011 33.1927 38.0113 33.0647 38.0116C32.7122 38.0123 32.3598 38.0126 32.0073 38.0128C31.6275 38.0131 31.2476 38.0138 30.8678 38.0144C29.95 38.0159 29.0323 38.0166 28.1146 38.0173C27.6826 38.0176 27.2505 38.018 26.8185 38.0184C25.3824 38.0197 23.9463 38.0208 22.5102 38.0213C22.1375 38.0214 21.7647 38.0216 21.392 38.0217C21.2994 38.0218 21.2067 38.0218 21.1113 38.0218C19.6103 38.0224 18.1094 38.0243 16.6084 38.0267C15.0677 38.0292 13.5271 38.0305 11.9864 38.0308C11.1212 38.0309 10.2561 38.0316 9.39089 38.0335C8.65414 38.0351 7.91739 38.0357 7.18064 38.035C6.80475 38.0346 6.42889 38.0348 6.05301 38.0362C5.70872 38.0375 5.36445 38.0374 5.02016 38.0363C4.89579 38.0361 4.77142 38.0364 4.64706 38.0373C3.7554 38.0432 3.03059 37.9633 2.35657 37.326C1.646 36.5474 1.70687 35.8208 1.70687 34.7342C4.40101 34.7342 7.09515 34.7342 9.87093 34.7342C9.89542 34.4893 9.91992 34.2443 9.94515 33.992C10.0021 33.6571 10.0759 33.3264 10.1493 32.9947C10.167 32.9093 10.1848 32.8239 10.2032 32.7359C10.5049 31.3634 11.1915 30.1611 12.3897 29.3904C12.5625 29.2855 12.7331 29.1839 12.9139 29.0936C10.8566 29.0691 8.79921 29.0446 6.67953 29.0193C6.67953 26.1538 6.67953 23.2882 6.67953 20.3358C6.58156 20.2868 6.48359 20.2378 6.38265 20.1873C5.75305 19.7789 5.36688 19.0458 5.19515 18.3318C5.08138 17.5915 5.05026 16.8052 5.46796 16.1499C5.81774 15.7269 6.14121 15.58 6.67953 15.5115C6.67878 15.41 6.67878 15.41 6.67803 15.3064C6.67353 14.6624 6.67016 14.0184 6.66799 13.3744C6.66684 13.0435 6.66528 12.7126 6.66273 12.3816C6.66027 12.0611 6.65897 11.7406 6.6584 11.4201C6.65799 11.299 6.6572 11.1779 6.65598 11.0568C6.64556 9.97657 6.76378 8.91914 7.0599 7.87628C7.07514 7.82252 7.09038 7.76877 7.10608 7.71338C7.57273 6.15658 8.39812 4.75022 9.49984 3.56231C9.54087 3.51763 9.5819 3.47296 9.62418 3.42692C11.4707 1.43729 14.1771 0.00318332 16.9385 -0.0121454Z" fill="#FECABD"/>
<path d="M16.9389 -0.0121454C16.9898 -0.0125138 17.0407 -0.0128823 17.0931 -0.013262C17.2601 -0.0143383 17.4271 -0.0148508 17.5941 -0.015262C17.6519 -0.0154718 17.7096 -0.0156817 17.7691 -0.0158979C18.0751 -0.0170075 18.3812 -0.0176942 18.6873 -0.0180162C18.9997 -0.0184206 19.3122 -0.020199 19.6246 -0.0223188C19.868 -0.0237182 20.1114 -0.0240885 20.3548 -0.0242013C20.4697 -0.0244225 20.5847 -0.0250065 20.6996 -0.0259963C21.7659 -0.0345139 22.7925 0.103373 23.8152 0.417294C23.8762 0.435861 23.9372 0.454427 24 0.473556C25.878 1.07209 27.6987 2.24912 28.9456 3.78497C29.0315 3.89031 29.0315 3.89031 29.1192 3.99777C30.7939 6.08919 31.5911 8.52743 31.565 11.1935C31.5645 11.3214 31.5642 11.4493 31.564 11.5772C31.5632 11.9088 31.561 12.2404 31.5585 12.572C31.5562 12.9124 31.5552 13.2528 31.5541 13.5932C31.5517 14.2574 31.5479 14.9216 31.5432 15.5858C31.492 15.5901 31.4409 15.5945 31.3882 15.5989C31.2877 15.6081 31.2877 15.6081 31.1851 15.6175C31.0854 15.6263 31.0854 15.6263 30.9837 15.6353C30.6327 15.6827 30.3885 15.8701 30.1331 16.1053C30.0068 16.2754 29.9254 16.4309 29.8362 16.6248C29.8117 16.6248 29.7872 16.6248 29.762 16.6248C29.762 15.5472 29.762 14.4695 29.762 13.3592C29.566 13.3347 29.3701 13.3102 29.1682 13.285C29.0036 13.2315 29.0036 13.2315 28.8766 13.1687C28.8287 13.1452 28.7808 13.1217 28.7315 13.0976C28.6584 13.0594 28.6584 13.0594 28.5837 13.0206C28.5062 12.9808 28.5062 12.9808 28.427 12.9402C27.9864 12.7075 27.6094 12.4304 27.2385 12.0975C27.1779 12.0456 27.1172 11.9938 27.0547 11.9403C25.8949 10.9313 25.0474 9.70158 24.2698 8.38653C24.2075 8.44724 24.2075 8.44724 24.1439 8.50917C22.6933 9.8735 20.7675 10.6685 18.926 11.3553C18.8576 11.3813 18.7892 11.4073 18.7188 11.434C15.9375 12.4843 13.0283 12.9673 10.094 13.3592C10.006 13.373 9.91799 13.3868 9.82732 13.401C9.37403 13.4459 8.91669 13.4334 8.46118 13.4334C8.46118 14.4866 8.46118 15.5397 8.46118 16.6248C8.33055 16.4506 8.20043 16.2761 8.07153 16.1006C7.78321 15.7608 7.42849 15.6605 6.99652 15.6174C6.90729 15.6082 6.90729 15.6082 6.81626 15.5989C6.77127 15.5946 6.72628 15.5902 6.67993 15.5858C6.67473 14.8637 6.67079 14.1417 6.66839 13.4196C6.66724 13.0842 6.66568 12.7488 6.66313 12.4133C6.66068 12.0885 6.65937 11.7637 6.6588 11.4388C6.6584 11.3161 6.65761 11.1933 6.65639 11.0705C6.64606 9.98527 6.76277 8.92412 7.0603 7.87628C7.07554 7.82252 7.09078 7.76877 7.10649 7.71338C7.57313 6.15658 8.39852 4.75022 9.50024 3.56231C9.54127 3.51763 9.58231 3.47296 9.62458 3.42692C11.4711 1.43729 14.1775 0.00318332 16.9389 -0.0121454Z" fill="#544F57"/>
<path d="M15.4744 28.6394C15.579 28.6401 15.6836 28.6408 15.7881 28.6414C16.0423 28.6431 16.2965 28.6456 16.5506 28.6487C16.5725 28.7396 16.5725 28.7396 16.5949 28.8324C16.6242 28.9521 16.6242 28.9521 16.6541 29.0742C16.6733 29.1533 16.6925 29.2323 16.7123 29.3136C16.8942 29.987 17.263 30.4536 17.8396 30.8465C18.4297 31.1649 19.0876 31.2056 19.742 31.0979C20.4684 30.8684 21.0002 30.4421 21.3609 29.7758C21.5414 29.4181 21.6014 29.0398 21.6717 28.6487C21.9763 28.6443 22.2809 28.6417 22.5855 28.6394C22.7133 28.6375 22.7133 28.6375 22.8437 28.6356C24.2915 28.6274 25.5479 29.0238 26.6157 30.0229C27.3595 30.7971 27.7647 31.656 27.9942 32.6936C28.0125 32.7725 28.0309 32.8514 28.0497 32.9328C28.1025 33.1619 28.1532 33.3915 28.203 33.6213C28.2181 33.6907 28.2333 33.76 28.249 33.8315C28.2694 33.9284 28.2694 33.9284 28.2902 34.0272C28.3021 34.0834 28.314 34.1396 28.3263 34.1975C28.3514 34.3635 28.3514 34.3635 28.3514 34.7346C31.0455 34.7346 33.7397 34.7346 36.5155 34.7346C36.5155 36.6416 36.5155 36.6416 35.7898 37.4079C35.285 37.8577 34.8049 38.0092 34.1399 38.0102C34.0609 38.0104 34.0609 38.0104 33.9804 38.0107C33.8032 38.0112 33.6259 38.0112 33.4487 38.0111C33.3207 38.0114 33.1927 38.0117 33.0647 38.012C32.7122 38.0127 32.3598 38.013 32.0073 38.0132C31.6275 38.0135 31.2476 38.0142 30.8678 38.0148C29.95 38.0163 29.0323 38.017 28.1146 38.0177C27.6826 38.018 27.2505 38.0184 26.8185 38.0188C25.3824 38.0201 23.9463 38.0212 22.5102 38.0217C22.1375 38.0218 21.7647 38.022 21.392 38.0221C21.2531 38.0222 21.2531 38.0222 21.1113 38.0222C19.6103 38.0228 18.1094 38.0247 16.6084 38.0271C15.0677 38.0296 13.5271 38.0309 11.9864 38.0312C11.1212 38.0313 10.2561 38.032 9.39089 38.0339C8.65414 38.0355 7.91739 38.0361 7.18064 38.0354C6.80475 38.035 6.42889 38.0352 6.05301 38.0366C5.70872 38.0379 5.36445 38.0378 5.02016 38.0367C4.89579 38.0365 4.77142 38.0368 4.64706 38.0377C3.7554 38.0436 3.03059 37.9637 2.35657 37.3264C1.646 36.5478 1.70687 35.8212 1.70687 34.7346C4.40101 34.7346 7.09515 34.7346 9.87093 34.7346C9.89542 34.4897 9.91992 34.2447 9.94515 33.9924C10.0021 33.6575 10.0759 33.3268 10.1493 32.9951C10.167 32.9097 10.1848 32.8243 10.2032 32.7363C10.5004 31.3845 11.1759 30.1936 12.3387 29.4094C12.7787 29.1434 13.2417 28.9545 13.7303 28.7971C13.8142 28.7694 13.8981 28.7418 13.9846 28.7133C14.4698 28.596 14.9785 28.6332 15.4744 28.6394Z" fill="#E6EBF0"/>
<path d="M13.6563 12.8396C13.6563 14.2357 13.6563 15.6317 13.6563 17.0701C14.1142 17.2227 14.6298 17.1982 15.0749 17.0095C15.3904 16.8115 15.6502 16.5058 15.8093 16.1699C15.8829 16.031 15.8829 16.031 16.1056 15.8826C16.4065 15.8368 16.517 15.8588 16.7689 16.0357C16.922 16.2537 16.922 16.2537 16.9359 16.4949C16.711 17.2049 16.1973 17.7665 15.557 18.1379C14.9266 18.4134 14.2552 18.3585 13.5821 18.3318C13.5821 18.5033 13.5821 18.6747 13.5821 18.8513C13.6602 18.8682 13.7383 18.885 13.8187 18.9024C14.2043 19.0117 14.4038 19.2675 14.6212 19.5935C14.6151 19.9191 14.5827 20.0707 14.3707 20.3218C13.9977 20.6326 13.9977 20.6326 13.7306 20.6326C14.2058 22.6872 15.272 24.5127 17.0704 25.6795C17.7509 26.097 18.4468 26.4139 19.21 26.6463C19.4178 26.7101 19.6162 26.783 19.8165 26.867C19.8165 26.8915 19.8165 26.916 19.8165 26.9412C18.7388 26.9412 17.6612 26.9412 16.5509 26.9412C16.5509 27.5045 16.5509 28.0678 16.5509 28.6482C16.4022 28.6501 16.2535 28.652 16.1003 28.654C15.9524 28.6571 15.8045 28.6602 15.6567 28.6636C15.5068 28.6667 15.357 28.6683 15.2071 28.67C15.11 28.6724 15.0129 28.6747 14.9128 28.6772C14.825 28.6788 14.7372 28.6803 14.6467 28.6819C14.369 28.7028 14.1284 28.7846 13.8646 28.8719C13.161 29.0804 12.4673 29.0566 11.7388 29.0483C11.6087 29.0479 11.4786 29.0476 11.3485 29.0474C10.8715 29.0459 10.3945 29.0417 9.91756 29.0379C8.31486 29.0287 8.31486 29.0287 6.67977 29.0193C6.67977 26.1537 6.67977 23.2881 6.67977 20.3357C6.5818 20.2867 6.48383 20.2377 6.38289 20.1873C5.7533 19.7789 5.36713 19.0458 5.19539 18.3318C5.08163 17.5915 5.05051 16.8052 5.46821 16.1499C5.72399 15.8405 6.01828 15.6294 6.40145 15.5115C6.98651 15.5115 7.5607 15.5587 8.01571 15.9568C8.16428 16.1255 8.28648 16.2757 8.3868 16.4763C8.41129 15.4722 8.43579 14.468 8.46102 13.4334C8.78554 13.4058 9.11006 13.3783 9.44442 13.3499C10.4996 13.2544 11.5381 13.0941 12.5805 12.906C12.6359 12.8962 12.6912 12.8863 12.7483 12.8762C12.8988 12.8494 13.0492 12.8219 13.1996 12.7943C13.4337 12.7654 13.4337 12.7654 13.6563 12.8396Z" fill="#E9AB9C"/>
<path d="M17.3999 -0.00451627C17.5344 -0.00401398 17.5344 -0.00401398 17.6717 -0.00350156C17.8919 -0.00263122 18.1121 -0.0014131 18.3323 0.000122405C18.3323 0.0246146 18.3323 0.0491068 18.3323 0.0743412C18.2909 0.0852478 18.2496 0.0961545 18.207 0.107392C17.7528 0.240885 17.4226 0.426785 17.0706 0.74231C17.0234 0.784502 16.9762 0.826693 16.9276 0.870163C14.849 2.96542 14.4434 6.9493 14.3668 9.72742C14.3613 9.89683 14.3558 10.0662 14.3503 10.2356C14.3418 10.5003 14.3337 10.765 14.3264 11.0297C14.3192 11.2868 14.3106 11.5438 14.3018 11.8009C14.2991 11.9205 14.2991 11.9205 14.2962 12.0424C14.2935 12.1158 14.2908 12.1892 14.288 12.2648C14.286 12.3294 14.2841 12.3941 14.2822 12.4608C14.2502 12.6173 14.2502 12.6173 14.0276 12.7657C13.8853 12.8023 13.8853 12.8023 13.7226 12.8279C13.6306 12.8428 13.6306 12.8428 13.5368 12.858C13.4705 12.8681 13.4042 12.8782 13.3358 12.8887C13.2667 12.8996 13.1975 12.9106 13.1262 12.9219C12.9791 12.9451 12.832 12.9681 12.6849 12.9908C12.4641 13.0248 12.2434 13.0597 12.0228 13.0948C11.3797 13.1962 10.7359 13.2941 10.0899 13.3757C10.0002 13.3872 9.91048 13.3986 9.81803 13.4104C9.36689 13.4435 8.91353 13.4337 8.46118 13.4337C8.46118 14.4869 8.46118 15.54 8.46118 16.6251C8.33055 16.451 8.20043 16.2764 8.07153 16.101C7.78321 15.7612 7.42849 15.6608 6.99652 15.6177C6.90729 15.6085 6.90729 15.6085 6.81626 15.5992C6.77127 15.5949 6.72628 15.5905 6.67993 15.5861C6.67473 14.864 6.67079 14.142 6.66839 13.4199C6.66724 13.0845 6.66568 12.7491 6.66313 12.4136C6.66068 12.0888 6.65937 11.764 6.6588 11.4391C6.6584 11.3164 6.65761 11.1936 6.65639 11.0708C6.64606 9.98558 6.76277 8.92443 7.0603 7.87659C7.07554 7.82283 7.09078 7.76908 7.10649 7.71369C7.57313 6.15689 8.39852 4.75053 9.50024 3.56262C9.54127 3.51794 9.58231 3.47326 9.62458 3.42723C11.2945 1.62797 13.461 0.48326 15.8831 0.0743412C15.9576 0.0604686 16.0321 0.0465961 16.1089 0.0323032C16.5393 -0.0148615 16.9673 -0.00758446 17.3999 -0.00451627Z" fill="#454045"/>
<path d="M15.4744 28.6394C15.579 28.6401 15.6836 28.6408 15.7881 28.6414C16.0423 28.6431 16.2965 28.6456 16.5506 28.6487C16.328 28.7971 16.328 28.7971 16.1239 28.8899C15.2667 29.3514 14.8053 30.1884 14.5162 31.096C14.1451 32.3726 14.0576 33.7318 13.9187 35.0492C13.885 35.3682 13.8503 35.6871 13.8158 36.0061C13.789 36.2537 13.7624 36.5013 13.7361 36.7489C13.7219 36.8817 13.7219 36.8817 13.7075 37.0172C13.6993 37.0944 13.6912 37.1716 13.6827 37.2512C13.6537 37.5016 13.6185 37.7508 13.5819 38.0002C12.2883 38.0072 10.9947 38.0124 9.70117 38.0156C9.10048 38.0171 8.49981 38.0192 7.89913 38.0226C7.37534 38.0256 6.85155 38.0275 6.32775 38.0281C6.05062 38.0285 5.77351 38.0294 5.49639 38.0316C5.18636 38.034 4.87639 38.0341 4.56636 38.0339C4.47533 38.035 4.38431 38.0361 4.29053 38.0372C3.52121 38.0335 2.92148 37.8605 2.35657 37.3264C1.646 36.5478 1.70687 35.8212 1.70687 34.7346C4.40101 34.7346 7.09515 34.7346 9.87093 34.7346C9.89542 34.4897 9.91992 34.2447 9.94515 33.9924C10.0021 33.6575 10.0759 33.3268 10.1493 32.9951C10.167 32.9097 10.1848 32.8243 10.2032 32.7363C10.5004 31.3845 11.1759 30.1936 12.3387 29.4094C12.7787 29.1434 13.2417 28.9545 13.7303 28.7971C13.8142 28.7694 13.8981 28.7418 13.9846 28.7133C14.4698 28.596 14.9785 28.6332 15.4744 28.6394Z" fill="#C6D0DA"/>
<path d="M31.543 20.3359C31.543 23.2015 31.543 26.0671 31.543 29.0195C29.9311 29.0264 29.9311 29.0264 28.2866 29.0334C27.7795 29.0365 27.7795 29.0365 27.2621 29.0396C26.8462 29.0406 26.8462 29.0406 26.6508 29.0408C26.5157 29.0411 26.3806 29.0419 26.2455 29.043C24.8615 29.0541 24.8615 29.0541 24.1953 28.7969C23.6674 28.7058 23.1343 28.6988 22.5996 28.6809C22.4656 28.6761 22.4656 28.6761 22.3288 28.6712C22.1099 28.6634 21.8909 28.6559 21.6719 28.6484C21.6719 28.0851 21.6719 27.5218 21.6719 26.9414C21.9398 26.9246 22.2076 26.9077 22.4836 26.8904C23.2714 26.8307 23.974 26.6914 24.7148 26.4219C24.833 26.3807 24.833 26.3807 24.9534 26.3387C25.9618 25.9557 26.7799 25.3206 27.5352 24.5664C27.5947 24.5078 27.6542 24.4491 27.7155 24.3887C28.6547 23.4089 29.1912 22.1522 29.5391 20.8555C29.6174 20.8552 29.6174 20.8552 29.6974 20.8549C30.3401 20.8297 30.9692 20.3359 31.543 20.3359Z" fill="#544F57"/>
<path d="M6.67969 20.3359C7.04707 20.4829 7.41445 20.6298 7.79297 20.7812C8.10228 20.8203 8.37732 20.8543 8.68359 20.8555C8.70349 20.9274 8.72339 20.9994 8.7439 21.0735C9.08788 22.2691 9.6234 23.5101 10.522 24.3985C10.6875 24.5664 10.6875 24.5664 10.6875 24.7148C10.7519 24.7433 10.7519 24.7433 10.8177 24.7722C11.0012 24.8725 11.1262 24.9874 11.2766 25.1323C11.9023 25.6984 12.6496 26.1159 13.4336 26.4219C13.5151 26.4539 13.5966 26.486 13.6806 26.519C14.6118 26.8473 15.5723 26.9239 16.5508 27.0156C16.5508 27.5545 16.5508 28.0933 16.5508 28.6484C16.4021 28.6504 16.2534 28.6523 16.1003 28.6542C15.9524 28.6573 15.8045 28.6605 15.6566 28.6638C15.5067 28.6669 15.3569 28.6686 15.207 28.6702C15.1099 28.6726 15.0128 28.675 14.9128 28.6774C14.8249 28.679 14.7371 28.6805 14.6466 28.6821C14.3689 28.703 14.1283 28.7848 13.8646 28.8721C13.1609 29.0806 12.4672 29.0568 11.7387 29.0485C11.6086 29.0481 11.4785 29.0478 11.3484 29.0476C10.8714 29.0461 10.3945 29.0419 9.91748 29.0381C8.31477 29.0289 8.31477 29.0289 6.67969 29.0195C6.67969 26.1539 6.67969 23.2884 6.67969 20.3359Z" fill="#454045"/>
<path d="M19.7422 26.793C19.8127 26.8044 19.8832 26.8157 19.9558 26.8275C20.3025 26.877 20.6497 26.8927 20.9992 26.9089C21.0641 26.9121 21.1291 26.9153 21.1959 26.9186C21.3546 26.9264 21.5132 26.934 21.6718 26.9414C21.6793 27.2343 21.6846 27.5272 21.6882 27.8202C21.6904 27.968 21.6941 28.1157 21.6979 28.2634C21.7065 29.1105 21.5385 29.806 20.9343 30.4297C20.32 31.0098 19.8075 31.223 18.9593 31.2171C18.2147 31.183 17.6224 30.8411 17.1213 30.2972C16.7017 29.7465 16.5404 29.2145 16.5435 28.5287C16.5437 28.4452 16.5439 28.3618 16.5441 28.2758C16.5447 28.1707 16.5454 28.0656 16.5461 27.9573C16.5476 27.622 16.5492 27.2868 16.5507 26.9414C17.6039 26.9169 18.6571 26.8924 19.7422 26.8672C19.7422 26.8427 19.7422 26.8182 19.7422 26.793Z" fill="#EAAC9D"/>
<path d="M5.64062 34.7343C8.1406 34.7263 10.6377 34.7354 13.1367 34.8086C13.14 34.9494 13.1423 35.0902 13.1443 35.231C13.1457 35.3094 13.1471 35.3878 13.1485 35.4686C13.1283 35.8632 12.998 36.1904 12.734 36.4854C12.3185 36.8548 11.9335 36.9085 11.3954 36.9035C11.3331 36.9036 11.2708 36.9036 11.2066 36.9036C11.0014 36.9035 10.7962 36.9023 10.591 36.9012C10.4484 36.9009 10.3058 36.9007 10.1632 36.9005C9.78853 36.9 9.41383 36.8985 9.03913 36.8969C8.65655 36.8954 8.27397 36.8947 7.8914 36.8939C7.14113 36.8923 6.39088 36.8897 5.64062 36.8867C5.64062 36.1764 5.64062 35.4661 5.64062 34.7343Z" fill="#E6EBF0"/>
<path d="M29.6875 13.3594C29.712 13.3594 29.7365 13.3594 29.7617 13.3594C29.7862 14.388 29.8107 15.4167 29.8359 16.4766C29.9339 16.3296 30.0319 16.1827 30.1328 16.0312C30.5429 15.6296 30.9719 15.5159 31.5369 15.5001C32.0144 15.5243 32.303 15.6509 32.6423 15.9895C33.0425 16.4875 33.1465 17.1438 33.1224 17.7708C33.0231 18.6758 32.6558 19.4832 31.9883 20.1133C31.8113 20.2349 31.6609 20.3205 31.4688 20.4102C31.3911 20.4487 31.3134 20.4873 31.2333 20.527C31.1019 20.5886 31.1019 20.5886 30.9678 20.6514C30.8444 20.7093 30.8444 20.7093 30.7184 20.7685C30.4297 20.8555 30.4297 20.8555 29.6133 20.8555C29.6378 18.3818 29.6623 15.908 29.6875 13.3594Z" fill="#E8AB9C"/>
<path d="M32.5819 34.7344C33.88 34.7344 35.178 34.7344 36.5155 34.7344C36.5155 36.6413 36.5155 36.6413 35.7898 37.4077C35.3061 37.8387 34.8325 38.0103 34.1926 38.0072C34.1032 38.007 34.0137 38.0068 33.9216 38.0065C33.8285 38.0059 33.7354 38.0053 33.6395 38.0046C33.5452 38.0043 33.451 38.004 33.3539 38.0036C33.1213 38.0027 32.8887 38.0015 32.6561 38C32.5583 36.9116 32.5768 35.8269 32.5819 34.7344Z" fill="#FECBBE"/>
<path d="M1.70687 34.7344C3.00495 34.7344 4.30304 34.7344 5.64046 34.7344C5.65115 37.0545 5.65115 37.0545 5.56624 38C5.24774 38.0087 4.92927 38.0139 4.61068 38.0186C4.47664 38.0223 4.47664 38.0223 4.33989 38.0261C3.54204 38.0348 2.9433 37.881 2.35657 37.3262C1.646 36.5476 1.70687 35.8209 1.70687 34.7344Z" fill="#FECBBE"/>
<path d="M32.7303 0.59393C32.9453 0.745392 33.0826 0.861264 33.131 1.12774C33.138 1.31756 33.1338 1.50358 33.1246 1.6933C33.1229 1.75888 33.1213 1.82446 33.1195 1.89203C33.1152 2.05314 33.1085 2.21417 33.1014 2.37518C33.1936 2.3726 33.2857 2.37001 33.3806 2.36735C33.5025 2.36526 33.6243 2.36324 33.7462 2.36126C33.8068 2.3594 33.8674 2.35753 33.9299 2.35561C34.2871 2.35127 34.5159 2.36874 34.8085 2.59784C34.9249 2.7143 34.9037 2.83095 34.9105 2.99212C34.9141 3.05001 34.9178 3.10789 34.9215 3.16752C34.8827 3.34002 34.8827 3.34002 34.7409 3.50905C34.4177 3.68923 34.1464 3.66953 33.7833 3.65545C33.6849 3.65344 33.6849 3.65344 33.5846 3.65139C33.4235 3.64791 33.2624 3.64259 33.1014 3.6369C33.1049 3.73439 33.1083 3.83188 33.1119 3.93232C33.1147 4.06114 33.1174 4.18996 33.12 4.31878C33.1225 4.38293 33.125 4.44708 33.1275 4.51317C33.1323 4.82349 33.1275 5.00162 32.9704 5.2758C32.7466 5.46792 32.6344 5.46352 32.352 5.44511C32.1566 5.40779 32.0486 5.34095 31.9139 5.19549C31.8455 4.99023 31.831 4.8702 31.8325 4.65886C31.8327 4.5993 31.8329 4.53974 31.8332 4.47838C31.8338 4.41653 31.8344 4.35468 31.8351 4.29095C31.8354 4.22824 31.8357 4.16552 31.8361 4.10091C31.837 3.94624 31.8383 3.79157 31.8397 3.6369C31.7015 3.64077 31.7015 3.64077 31.5605 3.64473C31.4387 3.64682 31.3168 3.64884 31.1949 3.65081C31.104 3.65361 31.104 3.65361 31.0113 3.65647C30.6567 3.66078 30.4196 3.64796 30.1327 3.41424C30.0192 3.18736 30.0412 2.9964 30.0585 2.74627C30.1891 2.50988 30.2439 2.4618 30.5038 2.37518C30.6083 2.36923 30.7131 2.36719 30.8178 2.36793C30.9071 2.36829 30.9071 2.36829 30.9982 2.36866C31.091 2.36959 31.091 2.36959 31.1857 2.37054C31.2484 2.37088 31.3111 2.37121 31.3757 2.37156C31.5304 2.37243 31.685 2.37376 31.8397 2.37518C31.8371 2.28305 31.8345 2.19091 31.8319 2.09599C31.8298 1.97413 31.8278 1.85227 31.8258 1.7304C31.8239 1.6698 31.8221 1.60919 31.8201 1.54674C31.8158 1.19212 31.8286 0.955061 32.0624 0.668149C32.2953 0.551673 32.4734 0.567804 32.7303 0.59393Z" fill="#F4DD45"/>
<path d="M35.7735 24.1954C36.0099 24.326 36.058 24.3809 36.1446 24.6407C36.1506 24.7507 36.1526 24.8608 36.1519 24.9709C36.1516 25.0338 36.1514 25.0967 36.1511 25.1616C36.1502 25.2596 36.1502 25.2596 36.1493 25.3597C36.1489 25.426 36.1486 25.4922 36.1482 25.5605C36.1474 25.724 36.1462 25.8874 36.1446 26.0509C36.188 26.0493 36.2314 26.0478 36.2762 26.0462C36.4735 26.04 36.6708 26.0361 36.8683 26.0323C36.9366 26.0298 37.0049 26.0274 37.0753 26.0248C37.5797 26.0175 37.5797 26.0175 37.8224 26.1819C37.9296 26.3538 37.968 26.4439 37.9676 26.6446C37.9692 26.6936 37.9709 26.7426 37.9726 26.7931C37.8949 27.0401 37.7776 27.1106 37.5548 27.2384C37.3107 27.2734 37.0724 27.2665 36.8265 27.2569C36.7281 27.2549 36.7281 27.2549 36.6278 27.2529C36.4667 27.2494 36.3056 27.2441 36.1446 27.2384C36.1481 27.3359 36.1515 27.4334 36.1551 27.5338C36.1578 27.6626 36.1605 27.7914 36.1632 27.9203C36.1657 27.9844 36.1682 28.0486 36.1707 28.1147C36.1755 28.4259 36.1723 28.6017 36.011 28.8747C35.7833 29.0769 35.6302 29.0991 35.3282 29.0938C35.0738 28.939 34.9775 28.8582 34.8829 28.5743C34.877 28.4698 34.8749 28.365 34.8757 28.2603C34.8759 28.2008 34.8761 28.1412 34.8764 28.0799C34.877 28.018 34.8776 27.9562 34.8783 27.8924C34.8786 27.8297 34.8789 27.767 34.8793 27.7024C34.8802 27.5477 34.8815 27.393 34.8829 27.2384C34.7854 27.2418 34.6879 27.2453 34.5875 27.2488C34.4587 27.2516 34.3298 27.2543 34.201 27.2569C34.1369 27.2594 34.0727 27.2619 34.0066 27.2645C33.6964 27.2692 33.5183 27.2645 33.2443 27.1073C33.0944 26.9331 33.0524 26.8701 33.0599 26.6446C33.0598 26.5956 33.0597 26.5467 33.0596 26.4962C33.1255 26.2637 33.1965 26.1878 33.3985 26.0509C33.6531 26.0145 33.9028 26.023 34.1593 26.0323C34.2287 26.0337 34.2982 26.035 34.3698 26.0364C34.5409 26.0399 34.7119 26.0448 34.8829 26.0509C34.8821 26.0097 34.8814 25.9686 34.8806 25.9261C34.8775 25.7389 34.8755 25.5516 34.8736 25.3644C34.8724 25.2996 34.8711 25.2348 34.8699 25.1681C34.8694 25.1054 34.8689 25.0428 34.8684 24.9782C34.8676 24.9207 34.8669 24.8631 34.8661 24.8039C34.8854 24.6163 34.9301 24.5025 35.0313 24.3438C35.3067 24.1603 35.4478 24.1668 35.7735 24.1954Z" fill="#F4DD44"/>
<path d="M2.82011 10.6132C3.01194 10.7538 3.04001 10.8275 3.11699 11.0585C3.12294 11.163 3.12498 11.2678 3.12424 11.3725C3.124 11.432 3.12376 11.4916 3.12351 11.5529C3.12258 11.6457 3.12258 11.6457 3.12163 11.7404C3.12129 11.8031 3.12096 11.8658 3.12061 11.9304C3.11974 12.0851 3.11841 12.2398 3.11699 12.3944C3.26322 12.3893 3.26322 12.3893 3.41241 12.384C3.54123 12.3812 3.67005 12.3785 3.79887 12.3759C3.86302 12.3734 3.92717 12.3709 3.99326 12.3683C4.30349 12.3636 4.48159 12.3683 4.7556 12.5255C4.90546 12.6997 4.94748 12.7627 4.93999 12.9882C4.94008 13.0372 4.94018 13.0861 4.94028 13.1366C4.87443 13.3691 4.80338 13.445 4.60136 13.5819C4.34682 13.6183 4.09707 13.6098 3.84062 13.6005C3.73643 13.5985 3.73643 13.5985 3.63014 13.5964C3.45901 13.5929 3.28804 13.5881 3.11699 13.5819C3.11871 13.6741 3.12043 13.7662 3.12221 13.8611C3.1236 13.983 3.12495 14.1048 3.12627 14.2267C3.12751 14.2873 3.12875 14.3479 3.13004 14.4104C3.13265 14.7328 3.13436 15.0018 2.96855 15.289C2.69319 15.4725 2.55214 15.466 2.22636 15.4374C1.98997 15.3068 1.94189 15.2519 1.85527 14.9921C1.84928 14.8821 1.84728 14.772 1.84802 14.6619C1.84826 14.599 1.8485 14.5361 1.84875 14.4712C1.84937 14.4059 1.84999 14.3405 1.85063 14.2731C1.85097 14.2068 1.8513 14.1406 1.85165 14.0723C1.85252 13.9089 1.85374 13.7454 1.85527 13.5819C1.81186 13.5835 1.76845 13.585 1.72372 13.5866C1.52637 13.5928 1.32905 13.5967 1.13164 13.6005C1.02917 13.6042 1.02917 13.6042 0.924637 13.608C0.420188 13.6153 0.420188 13.6153 0.177521 13.4509C0.0702651 13.279 0.0318803 13.1889 0.0322723 12.9882C0.0306459 12.9392 0.0290195 12.8902 0.0273438 12.8397C0.105018 12.5927 0.222314 12.5222 0.445114 12.3944C0.68921 12.3594 0.927448 12.3663 1.17339 12.3759C1.23897 12.3772 1.30455 12.3786 1.37212 12.3799C1.53321 12.3834 1.69425 12.3887 1.85527 12.3944C1.85183 12.2969 1.84838 12.1994 1.84483 12.099C1.84205 11.9702 1.83935 11.8414 1.83672 11.7125C1.83423 11.6484 1.83174 11.5842 1.82918 11.5182C1.82434 11.2024 1.82571 11.032 1.99559 10.7578C2.28032 10.4947 2.44649 10.5345 2.82011 10.6132Z" fill="#F4DD45"/>
<path d="M25.1602 36.8867C27.6339 36.8867 30.1076 36.8867 32.6562 36.8867C32.6562 37.2541 32.6562 37.6215 32.6562 38C31.8149 38.0086 30.9736 38.0152 30.1323 38.0192C29.7416 38.0212 29.3509 38.0238 28.9602 38.028C28.583 38.032 28.2057 38.0342 27.8284 38.0352C27.6847 38.0359 27.541 38.0372 27.3973 38.0392C27.1955 38.0419 26.9938 38.0423 26.792 38.0421C26.733 38.0435 26.6741 38.0448 26.6134 38.0462C26.1689 38.0421 25.8788 37.9028 25.5312 37.6289C25.2722 37.3632 25.2359 37.2654 25.1602 36.8867Z" fill="#C6D0D9"/>
<path d="M18.2578 28.2773C19.36 28.2773 20.4621 28.2773 21.5977 28.2773C21.6759 29.1381 21.6156 29.6131 21.0781 30.2812C20.8669 30.4954 20.6466 30.6891 20.4102 30.875C20.3672 30.9098 20.3242 30.9446 20.28 30.9805C20.1597 31.0559 20.1597 31.0559 19.8906 31.0977C19.2166 30.8136 18.6814 30.2966 18.3738 29.6365C18.2578 29.2422 18.2578 29.2422 18.2578 28.2773Z" fill="#FECABD"/>
<path d="M17.1076 19.9927C17.4562 20.0798 17.6235 20.3479 17.8126 20.6375C18.0245 20.9486 18.2814 21.158 18.629 21.3008C19.1637 21.368 19.6288 21.3649 20.0705 21.0355C20.2948 20.8329 20.4492 20.6192 20.6005 20.3591C20.7072 20.1875 20.7072 20.1875 20.9298 20.0391C21.1773 20.0523 21.3741 20.072 21.5932 20.1921C21.7278 20.4376 21.7277 20.6633 21.672 20.9297C21.3537 21.6218 20.7454 22.1497 20.0496 22.437C19.2913 22.6819 18.5213 22.6258 17.8126 22.2656C17.2933 21.9449 16.7679 21.4915 16.5637 20.9001C16.5063 20.5805 16.5193 20.4557 16.7086 20.1829C16.922 20.0391 16.922 20.0391 17.1076 19.9927Z" fill="#DD656F"/>
<path d="M21.8899 15.8408C22.1964 15.8971 22.2916 16.0155 22.4883 16.2537C22.5373 16.3287 22.5862 16.4037 22.6367 16.481C22.8895 16.8523 23.1637 17.0451 23.6016 17.1443C24.1115 17.2009 24.5141 17.1497 24.9375 16.8474C25.1179 16.657 25.2449 16.46 25.3875 16.2397C25.5312 16.031 25.5312 16.031 25.7539 15.8826C26.0245 15.8922 26.2055 15.9037 26.4219 16.0728C26.5356 16.35 26.5144 16.5704 26.4219 16.8474C26.1486 17.3577 25.8017 17.7355 25.3086 18.0349C25.2635 18.0655 25.2185 18.0961 25.172 18.1277C24.552 18.4813 23.6812 18.4175 23.0003 18.288C22.2871 18.0424 21.7254 17.4443 21.3701 16.7949C21.3008 16.6248 21.3008 16.6248 21.2915 16.3743C21.427 16.058 21.5444 15.907 21.8899 15.8408Z" fill="#DF9481"/>
<path d="M12.362 15.8736C12.7073 15.9866 12.8083 16.1558 12.9934 16.4578C13.2269 16.8174 13.4621 17.0225 13.8788 17.1446C14.3421 17.2094 14.8121 17.1746 15.2148 16.922C15.4536 16.7001 15.6688 16.4666 15.8091 16.1702C15.8828 16.0314 15.8828 16.0314 16.1054 15.8829C16.4064 15.8371 16.5169 15.8591 16.7687 16.036C16.9218 16.254 16.9218 16.254 16.9357 16.4952C16.7114 17.2037 16.1963 17.7749 15.5517 18.1382C14.8541 18.4367 14.0094 18.4493 13.2897 18.2162C12.6329 17.9341 12.1162 17.4955 11.8007 16.8478C11.7214 16.6211 11.7141 16.5028 11.7265 16.254C11.9177 15.9612 12.0101 15.886 12.362 15.8736Z" fill="#DF9380"/>
<path d="M14.1017 18.9998C14.3265 19.1879 14.4595 19.351 14.6213 19.5936C14.6156 19.8986 14.5819 20.0663 14.3986 20.3126C13.7948 20.778 13.1456 20.9212 12.3947 20.8553C11.9216 20.7339 11.5555 20.5267 11.2072 20.1873C11.0903 19.9536 11.1071 19.7776 11.133 19.5194C11.4016 19.0912 11.7599 18.8815 12.2387 18.7337C12.8905 18.6053 13.5133 18.6968 14.1017 18.9998Z" fill="#E490B6"/>
<path d="M26.5703 19.0002C26.7832 19.1454 26.9723 19.2845 27.0898 19.5197C27.1272 19.8432 27.1164 19.9969 26.9414 20.2758C26.5994 20.6403 26.1243 20.8288 25.633 20.8733C25.0459 20.8882 24.4723 20.8266 23.9903 20.459C23.8892 20.3593 23.8892 20.3593 23.75 20.1877C23.7255 20.1632 23.701 20.1387 23.6758 20.1134C23.6263 19.7712 23.6205 19.5232 23.8242 19.2367C24.6643 18.6241 25.6343 18.4831 26.5703 19.0002Z" fill="#E491B7"/>
<path d="M36.4414 34.7344C36.4659 34.7344 36.4904 34.7344 36.5156 34.7344C36.5797 36.4674 36.5797 36.4674 35.9451 37.2439C35.5358 37.6761 35.0469 37.985 34.4425 38.0084C34.3601 38.008 34.2777 38.0076 34.1928 38.0072C34.1034 38.007 34.0139 38.0068 33.9217 38.0065C33.8286 38.0059 33.7356 38.0053 33.6396 38.0046C33.5454 38.0043 33.4512 38.004 33.3541 38.0036C33.1215 38.0027 32.8889 38.0014 32.6562 38C32.6562 37.6326 32.6562 37.2652 32.6562 36.8867C32.8442 36.8838 32.8442 36.8838 33.036 36.8809C33.2032 36.8767 33.3704 36.8725 33.5376 36.8682C33.6199 36.8671 33.7022 36.8661 33.7869 36.865C34.5709 36.8419 35.2811 36.6393 35.8477 36.0703C36.1622 35.6537 36.3467 35.2459 36.4414 34.7344Z" fill="#EAAD9E"/>
<path d="M1.70724 34.7344C1.73173 34.7344 1.75622 34.7344 1.78145 34.7344C1.79236 34.7802 1.80327 34.826 1.81451 34.8732C1.99688 35.5619 2.29468 36.0676 2.87096 36.4942C3.45809 36.8204 3.97624 36.8508 4.63888 36.8635C4.72823 36.8661 4.81759 36.8686 4.90966 36.8712C5.12862 36.8773 5.34761 36.8821 5.56661 36.8867C5.56661 37.2541 5.56661 37.6215 5.56661 38C5.24804 38.0081 4.92967 38.0139 4.61104 38.0186C4.47701 38.0223 4.47701 38.0223 4.34026 38.0261C3.54241 38.0348 2.94367 37.881 2.35694 37.3262C1.82772 36.7463 1.68181 36.1408 1.69796 35.3699C1.69863 35.3085 1.6993 35.2471 1.69999 35.1839C1.70172 35.034 1.70438 34.8842 1.70724 34.7344Z" fill="#EAAD9E"/>
<path d="M14.25 26.7188C14.4643 26.754 14.6786 26.7892 14.8994 26.8254C15.4494 26.914 15.9945 26.9795 16.5508 27.0156C16.5508 27.5545 16.5508 28.0933 16.5508 28.6484C15.816 28.6484 15.0812 28.6484 14.3242 28.6484C14.2997 28.0116 14.2752 27.3748 14.25 26.7188Z" fill="#544F57"/>
<path d="M18.4455 17.3919C18.5249 17.3914 18.5249 17.3914 18.606 17.3908C18.7175 17.3906 18.8291 17.3913 18.9406 17.3928C19.1107 17.3948 19.2805 17.3928 19.4507 17.3905C19.5594 17.3907 19.6681 17.3912 19.7768 17.3919C19.8525 17.3908 19.8525 17.3908 19.9298 17.3896C20.2122 17.3966 20.3305 17.437 20.5536 17.6156C20.7069 17.8123 20.7069 17.8123 20.7486 18.0396C20.6981 18.3034 20.6177 18.3895 20.41 18.5545C20.0849 18.717 19.6451 18.6425 19.2837 18.6425C19.1216 18.6426 18.9595 18.644 18.7975 18.6454C18.6943 18.6456 18.591 18.6457 18.4878 18.6458C18.3939 18.6461 18.3001 18.6464 18.2033 18.6467C17.9735 18.6297 17.8507 18.6106 17.6639 18.4803C17.4898 18.2192 17.4724 18.1197 17.5155 17.8123C17.7899 17.4582 18.0134 17.3855 18.4455 17.3919Z" fill="#EAAD9E"/>
<path d="M8.16394 17.1444C8.21895 17.1697 8.27396 17.195 8.33064 17.221C8.55162 17.469 8.49149 17.7674 8.47937 18.0861C8.47803 18.1523 8.47669 18.2186 8.47531 18.2869C8.47181 18.4504 8.46693 18.6138 8.46081 18.7773C8.19213 18.7197 8.06044 18.6313 7.85779 18.4433C7.58603 18.1752 7.58603 18.1752 7.22548 18.1151C7.14789 18.1193 7.0703 18.1235 6.99035 18.1278C6.672 18.1301 6.56255 18.1298 6.28991 17.9516C6.13685 17.7001 6.10472 17.5817 6.16003 17.2929C6.67094 16.6117 7.51344 16.7725 8.16394 17.1444Z" fill="#DF9380"/>
<path d="M31.84 17.0702C31.9885 17.2 31.9885 17.2 32.0627 17.367C32.0547 17.8192 32.0547 17.8192 31.8629 18.0141C31.643 18.1362 31.5047 18.122 31.2555 18.1046C30.8599 18.095 30.6586 18.1327 30.3556 18.4061C30.2898 18.4735 30.224 18.5408 30.1562 18.6102C29.9845 18.7772 29.9845 18.7772 29.7619 18.7772C29.7478 18.5497 29.7376 18.323 29.7294 18.0953C29.7251 18.0312 29.7207 17.967 29.7162 17.9009C29.7037 17.433 29.7037 17.433 29.8722 17.2421C30.4924 16.7919 31.1667 16.7005 31.84 17.0702Z" fill="#DF9380"/>
<path d="M19.7422 26.793C19.8127 26.8044 19.8832 26.8157 19.9559 26.8275C20.3025 26.877 20.6497 26.8927 20.9993 26.9089C21.0642 26.9121 21.1291 26.9153 21.196 26.9186C21.3546 26.9264 21.5132 26.934 21.6719 26.9414C21.6719 26.9659 21.6719 26.9904 21.6719 27.0156C19.9819 27.0156 18.292 27.0156 16.5508 27.0156C16.5508 26.9911 16.5508 26.9666 16.5508 26.9414C17.6039 26.9169 18.6571 26.8924 19.7422 26.8672C19.7422 26.8427 19.7422 26.8182 19.7422 26.793Z" fill="#EFB3A4"/>
</g>
<defs>
<clipPath id="clip0_1623_1593">
<rect width="38" height="38" fill="white"/>
</clipPath>
</defs>
</svg>
