<svg width="360" height="296" viewBox="0 0 360 296" fill="none" xmlns="http://www.w3.org/2000/svg">
<g clip-path="url(#clip0_1122_2887)">
<path d="M58.7504 234.525C66.8509 242.77 81.9982 241.032 81.9982 241.032C81.9982 241.032 84.0031 225.926 75.8947 217.686C67.7946 209.442 52.6542 211.175 52.6542 211.175C52.6542 211.175 50.6498 226.281 58.7504 234.525Z" fill="url(#paint0_linear_1122_2887)"/>
<path d="M268.456 61.9216C259.974 66.7602 248.06 61.8619 248.06 61.8619C248.06 61.8619 249.906 49.1206 258.393 44.2879C266.875 39.4493 278.785 44.3421 278.785 44.3421C278.785 44.3421 276.938 57.0835 268.456 61.9216Z" fill="url(#paint1_linear_1122_2887)"/>
<path d="M113.24 77.0258C104.522 85.8993 88.2186 84.0281 88.2186 84.0281C88.2186 84.0281 86.0612 67.7703 94.7878 58.9022C103.506 50.0286 119.802 51.8939 119.802 51.8939C119.802 51.8939 121.959 68.1522 113.24 77.0258Z" fill="url(#paint2_linear_1122_2887)"/>
<path d="M65.5146 160.841C69.6479 160.841 72.9985 164.359 72.9985 168.699C72.9985 173.039 69.6479 176.557 65.5146 176.557C61.3814 176.557 58.0308 173.039 58.0308 168.699C58.0308 164.359 61.3814 160.841 65.5146 160.841Z" fill="#E1E4E5"/>
<path d="M189.06 247.16C191.376 247.16 193.253 249.038 193.253 251.354C193.253 253.669 191.376 255.547 189.06 255.547C186.744 255.547 184.867 253.669 184.867 251.354C184.867 249.038 186.744 247.16 189.06 247.16Z" fill="#3DB2FF"/>
<path d="M295.135 198.813C299.908 198.813 303.778 202.682 303.778 207.455C303.778 212.228 299.908 216.098 295.135 216.098C290.362 216.098 286.493 212.228 286.493 207.455C286.493 202.682 290.362 198.813 295.135 198.813Z" fill="#3DB2FF"/>
<path d="M302.37 138.314C306.235 138.314 309.367 135.181 309.367 131.317C309.367 127.452 306.235 124.32 302.37 124.32C298.506 124.32 295.374 127.452 295.374 131.317C295.374 135.181 298.506 138.314 302.37 138.314Z" fill="#31446C"/>
<path d="M75.1507 117.294C78.4572 117.294 81.1378 114.613 81.1378 111.306C81.1378 108 78.4572 105.319 75.1507 105.319C71.8441 105.319 69.1636 108 69.1636 111.306C69.1636 114.613 71.8441 117.294 75.1507 117.294Z" fill="#F8AE9D"/>
<path d="M109.053 255.416C111.049 255.416 112.666 253.899 112.666 252.028C112.666 250.157 111.049 248.64 109.053 248.64C107.058 248.64 105.44 250.157 105.44 252.028C105.44 253.899 107.058 255.416 109.053 255.416Z" fill="#E1E4E5"/>
<path d="M280.966 187.85C283.635 187.85 285.799 185.776 285.799 183.218C285.799 180.66 283.635 178.587 280.966 178.587C278.297 178.587 276.133 180.66 276.133 183.218C276.133 185.776 278.297 187.85 280.966 187.85Z" fill="#E1E4E5"/>
<path d="M261.52 242.106C264.62 242.106 267.133 239.593 267.133 236.493C267.133 233.393 264.62 230.88 261.52 230.88C258.42 230.88 255.907 233.393 255.907 236.493C255.907 239.593 258.42 242.106 261.52 242.106Z" fill="#E1E4E5"/>
<path d="M150.839 59.4261C152.285 59.4261 153.458 58.0858 153.458 56.4325C153.458 54.7792 152.285 53.439 150.839 53.439C149.392 53.439 148.22 54.7792 148.22 56.4325C148.22 58.0858 149.392 59.4261 150.839 59.4261Z" fill="#E1E4E5"/>
<path d="M276.846 147.699C276.453 149.167 277.324 150.677 278.793 151.07C280.261 151.464 281.771 150.592 282.164 149.124C282.557 147.655 281.686 146.146 280.217 145.752C278.749 145.359 277.239 146.23 276.846 147.699Z" fill="#E1E4E5"/>
<path d="M276.019 115.276C278.086 115.276 279.761 113.601 279.761 111.534C279.761 109.467 278.086 107.792 276.019 107.792C273.953 107.792 272.277 109.467 272.277 111.534C272.277 113.601 273.953 115.276 276.019 115.276Z" fill="#E1E4E5"/>
<path d="M78.3852 142.818C79.8317 142.818 81.0043 141.813 81.0043 140.573C81.0043 139.333 79.8317 138.328 78.3852 138.328C76.9387 138.328 75.7661 139.333 75.7661 140.573C75.7661 141.813 76.9387 142.818 78.3852 142.818Z" fill="#E1E4E5"/>
<path d="M204.672 50.9438C203.853 54 205.666 57.1415 208.723 57.9604C211.779 58.7794 214.92 56.9656 215.739 53.9093C216.558 50.8531 214.745 47.7116 211.688 46.8927C208.632 46.0738 205.491 47.8875 204.672 50.9438Z" fill="#E1E4E5"/>
<path d="M33.0751 151.998H33.0015C32.5669 158.157 27.9868 158.252 27.9868 158.252C27.9868 158.252 33.0376 158.351 33.0376 165.469C33.0376 158.351 38.0883 158.252 38.0883 158.252C38.0883 158.252 33.5097 158.157 33.0751 151.998ZM295.445 73.7983H295.318C294.569 84.407 286.681 84.5703 286.681 84.5703C286.681 84.5703 295.38 84.7405 295.38 96.9983C295.38 84.7405 304.078 84.5703 304.078 84.5703C304.078 84.5703 296.193 84.407 295.445 73.7983Z" fill="#E1E4E5"/>
<path d="M221.11 41.1893C224.122 43.5613 226.359 46.2531 228.021 49.7361C228.021 50.1905 228.021 50.6449 228.021 51.1131C228.476 50.9616 228.93 50.8102 229.398 50.6541C233.57 50.3457 237.133 50.4608 240.873 52.49C241.346 52.7456 241.82 53.0012 242.307 53.2646C245.943 56.1892 248.728 59.7554 249.594 64.4236C249.637 65.58 249.653 66.7375 249.651 67.8947C249.653 68.2033 249.655 68.5118 249.656 68.8297C249.654 70.2413 249.585 71.3361 249.135 72.6854C249.401 72.6587 249.667 72.6321 249.942 72.6047C251.894 72.4919 253.279 72.4487 254.843 73.7181C256.725 75.7377 257.147 77.2008 257.085 79.9144C256.795 81.9477 255.652 83.2176 254.155 84.5329C253.266 85.0779 253.266 85.0779 251.889 85.5369C252.189 85.8718 252.49 86.2067 252.799 86.5517C260.056 94.791 265.891 104.311 269.649 114.632C270.626 117.207 271.74 119.004 273.704 120.948C274.885 122.433 274.862 124.092 274.838 125.928C274.838 126.533 274.838 127.139 274.838 127.763C275.137 127.875 275.437 127.986 275.745 128.101C280.737 130.015 284.699 132.765 286.972 137.775C287.979 140.255 288.211 142.308 288.206 145.004C288.208 145.313 288.209 145.621 288.211 145.939C288.208 147.351 288.139 148.445 287.689 149.795C287.956 149.773 288.222 149.752 288.496 149.73C290.404 149.642 291.608 149.696 293.369 150.512C295.018 152.043 295.838 153.477 296.026 155.754C295.894 158.378 294.637 159.991 292.738 161.728C291.233 162.481 289.568 162.243 287.915 162.232C287.53 162.231 287.144 162.231 286.746 162.23C285.512 162.228 284.277 162.222 283.042 162.216C282.206 162.214 281.37 162.212 280.534 162.21C278.482 162.205 276.431 162.197 274.379 162.187C274.331 162.553 274.282 162.919 274.233 163.296C273.725 166.883 272.958 170.282 271.912 173.748C271.711 174.438 271.711 174.438 271.507 175.142C270.86 177.324 270.165 179.37 269.197 181.431C267.277 186.147 269.07 190.936 270.937 195.378C271.158 195.922 271.379 196.467 271.607 197.028C272.364 198.884 273.14 200.732 273.92 202.578C274.061 202.911 274.201 203.245 274.346 203.588C275.748 206.91 277.158 210.229 278.576 213.544C281.258 219.815 283.882 226.108 286.485 232.412C286.674 232.87 286.863 233.328 287.058 233.8C287.598 235.106 288.137 236.412 288.676 237.719C288.914 238.296 288.914 238.296 289.157 238.884C292.01 245.824 292.01 245.824 291.964 248.821C291.962 249.32 291.96 249.819 291.958 250.334C291.825 251.639 291.578 252.416 290.902 253.525C291.195 253.553 291.488 253.581 291.79 253.609C292.169 253.648 292.548 253.686 292.939 253.726C293.317 253.763 293.695 253.801 294.085 253.839C295.033 253.984 295.033 253.984 295.492 254.443C295.55 255.82 295.55 255.82 295.492 257.197C294.73 257.96 293.808 257.713 292.79 257.717C292.305 257.716 292.305 257.716 291.81 257.714C291.469 257.715 291.127 257.716 290.776 257.717C289.624 257.718 288.472 257.717 287.32 257.715C286.498 257.716 285.675 257.717 284.853 257.718C282.613 257.72 280.373 257.719 278.134 257.718C275.795 257.717 273.456 257.718 271.118 257.718C267.19 257.719 263.262 257.718 259.334 257.716C254.785 257.713 250.237 257.714 245.689 257.717C241.791 257.719 237.894 257.719 233.996 257.718C231.665 257.717 229.334 257.717 227.003 257.719C224.812 257.72 222.621 257.719 220.43 257.716C219.623 257.716 218.817 257.716 218.01 257.717C216.914 257.718 215.818 257.717 214.721 257.714C214.398 257.715 214.075 257.716 213.742 257.717C211.55 257.708 211.55 257.708 211.039 257.197C210.982 255.82 210.982 255.82 211.039 254.443C211.766 253.717 212.591 253.825 213.592 253.726C214.161 253.668 214.161 253.668 214.741 253.609C215.034 253.582 215.327 253.554 215.629 253.525C215.524 253.275 215.419 253.025 215.312 252.767C215.114 252.248 215.114 252.248 214.912 251.718C214.712 251.215 214.712 251.215 214.508 250.701C213.678 246.468 215.577 242.872 217.264 239.096C217.735 238.026 218.204 236.956 218.671 235.885C218.88 235.416 219.089 234.947 219.304 234.464C219.817 233.392 219.817 233.392 219.76 232.412C219.263 232.612 218.767 232.812 218.256 233.018C210.212 236.165 201.393 238.991 192.68 238.838C192.696 239.402 192.696 239.402 192.712 239.978C192.72 240.473 192.729 240.967 192.737 241.477C192.753 242.212 192.753 242.212 192.769 242.961C192.682 244.311 192.462 245.045 191.762 246.181C192.033 246.216 192.305 246.25 192.585 246.285C194.593 246.62 195.704 246.942 197.298 248.276C198.425 250.275 198.411 251.745 198.188 253.984C198.925 253.976 198.925 253.976 199.677 253.968C200.319 253.964 200.96 253.96 201.601 253.955C201.926 253.952 202.25 253.948 202.585 253.944C203.414 253.94 204.243 253.96 205.072 253.984C205.531 254.443 205.531 254.443 205.589 255.82C205.531 257.197 205.531 257.197 205.072 257.656C204.362 257.701 203.65 257.714 202.938 257.714C202.474 257.715 202.01 257.716 201.531 257.717C200.757 257.716 200.757 257.716 199.967 257.714C199.152 257.715 199.152 257.715 198.32 257.717C196.804 257.718 195.288 257.717 193.773 257.716C192.141 257.715 190.509 257.717 188.877 257.718C185.677 257.72 182.477 257.719 179.278 257.718C176.678 257.717 174.079 257.717 171.48 257.717C171.111 257.718 170.741 257.718 170.361 257.718C169.611 257.718 168.861 257.718 168.111 257.718C161.07 257.719 154.03 257.718 146.989 257.715C140.941 257.713 134.893 257.714 128.845 257.716C121.83 257.718 114.816 257.719 107.801 257.718C107.054 257.718 106.307 257.718 105.559 257.717C105.192 257.717 104.824 257.717 104.445 257.717C101.847 257.717 99.2496 257.718 96.6519 257.719C93.4884 257.72 90.3249 257.72 87.1614 257.717C85.5457 257.716 83.9301 257.715 82.3144 257.717C80.567 257.719 78.8195 257.717 77.0721 257.714C76.5558 257.715 76.0396 257.716 75.5077 257.717C75.0434 257.716 74.5791 257.715 74.1007 257.714C73.6968 257.714 73.2929 257.714 72.8768 257.714C71.9668 257.656 71.9668 257.656 71.5078 257.197C71.4504 255.82 71.4504 255.82 71.5078 254.443C72.2352 253.716 72.9898 253.909 73.9992 253.89C74.431 253.881 74.8629 253.872 75.3078 253.862C75.7773 253.855 76.2468 253.847 76.7306 253.839C77.4478 253.825 77.4478 253.825 78.1795 253.81C79.7135 253.78 81.2476 253.753 82.7816 253.726C83.8188 253.706 84.856 253.686 85.8932 253.666C88.4418 253.617 90.9904 253.57 93.5391 253.525C93.3509 253.259 93.1628 252.993 92.9689 252.718C92.7216 252.36 92.4743 252.001 92.2195 251.632C91.9745 251.28 91.7296 250.929 91.4772 250.567C89.99 248.047 89.7348 245.701 89.7568 242.824C89.756 242.447 89.7552 242.07 89.7544 241.681C89.7529 240.421 89.758 239.161 89.763 237.901C89.7632 236.996 89.7631 236.092 89.7626 235.187C89.7623 232.733 89.7677 230.279 89.7741 227.825C89.7799 225.259 89.7804 222.694 89.7815 220.128C89.7843 215.271 89.7919 210.414 89.8011 205.557C89.8113 200.027 89.8164 194.497 89.821 188.967C89.8306 177.593 89.8467 166.218 89.8672 154.844C89.2089 154.637 89.2089 154.637 88.5374 154.426C86.3995 153.675 85.3754 152.286 84.3594 150.254C84.3151 149.337 84.2998 148.418 84.302 147.5C84.3002 146.761 84.3002 146.761 84.2984 146.008C84.3594 144.746 84.3594 144.746 84.8184 143.828C84.3984 143.839 84.3984 143.839 83.97 143.85C82.6942 143.879 81.4185 143.896 80.1425 143.914C79.702 143.926 79.2615 143.937 78.8076 143.949C74.7091 143.992 74.7091 143.991 72.8848 142.451C71.6595 140.832 71.1703 139.427 71.0488 137.402C71.4908 134.883 72.2275 133.466 74.2617 131.894C75.7821 131.521 75.7821 131.521 77.0156 131.435C76.9778 130.924 76.9399 130.413 76.9009 129.886C76.923 125.702 79.158 121.933 82.0645 119.043C84.5533 117.115 86.7031 115.743 89.8672 115.371C89.9068 115.065 89.9465 114.759 89.9873 114.444C90.3645 111.97 90.9057 109.905 92.0187 107.654C92.9598 105.7 93.3305 104.647 92.6211 102.519C90.7413 96.061 90.8494 88.8052 93.998 82.783C97.5325 76.8512 102.397 72.796 109.037 70.7849C111.164 70.289 113.249 70.2145 115.427 70.2183C116.027 70.2184 116.027 70.2184 116.64 70.2185C120.543 70.287 124.198 70.9404 127.504 73.1443C128.954 72.9779 129.967 72.3622 131.169 71.5648C131.693 71.2224 131.693 71.2224 132.228 70.8732C132.6 70.6287 132.972 70.3842 133.356 70.1323C137.256 67.6281 141.174 65.3987 145.404 63.5057C145.748 63.352 146.091 63.1983 146.445 63.04C159.86 57.1433 173.127 55.4085 187.631 55.7029C187.656 55.3121 187.656 55.3121 187.682 54.9133C188.093 50.0494 190.336 45.5254 193.983 42.2436C202.04 35.9932 212.656 35.1467 221.11 41.1893ZM119.242 213.594C119.241 213.997 119.239 214.401 119.237 214.817C119.22 218.639 119.194 222.46 119.158 226.282C119.14 228.246 119.125 230.211 119.118 232.175C119.111 234.074 119.095 235.972 119.073 237.871C119.066 238.592 119.063 239.314 119.062 240.035C119.056 245.604 118.252 249.273 115.111 253.984C120.11 253.984 125.108 253.984 130.258 253.984C130.848 252.212 131.354 250.599 131.751 248.798C131.853 248.335 131.956 247.873 132.061 247.396C132.168 246.904 132.276 246.412 132.386 245.905C132.498 245.394 132.61 244.883 132.725 244.356C132.96 243.278 133.194 242.2 133.427 241.122C133.786 239.471 134.15 237.82 134.515 236.17C134.743 235.122 134.97 234.073 135.197 233.025C135.362 232.284 135.362 232.284 135.53 231.528C135.629 231.069 135.727 230.609 135.828 230.136C135.96 229.53 135.96 229.53 136.094 228.913C136.232 227.757 136.203 227.063 135.766 225.986C134.716 225.19 133.697 224.495 132.581 223.806C131.948 223.399 131.316 222.991 130.685 222.581C130.375 222.381 130.065 222.18 129.746 221.973C126.435 219.767 123.504 217.061 120.589 214.368C119.84 213.543 119.84 213.543 119.242 213.594ZM139.896 228.74C139.175 232.04 138.456 235.34 137.739 238.64C137.495 239.763 137.25 240.886 137.005 242.009C136.652 243.622 136.302 245.235 135.952 246.848C135.842 247.351 135.731 247.854 135.617 248.371C135.516 248.84 135.415 249.308 135.311 249.791C135.221 250.203 135.132 250.615 135.039 251.039C134.796 252.262 134.796 252.262 134.848 253.984C138.18 253.984 141.512 253.984 144.945 253.984C144.945 246.411 144.945 238.838 144.945 231.035C141.468 228.666 141.468 228.666 139.896 228.74ZM148.617 232.871C148.617 239.838 148.617 246.806 148.617 253.984C155.282 253.984 161.946 253.984 168.812 253.984C168.964 252.621 169.115 251.258 169.271 249.853C169.931 248.505 169.931 248.505 171.107 247.558C172.622 247.107 174.131 246.841 175.697 246.64C175.552 246.322 175.406 246.003 175.256 245.674C174.736 244.225 174.593 242.981 174.492 241.448C174.458 240.958 174.424 240.467 174.388 239.962C174.366 239.591 174.343 239.22 174.32 238.838C174.03 238.799 173.74 238.76 173.442 238.72C166.431 237.756 159.769 236.302 153.024 234.159C151.562 233.706 150.089 233.291 148.617 232.871Z" fill="#363267"/>
<path d="M145.404 151.172C156.916 151.172 168.427 151.172 180.287 151.172C180.893 152.535 181.499 153.898 182.123 155.303C184.619 157.405 186.508 158.227 189.705 158.186C192.226 157.9 194.287 156.89 196.093 155.131C196.984 153.732 196.984 153.732 197.729 151.172C205.605 151.172 213.481 151.172 221.596 151.172C223.726 155.431 225.501 159.047 226.645 163.564C226.748 163.973 226.852 164.381 226.958 164.802C229.365 175.92 226.347 187.264 220.78 196.896C220.621 197.139 220.461 197.381 220.297 197.63C219.901 198.233 219.533 198.854 219.181 199.483C218.078 201.22 217.234 202.377 215.21 202.969C213.522 203.127 211.876 203.152 210.181 203.134C209.536 203.142 208.891 203.152 208.246 203.163C206.501 203.188 204.756 203.186 203.011 203.178C201.551 203.174 200.091 203.182 198.631 203.191C195.185 203.21 191.739 203.208 188.293 203.192C184.745 203.177 181.198 203.196 177.65 203.233C174.598 203.263 171.545 203.272 168.493 203.264C166.672 203.26 164.852 203.263 163.032 203.287C161.319 203.308 159.607 203.302 157.894 203.277C156.971 203.269 156.048 203.289 155.126 203.309C152.586 203.248 151.066 203.158 149.175 201.368C148.087 200.018 147.193 198.57 146.322 197.07C146.118 196.752 145.913 196.433 145.703 196.105C139.933 186.943 137.906 174.928 140.212 164.396C141.329 159.645 142.978 155.419 145.404 151.172Z" fill="#FE5948"/>
<path d="M235.365 206.25C247.179 206.25 258.994 206.25 271.166 206.25C275.399 216.403 275.399 216.403 277.205 220.754C278.83 224.666 280.463 228.573 282.138 232.463C282.874 234.173 283.603 235.885 284.331 237.598C284.675 238.4 285.021 239.202 285.372 240.001C285.859 241.116 286.335 242.234 286.809 243.354C286.953 243.675 287.097 243.995 287.245 244.325C288.209 246.65 288.434 248.788 287.689 251.23C286.565 252.65 285.278 253.411 283.559 253.984C282.906 254.025 282.252 254.04 281.598 254.04C280.999 254.041 280.999 254.041 280.387 254.041C279.95 254.04 279.513 254.038 279.062 254.036C278.601 254.037 278.14 254.037 277.665 254.037C276.137 254.036 274.61 254.033 273.083 254.029C272.025 254.028 270.967 254.028 269.909 254.027C267.122 254.025 264.336 254.021 261.549 254.016C258.706 254.011 255.864 254.009 253.021 254.007C247.442 254.002 241.862 253.994 236.283 253.984C236.131 253.298 236.131 253.298 235.976 252.597C235.59 250.856 235.203 249.115 234.817 247.374C234.651 246.628 234.486 245.883 234.321 245.137C232.774 238.159 231.187 231.19 229.583 224.224C228.784 217.943 233.246 211.372 235.365 206.25Z" fill="#FEDB7B"/>
<path d="M187.631 55.7029C187.479 56.1573 187.328 56.6117 187.172 57.0799C186.252 57.5191 186.252 57.5191 185.078 57.9118C180.908 59.4939 178.245 61.8448 176.156 65.8006C175.361 67.684 174.809 69.4049 174.693 71.4518C174.32 72.6853 174.32 72.6853 173.526 73.1802C172.867 73.4829 172.205 73.7811 171.541 74.0748C170.17 74.7607 169.774 75.3717 169.271 76.8162C169.308 77.5818 169.357 78.3468 169.415 79.1111C169.46 80.3231 169.46 80.3231 169.271 81.406C168.425 82.2102 167.576 82.6551 166.539 83.1864C165.033 84.0113 164.465 84.9056 163.764 86.4549C163.408 88.7263 163.495 90.4754 164.481 92.5651C165.553 93.9066 165.553 93.9066 167.256 94.5762C168.539 95.4864 168.785 95.9557 169.095 97.5232C169.186 99.4386 169.174 101.33 169.126 103.245C169.12 103.952 169.116 104.659 169.112 105.366C169.1 107.222 169.069 109.077 169.033 110.932C169 112.827 168.986 114.722 168.969 116.618C168.935 120.333 168.88 124.048 168.812 127.763C168.574 127.867 168.336 127.971 168.091 128.079C167.001 128.555 165.913 129.034 164.825 129.513C164.45 129.677 164.075 129.841 163.689 130.009C162.137 130.694 160.66 131.369 159.207 132.251C158.256 132.812 158.256 132.812 157.117 132.699C156.736 132.585 156.354 132.471 155.961 132.353C155.353 132.232 155.353 132.232 154.733 132.108C153.612 131.884 152.492 131.659 151.371 131.435C151.387 130.854 151.403 130.272 151.42 129.673C151.432 128.893 151.445 128.113 151.457 127.333C151.469 126.952 151.48 126.571 151.492 126.178C151.527 123.156 151.189 120.135 149.291 117.671C148.305 115.648 148.415 113.785 148.419 111.562C148.412 110.85 148.412 110.85 148.405 110.123C148.391 108.556 148.386 106.989 148.382 105.422C148.375 104.335 148.366 103.247 148.357 102.159C148.336 99.299 148.322 96.4385 148.31 93.5779C148.296 90.6582 148.275 87.7385 148.254 84.8188C148.215 79.0914 148.184 73.364 148.158 67.6365C147.398 67.4611 146.632 67.3088 145.863 67.1775C145.142 67.8985 145.329 68.625 145.31 69.6267C145.301 70.0494 145.292 70.4721 145.282 70.9076C145.271 71.5967 145.271 71.5967 145.259 72.2999C145.25 72.7678 145.24 73.2358 145.23 73.718C145.2 75.2192 145.173 76.7205 145.146 78.2218C145.126 79.2369 145.106 80.252 145.086 81.2671C145.037 83.7613 144.99 86.2555 144.945 88.7498C142.976 88.7498 141.007 88.7498 138.979 88.7498C138.666 87.9357 138.354 87.1215 138.032 86.2827C135.837 81.073 132.661 77.6653 128.422 74.0623C130.247 72.0646 132.217 70.7138 134.532 69.329C134.898 69.109 135.264 68.889 135.64 68.6624C145.638 62.7228 156.046 58.9622 167.436 56.6209C168.026 56.4978 168.617 56.3747 169.225 56.2479C175.252 55.2365 181.538 55.6231 187.631 55.7029Z" fill="#34ACFE"/>
<path d="M216.547 42.8516C220.602 45.2527 223.131 48.64 224.873 52.9582C225.286 53.9828 225.286 53.9828 226.186 55.2441C227.454 55.0042 228.63 54.7353 229.858 54.3262C234.124 53.7987 237.326 54.6654 240.873 57.0801C243.569 59.4463 245.329 61.9891 245.574 65.6C245.692 70.1824 245.692 70.1824 244.966 72.2965C244.505 73.7294 244.585 74.4738 245.004 75.8984C245.485 75.9156 245.966 75.9328 246.462 75.9504C247.095 75.9806 247.728 76.0111 248.36 76.0419C248.677 76.0522 248.994 76.0626 249.321 76.0732C251.664 76.1978 251.664 76.1978 252.787 76.9939C253.483 78.0696 253.454 78.7764 253.266 80.0293C252.791 80.7771 252.791 80.7771 251.889 81.4062C250.658 81.5487 249.536 81.6102 248.305 81.6053C247.955 81.6077 247.604 81.6101 247.243 81.6126C246.503 81.6155 245.763 81.6149 245.022 81.611C243.891 81.6071 242.76 81.6203 241.629 81.6348C240.909 81.6356 240.189 81.6353 239.469 81.6339C239.132 81.6391 238.794 81.6443 238.446 81.6496C236.841 81.6278 235.978 81.524 234.687 80.5357C233.864 79.3986 233.822 78.9372 233.96 77.5623C234.048 75.5801 233.758 74.364 232.612 72.6855C230.343 71.2637 227.791 71.5805 225.239 71.9971C224.946 72.0728 224.652 72.1485 224.35 72.2266C222.566 70.3118 221.279 68.4883 220.047 66.1737C218.845 64.0583 217.92 62.7584 215.615 61.894C213.224 61.3012 211.663 61.4542 209.548 62.674C208.058 63.7132 207.073 64.505 206.449 66.2598C206.132 68.9634 206.152 71.3539 207.826 73.6035C208.684 74.2404 209.563 74.7764 210.491 75.3068C212.638 76.5675 214.933 78.1126 216.547 80.0293C216.547 80.4837 216.547 80.9381 216.547 81.4062C211.005 81.4381 205.464 81.4626 199.922 81.4776C197.349 81.4848 194.776 81.4945 192.203 81.5101C189.721 81.5251 187.239 81.5333 184.757 81.5369C183.809 81.5394 182.86 81.5444 181.912 81.5518C180.587 81.5618 179.262 81.5632 177.936 81.5626C177.542 81.5675 177.148 81.5725 176.742 81.5776C174.06 81.5635 174.06 81.5635 173.072 80.7791C172.485 80.0293 172.485 80.0293 172.312 78.8818C172.485 77.7344 172.485 77.7344 172.972 76.9312C174.267 76.0956 175.562 76.0665 177.074 75.8984C177.832 75.1413 177.626 74.1864 177.677 73.1445C178.053 68.8094 179.801 65.5038 183.041 62.5879C184.911 61.2844 186.807 60.3389 189.008 59.7479C189.462 59.6249 189.917 59.5018 190.385 59.375C190.998 58.1488 191.048 57.0065 191.217 55.6458C191.93 50.9787 193.795 47.9067 197.27 44.6875C203.308 40.3171 209.703 39.8422 216.547 42.8516Z" fill="#FDFDFD"/>
<path d="M202.777 85.0781C207.018 85.0781 211.259 85.0781 215.629 85.0781C216.083 86.1384 216.538 87.1986 217.006 88.291C218.19 89.2661 218.19 89.2661 219.76 89.668C220.653 89.5189 220.653 89.5189 221.564 89.3669C224.169 89.3495 225.574 90.8924 227.321 92.6093C228.093 93.3905 228.854 94.1814 229.615 94.9732C230.154 95.5183 230.694 96.0626 231.234 96.6061C232.649 98.0343 234.051 99.4747 235.451 100.918C236.883 102.389 238.328 103.847 239.771 105.307C241.87 107.435 243.966 109.565 246.049 111.709C246.469 112.14 246.889 112.571 247.321 113.015C248.217 113.994 248.217 113.994 248.217 114.453C247.768 114.498 247.319 114.543 246.856 114.589C243.374 114.987 240.274 115.424 237.201 117.207C236.853 117.406 236.505 117.605 236.147 117.809C231.707 120.551 228.978 124.282 227.104 129.141C227.008 129.951 226.93 130.765 226.874 131.579C226.711 132.696 226.711 132.696 226.186 133.73C224.629 134.769 223.08 135.509 221.357 136.223C219.825 136.914 218.72 137.674 217.465 138.779C215.84 138.055 214.557 137.065 213.162 135.968C208.495 132.395 203.649 130.039 198.188 127.764C198.188 117.161 198.188 106.559 198.188 95.6348C199.096 95.1804 200.005 94.726 200.941 94.2578C202.635 92.3811 203.301 91.2848 203.294 88.7787C203.295 88.3769 203.296 87.9752 203.297 87.5613C203.281 86.3887 203.281 86.3887 202.777 85.0781Z" fill="#34ACFE"/>
<path d="M172.484 96.0938C179.755 96.0938 187.025 96.0938 194.516 96.0938C194.667 107.302 194.819 118.511 194.975 130.059C196.338 130.664 197.701 131.27 199.105 131.895C206.763 135.532 213.617 139.679 218.842 146.582C218.842 146.885 218.842 147.188 218.842 147.5C211.874 147.5 204.907 147.5 197.729 147.5C197.274 146.44 196.82 145.379 196.352 144.287C194.649 142.262 192.918 140.838 190.236 140.468C187.478 140.342 185.264 140.757 183.041 142.451C181.55 144.049 180.82 145.368 180.287 147.5C169.533 147.5 158.779 147.5 147.699 147.5C154.353 138.628 162.091 134.316 172.025 130.059C172.177 118.85 172.328 107.642 172.484 96.0938Z" fill="#E8F1FE"/>
<path d="M95.834 108.486C96.137 108.486 96.4399 108.486 96.752 108.486C97.2328 109.012 97.6875 109.562 98.129 110.121C101.28 113.8 104.999 115.839 109.604 117.207C109.88 117.295 110.156 117.383 110.441 117.474C116.648 118.667 122.414 117.238 127.963 114.453C131.728 112.933 135.698 112.193 139.586 113.646C143.689 115.636 143.689 115.636 144.945 117.207C145.111 118.244 145.111 118.244 145.102 119.47C145.102 119.929 145.101 120.389 145.101 120.862C145.094 121.357 145.087 121.852 145.08 122.362C145.078 122.869 145.076 123.377 145.074 123.899C145.066 125.522 145.049 127.145 145.031 128.768C145.025 129.867 145.018 130.966 145.013 132.066C144.997 134.763 144.974 137.459 144.945 140.156C136.052 140.188 127.159 140.213 118.266 140.228C114.137 140.235 110.008 140.244 105.879 140.26C102.281 140.274 98.6832 140.283 95.0851 140.286C93.1792 140.288 91.2734 140.292 89.3676 140.302C87.5747 140.311 85.782 140.314 83.9891 140.312C83.3302 140.312 82.6713 140.315 82.0124 140.32C81.1145 140.327 80.2165 140.325 79.3186 140.322C78.8155 140.323 78.3125 140.324 77.7942 140.326C76.5567 140.156 76.5567 140.156 75.7064 139.529C74.9518 138.455 74.9874 137.767 75.1798 136.484C75.6674 135.681 75.6674 135.681 76.5567 135.107C77.6228 134.924 78.6944 134.768 79.7696 134.648C80.5267 133.891 80.3214 132.936 80.372 131.895C80.7514 127.517 82.5263 124.324 85.7364 121.338C87.6905 119.858 89.9225 119.111 92.2446 118.406C93.0788 118.194 93.0788 118.194 93.5391 117.666C93.7702 116.08 93.953 114.491 94.138 112.899C94.4619 111.215 94.9977 109.974 95.834 108.486Z" fill="#FEFEFE"/>
<path d="M123.832 143.828C130.799 143.828 137.767 143.828 144.945 143.828C144.517 145.968 144.175 146.755 142.994 148.475C136.438 158.538 134.597 171.176 136.741 182.928C138.205 188.901 140.519 195.486 144.352 200.362C144.945 201.201 144.945 201.201 144.945 202.578C142.219 202.73 139.492 202.881 136.683 203.037C136.532 203.794 136.38 204.552 136.224 205.332C137.328 206.435 139.264 206.078 140.814 206.25C139.451 212.914 138.088 219.579 136.683 226.445C132.562 224.797 128.863 222.083 125.518 219.174C124.328 218.154 124.328 218.154 122.982 217.466C120.843 216.082 119.518 214.834 118.962 212.335C118.545 208.627 118.646 204.897 118.73 201.172C118.762 199.525 118.765 197.878 118.771 196.231C118.786 193.118 118.828 190.005 118.878 186.893C118.935 183.346 118.963 179.8 118.988 176.253C119.041 168.963 119.129 161.674 119.242 154.385C119.674 154.182 120.107 153.979 120.553 153.77C122.379 152.806 123.373 151.632 124.291 149.795C124.335 149.041 124.35 148.284 124.348 147.529C124.349 147.127 124.351 146.725 124.352 146.311C124.336 145.139 124.336 145.139 123.832 143.828Z" fill="#34ACFE"/>
<path d="M253.725 119.502C254.728 120.236 255.612 121.017 256.505 121.881C257.394 122.713 258.309 123.357 259.318 124.035C261.356 125.528 262.304 127.349 263.363 129.6C263.638 130.139 263.912 130.679 264.195 131.235C264.465 131.789 264.465 131.789 264.74 132.354C266.008 132.114 267.185 131.845 268.412 131.436C272.678 130.908 275.88 131.775 279.428 134.19C282.124 136.556 283.883 139.099 284.129 142.709C284.247 147.292 284.247 147.292 283.521 149.406C283.059 150.839 283.14 151.583 283.559 153.008C284.04 153.025 284.521 153.042 285.016 153.06C285.649 153.09 286.282 153.121 286.915 153.151C287.232 153.162 287.549 153.172 287.875 153.183C290.218 153.307 290.218 153.307 291.342 154.103C292.037 155.179 292.008 155.886 291.82 157.139C291.073 158.14 290.67 158.479 289.424 158.681C289.027 158.678 288.631 158.675 288.223 158.672C287.772 158.672 287.322 158.672 286.858 158.672C286.374 158.665 285.889 158.658 285.389 158.65C284.892 158.648 284.395 158.646 283.882 158.644C282.292 158.637 280.702 158.619 279.112 158.602C278.035 158.595 276.958 158.589 275.88 158.583C273.238 158.568 270.596 158.545 267.953 158.516C268.408 158.213 268.862 157.91 269.33 157.598C272.066 155.502 272.066 155.502 273.156 152.38C273.197 149.747 273.008 148.159 271.166 146.123C269.173 144.569 267.884 144.057 265.362 144.05C264.765 144.044 264.168 144.038 263.552 144.032C262.906 144.035 262.26 144.039 261.613 144.043C260.945 144.042 260.276 144.04 259.607 144.038C258.209 144.035 256.811 144.039 255.413 144.048C253.626 144.058 251.839 144.052 250.052 144.041C248.672 144.035 247.292 144.037 245.913 144.042C245.254 144.043 244.595 144.041 243.936 144.037C243.014 144.032 242.091 144.041 241.169 144.05C240.645 144.051 240.121 144.053 239.582 144.054C237.25 144.426 235.831 145.608 234.275 147.328C233.264 149.429 233.163 151.174 233.529 153.467C234.62 155.732 236.004 156.759 238.119 158.057C238.119 158.208 238.119 158.36 238.119 158.516C235.09 158.516 232.061 158.516 228.939 158.516C228.229 156.84 228.229 156.84 227.505 155.131C225.472 150.441 222.997 146.416 219.76 142.451C220.991 139.771 223.077 138.568 225.727 137.402C226.304 137.242 226.881 137.081 227.476 136.915C227.959 136.773 228.442 136.631 228.939 136.484C229.553 135.258 229.602 134.116 229.771 132.755C230.484 128.088 232.349 125.016 235.824 121.797C241.104 117.976 247.627 116.521 253.725 119.502Z" fill="#FDFDFD"/>
<path d="M128.379 78.3494C132.206 81.3795 135.019 86.2159 135.766 91.045C136.187 97.6843 134.827 102.91 130.631 108.114C127.143 111.895 122.158 114.105 117.08 114.629C111.082 114.811 105.787 112.969 101.254 108.978C97.0499 104.622 95.2416 99.3963 95.2295 93.4679C95.2829 90.5439 95.9026 88.1659 97.2109 85.5372C97.4055 85.1414 97.6002 84.7456 97.8007 84.3378C100.721 78.9768 105.234 76.1247 110.954 74.2258C117.381 73.116 123.113 74.6479 128.379 78.3494Z" fill="#8CA0AB"/>
<path d="M93.5391 195.234C100.809 195.234 108.08 195.234 115.57 195.234C115.644 207.554 115.644 207.554 115.66 212.817C115.671 216.403 115.684 219.99 115.709 223.577C115.729 226.47 115.74 229.363 115.745 232.255C115.748 233.357 115.755 234.46 115.764 235.562C115.778 237.109 115.78 238.655 115.779 240.202C115.789 240.882 115.789 240.882 115.799 241.575C115.778 245.059 115.016 247.868 112.748 250.569C109.566 253.254 107.254 254.23 103.058 254.122C99.5046 253.732 97.5193 251.717 95.2209 249.126C93.3198 246.368 93.4117 243.58 93.4349 240.359C93.4348 239.87 93.4346 239.382 93.4345 238.879C93.4351 237.269 93.4423 235.66 93.4495 234.051C93.4512 232.933 93.4525 231.815 93.4534 230.698C93.4569 227.759 93.4659 224.821 93.4761 221.883C93.4871 218.356 93.4913 214.828 93.4967 211.301C93.5056 205.945 93.5232 200.59 93.5391 195.234Z" fill="#36C7E2"/>
<path d="M242.25 158.516C249.52 158.516 256.791 158.516 264.281 158.516C264.298 160.605 264.316 162.695 264.333 164.848C264.347 166.183 264.361 167.517 264.377 168.852C264.402 170.964 264.425 173.076 264.44 175.188C264.452 176.893 264.471 178.598 264.494 180.303C264.501 180.95 264.507 181.596 264.51 182.242C264.538 187.95 265.515 192.833 267.81 198.046C269.33 201.558 269.33 201.558 269.33 202.578C258.728 202.578 248.125 202.578 237.201 202.578C238.168 199.679 239.18 196.888 240.38 194.09C241.586 191.177 241.843 188.375 241.885 185.246C241.894 184.649 241.904 184.052 241.913 183.437C241.921 182.795 241.929 182.152 241.936 181.51C241.946 180.845 241.955 180.181 241.965 179.517C241.99 177.778 242.013 176.038 242.035 174.299C242.063 172.207 242.093 170.116 242.123 168.024C242.167 164.855 242.208 161.685 242.25 158.516Z" fill="#FDFDFE"/>
<path d="M93.5391 154.844C100.809 154.844 108.08 154.844 115.57 154.844C115.57 166.961 115.57 179.078 115.57 191.562C108.3 191.562 101.03 191.562 93.5391 191.562C93.5391 179.445 93.5391 167.328 93.5391 154.844Z" fill="#E8F1FE"/>
<path d="M222.514 206.25C222.922 208.02 223.322 209.791 223.716 211.564C223.916 212.461 224.123 213.356 224.329 214.251C224.455 214.82 224.581 215.39 224.71 215.977C224.887 216.759 224.887 216.759 225.067 217.557C225.509 220.954 224.371 223.874 223.174 226.99C223.031 227.398 222.889 227.806 222.743 228.227C221.978 230.21 221.379 231.59 219.444 232.595C218.791 232.856 218.131 233.101 217.465 233.33C217.131 233.462 216.796 233.593 216.451 233.728C211.666 235.567 206.764 236.875 201.745 237.891C201.27 237.988 200.795 238.085 200.306 238.185C197.562 238.71 195.014 238.934 192.221 238.838C192.073 238.394 192.073 238.394 191.922 237.941C190.6 234.081 188.217 230.703 185.336 227.822C185.27 226.638 185.25 225.505 185.279 224.323C185.283 223.998 185.287 223.674 185.291 223.34C185.302 222.539 185.319 221.738 185.336 220.938C186.186 220.836 186.186 220.836 187.054 220.733C198.303 219.289 207.478 215.489 216.088 208.086C216.356 207.733 216.624 207.381 216.9 207.017C218.581 205.757 220.485 206.111 222.514 206.25Z" fill="#34ACFE"/>
<path d="M148.617 206.25C149.677 207.159 150.738 208.068 151.83 209.004C160.702 216.146 170.341 219.916 181.664 220.938C182.156 226.936 182.156 226.936 181.046 228.936C180.498 229.517 179.93 230.08 179.346 230.625C177.117 232.791 175.565 235.851 174.779 238.838C171.481 238.951 168.484 238.55 165.255 237.891C164.759 237.791 164.263 237.692 163.752 237.589C158.681 236.519 153.28 235.203 148.617 232.871C148.617 224.086 148.617 215.301 148.617 206.25Z" fill="#34ACFE"/>
<path d="M185.336 96.0938C188.365 96.0938 191.395 96.0938 194.516 96.0938C194.743 112.906 194.743 112.906 194.975 130.059C196.338 130.664 197.701 131.27 199.105 131.895C206.763 135.532 213.617 139.679 218.842 146.582C218.842 146.885 218.842 147.188 218.842 147.5C216.997 147.607 215.153 147.672 213.305 147.729C212.785 147.76 212.265 147.791 211.728 147.823C207.913 147.912 207.913 147.912 206.369 146.747C205.564 145.81 204.861 144.841 204.154 143.828C199.144 139.047 193.579 135.837 187.02 133.689C185.795 133.271 185.795 133.271 185.336 132.812C185.292 131.667 185.278 130.535 185.284 129.39C185.284 129.032 185.284 128.673 185.284 128.304C185.284 127.115 185.288 125.925 185.291 124.735C185.292 123.913 185.293 123.09 185.293 122.268C185.295 120.098 185.299 117.929 185.304 115.76C185.309 113.548 185.311 111.336 185.314 109.124C185.318 104.78 185.327 100.437 185.336 96.0938Z" fill="#B8D6FE"/>
<path d="M99.0469 195.234C102.076 195.234 105.105 195.234 108.227 195.234C108.268 201.746 108.302 208.257 108.322 214.769C108.331 217.793 108.344 220.816 108.365 223.84C108.385 226.76 108.396 229.679 108.401 232.598C108.404 233.711 108.411 234.823 108.421 235.936C108.434 237.497 108.436 239.058 108.435 240.619C108.442 241.076 108.448 241.534 108.455 242.005C108.429 246.361 107.027 249.432 104.096 252.607C102.57 251.974 101.894 251.355 101.055 249.94C100.869 249.634 100.683 249.328 100.492 249.013C99.2966 246.756 98.9353 245.06 98.9572 242.486C98.9585 242.184 98.9598 241.882 98.9612 241.57C98.9663 240.611 98.9778 239.653 98.9895 238.694C98.9941 238.042 98.9983 237.389 99.0021 236.736C99.0121 235.141 99.028 233.547 99.0469 231.953C98.441 231.65 97.8352 231.347 97.2109 231.035C97.3624 230.278 97.5139 229.521 97.6699 228.74C98.3515 228.513 98.3515 228.513 99.0469 228.281C99.0469 227.07 99.0469 225.858 99.0469 224.609C98.441 224.306 97.8352 224.004 97.2109 223.691C97.3624 222.934 97.5139 222.177 97.6699 221.396C98.3515 221.169 98.3515 221.169 99.0469 220.938C99.0469 219.726 99.0469 218.514 99.0469 217.266C98.441 216.963 97.8352 216.66 97.2109 216.348C97.3624 215.59 97.5139 214.833 97.6699 214.053C98.3515 213.826 98.3515 213.826 99.0469 213.594C99.0469 212.382 99.0469 211.17 99.0469 209.922C98.441 209.619 97.8352 209.316 97.2109 209.004C97.3624 208.247 97.5139 207.489 97.6699 206.709C98.1243 206.558 98.5787 206.406 99.0469 206.25C99.0469 205.038 99.0469 203.827 99.0469 202.578C98.441 202.275 97.8352 201.972 97.2109 201.66C97.3624 200.903 97.5139 200.146 97.6699 199.365C98.1243 199.214 98.5787 199.062 99.0469 198.906C99.0469 197.695 99.0469 196.483 99.0469 195.234Z" fill="#31DCF3"/>
<path d="M122.455 83.2422C125.62 85.4671 127.212 87.8761 128.422 91.5039C128.875 95.9661 127.945 99.5721 125.18 103.122C122.536 105.896 119.321 107.217 115.513 107.368C111.633 107.177 108.656 105.67 105.838 103.027C103.387 100.155 102.348 96.915 102.561 93.1678C103.091 89.1161 104.699 86.4308 107.767 83.7012C112.292 80.7309 117.797 80.3505 122.455 83.2422Z" fill="#FFF8E4"/>
<path d="M220.219 46.0645C223.074 48.5932 224.534 51.8537 226.186 55.2441C227.454 55.0042 228.63 54.7353 229.857 54.3262C234.124 53.7987 237.325 54.6654 240.873 57.0801C243.569 59.4463 245.329 61.9891 245.574 65.6C245.692 70.1824 245.692 70.1824 244.966 72.2965C244.504 73.7294 244.585 74.4738 245.004 75.8984C245.485 75.9156 245.966 75.9328 246.462 75.9504C247.094 75.9806 247.727 76.0111 248.36 76.0419C248.677 76.0522 248.994 76.0626 249.32 76.0732C251.663 76.1978 251.663 76.1978 252.787 76.9939C253.482 78.0696 253.454 78.7764 253.266 80.0293C252.79 80.7771 252.79 80.7771 251.889 81.4062C250.658 81.5487 249.536 81.6102 248.305 81.6053C247.954 81.6077 247.604 81.6101 247.243 81.6126C246.503 81.6155 245.763 81.6149 245.022 81.611C243.891 81.6071 242.76 81.6203 241.629 81.6348C240.909 81.6356 240.189 81.6353 239.469 81.6339C239.132 81.6391 238.794 81.6443 238.446 81.6496C236.841 81.6278 235.978 81.524 234.687 80.5357C233.864 79.3986 233.822 78.9373 233.96 77.5623C234.048 75.58 233.758 74.364 232.611 72.6855C231.27 71.8413 230.254 71.6523 228.681 71.6815C228.33 71.6845 227.98 71.6874 227.618 71.6905C226.558 71.7352 226.558 71.7352 225.268 72.2266C225.088 71.6586 224.908 71.0906 224.723 70.5054C224.042 68.6524 223.166 67.917 221.596 66.7188C220.869 65.0839 221.136 64.4263 221.768 62.7313C221.896 62.4142 222.023 62.0971 222.155 61.7703C223.715 57.3394 222.762 52.6999 220.821 48.5315C220.622 48.1718 220.424 47.812 220.219 47.4414C220.219 46.987 220.219 46.5326 220.219 46.0645Z" fill="#E7EFFD"/>
<path d="M255.102 158.516C258.131 158.516 261.16 158.516 264.281 158.516C264.288 159.391 264.295 160.265 264.302 161.167C264.325 164.078 264.355 166.989 264.389 169.9C264.41 171.662 264.428 173.425 264.44 175.188C264.452 176.893 264.471 178.598 264.494 180.303C264.501 180.95 264.507 181.596 264.51 182.242C264.538 187.95 265.515 192.833 267.81 198.046C269.33 201.558 269.33 201.558 269.33 202.578C266.301 202.578 263.271 202.578 260.15 202.578C259.468 200.877 258.79 199.175 258.114 197.472C257.92 196.991 257.727 196.511 257.528 196.016C257.251 195.315 257.251 195.315 256.968 194.6C256.797 194.172 256.627 193.744 256.451 193.303C255.999 191.961 255.757 190.668 255.561 189.268C254.879 189.495 254.879 189.495 254.184 189.727C253.257 189.781 252.329 189.807 251.401 189.813C250.913 189.819 250.425 189.826 249.922 189.832C248.676 189.727 248.676 189.727 247.758 188.809C248.013 186.718 248.013 186.718 248.676 186.055C249.583 186.009 250.492 185.995 251.401 185.997C252.146 185.996 252.146 185.996 252.905 185.994C254.184 186.055 254.184 186.055 255.102 186.514C255.102 184.999 255.102 183.484 255.102 181.924C254.647 182.151 254.647 182.151 254.184 182.383C253.267 182.439 252.348 182.463 251.43 182.469C250.937 182.475 250.445 182.482 249.938 182.489C248.676 182.383 248.676 182.383 247.758 181.465C248.013 179.374 248.013 179.374 248.676 178.711C249.583 178.665 250.492 178.651 251.401 178.654C252.146 178.652 252.146 178.652 252.905 178.65C254.184 178.711 254.184 178.711 255.102 179.17C255.102 177.655 255.102 176.141 255.102 174.58C254.647 174.807 254.647 174.807 254.184 175.039C253.267 175.095 252.348 175.12 251.43 175.125C250.937 175.132 250.445 175.138 249.938 175.145C248.676 175.039 248.676 175.039 247.758 174.121C248.013 172.03 248.013 172.03 248.676 171.367C249.583 171.322 250.492 171.308 251.401 171.31C252.146 171.308 252.146 171.308 252.905 171.306C254.184 171.367 254.184 171.367 255.102 171.826C255.102 170.312 255.102 168.797 255.102 167.236C254.799 167.388 254.496 167.539 254.184 167.695C253.267 167.751 252.348 167.776 251.43 167.781C250.937 167.788 250.445 167.794 249.938 167.801C248.676 167.695 248.676 167.695 247.758 166.777C248.013 164.686 248.013 164.686 248.676 164.023C249.583 163.978 250.492 163.964 251.401 163.966C252.146 163.964 252.146 163.964 252.905 163.962C254.184 164.023 254.184 164.023 255.102 164.482C255.102 162.513 255.102 160.544 255.102 158.516Z" fill="#B8D6FE"/>
<path d="M143.568 115.83C144.559 116.613 144.909 116.98 145.111 118.244C145.108 118.649 145.105 119.053 145.102 119.47C145.101 120.159 145.101 120.159 145.101 120.862C145.094 121.357 145.087 121.852 145.08 122.362C145.078 122.869 145.076 123.377 145.074 123.899C145.066 125.522 145.049 127.145 145.031 128.768C145.024 129.867 145.018 130.966 145.013 132.066C144.999 134.763 144.972 137.459 144.945 140.156C137.826 140.156 130.708 140.156 123.373 140.156C124.509 139.02 124.509 139.02 125.668 137.861C127.75 135.105 127.978 132.549 127.504 129.141C126.698 127.53 125.939 126.628 124.607 125.44C123.832 124.551 123.832 124.551 123.889 123.432C124.291 122.256 124.291 122.256 124.779 121.223C125.392 119.425 125.283 117.712 125.209 115.83C131.503 112.352 137.393 111.858 143.568 115.83Z" fill="#E8F0FE"/>
<path d="M259.232 124.092C261.478 125.589 262.297 127.22 263.363 129.6C263.628 130.13 263.893 130.66 264.167 131.206C264.356 131.585 264.545 131.963 264.74 132.354C266.008 132.114 267.185 131.845 268.412 131.436C272.678 130.908 275.88 131.775 279.428 134.189C282.124 136.556 283.883 139.099 284.129 142.709C284.247 147.292 284.247 147.292 283.521 149.406C283.059 150.839 283.14 151.583 283.559 153.008C284.04 153.025 284.521 153.042 285.016 153.06C285.649 153.09 286.282 153.12 286.915 153.151C287.232 153.162 287.549 153.172 287.875 153.183C290.218 153.307 290.218 153.307 291.342 154.103C292.037 155.179 292.008 155.886 291.82 157.139C291.073 158.14 290.67 158.479 289.424 158.681C289.027 158.678 288.631 158.675 288.223 158.672C287.772 158.672 287.322 158.672 286.858 158.672C286.374 158.665 285.889 158.657 285.389 158.65C284.892 158.648 284.395 158.646 283.882 158.644C282.292 158.636 280.702 158.619 279.112 158.602C278.035 158.595 276.958 158.588 275.88 158.583C273.238 158.568 270.596 158.545 267.953 158.516C268.635 158.061 268.635 158.061 269.33 157.598C272.066 155.502 272.066 155.502 273.156 152.38C273.197 149.747 273.008 148.159 271.166 146.123C268.835 144.197 267.011 143.994 264.109 143.943C263.728 143.929 263.346 143.916 262.953 143.902C262.019 143.869 261.085 143.848 260.15 143.828C259.657 141.886 259.864 141.108 260.71 139.299C262.173 135.306 261.49 131.223 260.15 127.305C259.899 126.815 259.899 126.815 259.643 126.315C259.232 125.469 259.232 125.469 259.232 124.092Z" fill="#E7EFFD"/>
<path d="M210.58 151.172C214.215 151.172 217.85 151.172 221.596 151.172C223.738 155.25 225.508 159.077 226.645 163.564C226.748 163.973 226.852 164.381 226.958 164.802C229.509 176.586 226.027 188.492 219.76 198.447C219.394 199.1 219.394 199.1 219.021 199.765C218.267 200.962 217.704 201.761 216.547 202.578C214.511 202.91 212.622 202.827 210.58 202.578C210.946 201.863 210.946 201.863 211.319 201.133C217.778 188.419 220.105 175.813 215.628 161.967C214.487 158.599 213.08 155.623 211.186 152.606C210.58 151.631 210.58 151.631 210.58 151.172Z" fill="#E74A3A"/>
<path d="M154.584 206.25C173.669 206.25 192.753 206.25 212.416 206.25C206.383 212.283 198.596 215.139 190.385 216.807C190.019 216.896 189.653 216.985 189.277 217.077C178.146 218.843 166.513 215.31 157.363 208.988C156.404 208.256 155.465 207.533 154.584 206.709C154.584 206.558 154.584 206.406 154.584 206.25Z" fill="#FD5948"/>
<path d="M261.986 206.25C265.016 206.25 268.045 206.25 271.166 206.25C271.738 207.622 272.31 208.994 272.9 210.408C273.097 210.882 273.295 211.356 273.499 211.844C274.505 214.258 275.51 216.672 276.513 219.087C278.368 223.555 280.225 228.02 282.138 232.463C282.874 234.173 283.603 235.885 284.331 237.598C284.675 238.4 285.021 239.202 285.372 240.001C285.859 241.116 286.335 242.234 286.809 243.354C286.953 243.675 287.097 243.995 287.245 244.325C288.209 246.65 288.434 248.788 287.689 251.23C286.565 252.65 285.278 253.411 283.559 253.984C282.378 254.017 281.21 254.027 280.03 254.013C279.708 254.011 279.386 254.009 279.054 254.007C278.261 254.001 277.467 253.993 276.674 253.984C276.873 253.643 276.873 253.643 277.075 253.294C277.246 252.982 277.416 252.67 277.592 252.349C277.762 252.046 277.933 251.742 278.108 251.429C279.065 248.768 278.413 246.442 277.413 243.899C277.291 243.588 277.17 243.278 277.045 242.957C275.391 238.758 273.634 234.599 271.886 230.439C270.863 228.005 269.845 225.57 268.828 223.134C268.631 222.661 268.433 222.189 268.23 221.702C266.091 216.574 264.017 211.422 261.986 206.25Z" fill="#FEB160"/>
<path d="M231.234 81.8652C233.354 83.6399 235.375 85.4768 237.331 87.4291C237.6 87.6952 237.868 87.9613 238.144 88.2355C239.022 89.1062 239.897 89.9786 240.773 90.8513C241.075 91.1519 241.377 91.4526 241.688 91.7623C243.285 93.3526 244.881 94.9441 246.475 96.5368C248.112 98.1716 249.754 99.802 251.396 101.431C252.668 102.695 253.937 103.961 255.205 105.228C255.808 105.83 256.413 106.431 257.019 107.031C260.25 110.232 263.211 113.344 265.658 117.207C266.011 117.711 266.366 118.213 266.727 118.711C267.32 119.533 267.913 120.355 268.505 121.178C269.277 122.247 269.277 122.247 270.135 123.012C270.324 123.217 270.513 123.422 270.707 123.633C270.564 124.866 270.564 124.866 270.248 125.928C269.244 126.268 269.244 126.268 267.953 126.387C266.834 125.673 266.834 125.673 265.658 124.608C263.909 123.063 262.176 121.75 260.206 120.489C256.224 117.817 252.979 114.397 249.628 110.995C248.947 110.311 248.266 109.627 247.585 108.944C245.81 107.162 244.041 105.375 242.272 103.586C240.46 101.755 238.643 99.929 236.826 98.1027C233.274 94.5313 229.728 90.9541 226.186 87.373C226.616 86.8651 227.048 86.3579 227.48 85.8509C227.84 85.427 227.84 85.427 228.208 84.9946C229.17 83.8974 230.188 82.8811 231.234 81.8652Z" fill="#F9FAFB"/>
<path d="M230.316 162.188C233.043 162.188 235.769 162.188 238.578 162.188C238.624 165.739 238.657 169.29 238.679 172.841C238.688 174.047 238.701 175.253 238.717 176.459C238.739 178.201 238.749 179.943 238.757 181.685C238.767 182.217 238.776 182.748 238.786 183.296C238.788 189.045 236.799 193.975 234.562 199.193C234.364 199.661 234.166 200.129 233.963 200.611C233.559 201.566 233.153 202.521 232.747 203.475C231.999 205.232 231.26 206.993 230.52 208.754C229.842 210.368 229.161 211.981 228.48 213.594C228.178 213.442 227.875 213.291 227.563 213.135C227.27 211.973 227.027 210.841 226.817 209.664C226.755 209.337 226.694 209.011 226.63 208.675C226.478 207.867 226.332 207.059 226.186 206.25C228.23 206.023 228.23 206.023 230.316 205.791C230.492 205.031 230.644 204.265 230.775 203.496C230.064 202.785 229.353 202.938 228.364 202.892C227.972 202.873 227.58 202.853 227.176 202.834C226.764 202.816 226.352 202.798 225.927 202.779C225.514 202.759 225.1 202.739 224.673 202.719C223.647 202.67 222.622 202.623 221.596 202.578C222.269 201.207 223.006 199.892 223.783 198.576C228.526 190.499 230.863 182.433 230.833 173.06C230.835 172.522 230.836 171.983 230.838 171.429C230.835 168.314 230.684 165.281 230.316 162.188Z" fill="#34ACFE"/>
<path d="M172.484 96.0938C174.302 96.0938 176.12 96.0938 177.992 96.0938C177.992 108.211 177.992 120.328 177.992 132.812C176.175 133.57 174.357 134.327 172.484 135.107C171.289 135.683 170.121 136.258 168.956 136.886C168.665 137.043 168.374 137.2 168.073 137.361C165.673 138.684 163.535 140.187 161.469 141.992C161.061 142.345 160.652 142.699 160.232 143.063C157.89 145.096 157.89 145.096 155.961 147.5C155.098 147.656 155.098 147.656 154.064 147.634C153.694 147.63 153.324 147.626 152.943 147.621C152.557 147.609 152.171 147.598 151.773 147.586C151.188 147.577 151.188 147.577 150.591 147.567C149.627 147.551 148.663 147.526 147.699 147.5C153.947 138.562 162.302 134.226 172.025 130.059C172.177 118.85 172.328 107.642 172.484 96.0938Z" fill="#FDFDFE"/>
<path d="M124.658 80.2428C128.382 82.8422 131.251 86.493 132.094 91.0451C132.498 96.8487 131.394 101.158 127.721 105.677C124.827 108.829 121.204 110.551 116.956 110.891C111.459 111.018 107.47 109.392 103.378 105.704C100.932 103.187 99.2665 99.6087 99.0468 96.0939C99.0184 95.7223 98.99 95.3508 98.9607 94.9679C98.7497 90.2453 100.369 86.5108 103.387 82.9017C108.96 76.8205 117.696 76.0748 124.658 80.2428ZM105.387 86.0823C103.117 88.8874 102.387 92.1084 102.502 95.6797C103.121 99.485 105.169 102.773 108.201 105.119C111.356 107.171 114.592 107.672 118.324 107.11C122.319 105.745 125.142 103.795 127.156 100.096C128.61 96.9276 129.047 93.7896 128.119 90.396C126.642 86.6749 124.192 83.818 120.526 82.1827C114.958 80.0404 109.388 81.8251 105.387 86.0823Z" fill="#383467"/>
<path d="M93.5391 195.234C95.3567 195.234 97.1743 195.234 99.0469 195.234C99.1814 198.013 99.1814 198.013 99.0469 198.906C98.5926 199.209 98.1382 199.512 97.67 199.824C97.8281 200.959 97.8281 200.959 98.129 202.119C98.4319 202.271 98.7348 202.422 99.0469 202.578C99.1814 205.357 99.1814 205.357 99.0469 206.25C98.5926 206.553 98.1382 206.856 97.67 207.168C97.8281 208.303 97.8281 208.303 98.129 209.463C98.4319 209.614 98.7348 209.766 99.0469 209.922C99.1814 212.701 99.1814 212.701 99.0469 213.594C98.5926 213.897 98.1382 214.2 97.67 214.512C97.8281 215.647 97.8281 215.647 98.129 216.807C98.4319 216.958 98.7348 217.11 99.0469 217.266C99.1814 220.045 99.1814 220.045 99.0469 220.938C98.5926 221.24 98.1382 221.543 97.67 221.855C97.8281 222.99 97.8281 222.99 98.129 224.15C98.4319 224.302 98.7348 224.453 99.0469 224.609C99.1814 227.388 99.1814 227.388 99.0469 228.281C98.3654 228.736 98.3654 228.736 97.67 229.199C97.8281 230.334 97.8281 230.334 98.129 231.494C98.4319 231.646 98.7348 231.797 99.0469 231.953C99.0464 232.341 99.0459 232.73 99.0454 233.13C99.05 234.598 99.067 236.065 99.0918 237.534C99.1 238.164 99.1036 238.794 99.1021 239.424C99.0952 244.131 99.6658 248.507 103.05 252.06C103.861 252.756 103.861 252.756 105.014 253.525C105.014 253.677 105.014 253.828 105.014 253.984C102.274 254.213 100.386 253.755 98.129 252.148C95.6613 249.855 93.7294 247.706 93.4574 244.215C93.4262 242.928 93.4256 241.645 93.4349 240.359C93.4348 239.87 93.4347 239.382 93.4345 238.879C93.4352 237.269 93.4423 235.66 93.4495 234.051C93.4512 232.933 93.4525 231.815 93.4534 230.698C93.4569 227.759 93.4659 224.821 93.4761 221.883C93.4855 218.883 93.4897 215.883 93.4943 212.884C93.5041 207.001 93.5198 201.117 93.5391 195.234Z" fill="#ABF2FD"/>
<path d="M108.227 154.844C110.65 154.844 113.073 154.844 115.57 154.844C115.57 166.961 115.57 179.078 115.57 191.562C113.147 191.562 110.723 191.562 108.227 191.562C108.227 179.445 108.227 167.328 108.227 154.844Z" fill="#B9D7FF"/>
<path d="M145.405 151.172C147.828 151.172 150.251 151.172 152.748 151.172C152.152 152.208 152.152 152.208 151.543 153.266C145.527 164.376 143.278 176.925 146.781 189.268C148.292 193.907 150.5 198.261 152.748 202.578C151.725 202.723 151.725 202.723 150.453 202.578C142.603 195.01 139.586 182.878 139.266 172.4C139.273 165.085 141.524 157.351 145.405 151.172Z" fill="#FDC5BF"/>
<path d="M122.455 83.2422C125.62 85.4671 127.212 87.8761 128.422 91.5039C128.875 95.9661 127.945 99.5721 125.18 103.122C122.536 105.896 119.321 107.217 115.513 107.368C111.633 107.177 108.656 105.67 105.838 103.027C103.387 100.155 102.348 96.915 102.561 93.1678C103.091 89.1161 104.699 86.4308 107.767 83.7012C112.292 80.7309 117.797 80.3505 122.455 83.2422ZM108.026 88.7787C106.356 91.1492 106.081 93.2542 106.39 96.0938C107.155 99.0602 108.528 100.751 111.025 102.477C113.085 103.661 115.098 103.696 117.406 103.438C120.321 102.612 122.169 101.368 123.832 98.8477C124.996 96.3529 125.267 93.6039 124.434 90.9625C123.212 88.264 121.577 86.6574 118.869 85.3937C114.429 84.436 110.896 85.0672 108.026 88.7787Z" fill="#FAD87B"/>
<path d="M245.305 147.227C245.924 147.228 246.543 147.228 247.162 147.227C248.457 147.228 249.752 147.237 251.046 147.251C252.703 147.269 254.358 147.271 256.014 147.268C257.292 147.267 258.569 147.272 259.846 147.28C260.753 147.285 261.659 147.285 262.565 147.285C263.118 147.292 263.671 147.3 264.241 147.307C264.969 147.313 264.969 147.313 265.712 147.319C267.229 147.526 268.102 147.977 269.33 148.877C269.975 150.166 269.904 151.121 269.789 152.549C268.972 153.988 268.631 154.312 267.035 154.844C266.14 154.896 265.242 154.921 264.345 154.932C263.516 154.943 263.516 154.943 262.669 154.955C260.145 154.975 257.62 154.994 255.095 155.004C253.762 155.011 252.43 155.023 251.097 155.042C249.485 155.065 247.874 155.076 246.262 155.079C245.352 155.084 244.441 155.1 243.531 155.116C238.934 155.105 238.934 155.105 237.514 153.767C236.555 152.253 236.376 151.553 236.742 149.795C238.768 146.61 241.846 147.184 245.305 147.227Z" fill="#E9F2FF"/>
<path d="M96.5944 143.556C97.2133 143.556 97.8323 143.556 98.4512 143.556C99.7461 143.556 101.041 143.565 102.335 143.579C103.992 143.598 105.647 143.6 107.303 143.596C108.581 143.595 109.858 143.6 111.135 143.608C112.042 143.613 112.948 143.613 113.855 143.613C114.407 143.621 114.96 143.628 115.53 143.635C116.258 143.641 116.258 143.641 117.001 143.647C118.518 143.855 119.391 144.305 120.619 145.205C121.264 146.494 121.193 147.449 121.078 148.877C120.261 150.316 119.92 150.64 118.324 151.172C117.429 151.224 116.531 151.25 115.634 151.26C114.805 151.271 114.805 151.271 113.959 151.283C111.434 151.303 108.909 151.322 106.385 151.333C105.052 151.339 103.719 151.351 102.386 151.37C100.774 151.393 99.1629 151.404 97.5511 151.407C96.6406 151.412 95.7302 151.428 94.8198 151.444C90.2226 151.433 90.2226 151.433 88.8031 150.095C87.8443 148.581 87.6652 147.881 88.0314 146.123C90.0569 142.938 93.1355 143.512 96.5944 143.556Z" fill="#E9F2FF"/>
<path d="M175.54 84.8056C176.159 84.8064 176.778 84.8064 177.397 84.8056C178.691 84.8063 179.986 84.8149 181.281 84.8294C182.937 84.8476 184.592 84.8496 186.249 84.8461C187.526 84.8447 188.803 84.8503 190.081 84.8581C190.987 84.8629 191.893 84.8631 192.8 84.8633C193.353 84.8706 193.906 84.8779 194.475 84.8854C195.204 84.8912 195.204 84.8912 195.946 84.8971C197.463 85.1046 198.336 85.555 199.565 86.4551C200.209 87.7444 200.138 88.6986 200.024 90.127C199.207 91.5663 198.866 91.8899 197.27 92.4219C196.374 92.474 195.477 92.4995 194.58 92.5104C193.75 92.5215 193.75 92.5215 192.904 92.5327C190.379 92.5531 187.855 92.5722 185.33 92.5826C183.997 92.5887 182.664 92.6015 181.331 92.6202C179.72 92.6429 178.108 92.6542 176.496 92.6575C175.586 92.6621 174.675 92.6778 173.765 92.6937C169.168 92.6828 169.168 92.6828 167.748 91.3455C166.79 89.8314 166.61 89.1312 166.977 87.373C169.002 84.1881 172.081 84.7617 175.54 84.8056Z" fill="#E9F2FF"/>
<path d="M239.955 85.0782C249.961 84.3404 249.961 84.3404 252.918 85.8258C254.001 87.0334 254.754 88.2601 255.561 89.668C255.974 90.2412 256.395 90.8086 256.823 91.3713C261.616 97.731 265.654 104.665 268.785 111.986C268.943 112.353 269.101 112.72 269.263 113.098C270.307 115.654 270.307 115.654 269.789 117.207C269.561 116.848 269.332 116.489 269.097 116.119C266.346 111.956 263.188 108.535 259.632 105.051C259.061 104.485 258.491 103.918 257.921 103.351C256.438 101.878 254.949 100.409 253.46 98.9423C251.06 96.5772 248.668 94.2031 246.276 91.8302C245.441 91.0037 244.605 90.1792 243.768 89.355C243.262 88.8547 242.755 88.3544 242.249 87.8541C242.015 87.6247 241.781 87.3954 241.54 87.1591C241.003 86.6272 240.478 86.0834 239.955 85.5372C239.955 85.3857 239.955 85.2342 239.955 85.0782Z" fill="#34AAFB"/>
<path d="M226.644 227.363C226.796 227.363 226.947 227.363 227.103 227.363C228.559 233.861 229.999 240.362 231.406 246.87C231.527 247.423 231.647 247.975 231.771 248.544C231.882 249.057 231.992 249.569 232.106 250.097C232.203 250.55 232.301 251.002 232.402 251.468C232.611 252.607 232.611 252.607 232.611 253.984C230.986 254.038 229.361 254.07 227.735 254.099C227.276 254.115 226.817 254.13 226.345 254.146C223.53 254.183 221.887 254.055 219.76 252.148C218.721 250.64 218.357 249.808 218.472 247.974C218.928 245.764 219.711 243.821 220.593 241.751C220.766 241.338 220.938 240.925 221.116 240.499C221.665 239.189 222.218 237.88 222.772 236.572C223.146 235.68 223.52 234.788 223.893 233.896C224.806 231.717 225.724 229.539 226.644 227.363Z" fill="#FBF5E3"/>
<path d="M231.234 81.8652C233.354 83.6399 235.375 85.4768 237.331 87.4291C237.6 87.6952 237.868 87.9613 238.144 88.2355C239.022 89.1062 239.897 89.9786 240.773 90.8513C241.075 91.1519 241.377 91.4526 241.688 91.7623C243.285 93.3526 244.881 94.9441 246.475 96.5368C248.112 98.1716 249.754 99.802 251.396 101.431C252.668 102.695 253.937 103.961 255.205 105.228C255.808 105.83 256.413 106.431 257.019 107.031C260.25 110.232 263.211 113.344 265.658 117.207C266.011 117.711 266.366 118.213 266.727 118.711C267.32 119.533 267.913 120.355 268.505 121.178C269.271 122.246 269.271 122.246 270.126 122.975C270.707 123.633 270.707 123.633 270.707 125.469C269.243 124.822 268.262 124.055 267.134 122.924C266.796 122.587 266.457 122.25 266.109 121.902C265.742 121.532 265.375 121.162 264.997 120.781C264.412 120.197 264.412 120.197 263.816 119.6C262.75 118.533 261.685 117.464 260.622 116.394C259.509 115.276 258.394 114.16 257.279 113.044C255.169 110.931 253.061 108.816 250.954 106.7C248.555 104.29 246.153 101.884 243.751 99.4771C238.811 94.5274 233.874 89.5743 228.939 84.6191C229.697 83.7104 230.454 82.8016 231.234 81.8652Z" fill="#E4EDFB"/>
<path d="M93.5391 154.844C95.3566 154.844 97.1742 154.844 99.0469 154.844C99.0839 156.049 99.1113 157.253 99.1329 158.458C99.1502 158.972 99.1502 158.972 99.1679 159.496C99.1813 160.491 99.1813 160.491 99.0469 162.188C98.5925 162.49 98.1381 162.793 97.6699 163.105C97.828 164.24 97.828 164.24 98.1289 165.4C98.4318 165.552 98.7348 165.703 99.0469 165.859C99.1813 168.638 99.1813 168.638 99.0469 169.531C98.5925 169.834 98.1381 170.137 97.6699 170.449C97.828 171.584 97.828 171.584 98.1289 172.744C98.4318 172.896 98.7348 173.047 99.0469 173.203C99.1813 175.982 99.1813 175.982 99.0469 176.875C98.5925 177.178 98.1381 177.481 97.6699 177.793C97.828 178.928 97.828 178.928 98.1289 180.088C98.4318 180.239 98.7348 180.391 99.0469 180.547C99.1813 183.326 99.1813 183.326 99.0469 184.219C98.3653 184.673 98.3653 184.673 97.6699 185.137C97.828 186.272 97.828 186.272 98.1289 187.432C98.4318 187.583 98.7348 187.735 99.0469 187.891C99.0469 189.102 99.0469 190.314 99.0469 191.562C97.2293 191.562 95.4117 191.562 93.5391 191.562C93.5391 179.445 93.5391 167.328 93.5391 154.844Z" fill="#FEFEFE"/>
<path d="M183.5 178.711C186.105 179.613 187.775 181.294 189.008 183.76C189.257 186.034 189.267 187.832 188.233 189.899C186.585 191.77 185.12 193.21 182.559 193.508C180.017 193.591 178.613 193.282 176.615 191.563C174.596 189.271 174.157 187.932 174.191 184.925C174.444 182.642 175.701 181.407 177.361 179.945C179.404 178.493 181.043 178.487 183.5 178.711Z" fill="#3C3265"/>
<path d="M166.977 160.352C169.581 161.253 171.252 162.935 172.484 165.4C172.734 167.675 172.743 169.472 171.71 171.539C170.061 173.411 168.596 174.851 166.035 175.149C163.493 175.232 162.09 174.922 160.092 173.203C158.073 170.911 157.633 169.573 157.668 166.566C157.921 164.282 159.177 163.048 160.838 161.585C162.881 160.133 164.519 160.127 166.977 160.352Z" fill="#3C3265"/>
<path d="M247.299 188.35C247.753 188.653 248.208 188.955 248.676 189.268C249.87 189.333 251.013 189.354 252.204 189.325C252.526 189.321 252.849 189.317 253.18 189.312C253.974 189.302 254.767 189.285 255.561 189.268C255.651 189.515 255.741 189.762 255.834 190.017C256.248 191.154 256.665 192.291 257.081 193.427C257.293 194.011 257.293 194.011 257.51 194.606C258.153 196.358 258.805 198.09 259.568 199.794C260.15 201.201 260.15 201.201 260.15 202.578C254.395 202.578 248.639 202.578 242.709 202.578C243.045 200.9 243.358 199.682 244 198.148C244.162 197.754 244.324 197.359 244.491 196.953C244.832 196.134 245.174 195.315 245.517 194.497C246.358 192.446 247.064 190.575 247.299 188.35Z" fill="#E8F1FE"/>
<path d="M283.1 139.697C284.248 141.419 284.14 142.377 284.132 144.431C284.135 145.025 284.137 145.62 284.139 146.232C284.018 147.959 284.018 147.959 283.523 149.413C283.057 150.843 283.14 151.585 283.559 153.008C284.04 153.025 284.521 153.042 285.016 153.06C285.649 153.09 286.282 153.12 286.915 153.151C287.232 153.162 287.549 153.172 287.875 153.183C290.218 153.307 290.218 153.307 291.342 154.103C292.037 155.179 292.008 155.886 291.82 157.139C291.109 158.061 290.704 158.467 289.546 158.681C289.207 158.678 288.867 158.675 288.517 158.672C288.132 158.672 287.746 158.672 287.348 158.672C286.934 158.665 286.519 158.657 286.092 158.65C285.666 158.648 285.24 158.646 284.801 158.644C283.44 158.636 282.08 158.619 280.719 158.602C279.796 158.595 278.874 158.588 277.951 158.583C275.689 158.568 273.428 158.544 271.166 158.516C271.327 158.265 271.488 158.014 271.654 157.756C271.864 157.426 272.073 157.096 272.289 156.757C272.497 156.43 272.706 156.104 272.921 155.767C273.533 154.72 273.825 153.804 274.006 152.606C274.292 150.799 274.292 150.799 275.297 149.795C275.865 149.672 276.433 149.549 277.018 149.422C279.065 148.935 280.265 148.141 281.723 146.582C282.983 144.318 283.259 142.252 283.1 139.697Z" fill="#B8D6FE"/>
<path d="M244.545 62.5879C245.693 64.3097 245.586 65.268 245.578 67.3212C245.58 67.9158 245.582 68.5104 245.585 69.123C245.463 70.8496 245.463 70.8496 244.968 72.3037C244.503 73.7332 244.585 74.4758 245.004 75.8984C245.485 75.9156 245.966 75.9328 246.462 75.9504C247.094 75.9806 247.727 76.0111 248.36 76.0419C248.677 76.0522 248.994 76.0626 249.32 76.0732C251.663 76.1978 251.663 76.1978 252.787 76.9939C253.482 78.0696 253.454 78.7764 253.266 80.0293C252.79 80.776 252.79 80.776 251.889 81.4063C250.658 81.5543 249.536 81.6211 248.305 81.6214C247.954 81.6249 247.604 81.6284 247.243 81.632C246.503 81.6369 245.763 81.6383 245.022 81.6362C243.89 81.6357 242.76 81.6548 241.629 81.6752C240.909 81.6776 240.189 81.6788 239.469 81.6788C239.132 81.6863 238.794 81.6938 238.446 81.7016C236.638 81.6772 235.97 81.5545 234.678 80.2418C234.451 79.8687 234.223 79.4957 233.988 79.1113C234.329 78.3374 234.67 77.5637 235.014 76.7913C235.428 75.8199 235.428 75.8199 235.652 74.4067C236.283 73.1445 236.283 73.1445 237.162 72.7483C237.889 72.5306 238.618 72.3199 239.349 72.1154C241.289 71.4818 242.628 70.4451 243.641 68.621C244.502 66.5615 244.683 64.8033 244.545 62.5879Z" fill="#B8D5FD"/>
<path d="M183.041 231.494C184.768 232.175 185.507 233.103 186.541 234.621C186.812 235.012 187.083 235.403 187.362 235.806C188.748 238.083 189.248 239.826 189.008 242.51C188.31 243.971 187.501 245.142 186.254 246.182C184.553 246.749 183.455 246.85 181.664 246.641C179.91 245.545 178.653 244.49 177.992 242.51C177.572 239.076 179.018 236.378 181.053 233.699C181.695 232.946 182.365 232.217 183.041 231.494Z" fill="#FADAAE"/>
<path d="M235.365 206.25C237.183 206.25 239 206.25 240.873 206.25C237.885 213.777 234.832 221.274 231.693 228.74C230.775 228.281 230.775 228.281 230.368 227.145C230.247 226.668 230.126 226.191 230.001 225.699C229.876 225.23 229.751 224.76 229.623 224.276C229.19 221.377 229.986 218.991 231.107 216.335C231.29 215.899 231.29 215.899 231.476 215.454C231.86 214.536 232.25 213.62 232.64 212.704C232.904 212.078 233.167 211.451 233.43 210.825C234.071 209.298 234.717 207.774 235.365 206.25Z" fill="#FCF6E3"/>
<path d="M190.385 143.828C192.263 144.658 193.459 145.739 194.516 147.5C194.824 149.409 194.963 150.462 193.928 152.106C192.415 153.912 191.56 154.759 189.151 155.045C187.068 155.033 186.052 154.173 184.578 152.782C183.405 151.47 183.295 150.238 183.305 148.497C183.66 146.684 184.91 145.489 186.254 144.287C187.661 143.584 188.832 143.723 190.385 143.828Z" fill="#FAC4BF"/>
<path d="M228.481 235.166C228.632 235.166 228.784 235.166 228.94 235.166C229.316 237.034 229.691 238.903 230.066 240.772C230.193 241.405 230.32 242.038 230.448 242.672C231.205 246.436 231.944 250.203 232.612 253.984C230.448 254.141 228.344 254.231 226.186 253.984C224.501 252.3 223.977 250.64 223.719 248.29C223.755 245.461 225.06 242.988 226.186 240.444C226.405 239.936 226.624 239.427 226.849 238.902C227.387 237.654 227.931 236.409 228.481 235.166Z" fill="#FAD87C"/>
<path d="M138.52 99.7656C140.64 99.7656 142.761 99.7656 144.945 99.7656C144.945 104.007 144.945 108.248 144.945 112.617C143.128 111.86 141.31 111.103 139.438 110.322C137.733 109.964 136.104 109.63 134.389 109.404C134.511 109.163 134.634 108.922 134.76 108.673C135.43 107.319 136.073 105.954 136.712 104.585C136.954 104.069 137.196 103.553 137.446 103.022C138.123 101.562 138.123 101.562 138.52 99.7656Z" fill="#33ABFC"/>
<path d="M267.953 162.188C270.074 162.188 272.194 162.188 274.379 162.188C273.929 166.184 273.035 169.893 271.912 173.748C271.778 174.211 271.644 174.674 271.506 175.151C270.631 178.092 269.605 180.933 268.412 183.76C268.261 183.76 268.109 183.76 267.953 183.76C267.953 176.641 267.953 169.522 267.953 162.188Z" fill="#34ADFF"/>
<path d="M175.346 250.194C175.747 250.191 176.148 250.188 176.562 250.185C177.213 250.188 177.213 250.188 177.877 250.191C178.322 250.19 178.767 250.189 179.225 250.188C180.167 250.187 181.108 250.189 182.05 250.193C183.494 250.198 184.938 250.193 186.383 250.187C187.296 250.188 188.209 250.189 189.123 250.191C189.557 250.189 189.991 250.187 190.438 250.185C190.839 250.188 191.241 250.191 191.654 250.194C192.185 250.195 192.185 250.195 192.727 250.196C193.598 250.313 193.598 250.313 194.516 251.231C194.516 252.139 194.516 253.048 194.516 253.984C187.245 253.984 179.975 253.984 172.484 253.984C172.484 250.2 172.484 250.2 175.346 250.194Z" fill="#90A4AE"/>
<path d="M214.711 65.3419C216.647 66.7712 217.59 68.6017 218.687 70.6848C219.652 72.3882 220.84 73.9083 222.055 75.4396C221.146 76.1969 220.237 76.9542 219.301 77.7345C219.094 77.5345 218.888 77.3346 218.675 77.1285C216.499 75.1139 214.3 73.7083 211.645 72.3917C210.58 71.7677 210.58 71.7677 209.662 70.3908C209.468 68.6129 209.402 67.5836 210.379 66.0591C211.949 65.0527 212.879 65.0527 214.711 65.3419Z" fill="#FA5848"/>
<path d="M144.486 129.6C144.638 129.6 144.789 129.6 144.945 129.6C144.945 133.083 144.945 136.567 144.945 140.156C141.765 140.156 138.584 140.156 135.307 140.156C136.064 138.945 136.821 137.733 137.602 136.484C138.014 135.305 138.014 135.305 138.147 134.247C138.433 132.44 138.433 132.44 139.438 131.436C140.203 131.169 140.979 130.933 141.761 130.718C143.253 130.393 143.253 130.393 144.486 129.6Z" fill="#B9D7FF"/>
<path d="M144.486 206.25C144.638 206.25 144.789 206.25 144.945 206.25C144.945 214.429 144.945 222.608 144.945 231.035C141.273 229.658 141.273 229.658 139.896 228.74C141.385 221.235 142.913 213.738 144.486 206.25Z" fill="#33ACFC"/>
<path d="M211.957 114.453C214.048 114.708 214.048 114.708 214.711 115.371C214.73 116.289 214.73 117.207 214.711 118.125C215.364 118.097 215.364 118.097 216.031 118.068C217.465 118.125 217.465 118.125 218.383 119.043C218.128 121.134 218.128 121.134 217.465 121.797C216.547 121.816 215.629 121.816 214.711 121.797C214.73 122.232 214.749 122.668 214.768 123.116C214.711 124.551 214.711 124.551 213.793 125.469C211.702 125.214 211.702 125.214 211.039 124.551C211.02 123.633 211.02 122.715 211.039 121.797C210.604 121.816 210.168 121.835 209.719 121.854C208.285 121.797 208.285 121.797 207.367 120.879C207.622 118.788 207.622 118.788 208.285 118.125C209.203 118.106 210.121 118.105 211.039 118.125C211.02 117.69 211.001 117.254 210.982 116.805C211.039 115.371 211.039 115.371 211.957 114.453Z" fill="#FAFDFF"/>
<path d="M260.609 147.5C261.622 147.472 262.635 147.443 263.679 147.414C264.533 147.39 264.533 147.39 265.405 147.366C267.135 147.508 267.966 147.832 269.33 148.877C269.975 150.167 269.903 151.121 269.789 152.549C268.972 153.988 268.631 154.312 267.035 154.844C264.892 154.906 262.754 154.864 260.609 154.844C260.609 152.421 260.609 149.997 260.609 147.5Z" fill="#B7D4FC"/>
<path d="M111.898 143.828C112.911 143.8 113.924 143.772 114.968 143.742C115.823 143.718 115.823 143.718 116.694 143.694C118.424 143.837 119.255 144.16 120.619 145.205C121.264 146.495 121.192 147.449 121.078 148.877C120.261 150.316 119.92 150.64 118.324 151.172C116.181 151.234 114.043 151.192 111.898 151.172C111.898 148.749 111.898 146.325 111.898 143.828Z" fill="#B7D4FC"/>
<path d="M190.844 85.0783C191.857 85.0499 192.87 85.0215 193.913 84.9923C194.768 84.9683 194.768 84.9683 195.64 84.9438C197.369 85.0865 198.2 85.41 199.564 86.4553C200.209 87.7446 200.138 88.6988 200.023 90.1271C199.207 91.5665 198.865 91.8901 197.27 92.4221C195.126 92.4844 192.988 92.4417 190.844 92.4221C190.844 89.9986 190.844 87.5752 190.844 85.0783Z" fill="#B7D4FC"/>
<path d="M183.5 231.494C185.524 233.114 186.18 233.752 187.287 235.912C187.516 236.353 187.746 236.795 187.982 237.249C188.948 239.175 189.157 240.306 189.008 242.51C188.321 243.949 187.544 245.226 186.254 246.182C184.891 246.409 184.891 246.409 183.5 246.641C183.5 241.642 183.5 236.644 183.5 231.494Z" fill="#FBAF42"/>
<path d="M247.758 121.797C248.061 122.1 248.364 122.403 248.676 122.715C248.421 124.806 248.421 124.806 247.758 125.469C247.061 125.581 246.362 125.685 245.664 125.784C243.104 126.269 241.362 127.343 239.496 129.141C239.193 129.595 238.89 130.049 238.578 130.517C237.431 130.661 237.431 130.661 236.283 130.517C235.365 129.6 235.365 129.6 235.336 128.595C236.462 125.615 239.081 123.879 241.884 122.589C243.982 121.741 245.514 121.69 247.758 121.797Z" fill="#3C386B"/>
<path d="M209.203 44.6874C209.506 44.9903 209.809 45.2933 210.121 45.6054C209.866 47.6963 209.866 47.6963 209.203 48.3593C208.506 48.472 207.808 48.5756 207.109 48.6748C204.549 49.1596 202.807 50.2339 200.941 52.0311C200.638 52.4855 200.335 52.9399 200.023 53.4081C198.876 53.5515 198.876 53.5515 197.728 53.4081C196.81 52.4901 196.81 52.4901 196.782 51.4861C197.908 48.5056 200.527 46.7692 203.329 45.4799C205.428 44.6314 206.959 44.5805 209.203 44.6874Z" fill="#3C386B"/>
<path d="M229.857 74.9807C230.316 75.4397 230.316 75.4397 230.453 76.4889C230.275 78.1121 229.731 78.6159 228.59 79.766C228.227 80.1313 227.865 80.4967 227.492 80.8731C226.916 81.4353 226.916 81.4353 226.329 82.0089C225.954 82.3926 225.579 82.7763 225.193 83.1716C224.645 83.7152 224.645 83.7152 224.086 84.2697C223.585 84.767 223.585 84.767 223.073 85.2743C221.859 86.1351 221.218 86.1862 219.76 85.9963C219.301 85.5373 219.301 85.5373 219.164 84.4881C219.342 82.8649 219.886 82.3611 221.027 81.211C221.39 80.8457 221.752 80.4803 222.125 80.1039C222.509 79.7291 222.893 79.3543 223.288 78.9681C223.663 78.5844 224.038 78.2007 224.424 77.8054C224.789 77.443 225.155 77.0806 225.531 76.7073C225.865 76.3757 226.199 76.0442 226.543 75.7027C227.758 74.8418 228.399 74.7908 229.857 74.9807Z" fill="#B6D3FB"/>
<path d="M181.664 182.096C183.534 182.485 184.209 183.152 185.336 184.677C185.623 186.054 185.623 186.054 185.336 187.431C184.193 188.978 183.552 189.643 181.635 189.956C180.09 189.693 179.465 189.552 178.451 188.349C178.006 187.095 177.842 186.003 177.992 184.677C179.091 183.079 179.76 182.492 181.664 182.096Z" fill="#F6C1BE"/>
<path d="M165.14 163.736C167.011 164.126 167.685 164.793 168.812 166.318C169.099 167.695 169.099 167.695 168.812 169.072C167.669 170.619 167.029 171.283 165.112 171.596C163.567 171.333 162.942 171.192 161.928 169.99C161.482 168.736 161.319 167.643 161.469 166.318C162.568 164.719 163.236 164.133 165.14 163.736Z" fill="#F6C1BE"/>
<path d="M247.758 158.516C250.181 158.516 252.605 158.516 255.102 158.516C255.102 160.485 255.102 162.454 255.102 164.482C254.648 164.477 254.195 164.472 253.728 164.466C253.14 164.462 252.552 164.458 251.946 164.454C251.067 164.446 251.067 164.446 250.171 164.438C248.728 164.376 248.728 164.376 247.758 164.941C247.758 162.821 247.758 160.7 247.758 158.516Z" fill="#E8F1FE"/>
<path d="M242.25 147.5C242.25 149.923 242.25 152.347 242.25 154.844C239.037 154.844 239.037 154.844 237.689 153.868C236.742 152.549 236.742 152.549 236.455 151.172C237.176 147.712 238.941 147.5 242.25 147.5Z" fill="#F9F9FA"/>
<path d="M93.5388 143.828C93.5388 146.252 93.5388 148.675 93.5388 151.172C90.3259 151.172 90.3259 151.172 88.9777 150.197C88.031 148.877 88.031 148.877 87.7441 147.5C88.465 144.04 90.2303 143.828 93.5388 143.828Z" fill="#F9F9FA"/>
<path d="M172.484 85.0781C172.484 87.5016 172.484 89.925 172.484 92.4219C169.271 92.4219 169.271 92.4219 167.923 91.4465C166.976 90.127 166.976 90.127 166.689 88.75C167.41 85.2899 169.176 85.0781 172.484 85.0781Z" fill="#F9F9FA"/>
<path d="M185.336 250.313C186.694 250.288 188.051 250.27 189.409 250.255C189.796 250.248 190.182 250.24 190.58 250.232C190.95 250.229 191.32 250.226 191.701 250.223C192.213 250.216 192.213 250.216 192.735 250.208C193.598 250.313 193.598 250.313 194.516 251.231C194.516 252.139 194.516 253.048 194.516 253.985C191.486 253.985 188.457 253.985 185.336 253.985C185.336 252.773 185.336 251.561 185.336 250.313Z" fill="#8496A0"/>
<path d="M247.758 181.465C248.212 181.692 248.212 181.692 248.676 181.924C249.765 181.956 250.856 181.962 251.946 181.953C252.534 181.948 253.122 181.944 253.728 181.94C254.181 181.935 254.635 181.929 255.102 181.924C255.102 183.438 255.102 184.953 255.102 186.514C254.648 186.508 254.195 186.503 253.728 186.498C253.14 186.493 252.552 186.489 251.946 186.485C251.067 186.477 251.067 186.477 250.171 186.469C248.728 186.407 248.728 186.407 247.758 186.973C247.758 185.155 247.758 183.337 247.758 181.465Z" fill="#E7F0FD"/>
<path d="M247.758 174.121C248.212 174.348 248.212 174.348 248.676 174.58C249.765 174.613 250.856 174.619 251.946 174.609C252.534 174.605 253.122 174.6 253.728 174.596C254.181 174.591 254.635 174.586 255.102 174.58C255.102 176.095 255.102 177.609 255.102 179.17C254.648 179.165 254.195 179.159 253.728 179.154C253.14 179.15 252.552 179.146 251.946 179.141C251.067 179.133 251.067 179.133 250.171 179.125C248.728 179.064 248.728 179.064 247.758 179.629C247.758 177.811 247.758 175.994 247.758 174.121Z" fill="#E7F0FD"/>
<path d="M247.758 166.777C248.212 167.005 248.212 167.005 248.676 167.236C249.765 167.269 250.856 167.275 251.946 167.265C252.534 167.261 253.122 167.257 253.728 167.252C254.181 167.247 254.635 167.242 255.102 167.236C255.102 168.751 255.102 170.266 255.102 171.826C254.648 171.821 254.195 171.816 253.728 171.81C253.14 171.806 252.552 171.802 251.946 171.797C251.067 171.789 251.067 171.789 250.171 171.781C248.728 171.72 248.728 171.72 247.758 172.285C247.758 170.468 247.758 168.65 247.758 166.777Z" fill="#E7F0FD"/>
<path d="M100.854 228.195C101.351 228.189 101.847 228.182 102.358 228.175C103.637 228.281 103.637 228.281 104.555 229.199C104.3 231.29 104.3 231.29 103.637 231.953C102.73 232.01 101.82 232.034 100.911 232.039C100.415 232.046 99.9187 232.052 99.4072 232.059C98.1289 231.953 98.1289 231.953 97.2109 231.035C97.5563 228.203 98.1078 228.211 100.854 228.195Z" fill="#363569"/>
<path d="M100.854 220.851C101.351 220.845 101.847 220.838 102.358 220.832C103.637 220.937 103.637 220.937 104.555 221.855C104.3 223.946 104.3 223.946 103.637 224.609C102.73 224.667 101.82 224.69 100.911 224.695C100.415 224.702 99.9187 224.708 99.4072 224.715C98.1289 224.609 98.1289 224.609 97.2109 223.691C97.5563 220.86 98.1078 220.868 100.854 220.851Z" fill="#363569"/>
<path d="M100.854 213.508C101.351 213.501 101.847 213.494 102.358 213.488C103.637 213.594 103.637 213.594 104.555 214.512C104.3 216.602 104.3 216.602 103.637 217.265C102.73 217.323 101.82 217.346 100.911 217.352C100.415 217.358 99.9187 217.365 99.4072 217.371C98.1289 217.265 98.1289 217.265 97.2109 216.347C97.5563 213.516 98.1078 213.524 100.854 213.508Z" fill="#363569"/>
<path d="M100.854 206.164C101.351 206.157 101.847 206.151 102.358 206.144C103.637 206.25 103.637 206.25 104.555 207.168C104.3 209.259 104.3 209.259 103.637 209.922C102.73 209.979 101.82 210.002 100.911 210.008C100.415 210.014 99.9187 210.021 99.4072 210.027C98.1289 209.922 98.1289 209.922 97.2109 209.004C97.5563 206.172 98.1078 206.18 100.854 206.164Z" fill="#363569"/>
<path d="M100.854 198.82C101.351 198.814 101.847 198.807 102.358 198.8C103.637 198.906 103.637 198.906 104.555 199.824C104.3 201.915 104.3 201.915 103.637 202.578C102.73 202.635 101.82 202.659 100.911 202.664C100.415 202.671 99.9187 202.677 99.4072 202.684C98.1289 202.578 98.1289 202.578 97.2109 201.66C97.5563 198.828 98.1078 198.836 100.854 198.82Z" fill="#363569"/>
<path d="M251.401 185.968C251.897 185.962 252.394 185.955 252.905 185.949C254.184 186.055 254.184 186.055 255.102 186.972C254.847 189.063 254.847 189.063 254.184 189.726C253.277 189.784 252.367 189.807 251.458 189.812C250.962 189.819 250.466 189.825 249.954 189.832C248.676 189.726 248.676 189.726 247.758 188.808C248.103 185.977 248.655 185.985 251.401 185.968Z" fill="#39366A"/>
<path d="M100.854 184.133C101.351 184.126 101.847 184.119 102.358 184.113C103.637 184.219 103.637 184.219 104.555 185.137C104.3 187.227 104.3 187.227 103.637 187.89C102.73 187.948 101.82 187.971 100.911 187.977C100.415 187.983 99.9187 187.99 99.4072 187.996C98.1289 187.89 98.1289 187.89 97.2109 186.972C97.5563 184.141 98.1078 184.149 100.854 184.133Z" fill="#3A366A"/>
<path d="M251.401 178.625C251.897 178.618 252.394 178.612 252.905 178.605C254.184 178.711 254.184 178.711 255.102 179.629C254.847 181.72 254.847 181.72 254.184 182.383C253.277 182.44 252.367 182.463 251.458 182.469C250.962 182.475 250.466 182.482 249.954 182.488C248.676 182.383 248.676 182.383 247.758 181.465C248.103 178.633 248.655 178.641 251.401 178.625Z" fill="#39366A"/>
<path d="M100.854 176.789C101.351 176.782 101.847 176.776 102.358 176.769C103.637 176.875 103.637 176.875 104.555 177.793C104.3 179.884 104.3 179.884 103.637 180.547C102.73 180.604 101.82 180.627 100.911 180.633C100.415 180.639 99.9187 180.646 99.4072 180.652C98.1289 180.547 98.1289 180.547 97.2109 179.629C97.5563 176.797 98.1078 176.805 100.854 176.789Z" fill="#3A366A"/>
<path d="M251.401 171.281C251.897 171.274 252.394 171.268 252.905 171.261C254.184 171.367 254.184 171.367 255.102 172.285C254.847 174.376 254.847 174.376 254.184 175.039C253.277 175.096 252.367 175.12 251.458 175.125C250.962 175.131 250.466 175.138 249.954 175.145C248.676 175.039 248.676 175.039 247.758 174.121C248.103 171.289 248.655 171.297 251.401 171.281Z" fill="#39366A"/>
<path d="M100.854 169.445C101.351 169.439 101.847 169.432 102.358 169.425C103.637 169.531 103.637 169.531 104.555 170.449C104.3 172.54 104.3 172.54 103.637 173.203C102.73 173.26 101.82 173.284 100.911 173.289C100.415 173.296 99.9187 173.302 99.4072 173.309C98.1289 173.203 98.1289 173.203 97.2109 172.285C97.5563 169.453 98.1078 169.461 100.854 169.445Z" fill="#3A366A"/>
<path d="M251.401 163.937C251.897 163.931 252.394 163.924 252.905 163.917C254.184 164.023 254.184 164.023 255.102 164.941C254.847 167.032 254.847 167.032 254.184 167.695C253.277 167.753 252.367 167.776 251.458 167.781C250.962 167.788 250.466 167.794 249.954 167.801C248.676 167.695 248.676 167.695 247.758 166.777C248.103 163.946 248.655 163.954 251.401 163.937Z" fill="#39366A"/>
<path d="M100.854 162.101C101.351 162.095 101.847 162.088 102.358 162.082C103.637 162.187 103.637 162.187 104.555 163.105C104.3 165.196 104.3 165.196 103.637 165.859C102.73 165.917 101.82 165.94 100.911 165.945C100.415 165.952 99.9187 165.958 99.4072 165.965C98.1289 165.859 98.1289 165.859 97.2109 164.941C97.5563 162.11 98.1078 162.118 100.854 162.101Z" fill="#3A366A"/>
<path d="M222.973 79.5703C224.176 80.0517 224.714 80.3273 225.382 81.4636C225.496 81.7476 225.61 82.0316 225.727 82.3242C225.17 82.943 224.604 83.5535 224.034 84.1602C223.563 84.6714 223.563 84.6714 223.082 85.1929C222.055 85.9961 222.055 85.9961 220.812 86.1395C219.76 85.9961 219.76 85.9961 219.301 85.5371C219.158 84.4847 219.158 84.4847 219.301 83.2422C220.104 82.2149 220.104 82.2149 221.137 81.2628C221.478 80.9427 221.818 80.6226 222.17 80.2929C222.435 80.0544 222.7 79.816 222.973 79.5703Z" fill="#E4EDFB"/>
<path d="M207.367 206.25C208.561 206.115 208.561 206.115 209.949 206.164C210.639 206.182 210.639 206.182 211.344 206.201C211.698 206.217 212.051 206.233 212.416 206.25C210.799 207.978 209.212 209.209 207.166 210.438C206.415 210.894 206.415 210.894 205.648 211.36C204.248 212.163 202.877 212.943 201.4 213.594C201.097 213.442 200.795 213.291 200.482 213.135C201.113 212.562 201.113 212.562 201.755 211.978C202.306 211.474 202.857 210.971 203.408 210.467C203.685 210.216 203.962 209.964 204.248 209.706C204.514 209.462 204.78 209.218 205.054 208.966C205.3 208.743 205.545 208.519 205.797 208.289C206.557 207.559 206.557 207.559 207.367 206.25Z" fill="#E44A3B"/>
<path d="M139.438 92.4219C141.255 92.4219 143.073 92.4219 144.945 92.4219C144.945 93.6336 144.945 94.8453 144.945 96.0938C143.128 96.0938 141.31 96.0938 139.438 96.0938C139.438 94.882 139.438 93.6703 139.438 92.4219Z" fill="#8597A1"/>
<path d="M174.496 250.223C174.911 250.233 175.327 250.244 175.755 250.255C176.381 250.267 176.381 250.267 177.02 250.28C177.341 250.291 177.662 250.301 177.992 250.312C177.992 251.524 177.992 252.736 177.992 253.984C176.175 253.984 174.357 253.984 172.484 253.984C172.484 250.388 172.484 250.388 174.496 250.223Z" fill="#B0C4D0"/>
<path d="M148.617 135.107C150.435 135.107 152.252 135.107 154.125 135.107C152.586 137.287 150.764 138.617 148.617 140.156C148.617 138.49 148.617 136.824 148.617 135.107Z" fill="#B7D4FC"/>
<path d="M125.668 193.398C126.873 193.571 126.873 193.571 127.963 193.857C128.25 194.948 128.25 194.948 128.422 196.152C128.119 196.455 127.816 196.758 127.504 197.07C126.299 196.898 126.299 196.898 125.209 196.611C124.922 195.521 124.922 195.521 124.75 194.316C125.053 194.013 125.356 193.711 125.668 193.398Z" fill="#F1F9FF"/>
<path d="M213.793 97.9297C214.998 98.1018 214.998 98.1018 216.088 98.3887C216.375 99.4788 216.375 99.4788 216.547 100.684C216.244 100.987 215.941 101.289 215.629 101.602C214.424 101.429 214.424 101.429 213.334 101.143C213.047 100.052 213.047 100.052 212.875 98.8477C213.178 98.5447 213.481 98.2418 213.793 97.9297Z" fill="#F1F9FF"/>
<path d="M158.715 66.7188C159.92 66.8909 159.92 66.8909 161.01 67.1777C161.297 68.2678 161.297 68.2678 161.469 69.4727C161.166 69.7756 160.863 70.0785 160.551 70.3906C159.346 70.2185 159.346 70.2185 158.256 69.9316C157.969 68.8416 157.969 68.8416 157.797 67.6367C158.1 67.3338 158.403 67.0309 158.715 66.7188Z" fill="#F1F9FF"/>
<path d="M273.002 153.467C273.305 153.467 273.608 153.467 273.92 153.467C273.721 155.726 272.806 156.982 271.166 158.516C269.416 158.688 269.416 158.688 267.953 158.516C268.408 158.213 268.862 157.91 269.33 157.598C271.606 155.88 271.606 155.88 273.002 153.467Z" fill="#DDE6F7"/>
</g>
<defs>
<linearGradient id="paint0_linear_1122_2887" x1="91.0696" y1="262.687" x2="32.508" y2="170.886" gradientUnits="userSpaceOnUse">
<stop stop-color="white"/>
<stop offset="1" stop-color="#EEEEEE"/>
</linearGradient>
<linearGradient id="paint1_linear_1122_2887" x1="235.703" y1="77.3792" x2="304.433" y2="16.2251" gradientUnits="userSpaceOnUse">
<stop stop-color="white"/>
<stop offset="1" stop-color="#EEEEEE"/>
</linearGradient>
<linearGradient id="paint2_linear_1122_2887" x1="78.4555" y1="107.336" x2="141.485" y2="8.53135" gradientUnits="userSpaceOnUse">
<stop stop-color="white"/>
<stop offset="1" stop-color="#EEEEEE"/>
</linearGradient>
<clipPath id="clip0_1122_2887">
<rect width="444" height="296" fill="white" transform="translate(-47)"/>
</clipPath>
</defs>
</svg>
